<?xml version="1.0" encoding="utf-8" standalone="no"?>
<!DOCTYPE svg PUBLIC "-//W3C//DTD SVG 1.1//EN"
  "http://www.w3.org/Graphics/SVG/1.1/DTD/svg11.dtd">
<!-- Created with matplotlib (https://matplotlib.org/) -->
<svg height="262.19625pt" version="1.1" viewBox="0 0 265.243125 262.19625" width="265.243125pt" xmlns="http://www.w3.org/2000/svg" xmlns:xlink="http://www.w3.org/1999/xlink">
 <defs>
  <style type="text/css">
*{stroke-linecap:butt;stroke-linejoin:round;}
  </style>
 </defs>
 <g id="figure_1">
  <g id="patch_1">
   <path d="M 0 262.19625 
L 265.243125 262.19625 
L 265.243125 0 
L 0 0 
z
" style="fill:#ffffff;"/>
  </g>
  <g id="axes_1">
   <g id="patch_2">
    <path d="M 40.603125 224.64 
L 258.043125 224.64 
L 258.043125 7.2 
L 40.603125 7.2 
z
" style="fill:#ffffff;"/>
   </g>
   <g id="patch_3">
    <path clip-path="url(#pdd623d5872)" d="M 40.603125 224.64 
L 64.237908 224.64 
L 64.237908 201.005217 
L 40.603125 201.005217 
z
" style="fill:none;stroke:#000000;stroke-linejoin:miter;"/>
   </g>
   <g id="patch_4">
    <path clip-path="url(#pdd623d5872)" d="M 40.603125 224.64 
L 64.237908 224.64 
L 64.237908 201.005217 
L 40.603125 201.005217 
z
" style="fill:none;stroke:#000000;stroke-linejoin:miter;"/>
   </g>
   <g id="matplotlib.axis_1">
    <g id="xtick_1">
     <g id="line2d_1">
      <path clip-path="url(#pdd623d5872)" d="M 40.603125 224.64 
L 40.603125 7.2 
" style="fill:none;stroke:#b0b0b0;stroke-linecap:square;stroke-width:0.8;"/>
     </g>
     <g id="line2d_2">
      <defs>
       <path d="M 0 0 
L 0 3.5 
" id="m35fe0aedaf" style="stroke:#000000;stroke-width:0.8;"/>
      </defs>
      <g>
       <use style="stroke:#000000;stroke-width:0.8;" x="40.603125" xlink:href="#m35fe0aedaf" y="224.64"/>
      </g>
     </g>
     <g id="text_1">
      <!-- 0 -->
      <defs>
       <path d="M 31.78125 66.40625 
Q 24.171875 66.40625 20.328125 58.90625 
Q 16.5 51.421875 16.5 36.375 
Q 16.5 21.390625 20.328125 13.890625 
Q 24.171875 6.390625 31.78125 6.390625 
Q 39.453125 6.390625 43.28125 13.890625 
Q 47.125 21.390625 47.125 36.375 
Q 47.125 51.421875 43.28125 58.90625 
Q 39.453125 66.40625 31.78125 66.40625 
z
M 31.78125 74.21875 
Q 44.046875 74.21875 50.515625 64.515625 
Q 56.984375 54.828125 56.984375 36.375 
Q 56.984375 17.96875 50.515625 8.265625 
Q 44.046875 -1.421875 31.78125 -1.421875 
Q 19.53125 -1.421875 13.0625 8.265625 
Q 6.59375 17.96875 6.59375 36.375 
Q 6.59375 54.828125 13.0625 64.515625 
Q 19.53125 74.21875 31.78125 74.21875 
z
" id="DejaVuSans-48"/>
      </defs>
      <g transform="translate(37.421875 239.238437)scale(0.1 -0.1)">
       <use xlink:href="#DejaVuSans-48"/>
      </g>
     </g>
    </g>
    <g id="xtick_2">
     <g id="line2d_3">
      <path clip-path="url(#pdd623d5872)" d="M 87.87269 224.64 
L 87.87269 7.2 
" style="fill:none;stroke:#b0b0b0;stroke-linecap:square;stroke-width:0.8;"/>
     </g>
     <g id="line2d_4">
      <g>
       <use style="stroke:#000000;stroke-width:0.8;" x="87.87269" xlink:href="#m35fe0aedaf" y="224.64"/>
      </g>
     </g>
     <g id="text_2">
      <!-- 10 -->
      <defs>
       <path d="M 12.40625 8.296875 
L 28.515625 8.296875 
L 28.515625 63.921875 
L 10.984375 60.40625 
L 10.984375 69.390625 
L 28.421875 72.90625 
L 38.28125 72.90625 
L 38.28125 8.296875 
L 54.390625 8.296875 
L 54.390625 0 
L 12.40625 0 
z
" id="DejaVuSans-49"/>
      </defs>
      <g transform="translate(81.51019 239.238437)scale(0.1 -0.1)">
       <use xlink:href="#DejaVuSans-49"/>
       <use x="63.623047" xlink:href="#DejaVuSans-48"/>
      </g>
     </g>
    </g>
    <g id="xtick_3">
     <g id="line2d_5">
      <path clip-path="url(#pdd623d5872)" d="M 135.142255 224.64 
L 135.142255 7.2 
" style="fill:none;stroke:#b0b0b0;stroke-linecap:square;stroke-width:0.8;"/>
     </g>
     <g id="line2d_6">
      <g>
       <use style="stroke:#000000;stroke-width:0.8;" x="135.142255" xlink:href="#m35fe0aedaf" y="224.64"/>
      </g>
     </g>
     <g id="text_3">
      <!-- 20 -->
      <defs>
       <path d="M 19.1875 8.296875 
L 53.609375 8.296875 
L 53.609375 0 
L 7.328125 0 
L 7.328125 8.296875 
Q 12.9375 14.109375 22.625 23.890625 
Q 32.328125 33.6875 34.8125 36.53125 
Q 39.546875 41.84375 41.421875 45.53125 
Q 43.3125 49.21875 43.3125 52.78125 
Q 43.3125 58.59375 39.234375 62.25 
Q 35.15625 65.921875 28.609375 65.921875 
Q 23.96875 65.921875 18.8125 64.3125 
Q 13.671875 62.703125 7.8125 59.421875 
L 7.8125 69.390625 
Q 13.765625 71.78125 18.9375 73 
Q 24.125 74.21875 28.421875 74.21875 
Q 39.75 74.21875 46.484375 68.546875 
Q 53.21875 62.890625 53.21875 53.421875 
Q 53.21875 48.921875 51.53125 44.890625 
Q 49.859375 40.875 45.40625 35.40625 
Q 44.1875 33.984375 37.640625 27.21875 
Q 31.109375 20.453125 19.1875 8.296875 
z
" id="DejaVuSans-50"/>
      </defs>
      <g transform="translate(128.779755 239.238437)scale(0.1 -0.1)">
       <use xlink:href="#DejaVuSans-50"/>
       <use x="63.623047" xlink:href="#DejaVuSans-48"/>
      </g>
     </g>
    </g>
    <g id="xtick_4">
     <g id="line2d_7">
      <path clip-path="url(#pdd623d5872)" d="M 182.411821 224.64 
L 182.411821 7.2 
" style="fill:none;stroke:#b0b0b0;stroke-linecap:square;stroke-width:0.8;"/>
     </g>
     <g id="line2d_8">
      <g>
       <use style="stroke:#000000;stroke-width:0.8;" x="182.411821" xlink:href="#m35fe0aedaf" y="224.64"/>
      </g>
     </g>
     <g id="text_4">
      <!-- 30 -->
      <defs>
       <path d="M 40.578125 39.3125 
Q 47.65625 37.796875 51.625 33 
Q 55.609375 28.21875 55.609375 21.1875 
Q 55.609375 10.40625 48.1875 4.484375 
Q 40.765625 -1.421875 27.09375 -1.421875 
Q 22.515625 -1.421875 17.65625 -0.515625 
Q 12.796875 0.390625 7.625 2.203125 
L 7.625 11.71875 
Q 11.71875 9.328125 16.59375 8.109375 
Q 21.484375 6.890625 26.8125 6.890625 
Q 36.078125 6.890625 40.9375 10.546875 
Q 45.796875 14.203125 45.796875 21.1875 
Q 45.796875 27.640625 41.28125 31.265625 
Q 36.765625 34.90625 28.71875 34.90625 
L 20.21875 34.90625 
L 20.21875 43.015625 
L 29.109375 43.015625 
Q 36.375 43.015625 40.234375 45.921875 
Q 44.09375 48.828125 44.09375 54.296875 
Q 44.09375 59.90625 40.109375 62.90625 
Q 36.140625 65.921875 28.71875 65.921875 
Q 24.65625 65.921875 20.015625 65.03125 
Q 15.375 64.15625 9.8125 62.3125 
L 9.8125 71.09375 
Q 15.4375 72.65625 20.34375 73.4375 
Q 25.25 74.21875 29.59375 74.21875 
Q 40.828125 74.21875 47.359375 69.109375 
Q 53.90625 64.015625 53.90625 55.328125 
Q 53.90625 49.265625 50.4375 45.09375 
Q 46.96875 40.921875 40.578125 39.3125 
z
" id="DejaVuSans-51"/>
      </defs>
      <g transform="translate(176.049321 239.238437)scale(0.1 -0.1)">
       <use xlink:href="#DejaVuSans-51"/>
       <use x="63.623047" xlink:href="#DejaVuSans-48"/>
      </g>
     </g>
    </g>
    <g id="xtick_5">
     <g id="line2d_9">
      <path clip-path="url(#pdd623d5872)" d="M 229.681386 224.64 
L 229.681386 7.2 
" style="fill:none;stroke:#b0b0b0;stroke-linecap:square;stroke-width:0.8;"/>
     </g>
     <g id="line2d_10">
      <g>
       <use style="stroke:#000000;stroke-width:0.8;" x="229.681386" xlink:href="#m35fe0aedaf" y="224.64"/>
      </g>
     </g>
     <g id="text_5">
      <!-- 40 -->
      <defs>
       <path d="M 37.796875 64.3125 
L 12.890625 25.390625 
L 37.796875 25.390625 
z
M 35.203125 72.90625 
L 47.609375 72.90625 
L 47.609375 25.390625 
L 58.015625 25.390625 
L 58.015625 17.1875 
L 47.609375 17.1875 
L 47.609375 0 
L 37.796875 0 
L 37.796875 17.1875 
L 4.890625 17.1875 
L 4.890625 26.703125 
z
" id="DejaVuSans-52"/>
      </defs>
      <g transform="translate(223.318886 239.238437)scale(0.1 -0.1)">
       <use xlink:href="#DejaVuSans-52"/>
       <use x="63.623047" xlink:href="#DejaVuSans-48"/>
      </g>
     </g>
    </g>
    <g id="text_6">
     <!-- Scaling factor using standard atmosphere -->
     <defs>
      <path d="M 53.515625 70.515625 
L 53.515625 60.890625 
Q 47.90625 63.578125 42.921875 64.890625 
Q 37.9375 66.21875 33.296875 66.21875 
Q 25.25 66.21875 20.875 63.09375 
Q 16.5 59.96875 16.5 54.203125 
Q 16.5 49.359375 19.40625 46.890625 
Q 22.3125 44.4375 30.421875 42.921875 
L 36.375 41.703125 
Q 47.40625 39.59375 52.65625 34.296875 
Q 57.90625 29 57.90625 20.125 
Q 57.90625 9.515625 50.796875 4.046875 
Q 43.703125 -1.421875 29.984375 -1.421875 
Q 24.8125 -1.421875 18.96875 -0.25 
Q 13.140625 0.921875 6.890625 3.21875 
L 6.890625 13.375 
Q 12.890625 10.015625 18.65625 8.296875 
Q 24.421875 6.59375 29.984375 6.59375 
Q 38.421875 6.59375 43.015625 9.90625 
Q 47.609375 13.234375 47.609375 19.390625 
Q 47.609375 24.75 44.3125 27.78125 
Q 41.015625 30.8125 33.5 32.328125 
L 27.484375 33.5 
Q 16.453125 35.6875 11.515625 40.375 
Q 6.59375 45.0625 6.59375 53.421875 
Q 6.59375 63.09375 13.40625 68.65625 
Q 20.21875 74.21875 32.171875 74.21875 
Q 37.3125 74.21875 42.625 73.28125 
Q 47.953125 72.359375 53.515625 70.515625 
z
" id="DejaVuSans-83"/>
      <path d="M 48.78125 52.59375 
L 48.78125 44.1875 
Q 44.96875 46.296875 41.140625 47.34375 
Q 37.3125 48.390625 33.40625 48.390625 
Q 24.65625 48.390625 19.8125 42.84375 
Q 14.984375 37.3125 14.984375 27.296875 
Q 14.984375 17.28125 19.8125 11.734375 
Q 24.65625 6.203125 33.40625 6.203125 
Q 37.3125 6.203125 41.140625 7.25 
Q 44.96875 8.296875 48.78125 10.40625 
L 48.78125 2.09375 
Q 45.015625 0.34375 40.984375 -0.53125 
Q 36.96875 -1.421875 32.421875 -1.421875 
Q 20.0625 -1.421875 12.78125 6.34375 
Q 5.515625 14.109375 5.515625 27.296875 
Q 5.515625 40.671875 12.859375 48.328125 
Q 20.21875 56 33.015625 56 
Q 37.15625 56 41.109375 55.140625 
Q 45.0625 54.296875 48.78125 52.59375 
z
" id="DejaVuSans-99"/>
      <path d="M 34.28125 27.484375 
Q 23.390625 27.484375 19.1875 25 
Q 14.984375 22.515625 14.984375 16.5 
Q 14.984375 11.71875 18.140625 8.90625 
Q 21.296875 6.109375 26.703125 6.109375 
Q 34.1875 6.109375 38.703125 11.40625 
Q 43.21875 16.703125 43.21875 25.484375 
L 43.21875 27.484375 
z
M 52.203125 31.203125 
L 52.203125 0 
L 43.21875 0 
L 43.21875 8.296875 
Q 40.140625 3.328125 35.546875 0.953125 
Q 30.953125 -1.421875 24.3125 -1.421875 
Q 15.921875 -1.421875 10.953125 3.296875 
Q 6 8.015625 6 15.921875 
Q 6 25.140625 12.171875 29.828125 
Q 18.359375 34.515625 30.609375 34.515625 
L 43.21875 34.515625 
L 43.21875 35.40625 
Q 43.21875 41.609375 39.140625 45 
Q 35.0625 48.390625 27.6875 48.390625 
Q 23 48.390625 18.546875 47.265625 
Q 14.109375 46.140625 10.015625 43.890625 
L 10.015625 52.203125 
Q 14.9375 54.109375 19.578125 55.046875 
Q 24.21875 56 28.609375 56 
Q 40.484375 56 46.34375 49.84375 
Q 52.203125 43.703125 52.203125 31.203125 
z
" id="DejaVuSans-97"/>
      <path d="M 9.421875 75.984375 
L 18.40625 75.984375 
L 18.40625 0 
L 9.421875 0 
z
" id="DejaVuSans-108"/>
      <path d="M 9.421875 54.6875 
L 18.40625 54.6875 
L 18.40625 0 
L 9.421875 0 
z
M 9.421875 75.984375 
L 18.40625 75.984375 
L 18.40625 64.59375 
L 9.421875 64.59375 
z
" id="DejaVuSans-105"/>
      <path d="M 54.890625 33.015625 
L 54.890625 0 
L 45.90625 0 
L 45.90625 32.71875 
Q 45.90625 40.484375 42.875 44.328125 
Q 39.84375 48.1875 33.796875 48.1875 
Q 26.515625 48.1875 22.3125 43.546875 
Q 18.109375 38.921875 18.109375 30.90625 
L 18.109375 0 
L 9.078125 0 
L 9.078125 54.6875 
L 18.109375 54.6875 
L 18.109375 46.1875 
Q 21.34375 51.125 25.703125 53.5625 
Q 30.078125 56 35.796875 56 
Q 45.21875 56 50.046875 50.171875 
Q 54.890625 44.34375 54.890625 33.015625 
z
" id="DejaVuSans-110"/>
      <path d="M 45.40625 27.984375 
Q 45.40625 37.75 41.375 43.109375 
Q 37.359375 48.484375 30.078125 48.484375 
Q 22.859375 48.484375 18.828125 43.109375 
Q 14.796875 37.75 14.796875 27.984375 
Q 14.796875 18.265625 18.828125 12.890625 
Q 22.859375 7.515625 30.078125 7.515625 
Q 37.359375 7.515625 41.375 12.890625 
Q 45.40625 18.265625 45.40625 27.984375 
z
M 54.390625 6.78125 
Q 54.390625 -7.171875 48.1875 -13.984375 
Q 42 -20.796875 29.203125 -20.796875 
Q 24.46875 -20.796875 20.265625 -20.09375 
Q 16.0625 -19.390625 12.109375 -17.921875 
L 12.109375 -9.1875 
Q 16.0625 -11.328125 19.921875 -12.34375 
Q 23.78125 -13.375 27.78125 -13.375 
Q 36.625 -13.375 41.015625 -8.765625 
Q 45.40625 -4.15625 45.40625 5.171875 
L 45.40625 9.625 
Q 42.625 4.78125 38.28125 2.390625 
Q 33.9375 0 27.875 0 
Q 17.828125 0 11.671875 7.65625 
Q 5.515625 15.328125 5.515625 27.984375 
Q 5.515625 40.671875 11.671875 48.328125 
Q 17.828125 56 27.875 56 
Q 33.9375 56 38.28125 53.609375 
Q 42.625 51.21875 45.40625 46.390625 
L 45.40625 54.6875 
L 54.390625 54.6875 
z
" id="DejaVuSans-103"/>
      <path id="DejaVuSans-32"/>
      <path d="M 37.109375 75.984375 
L 37.109375 68.5 
L 28.515625 68.5 
Q 23.6875 68.5 21.796875 66.546875 
Q 19.921875 64.59375 19.921875 59.515625 
L 19.921875 54.6875 
L 34.71875 54.6875 
L 34.71875 47.703125 
L 19.921875 47.703125 
L 19.921875 0 
L 10.890625 0 
L 10.890625 47.703125 
L 2.296875 47.703125 
L 2.296875 54.6875 
L 10.890625 54.6875 
L 10.890625 58.5 
Q 10.890625 67.625 15.140625 71.796875 
Q 19.390625 75.984375 28.609375 75.984375 
z
" id="DejaVuSans-102"/>
      <path d="M 18.3125 70.21875 
L 18.3125 54.6875 
L 36.8125 54.6875 
L 36.8125 47.703125 
L 18.3125 47.703125 
L 18.3125 18.015625 
Q 18.3125 11.328125 20.140625 9.421875 
Q 21.96875 7.515625 27.59375 7.515625 
L 36.8125 7.515625 
L 36.8125 0 
L 27.59375 0 
Q 17.1875 0 13.234375 3.875 
Q 9.28125 7.765625 9.28125 18.015625 
L 9.28125 47.703125 
L 2.6875 47.703125 
L 2.6875 54.6875 
L 9.28125 54.6875 
L 9.28125 70.21875 
z
" id="DejaVuSans-116"/>
      <path d="M 30.609375 48.390625 
Q 23.390625 48.390625 19.1875 42.75 
Q 14.984375 37.109375 14.984375 27.296875 
Q 14.984375 17.484375 19.15625 11.84375 
Q 23.34375 6.203125 30.609375 6.203125 
Q 37.796875 6.203125 41.984375 11.859375 
Q 46.1875 17.53125 46.1875 27.296875 
Q 46.1875 37.015625 41.984375 42.703125 
Q 37.796875 48.390625 30.609375 48.390625 
z
M 30.609375 56 
Q 42.328125 56 49.015625 48.375 
Q 55.71875 40.765625 55.71875 27.296875 
Q 55.71875 13.875 49.015625 6.21875 
Q 42.328125 -1.421875 30.609375 -1.421875 
Q 18.84375 -1.421875 12.171875 6.21875 
Q 5.515625 13.875 5.515625 27.296875 
Q 5.515625 40.765625 12.171875 48.375 
Q 18.84375 56 30.609375 56 
z
" id="DejaVuSans-111"/>
      <path d="M 41.109375 46.296875 
Q 39.59375 47.171875 37.8125 47.578125 
Q 36.03125 48 33.890625 48 
Q 26.265625 48 22.1875 43.046875 
Q 18.109375 38.09375 18.109375 28.8125 
L 18.109375 0 
L 9.078125 0 
L 9.078125 54.6875 
L 18.109375 54.6875 
L 18.109375 46.1875 
Q 20.953125 51.171875 25.484375 53.578125 
Q 30.03125 56 36.53125 56 
Q 37.453125 56 38.578125 55.875 
Q 39.703125 55.765625 41.0625 55.515625 
z
" id="DejaVuSans-114"/>
      <path d="M 8.5 21.578125 
L 8.5 54.6875 
L 17.484375 54.6875 
L 17.484375 21.921875 
Q 17.484375 14.15625 20.5 10.265625 
Q 23.53125 6.390625 29.59375 6.390625 
Q 36.859375 6.390625 41.078125 11.03125 
Q 45.3125 15.671875 45.3125 23.6875 
L 45.3125 54.6875 
L 54.296875 54.6875 
L 54.296875 0 
L 45.3125 0 
L 45.3125 8.40625 
Q 42.046875 3.421875 37.71875 1 
Q 33.40625 -1.421875 27.6875 -1.421875 
Q 18.265625 -1.421875 13.375 4.4375 
Q 8.5 10.296875 8.5 21.578125 
z
M 31.109375 56 
z
" id="DejaVuSans-117"/>
      <path d="M 44.28125 53.078125 
L 44.28125 44.578125 
Q 40.484375 46.53125 36.375 47.5 
Q 32.28125 48.484375 27.875 48.484375 
Q 21.1875 48.484375 17.84375 46.4375 
Q 14.5 44.390625 14.5 40.28125 
Q 14.5 37.15625 16.890625 35.375 
Q 19.28125 33.59375 26.515625 31.984375 
L 29.59375 31.296875 
Q 39.15625 29.25 43.1875 25.515625 
Q 47.21875 21.78125 47.21875 15.09375 
Q 47.21875 7.46875 41.1875 3.015625 
Q 35.15625 -1.421875 24.609375 -1.421875 
Q 20.21875 -1.421875 15.453125 -0.5625 
Q 10.6875 0.296875 5.421875 2 
L 5.421875 11.28125 
Q 10.40625 8.6875 15.234375 7.390625 
Q 20.0625 6.109375 24.8125 6.109375 
Q 31.15625 6.109375 34.5625 8.28125 
Q 37.984375 10.453125 37.984375 14.40625 
Q 37.984375 18.0625 35.515625 20.015625 
Q 33.0625 21.96875 24.703125 23.78125 
L 21.578125 24.515625 
Q 13.234375 26.265625 9.515625 29.90625 
Q 5.8125 33.546875 5.8125 39.890625 
Q 5.8125 47.609375 11.28125 51.796875 
Q 16.75 56 26.8125 56 
Q 31.78125 56 36.171875 55.265625 
Q 40.578125 54.546875 44.28125 53.078125 
z
" id="DejaVuSans-115"/>
      <path d="M 45.40625 46.390625 
L 45.40625 75.984375 
L 54.390625 75.984375 
L 54.390625 0 
L 45.40625 0 
L 45.40625 8.203125 
Q 42.578125 3.328125 38.25 0.953125 
Q 33.9375 -1.421875 27.875 -1.421875 
Q 17.96875 -1.421875 11.734375 6.484375 
Q 5.515625 14.40625 5.515625 27.296875 
Q 5.515625 40.1875 11.734375 48.09375 
Q 17.96875 56 27.875 56 
Q 33.9375 56 38.25 53.625 
Q 42.578125 51.265625 45.40625 46.390625 
z
M 14.796875 27.296875 
Q 14.796875 17.390625 18.875 11.75 
Q 22.953125 6.109375 30.078125 6.109375 
Q 37.203125 6.109375 41.296875 11.75 
Q 45.40625 17.390625 45.40625 27.296875 
Q 45.40625 37.203125 41.296875 42.84375 
Q 37.203125 48.484375 30.078125 48.484375 
Q 22.953125 48.484375 18.875 42.84375 
Q 14.796875 37.203125 14.796875 27.296875 
z
" id="DejaVuSans-100"/>
      <path d="M 52 44.1875 
Q 55.375 50.25 60.0625 53.125 
Q 64.75 56 71.09375 56 
Q 79.640625 56 84.28125 50.015625 
Q 88.921875 44.046875 88.921875 33.015625 
L 88.921875 0 
L 79.890625 0 
L 79.890625 32.71875 
Q 79.890625 40.578125 77.09375 44.375 
Q 74.3125 48.1875 68.609375 48.1875 
Q 61.625 48.1875 57.5625 43.546875 
Q 53.515625 38.921875 53.515625 30.90625 
L 53.515625 0 
L 44.484375 0 
L 44.484375 32.71875 
Q 44.484375 40.625 41.703125 44.40625 
Q 38.921875 48.1875 33.109375 48.1875 
Q 26.21875 48.1875 22.15625 43.53125 
Q 18.109375 38.875 18.109375 30.90625 
L 18.109375 0 
L 9.078125 0 
L 9.078125 54.6875 
L 18.109375 54.6875 
L 18.109375 46.1875 
Q 21.1875 51.21875 25.484375 53.609375 
Q 29.78125 56 35.6875 56 
Q 41.65625 56 45.828125 52.96875 
Q 50 49.953125 52 44.1875 
z
" id="DejaVuSans-109"/>
      <path d="M 18.109375 8.203125 
L 18.109375 -20.796875 
L 9.078125 -20.796875 
L 9.078125 54.6875 
L 18.109375 54.6875 
L 18.109375 46.390625 
Q 20.953125 51.265625 25.265625 53.625 
Q 29.59375 56 35.59375 56 
Q 45.5625 56 51.78125 48.09375 
Q 58.015625 40.1875 58.015625 27.296875 
Q 58.015625 14.40625 51.78125 6.484375 
Q 45.5625 -1.421875 35.59375 -1.421875 
Q 29.59375 -1.421875 25.265625 0.953125 
Q 20.953125 3.328125 18.109375 8.203125 
z
M 48.6875 27.296875 
Q 48.6875 37.203125 44.609375 42.84375 
Q 40.53125 48.484375 33.40625 48.484375 
Q 26.265625 48.484375 22.1875 42.84375 
Q 18.109375 37.203125 18.109375 27.296875 
Q 18.109375 17.390625 22.1875 11.75 
Q 26.265625 6.109375 33.40625 6.109375 
Q 40.53125 6.109375 44.609375 11.75 
Q 48.6875 17.390625 48.6875 27.296875 
z
" id="DejaVuSans-112"/>
      <path d="M 54.890625 33.015625 
L 54.890625 0 
L 45.90625 0 
L 45.90625 32.71875 
Q 45.90625 40.484375 42.875 44.328125 
Q 39.84375 48.1875 33.796875 48.1875 
Q 26.515625 48.1875 22.3125 43.546875 
Q 18.109375 38.921875 18.109375 30.90625 
L 18.109375 0 
L 9.078125 0 
L 9.078125 75.984375 
L 18.109375 75.984375 
L 18.109375 46.1875 
Q 21.34375 51.125 25.703125 53.5625 
Q 30.078125 56 35.796875 56 
Q 45.21875 56 50.046875 50.171875 
Q 54.890625 44.34375 54.890625 33.015625 
z
" id="DejaVuSans-104"/>
      <path d="M 56.203125 29.59375 
L 56.203125 25.203125 
L 14.890625 25.203125 
Q 15.484375 15.921875 20.484375 11.0625 
Q 25.484375 6.203125 34.421875 6.203125 
Q 39.59375 6.203125 44.453125 7.46875 
Q 49.3125 8.734375 54.109375 11.28125 
L 54.109375 2.78125 
Q 49.265625 0.734375 44.1875 -0.34375 
Q 39.109375 -1.421875 33.890625 -1.421875 
Q 20.796875 -1.421875 13.15625 6.1875 
Q 5.515625 13.8125 5.515625 26.8125 
Q 5.515625 40.234375 12.765625 48.109375 
Q 20.015625 56 32.328125 56 
Q 43.359375 56 49.78125 48.890625 
Q 56.203125 41.796875 56.203125 29.59375 
z
M 47.21875 32.234375 
Q 47.125 39.59375 43.09375 43.984375 
Q 39.0625 48.390625 32.421875 48.390625 
Q 24.90625 48.390625 20.390625 44.140625 
Q 15.875 39.890625 15.1875 32.171875 
z
" id="DejaVuSans-101"/>
     </defs>
     <g transform="translate(44.528594 252.916562)scale(0.1 -0.1)">
      <use xlink:href="#DejaVuSans-83"/>
      <use x="63.476562" xlink:href="#DejaVuSans-99"/>
      <use x="118.457031" xlink:href="#DejaVuSans-97"/>
      <use x="179.736328" xlink:href="#DejaVuSans-108"/>
      <use x="207.519531" xlink:href="#DejaVuSans-105"/>
      <use x="235.302734" xlink:href="#DejaVuSans-110"/>
      <use x="298.681641" xlink:href="#DejaVuSans-103"/>
      <use x="362.158203" xlink:href="#DejaVuSans-32"/>
      <use x="393.945312" xlink:href="#DejaVuSans-102"/>
      <use x="429.150391" xlink:href="#DejaVuSans-97"/>
      <use x="490.429688" xlink:href="#DejaVuSans-99"/>
      <use x="545.410156" xlink:href="#DejaVuSans-116"/>
      <use x="584.619141" xlink:href="#DejaVuSans-111"/>
      <use x="645.800781" xlink:href="#DejaVuSans-114"/>
      <use x="686.914062" xlink:href="#DejaVuSans-32"/>
      <use x="718.701172" xlink:href="#DejaVuSans-117"/>
      <use x="782.080078" xlink:href="#DejaVuSans-115"/>
      <use x="834.179688" xlink:href="#DejaVuSans-105"/>
      <use x="861.962891" xlink:href="#DejaVuSans-110"/>
      <use x="925.341797" xlink:href="#DejaVuSans-103"/>
      <use x="988.818359" xlink:href="#DejaVuSans-32"/>
      <use x="1020.605469" xlink:href="#DejaVuSans-115"/>
      <use x="1072.705078" xlink:href="#DejaVuSans-116"/>
      <use x="1111.914062" xlink:href="#DejaVuSans-97"/>
      <use x="1173.193359" xlink:href="#DejaVuSans-110"/>
      <use x="1236.572266" xlink:href="#DejaVuSans-100"/>
      <use x="1300.048828" xlink:href="#DejaVuSans-97"/>
      <use x="1361.328125" xlink:href="#DejaVuSans-114"/>
      <use x="1400.691406" xlink:href="#DejaVuSans-100"/>
      <use x="1464.167969" xlink:href="#DejaVuSans-32"/>
      <use x="1495.955078" xlink:href="#DejaVuSans-97"/>
      <use x="1557.234375" xlink:href="#DejaVuSans-116"/>
      <use x="1596.443359" xlink:href="#DejaVuSans-109"/>
      <use x="1693.855469" xlink:href="#DejaVuSans-111"/>
      <use x="1755.037109" xlink:href="#DejaVuSans-115"/>
      <use x="1807.136719" xlink:href="#DejaVuSans-112"/>
      <use x="1870.613281" xlink:href="#DejaVuSans-104"/>
      <use x="1933.992188" xlink:href="#DejaVuSans-101"/>
      <use x="1995.515625" xlink:href="#DejaVuSans-114"/>
      <use x="2034.378906" xlink:href="#DejaVuSans-101"/>
     </g>
    </g>
   </g>
   <g id="matplotlib.axis_2">
    <g id="ytick_1">
     <g id="line2d_11">
      <path clip-path="url(#pdd623d5872)" d="M 40.603125 224.64 
L 258.043125 224.64 
" style="fill:none;stroke:#b0b0b0;stroke-linecap:square;stroke-width:0.8;"/>
     </g>
     <g id="line2d_12">
      <defs>
       <path d="M 0 0 
L -3.5 0 
" id="m9143bbeb78" style="stroke:#000000;stroke-width:0.8;"/>
      </defs>
      <g>
       <use style="stroke:#000000;stroke-width:0.8;" x="40.603125" xlink:href="#m9143bbeb78" y="224.64"/>
      </g>
     </g>
     <g id="text_7">
      <!-- 0 -->
      <g transform="translate(27.240625 228.439219)scale(0.1 -0.1)">
       <use xlink:href="#DejaVuSans-48"/>
      </g>
     </g>
    </g>
    <g id="ytick_2">
     <g id="line2d_13">
      <path clip-path="url(#pdd623d5872)" d="M 40.603125 177.370435 
L 258.043125 177.370435 
" style="fill:none;stroke:#b0b0b0;stroke-linecap:square;stroke-width:0.8;"/>
     </g>
     <g id="line2d_14">
      <g>
       <use style="stroke:#000000;stroke-width:0.8;" x="40.603125" xlink:href="#m9143bbeb78" y="177.370435"/>
      </g>
     </g>
     <g id="text_8">
      <!-- 10 -->
      <g transform="translate(20.878125 181.169654)scale(0.1 -0.1)">
       <use xlink:href="#DejaVuSans-49"/>
       <use x="63.623047" xlink:href="#DejaVuSans-48"/>
      </g>
     </g>
    </g>
    <g id="ytick_3">
     <g id="line2d_15">
      <path clip-path="url(#pdd623d5872)" d="M 40.603125 130.10087 
L 258.043125 130.10087 
" style="fill:none;stroke:#b0b0b0;stroke-linecap:square;stroke-width:0.8;"/>
     </g>
     <g id="line2d_16">
      <g>
       <use style="stroke:#000000;stroke-width:0.8;" x="40.603125" xlink:href="#m9143bbeb78" y="130.10087"/>
      </g>
     </g>
     <g id="text_9">
      <!-- 20 -->
      <g transform="translate(20.878125 133.900088)scale(0.1 -0.1)">
       <use xlink:href="#DejaVuSans-50"/>
       <use x="63.623047" xlink:href="#DejaVuSans-48"/>
      </g>
     </g>
    </g>
    <g id="ytick_4">
     <g id="line2d_17">
      <path clip-path="url(#pdd623d5872)" d="M 40.603125 82.831304 
L 258.043125 82.831304 
" style="fill:none;stroke:#b0b0b0;stroke-linecap:square;stroke-width:0.8;"/>
     </g>
     <g id="line2d_18">
      <g>
       <use style="stroke:#000000;stroke-width:0.8;" x="40.603125" xlink:href="#m9143bbeb78" y="82.831304"/>
      </g>
     </g>
     <g id="text_10">
      <!-- 30 -->
      <g transform="translate(20.878125 86.630523)scale(0.1 -0.1)">
       <use xlink:href="#DejaVuSans-51"/>
       <use x="63.623047" xlink:href="#DejaVuSans-48"/>
      </g>
     </g>
    </g>
    <g id="ytick_5">
     <g id="line2d_19">
      <path clip-path="url(#pdd623d5872)" d="M 40.603125 35.561739 
L 258.043125 35.561739 
" style="fill:none;stroke:#b0b0b0;stroke-linecap:square;stroke-width:0.8;"/>
     </g>
     <g id="line2d_20">
      <g>
       <use style="stroke:#000000;stroke-width:0.8;" x="40.603125" xlink:href="#m9143bbeb78" y="35.561739"/>
      </g>
     </g>
     <g id="text_11">
      <!-- 40 -->
      <g transform="translate(20.878125 39.360958)scale(0.1 -0.1)">
       <use xlink:href="#DejaVuSans-52"/>
       <use x="63.623047" xlink:href="#DejaVuSans-48"/>
      </g>
     </g>
    </g>
    <g id="text_12">
     <!-- Scaling factor using ERA40 -->
     <defs>
      <path d="M 9.8125 72.90625 
L 55.90625 72.90625 
L 55.90625 64.59375 
L 19.671875 64.59375 
L 19.671875 43.015625 
L 54.390625 43.015625 
L 54.390625 34.71875 
L 19.671875 34.71875 
L 19.671875 8.296875 
L 56.78125 8.296875 
L 56.78125 0 
L 9.8125 0 
z
" id="DejaVuSans-69"/>
      <path d="M 44.390625 34.1875 
Q 47.5625 33.109375 50.5625 29.59375 
Q 53.5625 26.078125 56.59375 19.921875 
L 66.609375 0 
L 56 0 
L 46.6875 18.703125 
Q 43.0625 26.03125 39.671875 28.421875 
Q 36.28125 30.8125 30.421875 30.8125 
L 19.671875 30.8125 
L 19.671875 0 
L 9.8125 0 
L 9.8125 72.90625 
L 32.078125 72.90625 
Q 44.578125 72.90625 50.734375 67.671875 
Q 56.890625 62.453125 56.890625 51.90625 
Q 56.890625 45.015625 53.6875 40.46875 
Q 50.484375 35.9375 44.390625 34.1875 
z
M 19.671875 64.796875 
L 19.671875 38.921875 
L 32.078125 38.921875 
Q 39.203125 38.921875 42.84375 42.21875 
Q 46.484375 45.515625 46.484375 51.90625 
Q 46.484375 58.296875 42.84375 61.546875 
Q 39.203125 64.796875 32.078125 64.796875 
z
" id="DejaVuSans-82"/>
      <path d="M 34.1875 63.1875 
L 20.796875 26.90625 
L 47.609375 26.90625 
z
M 28.609375 72.90625 
L 39.796875 72.90625 
L 67.578125 0 
L 57.328125 0 
L 50.6875 18.703125 
L 17.828125 18.703125 
L 11.1875 0 
L 0.78125 0 
z
" id="DejaVuSans-65"/>
     </defs>
     <g transform="translate(14.798438 183.166094)rotate(-90)scale(0.1 -0.1)">
      <use xlink:href="#DejaVuSans-83"/>
      <use x="63.476562" xlink:href="#DejaVuSans-99"/>
      <use x="118.457031" xlink:href="#DejaVuSans-97"/>
      <use x="179.736328" xlink:href="#DejaVuSans-108"/>
      <use x="207.519531" xlink:href="#DejaVuSans-105"/>
      <use x="235.302734" xlink:href="#DejaVuSans-110"/>
      <use x="298.681641" xlink:href="#DejaVuSans-103"/>
      <use x="362.158203" xlink:href="#DejaVuSans-32"/>
      <use x="393.945312" xlink:href="#DejaVuSans-102"/>
      <use x="429.150391" xlink:href="#DejaVuSans-97"/>
      <use x="490.429688" xlink:href="#DejaVuSans-99"/>
      <use x="545.410156" xlink:href="#DejaVuSans-116"/>
      <use x="584.619141" xlink:href="#DejaVuSans-111"/>
      <use x="645.800781" xlink:href="#DejaVuSans-114"/>
      <use x="686.914062" xlink:href="#DejaVuSans-32"/>
      <use x="718.701172" xlink:href="#DejaVuSans-117"/>
      <use x="782.080078" xlink:href="#DejaVuSans-115"/>
      <use x="834.179688" xlink:href="#DejaVuSans-105"/>
      <use x="861.962891" xlink:href="#DejaVuSans-110"/>
      <use x="925.341797" xlink:href="#DejaVuSans-103"/>
      <use x="988.818359" xlink:href="#DejaVuSans-32"/>
      <use x="1020.605469" xlink:href="#DejaVuSans-69"/>
      <use x="1083.789062" xlink:href="#DejaVuSans-82"/>
      <use x="1149.271484" xlink:href="#DejaVuSans-65"/>
      <use x="1217.679688" xlink:href="#DejaVuSans-52"/>
      <use x="1281.302734" xlink:href="#DejaVuSans-48"/>
     </g>
    </g>
   </g>
   <g id="line2d_21">
    <path clip-path="url(#pdd623d5872)" d="M 45.291072 219.388963 
L 47.92247 216.417644 
L 51.789016 212.05757 
L 57.348759 205.805667 
L 65.177246 197.038182 
L 75.949863 185.003528 
L 90.553588 168.821975 
L 109.937549 147.494086 
L 135.193102 119.901181 
L 167.509953 84.902363 
L 209.085012 41.281297 
" style="fill:none;stroke:#014636;stroke-linecap:square;stroke-width:2;"/>
    <defs>
     <path d="M -3 3 
L 3 -3 
M -3 -3 
L 3 3 
" id="m714ba32294" style="stroke:#014636;"/>
    </defs>
    <g clip-path="url(#pdd623d5872)">
     <use style="fill:#014636;stroke:#014636;" x="45.291072" xlink:href="#m714ba32294" y="219.388963"/>
     <use style="fill:#014636;stroke:#014636;" x="47.92247" xlink:href="#m714ba32294" y="216.417644"/>
     <use style="fill:#014636;stroke:#014636;" x="51.789016" xlink:href="#m714ba32294" y="212.05757"/>
     <use style="fill:#014636;stroke:#014636;" x="57.348759" xlink:href="#m714ba32294" y="205.805667"/>
     <use style="fill:#014636;stroke:#014636;" x="65.177246" xlink:href="#m714ba32294" y="197.038182"/>
     <use style="fill:#014636;stroke:#014636;" x="75.949863" xlink:href="#m714ba32294" y="185.003528"/>
     <use style="fill:#014636;stroke:#014636;" x="90.553588" xlink:href="#m714ba32294" y="168.821975"/>
     <use style="fill:#014636;stroke:#014636;" x="109.937549" xlink:href="#m714ba32294" y="147.494086"/>
     <use style="fill:#014636;stroke:#014636;" x="135.193102" xlink:href="#m714ba32294" y="119.901181"/>
     <use style="fill:#014636;stroke:#014636;" x="167.509953" xlink:href="#m714ba32294" y="84.902363"/>
     <use style="fill:#014636;stroke:#014636;" x="209.085012" xlink:href="#m714ba32294" y="41.281297"/>
    </g>
   </g>
   <g id="line2d_22">
    <path clip-path="url(#pdd623d5872)" d="M 43.466384 221.60826 
L 44.92271 220.158529 
L 46.974668 218.151891 
L 49.902367 215.433458 
L 53.746986 211.83103 
L 58.809167 207.143142 
L 65.334175 201.166431 
L 73.572752 193.690411 
L 84.269777 184.510473 
L 96.789687 172.975933 
L 111.699574 159.733681 
" style="fill:none;stroke:#67a9cf;stroke-linecap:square;stroke-width:2;"/>
    <defs>
     <path d="M -3 3 
L 3 -3 
M -3 -3 
L 3 3 
" id="ma191100c45" style="stroke:#67a9cf;"/>
    </defs>
    <g clip-path="url(#pdd623d5872)">
     <use style="fill:#67a9cf;stroke:#67a9cf;" x="43.466384" xlink:href="#ma191100c45" y="221.60826"/>
     <use style="fill:#67a9cf;stroke:#67a9cf;" x="44.92271" xlink:href="#ma191100c45" y="220.158529"/>
     <use style="fill:#67a9cf;stroke:#67a9cf;" x="46.974668" xlink:href="#ma191100c45" y="218.151891"/>
     <use style="fill:#67a9cf;stroke:#67a9cf;" x="49.902367" xlink:href="#ma191100c45" y="215.433458"/>
     <use style="fill:#67a9cf;stroke:#67a9cf;" x="53.746986" xlink:href="#ma191100c45" y="211.83103"/>
     <use style="fill:#67a9cf;stroke:#67a9cf;" x="58.809167" xlink:href="#ma191100c45" y="207.143142"/>
     <use style="fill:#67a9cf;stroke:#67a9cf;" x="65.334175" xlink:href="#ma191100c45" y="201.166431"/>
     <use style="fill:#67a9cf;stroke:#67a9cf;" x="73.572752" xlink:href="#ma191100c45" y="193.690411"/>
     <use style="fill:#67a9cf;stroke:#67a9cf;" x="84.269777" xlink:href="#ma191100c45" y="184.510473"/>
     <use style="fill:#67a9cf;stroke:#67a9cf;" x="96.789687" xlink:href="#ma191100c45" y="172.975933"/>
     <use style="fill:#67a9cf;stroke:#67a9cf;" x="111.699574" xlink:href="#ma191100c45" y="159.733681"/>
    </g>
   </g>
   <g id="line2d_23">
    <path clip-path="url(#pdd623d5872)" d="M 45.291072 219.755814 
L 47.92247 216.927181 
L 51.789016 212.744865 
L 57.348759 206.706009 
L 65.177246 198.183332 
L 75.949863 186.413028 
L 90.553588 170.502868 
L 109.937549 149.430593 
L 135.193102 122.066649 
L 167.509953 87.20375 
L 209.085012 42.464291 
" style="fill:none;stroke:#014636;stroke-linecap:square;stroke-width:2;"/>
    <defs>
     <path d="M 0 2 
C 0.530406 2 1.03916 1.789267 1.414214 1.414214 
C 1.789267 1.03916 2 0.530406 2 0 
C 2 -0.530406 1.789267 -1.03916 1.414214 -1.414214 
C 1.03916 -1.789267 0.530406 -2 0 -2 
C -0.530406 -2 -1.03916 -1.789267 -1.414214 -1.414214 
C -1.789267 -1.03916 -2 -0.530406 -2 0 
C -2 0.530406 -1.789267 1.03916 -1.414214 1.414214 
C -1.03916 1.789267 -0.530406 2 0 2 
z
" id="m7eb738daa2" style="stroke:#014636;"/>
    </defs>
    <g clip-path="url(#pdd623d5872)">
     <use style="fill:#014636;stroke:#014636;" x="45.291072" xlink:href="#m7eb738daa2" y="219.755814"/>
     <use style="fill:#014636;stroke:#014636;" x="47.92247" xlink:href="#m7eb738daa2" y="216.927181"/>
     <use style="fill:#014636;stroke:#014636;" x="51.789016" xlink:href="#m7eb738daa2" y="212.744865"/>
     <use style="fill:#014636;stroke:#014636;" x="57.348759" xlink:href="#m7eb738daa2" y="206.706009"/>
     <use style="fill:#014636;stroke:#014636;" x="65.177246" xlink:href="#m7eb738daa2" y="198.183332"/>
     <use style="fill:#014636;stroke:#014636;" x="75.949863" xlink:href="#m7eb738daa2" y="186.413028"/>
     <use style="fill:#014636;stroke:#014636;" x="90.553588" xlink:href="#m7eb738daa2" y="170.502868"/>
     <use style="fill:#014636;stroke:#014636;" x="109.937549" xlink:href="#m7eb738daa2" y="149.430593"/>
     <use style="fill:#014636;stroke:#014636;" x="135.193102" xlink:href="#m7eb738daa2" y="122.066649"/>
     <use style="fill:#014636;stroke:#014636;" x="167.509953" xlink:href="#m7eb738daa2" y="87.20375"/>
     <use style="fill:#014636;stroke:#014636;" x="209.085012" xlink:href="#m7eb738daa2" y="42.464291"/>
    </g>
   </g>
   <g id="line2d_24">
    <path clip-path="url(#pdd623d5872)" d="M 43.466384 221.747603 
L 44.92271 220.333952 
L 46.974668 218.364582 
L 49.902367 215.577443 
L 53.746986 211.955334 
L 58.809167 207.222132 
L 65.334175 201.159946 
L 73.572752 193.545435 
L 84.269777 183.682435 
L 96.789687 172.189031 
L 111.699574 158.526123 
" style="fill:none;stroke:#67a9cf;stroke-linecap:square;stroke-width:2;"/>
    <defs>
     <path d="M 0 2 
C 0.530406 2 1.03916 1.789267 1.414214 1.414214 
C 1.789267 1.03916 2 0.530406 2 0 
C 2 -0.530406 1.789267 -1.03916 1.414214 -1.414214 
C 1.03916 -1.789267 0.530406 -2 0 -2 
C -0.530406 -2 -1.03916 -1.789267 -1.414214 -1.414214 
C -1.789267 -1.03916 -2 -0.530406 -2 0 
C -2 0.530406 -1.789267 1.03916 -1.414214 1.414214 
C -1.03916 1.789267 -0.530406 2 0 2 
z
" id="m2970701c62" style="stroke:#67a9cf;"/>
    </defs>
    <g clip-path="url(#pdd623d5872)">
     <use style="fill:#67a9cf;stroke:#67a9cf;" x="43.466384" xlink:href="#m2970701c62" y="221.747603"/>
     <use style="fill:#67a9cf;stroke:#67a9cf;" x="44.92271" xlink:href="#m2970701c62" y="220.333952"/>
     <use style="fill:#67a9cf;stroke:#67a9cf;" x="46.974668" xlink:href="#m2970701c62" y="218.364582"/>
     <use style="fill:#67a9cf;stroke:#67a9cf;" x="49.902367" xlink:href="#m2970701c62" y="215.577443"/>
     <use style="fill:#67a9cf;stroke:#67a9cf;" x="53.746986" xlink:href="#m2970701c62" y="211.955334"/>
     <use style="fill:#67a9cf;stroke:#67a9cf;" x="58.809167" xlink:href="#m2970701c62" y="207.222132"/>
     <use style="fill:#67a9cf;stroke:#67a9cf;" x="65.334175" xlink:href="#m2970701c62" y="201.159946"/>
     <use style="fill:#67a9cf;stroke:#67a9cf;" x="73.572752" xlink:href="#m2970701c62" y="193.545435"/>
     <use style="fill:#67a9cf;stroke:#67a9cf;" x="84.269777" xlink:href="#m2970701c62" y="183.682435"/>
     <use style="fill:#67a9cf;stroke:#67a9cf;" x="96.789687" xlink:href="#m2970701c62" y="172.189031"/>
     <use style="fill:#67a9cf;stroke:#67a9cf;" x="111.699574" xlink:href="#m2970701c62" y="158.526123"/>
    </g>
   </g>
   <g id="patch_5">
    <path d="M 40.603125 224.64 
L 40.603125 7.2 
" style="fill:none;stroke:#000000;stroke-linecap:square;stroke-linejoin:miter;stroke-width:0.8;"/>
   </g>
   <g id="patch_6">
    <path d="M 258.043125 224.64 
L 258.043125 7.2 
" style="fill:none;stroke:#000000;stroke-linecap:square;stroke-linejoin:miter;stroke-width:0.8;"/>
   </g>
   <g id="patch_7">
    <path d="M 40.603125 224.64 
L 258.043125 224.64 
" style="fill:none;stroke:#000000;stroke-linecap:square;stroke-linejoin:miter;stroke-width:0.8;"/>
   </g>
   <g id="patch_8">
    <path d="M 40.603125 7.2 
L 258.043125 7.2 
" style="fill:none;stroke:#000000;stroke-linecap:square;stroke-linejoin:miter;stroke-width:0.8;"/>
   </g>
   <g id="legend_1">
    <g id="patch_9">
     <path d="M 47.603125 73.9125 
L 206.214063 73.9125 
Q 208.214063 73.9125 208.214063 71.9125 
L 208.214063 14.2 
Q 208.214063 12.2 206.214063 12.2 
L 47.603125 12.2 
Q 45.603125 12.2 45.603125 14.2 
L 45.603125 71.9125 
Q 45.603125 73.9125 47.603125 73.9125 
z
" style="fill:#ffffff;opacity:0.8;stroke:#cccccc;stroke-linejoin:miter;"/>
    </g>
    <g id="line2d_25">
     <path d="M 49.603125 20.298437 
L 69.603125 20.298437 
" style="fill:none;stroke:#014636;stroke-linecap:square;stroke-width:2;"/>
    </g>
    <g id="line2d_26">
     <g>
      <use style="fill:#014636;stroke:#014636;" x="59.603125" xlink:href="#m714ba32294" y="20.298437"/>
     </g>
    </g>
    <g id="text_13">
     <!-- High latitude: 65N,130W -->
     <defs>
      <path d="M 9.8125 72.90625 
L 19.671875 72.90625 
L 19.671875 43.015625 
L 55.515625 43.015625 
L 55.515625 72.90625 
L 65.375 72.90625 
L 65.375 0 
L 55.515625 0 
L 55.515625 34.71875 
L 19.671875 34.71875 
L 19.671875 0 
L 9.8125 0 
z
" id="DejaVuSans-72"/>
      <path d="M 11.71875 12.40625 
L 22.015625 12.40625 
L 22.015625 0 
L 11.71875 0 
z
M 11.71875 51.703125 
L 22.015625 51.703125 
L 22.015625 39.3125 
L 11.71875 39.3125 
z
" id="DejaVuSans-58"/>
      <path d="M 33.015625 40.375 
Q 26.375 40.375 22.484375 35.828125 
Q 18.609375 31.296875 18.609375 23.390625 
Q 18.609375 15.53125 22.484375 10.953125 
Q 26.375 6.390625 33.015625 6.390625 
Q 39.65625 6.390625 43.53125 10.953125 
Q 47.40625 15.53125 47.40625 23.390625 
Q 47.40625 31.296875 43.53125 35.828125 
Q 39.65625 40.375 33.015625 40.375 
z
M 52.59375 71.296875 
L 52.59375 62.3125 
Q 48.875 64.0625 45.09375 64.984375 
Q 41.3125 65.921875 37.59375 65.921875 
Q 27.828125 65.921875 22.671875 59.328125 
Q 17.53125 52.734375 16.796875 39.40625 
Q 19.671875 43.65625 24.015625 45.921875 
Q 28.375 48.1875 33.59375 48.1875 
Q 44.578125 48.1875 50.953125 41.515625 
Q 57.328125 34.859375 57.328125 23.390625 
Q 57.328125 12.15625 50.6875 5.359375 
Q 44.046875 -1.421875 33.015625 -1.421875 
Q 20.359375 -1.421875 13.671875 8.265625 
Q 6.984375 17.96875 6.984375 36.375 
Q 6.984375 53.65625 15.1875 63.9375 
Q 23.390625 74.21875 37.203125 74.21875 
Q 40.921875 74.21875 44.703125 73.484375 
Q 48.484375 72.75 52.59375 71.296875 
z
" id="DejaVuSans-54"/>
      <path d="M 10.796875 72.90625 
L 49.515625 72.90625 
L 49.515625 64.59375 
L 19.828125 64.59375 
L 19.828125 46.734375 
Q 21.96875 47.46875 24.109375 47.828125 
Q 26.265625 48.1875 28.421875 48.1875 
Q 40.625 48.1875 47.75 41.5 
Q 54.890625 34.8125 54.890625 23.390625 
Q 54.890625 11.625 47.5625 5.09375 
Q 40.234375 -1.421875 26.90625 -1.421875 
Q 22.3125 -1.421875 17.546875 -0.640625 
Q 12.796875 0.140625 7.71875 1.703125 
L 7.71875 11.625 
Q 12.109375 9.234375 16.796875 8.0625 
Q 21.484375 6.890625 26.703125 6.890625 
Q 35.15625 6.890625 40.078125 11.328125 
Q 45.015625 15.765625 45.015625 23.390625 
Q 45.015625 31 40.078125 35.4375 
Q 35.15625 39.890625 26.703125 39.890625 
Q 22.75 39.890625 18.8125 39.015625 
Q 14.890625 38.140625 10.796875 36.28125 
z
" id="DejaVuSans-53"/>
      <path d="M 9.8125 72.90625 
L 23.09375 72.90625 
L 55.421875 11.921875 
L 55.421875 72.90625 
L 64.984375 72.90625 
L 64.984375 0 
L 51.703125 0 
L 19.390625 60.984375 
L 19.390625 0 
L 9.8125 0 
z
" id="DejaVuSans-78"/>
      <path d="M 11.71875 12.40625 
L 22.015625 12.40625 
L 22.015625 4 
L 14.015625 -11.625 
L 7.71875 -11.625 
L 11.71875 4 
z
" id="DejaVuSans-44"/>
      <path d="M 3.328125 72.90625 
L 13.28125 72.90625 
L 28.609375 11.28125 
L 43.890625 72.90625 
L 54.984375 72.90625 
L 70.3125 11.28125 
L 85.59375 72.90625 
L 95.609375 72.90625 
L 77.296875 0 
L 64.890625 0 
L 49.515625 63.28125 
L 33.984375 0 
L 21.578125 0 
z
" id="DejaVuSans-87"/>
     </defs>
     <g transform="translate(77.603125 23.798437)scale(0.1 -0.1)">
      <use xlink:href="#DejaVuSans-72"/>
      <use x="75.195312" xlink:href="#DejaVuSans-105"/>
      <use x="102.978516" xlink:href="#DejaVuSans-103"/>
      <use x="166.455078" xlink:href="#DejaVuSans-104"/>
      <use x="229.833984" xlink:href="#DejaVuSans-32"/>
      <use x="261.621094" xlink:href="#DejaVuSans-108"/>
      <use x="289.404297" xlink:href="#DejaVuSans-97"/>
      <use x="350.683594" xlink:href="#DejaVuSans-116"/>
      <use x="389.892578" xlink:href="#DejaVuSans-105"/>
      <use x="417.675781" xlink:href="#DejaVuSans-116"/>
      <use x="456.884766" xlink:href="#DejaVuSans-117"/>
      <use x="520.263672" xlink:href="#DejaVuSans-100"/>
      <use x="583.740234" xlink:href="#DejaVuSans-101"/>
      <use x="645.263672" xlink:href="#DejaVuSans-58"/>
      <use x="678.955078" xlink:href="#DejaVuSans-32"/>
      <use x="710.742188" xlink:href="#DejaVuSans-54"/>
      <use x="774.365234" xlink:href="#DejaVuSans-53"/>
      <use x="837.988281" xlink:href="#DejaVuSans-78"/>
      <use x="912.792969" xlink:href="#DejaVuSans-44"/>
      <use x="944.580078" xlink:href="#DejaVuSans-49"/>
      <use x="1008.203125" xlink:href="#DejaVuSans-51"/>
      <use x="1071.826172" xlink:href="#DejaVuSans-48"/>
      <use x="1135.449219" xlink:href="#DejaVuSans-87"/>
     </g>
    </g>
    <g id="line2d_27">
     <path d="M 49.603125 34.976562 
L 69.603125 34.976562 
" style="fill:none;stroke:#67a9cf;stroke-linecap:square;stroke-width:2;"/>
    </g>
    <g id="line2d_28">
     <g>
      <use style="fill:#67a9cf;stroke:#67a9cf;" x="59.603125" xlink:href="#ma191100c45" y="34.976562"/>
     </g>
    </g>
    <g id="text_14">
     <!-- Equator: 0N, 70W -->
     <defs>
      <path d="M 14.796875 27.296875 
Q 14.796875 17.390625 18.875 11.75 
Q 22.953125 6.109375 30.078125 6.109375 
Q 37.203125 6.109375 41.296875 11.75 
Q 45.40625 17.390625 45.40625 27.296875 
Q 45.40625 37.203125 41.296875 42.84375 
Q 37.203125 48.484375 30.078125 48.484375 
Q 22.953125 48.484375 18.875 42.84375 
Q 14.796875 37.203125 14.796875 27.296875 
z
M 45.40625 8.203125 
Q 42.578125 3.328125 38.25 0.953125 
Q 33.9375 -1.421875 27.875 -1.421875 
Q 17.96875 -1.421875 11.734375 6.484375 
Q 5.515625 14.40625 5.515625 27.296875 
Q 5.515625 40.1875 11.734375 48.09375 
Q 17.96875 56 27.875 56 
Q 33.9375 56 38.25 53.625 
Q 42.578125 51.265625 45.40625 46.390625 
L 45.40625 54.6875 
L 54.390625 54.6875 
L 54.390625 -20.796875 
L 45.40625 -20.796875 
z
" id="DejaVuSans-113"/>
      <path d="M 8.203125 72.90625 
L 55.078125 72.90625 
L 55.078125 68.703125 
L 28.609375 0 
L 18.3125 0 
L 43.21875 64.59375 
L 8.203125 64.59375 
z
" id="DejaVuSans-55"/>
     </defs>
     <g transform="translate(77.603125 38.476562)scale(0.1 -0.1)">
      <use xlink:href="#DejaVuSans-69"/>
      <use x="63.183594" xlink:href="#DejaVuSans-113"/>
      <use x="126.660156" xlink:href="#DejaVuSans-117"/>
      <use x="190.039062" xlink:href="#DejaVuSans-97"/>
      <use x="251.318359" xlink:href="#DejaVuSans-116"/>
      <use x="290.527344" xlink:href="#DejaVuSans-111"/>
      <use x="351.708984" xlink:href="#DejaVuSans-114"/>
      <use x="391.072266" xlink:href="#DejaVuSans-58"/>
      <use x="424.763672" xlink:href="#DejaVuSans-32"/>
      <use x="456.550781" xlink:href="#DejaVuSans-48"/>
      <use x="520.173828" xlink:href="#DejaVuSans-78"/>
      <use x="594.978516" xlink:href="#DejaVuSans-44"/>
      <use x="626.765625" xlink:href="#DejaVuSans-32"/>
      <use x="658.552734" xlink:href="#DejaVuSans-55"/>
      <use x="722.175781" xlink:href="#DejaVuSans-48"/>
      <use x="785.798828" xlink:href="#DejaVuSans-87"/>
     </g>
    </g>
    <g id="line2d_29">
     <path d="M 49.603125 49.654687 
L 69.603125 49.654687 
" style="fill:none;stroke:#014636;stroke-linecap:square;stroke-width:2;"/>
    </g>
    <g id="line2d_30">
     <g>
      <use style="fill:#014636;stroke:#014636;" x="59.603125" xlink:href="#m7eb738daa2" y="49.654687"/>
     </g>
    </g>
    <g id="text_15">
     <!-- High latitude: 65N,130W  -->
     <g transform="translate(77.603125 53.154687)scale(0.1 -0.1)">
      <use xlink:href="#DejaVuSans-72"/>
      <use x="75.195312" xlink:href="#DejaVuSans-105"/>
      <use x="102.978516" xlink:href="#DejaVuSans-103"/>
      <use x="166.455078" xlink:href="#DejaVuSans-104"/>
      <use x="229.833984" xlink:href="#DejaVuSans-32"/>
      <use x="261.621094" xlink:href="#DejaVuSans-108"/>
      <use x="289.404297" xlink:href="#DejaVuSans-97"/>
      <use x="350.683594" xlink:href="#DejaVuSans-116"/>
      <use x="389.892578" xlink:href="#DejaVuSans-105"/>
      <use x="417.675781" xlink:href="#DejaVuSans-116"/>
      <use x="456.884766" xlink:href="#DejaVuSans-117"/>
      <use x="520.263672" xlink:href="#DejaVuSans-100"/>
      <use x="583.740234" xlink:href="#DejaVuSans-101"/>
      <use x="645.263672" xlink:href="#DejaVuSans-58"/>
      <use x="678.955078" xlink:href="#DejaVuSans-32"/>
      <use x="710.742188" xlink:href="#DejaVuSans-54"/>
      <use x="774.365234" xlink:href="#DejaVuSans-53"/>
      <use x="837.988281" xlink:href="#DejaVuSans-78"/>
      <use x="912.792969" xlink:href="#DejaVuSans-44"/>
      <use x="944.580078" xlink:href="#DejaVuSans-49"/>
      <use x="1008.203125" xlink:href="#DejaVuSans-51"/>
      <use x="1071.826172" xlink:href="#DejaVuSans-48"/>
      <use x="1135.449219" xlink:href="#DejaVuSans-87"/>
      <use x="1234.326172" xlink:href="#DejaVuSans-32"/>
     </g>
    </g>
    <g id="line2d_31">
     <path d="M 49.603125 64.332812 
L 69.603125 64.332812 
" style="fill:none;stroke:#67a9cf;stroke-linecap:square;stroke-width:2;"/>
    </g>
    <g id="line2d_32">
     <g>
      <use style="fill:#67a9cf;stroke:#67a9cf;" x="59.603125" xlink:href="#m2970701c62" y="64.332812"/>
     </g>
    </g>
    <g id="text_16">
     <!-- Equator: 0N, 70W -->
     <g transform="translate(77.603125 67.832812)scale(0.1 -0.1)">
      <use xlink:href="#DejaVuSans-69"/>
      <use x="63.183594" xlink:href="#DejaVuSans-113"/>
      <use x="126.660156" xlink:href="#DejaVuSans-117"/>
      <use x="190.039062" xlink:href="#DejaVuSans-97"/>
      <use x="251.318359" xlink:href="#DejaVuSans-116"/>
      <use x="290.527344" xlink:href="#DejaVuSans-111"/>
      <use x="351.708984" xlink:href="#DejaVuSans-114"/>
      <use x="391.072266" xlink:href="#DejaVuSans-58"/>
      <use x="424.763672" xlink:href="#DejaVuSans-32"/>
      <use x="456.550781" xlink:href="#DejaVuSans-48"/>
      <use x="520.173828" xlink:href="#DejaVuSans-78"/>
      <use x="594.978516" xlink:href="#DejaVuSans-44"/>
      <use x="626.765625" xlink:href="#DejaVuSans-32"/>
      <use x="658.552734" xlink:href="#DejaVuSans-55"/>
      <use x="722.175781" xlink:href="#DejaVuSans-48"/>
      <use x="785.798828" xlink:href="#DejaVuSans-87"/>
     </g>
    </g>
   </g>
  </g>
  <g id="axes_2">
   <g id="patch_10">
    <path d="M 156.883125 203.04 
L 243.283125 203.04 
L 243.283125 131.04 
L 156.883125 131.04 
z
" style="fill:#ffffff;"/>
   </g>
   <g id="matplotlib.axis_3">
    <g id="xtick_6">
     <g id="line2d_33">
      <path clip-path="url(#p860c227dea)" d="M 156.883125 203.04 
L 156.883125 131.04 
" style="fill:none;stroke:#b0b0b0;stroke-linecap:square;stroke-width:0.8;"/>
     </g>
     <g id="line2d_34">
      <g>
       <use style="stroke:#000000;stroke-width:0.8;" x="156.883125" xlink:href="#m35fe0aedaf" y="203.04"/>
      </g>
     </g>
     <g id="text_17">
      <!-- 0 -->
      <g transform="translate(154.338125 216.11875)scale(0.08 -0.08)">
       <use xlink:href="#DejaVuSans-48"/>
      </g>
     </g>
    </g>
    <g id="xtick_7">
     <g id="line2d_35">
      <path clip-path="url(#p860c227dea)" d="M 191.443125 203.04 
L 191.443125 131.04 
" style="fill:none;stroke:#b0b0b0;stroke-linecap:square;stroke-width:0.8;"/>
     </g>
     <g id="line2d_36">
      <g>
       <use style="stroke:#000000;stroke-width:0.8;" x="191.443125" xlink:href="#m35fe0aedaf" y="203.04"/>
      </g>
     </g>
     <g id="text_18">
      <!-- 2 -->
      <g transform="translate(188.898125 216.11875)scale(0.08 -0.08)">
       <use xlink:href="#DejaVuSans-50"/>
      </g>
     </g>
    </g>
    <g id="xtick_8">
     <g id="line2d_37">
      <path clip-path="url(#p860c227dea)" d="M 226.003125 203.04 
L 226.003125 131.04 
" style="fill:none;stroke:#b0b0b0;stroke-linecap:square;stroke-width:0.8;"/>
     </g>
     <g id="line2d_38">
      <g>
       <use style="stroke:#000000;stroke-width:0.8;" x="226.003125" xlink:href="#m35fe0aedaf" y="203.04"/>
      </g>
     </g>
     <g id="text_19">
      <!-- 4 -->
      <g transform="translate(223.458125 216.11875)scale(0.08 -0.08)">
       <use xlink:href="#DejaVuSans-52"/>
      </g>
     </g>
    </g>
   </g>
   <g id="matplotlib.axis_4">
    <g id="ytick_6">
     <g id="line2d_39">
      <path clip-path="url(#p860c227dea)" d="M 156.883125 203.04 
L 243.283125 203.04 
" style="fill:none;stroke:#b0b0b0;stroke-linecap:square;stroke-width:0.8;"/>
     </g>
     <g id="line2d_40">
      <g>
       <use style="stroke:#000000;stroke-width:0.8;" x="156.883125" xlink:href="#m9143bbeb78" y="203.04"/>
      </g>
     </g>
     <g id="text_20">
      <!-- 0 -->
      <g transform="translate(144.793125 206.079375)scale(0.08 -0.08)">
       <use xlink:href="#DejaVuSans-48"/>
      </g>
     </g>
    </g>
    <g id="ytick_7">
     <g id="line2d_41">
      <path clip-path="url(#p860c227dea)" d="M 156.883125 174.24 
L 243.283125 174.24 
" style="fill:none;stroke:#b0b0b0;stroke-linecap:square;stroke-width:0.8;"/>
     </g>
     <g id="line2d_42">
      <g>
       <use style="stroke:#000000;stroke-width:0.8;" x="156.883125" xlink:href="#m9143bbeb78" y="174.24"/>
      </g>
     </g>
     <g id="text_21">
      <!-- 2 -->
      <g transform="translate(144.793125 177.279375)scale(0.08 -0.08)">
       <use xlink:href="#DejaVuSans-50"/>
      </g>
     </g>
    </g>
    <g id="ytick_8">
     <g id="line2d_43">
      <path clip-path="url(#p860c227dea)" d="M 156.883125 145.44 
L 243.283125 145.44 
" style="fill:none;stroke:#b0b0b0;stroke-linecap:square;stroke-width:0.8;"/>
     </g>
     <g id="line2d_44">
      <g>
       <use style="stroke:#000000;stroke-width:0.8;" x="156.883125" xlink:href="#m9143bbeb78" y="145.44"/>
      </g>
     </g>
     <g id="text_22">
      <!-- 4 -->
      <g transform="translate(144.793125 148.479375)scale(0.08 -0.08)">
       <use xlink:href="#DejaVuSans-52"/>
      </g>
     </g>
    </g>
   </g>
   <g id="line2d_45">
    <path clip-path="url(#p860c227dea)" d="M 174.02052 187.043465 
L 183.639936 177.991763 
L 197.774595 164.709418 
L 218.098954 145.663885 
L 246.716999 118.954992 
L 266.243125 100.776944 
" style="fill:none;stroke:#014636;stroke-linecap:square;stroke-width:2;"/>
    <g clip-path="url(#p860c227dea)">
     <use style="fill:#014636;stroke:#014636;" x="174.02052" xlink:href="#m714ba32294" y="187.043465"/>
     <use style="fill:#014636;stroke:#014636;" x="183.639936" xlink:href="#m714ba32294" y="177.991763"/>
     <use style="fill:#014636;stroke:#014636;" x="197.774595" xlink:href="#m714ba32294" y="164.709418"/>
     <use style="fill:#014636;stroke:#014636;" x="218.098954" xlink:href="#m714ba32294" y="145.663885"/>
     <use style="fill:#014636;stroke:#014636;" x="246.716999" xlink:href="#m714ba32294" y="118.954992"/>
     <use style="fill:#014636;stroke:#014636;" x="286.097692" xlink:href="#m714ba32294" y="82.293131"/>
     <use style="fill:#014636;stroke:#014636;" x="339.483495" xlink:href="#m714ba32294" y="32.998334"/>
     <use style="fill:#014636;stroke:#014636;" x="376.562966" xlink:href="#m714ba32294" y="-1"/>
    </g>
   </g>
   <g id="line2d_46">
    <path clip-path="url(#p860c227dea)" d="M 167.350136 193.804235 
L 172.673925 189.387838 
L 180.175125 183.2749 
L 190.877705 174.993582 
L 204.932207 164.019296 
L 223.437661 149.738313 
L 247.290671 131.531114 
L 266.243125 117.199257 
" style="fill:none;stroke:#67a9cf;stroke-linecap:square;stroke-width:2;"/>
    <g clip-path="url(#p860c227dea)">
     <use style="fill:#67a9cf;stroke:#67a9cf;" x="167.350136" xlink:href="#ma191100c45" y="193.804235"/>
     <use style="fill:#67a9cf;stroke:#67a9cf;" x="172.673925" xlink:href="#ma191100c45" y="189.387838"/>
     <use style="fill:#67a9cf;stroke:#67a9cf;" x="180.175125" xlink:href="#ma191100c45" y="183.2749"/>
     <use style="fill:#67a9cf;stroke:#67a9cf;" x="190.877705" xlink:href="#ma191100c45" y="174.993582"/>
     <use style="fill:#67a9cf;stroke:#67a9cf;" x="204.932207" xlink:href="#ma191100c45" y="164.019296"/>
     <use style="fill:#67a9cf;stroke:#67a9cf;" x="223.437661" xlink:href="#ma191100c45" y="149.738313"/>
     <use style="fill:#67a9cf;stroke:#67a9cf;" x="247.290671" xlink:href="#ma191100c45" y="131.531114"/>
     <use style="fill:#67a9cf;stroke:#67a9cf;" x="277.407854" xlink:href="#ma191100c45" y="108.756483"/>
     <use style="fill:#67a9cf;stroke:#67a9cf;" x="316.512211" xlink:href="#ma191100c45" y="80.791109"/>
     <use style="fill:#67a9cf;stroke:#67a9cf;" x="362.280358" xlink:href="#ma191100c45" y="45.652775"/>
     <use style="fill:#67a9cf;stroke:#67a9cf;" x="416.785377" xlink:href="#ma191100c45" y="5.31214"/>
    </g>
   </g>
   <g id="line2d_47">
    <path clip-path="url(#p860c227dea)" d="M 174.02052 188.161024 
L 183.639936 179.543994 
L 197.774595 166.803166 
L 218.098954 148.40665 
L 246.716999 122.443528 
L 266.243125 104.664775 
" style="fill:none;stroke:#014636;stroke-linecap:square;stroke-width:2;"/>
    <g clip-path="url(#p860c227dea)">
     <use style="fill:#014636;stroke:#014636;" x="174.02052" xlink:href="#m7eb738daa2" y="188.161024"/>
     <use style="fill:#014636;stroke:#014636;" x="183.639936" xlink:href="#m7eb738daa2" y="179.543994"/>
     <use style="fill:#014636;stroke:#014636;" x="197.774595" xlink:href="#m7eb738daa2" y="166.803166"/>
     <use style="fill:#014636;stroke:#014636;" x="218.098954" xlink:href="#m7eb738daa2" y="148.40665"/>
     <use style="fill:#014636;stroke:#014636;" x="246.716999" xlink:href="#m7eb738daa2" y="122.443528"/>
     <use style="fill:#014636;stroke:#014636;" x="286.097692" xlink:href="#m7eb738daa2" y="86.586974"/>
     <use style="fill:#014636;stroke:#014636;" x="339.483495" xlink:href="#m7eb738daa2" y="38.118935"/>
     <use style="fill:#014636;stroke:#014636;" x="382.665158" xlink:href="#m7eb738daa2" y="-1"/>
    </g>
   </g>
   <g id="line2d_48">
    <path clip-path="url(#p860c227dea)" d="M 167.350136 194.228725 
L 172.673925 189.922237 
L 180.175125 183.922833 
L 190.877705 175.432212 
L 204.932207 164.397972 
L 223.437661 149.978944 
L 247.290671 131.511359 
L 266.243125 116.91401 
" style="fill:none;stroke:#67a9cf;stroke-linecap:square;stroke-width:2;"/>
    <g clip-path="url(#p860c227dea)">
     <use style="fill:#67a9cf;stroke:#67a9cf;" x="167.350136" xlink:href="#m2970701c62" y="194.228725"/>
     <use style="fill:#67a9cf;stroke:#67a9cf;" x="172.673925" xlink:href="#m2970701c62" y="189.922237"/>
     <use style="fill:#67a9cf;stroke:#67a9cf;" x="180.175125" xlink:href="#m2970701c62" y="183.922833"/>
     <use style="fill:#67a9cf;stroke:#67a9cf;" x="190.877705" xlink:href="#m2970701c62" y="175.432212"/>
     <use style="fill:#67a9cf;stroke:#67a9cf;" x="204.932207" xlink:href="#m2970701c62" y="164.397972"/>
     <use style="fill:#67a9cf;stroke:#67a9cf;" x="223.437661" xlink:href="#m2970701c62" y="149.978944"/>
     <use style="fill:#67a9cf;stroke:#67a9cf;" x="247.290671" xlink:href="#m2970701c62" y="131.511359"/>
     <use style="fill:#67a9cf;stroke:#67a9cf;" x="277.407854" xlink:href="#m2970701c62" y="108.314836"/>
     <use style="fill:#67a9cf;stroke:#67a9cf;" x="316.512211" xlink:href="#m2970701c62" y="78.268609"/>
     <use style="fill:#67a9cf;stroke:#67a9cf;" x="362.280358" xlink:href="#m2970701c62" y="43.255591"/>
     <use style="fill:#67a9cf;stroke:#67a9cf;" x="416.785377" xlink:href="#m2970701c62" y="1.633487"/>
    </g>
   </g>
   <g id="patch_11">
    <path d="M 156.883125 203.04 
L 156.883125 131.04 
" style="fill:none;stroke:#000000;stroke-linecap:square;stroke-linejoin:miter;stroke-width:0.8;"/>
   </g>
   <g id="patch_12">
    <path d="M 243.283125 203.04 
L 243.283125 131.04 
" style="fill:none;stroke:#000000;stroke-linecap:square;stroke-linejoin:miter;stroke-width:0.8;"/>
   </g>
   <g id="patch_13">
    <path d="M 156.883125 203.04 
L 243.283125 203.04 
" style="fill:none;stroke:#000000;stroke-linecap:square;stroke-linejoin:miter;stroke-width:0.8;"/>
   </g>
   <g id="patch_14">
    <path d="M 156.883125 131.04 
L 243.283125 131.04 
" style="fill:none;stroke:#000000;stroke-linecap:square;stroke-linejoin:miter;stroke-width:0.8;"/>
   </g>
  </g>
 </g>
 <defs>
  <clipPath id="pdd623d5872">
   <rect height="217.44" width="217.44" x="40.603125" y="7.2"/>
  </clipPath>
  <clipPath id="p860c227dea">
   <rect height="72" width="86.4" x="156.883125" y="131.04"/>
  </clipPath>
 </defs>
</svg>
