<?xml version="1.0" encoding="UTF-8" standalone="no"?>
<!-- Created with matplotlib (https://matplotlib.org/) -->

<svg
   height="270.480078pt"
   version="1.1"
   viewBox="0 0 332.884687 270.480078"
   width="332.884687pt"
   id="svg199"
   sodipodi:docname="Figure_5_newbins.svg"
   inkscape:version="1.3.2 (091e20e, 2023-11-25)"
   xmlns:inkscape="http://www.inkscape.org/namespaces/inkscape"
   xmlns:sodipodi="http://sodipodi.sourceforge.net/DTD/sodipodi-0.dtd"
   xmlns:xlink="http://www.w3.org/1999/xlink"
   xmlns="http://www.w3.org/2000/svg"
   xmlns:svg="http://www.w3.org/2000/svg">
  <sodipodi:namedview
     id="namedview199"
     pagecolor="#ffffff"
     bordercolor="#666666"
     borderopacity="1.0"
     inkscape:showpageshadow="2"
     inkscape:pageopacity="0.0"
     inkscape:pagecheckerboard="0"
     inkscape:deskcolor="#d1d1d1"
     inkscape:document-units="pt"
     inkscape:zoom="2.0603124"
     inkscape:cx="221.56834"
     inkscape:cy="179.58442"
     inkscape:window-width="1920"
     inkscape:window-height="999"
     inkscape:window-x="1440"
     inkscape:window-y="25"
     inkscape:window-maximized="0"
     inkscape:current-layer="axes_1" />
  <defs
     id="defs1">
    <style
       type="text/css"
       id="style1">
*{stroke-linecap:butt;stroke-linejoin:round;}
  </style>
  </defs>
  <g
     id="figure_1">
    <g
       id="patch_1">
      <path
         d="M 0 270.480078  L 332.884687 270.480078  L 332.884687 0  L 0 0  z "
         style="fill:#ffffff;"
         id="path1" />
    </g>
    <g
       id="axes_1">
      <g
         id="patch_2"
         inkscape:export-filename="Figure_5_LSDn.png"
         inkscape:export-xdpi="300"
         inkscape:export-ydpi="300">
        <path
           d="M 46.684688 230.020391  L 325.684687 230.020391  L 325.684687 12.580391  L 46.684688 12.580391  z "
           style="fill:#ffffff;"
           id="path2" />
      </g>
      <g
         id="patch_3">
        <path
           clip-path="url(#pc6f2a2b7f8)"
           d="M 117.882514 230.020391  L 132.8023 230.020391  L 132.8023 229.487841  L 117.882514 229.487841  z "
           style="fill:#014636;"
           id="path3" />
      </g>
      <g
         id="patch_4">
        <path
           clip-path="url(#pc6f2a2b7f8)"
           d="M 132.8023 230.020391  L 147.722086 230.020391  L 147.722086 228.689017  L 132.8023 228.689017  z "
           style="fill:#014636;"
           id="path4" />
      </g>
      <g
         id="patch_5">
        <path
           clip-path="url(#pc6f2a2b7f8)"
           d="M 147.722086 230.020391  L 162.641872 230.020391  L 162.641872 226.292543  L 147.722086 226.292543  z "
           style="fill:#014636;"
           id="path5" />
      </g>
      <g
         id="patch_6">
        <path
           clip-path="url(#pc6f2a2b7f8)"
           d="M 162.641872 230.020391  L 177.561658 230.020391  L 177.561658 217.505475  L 162.641872 217.505475  z "
           style="fill:#014636;"
           id="path6" />
      </g>
      <g
         id="patch_7">
        <path
           clip-path="url(#pc6f2a2b7f8)"
           d="M 177.561658 230.020391  L 192.481444 230.020391  L 192.481444 42.296658  L 177.561658 42.296658  z "
           style="fill:#014636;"
           id="path7" />
      </g>
      <g
         id="patch_8">
        <path
           clip-path="url(#pc6f2a2b7f8)"
           d="M 192.481444 230.020391  L 207.40123 230.020391  L 207.40123 87.563374  L 192.481444 87.563374  z "
           style="fill:#014636;"
           id="path8" />
      </g>
      <g
         id="patch_9">
        <path
           clip-path="url(#pc6f2a2b7f8)"
           d="M 207.40123 230.020391  L 222.321016 230.020391  L 222.321016 221.233322  L 207.40123 221.233322  z "
           style="fill:#014636;"
           id="path9" />
      </g>
      <g
         id="patch_10">
        <path
           clip-path="url(#pc6f2a2b7f8)"
           d="M 222.321016 230.020391  L 237.240802 230.020391  L 237.240802 228.156467  L 222.321016 228.156467  z "
           style="fill:#014636;"
           id="path10" />
      </g>
      <g
         id="patch_11">
        <path
           clip-path="url(#pc6f2a2b7f8)"
           d="M 237.240802 230.020391  L 252.160588 230.020391  L 252.160588 227.890192  L 237.240802 227.890192  z "
           style="fill:#014636;"
           id="path11" />
      </g>
      <g
         id="patch_12">
        <path
           clip-path="url(#pc6f2a2b7f8)"
           d="M 252.160588 230.020391  L 267.080375 230.020391  L 267.080375 229.487841  L 252.160588 229.487841  z "
           style="fill:#014636;"
           id="path12" />
      </g>
      <g
         id="patch_13">
        <path
           clip-path="url(#pc6f2a2b7f8)"
           d="M 267.080375 230.020391  L 282.000161 230.020391  L 282.000161 229.487841  L 267.080375 229.487841  z "
           style="fill:#014636;"
           id="path13" />
      </g>
      <g
         id="patch_14">
        <path
           clip-path="url(#pc6f2a2b7f8)"
           d="M 282.000161 230.020391  L 296.919947 230.020391  L 296.919947 230.020391  L 282.000161 230.020391  z "
           style="fill:#014636;"
           id="path14" />
      </g>
      <g
         id="patch_15">
        <path
           clip-path="url(#pc6f2a2b7f8)"
           d="M 296.919947 230.020391  L 311.839733 230.020391  L 311.839733 229.754116  L 296.919947 229.754116  z "
           style="fill:#014636;"
           id="path15" />
      </g>
      <g
         id="patch_16">
        <path
           clip-path="url(#pc6f2a2b7f8)"
           d="M 59.366506 230.020391  L 74.286292 230.020391  L 74.286292 228.692918  L 59.366506 228.692918  z "
           style="fill:#3690c0;opacity:0.7;"
           id="path16" />
      </g>
      <g
         id="patch_17">
        <path
           clip-path="url(#pc6f2a2b7f8)"
           d="M 74.286292 230.020391  L 89.206078 230.020391  L 89.206078 230.020391  L 74.286292 230.020391  z "
           style="fill:#3690c0;opacity:0.7;"
           id="path17" />
      </g>
      <g
         id="patch_18">
        <path
           clip-path="url(#pc6f2a2b7f8)"
           d="M 89.206078 230.020391  L 104.125864 230.020391  L 104.125864 228.692918  L 89.206078 228.692918  z "
           style="fill:#3690c0;opacity:0.7;"
           id="path18" />
      </g>
      <g
         id="patch_19">
        <path
           clip-path="url(#pc6f2a2b7f8)"
           d="M 104.125864 230.020391  L 119.04565 230.020391  L 119.04565 228.692918  L 104.125864 228.692918  z "
           style="fill:#3690c0;opacity:0.7;"
           id="path19" />
      </g>
      <g
         id="patch_20">
        <path
           clip-path="url(#pc6f2a2b7f8)"
           d="M 119.04565 230.020391  L 133.965436 230.020391  L 133.965436 227.365446  L 119.04565 227.365446  z "
           style="fill:#3690c0;opacity:0.7;"
           id="path20" />
      </g>
      <g
         id="patch_21">
        <path
           clip-path="url(#pc6f2a2b7f8)"
           d="M 133.965436 230.020391  L 148.885222 230.020391  L 148.885222 223.383028  L 133.965436 223.383028  z "
           style="fill:#3690c0;opacity:0.7;"
           id="path21" />
      </g>
      <g
         id="patch_22">
        <path
           clip-path="url(#pc6f2a2b7f8)"
           d="M 148.885222 230.020391  L 163.805008 230.020391  L 163.805008 218.073138  L 148.885222 218.073138  z "
           style="fill:#3690c0;opacity:0.7;"
           id="path22" />
      </g>
      <g
         id="patch_23">
        <path
           clip-path="url(#pc6f2a2b7f8)"
           d="M 163.805008 230.020391  L 178.724794 230.020391  L 178.724794 186.213797  L 163.805008 186.213797  z "
           style="fill:#3690c0;opacity:0.7;"
           id="path23" />
      </g>
      <g
         id="patch_24">
        <path
           clip-path="url(#pc6f2a2b7f8)"
           d="M 178.724794 230.020391  L 193.644581 230.020391  L 193.644581 94.618193  L 178.724794 94.618193  z "
           style="fill:#3690c0;opacity:0.7;"
           id="path24" />
      </g>
      <g
         id="patch_25">
        <path
           clip-path="url(#pc6f2a2b7f8)"
           d="M 193.644581 230.020391  L 208.564367 230.020391  L 208.564367 137.097314  L 193.644581 137.097314  z "
           style="fill:#3690c0;opacity:0.7;"
           id="path25" />
      </g>
      <g
         id="patch_26">
        <path
           clip-path="url(#pc6f2a2b7f8)"
           d="M 208.564367 230.020391  L 223.484153 230.020391  L 223.484153 198.16105  L 208.564367 198.16105  z "
           style="fill:#3690c0;opacity:0.7;"
           id="path26" />
      </g>
      <g
         id="patch_27">
        <path
           clip-path="url(#pc6f2a2b7f8)"
           d="M 223.484153 230.020391  L 238.403939 230.020391  L 238.403939 219.40061  L 223.484153 219.40061  z "
           style="fill:#3690c0;opacity:0.7;"
           id="path27" />
      </g>
      <g
         id="patch_28">
        <path
           clip-path="url(#pc6f2a2b7f8)"
           d="M 238.403939 230.020391  L 253.323725 230.020391  L 253.323725 219.40061  L 238.403939 219.40061  z "
           style="fill:#3690c0;opacity:0.7;"
           id="path28" />
      </g>
      <g
         id="patch_29">
        <path
           clip-path="url(#pc6f2a2b7f8)"
           d="M 253.323725 230.020391  L 268.243511 230.020391  L 268.243511 224.710501  L 253.323725 224.710501  z "
           style="fill:#3690c0;opacity:0.7;"
           id="path29" />
      </g>
      <g
         id="patch_30">
        <path
           clip-path="url(#pc6f2a2b7f8)"
           d="M 268.243511 230.020391  L 283.163297 230.020391  L 283.163297 226.037973  L 268.243511 226.037973  z "
           style="fill:#3690c0;opacity:0.7;"
           id="path30" />
      </g>
      <g
         id="patch_31">
        <path
           clip-path="url(#pc6f2a2b7f8)"
           d="M 283.163297 230.020391  L 298.083083 230.020391  L 298.083083 228.692918  L 283.163297 228.692918  z "
           style="fill:#3690c0;opacity:0.7;"
           id="path31" />
      </g>
      <g
         id="patch_32">
        <path
           clip-path="url(#pc6f2a2b7f8)"
           d="M 298.083083 230.020391  L 313.002869 230.020391  L 313.002869 228.692918  L 298.083083 228.692918  z "
           style="fill:#3690c0;opacity:0.7;"
           id="path32" />
      </g>
      <g
         id="matplotlib.axis_1">
        <g
           id="xtick_1">
          <g
             id="line2d_1">
            <defs
               id="defs32">
              <path
                 d="M 0 0  L 0 3.5  "
                 id="m54b9e54202"
                 style="stroke:#000000;stroke-width:0.8;" />
            </defs>
            <g
               id="g32">
              <use
                 style="stroke:#000000;stroke-width:0.8;"
                 x="78.803728"
                 xlink:href="#m54b9e54202"
                 y="230.020391"
                 id="use32" />
            </g>
          </g>
          <g
             id="text_1">
            <!-- 0.85 -->
            <defs
               id="defs33">
              <path
                 d="M 31.78125 66.40625  Q 24.171875 66.40625 20.328125 58.90625  Q 16.5 51.421875 16.5 36.375  Q 16.5 21.390625 20.328125 13.890625  Q 24.171875 6.390625 31.78125 6.390625  Q 39.453125 6.390625 43.28125 13.890625  Q 47.125 21.390625 47.125 36.375  Q 47.125 51.421875 43.28125 58.90625  Q 39.453125 66.40625 31.78125 66.40625  z M 31.78125 74.21875  Q 44.046875 74.21875 50.515625 64.515625  Q 56.984375 54.828125 56.984375 36.375  Q 56.984375 17.96875 50.515625 8.265625  Q 44.046875 -1.421875 31.78125 -1.421875  Q 19.53125 -1.421875 13.0625 8.265625  Q 6.59375 17.96875 6.59375 36.375  Q 6.59375 54.828125 13.0625 64.515625  Q 19.53125 74.21875 31.78125 74.21875  z "
                 id="DejaVuSans-48" />
              <path
                 d="M 10.6875 12.40625  L 21 12.40625  L 21 0  L 10.6875 0  z "
                 id="DejaVuSans-46" />
              <path
                 d="M 31.78125 34.625  Q 24.75 34.625 20.71875 30.859375  Q 16.703125 27.09375 16.703125 20.515625  Q 16.703125 13.921875 20.71875 10.15625  Q 24.75 6.390625 31.78125 6.390625  Q 38.8125 6.390625 42.859375 10.171875  Q 46.921875 13.96875 46.921875 20.515625  Q 46.921875 27.09375 42.890625 30.859375  Q 38.875 34.625 31.78125 34.625  z M 21.921875 38.8125  Q 15.578125 40.375 12.03125 44.71875  Q 8.5 49.078125 8.5 55.328125  Q 8.5 64.0625 14.71875 69.140625  Q 20.953125 74.21875 31.78125 74.21875  Q 42.671875 74.21875 48.875 69.140625  Q 55.078125 64.0625 55.078125 55.328125  Q 55.078125 49.078125 51.53125 44.71875  Q 48 40.375 41.703125 38.8125  Q 48.828125 37.15625 52.796875 32.3125  Q 56.78125 27.484375 56.78125 20.515625  Q 56.78125 9.90625 50.3125 4.234375  Q 43.84375 -1.421875 31.78125 -1.421875  Q 19.734375 -1.421875 13.25 4.234375  Q 6.78125 9.90625 6.78125 20.515625  Q 6.78125 27.484375 10.78125 32.3125  Q 14.796875 37.15625 21.921875 38.8125  z M 18.3125 54.390625  Q 18.3125 48.734375 21.84375 45.5625  Q 25.390625 42.390625 31.78125 42.390625  Q 38.140625 42.390625 41.71875 45.5625  Q 45.3125 48.734375 45.3125 54.390625  Q 45.3125 60.0625 41.71875 63.234375  Q 38.140625 66.40625 31.78125 66.40625  Q 25.390625 66.40625 21.84375 63.234375  Q 18.3125 60.0625 18.3125 54.390625  z "
                 id="DejaVuSans-56" />
              <path
                 d="M 10.796875 72.90625  L 49.515625 72.90625  L 49.515625 64.59375  L 19.828125 64.59375  L 19.828125 46.734375  Q 21.96875 47.46875 24.109375 47.828125  Q 26.265625 48.1875 28.421875 48.1875  Q 40.625 48.1875 47.75 41.5  Q 54.890625 34.8125 54.890625 23.390625  Q 54.890625 11.625 47.5625 5.09375  Q 40.234375 -1.421875 26.90625 -1.421875  Q 22.3125 -1.421875 17.546875 -0.640625  Q 12.796875 0.140625 7.71875 1.703125  L 7.71875 11.625  Q 12.109375 9.234375 16.796875 8.0625  Q 21.484375 6.890625 26.703125 6.890625  Q 35.15625 6.890625 40.078125 11.328125  Q 45.015625 15.765625 45.015625 23.390625  Q 45.015625 31 40.078125 35.4375  Q 35.15625 39.890625 26.703125 39.890625  Q 22.75 39.890625 18.8125 39.015625  Q 14.890625 38.140625 10.796875 36.28125  z "
                 id="DejaVuSans-53" />
            </defs>
            <g
               transform="translate(67.670916 244.618828)scale(0.1 -0.1)"
               id="g36">
              <use
                 xlink:href="#DejaVuSans-48"
                 id="use33" />
              <use
                 x="63.623047"
                 xlink:href="#DejaVuSans-46"
                 id="use34" />
              <use
                 x="95.410156"
                 xlink:href="#DejaVuSans-56"
                 id="use35" />
              <use
                 x="159.033203"
                 xlink:href="#DejaVuSans-53"
                 id="use36" />
            </g>
          </g>
        </g>
        <g
           id="xtick_2">
          <g
             id="line2d_2">
            <g
               id="g37">
              <use
                 style="stroke:#000000;stroke-width:0.8;"
                 x="116.103194"
                 xlink:href="#m54b9e54202"
                 y="230.020391"
                 id="use37" />
            </g>
          </g>
          <g
             id="text_2">
            <!-- 0.90 -->
            <defs
               id="defs37">
              <path
                 d="M 10.984375 1.515625  L 10.984375 10.5  Q 14.703125 8.734375 18.5 7.8125  Q 22.3125 6.890625 25.984375 6.890625  Q 35.75 6.890625 40.890625 13.453125  Q 46.046875 20.015625 46.78125 33.40625  Q 43.953125 29.203125 39.59375 26.953125  Q 35.25 24.703125 29.984375 24.703125  Q 19.046875 24.703125 12.671875 31.3125  Q 6.296875 37.9375 6.296875 49.421875  Q 6.296875 60.640625 12.9375 67.421875  Q 19.578125 74.21875 30.609375 74.21875  Q 43.265625 74.21875 49.921875 64.515625  Q 56.59375 54.828125 56.59375 36.375  Q 56.59375 19.140625 48.40625 8.859375  Q 40.234375 -1.421875 26.421875 -1.421875  Q 22.703125 -1.421875 18.890625 -0.6875  Q 15.09375 0.046875 10.984375 1.515625  z M 30.609375 32.421875  Q 37.25 32.421875 41.125 36.953125  Q 45.015625 41.5 45.015625 49.421875  Q 45.015625 57.28125 41.125 61.84375  Q 37.25 66.40625 30.609375 66.40625  Q 23.96875 66.40625 20.09375 61.84375  Q 16.21875 57.28125 16.21875 49.421875  Q 16.21875 41.5 20.09375 36.953125  Q 23.96875 32.421875 30.609375 32.421875  z "
                 id="DejaVuSans-57" />
            </defs>
            <g
               transform="translate(104.970381 244.618828)scale(0.1 -0.1)"
               id="g41">
              <use
                 xlink:href="#DejaVuSans-48"
                 id="use38" />
              <use
                 x="63.623047"
                 xlink:href="#DejaVuSans-46"
                 id="use39" />
              <use
                 x="95.410156"
                 xlink:href="#DejaVuSans-57"
                 id="use40" />
              <use
                 x="159.033203"
                 xlink:href="#DejaVuSans-48"
                 id="use41" />
            </g>
          </g>
        </g>
        <g
           id="xtick_3">
          <g
             id="line2d_3">
            <g
               id="g42">
              <use
                 style="stroke:#000000;stroke-width:0.8;"
                 x="153.402659"
                 xlink:href="#m54b9e54202"
                 y="230.020391"
                 id="use42" />
            </g>
          </g>
          <g
             id="text_3">
            <!-- 0.95 -->
            <g
               transform="translate(142.269846 244.618828)scale(0.1 -0.1)"
               id="g46">
              <use
                 xlink:href="#DejaVuSans-48"
                 id="use43" />
              <use
                 x="63.623047"
                 xlink:href="#DejaVuSans-46"
                 id="use44" />
              <use
                 x="95.410156"
                 xlink:href="#DejaVuSans-57"
                 id="use45" />
              <use
                 x="159.033203"
                 xlink:href="#DejaVuSans-53"
                 id="use46" />
            </g>
          </g>
        </g>
        <g
           id="xtick_4">
          <g
             id="line2d_4">
            <g
               id="g47">
              <use
                 style="stroke:#000000;stroke-width:0.8;"
                 x="190.702124"
                 xlink:href="#m54b9e54202"
                 y="230.020391"
                 id="use47" />
            </g>
          </g>
          <g
             id="text_4">
            <!-- 1.00 -->
            <defs
               id="defs47">
              <path
                 d="M 12.40625 8.296875  L 28.515625 8.296875  L 28.515625 63.921875  L 10.984375 60.40625  L 10.984375 69.390625  L 28.421875 72.90625  L 38.28125 72.90625  L 38.28125 8.296875  L 54.390625 8.296875  L 54.390625 0  L 12.40625 0  z "
                 id="DejaVuSans-49" />
            </defs>
            <g
               transform="translate(179.569312 244.618828)scale(0.1 -0.1)"
               id="g51">
              <use
                 xlink:href="#DejaVuSans-49"
                 id="use48" />
              <use
                 x="63.623047"
                 xlink:href="#DejaVuSans-46"
                 id="use49" />
              <use
                 x="95.410156"
                 xlink:href="#DejaVuSans-48"
                 id="use50" />
              <use
                 x="159.033203"
                 xlink:href="#DejaVuSans-48"
                 id="use51" />
            </g>
          </g>
        </g>
        <g
           id="xtick_5">
          <g
             id="line2d_5">
            <g
               id="g52">
              <use
                 style="stroke:#000000;stroke-width:0.8;"
                 x="228.001589"
                 xlink:href="#m54b9e54202"
                 y="230.020391"
                 id="use52" />
            </g>
          </g>
          <g
             id="text_5">
            <!-- 1.05 -->
            <g
               transform="translate(216.868777 244.618828)scale(0.1 -0.1)"
               id="g56">
              <use
                 xlink:href="#DejaVuSans-49"
                 id="use53" />
              <use
                 x="63.623047"
                 xlink:href="#DejaVuSans-46"
                 id="use54" />
              <use
                 x="95.410156"
                 xlink:href="#DejaVuSans-48"
                 id="use55" />
              <use
                 x="159.033203"
                 xlink:href="#DejaVuSans-53"
                 id="use56" />
            </g>
          </g>
        </g>
        <g
           id="xtick_6">
          <g
             id="line2d_6">
            <g
               id="g57">
              <use
                 style="stroke:#000000;stroke-width:0.8;"
                 x="265.301055"
                 xlink:href="#m54b9e54202"
                 y="230.020391"
                 id="use57" />
            </g>
          </g>
          <g
             id="text_6">
            <!-- 1.10 -->
            <g
               transform="translate(254.168242 244.618828)scale(0.1 -0.1)"
               id="g61">
              <use
                 xlink:href="#DejaVuSans-49"
                 id="use58" />
              <use
                 x="63.623047"
                 xlink:href="#DejaVuSans-46"
                 id="use59" />
              <use
                 x="95.410156"
                 xlink:href="#DejaVuSans-49"
                 id="use60" />
              <use
                 x="159.033203"
                 xlink:href="#DejaVuSans-48"
                 id="use61" />
            </g>
          </g>
        </g>
        <g
           id="xtick_7">
          <g
             id="line2d_7">
            <g
               id="g62">
              <use
                 style="stroke:#000000;stroke-width:0.8;"
                 x="302.60052"
                 xlink:href="#m54b9e54202"
                 y="230.020391"
                 id="use62" />
            </g>
          </g>
          <g
             id="text_7">
            <!-- 1.15 -->
            <g
               transform="translate(291.467707 244.618828)scale(0.1 -0.1)"
               id="g66">
              <use
                 xlink:href="#DejaVuSans-49"
                 id="use63" />
              <use
                 x="63.623047"
                 xlink:href="#DejaVuSans-46"
                 id="use64" />
              <use
                 x="95.410156"
                 xlink:href="#DejaVuSans-49"
                 id="use65" />
              <use
                 x="159.033203"
                 xlink:href="#DejaVuSans-53"
                 id="use66" />
            </g>
          </g>
        </g>
        <g
           id="text_8">
          <!-- Scaling factor ratio -->
          <defs
             id="defs66">
            <path
               d="M 53.515625 70.515625  L 53.515625 60.890625  Q 47.90625 63.578125 42.921875 64.890625  Q 37.9375 66.21875 33.296875 66.21875  Q 25.25 66.21875 20.875 63.09375  Q 16.5 59.96875 16.5 54.203125  Q 16.5 49.359375 19.40625 46.890625  Q 22.3125 44.4375 30.421875 42.921875  L 36.375 41.703125  Q 47.40625 39.59375 52.65625 34.296875  Q 57.90625 29 57.90625 20.125  Q 57.90625 9.515625 50.796875 4.046875  Q 43.703125 -1.421875 29.984375 -1.421875  Q 24.8125 -1.421875 18.96875 -0.25  Q 13.140625 0.921875 6.890625 3.21875  L 6.890625 13.375  Q 12.890625 10.015625 18.65625 8.296875  Q 24.421875 6.59375 29.984375 6.59375  Q 38.421875 6.59375 43.015625 9.90625  Q 47.609375 13.234375 47.609375 19.390625  Q 47.609375 24.75 44.3125 27.78125  Q 41.015625 30.8125 33.5 32.328125  L 27.484375 33.5  Q 16.453125 35.6875 11.515625 40.375  Q 6.59375 45.0625 6.59375 53.421875  Q 6.59375 63.09375 13.40625 68.65625  Q 20.21875 74.21875 32.171875 74.21875  Q 37.3125 74.21875 42.625 73.28125  Q 47.953125 72.359375 53.515625 70.515625  z "
               id="DejaVuSans-83" />
            <path
               d="M 48.78125 52.59375  L 48.78125 44.1875  Q 44.96875 46.296875 41.140625 47.34375  Q 37.3125 48.390625 33.40625 48.390625  Q 24.65625 48.390625 19.8125 42.84375  Q 14.984375 37.3125 14.984375 27.296875  Q 14.984375 17.28125 19.8125 11.734375  Q 24.65625 6.203125 33.40625 6.203125  Q 37.3125 6.203125 41.140625 7.25  Q 44.96875 8.296875 48.78125 10.40625  L 48.78125 2.09375  Q 45.015625 0.34375 40.984375 -0.53125  Q 36.96875 -1.421875 32.421875 -1.421875  Q 20.0625 -1.421875 12.78125 6.34375  Q 5.515625 14.109375 5.515625 27.296875  Q 5.515625 40.671875 12.859375 48.328125  Q 20.21875 56 33.015625 56  Q 37.15625 56 41.109375 55.140625  Q 45.0625 54.296875 48.78125 52.59375  z "
               id="DejaVuSans-99" />
            <path
               d="M 34.28125 27.484375  Q 23.390625 27.484375 19.1875 25  Q 14.984375 22.515625 14.984375 16.5  Q 14.984375 11.71875 18.140625 8.90625  Q 21.296875 6.109375 26.703125 6.109375  Q 34.1875 6.109375 38.703125 11.40625  Q 43.21875 16.703125 43.21875 25.484375  L 43.21875 27.484375  z M 52.203125 31.203125  L 52.203125 0  L 43.21875 0  L 43.21875 8.296875  Q 40.140625 3.328125 35.546875 0.953125  Q 30.953125 -1.421875 24.3125 -1.421875  Q 15.921875 -1.421875 10.953125 3.296875  Q 6 8.015625 6 15.921875  Q 6 25.140625 12.171875 29.828125  Q 18.359375 34.515625 30.609375 34.515625  L 43.21875 34.515625  L 43.21875 35.40625  Q 43.21875 41.609375 39.140625 45  Q 35.0625 48.390625 27.6875 48.390625  Q 23 48.390625 18.546875 47.265625  Q 14.109375 46.140625 10.015625 43.890625  L 10.015625 52.203125  Q 14.9375 54.109375 19.578125 55.046875  Q 24.21875 56 28.609375 56  Q 40.484375 56 46.34375 49.84375  Q 52.203125 43.703125 52.203125 31.203125  z "
               id="DejaVuSans-97" />
            <path
               d="M 9.421875 75.984375  L 18.40625 75.984375  L 18.40625 0  L 9.421875 0  z "
               id="DejaVuSans-108" />
            <path
               d="M 9.421875 54.6875  L 18.40625 54.6875  L 18.40625 0  L 9.421875 0  z M 9.421875 75.984375  L 18.40625 75.984375  L 18.40625 64.59375  L 9.421875 64.59375  z "
               id="DejaVuSans-105" />
            <path
               d="M 54.890625 33.015625  L 54.890625 0  L 45.90625 0  L 45.90625 32.71875  Q 45.90625 40.484375 42.875 44.328125  Q 39.84375 48.1875 33.796875 48.1875  Q 26.515625 48.1875 22.3125 43.546875  Q 18.109375 38.921875 18.109375 30.90625  L 18.109375 0  L 9.078125 0  L 9.078125 54.6875  L 18.109375 54.6875  L 18.109375 46.1875  Q 21.34375 51.125 25.703125 53.5625  Q 30.078125 56 35.796875 56  Q 45.21875 56 50.046875 50.171875  Q 54.890625 44.34375 54.890625 33.015625  z "
               id="DejaVuSans-110" />
            <path
               d="M 45.40625 27.984375  Q 45.40625 37.75 41.375 43.109375  Q 37.359375 48.484375 30.078125 48.484375  Q 22.859375 48.484375 18.828125 43.109375  Q 14.796875 37.75 14.796875 27.984375  Q 14.796875 18.265625 18.828125 12.890625  Q 22.859375 7.515625 30.078125 7.515625  Q 37.359375 7.515625 41.375 12.890625  Q 45.40625 18.265625 45.40625 27.984375  z M 54.390625 6.78125  Q 54.390625 -7.171875 48.1875 -13.984375  Q 42 -20.796875 29.203125 -20.796875  Q 24.46875 -20.796875 20.265625 -20.09375  Q 16.0625 -19.390625 12.109375 -17.921875  L 12.109375 -9.1875  Q 16.0625 -11.328125 19.921875 -12.34375  Q 23.78125 -13.375 27.78125 -13.375  Q 36.625 -13.375 41.015625 -8.765625  Q 45.40625 -4.15625 45.40625 5.171875  L 45.40625 9.625  Q 42.625 4.78125 38.28125 2.390625  Q 33.9375 0 27.875 0  Q 17.828125 0 11.671875 7.65625  Q 5.515625 15.328125 5.515625 27.984375  Q 5.515625 40.671875 11.671875 48.328125  Q 17.828125 56 27.875 56  Q 33.9375 56 38.28125 53.609375  Q 42.625 51.21875 45.40625 46.390625  L 45.40625 54.6875  L 54.390625 54.6875  z "
               id="DejaVuSans-103" />
            <path
               id="DejaVuSans-32" />
            <path
               d="M 37.109375 75.984375  L 37.109375 68.5  L 28.515625 68.5  Q 23.6875 68.5 21.796875 66.546875  Q 19.921875 64.59375 19.921875 59.515625  L 19.921875 54.6875  L 34.71875 54.6875  L 34.71875 47.703125  L 19.921875 47.703125  L 19.921875 0  L 10.890625 0  L 10.890625 47.703125  L 2.296875 47.703125  L 2.296875 54.6875  L 10.890625 54.6875  L 10.890625 58.5  Q 10.890625 67.625 15.140625 71.796875  Q 19.390625 75.984375 28.609375 75.984375  z "
               id="DejaVuSans-102" />
            <path
               d="M 18.3125 70.21875  L 18.3125 54.6875  L 36.8125 54.6875  L 36.8125 47.703125  L 18.3125 47.703125  L 18.3125 18.015625  Q 18.3125 11.328125 20.140625 9.421875  Q 21.96875 7.515625 27.59375 7.515625  L 36.8125 7.515625  L 36.8125 0  L 27.59375 0  Q 17.1875 0 13.234375 3.875  Q 9.28125 7.765625 9.28125 18.015625  L 9.28125 47.703125  L 2.6875 47.703125  L 2.6875 54.6875  L 9.28125 54.6875  L 9.28125 70.21875  z "
               id="DejaVuSans-116" />
            <path
               d="M 30.609375 48.390625  Q 23.390625 48.390625 19.1875 42.75  Q 14.984375 37.109375 14.984375 27.296875  Q 14.984375 17.484375 19.15625 11.84375  Q 23.34375 6.203125 30.609375 6.203125  Q 37.796875 6.203125 41.984375 11.859375  Q 46.1875 17.53125 46.1875 27.296875  Q 46.1875 37.015625 41.984375 42.703125  Q 37.796875 48.390625 30.609375 48.390625  z M 30.609375 56  Q 42.328125 56 49.015625 48.375  Q 55.71875 40.765625 55.71875 27.296875  Q 55.71875 13.875 49.015625 6.21875  Q 42.328125 -1.421875 30.609375 -1.421875  Q 18.84375 -1.421875 12.171875 6.21875  Q 5.515625 13.875 5.515625 27.296875  Q 5.515625 40.765625 12.171875 48.375  Q 18.84375 56 30.609375 56  z "
               id="DejaVuSans-111" />
            <path
               d="M 41.109375 46.296875  Q 39.59375 47.171875 37.8125 47.578125  Q 36.03125 48 33.890625 48  Q 26.265625 48 22.1875 43.046875  Q 18.109375 38.09375 18.109375 28.8125  L 18.109375 0  L 9.078125 0  L 9.078125 54.6875  L 18.109375 54.6875  L 18.109375 46.1875  Q 20.953125 51.171875 25.484375 53.578125  Q 30.03125 56 36.53125 56  Q 37.453125 56 38.578125 55.875  Q 39.703125 55.765625 41.0625 55.515625  z "
               id="DejaVuSans-114" />
          </defs>
          <g
             transform="translate(124.482422 260.576484)scale(0.13 -0.13)"
             id="g86">
            <use
               xlink:href="#DejaVuSans-83"
               id="use67" />
            <use
               x="63.476562"
               xlink:href="#DejaVuSans-99"
               id="use68" />
            <use
               x="118.457031"
               xlink:href="#DejaVuSans-97"
               id="use69" />
            <use
               x="179.736328"
               xlink:href="#DejaVuSans-108"
               id="use70" />
            <use
               x="207.519531"
               xlink:href="#DejaVuSans-105"
               id="use71" />
            <use
               x="235.302734"
               xlink:href="#DejaVuSans-110"
               id="use72" />
            <use
               x="298.681641"
               xlink:href="#DejaVuSans-103"
               id="use73" />
            <use
               x="362.158203"
               xlink:href="#DejaVuSans-32"
               id="use74" />
            <use
               x="393.945312"
               xlink:href="#DejaVuSans-102"
               id="use75" />
            <use
               x="429.150391"
               xlink:href="#DejaVuSans-97"
               id="use76" />
            <use
               x="490.429688"
               xlink:href="#DejaVuSans-99"
               id="use77" />
            <use
               x="545.410156"
               xlink:href="#DejaVuSans-116"
               id="use78" />
            <use
               x="584.619141"
               xlink:href="#DejaVuSans-111"
               id="use79" />
            <use
               x="645.800781"
               xlink:href="#DejaVuSans-114"
               id="use80" />
            <use
               x="686.914062"
               xlink:href="#DejaVuSans-32"
               id="use81" />
            <use
               x="718.701172"
               xlink:href="#DejaVuSans-114"
               id="use82" />
            <use
               x="759.814453"
               xlink:href="#DejaVuSans-97"
               id="use83" />
            <use
               x="821.09375"
               xlink:href="#DejaVuSans-116"
               id="use84" />
            <use
               x="860.302734"
               xlink:href="#DejaVuSans-105"
               id="use85" />
            <use
               x="888.085938"
               xlink:href="#DejaVuSans-111"
               id="use86" />
          </g>
        </g>
      </g>
      <g
         id="matplotlib.axis_2">
        <g
           id="ytick_1">
          <g
             id="line2d_8">
            <defs
               id="defs86">
              <path
                 d="M 0 0  L -3.5 0  "
                 id="m5e54e4f3ff"
                 style="stroke:#000000;stroke-width:0.8;" />
            </defs>
            <g
               id="g87">
              <use
                 style="stroke:#000000;stroke-width:0.8;"
                 x="46.684688"
                 xlink:href="#m5e54e4f3ff"
                 y="230.020391"
                 id="use87" />
            </g>
          </g>
          <g
             id="text_9">
            <!-- 0.0 -->
            <g
               transform="translate(23.781563 233.819609)scale(0.1 -0.1)"
               id="g90">
              <use
                 xlink:href="#DejaVuSans-48"
                 id="use88" />
              <use
                 x="63.623047"
                 xlink:href="#DejaVuSans-46"
                 id="use89" />
              <use
                 x="95.410156"
                 xlink:href="#DejaVuSans-48"
                 id="use90" />
            </g>
          </g>
        </g>
        <g
           id="ytick_2">
          <g
             id="line2d_9">
            <g
               id="g91">
              <use
                 style="stroke:#000000;stroke-width:0.8;"
                 x="46.684688"
                 xlink:href="#m5e54e4f3ff"
                 y="193.780391"
                 id="use91" />
            </g>
          </g>
          <g
             id="text_10">
            <!-- 0.1 -->
            <g
               transform="translate(23.781563 197.579609)scale(0.1 -0.1)"
               id="g94">
              <use
                 xlink:href="#DejaVuSans-48"
                 id="use92" />
              <use
                 x="63.623047"
                 xlink:href="#DejaVuSans-46"
                 id="use93" />
              <use
                 x="95.410156"
                 xlink:href="#DejaVuSans-49"
                 id="use94" />
            </g>
          </g>
        </g>
        <g
           id="ytick_3">
          <g
             id="line2d_10">
            <g
               id="g95">
              <use
                 style="stroke:#000000;stroke-width:0.8;"
                 x="46.684688"
                 xlink:href="#m5e54e4f3ff"
                 y="157.540391"
                 id="use95" />
            </g>
          </g>
          <g
             id="text_11">
            <!-- 0.2 -->
            <defs
               id="defs95">
              <path
                 d="M 19.1875 8.296875  L 53.609375 8.296875  L 53.609375 0  L 7.328125 0  L 7.328125 8.296875  Q 12.9375 14.109375 22.625 23.890625  Q 32.328125 33.6875 34.8125 36.53125  Q 39.546875 41.84375 41.421875 45.53125  Q 43.3125 49.21875 43.3125 52.78125  Q 43.3125 58.59375 39.234375 62.25  Q 35.15625 65.921875 28.609375 65.921875  Q 23.96875 65.921875 18.8125 64.3125  Q 13.671875 62.703125 7.8125 59.421875  L 7.8125 69.390625  Q 13.765625 71.78125 18.9375 73  Q 24.125 74.21875 28.421875 74.21875  Q 39.75 74.21875 46.484375 68.546875  Q 53.21875 62.890625 53.21875 53.421875  Q 53.21875 48.921875 51.53125 44.890625  Q 49.859375 40.875 45.40625 35.40625  Q 44.1875 33.984375 37.640625 27.21875  Q 31.109375 20.453125 19.1875 8.296875  z "
                 id="DejaVuSans-50" />
            </defs>
            <g
               transform="translate(23.781563 161.339609)scale(0.1 -0.1)"
               id="g98">
              <use
                 xlink:href="#DejaVuSans-48"
                 id="use96" />
              <use
                 x="63.623047"
                 xlink:href="#DejaVuSans-46"
                 id="use97" />
              <use
                 x="95.410156"
                 xlink:href="#DejaVuSans-50"
                 id="use98" />
            </g>
          </g>
        </g>
        <g
           id="ytick_4">
          <g
             id="line2d_11">
            <g
               id="g99">
              <use
                 style="stroke:#000000;stroke-width:0.8;"
                 x="46.684688"
                 xlink:href="#m5e54e4f3ff"
                 y="121.300391"
                 id="use99" />
            </g>
          </g>
          <g
             id="text_12">
            <!-- 0.3 -->
            <defs
               id="defs99">
              <path
                 d="M 40.578125 39.3125  Q 47.65625 37.796875 51.625 33  Q 55.609375 28.21875 55.609375 21.1875  Q 55.609375 10.40625 48.1875 4.484375  Q 40.765625 -1.421875 27.09375 -1.421875  Q 22.515625 -1.421875 17.65625 -0.515625  Q 12.796875 0.390625 7.625 2.203125  L 7.625 11.71875  Q 11.71875 9.328125 16.59375 8.109375  Q 21.484375 6.890625 26.8125 6.890625  Q 36.078125 6.890625 40.9375 10.546875  Q 45.796875 14.203125 45.796875 21.1875  Q 45.796875 27.640625 41.28125 31.265625  Q 36.765625 34.90625 28.71875 34.90625  L 20.21875 34.90625  L 20.21875 43.015625  L 29.109375 43.015625  Q 36.375 43.015625 40.234375 45.921875  Q 44.09375 48.828125 44.09375 54.296875  Q 44.09375 59.90625 40.109375 62.90625  Q 36.140625 65.921875 28.71875 65.921875  Q 24.65625 65.921875 20.015625 65.03125  Q 15.375 64.15625 9.8125 62.3125  L 9.8125 71.09375  Q 15.4375 72.65625 20.34375 73.4375  Q 25.25 74.21875 29.59375 74.21875  Q 40.828125 74.21875 47.359375 69.109375  Q 53.90625 64.015625 53.90625 55.328125  Q 53.90625 49.265625 50.4375 45.09375  Q 46.96875 40.921875 40.578125 39.3125  z "
                 id="DejaVuSans-51" />
            </defs>
            <g
               transform="translate(23.781563 125.099609)scale(0.1 -0.1)"
               id="g102">
              <use
                 xlink:href="#DejaVuSans-48"
                 id="use100" />
              <use
                 x="63.623047"
                 xlink:href="#DejaVuSans-46"
                 id="use101" />
              <use
                 x="95.410156"
                 xlink:href="#DejaVuSans-51"
                 id="use102" />
            </g>
          </g>
        </g>
        <g
           id="ytick_5">
          <g
             id="line2d_12">
            <g
               id="g103">
              <use
                 style="stroke:#000000;stroke-width:0.8;"
                 x="46.684688"
                 xlink:href="#m5e54e4f3ff"
                 y="85.060391"
                 id="use103" />
            </g>
          </g>
          <g
             id="text_13">
            <!-- 0.4 -->
            <defs
               id="defs103">
              <path
                 d="M 37.796875 64.3125  L 12.890625 25.390625  L 37.796875 25.390625  z M 35.203125 72.90625  L 47.609375 72.90625  L 47.609375 25.390625  L 58.015625 25.390625  L 58.015625 17.1875  L 47.609375 17.1875  L 47.609375 0  L 37.796875 0  L 37.796875 17.1875  L 4.890625 17.1875  L 4.890625 26.703125  z "
                 id="DejaVuSans-52" />
            </defs>
            <g
               transform="translate(23.781563 88.859609)scale(0.1 -0.1)"
               id="g106">
              <use
                 xlink:href="#DejaVuSans-48"
                 id="use104" />
              <use
                 x="63.623047"
                 xlink:href="#DejaVuSans-46"
                 id="use105" />
              <use
                 x="95.410156"
                 xlink:href="#DejaVuSans-52"
                 id="use106" />
            </g>
          </g>
        </g>
        <g
           id="ytick_6">
          <g
             id="line2d_13">
            <g
               id="g107">
              <use
                 style="stroke:#000000;stroke-width:0.8;"
                 x="46.684688"
                 xlink:href="#m5e54e4f3ff"
                 y="48.820391"
                 id="use107" />
            </g>
          </g>
          <g
             id="text_14">
            <!-- 0.5 -->
            <g
               transform="translate(23.781563 52.619609)scale(0.1 -0.1)"
               id="g110">
              <use
                 xlink:href="#DejaVuSans-48"
                 id="use108" />
              <use
                 x="63.623047"
                 xlink:href="#DejaVuSans-46"
                 id="use109" />
              <use
                 x="95.410156"
                 xlink:href="#DejaVuSans-53"
                 id="use110" />
            </g>
          </g>
        </g>
        <g
           id="ytick_7">
          <g
             id="line2d_14">
            <g
               id="g111">
              <use
                 style="stroke:#000000;stroke-width:0.8;"
                 x="46.684688"
                 xlink:href="#m5e54e4f3ff"
                 y="12.580391"
                 id="use111" />
            </g>
          </g>
          <g
             id="text_15">
            <!-- 0.6 -->
            <defs
               id="defs111">
              <path
                 d="M 33.015625 40.375  Q 26.375 40.375 22.484375 35.828125  Q 18.609375 31.296875 18.609375 23.390625  Q 18.609375 15.53125 22.484375 10.953125  Q 26.375 6.390625 33.015625 6.390625  Q 39.65625 6.390625 43.53125 10.953125  Q 47.40625 15.53125 47.40625 23.390625  Q 47.40625 31.296875 43.53125 35.828125  Q 39.65625 40.375 33.015625 40.375  z M 52.59375 71.296875  L 52.59375 62.3125  Q 48.875 64.0625 45.09375 64.984375  Q 41.3125 65.921875 37.59375 65.921875  Q 27.828125 65.921875 22.671875 59.328125  Q 17.53125 52.734375 16.796875 39.40625  Q 19.671875 43.65625 24.015625 45.921875  Q 28.375 48.1875 33.59375 48.1875  Q 44.578125 48.1875 50.953125 41.515625  Q 57.328125 34.859375 57.328125 23.390625  Q 57.328125 12.15625 50.6875 5.359375  Q 44.046875 -1.421875 33.015625 -1.421875  Q 20.359375 -1.421875 13.671875 8.265625  Q 6.984375 17.96875 6.984375 36.375  Q 6.984375 53.65625 15.1875 63.9375  Q 23.390625 74.21875 37.203125 74.21875  Q 40.921875 74.21875 44.703125 73.484375  Q 48.484375 72.75 52.59375 71.296875  z "
                 id="DejaVuSans-54" />
            </defs>
            <g
               transform="translate(23.781563 16.379609)scale(0.1 -0.1)"
               id="g114">
              <use
                 xlink:href="#DejaVuSans-48"
                 id="use112" />
              <use
                 x="63.623047"
                 xlink:href="#DejaVuSans-46"
                 id="use113" />
              <use
                 x="95.410156"
                 xlink:href="#DejaVuSans-54"
                 id="use114" />
            </g>
          </g>
        </g>
        <g
           id="text_16">
          <!-- Normalized number of occurrences -->
          <defs
             id="defs114">
            <path
               d="M 9.8125 72.90625  L 23.09375 72.90625  L 55.421875 11.921875  L 55.421875 72.90625  L 64.984375 72.90625  L 64.984375 0  L 51.703125 0  L 19.390625 60.984375  L 19.390625 0  L 9.8125 0  z "
               id="DejaVuSans-78" />
            <path
               d="M 52 44.1875  Q 55.375 50.25 60.0625 53.125  Q 64.75 56 71.09375 56  Q 79.640625 56 84.28125 50.015625  Q 88.921875 44.046875 88.921875 33.015625  L 88.921875 0  L 79.890625 0  L 79.890625 32.71875  Q 79.890625 40.578125 77.09375 44.375  Q 74.3125 48.1875 68.609375 48.1875  Q 61.625 48.1875 57.5625 43.546875  Q 53.515625 38.921875 53.515625 30.90625  L 53.515625 0  L 44.484375 0  L 44.484375 32.71875  Q 44.484375 40.625 41.703125 44.40625  Q 38.921875 48.1875 33.109375 48.1875  Q 26.21875 48.1875 22.15625 43.53125  Q 18.109375 38.875 18.109375 30.90625  L 18.109375 0  L 9.078125 0  L 9.078125 54.6875  L 18.109375 54.6875  L 18.109375 46.1875  Q 21.1875 51.21875 25.484375 53.609375  Q 29.78125 56 35.6875 56  Q 41.65625 56 45.828125 52.96875  Q 50 49.953125 52 44.1875  z "
               id="DejaVuSans-109" />
            <path
               d="M 5.515625 54.6875  L 48.1875 54.6875  L 48.1875 46.484375  L 14.40625 7.171875  L 48.1875 7.171875  L 48.1875 0  L 4.296875 0  L 4.296875 8.203125  L 38.09375 47.515625  L 5.515625 47.515625  z "
               id="DejaVuSans-122" />
            <path
               d="M 56.203125 29.59375  L 56.203125 25.203125  L 14.890625 25.203125  Q 15.484375 15.921875 20.484375 11.0625  Q 25.484375 6.203125 34.421875 6.203125  Q 39.59375 6.203125 44.453125 7.46875  Q 49.3125 8.734375 54.109375 11.28125  L 54.109375 2.78125  Q 49.265625 0.734375 44.1875 -0.34375  Q 39.109375 -1.421875 33.890625 -1.421875  Q 20.796875 -1.421875 13.15625 6.1875  Q 5.515625 13.8125 5.515625 26.8125  Q 5.515625 40.234375 12.765625 48.109375  Q 20.015625 56 32.328125 56  Q 43.359375 56 49.78125 48.890625  Q 56.203125 41.796875 56.203125 29.59375  z M 47.21875 32.234375  Q 47.125 39.59375 43.09375 43.984375  Q 39.0625 48.390625 32.421875 48.390625  Q 24.90625 48.390625 20.390625 44.140625  Q 15.875 39.890625 15.1875 32.171875  z "
               id="DejaVuSans-101" />
            <path
               d="M 45.40625 46.390625  L 45.40625 75.984375  L 54.390625 75.984375  L 54.390625 0  L 45.40625 0  L 45.40625 8.203125  Q 42.578125 3.328125 38.25 0.953125  Q 33.9375 -1.421875 27.875 -1.421875  Q 17.96875 -1.421875 11.734375 6.484375  Q 5.515625 14.40625 5.515625 27.296875  Q 5.515625 40.1875 11.734375 48.09375  Q 17.96875 56 27.875 56  Q 33.9375 56 38.25 53.625  Q 42.578125 51.265625 45.40625 46.390625  z M 14.796875 27.296875  Q 14.796875 17.390625 18.875 11.75  Q 22.953125 6.109375 30.078125 6.109375  Q 37.203125 6.109375 41.296875 11.75  Q 45.40625 17.390625 45.40625 27.296875  Q 45.40625 37.203125 41.296875 42.84375  Q 37.203125 48.484375 30.078125 48.484375  Q 22.953125 48.484375 18.875 42.84375  Q 14.796875 37.203125 14.796875 27.296875  z "
               id="DejaVuSans-100" />
            <path
               d="M 8.5 21.578125  L 8.5 54.6875  L 17.484375 54.6875  L 17.484375 21.921875  Q 17.484375 14.15625 20.5 10.265625  Q 23.53125 6.390625 29.59375 6.390625  Q 36.859375 6.390625 41.078125 11.03125  Q 45.3125 15.671875 45.3125 23.6875  L 45.3125 54.6875  L 54.296875 54.6875  L 54.296875 0  L 45.3125 0  L 45.3125 8.40625  Q 42.046875 3.421875 37.71875 1  Q 33.40625 -1.421875 27.6875 -1.421875  Q 18.265625 -1.421875 13.375 4.4375  Q 8.5 10.296875 8.5 21.578125  z M 31.109375 56  z "
               id="DejaVuSans-117" />
            <path
               d="M 48.6875 27.296875  Q 48.6875 37.203125 44.609375 42.84375  Q 40.53125 48.484375 33.40625 48.484375  Q 26.265625 48.484375 22.1875 42.84375  Q 18.109375 37.203125 18.109375 27.296875  Q 18.109375 17.390625 22.1875 11.75  Q 26.265625 6.109375 33.40625 6.109375  Q 40.53125 6.109375 44.609375 11.75  Q 48.6875 17.390625 48.6875 27.296875  z M 18.109375 46.390625  Q 20.953125 51.265625 25.265625 53.625  Q 29.59375 56 35.59375 56  Q 45.5625 56 51.78125 48.09375  Q 58.015625 40.1875 58.015625 27.296875  Q 58.015625 14.40625 51.78125 6.484375  Q 45.5625 -1.421875 35.59375 -1.421875  Q 29.59375 -1.421875 25.265625 0.953125  Q 20.953125 3.328125 18.109375 8.203125  L 18.109375 0  L 9.078125 0  L 9.078125 75.984375  L 18.109375 75.984375  z "
               id="DejaVuSans-98" />
            <path
               d="M 44.28125 53.078125  L 44.28125 44.578125  Q 40.484375 46.53125 36.375 47.5  Q 32.28125 48.484375 27.875 48.484375  Q 21.1875 48.484375 17.84375 46.4375  Q 14.5 44.390625 14.5 40.28125  Q 14.5 37.15625 16.890625 35.375  Q 19.28125 33.59375 26.515625 31.984375  L 29.59375 31.296875  Q 39.15625 29.25 43.1875 25.515625  Q 47.21875 21.78125 47.21875 15.09375  Q 47.21875 7.46875 41.1875 3.015625  Q 35.15625 -1.421875 24.609375 -1.421875  Q 20.21875 -1.421875 15.453125 -0.5625  Q 10.6875 0.296875 5.421875 2  L 5.421875 11.28125  Q 10.40625 8.6875 15.234375 7.390625  Q 20.0625 6.109375 24.8125 6.109375  Q 31.15625 6.109375 34.5625 8.28125  Q 37.984375 10.453125 37.984375 14.40625  Q 37.984375 18.0625 35.515625 20.015625  Q 33.0625 21.96875 24.703125 23.78125  L 21.578125 24.515625  Q 13.234375 26.265625 9.515625 29.90625  Q 5.8125 33.546875 5.8125 39.890625  Q 5.8125 47.609375 11.28125 51.796875  Q 16.75 56 26.8125 56  Q 31.78125 56 36.171875 55.265625  Q 40.578125 54.546875 44.28125 53.078125  z "
               id="DejaVuSans-115" />
          </defs>
          <g
             transform="translate(17.077969 235.400781)rotate(-90)scale(0.13 -0.13)"
             id="g146">
            <use
               xlink:href="#DejaVuSans-78"
               id="use115" />
            <use
               x="74.804688"
               xlink:href="#DejaVuSans-111"
               id="use116" />
            <use
               x="135.986328"
               xlink:href="#DejaVuSans-114"
               id="use117" />
            <use
               x="175.349609"
               xlink:href="#DejaVuSans-109"
               id="use118" />
            <use
               x="272.761719"
               xlink:href="#DejaVuSans-97"
               id="use119" />
            <use
               x="334.041016"
               xlink:href="#DejaVuSans-108"
               id="use120" />
            <use
               x="361.824219"
               xlink:href="#DejaVuSans-105"
               id="use121" />
            <use
               x="389.607422"
               xlink:href="#DejaVuSans-122"
               id="use122" />
            <use
               x="442.097656"
               xlink:href="#DejaVuSans-101"
               id="use123" />
            <use
               x="503.621094"
               xlink:href="#DejaVuSans-100"
               id="use124" />
            <use
               x="567.097656"
               xlink:href="#DejaVuSans-32"
               id="use125" />
            <use
               x="598.884766"
               xlink:href="#DejaVuSans-110"
               id="use126" />
            <use
               x="662.263672"
               xlink:href="#DejaVuSans-117"
               id="use127" />
            <use
               x="725.642578"
               xlink:href="#DejaVuSans-109"
               id="use128" />
            <use
               x="823.054688"
               xlink:href="#DejaVuSans-98"
               id="use129" />
            <use
               x="886.53125"
               xlink:href="#DejaVuSans-101"
               id="use130" />
            <use
               x="948.054688"
               xlink:href="#DejaVuSans-114"
               id="use131" />
            <use
               x="989.167969"
               xlink:href="#DejaVuSans-32"
               id="use132" />
            <use
               x="1020.955078"
               xlink:href="#DejaVuSans-111"
               id="use133" />
            <use
               x="1082.136719"
               xlink:href="#DejaVuSans-102"
               id="use134" />
            <use
               x="1117.341797"
               xlink:href="#DejaVuSans-32"
               id="use135" />
            <use
               x="1149.128906"
               xlink:href="#DejaVuSans-111"
               id="use136" />
            <use
               x="1210.310547"
               xlink:href="#DejaVuSans-99"
               id="use137" />
            <use
               x="1265.291016"
               xlink:href="#DejaVuSans-99"
               id="use138" />
            <use
               x="1320.271484"
               xlink:href="#DejaVuSans-117"
               id="use139" />
            <use
               x="1383.650391"
               xlink:href="#DejaVuSans-114"
               id="use140" />
            <use
               x="1423.013672"
               xlink:href="#DejaVuSans-114"
               id="use141" />
            <use
               x="1461.876953"
               xlink:href="#DejaVuSans-101"
               id="use142" />
            <use
               x="1523.400391"
               xlink:href="#DejaVuSans-110"
               id="use143" />
            <use
               x="1586.779297"
               xlink:href="#DejaVuSans-99"
               id="use144" />
            <use
               x="1641.759766"
               xlink:href="#DejaVuSans-101"
               id="use145" />
            <use
               x="1703.283203"
               xlink:href="#DejaVuSans-115"
               id="use146" />
          </g>
        </g>
      </g>
      <g
         id="patch_33">
        <path
           d="M 46.684688 230.020391  L 46.684688 12.580391  "
           style="fill:none;stroke:#000000;stroke-linecap:square;stroke-linejoin:miter;stroke-width:0.8;"
           id="path146" />
      </g>
      <g
         id="patch_34">
        <path
           d="M 325.684687 230.020391  L 325.684687 12.580391  "
           style="fill:none;stroke:#000000;stroke-linecap:square;stroke-linejoin:miter;stroke-width:0.8;"
           id="path147" />
      </g>
      <g
         id="patch_35">
        <path
           d="M 46.684687 230.020391  L 325.684687 230.020391  "
           style="fill:none;stroke:#000000;stroke-linecap:square;stroke-linejoin:miter;stroke-width:0.8;"
           id="path148" />
      </g>
      <g
         id="patch_36">
        <path
           d="M 46.684687 12.580391  L 325.684687 12.580391  "
           style="fill:none;stroke:#000000;stroke-linecap:square;stroke-linejoin:miter;stroke-width:0.8;"
           id="path149" />
      </g>
      <g
         id="legend_1"
         transform="matrix(0.83080316,0,0,0.83080316,8.5756891,25.787589)"
         inkscape:export-filename="Figure_5_LSDn.png"
         inkscape:export-xdpi="300"
         inkscape:export-ydpi="300">
        <g
           id="patch_37">
          <path
             d="M 52.984688,182.03239 H 197.13094 q 1.8,0 1.8,-1.8 v -25.52062 q 0,-1.8 -1.8,-1.8 H 52.984688 q -1.8,0 -1.8,1.8 v 25.52062 q 0,1.8 1.8,1.8 z"
             style="opacity:0.8;fill:#ffffff;stroke:#cccccc;stroke-linejoin:miter"
             id="path150" />
        </g>
        <g
           id="patch_38">
          <path
             d="m 54.784688,163.35036 h 18 v -6.3 h -18 z"
             style="fill:#014636"
             id="path151" />
        </g>
        <g
           id="text_17">
          <!-- SF(250 kyr) : SF(50 kyr) -->
          <defs
             id="defs151">
            <path
               d="m 9.8125,72.90625 h 41.890625 v -8.3125 H 19.671875 V 43.109375 h 28.90625 V 34.8125 H 19.671875 V 0 H 9.8125 Z"
               id="DejaVuSans-70" />
            <path
               d="M 31,75.875 Q 24.46875,64.65625 21.28125,53.65625 18.109375,42.671875 18.109375,31.390625 18.109375,20.125 21.3125,9.0625 24.515625,-2 31,-13.1875 H 23.1875 Q 15.875,-1.703125 12.234375,9.375 8.59375,20.453125 8.59375,31.390625 q 0,10.890625 3.609375,21.921875 3.625,11.046875 10.984375,22.5625 z"
               id="DejaVuSans-40" />
            <path
               d="m 9.078125,75.984375 h 9.03125 v -44.875 l 26.8125,23.578125 h 11.46875 l -29,-25.578125 L 57.625,0 H 45.90625 L 18.109375,26.703125 V 0 h -9.03125 z"
               id="DejaVuSans-107" />
            <path
               d="M 32.171875,-5.078125 Q 28.375,-14.84375 24.75,-17.8125 q -3.609375,-2.984375 -9.65625,-2.984375 h -7.1875 v 7.515625 h 5.28125 q 3.703125,0 5.75,1.765625 2.0625,1.75 4.546875,8.296875 L 25.09375,0.875 2.984375,54.6875 H 12.5 L 29.59375,11.921875 46.6875,54.6875 h 9.515625 z"
               id="DejaVuSans-121" />
            <path
               d="m 8.015625,75.875 h 7.8125 q 7.3125,-11.515625 10.953125,-22.5625 3.640625,-11.03125 3.640625,-21.921875 0,-10.9375 -3.640625,-22.015625 -3.640625,-11.078125 -10.953125,-22.5625 h -7.8125 Q 14.5,-2 17.703125,9.0625 20.90625,20.125 20.90625,31.390625 q 0,11.28125 -3.203125,22.265625 -3.203125,11 -9.6875,22.21875 z"
               id="DejaVuSans-41" />
            <path
               d="M 11.71875,12.40625 H 22.015625 V 0 H 11.71875 Z m 0,39.296875 H 22.015625 V 39.3125 H 11.71875 Z"
               id="DejaVuSans-58" />
          </defs>
          <g
             transform="matrix(0.09,0,0,-0.09,79.984688,163.35036)"
             id="g174">
            <use
               xlink:href="#DejaVuSans-83"
               id="use151" />
            <use
               x="63.476562"
               xlink:href="#DejaVuSans-70"
               id="use152" />
            <use
               x="120.99609"
               xlink:href="#DejaVuSans-40"
               id="use153" />
            <use
               x="160.00977"
               xlink:href="#DejaVuSans-50"
               id="use154" />
            <use
               x="223.63281"
               xlink:href="#DejaVuSans-53"
               id="use155" />
            <use
               x="287.25586"
               xlink:href="#DejaVuSans-48"
               id="use156" />
            <use
               x="350.87891"
               xlink:href="#DejaVuSans-32"
               id="use157" />
            <use
               x="382.66602"
               xlink:href="#DejaVuSans-107"
               id="use158" />
            <use
               x="436.95117"
               xlink:href="#DejaVuSans-121"
               id="use159" />
            <use
               x="496.13086"
               xlink:href="#DejaVuSans-114"
               id="use160" />
            <use
               x="537.24414"
               xlink:href="#DejaVuSans-41"
               id="use161" />
            <use
               x="576.25781"
               xlink:href="#DejaVuSans-32"
               id="use162" />
            <use
               x="608.04492"
               xlink:href="#DejaVuSans-58"
               id="use163" />
            <use
               x="641.73633"
               xlink:href="#DejaVuSans-32"
               id="use164" />
            <use
               x="673.52344"
               xlink:href="#DejaVuSans-83"
               id="use165" />
            <use
               x="737"
               xlink:href="#DejaVuSans-70"
               id="use166" />
            <use
               x="794.51953"
               xlink:href="#DejaVuSans-40"
               id="use167" />
            <use
               x="833.5332"
               xlink:href="#DejaVuSans-53"
               id="use168" />
            <use
               x="897.15625"
               xlink:href="#DejaVuSans-48"
               id="use169" />
            <use
               x="960.7793"
               xlink:href="#DejaVuSans-32"
               id="use170" />
            <use
               x="992.56641"
               xlink:href="#DejaVuSans-107"
               id="use171" />
            <use
               x="1046.8516"
               xlink:href="#DejaVuSans-121"
               id="use172" />
            <use
               x="1106.0312"
               xlink:href="#DejaVuSans-114"
               id="use173" />
            <use
               x="1147.1445"
               xlink:href="#DejaVuSans-41"
               id="use174" />
          </g>
        </g>
        <g
           id="patch_39">
          <path
             d="m 54.784688,176.56067 h 18 v -6.3 h -18 z"
             style="opacity:0.7;fill:#3690c0"
             id="path174" />
        </g>
        <g
           id="text_18">
          <!-- SF(250 kyr): SF(1000 kyr) -->
          <g
             transform="matrix(0.09,0,0,-0.09,79.984688,176.56067)"
             id="g199">
            <use
               xlink:href="#DejaVuSans-83"
               id="use175" />
            <use
               x="63.476562"
               xlink:href="#DejaVuSans-70"
               id="use176" />
            <use
               x="120.99609"
               xlink:href="#DejaVuSans-40"
               id="use177" />
            <use
               x="160.00977"
               xlink:href="#DejaVuSans-50"
               id="use178" />
            <use
               x="223.63281"
               xlink:href="#DejaVuSans-53"
               id="use179" />
            <use
               x="287.25586"
               xlink:href="#DejaVuSans-48"
               id="use180" />
            <use
               x="350.87891"
               xlink:href="#DejaVuSans-32"
               id="use181" />
            <use
               x="382.66602"
               xlink:href="#DejaVuSans-107"
               id="use182" />
            <use
               x="436.95117"
               xlink:href="#DejaVuSans-121"
               id="use183" />
            <use
               x="496.13086"
               xlink:href="#DejaVuSans-114"
               id="use184" />
            <use
               x="537.24414"
               xlink:href="#DejaVuSans-41"
               id="use185" />
            <use
               x="576.25781"
               xlink:href="#DejaVuSans-58"
               id="use186" />
            <use
               x="609.94922"
               xlink:href="#DejaVuSans-32"
               id="use187" />
            <use
               x="641.73633"
               xlink:href="#DejaVuSans-83"
               id="use188" />
            <use
               x="705.21289"
               xlink:href="#DejaVuSans-70"
               id="use189" />
            <use
               x="762.73242"
               xlink:href="#DejaVuSans-40"
               id="use190" />
            <use
               x="801.74609"
               xlink:href="#DejaVuSans-49"
               id="use191" />
            <use
               x="865.36914"
               xlink:href="#DejaVuSans-48"
               id="use192" />
            <use
               x="928.99219"
               xlink:href="#DejaVuSans-48"
               id="use193" />
            <use
               x="992.61523"
               xlink:href="#DejaVuSans-48"
               id="use194" />
            <use
               x="1056.2383"
               xlink:href="#DejaVuSans-32"
               id="use195" />
            <use
               x="1088.0254"
               xlink:href="#DejaVuSans-107"
               id="use196" />
            <use
               x="1142.3105"
               xlink:href="#DejaVuSans-121"
               id="use197" />
            <use
               x="1201.4902"
               xlink:href="#DejaVuSans-114"
               id="use198" />
            <use
               x="1242.6035"
               xlink:href="#DejaVuSans-41"
               id="use199" />
          </g>
        </g>
      </g>
    </g>
  </g>
  <defs
     id="defs199">
    <clipPath
       id="pc6f2a2b7f8">
      <rect
         height="217.44"
         width="279"
         x="46.684688"
         y="12.580391"
         id="rect199" />
    </clipPath>
  </defs>
</svg>
