<?xml version="1.0" encoding="UTF-8" standalone="no"?>
<svg
   xmlns:dc="http://purl.org/dc/elements/1.1/"
   xmlns:cc="http://creativecommons.org/ns#"
   xmlns:rdf="http://www.w3.org/1999/02/22-rdf-syntax-ns#"
   xmlns:svg="http://www.w3.org/2000/svg"
   xmlns="http://www.w3.org/2000/svg"
   xmlns:xlink="http://www.w3.org/1999/xlink"
   xmlns:sodipodi="http://sodipodi.sourceforge.net/DTD/sodipodi-0.dtd"
   xmlns:inkscape="http://www.inkscape.org/namespaces/inkscape"
   height="352.138594pt"
   version="1.1"
   viewBox="0 0 655.8025 352.138594"
   width="655.8025pt"
   id="svg1650"
   sodipodi:docname="Figure_2_inkscape.svg"
   inkscape:version="1.0.1 (c497b03c, 2020-09-10)">
  <metadata
     id="metadata1654">
    <rdf:RDF>
      <cc:Work
         rdf:about="">
        <dc:format>image/svg+xml</dc:format>
        <dc:type
           rdf:resource="http://purl.org/dc/dcmitype/StillImage" />
        <dc:title />
      </cc:Work>
    </rdf:RDF>
  </metadata>
  <sodipodi:namedview
     pagecolor="#ffffff"
     bordercolor="#666666"
     borderopacity="1"
     objecttolerance="10"
     gridtolerance="10"
     guidetolerance="10"
     inkscape:pageopacity="0"
     inkscape:pageshadow="2"
     inkscape:window-width="1920"
     inkscape:window-height="1009"
     id="namedview1652"
     showgrid="false"
     inkscape:zoom="1.1408111"
     inkscape:cx="557.77429"
     inkscape:cy="215.86747"
     inkscape:window-x="1440"
     inkscape:window-y="23"
     inkscape:window-maximized="0"
     inkscape:current-layer="svg1650"
     inkscape:document-rotation="0" />
  <defs
     id="defs835">
    <style
       type="text/css"
       id="style833">
*{stroke-linecap:butt;stroke-linejoin:round;}
  </style>
  </defs>
  <g
     id="figure_1"
     inkscape:export-xdpi="300"
     inkscape:export-ydpi="300"
     inkscape:export-filename="/Users/mmijjum/Desktop/Manuscripts/SPRITE manuscript/Figure_2_updated.png">
    <g
       id="patch_1">
      <path
         d="M 0 352.138594  L 655.8025 352.138594  L 655.8025 -0  L 0 -0  z "
         style="fill:#ffffff;"
         id="path837" />
    </g>
    <g
       id="axes_1">
      <g
         id="patch_2">
        <path
           d="M 56.34 143.1  L 642.24 143.1  L 642.24 7.2  L 56.34 7.2  z "
           style="fill:#ffffff;"
           id="path840" />
      </g>
      <g
         id="patch_3">
        <path
           clip-path="url(#pb4daef2475)"
           d="M 56.34 25.469561  L 56.34 13.377273  L 642.24 13.377273  L 642.24 25.469561  z "
           style="fill:#808080;opacity:0.5;stroke:#808080;stroke-linejoin:miter;"
           id="path843" />
      </g>
      <g
         id="matplotlib.axis_1">
        <g
           id="xtick_1">
          <g
             id="line2d_1">
            <defs
               id="defs847">
              <path
                 d="M 0 0  L 0 3.5  "
                 id="m9d6337bca5"
                 style="stroke:#000000;stroke-width:0.8;" />
            </defs>
            <g
               id="g851">
              <use
                 style="stroke:#000000;stroke-width:0.8;"
                 x="56.34"
                 xlink:href="#m9d6337bca5"
                 y="143.1"
                 id="use849" />
            </g>
          </g>
          <g
             id="text_1">
            <!-- 0 -->
            <defs
               id="defs855">
              <path
                 d="M 31.78125 66.40625  Q 24.171875 66.40625 20.328125 58.90625  Q 16.5 51.421875 16.5 36.375  Q 16.5 21.390625 20.328125 13.890625  Q 24.171875 6.390625 31.78125 6.390625  Q 39.453125 6.390625 43.28125 13.890625  Q 47.125 21.390625 47.125 36.375  Q 47.125 51.421875 43.28125 58.90625  Q 39.453125 66.40625 31.78125 66.40625  z M 31.78125 74.21875  Q 44.046875 74.21875 50.515625 64.515625  Q 56.984375 54.828125 56.984375 36.375  Q 56.984375 17.96875 50.515625 8.265625  Q 44.046875 -1.421875 31.78125 -1.421875  Q 19.53125 -1.421875 13.0625 8.265625  Q 6.59375 17.96875 6.59375 36.375  Q 6.59375 54.828125 13.0625 64.515625  Q 19.53125 74.21875 31.78125 74.21875  z "
                 id="DejaVuSans-48" />
            </defs>
            <g
               transform="translate(53.15875 157.698437)scale(0.1 -0.1)"
               id="g859">
              <use
                 xlink:href="#DejaVuSans-48"
                 id="use857" />
            </g>
          </g>
        </g>
        <g
           id="xtick_2">
          <g
             id="line2d_2">
            <g
               id="g865">
              <use
                 style="stroke:#000000;stroke-width:0.8;"
                 x="140.04"
                 xlink:href="#m9d6337bca5"
                 y="143.1"
                 id="use863" />
            </g>
          </g>
          <g
             id="text_2">
            <!-- 10 -->
            <defs
               id="defs869">
              <path
                 d="M 12.40625 8.296875  L 28.515625 8.296875  L 28.515625 63.921875  L 10.984375 60.40625  L 10.984375 69.390625  L 28.421875 72.90625  L 38.28125 72.90625  L 38.28125 8.296875  L 54.390625 8.296875  L 54.390625 0  L 12.40625 0  z "
                 id="DejaVuSans-49" />
            </defs>
            <g
               transform="translate(133.6775 157.698437)scale(0.1 -0.1)"
               id="g875">
              <use
                 xlink:href="#DejaVuSans-49"
                 id="use871" />
              <use
                 x="63.623047"
                 xlink:href="#DejaVuSans-48"
                 id="use873" />
            </g>
          </g>
        </g>
        <g
           id="xtick_3">
          <g
             id="line2d_3">
            <g
               id="g881">
              <use
                 style="stroke:#000000;stroke-width:0.8;"
                 x="223.74"
                 xlink:href="#m9d6337bca5"
                 y="143.1"
                 id="use879" />
            </g>
          </g>
          <g
             id="text_3">
            <!-- 20 -->
            <defs
               id="defs885">
              <path
                 d="M 19.1875 8.296875  L 53.609375 8.296875  L 53.609375 0  L 7.328125 0  L 7.328125 8.296875  Q 12.9375 14.109375 22.625 23.890625  Q 32.328125 33.6875 34.8125 36.53125  Q 39.546875 41.84375 41.421875 45.53125  Q 43.3125 49.21875 43.3125 52.78125  Q 43.3125 58.59375 39.234375 62.25  Q 35.15625 65.921875 28.609375 65.921875  Q 23.96875 65.921875 18.8125 64.3125  Q 13.671875 62.703125 7.8125 59.421875  L 7.8125 69.390625  Q 13.765625 71.78125 18.9375 73  Q 24.125 74.21875 28.421875 74.21875  Q 39.75 74.21875 46.484375 68.546875  Q 53.21875 62.890625 53.21875 53.421875  Q 53.21875 48.921875 51.53125 44.890625  Q 49.859375 40.875 45.40625 35.40625  Q 44.1875 33.984375 37.640625 27.21875  Q 31.109375 20.453125 19.1875 8.296875  z "
                 id="DejaVuSans-50" />
            </defs>
            <g
               transform="translate(217.3775 157.698437)scale(0.1 -0.1)"
               id="g891">
              <use
                 xlink:href="#DejaVuSans-50"
                 id="use887" />
              <use
                 x="63.623047"
                 xlink:href="#DejaVuSans-48"
                 id="use889" />
            </g>
          </g>
        </g>
        <g
           id="xtick_4">
          <g
             id="line2d_4">
            <g
               id="g897">
              <use
                 style="stroke:#000000;stroke-width:0.8;"
                 x="307.44"
                 xlink:href="#m9d6337bca5"
                 y="143.1"
                 id="use895" />
            </g>
          </g>
          <g
             id="text_4">
            <!-- 30 -->
            <defs
               id="defs901">
              <path
                 d="M 40.578125 39.3125  Q 47.65625 37.796875 51.625 33  Q 55.609375 28.21875 55.609375 21.1875  Q 55.609375 10.40625 48.1875 4.484375  Q 40.765625 -1.421875 27.09375 -1.421875  Q 22.515625 -1.421875 17.65625 -0.515625  Q 12.796875 0.390625 7.625 2.203125  L 7.625 11.71875  Q 11.71875 9.328125 16.59375 8.109375  Q 21.484375 6.890625 26.8125 6.890625  Q 36.078125 6.890625 40.9375 10.546875  Q 45.796875 14.203125 45.796875 21.1875  Q 45.796875 27.640625 41.28125 31.265625  Q 36.765625 34.90625 28.71875 34.90625  L 20.21875 34.90625  L 20.21875 43.015625  L 29.109375 43.015625  Q 36.375 43.015625 40.234375 45.921875  Q 44.09375 48.828125 44.09375 54.296875  Q 44.09375 59.90625 40.109375 62.90625  Q 36.140625 65.921875 28.71875 65.921875  Q 24.65625 65.921875 20.015625 65.03125  Q 15.375 64.15625 9.8125 62.3125  L 9.8125 71.09375  Q 15.4375 72.65625 20.34375 73.4375  Q 25.25 74.21875 29.59375 74.21875  Q 40.828125 74.21875 47.359375 69.109375  Q 53.90625 64.015625 53.90625 55.328125  Q 53.90625 49.265625 50.4375 45.09375  Q 46.96875 40.921875 40.578125 39.3125  z "
                 id="DejaVuSans-51" />
            </defs>
            <g
               transform="translate(301.0775 157.698437)scale(0.1 -0.1)"
               id="g907">
              <use
                 xlink:href="#DejaVuSans-51"
                 id="use903" />
              <use
                 x="63.623047"
                 xlink:href="#DejaVuSans-48"
                 id="use905" />
            </g>
          </g>
        </g>
        <g
           id="xtick_5">
          <g
             id="line2d_5">
            <g
               id="g913">
              <use
                 style="stroke:#000000;stroke-width:0.8;"
                 x="391.14"
                 xlink:href="#m9d6337bca5"
                 y="143.1"
                 id="use911" />
            </g>
          </g>
          <g
             id="text_5">
            <!-- 40 -->
            <defs
               id="defs917">
              <path
                 d="M 37.796875 64.3125  L 12.890625 25.390625  L 37.796875 25.390625  z M 35.203125 72.90625  L 47.609375 72.90625  L 47.609375 25.390625  L 58.015625 25.390625  L 58.015625 17.1875  L 47.609375 17.1875  L 47.609375 0  L 37.796875 0  L 37.796875 17.1875  L 4.890625 17.1875  L 4.890625 26.703125  z "
                 id="DejaVuSans-52" />
            </defs>
            <g
               transform="translate(384.7775 157.698437)scale(0.1 -0.1)"
               id="g923">
              <use
                 xlink:href="#DejaVuSans-52"
                 id="use919" />
              <use
                 x="63.623047"
                 xlink:href="#DejaVuSans-48"
                 id="use921" />
            </g>
          </g>
        </g>
        <g
           id="xtick_6">
          <g
             id="line2d_6">
            <g
               id="g929">
              <use
                 style="stroke:#000000;stroke-width:0.8;"
                 x="474.84"
                 xlink:href="#m9d6337bca5"
                 y="143.1"
                 id="use927" />
            </g>
          </g>
          <g
             id="text_6">
            <!-- 50 -->
            <defs
               id="defs933">
              <path
                 d="M 10.796875 72.90625  L 49.515625 72.90625  L 49.515625 64.59375  L 19.828125 64.59375  L 19.828125 46.734375  Q 21.96875 47.46875 24.109375 47.828125  Q 26.265625 48.1875 28.421875 48.1875  Q 40.625 48.1875 47.75 41.5  Q 54.890625 34.8125 54.890625 23.390625  Q 54.890625 11.625 47.5625 5.09375  Q 40.234375 -1.421875 26.90625 -1.421875  Q 22.3125 -1.421875 17.546875 -0.640625  Q 12.796875 0.140625 7.71875 1.703125  L 7.71875 11.625  Q 12.109375 9.234375 16.796875 8.0625  Q 21.484375 6.890625 26.703125 6.890625  Q 35.15625 6.890625 40.078125 11.328125  Q 45.015625 15.765625 45.015625 23.390625  Q 45.015625 31 40.078125 35.4375  Q 35.15625 39.890625 26.703125 39.890625  Q 22.75 39.890625 18.8125 39.015625  Q 14.890625 38.140625 10.796875 36.28125  z "
                 id="DejaVuSans-53" />
            </defs>
            <g
               transform="translate(468.4775 157.698437)scale(0.1 -0.1)"
               id="g939">
              <use
                 xlink:href="#DejaVuSans-53"
                 id="use935" />
              <use
                 x="63.623047"
                 xlink:href="#DejaVuSans-48"
                 id="use937" />
            </g>
          </g>
        </g>
        <g
           id="xtick_7">
          <g
             id="line2d_7">
            <g
               id="g945">
              <use
                 style="stroke:#000000;stroke-width:0.8;"
                 x="558.54"
                 xlink:href="#m9d6337bca5"
                 y="143.1"
                 id="use943" />
            </g>
          </g>
          <g
             id="text_7">
            <!-- 60 -->
            <defs
               id="defs949">
              <path
                 d="M 33.015625 40.375  Q 26.375 40.375 22.484375 35.828125  Q 18.609375 31.296875 18.609375 23.390625  Q 18.609375 15.53125 22.484375 10.953125  Q 26.375 6.390625 33.015625 6.390625  Q 39.65625 6.390625 43.53125 10.953125  Q 47.40625 15.53125 47.40625 23.390625  Q 47.40625 31.296875 43.53125 35.828125  Q 39.65625 40.375 33.015625 40.375  z M 52.59375 71.296875  L 52.59375 62.3125  Q 48.875 64.0625 45.09375 64.984375  Q 41.3125 65.921875 37.59375 65.921875  Q 27.828125 65.921875 22.671875 59.328125  Q 17.53125 52.734375 16.796875 39.40625  Q 19.671875 43.65625 24.015625 45.921875  Q 28.375 48.1875 33.59375 48.1875  Q 44.578125 48.1875 50.953125 41.515625  Q 57.328125 34.859375 57.328125 23.390625  Q 57.328125 12.15625 50.6875 5.359375  Q 44.046875 -1.421875 33.015625 -1.421875  Q 20.359375 -1.421875 13.671875 8.265625  Q 6.984375 17.96875 6.984375 36.375  Q 6.984375 53.65625 15.1875 63.9375  Q 23.390625 74.21875 37.203125 74.21875  Q 40.921875 74.21875 44.703125 73.484375  Q 48.484375 72.75 52.59375 71.296875  z "
                 id="DejaVuSans-54" />
            </defs>
            <g
               transform="translate(552.1775 157.698437)scale(0.1 -0.1)"
               id="g955">
              <use
                 xlink:href="#DejaVuSans-54"
                 id="use951" />
              <use
                 x="63.623047"
                 xlink:href="#DejaVuSans-48"
                 id="use953" />
            </g>
          </g>
        </g>
        <g
           id="xtick_8">
          <g
             id="line2d_8">
            <g
               id="g961">
              <use
                 style="stroke:#000000;stroke-width:0.8;"
                 x="642.24"
                 xlink:href="#m9d6337bca5"
                 y="143.1"
                 id="use959" />
            </g>
          </g>
          <g
             id="text_8">
            <!-- 70 -->
            <defs
               id="defs965">
              <path
                 d="M 8.203125 72.90625  L 55.078125 72.90625  L 55.078125 68.703125  L 28.609375 0  L 18.3125 0  L 43.21875 64.59375  L 8.203125 64.59375  z "
                 id="DejaVuSans-55" />
            </defs>
            <g
               transform="translate(635.8775 157.698437)scale(0.1 -0.1)"
               id="g971">
              <use
                 xlink:href="#DejaVuSans-55"
                 id="use967" />
              <use
                 x="63.623047"
                 xlink:href="#DejaVuSans-48"
                 id="use969" />
            </g>
          </g>
        </g>
      </g>
      <g
         id="matplotlib.axis_2">
        <g
           id="ytick_1">
          <g
             id="line2d_9">
            <defs
               id="defs977">
              <path
                 d="M 0 0  L -3.5 0  "
                 id="m86c9cc8124"
                 style="stroke:#000000;stroke-width:0.8;" />
            </defs>
            <g
               id="g981">
              <use
                 style="stroke:#000000;stroke-width:0.8;"
                 x="56.34"
                 xlink:href="#m86c9cc8124"
                 y="139.137073"
                 id="use979" />
            </g>
          </g>
          <g
             id="text_9">
            <!-- −1.5 -->
            <defs
               id="defs986">
              <path
                 d="M 10.59375 35.5  L 73.1875 35.5  L 73.1875 27.203125  L 10.59375 27.203125  z "
                 id="DejaVuSans-8722" />
              <path
                 d="M 10.6875 12.40625  L 21 12.40625  L 21 0  L 10.6875 0  z "
                 id="DejaVuSans-46" />
            </defs>
            <g
               transform="translate(25.057187 142.936292)scale(0.1 -0.1)"
               id="g996">
              <use
                 xlink:href="#DejaVuSans-8722"
                 id="use988" />
              <use
                 x="83.789062"
                 xlink:href="#DejaVuSans-49"
                 id="use990" />
              <use
                 x="147.412109"
                 xlink:href="#DejaVuSans-46"
                 id="use992" />
              <use
                 x="179.199219"
                 xlink:href="#DejaVuSans-53"
                 id="use994" />
            </g>
          </g>
        </g>
        <g
           id="ytick_2">
          <g
             id="line2d_10">
            <g
               id="g1002">
              <use
                 style="stroke:#000000;stroke-width:0.8;"
                 x="56.34"
                 xlink:href="#m86c9cc8124"
                 y="114.952496"
                 id="use1000" />
            </g>
          </g>
          <g
             id="text_10">
            <!-- −1.0 -->
            <g
               transform="translate(25.057187 118.751715)scale(0.1 -0.1)"
               id="g1013">
              <use
                 xlink:href="#DejaVuSans-8722"
                 id="use1005" />
              <use
                 x="83.789062"
                 xlink:href="#DejaVuSans-49"
                 id="use1007" />
              <use
                 x="147.412109"
                 xlink:href="#DejaVuSans-46"
                 id="use1009" />
              <use
                 x="179.199219"
                 xlink:href="#DejaVuSans-48"
                 id="use1011" />
            </g>
          </g>
        </g>
        <g
           id="ytick_3">
          <g
             id="line2d_11">
            <g
               id="g1019">
              <use
                 style="stroke:#000000;stroke-width:0.8;"
                 x="56.34"
                 xlink:href="#m86c9cc8124"
                 y="90.767919"
                 id="use1017" />
            </g>
          </g>
          <g
             id="text_11">
            <!-- −0.5 -->
            <g
               transform="translate(25.057187 94.567138)scale(0.1 -0.1)"
               id="g1030">
              <use
                 xlink:href="#DejaVuSans-8722"
                 id="use1022" />
              <use
                 x="83.789062"
                 xlink:href="#DejaVuSans-48"
                 id="use1024" />
              <use
                 x="147.412109"
                 xlink:href="#DejaVuSans-46"
                 id="use1026" />
              <use
                 x="179.199219"
                 xlink:href="#DejaVuSans-53"
                 id="use1028" />
            </g>
          </g>
        </g>
        <g
           id="ytick_4">
          <g
             id="line2d_12">
            <g
               id="g1036">
              <use
                 style="stroke:#000000;stroke-width:0.8;"
                 x="56.34"
                 xlink:href="#m86c9cc8124"
                 y="66.583342"
                 id="use1034" />
            </g>
          </g>
          <g
             id="text_12">
            <!-- 0.0 -->
            <g
               transform="translate(33.436875 70.382561)scale(0.1 -0.1)"
               id="g1045">
              <use
                 xlink:href="#DejaVuSans-48"
                 id="use1039" />
              <use
                 x="63.623047"
                 xlink:href="#DejaVuSans-46"
                 id="use1041" />
              <use
                 x="95.410156"
                 xlink:href="#DejaVuSans-48"
                 id="use1043" />
            </g>
          </g>
        </g>
        <g
           id="ytick_5">
          <g
             id="line2d_13">
            <g
               id="g1051">
              <use
                 style="stroke:#000000;stroke-width:0.8;"
                 x="56.34"
                 xlink:href="#m86c9cc8124"
                 y="42.398765"
                 id="use1049" />
            </g>
          </g>
          <g
             id="text_13">
            <!-- 0.5 -->
            <g
               transform="translate(33.436875 46.197984)scale(0.1 -0.1)"
               id="g1060">
              <use
                 xlink:href="#DejaVuSans-48"
                 id="use1054" />
              <use
                 x="63.623047"
                 xlink:href="#DejaVuSans-46"
                 id="use1056" />
              <use
                 x="95.410156"
                 xlink:href="#DejaVuSans-53"
                 id="use1058" />
            </g>
          </g>
        </g>
        <g
           id="ytick_6">
          <g
             id="line2d_14">
            <g
               id="g1066">
              <use
                 style="stroke:#000000;stroke-width:0.8;"
                 x="56.34"
                 xlink:href="#m86c9cc8124"
                 y="18.214188"
                 id="use1064" />
            </g>
          </g>
          <g
             id="text_14">
            <!-- 1.0 -->
            <g
               transform="translate(33.436875 22.013407)scale(0.1 -0.1)"
               id="g1075">
              <use
                 xlink:href="#DejaVuSans-49"
                 id="use1069" />
              <use
                 x="63.623047"
                 xlink:href="#DejaVuSans-46"
                 id="use1071" />
              <use
                 x="95.410156"
                 xlink:href="#DejaVuSans-48"
                 id="use1073" />
            </g>
          </g>
        </g>
      </g>
      <g
         id="line2d_15">
        <path
           clip-path="url(#pb4daef2475)"
           d="M 56.34 18.214188  L 64.71 18.214188  L 66.8025 20.266808  L 73.08 20.266808  L 75.1725 20.728927  L 81.45 20.728927  L 83.5425 21.298234  L 89.82 21.298234  L 91.9125 21.892425  L 98.19 21.892425  L 100.2825 22.484358  L 106.56 22.484358  L 108.6525 23.07952  L 114.93 23.07952  L 117.0225 23.679927  L 123.3 23.679927  L 125.3925 24.290839  L 131.67 24.290839  L 133.7625 24.893479  L 140.04 24.893479  L 142.1325 25.491495  L 148.41 25.491495  L 150.5025 26.091536  L 156.78 26.091536  L 158.8725 26.82191  L 165.15 26.82191  L 167.2425 27.552823  L 173.52 27.552823  L 175.6125 28.242041  L 181.89 28.242041  L 183.9825 28.730302  L 190.26 28.730302  L 192.3525 29.225273  L 198.63 29.225273  L 200.7225 29.70635  L 207 29.70635  L 209.0925 30.219978  L 215.37 30.219978  L 217.4625 30.950029  L 223.74 30.950029  L 225.8325 32.043485  L 232.11 32.043485  L 234.2025 33.160199  L 240.48 33.160199  L 242.5725 34.278115  L 248.85 34.278115  L 250.9425 35.407285  L 257.22 35.407285  L 259.3125 36.535118  L 265.59 36.535118  L 267.6825 37.67208  L 273.96 37.67208  L 276.0525 41.462967  L 282.33 41.462967  L 284.4225 45.277253  L 290.7 45.277253  L 292.7925 49.066944  L 299.07 49.066944  L 301.1625 52.881854  L 307.44 52.881854  L 309.5325 53.4344  L 315.81 53.4344  L 317.9025 53.190567  L 324.18 53.190567  L 326.2725 52.965898  L 332.55 52.965898  L 334.6425 52.831512  L 340.92 52.831512  L 343.0125 52.979678  L 349.29 52.979678  L 351.3825 53.102068  L 357.66 53.102068  L 359.7525 53.247983  L 366.03 53.247983  L 368.1225 53.39277  L 374.4 53.39277  L 376.4925 53.535193  L 382.77 53.535193  L 384.8625 54.514995  L 391.14 54.514995  L 393.2325 55.520096  L 399.51 55.520096  L 401.6025 56.528885  L 407.88 56.528885  L 409.9725 57.521067  L 416.25 57.521067  L 418.3425 58.50547  L 424.62 58.50547  L 426.7125 59.501316  L 432.99 59.501316  L 435.0825 60.518651  L 441.36 60.518651  L 443.4525 62.027462  L 449.73 62.027462  L 451.8225 63.873399  L 458.1 63.873399  L 460.1925 65.693806  L 466.47 65.693806  L 468.5625 67.692942  L 474.84 67.692942  L 476.9325 70.928487  L 483.21 70.928487  L 485.3025 74.163042  L 491.58 74.163042  L 493.6725 77.395063  L 499.95 77.395063  L 502.0425 80.65084  L 508.32 80.65084  L 510.4125 83.883201  L 516.69 83.883201  L 518.7825 87.929791  L 525.06 87.929791  L 527.1525 91.952361  L 533.43 91.952361  L 535.5225 95.996557  L 541.8 95.996557  L 543.8925 100.032635  L 550.17 100.032635  L 552.2625 104.042298  L 558.54 104.042298  L 560.6325 108.484858  L 566.91 108.484858  L 569.0025 113.895728  L 575.28 113.895728  L 577.3725 119.247865  L 583.65 119.247865  L 585.7425 124.574855  L 592.02 124.574855  L 594.1125 127.140441  L 600.39 127.140441  L 602.4825 129.692492  L 608.76 129.692492  L 610.8525 132.232028  L 617.13 132.232028  L 619.2225 134.762178  L 625.5 134.762178  L 627.5925 136.104786  L 633.87 136.104786  L 635.9625 136.922727  L 642.24 136.922727  L 642.24 136.922727  "
           style="fill:none;stroke:#081d58;stroke-linecap:square;stroke-width:2.5;stroke-opacity:1"
           id="path1080" />
      </g>
      <g
         id="line2d_16">
        <path
           clip-path="url(#pb4daef2475)"
           d="M 56.34 18.214188  L 64.71 18.214188  L 66.8025 19.08246  L 73.08 19.08246  L 75.1725 19.493995  L 81.45 19.493995  L 83.5425 19.645602  L 89.82 19.645602  L 91.9125 19.770342  L 98.19 19.770342  L 100.2825 19.899684  L 106.56 19.899684  L 108.6525 20.027508  L 114.93 20.027508  L 117.0225 20.15436  L 123.3 20.15436  L 125.3925 20.27994  L 131.67 20.27994  L 133.7625 20.404604  L 140.04 20.404604  L 142.1325 20.534442  L 148.41 20.534442  L 150.5025 20.669295  L 156.78 20.669295  L 158.8725 20.897245  L 165.15 20.897245  L 167.2425 21.118836  L 173.52 21.118836  L 175.6125 21.3785  L 181.89 21.3785  L 183.9825 21.751005  L 190.26 21.751005  L 192.3525 22.126027  L 198.63 22.126027  L 200.7225 22.498436  L 207 22.498436  L 209.0925 22.87459  L 215.37 22.87459  L 217.4625 23.012445  L 223.74 23.012445  L 225.8325 22.799646  L 232.11 22.799646  L 234.2025 22.584632  L 240.48 22.584632  L 242.5725 22.373229  L 248.85 22.373229  L 250.9425 22.158967  L 257.22 22.158967  L 259.3125 21.947545  L 265.59 21.947545  L 267.6825 21.73255  L 273.96 21.73255  L 276.0525 21.911877  L 282.33 21.911877  L 284.4225 22.120906  L 290.7 22.120906  L 292.7925 22.359624  L 299.07 22.359624  L 301.1625 22.624916  L 307.44 22.624916  L 309.5325 22.815416  L 315.81 22.815416  L 317.9025 22.984582  L 324.18 22.984582  L 326.2725 23.159771  L 332.55 23.159771  L 334.6425 23.380497  L 340.92 23.380497  L 343.0125 23.729924  L 349.29 23.729924  L 351.3825 24.086283  L 357.66 24.086283  L 359.7525 24.439594  L 366.03 24.439594  L 368.1225 24.796522  L 374.4 24.796522  L 376.4925 25.151387  L 382.77 25.151387  L 384.8625 25.016199  L 391.14 25.016199  L 393.2325 24.874504  L 399.51 24.874504  L 401.6025 24.739274  L 407.88 24.739274  L 409.9725 24.60341  L 416.25 24.60341  L 418.3425 24.467752  L 424.62 24.467752  L 426.7125 24.325667  L 432.99 24.325667  L 435.0825 24.189636  L 458.1 24.294075  L 462.285 24.393198  L 474.84 24.492248  L 476.9325 24.615202  L 483.21 24.615202  L 485.3025 24.742735  L 491.58 24.742735  L 493.6725 24.880261  L 499.95 24.880261  L 502.0425 25.01744  L 508.32 25.01744  L 510.4125 25.165482  L 516.69 25.165482  L 518.7825 25.289904  L 525.06 25.289904  L 527.1525 25.419462  L 533.43 25.419462  L 535.5225 25.555513  L 541.8 25.555513  L 543.8925 25.697325  L 550.17 25.697325  L 552.2625 25.845461  L 583.65 25.756593  L 589.9275 25.705593  L 617.13 25.594956  L 623.4075 25.555688  L 642.24 25.586871  L 642.24 25.586871  "
           style="fill:none;stroke:#c7e9b4;stroke-linecap:square;stroke-width:2.5;stroke-opacity:1"
           id="path1083" />
      </g>
      <g
         id="line2d_17">
        <path
           clip-path="url(#pb4daef2475)"
           d="M 56.34 18.214188  L 64.71 18.214188  L 66.8025 18.641308  L 73.08 18.641308  L 75.1725 19.035425  L 81.45 19.035425  L 83.5425 19.215382  L 89.82 19.215382  L 91.9125 19.376677  L 98.19 19.376677  L 100.2825 19.536242  L 106.56 19.536242  L 108.6525 19.698593  L 114.93 19.698593  L 117.0225 19.854931  L 123.3 19.854931  L 125.3925 20.015286  L 131.67 20.015286  L 133.7625 20.175426  L 140.04 20.175426  L 142.1325 20.335744  L 148.41 20.335744  L 150.5025 20.494216  L 156.78 20.494216  L 158.8725 20.670555  L 165.15 20.670555  L 167.2425 20.852262  L 173.52 20.852262  L 175.6125 21.066667  L 181.89 21.066667  L 183.9825 21.452732  L 190.26 21.452732  L 192.3525 21.836563  L 198.63 21.836563  L 200.7225 22.2259  L 207 22.2259  L 209.0925 22.607474  L 215.37 22.607474  L 217.4625 22.751888  L 223.74 22.751888  L 225.8325 22.543756  L 232.11 22.543756  L 234.2025 22.334939  L 240.48 22.334939  L 242.5725 22.124937  L 248.85 22.124937  L 250.9425 21.913754  L 257.22 21.913754  L 259.3125 21.700801  L 265.59 21.700801  L 267.6825 21.492886  L 273.96 21.492886  L 276.0525 21.242089  L 282.33 21.242089  L 284.4225 20.993258  L 290.7 20.993258  L 292.7925 20.734963  L 299.07 20.734963  L 301.1625 20.473206  L 307.44 20.473206  L 309.5325 20.646849  L 315.81 20.646849  L 317.9025 20.927588  L 324.18 20.927588  L 326.2725 21.212219  L 332.55 21.212219  L 334.6425 21.540596  L 340.92 21.540596  L 343.0125 21.985517  L 349.29 21.985517  L 351.3825 22.431892  L 357.66 22.431892  L 359.7525 22.874877  L 366.03 22.874877  L 368.1225 23.322807  L 374.4 23.322807  L 376.4925 23.764691  L 391.14 23.676062  L 395.325 23.5829  L 407.88 23.490543  L 412.065 23.392586  L 424.62 23.301275  L 428.805 23.20321  L 441.36 23.110866  L 445.545 23.043947  L 466.47 22.945994  L 470.655 22.882275  L 474.84 22.882275  L 476.9325 22.683963  L 483.21 22.683963  L 485.3025 22.488125  L 491.58 22.488125  L 493.6725 22.287064  L 499.95 22.287064  L 502.0425 22.086663  L 508.32 22.086663  L 510.4125 21.886584  L 516.69 21.886584  L 518.7825 21.641752  L 525.06 21.641752  L 527.1525 21.402824  L 533.43 21.402824  L 535.5225 21.15874  L 541.8 21.15874  L 543.8925 20.914609  L 550.17 20.914609  L 552.2625 20.667672  L 558.54 20.667672  L 560.6325 20.299433  L 566.91 20.299433  L 569.0025 19.650321  L 575.28 19.650321  L 577.3725 18.998894  L 583.65 18.998894  L 585.7425 18.347493  L 592.02 18.347493  L 594.1125 18.22979  L 600.39 18.22979  L 602.4825 18.113528  L 608.76 18.113528  L 610.8525 17.995449  L 617.13 17.995449  L 619.2225 17.878434  L 625.5 17.878434  L 627.5925 18.05134  L 633.87 18.05134  L 635.9625 18.346771  L 642.24 18.346771  L 642.24 18.346771  "
           style="fill:none;stroke:#225ea8;stroke-linecap:square;stroke-width:2.5;stroke-opacity:1"
           id="path1086" />
      </g>
      <g
         id="line2d_18">
        <path
           clip-path="url(#pb4daef2475)"
           d="M 56.34 18.214188  L 64.71 18.214188  L 66.8025 19.057536  L 73.08 19.057536  L 75.1725 19.268412  L 89.82 19.33006  L 96.0975 19.381626  L 106.56 19.437848  L 110.745 19.493515  L 131.67 19.599135  L 137.9475 19.653769  L 148.41 19.708245  L 152.595 19.768844  L 156.78 19.768844  L 158.8725 19.899214  L 165.15 19.899214  L 167.2425 20.034515  L 173.52 20.034515  L 175.6125 20.180249  L 181.89 20.180249  L 183.9825 20.385122  L 190.26 20.385122  L 192.3525 20.58852  L 198.63 20.58852  L 200.7225 20.790925  L 207 20.790925  L 209.0925 20.991868  L 265.59 20.890345  L 271.8675 20.847892  L 273.96 20.847892  L 276.0525 21.440823  L 282.33 21.440823  L 284.4225 22.033403  L 290.7 22.033403  L 292.7925 22.622513  L 299.07 22.622513  L 301.1625 23.214958  L 307.44 23.214958  L 309.5325 23.354074  L 332.55 23.416127  L 336.735 23.483032  L 340.92 23.483032  L 343.0125 23.636151  L 349.29 23.636151  L 351.3825 23.786761  L 357.66 23.786761  L 359.7525 23.935353  L 366.03 23.935353  L 368.1225 24.087854  L 374.4 24.087854  L 376.4925 24.239496  L 382.77 24.239496  L 384.8625 24.116425  L 391.14 24.116425  L 393.2325 23.996382  L 399.51 23.996382  L 401.6025 23.873624  L 407.88 23.873624  L 409.9725 23.748162  L 416.25 23.748162  L 418.3425 23.625076  L 424.62 23.625076  L 426.7125 23.504295  L 432.99 23.504295  L 435.0825 23.380177  L 466.47 23.479755  L 470.655 23.548094  L 474.84 23.548094  L 476.9325 23.724372  L 483.21 23.724372  L 485.3025 23.890451  L 491.58 23.890451  L 493.6725 24.063593  L 499.95 24.063593  L 502.0425 24.233508  L 508.32 24.233508  L 510.4125 24.401104  L 516.69 24.401104  L 518.7825 24.575471  L 525.06 24.575471  L 527.1525 24.752781  L 533.43 24.752781  L 535.5225 24.928039  L 541.8 24.928039  L 543.8925 25.102256  L 550.17 25.102256  L 552.2625 25.275915  L 558.54 25.275915  L 560.6325 25.421068  L 575.28 25.496001  L 579.465 25.573976  L 642.24 25.497361  L 642.24 25.497361  "
           style="fill:none;stroke:#41b6c4;stroke-linecap:square;stroke-width:2.5;stroke-opacity:1"
           id="path1089" />
      </g>
      <g
         id="patch_4">
        <path
           d="M 56.34 143.1  L 56.34 7.2  "
           style="fill:none;stroke:#000000;stroke-linecap:square;stroke-linejoin:miter;stroke-width:0.8;"
           id="path1092" />
      </g>
      <g
         id="patch_5">
        <path
           d="M 642.24 143.1  L 642.24 7.2  "
           style="fill:none;stroke:#000000;stroke-linecap:square;stroke-linejoin:miter;stroke-width:0.8;"
           id="path1095" />
      </g>
      <g
         id="patch_6">
        <path
           d="M 56.34 143.1  L 642.24 143.1  "
           style="fill:none;stroke:#000000;stroke-linecap:square;stroke-linejoin:miter;stroke-width:0.8;"
           id="path1098" />
      </g>
      <g
         id="patch_7">
        <path
           d="M 56.34 7.2  L 642.24 7.2  "
           style="fill:none;stroke:#000000;stroke-linecap:square;stroke-linejoin:miter;stroke-width:0.8;"
           id="path1101" />
      </g>
      <g
         id="legend_1">
        <g
           id="patch_8">
          <path
             d="M 63.34 138.1  L 176.469687 138.1  Q 178.469687 138.1 178.469687 136.1  L 178.469687 122.421875  Q 178.469687 120.421875 176.469687 120.421875  L 63.34 120.421875  Q 61.34 120.421875 61.34 122.421875  L 61.34 136.1  Q 61.34 138.1 63.34 138.1  z "
             style="fill:#ffffff;opacity:0.8;stroke:#cccccc;stroke-linejoin:miter;"
             id="path1112" />
        </g>
        <g
           id="line2d_19">
          <path
             d="M 65.34 128.520312  L 85.34 128.520312  "
             style="fill:none;stroke:#014636;stroke-linecap:square;stroke-width:2.5;stroke-opacity:1"
             id="path1115" />
        </g>
        <g
           id="line2d_20" />
        <g
           id="text_16">
          <!-- India (20N, 73E) -->
          <defs
             id="defs1130">
            <path
               d="M 9.8125 72.90625  L 19.671875 72.90625  L 19.671875 0  L 9.8125 0  z "
               id="DejaVuSans-73" />
            <path
               d="M 54.890625 33.015625  L 54.890625 0  L 45.90625 0  L 45.90625 32.71875  Q 45.90625 40.484375 42.875 44.328125  Q 39.84375 48.1875 33.796875 48.1875  Q 26.515625 48.1875 22.3125 43.546875  Q 18.109375 38.921875 18.109375 30.90625  L 18.109375 0  L 9.078125 0  L 9.078125 54.6875  L 18.109375 54.6875  L 18.109375 46.1875  Q 21.34375 51.125 25.703125 53.5625  Q 30.078125 56 35.796875 56  Q 45.21875 56 50.046875 50.171875  Q 54.890625 44.34375 54.890625 33.015625  z "
               id="DejaVuSans-110" />
            <path
               d="M 45.40625 46.390625  L 45.40625 75.984375  L 54.390625 75.984375  L 54.390625 0  L 45.40625 0  L 45.40625 8.203125  Q 42.578125 3.328125 38.25 0.953125  Q 33.9375 -1.421875 27.875 -1.421875  Q 17.96875 -1.421875 11.734375 6.484375  Q 5.515625 14.40625 5.515625 27.296875  Q 5.515625 40.1875 11.734375 48.09375  Q 17.96875 56 27.875 56  Q 33.9375 56 38.25 53.625  Q 42.578125 51.265625 45.40625 46.390625  z M 14.796875 27.296875  Q 14.796875 17.390625 18.875 11.75  Q 22.953125 6.109375 30.078125 6.109375  Q 37.203125 6.109375 41.296875 11.75  Q 45.40625 17.390625 45.40625 27.296875  Q 45.40625 37.203125 41.296875 42.84375  Q 37.203125 48.484375 30.078125 48.484375  Q 22.953125 48.484375 18.875 42.84375  Q 14.796875 37.203125 14.796875 27.296875  z "
               id="DejaVuSans-100" />
            <path
               d="M 9.421875 54.6875  L 18.40625 54.6875  L 18.40625 0  L 9.421875 0  z M 9.421875 75.984375  L 18.40625 75.984375  L 18.40625 64.59375  L 9.421875 64.59375  z "
               id="DejaVuSans-105" />
            <path
               d="M 34.28125 27.484375  Q 23.390625 27.484375 19.1875 25  Q 14.984375 22.515625 14.984375 16.5  Q 14.984375 11.71875 18.140625 8.90625  Q 21.296875 6.109375 26.703125 6.109375  Q 34.1875 6.109375 38.703125 11.40625  Q 43.21875 16.703125 43.21875 25.484375  L 43.21875 27.484375  z M 52.203125 31.203125  L 52.203125 0  L 43.21875 0  L 43.21875 8.296875  Q 40.140625 3.328125 35.546875 0.953125  Q 30.953125 -1.421875 24.3125 -1.421875  Q 15.921875 -1.421875 10.953125 3.296875  Q 6 8.015625 6 15.921875  Q 6 25.140625 12.171875 29.828125  Q 18.359375 34.515625 30.609375 34.515625  L 43.21875 34.515625  L 43.21875 35.40625  Q 43.21875 41.609375 39.140625 45  Q 35.0625 48.390625 27.6875 48.390625  Q 23 48.390625 18.546875 47.265625  Q 14.109375 46.140625 10.015625 43.890625  L 10.015625 52.203125  Q 14.9375 54.109375 19.578125 55.046875  Q 24.21875 56 28.609375 56  Q 40.484375 56 46.34375 49.84375  Q 52.203125 43.703125 52.203125 31.203125  z "
               id="DejaVuSans-97" />
            <path
               id="DejaVuSans-32" />
            <path
               d="M 31 75.875  Q 24.46875 64.65625 21.28125 53.65625  Q 18.109375 42.671875 18.109375 31.390625  Q 18.109375 20.125 21.3125 9.0625  Q 24.515625 -2 31 -13.1875  L 23.1875 -13.1875  Q 15.875 -1.703125 12.234375 9.375  Q 8.59375 20.453125 8.59375 31.390625  Q 8.59375 42.28125 12.203125 53.3125  Q 15.828125 64.359375 23.1875 75.875  z "
               id="DejaVuSans-40" />
            <path
               d="M 9.8125 72.90625  L 23.09375 72.90625  L 55.421875 11.921875  L 55.421875 72.90625  L 64.984375 72.90625  L 64.984375 0  L 51.703125 0  L 19.390625 60.984375  L 19.390625 0  L 9.8125 0  z "
               id="DejaVuSans-78" />
            <path
               d="M 11.71875 12.40625  L 22.015625 12.40625  L 22.015625 4  L 14.015625 -11.625  L 7.71875 -11.625  L 11.71875 4  z "
               id="DejaVuSans-44" />
            <path
               d="M 9.8125 72.90625  L 55.90625 72.90625  L 55.90625 64.59375  L 19.671875 64.59375  L 19.671875 43.015625  L 54.390625 43.015625  L 54.390625 34.71875  L 19.671875 34.71875  L 19.671875 8.296875  L 56.78125 8.296875  L 56.78125 0  L 9.8125 0  z "
               id="DejaVuSans-69" />
            <path
               d="M 8.015625 75.875  L 15.828125 75.875  Q 23.140625 64.359375 26.78125 53.3125  Q 30.421875 42.28125 30.421875 31.390625  Q 30.421875 20.453125 26.78125 9.375  Q 23.140625 -1.703125 15.828125 -13.1875  L 8.015625 -13.1875  Q 14.5 -2 17.703125 9.0625  Q 20.90625 20.125 20.90625 31.390625  Q 20.90625 42.671875 17.703125 53.65625  Q 14.5 64.65625 8.015625 75.875  z "
               id="DejaVuSans-41" />
          </defs>
          <g
             transform="translate(93.34 132.020312)scale(0.1 -0.1)"
             id="g1164">
            <use
               xlink:href="#DejaVuSans-73"
               id="use1132" />
            <use
               x="29.492188"
               xlink:href="#DejaVuSans-110"
               id="use1134" />
            <use
               x="92.871094"
               xlink:href="#DejaVuSans-100"
               id="use1136" />
            <use
               x="156.347656"
               xlink:href="#DejaVuSans-105"
               id="use1138" />
            <use
               x="184.130859"
               xlink:href="#DejaVuSans-97"
               id="use1140" />
            <use
               x="245.410156"
               xlink:href="#DejaVuSans-32"
               id="use1142" />
            <use
               x="277.197266"
               xlink:href="#DejaVuSans-40"
               id="use1144" />
            <use
               x="316.210938"
               xlink:href="#DejaVuSans-50"
               id="use1146" />
            <use
               x="379.833984"
               xlink:href="#DejaVuSans-48"
               id="use1148" />
            <use
               x="443.457031"
               xlink:href="#DejaVuSans-78"
               id="use1150" />
            <use
               x="518.261719"
               xlink:href="#DejaVuSans-44"
               id="use1152" />
            <use
               x="550.048828"
               xlink:href="#DejaVuSans-32"
               id="use1154" />
            <use
               x="581.835938"
               xlink:href="#DejaVuSans-55"
               id="use1156" />
            <use
               x="645.458984"
               xlink:href="#DejaVuSans-51"
               id="use1158" />
            <use
               x="709.082031"
               xlink:href="#DejaVuSans-69"
               id="use1160" />
            <use
               x="772.265625"
               xlink:href="#DejaVuSans-41"
               id="use1162" />
          </g>
        </g>
      </g>
    </g>
    <g
       id="axes_2">
      <g
         id="patch_9">
        <path
           d="M 56.34 306.18  L 642.24 306.18  L 642.24 170.28  L 56.34 170.28  z "
           style="fill:#ffffff;"
           id="path1169" />
      </g>
      <g
         id="matplotlib.axis_3">
        <g
           id="xtick_9">
          <g
             id="line2d_21">
            <g
               id="g1174">
              <use
                 style="stroke:#000000;stroke-width:0.8;"
                 x="56.34"
                 xlink:href="#m9d6337bca5"
                 y="306.18"
                 id="use1172" />
            </g>
          </g>
          <g
             id="text_17">
            <!-- 0 -->
            <g
               transform="translate(53.15875 320.778437)scale(0.1 -0.1)"
               id="g1179">
              <use
                 xlink:href="#DejaVuSans-48"
                 id="use1177" />
            </g>
          </g>
        </g>
        <g
           id="xtick_10">
          <g
             id="line2d_22">
            <g
               id="g1185">
              <use
                 style="stroke:#000000;stroke-width:0.8;"
                 x="140.04"
                 xlink:href="#m9d6337bca5"
                 y="306.18"
                 id="use1183" />
            </g>
          </g>
          <g
             id="text_18">
            <!-- 10 -->
            <g
               transform="translate(133.6775 320.778437)scale(0.1 -0.1)"
               id="g1192">
              <use
                 xlink:href="#DejaVuSans-49"
                 id="use1188" />
              <use
                 x="63.623047"
                 xlink:href="#DejaVuSans-48"
                 id="use1190" />
            </g>
          </g>
        </g>
        <g
           id="xtick_11">
          <g
             id="line2d_23">
            <g
               id="g1198">
              <use
                 style="stroke:#000000;stroke-width:0.8;"
                 x="223.74"
                 xlink:href="#m9d6337bca5"
                 y="306.18"
                 id="use1196" />
            </g>
          </g>
          <g
             id="text_19">
            <!-- 20 -->
            <g
               transform="translate(217.3775 320.778437)scale(0.1 -0.1)"
               id="g1205">
              <use
                 xlink:href="#DejaVuSans-50"
                 id="use1201" />
              <use
                 x="63.623047"
                 xlink:href="#DejaVuSans-48"
                 id="use1203" />
            </g>
          </g>
        </g>
        <g
           id="xtick_12">
          <g
             id="line2d_24">
            <g
               id="g1211">
              <use
                 style="stroke:#000000;stroke-width:0.8;"
                 x="307.44"
                 xlink:href="#m9d6337bca5"
                 y="306.18"
                 id="use1209" />
            </g>
          </g>
          <g
             id="text_20">
            <!-- 30 -->
            <g
               transform="translate(301.0775 320.778437)scale(0.1 -0.1)"
               id="g1218">
              <use
                 xlink:href="#DejaVuSans-51"
                 id="use1214" />
              <use
                 x="63.623047"
                 xlink:href="#DejaVuSans-48"
                 id="use1216" />
            </g>
          </g>
        </g>
        <g
           id="xtick_13">
          <g
             id="line2d_25">
            <g
               id="g1224">
              <use
                 style="stroke:#000000;stroke-width:0.8;"
                 x="391.14"
                 xlink:href="#m9d6337bca5"
                 y="306.18"
                 id="use1222" />
            </g>
          </g>
          <g
             id="text_21">
            <!-- 40 -->
            <g
               transform="translate(384.7775 320.778437)scale(0.1 -0.1)"
               id="g1231">
              <use
                 xlink:href="#DejaVuSans-52"
                 id="use1227" />
              <use
                 x="63.623047"
                 xlink:href="#DejaVuSans-48"
                 id="use1229" />
            </g>
          </g>
        </g>
        <g
           id="xtick_14">
          <g
             id="line2d_26">
            <g
               id="g1237">
              <use
                 style="stroke:#000000;stroke-width:0.8;"
                 x="474.84"
                 xlink:href="#m9d6337bca5"
                 y="306.18"
                 id="use1235" />
            </g>
          </g>
          <g
             id="text_22">
            <!-- 50 -->
            <g
               transform="translate(468.4775 320.778437)scale(0.1 -0.1)"
               id="g1244">
              <use
                 xlink:href="#DejaVuSans-53"
                 id="use1240" />
              <use
                 x="63.623047"
                 xlink:href="#DejaVuSans-48"
                 id="use1242" />
            </g>
          </g>
        </g>
        <g
           id="xtick_15">
          <g
             id="line2d_27">
            <g
               id="g1250">
              <use
                 style="stroke:#000000;stroke-width:0.8;"
                 x="558.54"
                 xlink:href="#m9d6337bca5"
                 y="306.18"
                 id="use1248" />
            </g>
          </g>
          <g
             id="text_23">
            <!-- 60 -->
            <g
               transform="translate(552.1775 320.778437)scale(0.1 -0.1)"
               id="g1257">
              <use
                 xlink:href="#DejaVuSans-54"
                 id="use1253" />
              <use
                 x="63.623047"
                 xlink:href="#DejaVuSans-48"
                 id="use1255" />
            </g>
          </g>
        </g>
        <g
           id="xtick_16">
          <g
             id="line2d_28">
            <g
               id="g1263">
              <use
                 style="stroke:#000000;stroke-width:0.8;"
                 x="642.24"
                 xlink:href="#m9d6337bca5"
                 y="306.18"
                 id="use1261" />
            </g>
          </g>
          <g
             id="text_24">
            <!-- 70 -->
            <g
               transform="translate(635.8775 320.778437)scale(0.1 -0.1)"
               id="g1270">
              <use
                 xlink:href="#DejaVuSans-55"
                 id="use1266" />
              <use
                 x="63.623047"
                 xlink:href="#DejaVuSans-48"
                 id="use1268" />
            </g>
          </g>
        </g>
      </g>
      <g
         id="matplotlib.axis_4">
        <g
           id="ytick_7">
          <g
             id="line2d_29">
            <g
               id="g1277">
              <use
                 style="stroke:#000000;stroke-width:0.8;"
                 x="56.34"
                 xlink:href="#m86c9cc8124"
                 y="293.022385"
                 id="use1275" />
            </g>
          </g>
          <g
             id="text_25">
            <!-- 0.85 -->
            <defs
               id="defs1281">
              <path
                 d="M 31.78125 34.625  Q 24.75 34.625 20.71875 30.859375  Q 16.703125 27.09375 16.703125 20.515625  Q 16.703125 13.921875 20.71875 10.15625  Q 24.75 6.390625 31.78125 6.390625  Q 38.8125 6.390625 42.859375 10.171875  Q 46.921875 13.96875 46.921875 20.515625  Q 46.921875 27.09375 42.890625 30.859375  Q 38.875 34.625 31.78125 34.625  z M 21.921875 38.8125  Q 15.578125 40.375 12.03125 44.71875  Q 8.5 49.078125 8.5 55.328125  Q 8.5 64.0625 14.71875 69.140625  Q 20.953125 74.21875 31.78125 74.21875  Q 42.671875 74.21875 48.875 69.140625  Q 55.078125 64.0625 55.078125 55.328125  Q 55.078125 49.078125 51.53125 44.71875  Q 48 40.375 41.703125 38.8125  Q 48.828125 37.15625 52.796875 32.3125  Q 56.78125 27.484375 56.78125 20.515625  Q 56.78125 9.90625 50.3125 4.234375  Q 43.84375 -1.421875 31.78125 -1.421875  Q 19.734375 -1.421875 13.25 4.234375  Q 6.78125 9.90625 6.78125 20.515625  Q 6.78125 27.484375 10.78125 32.3125  Q 14.796875 37.15625 21.921875 38.8125  z M 18.3125 54.390625  Q 18.3125 48.734375 21.84375 45.5625  Q 25.390625 42.390625 31.78125 42.390625  Q 38.140625 42.390625 41.71875 45.5625  Q 45.3125 48.734375 45.3125 54.390625  Q 45.3125 60.0625 41.71875 63.234375  Q 38.140625 66.40625 31.78125 66.40625  Q 25.390625 66.40625 21.84375 63.234375  Q 18.3125 60.0625 18.3125 54.390625  z "
                 id="DejaVuSans-56" />
            </defs>
            <g
               transform="translate(27.074375 296.821604)scale(0.1 -0.1)"
               id="g1291">
              <use
                 xlink:href="#DejaVuSans-48"
                 id="use1283" />
              <use
                 x="63.623047"
                 xlink:href="#DejaVuSans-46"
                 id="use1285" />
              <use
                 x="95.410156"
                 xlink:href="#DejaVuSans-56"
                 id="use1287" />
              <use
                 x="159.033203"
                 xlink:href="#DejaVuSans-53"
                 id="use1289" />
            </g>
          </g>
        </g>
        <g
           id="ytick_8">
          <g
             id="line2d_30">
            <g
               id="g1297">
              <use
                 style="stroke:#000000;stroke-width:0.8;"
                 x="56.34"
                 xlink:href="#m86c9cc8124"
                 y="255.885901"
                 id="use1295" />
            </g>
          </g>
          <g
             id="text_26">
            <!-- 0.90 -->
            <defs
               id="defs1301">
              <path
                 d="M 10.984375 1.515625  L 10.984375 10.5  Q 14.703125 8.734375 18.5 7.8125  Q 22.3125 6.890625 25.984375 6.890625  Q 35.75 6.890625 40.890625 13.453125  Q 46.046875 20.015625 46.78125 33.40625  Q 43.953125 29.203125 39.59375 26.953125  Q 35.25 24.703125 29.984375 24.703125  Q 19.046875 24.703125 12.671875 31.3125  Q 6.296875 37.9375 6.296875 49.421875  Q 6.296875 60.640625 12.9375 67.421875  Q 19.578125 74.21875 30.609375 74.21875  Q 43.265625 74.21875 49.921875 64.515625  Q 56.59375 54.828125 56.59375 36.375  Q 56.59375 19.140625 48.40625 8.859375  Q 40.234375 -1.421875 26.421875 -1.421875  Q 22.703125 -1.421875 18.890625 -0.6875  Q 15.09375 0.046875 10.984375 1.515625  z M 30.609375 32.421875  Q 37.25 32.421875 41.125 36.953125  Q 45.015625 41.5 45.015625 49.421875  Q 45.015625 57.28125 41.125 61.84375  Q 37.25 66.40625 30.609375 66.40625  Q 23.96875 66.40625 20.09375 61.84375  Q 16.21875 57.28125 16.21875 49.421875  Q 16.21875 41.5 20.09375 36.953125  Q 23.96875 32.421875 30.609375 32.421875  z "
                 id="DejaVuSans-57" />
            </defs>
            <g
               transform="translate(27.074375 259.68512)scale(0.1 -0.1)"
               id="g1311">
              <use
                 xlink:href="#DejaVuSans-48"
                 id="use1303" />
              <use
                 x="63.623047"
                 xlink:href="#DejaVuSans-46"
                 id="use1305" />
              <use
                 x="95.410156"
                 xlink:href="#DejaVuSans-57"
                 id="use1307" />
              <use
                 x="159.033203"
                 xlink:href="#DejaVuSans-48"
                 id="use1309" />
            </g>
          </g>
        </g>
        <g
           id="ytick_9">
          <g
             id="line2d_31">
            <g
               id="g1317">
              <use
                 style="stroke:#000000;stroke-width:0.8;"
                 x="56.34"
                 xlink:href="#m86c9cc8124"
                 y="218.749417"
                 id="use1315" />
            </g>
          </g>
          <g
             id="text_27">
            <!-- 0.95 -->
            <g
               transform="translate(27.074375 222.548636)scale(0.1 -0.1)"
               id="g1328">
              <use
                 xlink:href="#DejaVuSans-48"
                 id="use1320" />
              <use
                 x="63.623047"
                 xlink:href="#DejaVuSans-46"
                 id="use1322" />
              <use
                 x="95.410156"
                 xlink:href="#DejaVuSans-57"
                 id="use1324" />
              <use
                 x="159.033203"
                 xlink:href="#DejaVuSans-53"
                 id="use1326" />
            </g>
          </g>
        </g>
        <g
           id="ytick_10">
          <g
             id="line2d_32">
            <g
               id="g1334">
              <use
                 style="stroke:#000000;stroke-width:0.8;"
                 x="56.34"
                 xlink:href="#m86c9cc8124"
                 y="181.612933"
                 id="use1332" />
            </g>
          </g>
          <g
             id="text_28">
            <!-- 1.00 -->
            <g
               transform="translate(27.074375 185.412151)scale(0.1 -0.1)"
               id="g1345">
              <use
                 xlink:href="#DejaVuSans-49"
                 id="use1337" />
              <use
                 x="63.623047"
                 xlink:href="#DejaVuSans-46"
                 id="use1339" />
              <use
                 x="95.410156"
                 xlink:href="#DejaVuSans-48"
                 id="use1341" />
              <use
                 x="159.033203"
                 xlink:href="#DejaVuSans-48"
                 id="use1343" />
            </g>
          </g>
        </g>
      </g>
      <g
         id="line2d_33">
        <path
           clip-path="url(#p33d2da59b6)"
           d="M 56.34 181.612933  L 64.71 181.612933  L 66.8025 194.945622  L 73.08 194.945622  L 75.1725 201.264939  L 81.45 201.264939  L 83.5425 203.592925  L 89.82 203.592925  L 91.9125 205.508363  L 98.19 205.508363  L 100.2825 207.494462  L 106.56 207.494462  L 108.6525 209.457262  L 114.93 209.457262  L 117.0225 211.405124  L 123.3 211.405124  L 125.3925 213.33346  L 131.67 213.33346  L 133.7625 215.247741  L 140.04 215.247741  L 142.1325 217.241461  L 148.41 217.241461  L 150.5025 219.312188  L 156.78 219.312188  L 158.8725 222.812453  L 165.15 222.812453  L 167.2425 226.215087  L 173.52 226.215087  L 175.6125 230.202337  L 181.89 230.202337  L 183.9825 235.922311  L 190.26 235.922311  L 192.3525 241.680938  L 198.63 241.680938  L 200.7225 247.399453  L 207 247.399453  L 209.0925 253.175456  L 215.37 253.175456  L 217.4625 255.292281  L 223.74 255.292281  L 225.8325 252.024658  L 232.11 252.024658  L 234.2025 248.723025  L 240.48 248.723025  L 242.5725 245.476835  L 248.85 245.476835  L 250.9425 242.186757  L 257.22 242.186757  L 259.3125 238.940273  L 265.59 238.940273  L 267.6825 235.638924  L 273.96 235.638924  L 276.0525 238.392572  L 282.33 238.392572  L 284.4225 241.602304  L 290.7 241.602304  L 292.7925 245.267935  L 299.07 245.267935  L 301.1625 249.341608  L 307.44 249.341608  L 309.5325 252.266808  L 315.81 252.266808  L 317.9025 254.864438  L 324.18 254.864438  L 326.2725 257.554541  L 332.55 257.554541  L 334.6425 260.943887  L 340.92 260.943887  L 343.0125 266.30949  L 349.29 266.30949  L 351.3825 271.781538  L 357.66 271.781538  L 359.7525 277.206785  L 366.03 277.206785  L 368.1225 282.687574  L 374.4 282.687574  L 376.4925 288.136686  L 382.77 288.136686  L 384.8625 286.060805  L 391.14 286.060805  L 393.2325 283.885026  L 399.51 283.885026  L 401.6025 281.808495  L 407.88 281.808495  L 409.9725 279.722246  L 416.25 279.722246  L 418.3425 277.639161  L 424.62 277.639161  L 426.7125 275.457377  L 432.99 275.457377  L 435.0825 273.368572  L 449.73 273.444289  L 451.8225 274.972274  L 458.1 274.972274  L 460.1925 276.49435  L 466.47 276.49435  L 468.5625 278.015314  L 474.84 278.015314  L 476.9325 279.903324  L 483.21 279.903324  L 485.3025 281.861647  L 491.58 281.861647  L 493.6725 283.973418  L 499.95 283.973418  L 502.0425 286.079863  L 508.32 286.079863  L 510.4125 288.353111  L 516.69 288.353111  L 518.7825 290.263662  L 525.06 290.263662  L 527.1525 292.253083  L 533.43 292.253083  L 535.5225 294.342209  L 541.8 294.342209  L 543.8925 296.519791  L 550.17 296.519791  L 552.2625 298.794492  L 558.54 298.794492  L 560.6325 300.002727  L 566.91 300.002727  L 569.0025 298.564643  L 575.28 298.564643  L 577.3725 297.429882  L 583.65 297.429882  L 585.7425 296.646757  L 592.02 296.646757  L 594.1125 296.062698  L 600.39 296.062698  L 602.4825 295.457361  L 608.76 295.457361  L 610.8525 294.947882  L 617.13 294.947882  L 619.2225 294.344904  L 633.87 294.428089  L 635.9625 294.823728  L 642.24 294.823728  L 642.24 294.823728  "
           style="fill:none;stroke:#c7e9b4;stroke-linecap:square;stroke-width:2.5;stroke-opacity:1"
           id="path1350" />
      </g>
      <g
         id="line2d_34">
        <path
           clip-path="url(#p33d2da59b6)"
           d="M 56.34 181.612933  L 64.71 181.612933  L 66.8025 188.171548  L 73.08 188.171548  L 75.1725 194.223393  L 81.45 194.223393  L 83.5425 196.986708  L 89.82 196.986708  L 91.9125 199.463468  L 98.19 199.463468  L 100.2825 201.913647  L 106.56 201.913647  L 108.6525 204.40662  L 114.93 204.40662  L 117.0225 206.807258  L 123.3 206.807258  L 125.3925 209.269589  L 131.67 209.269589  L 133.7625 211.7286  L 140.04 211.7286  L 142.1325 214.19036  L 148.41 214.19036  L 150.5025 216.623765  L 156.78 216.623765  L 158.8725 219.331534  L 165.15 219.331534  L 167.2425 222.121725  L 173.52 222.121725  L 175.6125 225.414002  L 181.89 225.414002  L 183.9825 231.342208  L 190.26 231.342208  L 192.3525 237.236089  L 198.63 237.236089  L 200.7225 243.21453  L 207 243.21453  L 209.0925 249.073767  L 215.37 249.073767  L 217.4625 251.291318  L 223.74 251.291318  L 225.8325 248.09536  L 232.11 248.09536  L 234.2025 244.88888  L 240.48 244.88888  L 242.5725 241.664211  L 248.85 241.664211  L 250.9425 238.421392  L 257.22 238.421392  L 259.3125 235.151403  L 265.59 235.151403  L 267.6825 231.958782  L 273.96 231.958782  L 276.0525 228.107693  L 282.33 228.107693  L 284.4225 224.286781  L 290.7 224.286781  L 292.7925 220.320547  L 299.07 220.320547  L 301.1625 216.301149  L 307.44 216.301149  L 309.5325 218.967514  L 315.81 218.967514  L 317.9025 223.278386  L 324.18 223.278386  L 326.2725 227.649016  L 332.55 227.649016  L 334.6425 232.691394  L 340.92 232.691394  L 343.0125 239.523354  L 349.29 239.523354  L 351.3825 246.377635  L 357.66 246.377635  L 359.7525 253.179864  L 366.03 253.179864  L 368.1225 260.058029  L 374.4 260.058029  L 376.4925 266.843358  L 382.77 266.843358  L 384.8625 265.482412  L 391.14 265.482412  L 393.2325 264.051874  L 399.51 264.051874  L 401.6025 262.633695  L 407.88 262.633695  L 409.9725 261.129509  L 416.25 261.129509  L 418.3425 259.727391  L 424.62 259.727391  L 426.7125 258.221559  L 432.99 258.221559  L 435.0825 256.803582  L 441.36 256.803582  L 443.4525 255.77601  L 449.73 255.77601  L 451.8225 255.026438  L 458.1 255.026438  L 460.1925 254.2719  L 466.47 254.2719  L 468.5625 253.293466  L 474.84 253.293466  L 476.9325 250.248298  L 483.21 250.248298  L 485.3025 247.24112  L 491.58 247.24112  L 493.6725 244.153731  L 499.95 244.153731  L 502.0425 241.076495  L 508.32 241.076495  L 510.4125 238.004188  L 516.69 238.004188  L 518.7825 234.24469  L 525.06 234.24469  L 527.1525 230.575849  L 533.43 230.575849  L 535.5225 226.82783  L 541.8 226.82783  L 543.8925 223.07909  L 550.17 223.07909  L 552.2625 219.287262  L 558.54 219.287262  L 560.6325 213.632787  L 566.91 213.632787  L 569.0025 203.66539  L 575.28 203.66539  L 577.3725 193.662435  L 583.65 193.662435  L 585.7425 183.659893  L 592.02 183.659893  L 594.1125 181.852512  L 600.39 181.852512  L 602.4825 180.067252  L 608.76 180.067252  L 610.8525 178.254104  L 617.13 178.254104  L 619.2225 176.457273  L 625.5 176.457273  L 627.5925 179.112322  L 633.87 179.112322  L 635.9625 183.648795  L 642.24 183.648795  L 642.24 183.648795  "
           style="fill:none;stroke:#225ea8;stroke-linecap:square;stroke-width:2.5;stroke-opacity:1"
           id="path1353" />
      </g>
      <g
         id="line2d_35">
        <path
           clip-path="url(#p33d2da59b6)"
           d="M 56.34 181.612933  L 64.71 181.612933  L 66.8025 194.562906  L 73.08 194.562906  L 75.1725 197.801008  L 81.45 197.801008  L 83.5425 198.747637  L 89.82 198.747637  L 91.9125 199.539455  L 98.19 199.539455  L 100.2825 200.402763  L 106.56 200.402763  L 108.6525 201.25756  L 114.93 201.25756  L 117.0225 202.033477  L 123.3 202.033477  L 125.3925 202.879395  L 131.67 202.879395  L 133.7625 203.718325  L 140.04 203.718325  L 142.1325 204.554831  L 148.41 204.554831  L 150.5025 205.485352  L 156.78 205.485352  L 158.8725 207.487251  L 165.15 207.487251  L 167.2425 209.564851  L 173.52 209.564851  L 175.6125 211.802669  L 181.89 211.802669  L 183.9825 214.948574  L 190.26 214.948574  L 192.3525 218.071853  L 198.63 218.071853  L 200.7225 221.179858  L 207 221.179858  L 209.0925 224.265428  L 215.37 224.265428  L 217.4625 225.892436  L 223.74 225.892436  L 225.8325 225.31571  L 232.11 225.31571  L 234.2025 224.615722  L 240.48 224.615722  L 242.5725 224.008012  L 248.85 224.008012  L 250.9425 223.328233  L 257.22 223.328233  L 259.3125 222.706498  L 265.59 222.706498  L 267.6825 222.054619  L 273.96 222.054619  L 276.0525 231.159333  L 282.33 231.159333  L 284.4225 240.258664  L 290.7 240.258664  L 292.7925 249.30471  L 299.07 249.30471  L 301.1625 258.401956  L 307.44 258.401956  L 309.5325 260.538141  L 315.81 260.538141  L 317.9025 261.056494  L 324.18 261.056494  L 326.2725 261.491002  L 332.55 261.491002  L 334.6425 262.518351  L 340.92 262.518351  L 343.0125 264.869565  L 349.29 264.869565  L 351.3825 267.182247  L 357.66 267.182247  L 359.7525 269.463938  L 366.03 269.463938  L 368.1225 271.805658  L 374.4 271.805658  L 376.4925 274.134184  L 382.77 274.134184  L 384.8625 272.244379  L 391.14 272.244379  L 393.2325 270.401062  L 399.51 270.401062  L 401.6025 268.516061  L 407.88 268.516061  L 409.9725 266.589544  L 416.25 266.589544  L 418.3425 264.699505  L 424.62 264.699505  L 426.7125 262.844851  L 432.99 262.844851  L 435.0825 260.938969  L 441.36 260.938969  L 443.4525 260.749924  L 449.73 260.749924  L 451.8225 261.623326  L 458.1 261.623326  L 460.1925 262.468035  L 466.47 262.468035  L 468.5625 263.517403  L 474.84 263.517403  L 476.9325 266.224233  L 483.21 266.224233  L 485.3025 268.774459  L 491.58 268.774459  L 493.6725 271.43313  L 499.95 271.43313  L 502.0425 274.042244  L 508.32 274.042244  L 510.4125 276.615753  L 516.69 276.615753  L 518.7825 279.293229  L 525.06 279.293229  L 527.1525 282.015913  L 533.43 282.015913  L 535.5225 284.707069  L 541.8 284.707069  L 543.8925 287.382251  L 550.17 287.382251  L 552.2625 290.048863  L 558.54 290.048863  L 560.6325 292.277754  L 566.91 292.277754  L 569.0025 293.428384  L 575.28 293.428384  L 577.3725 294.625716  L 583.65 294.625716  L 585.7425 295.728803  L 592.02 295.728803  L 594.1125 295.288408  L 600.39 295.288408  L 602.4825 294.894157  L 608.76 294.894157  L 610.8525 294.412582  L 617.13 294.412582  L 619.2225 293.977796  L 625.5 293.977796  L 627.5925 293.726656  L 633.87 293.726656  L 635.9625 293.449268  L 642.24 293.449268  L 642.24 293.449268  "
           style="fill:none;stroke:#41b6c4;stroke-linecap:square;stroke-width:2.5;stroke-opacity:1"
           id="path1356" />
      </g>
      <g
         id="patch_10">
        <path
           d="M 56.34 306.18  L 56.34 170.28  "
           style="fill:none;stroke:#000000;stroke-linecap:square;stroke-linejoin:miter;stroke-width:0.8;"
           id="path1359" />
      </g>
      <g
         id="patch_11">
        <path
           d="M 642.24 306.18  L 642.24 170.28  "
           style="fill:none;stroke:#000000;stroke-linecap:square;stroke-linejoin:miter;stroke-width:0.8;"
           id="path1362" />
      </g>
      <g
         id="patch_12">
        <path
           d="M 56.34 306.18  L 642.24 306.18  "
           style="fill:none;stroke:#000000;stroke-linecap:square;stroke-linejoin:miter;stroke-width:0.8;"
           id="path1365" />
      </g>
      <g
         id="patch_13">
        <path
           d="M 56.34 170.28  L 642.24 170.28  "
           style="fill:none;stroke:#000000;stroke-linecap:square;stroke-linejoin:miter;stroke-width:0.8;"
           id="path1368" />
      </g>
      <g
         id="legend_2">
        <g
           id="patch_14">
          <path
             d="M 63.34 301.18  L 226.966563 301.18  Q 228.966563 301.18 228.966563 299.18  L 228.966563 256.145625  Q 228.966563 254.145625 226.966563 254.145625  L 63.34 254.145625  Q 61.34 254.145625 61.34 256.145625  L 61.34 299.18  Q 61.34 301.18 63.34 301.18  z "
             style="fill:#ffffff;opacity:0.8;stroke:#cccccc;stroke-linejoin:miter;"
             id="path1379" />
        </g>
        <g
           id="line2d_36">
          <path
             d="M 65.34 262.244062  L 85.34 262.244062  "
             style="fill:none;stroke:#ccebbb;stroke-linecap:square;stroke-width:2.5;stroke-opacity:1;fill-opacity:1"
             id="path1382" />
        </g>
        <g
           id="line2d_37" />
        <g
           id="text_30">
          <!-- Greenland (75N, 42W) -->
          <defs
             id="defs1391">
            <path
               d="M 59.515625 10.40625  L 59.515625 29.984375  L 43.40625 29.984375  L 43.40625 38.09375  L 69.28125 38.09375  L 69.28125 6.78125  Q 63.578125 2.734375 56.6875 0.65625  Q 49.8125 -1.421875 42 -1.421875  Q 24.90625 -1.421875 15.25 8.5625  Q 5.609375 18.5625 5.609375 36.375  Q 5.609375 54.25 15.25 64.234375  Q 24.90625 74.21875 42 74.21875  Q 49.125 74.21875 55.546875 72.453125  Q 61.96875 70.703125 67.390625 67.28125  L 67.390625 56.78125  Q 61.921875 61.421875 55.765625 63.765625  Q 49.609375 66.109375 42.828125 66.109375  Q 29.4375 66.109375 22.71875 58.640625  Q 16.015625 51.171875 16.015625 36.375  Q 16.015625 21.625 22.71875 14.15625  Q 29.4375 6.6875 42.828125 6.6875  Q 48.046875 6.6875 52.140625 7.59375  Q 56.25 8.5 59.515625 10.40625  z "
               id="DejaVuSans-71" />
            <path
               d="M 41.109375 46.296875  Q 39.59375 47.171875 37.8125 47.578125  Q 36.03125 48 33.890625 48  Q 26.265625 48 22.1875 43.046875  Q 18.109375 38.09375 18.109375 28.8125  L 18.109375 0  L 9.078125 0  L 9.078125 54.6875  L 18.109375 54.6875  L 18.109375 46.1875  Q 20.953125 51.171875 25.484375 53.578125  Q 30.03125 56 36.53125 56  Q 37.453125 56 38.578125 55.875  Q 39.703125 55.765625 41.0625 55.515625  z "
               id="DejaVuSans-114" />
            <path
               d="M 56.203125 29.59375  L 56.203125 25.203125  L 14.890625 25.203125  Q 15.484375 15.921875 20.484375 11.0625  Q 25.484375 6.203125 34.421875 6.203125  Q 39.59375 6.203125 44.453125 7.46875  Q 49.3125 8.734375 54.109375 11.28125  L 54.109375 2.78125  Q 49.265625 0.734375 44.1875 -0.34375  Q 39.109375 -1.421875 33.890625 -1.421875  Q 20.796875 -1.421875 13.15625 6.1875  Q 5.515625 13.8125 5.515625 26.8125  Q 5.515625 40.234375 12.765625 48.109375  Q 20.015625 56 32.328125 56  Q 43.359375 56 49.78125 48.890625  Q 56.203125 41.796875 56.203125 29.59375  z M 47.21875 32.234375  Q 47.125 39.59375 43.09375 43.984375  Q 39.0625 48.390625 32.421875 48.390625  Q 24.90625 48.390625 20.390625 44.140625  Q 15.875 39.890625 15.1875 32.171875  z "
               id="DejaVuSans-101" />
            <path
               d="M 9.421875 75.984375  L 18.40625 75.984375  L 18.40625 0  L 9.421875 0  z "
               id="DejaVuSans-108" />
            <path
               d="M 3.328125 72.90625  L 13.28125 72.90625  L 28.609375 11.28125  L 43.890625 72.90625  L 54.984375 72.90625  L 70.3125 11.28125  L 85.59375 72.90625  L 95.609375 72.90625  L 77.296875 0  L 64.890625 0  L 49.515625 63.28125  L 33.984375 0  L 21.578125 0  z "
               id="DejaVuSans-87" />
          </defs>
          <g
             transform="translate(93.34 265.744062)scale(0.1 -0.1)"
             id="g1433">
            <use
               xlink:href="#DejaVuSans-71"
               id="use1393" />
            <use
               x="77.490234"
               xlink:href="#DejaVuSans-114"
               id="use1395" />
            <use
               x="116.353516"
               xlink:href="#DejaVuSans-101"
               id="use1397" />
            <use
               x="177.876953"
               xlink:href="#DejaVuSans-101"
               id="use1399" />
            <use
               x="239.400391"
               xlink:href="#DejaVuSans-110"
               id="use1401" />
            <use
               x="302.779297"
               xlink:href="#DejaVuSans-108"
               id="use1403" />
            <use
               x="330.5625"
               xlink:href="#DejaVuSans-97"
               id="use1405" />
            <use
               x="391.841797"
               xlink:href="#DejaVuSans-110"
               id="use1407" />
            <use
               x="455.220703"
               xlink:href="#DejaVuSans-100"
               id="use1409" />
            <use
               x="518.697266"
               xlink:href="#DejaVuSans-32"
               id="use1411" />
            <use
               x="550.484375"
               xlink:href="#DejaVuSans-40"
               id="use1413" />
            <use
               x="589.498047"
               xlink:href="#DejaVuSans-55"
               id="use1415" />
            <use
               x="653.121094"
               xlink:href="#DejaVuSans-53"
               id="use1417" />
            <use
               x="716.744141"
               xlink:href="#DejaVuSans-78"
               id="use1419" />
            <use
               x="791.548828"
               xlink:href="#DejaVuSans-44"
               id="use1421" />
            <use
               x="823.335938"
               xlink:href="#DejaVuSans-32"
               id="use1423" />
            <use
               x="855.123047"
               xlink:href="#DejaVuSans-52"
               id="use1425" />
            <use
               x="918.746094"
               xlink:href="#DejaVuSans-50"
               id="use1427" />
            <use
               x="982.369141"
               xlink:href="#DejaVuSans-87"
               id="use1429" />
            <use
               x="1081.246094"
               xlink:href="#DejaVuSans-41"
               id="use1431" />
          </g>
        </g>
        <g
           id="line2d_38">
          <path
             d="M 65.34 276.922187  L 85.34 276.922187  "
             style="fill:#02818a;stroke:#2661a9;stroke-linecap:square;stroke-width:2.5;stroke-opacity:1;fill-opacity:1"
             id="path1436" />
        </g>
        <g
           id="line2d_39" />
        <g
           id="text_31">
          <!-- Northern Chile (19S, 69W) -->
          <defs
             id="defs1445">
            <path
               d="M 30.609375 48.390625  Q 23.390625 48.390625 19.1875 42.75  Q 14.984375 37.109375 14.984375 27.296875  Q 14.984375 17.484375 19.15625 11.84375  Q 23.34375 6.203125 30.609375 6.203125  Q 37.796875 6.203125 41.984375 11.859375  Q 46.1875 17.53125 46.1875 27.296875  Q 46.1875 37.015625 41.984375 42.703125  Q 37.796875 48.390625 30.609375 48.390625  z M 30.609375 56  Q 42.328125 56 49.015625 48.375  Q 55.71875 40.765625 55.71875 27.296875  Q 55.71875 13.875 49.015625 6.21875  Q 42.328125 -1.421875 30.609375 -1.421875  Q 18.84375 -1.421875 12.171875 6.21875  Q 5.515625 13.875 5.515625 27.296875  Q 5.515625 40.765625 12.171875 48.375  Q 18.84375 56 30.609375 56  z "
               id="DejaVuSans-111" />
            <path
               d="M 18.3125 70.21875  L 18.3125 54.6875  L 36.8125 54.6875  L 36.8125 47.703125  L 18.3125 47.703125  L 18.3125 18.015625  Q 18.3125 11.328125 20.140625 9.421875  Q 21.96875 7.515625 27.59375 7.515625  L 36.8125 7.515625  L 36.8125 0  L 27.59375 0  Q 17.1875 0 13.234375 3.875  Q 9.28125 7.765625 9.28125 18.015625  L 9.28125 47.703125  L 2.6875 47.703125  L 2.6875 54.6875  L 9.28125 54.6875  L 9.28125 70.21875  z "
               id="DejaVuSans-116" />
            <path
               d="M 54.890625 33.015625  L 54.890625 0  L 45.90625 0  L 45.90625 32.71875  Q 45.90625 40.484375 42.875 44.328125  Q 39.84375 48.1875 33.796875 48.1875  Q 26.515625 48.1875 22.3125 43.546875  Q 18.109375 38.921875 18.109375 30.90625  L 18.109375 0  L 9.078125 0  L 9.078125 75.984375  L 18.109375 75.984375  L 18.109375 46.1875  Q 21.34375 51.125 25.703125 53.5625  Q 30.078125 56 35.796875 56  Q 45.21875 56 50.046875 50.171875  Q 54.890625 44.34375 54.890625 33.015625  z "
               id="DejaVuSans-104" />
            <path
               d="M 64.40625 67.28125  L 64.40625 56.890625  Q 59.421875 61.53125 53.78125 63.8125  Q 48.140625 66.109375 41.796875 66.109375  Q 29.296875 66.109375 22.65625 58.46875  Q 16.015625 50.828125 16.015625 36.375  Q 16.015625 21.96875 22.65625 14.328125  Q 29.296875 6.6875 41.796875 6.6875  Q 48.140625 6.6875 53.78125 8.984375  Q 59.421875 11.28125 64.40625 15.921875  L 64.40625 5.609375  Q 59.234375 2.09375 53.4375 0.328125  Q 47.65625 -1.421875 41.21875 -1.421875  Q 24.65625 -1.421875 15.125 8.703125  Q 5.609375 18.84375 5.609375 36.375  Q 5.609375 53.953125 15.125 64.078125  Q 24.65625 74.21875 41.21875 74.21875  Q 47.75 74.21875 53.53125 72.484375  Q 59.328125 70.75 64.40625 67.28125  z "
               id="DejaVuSans-67" />
            <path
               d="M 53.515625 70.515625  L 53.515625 60.890625  Q 47.90625 63.578125 42.921875 64.890625  Q 37.9375 66.21875 33.296875 66.21875  Q 25.25 66.21875 20.875 63.09375  Q 16.5 59.96875 16.5 54.203125  Q 16.5 49.359375 19.40625 46.890625  Q 22.3125 44.4375 30.421875 42.921875  L 36.375 41.703125  Q 47.40625 39.59375 52.65625 34.296875  Q 57.90625 29 57.90625 20.125  Q 57.90625 9.515625 50.796875 4.046875  Q 43.703125 -1.421875 29.984375 -1.421875  Q 24.8125 -1.421875 18.96875 -0.25  Q 13.140625 0.921875 6.890625 3.21875  L 6.890625 13.375  Q 12.890625 10.015625 18.65625 8.296875  Q 24.421875 6.59375 29.984375 6.59375  Q 38.421875 6.59375 43.015625 9.90625  Q 47.609375 13.234375 47.609375 19.390625  Q 47.609375 24.75 44.3125 27.78125  Q 41.015625 30.8125 33.5 32.328125  L 27.484375 33.5  Q 16.453125 35.6875 11.515625 40.375  Q 6.59375 45.0625 6.59375 53.421875  Q 6.59375 63.09375 13.40625 68.65625  Q 20.21875 74.21875 32.171875 74.21875  Q 37.3125 74.21875 42.625 73.28125  Q 47.953125 72.359375 53.515625 70.515625  z "
               id="DejaVuSans-83" />
          </defs>
          <g
             transform="translate(93.34 280.422187)scale(0.1 -0.1)"
             id="g1497">
            <use
               xlink:href="#DejaVuSans-78"
               id="use1447" />
            <use
               x="74.804688"
               xlink:href="#DejaVuSans-111"
               id="use1449" />
            <use
               x="135.986328"
               xlink:href="#DejaVuSans-114"
               id="use1451" />
            <use
               x="177.099609"
               xlink:href="#DejaVuSans-116"
               id="use1453" />
            <use
               x="216.308594"
               xlink:href="#DejaVuSans-104"
               id="use1455" />
            <use
               x="279.6875"
               xlink:href="#DejaVuSans-101"
               id="use1457" />
            <use
               x="341.210938"
               xlink:href="#DejaVuSans-114"
               id="use1459" />
            <use
               x="380.574219"
               xlink:href="#DejaVuSans-110"
               id="use1461" />
            <use
               x="443.953125"
               xlink:href="#DejaVuSans-32"
               id="use1463" />
            <use
               x="475.740234"
               xlink:href="#DejaVuSans-67"
               id="use1465" />
            <use
               x="545.564453"
               xlink:href="#DejaVuSans-104"
               id="use1467" />
            <use
               x="608.943359"
               xlink:href="#DejaVuSans-105"
               id="use1469" />
            <use
               x="636.726562"
               xlink:href="#DejaVuSans-108"
               id="use1471" />
            <use
               x="664.509766"
               xlink:href="#DejaVuSans-101"
               id="use1473" />
            <use
               x="726.033203"
               xlink:href="#DejaVuSans-32"
               id="use1475" />
            <use
               x="757.820312"
               xlink:href="#DejaVuSans-40"
               id="use1477" />
            <use
               x="796.833984"
               xlink:href="#DejaVuSans-49"
               id="use1479" />
            <use
               x="860.457031"
               xlink:href="#DejaVuSans-57"
               id="use1481" />
            <use
               x="924.080078"
               xlink:href="#DejaVuSans-83"
               id="use1483" />
            <use
               x="987.556641"
               xlink:href="#DejaVuSans-44"
               id="use1485" />
            <use
               x="1019.34375"
               xlink:href="#DejaVuSans-32"
               id="use1487" />
            <use
               x="1051.130859"
               xlink:href="#DejaVuSans-54"
               id="use1489" />
            <use
               x="1114.753906"
               xlink:href="#DejaVuSans-57"
               id="use1491" />
            <use
               x="1178.376953"
               xlink:href="#DejaVuSans-87"
               id="use1493" />
            <use
               x="1277.253906"
               xlink:href="#DejaVuSans-41"
               id="use1495" />
          </g>
        </g>
        <g
           id="line2d_40">
          <path
             d="M 65.34 291.600312  L 85.34 291.600312  "
             style="fill:none;stroke:#42b6c4;stroke-linecap:square;stroke-width:2.5;stroke-opacity:1;fill-opacity:1"
             id="path1500" />
        </g>
        <g
           id="line2d_41" />
        <g
           id="text_32">
          <!-- South Africa (31S, 22E) -->
          <defs
             id="defs1507">
            <path
               d="M 8.5 21.578125  L 8.5 54.6875  L 17.484375 54.6875  L 17.484375 21.921875  Q 17.484375 14.15625 20.5 10.265625  Q 23.53125 6.390625 29.59375 6.390625  Q 36.859375 6.390625 41.078125 11.03125  Q 45.3125 15.671875 45.3125 23.6875  L 45.3125 54.6875  L 54.296875 54.6875  L 54.296875 0  L 45.3125 0  L 45.3125 8.40625  Q 42.046875 3.421875 37.71875 1  Q 33.40625 -1.421875 27.6875 -1.421875  Q 18.265625 -1.421875 13.375 4.4375  Q 8.5 10.296875 8.5 21.578125  z M 31.109375 56  z "
               id="DejaVuSans-117" />
            <path
               d="M 37.109375 75.984375  L 37.109375 68.5  L 28.515625 68.5  Q 23.6875 68.5 21.796875 66.546875  Q 19.921875 64.59375 19.921875 59.515625  L 19.921875 54.6875  L 34.71875 54.6875  L 34.71875 47.703125  L 19.921875 47.703125  L 19.921875 0  L 10.890625 0  L 10.890625 47.703125  L 2.296875 47.703125  L 2.296875 54.6875  L 10.890625 54.6875  L 10.890625 58.5  Q 10.890625 67.625 15.140625 71.796875  Q 19.390625 75.984375 28.609375 75.984375  z "
               id="DejaVuSans-102" />
            <path
               d="M 48.78125 52.59375  L 48.78125 44.1875  Q 44.96875 46.296875 41.140625 47.34375  Q 37.3125 48.390625 33.40625 48.390625  Q 24.65625 48.390625 19.8125 42.84375  Q 14.984375 37.3125 14.984375 27.296875  Q 14.984375 17.28125 19.8125 11.734375  Q 24.65625 6.203125 33.40625 6.203125  Q 37.3125 6.203125 41.140625 7.25  Q 44.96875 8.296875 48.78125 10.40625  L 48.78125 2.09375  Q 45.015625 0.34375 40.984375 -0.53125  Q 36.96875 -1.421875 32.421875 -1.421875  Q 20.0625 -1.421875 12.78125 6.34375  Q 5.515625 14.109375 5.515625 27.296875  Q 5.515625 40.671875 12.859375 48.328125  Q 20.21875 56 33.015625 56  Q 37.15625 56 41.109375 55.140625  Q 45.0625 54.296875 48.78125 52.59375  z "
               id="DejaVuSans-99" />
          </defs>
          <g
             transform="translate(93.34 295.100312)scale(0.1 -0.1)"
             id="g1555">
            <use
               xlink:href="#DejaVuSans-83"
               id="use1509" />
            <use
               x="63.476562"
               xlink:href="#DejaVuSans-111"
               id="use1511" />
            <use
               x="124.658203"
               xlink:href="#DejaVuSans-117"
               id="use1513" />
            <use
               x="188.037109"
               xlink:href="#DejaVuSans-116"
               id="use1515" />
            <use
               x="227.246094"
               xlink:href="#DejaVuSans-104"
               id="use1517" />
            <use
               x="290.625"
               xlink:href="#DejaVuSans-32"
               id="use1519" />
            <path
               d="M 356.59961,63.1875 343.20898,26.90625 h 26.8125 z m -5.57813,9.71875 h 11.1875 L 389.99023,0 h -10.25 l -6.64062,18.703125 H 340.24023 L 333.59961,0 h -10.40625 z"
               id="use1521" />
            <use
               x="387.195312"
               xlink:href="#DejaVuSans-102"
               id="use1523" />
            <use
               x="422.400391"
               xlink:href="#DejaVuSans-114"
               id="use1525" />
            <use
               x="463.513672"
               xlink:href="#DejaVuSans-105"
               id="use1527" />
            <use
               x="491.296875"
               xlink:href="#DejaVuSans-99"
               id="use1529" />
            <use
               x="546.277344"
               xlink:href="#DejaVuSans-97"
               id="use1531" />
            <use
               x="607.556641"
               xlink:href="#DejaVuSans-32"
               id="use1533" />
            <use
               x="639.34375"
               xlink:href="#DejaVuSans-40"
               id="use1535" />
            <use
               x="678.357422"
               xlink:href="#DejaVuSans-51"
               id="use1537" />
            <use
               x="741.980469"
               xlink:href="#DejaVuSans-49"
               id="use1539" />
            <use
               x="805.603516"
               xlink:href="#DejaVuSans-83"
               id="use1541" />
            <use
               x="869.080078"
               xlink:href="#DejaVuSans-44"
               id="use1543" />
            <use
               x="900.867188"
               xlink:href="#DejaVuSans-32"
               id="use1545" />
            <use
               x="932.654297"
               xlink:href="#DejaVuSans-50"
               id="use1547" />
            <use
               x="996.277344"
               xlink:href="#DejaVuSans-50"
               id="use1549" />
            <use
               x="1059.900391"
               xlink:href="#DejaVuSans-69"
               id="use1551" />
            <use
               x="1123.083984"
               xlink:href="#DejaVuSans-41"
               id="use1553" />
          </g>
        </g>
      </g>
    </g>
    <g
       id="text_33">
      <!-- Normalized paleolatitude -->
      <defs
         id="defs1563">
        <path
           d="M 52 44.1875  Q 55.375 50.25 60.0625 53.125  Q 64.75 56 71.09375 56  Q 79.640625 56 84.28125 50.015625  Q 88.921875 44.046875 88.921875 33.015625  L 88.921875 0  L 79.890625 0  L 79.890625 32.71875  Q 79.890625 40.578125 77.09375 44.375  Q 74.3125 48.1875 68.609375 48.1875  Q 61.625 48.1875 57.5625 43.546875  Q 53.515625 38.921875 53.515625 30.90625  L 53.515625 0  L 44.484375 0  L 44.484375 32.71875  Q 44.484375 40.625 41.703125 44.40625  Q 38.921875 48.1875 33.109375 48.1875  Q 26.21875 48.1875 22.15625 43.53125  Q 18.109375 38.875 18.109375 30.90625  L 18.109375 0  L 9.078125 0  L 9.078125 54.6875  L 18.109375 54.6875  L 18.109375 46.1875  Q 21.1875 51.21875 25.484375 53.609375  Q 29.78125 56 35.6875 56  Q 41.65625 56 45.828125 52.96875  Q 50 49.953125 52 44.1875  z "
           id="DejaVuSans-109" />
        <path
           d="M 5.515625 54.6875  L 48.1875 54.6875  L 48.1875 46.484375  L 14.40625 7.171875  L 48.1875 7.171875  L 48.1875 0  L 4.296875 0  L 4.296875 8.203125  L 38.09375 47.515625  L 5.515625 47.515625  z "
           id="DejaVuSans-122" />
        <path
           d="M 18.109375 8.203125  L 18.109375 -20.796875  L 9.078125 -20.796875  L 9.078125 54.6875  L 18.109375 54.6875  L 18.109375 46.390625  Q 20.953125 51.265625 25.265625 53.625  Q 29.59375 56 35.59375 56  Q 45.5625 56 51.78125 48.09375  Q 58.015625 40.1875 58.015625 27.296875  Q 58.015625 14.40625 51.78125 6.484375  Q 45.5625 -1.421875 35.59375 -1.421875  Q 29.59375 -1.421875 25.265625 0.953125  Q 20.953125 3.328125 18.109375 8.203125  z M 48.6875 27.296875  Q 48.6875 37.203125 44.609375 42.84375  Q 40.53125 48.484375 33.40625 48.484375  Q 26.265625 48.484375 22.1875 42.84375  Q 18.109375 37.203125 18.109375 27.296875  Q 18.109375 17.390625 22.1875 11.75  Q 26.265625 6.109375 33.40625 6.109375  Q 40.53125 6.109375 44.609375 11.75  Q 48.6875 17.390625 48.6875 27.296875  z "
           id="DejaVuSans-112" />
      </defs>
      <g
         transform="translate(18.597656 242.294766)rotate(-90)scale(0.15 -0.15)"
         id="g1613">
        <use
           xlink:href="#DejaVuSans-78"
           id="use1565" />
        <use
           x="74.804688"
           xlink:href="#DejaVuSans-111"
           id="use1567" />
        <use
           x="135.986328"
           xlink:href="#DejaVuSans-114"
           id="use1569" />
        <use
           x="175.349609"
           xlink:href="#DejaVuSans-109"
           id="use1571" />
        <use
           x="272.761719"
           xlink:href="#DejaVuSans-97"
           id="use1573" />
        <use
           x="334.041016"
           xlink:href="#DejaVuSans-108"
           id="use1575" />
        <use
           x="361.824219"
           xlink:href="#DejaVuSans-105"
           id="use1577" />
        <use
           x="389.607422"
           xlink:href="#DejaVuSans-122"
           id="use1579" />
        <use
           x="442.097656"
           xlink:href="#DejaVuSans-101"
           id="use1581" />
        <use
           x="503.621094"
           xlink:href="#DejaVuSans-100"
           id="use1583" />
        <use
           x="567.097656"
           xlink:href="#DejaVuSans-32"
           id="use1585" />
        <use
           x="598.884766"
           xlink:href="#DejaVuSans-112"
           id="use1587" />
        <use
           x="662.361328"
           xlink:href="#DejaVuSans-97"
           id="use1589" />
        <use
           x="723.640625"
           xlink:href="#DejaVuSans-108"
           id="use1591" />
        <use
           x="751.423828"
           xlink:href="#DejaVuSans-101"
           id="use1593" />
        <use
           x="812.947266"
           xlink:href="#DejaVuSans-111"
           id="use1595" />
        <use
           x="874.128906"
           xlink:href="#DejaVuSans-108"
           id="use1597" />
        <use
           x="901.912109"
           xlink:href="#DejaVuSans-97"
           id="use1599" />
        <use
           x="963.191406"
           xlink:href="#DejaVuSans-116"
           id="use1601" />
        <use
           x="1002.400391"
           xlink:href="#DejaVuSans-105"
           id="use1603" />
        <use
           x="1030.183594"
           xlink:href="#DejaVuSans-116"
           id="use1605" />
        <use
           x="1069.392578"
           xlink:href="#DejaVuSans-117"
           id="use1607" />
        <use
           x="1132.771484"
           xlink:href="#DejaVuSans-100"
           id="use1609" />
        <use
           x="1196.248047"
           xlink:href="#DejaVuSans-101"
           id="use1611" />
      </g>
    </g>
    <g
       id="text_34">
      <!-- Time (Ma) -->
      <defs
         id="defs1618">
        <path
           d="M -0.296875 72.90625  L 61.375 72.90625  L 61.375 64.59375  L 35.5 64.59375  L 35.5 0  L 25.59375 0  L 25.59375 64.59375  L -0.296875 64.59375  z "
           id="DejaVuSans-84" />
        <path
           d="M 9.8125 72.90625  L 24.515625 72.90625  L 43.109375 23.296875  L 61.8125 72.90625  L 76.515625 72.90625  L 76.515625 0  L 66.890625 0  L 66.890625 64.015625  L 48.09375 14.015625  L 38.1875 14.015625  L 19.390625 64.015625  L 19.390625 0  L 9.8125 0  z "
           id="DejaVuSans-77" />
      </defs>
      <g
         transform="translate(302.04 341.819062)scale(0.15 -0.15)"
         id="g1638">
        <use
           xlink:href="#DejaVuSans-84"
           id="use1620" />
        <use
           x="57.958984"
           xlink:href="#DejaVuSans-105"
           id="use1622" />
        <use
           x="85.742188"
           xlink:href="#DejaVuSans-109"
           id="use1624" />
        <use
           x="183.154297"
           xlink:href="#DejaVuSans-101"
           id="use1626" />
        <use
           x="244.677734"
           xlink:href="#DejaVuSans-32"
           id="use1628" />
        <use
           x="276.464844"
           xlink:href="#DejaVuSans-40"
           id="use1630" />
        <use
           x="315.478516"
           xlink:href="#DejaVuSans-77"
           id="use1632" />
        <use
           x="401.757812"
           xlink:href="#DejaVuSans-97"
           id="use1634" />
        <use
           x="463.037109"
           xlink:href="#DejaVuSans-41"
           id="use1636" />
      </g>
    </g>
  </g>
  <defs
     id="defs1648">
    <clipPath
       id="pb4daef2475">
      <rect
         height="135.9"
         width="585.9"
         x="56.34"
         y="7.2"
         id="rect1642" />
    </clipPath>
    <clipPath
       id="p33d2da59b6">
      <rect
         height="135.9"
         width="585.9"
         x="56.34"
         y="170.28"
         id="rect1645" />
    </clipPath>
  </defs>
  <text
     xml:space="preserve"
     style="font-size:22px;line-height:1.25;font-family:sans-serif;stroke-width:0.75"
     x="596.854"
     y="66.317108"
     id="text1658"
     inkscape:export-filename="/Users/mmijjum/Desktop/Manuscripts/SPRITE manuscript/Figure_2_updated.png"
     inkscape:export-xdpi="300"
     inkscape:export-ydpi="300"><tspan
       sodipodi:role="line"
       id="tspan1656"
       x="596.854"
       y="66.317108"
       style="font-size:22px;stroke-width:0.75">A)</tspan></text>
  <text
     xml:space="preserve"
     style="font-size:22px;line-height:1.25;font-family:sans-serif;stroke-width:0.75;stroke-linecap:butt;stroke-linejoin:round"
     x="595.89795"
     y="233.64905"
     id="text1658-0"
     inkscape:export-filename="/Users/mmijjum/Desktop/Manuscripts/SPRITE manuscript/Figure_2_updated.png"
     inkscape:export-xdpi="300"
     inkscape:export-ydpi="300"><tspan
       sodipodi:role="line"
       id="tspan1656-5"
       x="595.89795"
       y="233.64905"
       style="font-size:22px;stroke-width:0.75">B)</tspan></text>
</svg>
