<?xml version="1.0" encoding="utf-8" standalone="no"?>
<!DOCTYPE svg PUBLIC "-//W3C//DTD SVG 1.1//EN"
  "http://www.w3.org/Graphics/SVG/1.1/DTD/svg11.dtd">
<!-- Created with matplotlib (https://matplotlib.org/) -->
<svg height="265.099687pt" version="1.1" viewBox="0 0 457.209687 265.099687" width="457.209687pt" xmlns="http://www.w3.org/2000/svg" xmlns:xlink="http://www.w3.org/1999/xlink">
 <defs>
  <style type="text/css">
*{stroke-linecap:butt;stroke-linejoin:round;}
  </style>
 </defs>
 <g id="figure_1">
  <g id="patch_1">
   <path d="M 0 265.099687 
L 457.209687 265.099687 
L 457.209687 0 
L 0 0 
z
" style="fill:#ffffff;"/>
  </g>
  <g id="axes_1">
   <g id="patch_2">
    <path d="M 53.047188 224.64 
L 443.647188 224.64 
L 443.647188 7.2 
L 53.047188 7.2 
z
" style="fill:#ffffff;"/>
   </g>
   <g id="matplotlib.axis_1">
    <g id="xtick_1">
     <g id="line2d_1">
      <defs>
       <path d="M 0 0 
L 0 3.5 
" id="mb7d82cda28" style="stroke:#000000;stroke-width:0.8;"/>
      </defs>
      <g>
       <use style="stroke:#000000;stroke-width:0.8;" x="53.047188" xlink:href="#mb7d82cda28" y="224.64"/>
      </g>
     </g>
     <g id="text_1">
      <!-- 0 -->
      <defs>
       <path d="M 31.78125 66.40625 
Q 24.171875 66.40625 20.328125 58.90625 
Q 16.5 51.421875 16.5 36.375 
Q 16.5 21.390625 20.328125 13.890625 
Q 24.171875 6.390625 31.78125 6.390625 
Q 39.453125 6.390625 43.28125 13.890625 
Q 47.125 21.390625 47.125 36.375 
Q 47.125 51.421875 43.28125 58.90625 
Q 39.453125 66.40625 31.78125 66.40625 
z
M 31.78125 74.21875 
Q 44.046875 74.21875 50.515625 64.515625 
Q 56.984375 54.828125 56.984375 36.375 
Q 56.984375 17.96875 50.515625 8.265625 
Q 44.046875 -1.421875 31.78125 -1.421875 
Q 19.53125 -1.421875 13.0625 8.265625 
Q 6.59375 17.96875 6.59375 36.375 
Q 6.59375 54.828125 13.0625 64.515625 
Q 19.53125 74.21875 31.78125 74.21875 
z
" id="DejaVuSans-48"/>
      </defs>
      <g transform="translate(49.865938 239.238437)scale(0.1 -0.1)">
       <use xlink:href="#DejaVuSans-48"/>
      </g>
     </g>
    </g>
    <g id="xtick_2">
     <g id="line2d_2">
      <g>
       <use style="stroke:#000000;stroke-width:0.8;" x="108.847188" xlink:href="#mb7d82cda28" y="224.64"/>
      </g>
     </g>
     <g id="text_2">
      <!-- 10 -->
      <defs>
       <path d="M 12.40625 8.296875 
L 28.515625 8.296875 
L 28.515625 63.921875 
L 10.984375 60.40625 
L 10.984375 69.390625 
L 28.421875 72.90625 
L 38.28125 72.90625 
L 38.28125 8.296875 
L 54.390625 8.296875 
L 54.390625 0 
L 12.40625 0 
z
" id="DejaVuSans-49"/>
      </defs>
      <g transform="translate(102.484688 239.238437)scale(0.1 -0.1)">
       <use xlink:href="#DejaVuSans-49"/>
       <use x="63.623047" xlink:href="#DejaVuSans-48"/>
      </g>
     </g>
    </g>
    <g id="xtick_3">
     <g id="line2d_3">
      <g>
       <use style="stroke:#000000;stroke-width:0.8;" x="164.647188" xlink:href="#mb7d82cda28" y="224.64"/>
      </g>
     </g>
     <g id="text_3">
      <!-- 20 -->
      <defs>
       <path d="M 19.1875 8.296875 
L 53.609375 8.296875 
L 53.609375 0 
L 7.328125 0 
L 7.328125 8.296875 
Q 12.9375 14.109375 22.625 23.890625 
Q 32.328125 33.6875 34.8125 36.53125 
Q 39.546875 41.84375 41.421875 45.53125 
Q 43.3125 49.21875 43.3125 52.78125 
Q 43.3125 58.59375 39.234375 62.25 
Q 35.15625 65.921875 28.609375 65.921875 
Q 23.96875 65.921875 18.8125 64.3125 
Q 13.671875 62.703125 7.8125 59.421875 
L 7.8125 69.390625 
Q 13.765625 71.78125 18.9375 73 
Q 24.125 74.21875 28.421875 74.21875 
Q 39.75 74.21875 46.484375 68.546875 
Q 53.21875 62.890625 53.21875 53.421875 
Q 53.21875 48.921875 51.53125 44.890625 
Q 49.859375 40.875 45.40625 35.40625 
Q 44.1875 33.984375 37.640625 27.21875 
Q 31.109375 20.453125 19.1875 8.296875 
z
" id="DejaVuSans-50"/>
      </defs>
      <g transform="translate(158.284687 239.238437)scale(0.1 -0.1)">
       <use xlink:href="#DejaVuSans-50"/>
       <use x="63.623047" xlink:href="#DejaVuSans-48"/>
      </g>
     </g>
    </g>
    <g id="xtick_4">
     <g id="line2d_4">
      <g>
       <use style="stroke:#000000;stroke-width:0.8;" x="220.447188" xlink:href="#mb7d82cda28" y="224.64"/>
      </g>
     </g>
     <g id="text_4">
      <!-- 30 -->
      <defs>
       <path d="M 40.578125 39.3125 
Q 47.65625 37.796875 51.625 33 
Q 55.609375 28.21875 55.609375 21.1875 
Q 55.609375 10.40625 48.1875 4.484375 
Q 40.765625 -1.421875 27.09375 -1.421875 
Q 22.515625 -1.421875 17.65625 -0.515625 
Q 12.796875 0.390625 7.625 2.203125 
L 7.625 11.71875 
Q 11.71875 9.328125 16.59375 8.109375 
Q 21.484375 6.890625 26.8125 6.890625 
Q 36.078125 6.890625 40.9375 10.546875 
Q 45.796875 14.203125 45.796875 21.1875 
Q 45.796875 27.640625 41.28125 31.265625 
Q 36.765625 34.90625 28.71875 34.90625 
L 20.21875 34.90625 
L 20.21875 43.015625 
L 29.109375 43.015625 
Q 36.375 43.015625 40.234375 45.921875 
Q 44.09375 48.828125 44.09375 54.296875 
Q 44.09375 59.90625 40.109375 62.90625 
Q 36.140625 65.921875 28.71875 65.921875 
Q 24.65625 65.921875 20.015625 65.03125 
Q 15.375 64.15625 9.8125 62.3125 
L 9.8125 71.09375 
Q 15.4375 72.65625 20.34375 73.4375 
Q 25.25 74.21875 29.59375 74.21875 
Q 40.828125 74.21875 47.359375 69.109375 
Q 53.90625 64.015625 53.90625 55.328125 
Q 53.90625 49.265625 50.4375 45.09375 
Q 46.96875 40.921875 40.578125 39.3125 
z
" id="DejaVuSans-51"/>
      </defs>
      <g transform="translate(214.084688 239.238437)scale(0.1 -0.1)">
       <use xlink:href="#DejaVuSans-51"/>
       <use x="63.623047" xlink:href="#DejaVuSans-48"/>
      </g>
     </g>
    </g>
    <g id="xtick_5">
     <g id="line2d_5">
      <g>
       <use style="stroke:#000000;stroke-width:0.8;" x="276.247187" xlink:href="#mb7d82cda28" y="224.64"/>
      </g>
     </g>
     <g id="text_5">
      <!-- 40 -->
      <defs>
       <path d="M 37.796875 64.3125 
L 12.890625 25.390625 
L 37.796875 25.390625 
z
M 35.203125 72.90625 
L 47.609375 72.90625 
L 47.609375 25.390625 
L 58.015625 25.390625 
L 58.015625 17.1875 
L 47.609375 17.1875 
L 47.609375 0 
L 37.796875 0 
L 37.796875 17.1875 
L 4.890625 17.1875 
L 4.890625 26.703125 
z
" id="DejaVuSans-52"/>
      </defs>
      <g transform="translate(269.884687 239.238437)scale(0.1 -0.1)">
       <use xlink:href="#DejaVuSans-52"/>
       <use x="63.623047" xlink:href="#DejaVuSans-48"/>
      </g>
     </g>
    </g>
    <g id="xtick_6">
     <g id="line2d_6">
      <g>
       <use style="stroke:#000000;stroke-width:0.8;" x="332.047188" xlink:href="#mb7d82cda28" y="224.64"/>
      </g>
     </g>
     <g id="text_6">
      <!-- 50 -->
      <defs>
       <path d="M 10.796875 72.90625 
L 49.515625 72.90625 
L 49.515625 64.59375 
L 19.828125 64.59375 
L 19.828125 46.734375 
Q 21.96875 47.46875 24.109375 47.828125 
Q 26.265625 48.1875 28.421875 48.1875 
Q 40.625 48.1875 47.75 41.5 
Q 54.890625 34.8125 54.890625 23.390625 
Q 54.890625 11.625 47.5625 5.09375 
Q 40.234375 -1.421875 26.90625 -1.421875 
Q 22.3125 -1.421875 17.546875 -0.640625 
Q 12.796875 0.140625 7.71875 1.703125 
L 7.71875 11.625 
Q 12.109375 9.234375 16.796875 8.0625 
Q 21.484375 6.890625 26.703125 6.890625 
Q 35.15625 6.890625 40.078125 11.328125 
Q 45.015625 15.765625 45.015625 23.390625 
Q 45.015625 31 40.078125 35.4375 
Q 35.15625 39.890625 26.703125 39.890625 
Q 22.75 39.890625 18.8125 39.015625 
Q 14.890625 38.140625 10.796875 36.28125 
z
" id="DejaVuSans-53"/>
      </defs>
      <g transform="translate(325.684687 239.238437)scale(0.1 -0.1)">
       <use xlink:href="#DejaVuSans-53"/>
       <use x="63.623047" xlink:href="#DejaVuSans-48"/>
      </g>
     </g>
    </g>
    <g id="xtick_7">
     <g id="line2d_7">
      <g>
       <use style="stroke:#000000;stroke-width:0.8;" x="387.847188" xlink:href="#mb7d82cda28" y="224.64"/>
      </g>
     </g>
     <g id="text_7">
      <!-- 60 -->
      <defs>
       <path d="M 33.015625 40.375 
Q 26.375 40.375 22.484375 35.828125 
Q 18.609375 31.296875 18.609375 23.390625 
Q 18.609375 15.53125 22.484375 10.953125 
Q 26.375 6.390625 33.015625 6.390625 
Q 39.65625 6.390625 43.53125 10.953125 
Q 47.40625 15.53125 47.40625 23.390625 
Q 47.40625 31.296875 43.53125 35.828125 
Q 39.65625 40.375 33.015625 40.375 
z
M 52.59375 71.296875 
L 52.59375 62.3125 
Q 48.875 64.0625 45.09375 64.984375 
Q 41.3125 65.921875 37.59375 65.921875 
Q 27.828125 65.921875 22.671875 59.328125 
Q 17.53125 52.734375 16.796875 39.40625 
Q 19.671875 43.65625 24.015625 45.921875 
Q 28.375 48.1875 33.59375 48.1875 
Q 44.578125 48.1875 50.953125 41.515625 
Q 57.328125 34.859375 57.328125 23.390625 
Q 57.328125 12.15625 50.6875 5.359375 
Q 44.046875 -1.421875 33.015625 -1.421875 
Q 20.359375 -1.421875 13.671875 8.265625 
Q 6.984375 17.96875 6.984375 36.375 
Q 6.984375 53.65625 15.1875 63.9375 
Q 23.390625 74.21875 37.203125 74.21875 
Q 40.921875 74.21875 44.703125 73.484375 
Q 48.484375 72.75 52.59375 71.296875 
z
" id="DejaVuSans-54"/>
      </defs>
      <g transform="translate(381.484688 239.238437)scale(0.1 -0.1)">
       <use xlink:href="#DejaVuSans-54"/>
       <use x="63.623047" xlink:href="#DejaVuSans-48"/>
      </g>
     </g>
    </g>
    <g id="xtick_8">
     <g id="line2d_8">
      <g>
       <use style="stroke:#000000;stroke-width:0.8;" x="443.647188" xlink:href="#mb7d82cda28" y="224.64"/>
      </g>
     </g>
     <g id="text_8">
      <!-- 70 -->
      <defs>
       <path d="M 8.203125 72.90625 
L 55.078125 72.90625 
L 55.078125 68.703125 
L 28.609375 0 
L 18.3125 0 
L 43.21875 64.59375 
L 8.203125 64.59375 
z
" id="DejaVuSans-55"/>
      </defs>
      <g transform="translate(437.284688 239.238437)scale(0.1 -0.1)">
       <use xlink:href="#DejaVuSans-55"/>
       <use x="63.623047" xlink:href="#DejaVuSans-48"/>
      </g>
     </g>
    </g>
    <g id="text_9">
     <!-- Time (Ma) -->
     <defs>
      <path d="M -0.296875 72.90625 
L 61.375 72.90625 
L 61.375 64.59375 
L 35.5 64.59375 
L 35.5 0 
L 25.59375 0 
L 25.59375 64.59375 
L -0.296875 64.59375 
z
" id="DejaVuSans-84"/>
      <path d="M 9.421875 54.6875 
L 18.40625 54.6875 
L 18.40625 0 
L 9.421875 0 
z
M 9.421875 75.984375 
L 18.40625 75.984375 
L 18.40625 64.59375 
L 9.421875 64.59375 
z
" id="DejaVuSans-105"/>
      <path d="M 52 44.1875 
Q 55.375 50.25 60.0625 53.125 
Q 64.75 56 71.09375 56 
Q 79.640625 56 84.28125 50.015625 
Q 88.921875 44.046875 88.921875 33.015625 
L 88.921875 0 
L 79.890625 0 
L 79.890625 32.71875 
Q 79.890625 40.578125 77.09375 44.375 
Q 74.3125 48.1875 68.609375 48.1875 
Q 61.625 48.1875 57.5625 43.546875 
Q 53.515625 38.921875 53.515625 30.90625 
L 53.515625 0 
L 44.484375 0 
L 44.484375 32.71875 
Q 44.484375 40.625 41.703125 44.40625 
Q 38.921875 48.1875 33.109375 48.1875 
Q 26.21875 48.1875 22.15625 43.53125 
Q 18.109375 38.875 18.109375 30.90625 
L 18.109375 0 
L 9.078125 0 
L 9.078125 54.6875 
L 18.109375 54.6875 
L 18.109375 46.1875 
Q 21.1875 51.21875 25.484375 53.609375 
Q 29.78125 56 35.6875 56 
Q 41.65625 56 45.828125 52.96875 
Q 50 49.953125 52 44.1875 
z
" id="DejaVuSans-109"/>
      <path d="M 56.203125 29.59375 
L 56.203125 25.203125 
L 14.890625 25.203125 
Q 15.484375 15.921875 20.484375 11.0625 
Q 25.484375 6.203125 34.421875 6.203125 
Q 39.59375 6.203125 44.453125 7.46875 
Q 49.3125 8.734375 54.109375 11.28125 
L 54.109375 2.78125 
Q 49.265625 0.734375 44.1875 -0.34375 
Q 39.109375 -1.421875 33.890625 -1.421875 
Q 20.796875 -1.421875 13.15625 6.1875 
Q 5.515625 13.8125 5.515625 26.8125 
Q 5.515625 40.234375 12.765625 48.109375 
Q 20.015625 56 32.328125 56 
Q 43.359375 56 49.78125 48.890625 
Q 56.203125 41.796875 56.203125 29.59375 
z
M 47.21875 32.234375 
Q 47.125 39.59375 43.09375 43.984375 
Q 39.0625 48.390625 32.421875 48.390625 
Q 24.90625 48.390625 20.390625 44.140625 
Q 15.875 39.890625 15.1875 32.171875 
z
" id="DejaVuSans-101"/>
      <path id="DejaVuSans-32"/>
      <path d="M 31 75.875 
Q 24.46875 64.65625 21.28125 53.65625 
Q 18.109375 42.671875 18.109375 31.390625 
Q 18.109375 20.125 21.3125 9.0625 
Q 24.515625 -2 31 -13.1875 
L 23.1875 -13.1875 
Q 15.875 -1.703125 12.234375 9.375 
Q 8.59375 20.453125 8.59375 31.390625 
Q 8.59375 42.28125 12.203125 53.3125 
Q 15.828125 64.359375 23.1875 75.875 
z
" id="DejaVuSans-40"/>
      <path d="M 9.8125 72.90625 
L 24.515625 72.90625 
L 43.109375 23.296875 
L 61.8125 72.90625 
L 76.515625 72.90625 
L 76.515625 0 
L 66.890625 0 
L 66.890625 64.015625 
L 48.09375 14.015625 
L 38.1875 14.015625 
L 19.390625 64.015625 
L 19.390625 0 
L 9.8125 0 
z
" id="DejaVuSans-77"/>
      <path d="M 34.28125 27.484375 
Q 23.390625 27.484375 19.1875 25 
Q 14.984375 22.515625 14.984375 16.5 
Q 14.984375 11.71875 18.140625 8.90625 
Q 21.296875 6.109375 26.703125 6.109375 
Q 34.1875 6.109375 38.703125 11.40625 
Q 43.21875 16.703125 43.21875 25.484375 
L 43.21875 27.484375 
z
M 52.203125 31.203125 
L 52.203125 0 
L 43.21875 0 
L 43.21875 8.296875 
Q 40.140625 3.328125 35.546875 0.953125 
Q 30.953125 -1.421875 24.3125 -1.421875 
Q 15.921875 -1.421875 10.953125 3.296875 
Q 6 8.015625 6 15.921875 
Q 6 25.140625 12.171875 29.828125 
Q 18.359375 34.515625 30.609375 34.515625 
L 43.21875 34.515625 
L 43.21875 35.40625 
Q 43.21875 41.609375 39.140625 45 
Q 35.0625 48.390625 27.6875 48.390625 
Q 23 48.390625 18.546875 47.265625 
Q 14.109375 46.140625 10.015625 43.890625 
L 10.015625 52.203125 
Q 14.9375 54.109375 19.578125 55.046875 
Q 24.21875 56 28.609375 56 
Q 40.484375 56 46.34375 49.84375 
Q 52.203125 43.703125 52.203125 31.203125 
z
" id="DejaVuSans-97"/>
      <path d="M 8.015625 75.875 
L 15.828125 75.875 
Q 23.140625 64.359375 26.78125 53.3125 
Q 30.421875 42.28125 30.421875 31.390625 
Q 30.421875 20.453125 26.78125 9.375 
Q 23.140625 -1.703125 15.828125 -13.1875 
L 8.015625 -13.1875 
Q 14.5 -2 17.703125 9.0625 
Q 20.90625 20.125 20.90625 31.390625 
Q 20.90625 42.671875 17.703125 53.65625 
Q 14.5 64.65625 8.015625 75.875 
z
" id="DejaVuSans-41"/>
     </defs>
     <g transform="translate(215.714141 255.196094)scale(0.13 -0.13)">
      <use xlink:href="#DejaVuSans-84"/>
      <use x="57.958984" xlink:href="#DejaVuSans-105"/>
      <use x="85.742188" xlink:href="#DejaVuSans-109"/>
      <use x="183.154297" xlink:href="#DejaVuSans-101"/>
      <use x="244.677734" xlink:href="#DejaVuSans-32"/>
      <use x="276.464844" xlink:href="#DejaVuSans-40"/>
      <use x="315.478516" xlink:href="#DejaVuSans-77"/>
      <use x="401.757812" xlink:href="#DejaVuSans-97"/>
      <use x="463.037109" xlink:href="#DejaVuSans-41"/>
     </g>
    </g>
   </g>
   <g id="matplotlib.axis_2">
    <g id="ytick_1">
     <g id="line2d_9">
      <defs>
       <path d="M 0 0 
L -3.5 0 
" id="m46684e497c" style="stroke:#000000;stroke-width:0.8;"/>
      </defs>
      <g>
       <use style="stroke:#000000;stroke-width:0.8;" x="53.047188" xlink:href="#m46684e497c" y="198.866084"/>
      </g>
     </g>
     <g id="text_10">
      <!-- 0.85 -->
      <defs>
       <path d="M 10.6875 12.40625 
L 21 12.40625 
L 21 0 
L 10.6875 0 
z
" id="DejaVuSans-46"/>
       <path d="M 31.78125 34.625 
Q 24.75 34.625 20.71875 30.859375 
Q 16.703125 27.09375 16.703125 20.515625 
Q 16.703125 13.921875 20.71875 10.15625 
Q 24.75 6.390625 31.78125 6.390625 
Q 38.8125 6.390625 42.859375 10.171875 
Q 46.921875 13.96875 46.921875 20.515625 
Q 46.921875 27.09375 42.890625 30.859375 
Q 38.875 34.625 31.78125 34.625 
z
M 21.921875 38.8125 
Q 15.578125 40.375 12.03125 44.71875 
Q 8.5 49.078125 8.5 55.328125 
Q 8.5 64.0625 14.71875 69.140625 
Q 20.953125 74.21875 31.78125 74.21875 
Q 42.671875 74.21875 48.875 69.140625 
Q 55.078125 64.0625 55.078125 55.328125 
Q 55.078125 49.078125 51.53125 44.71875 
Q 48 40.375 41.703125 38.8125 
Q 48.828125 37.15625 52.796875 32.3125 
Q 56.78125 27.484375 56.78125 20.515625 
Q 56.78125 9.90625 50.3125 4.234375 
Q 43.84375 -1.421875 31.78125 -1.421875 
Q 19.734375 -1.421875 13.25 4.234375 
Q 6.78125 9.90625 6.78125 20.515625 
Q 6.78125 27.484375 10.78125 32.3125 
Q 14.796875 37.15625 21.921875 38.8125 
z
M 18.3125 54.390625 
Q 18.3125 48.734375 21.84375 45.5625 
Q 25.390625 42.390625 31.78125 42.390625 
Q 38.140625 42.390625 41.71875 45.5625 
Q 45.3125 48.734375 45.3125 54.390625 
Q 45.3125 60.0625 41.71875 63.234375 
Q 38.140625 66.40625 31.78125 66.40625 
Q 25.390625 66.40625 21.84375 63.234375 
Q 18.3125 60.0625 18.3125 54.390625 
z
" id="DejaVuSans-56"/>
      </defs>
      <g transform="translate(23.781563 202.665303)scale(0.1 -0.1)">
       <use xlink:href="#DejaVuSans-48"/>
       <use x="63.623047" xlink:href="#DejaVuSans-46"/>
       <use x="95.410156" xlink:href="#DejaVuSans-56"/>
       <use x="159.033203" xlink:href="#DejaVuSans-53"/>
      </g>
     </g>
    </g>
    <g id="ytick_2">
     <g id="line2d_10">
      <g>
       <use style="stroke:#000000;stroke-width:0.8;" x="53.047188" xlink:href="#m46684e497c" y="168.373099"/>
      </g>
     </g>
     <g id="text_11">
      <!-- 0.90 -->
      <defs>
       <path d="M 10.984375 1.515625 
L 10.984375 10.5 
Q 14.703125 8.734375 18.5 7.8125 
Q 22.3125 6.890625 25.984375 6.890625 
Q 35.75 6.890625 40.890625 13.453125 
Q 46.046875 20.015625 46.78125 33.40625 
Q 43.953125 29.203125 39.59375 26.953125 
Q 35.25 24.703125 29.984375 24.703125 
Q 19.046875 24.703125 12.671875 31.3125 
Q 6.296875 37.9375 6.296875 49.421875 
Q 6.296875 60.640625 12.9375 67.421875 
Q 19.578125 74.21875 30.609375 74.21875 
Q 43.265625 74.21875 49.921875 64.515625 
Q 56.59375 54.828125 56.59375 36.375 
Q 56.59375 19.140625 48.40625 8.859375 
Q 40.234375 -1.421875 26.421875 -1.421875 
Q 22.703125 -1.421875 18.890625 -0.6875 
Q 15.09375 0.046875 10.984375 1.515625 
z
M 30.609375 32.421875 
Q 37.25 32.421875 41.125 36.953125 
Q 45.015625 41.5 45.015625 49.421875 
Q 45.015625 57.28125 41.125 61.84375 
Q 37.25 66.40625 30.609375 66.40625 
Q 23.96875 66.40625 20.09375 61.84375 
Q 16.21875 57.28125 16.21875 49.421875 
Q 16.21875 41.5 20.09375 36.953125 
Q 23.96875 32.421875 30.609375 32.421875 
z
" id="DejaVuSans-57"/>
      </defs>
      <g transform="translate(23.781563 172.172318)scale(0.1 -0.1)">
       <use xlink:href="#DejaVuSans-48"/>
       <use x="63.623047" xlink:href="#DejaVuSans-46"/>
       <use x="95.410156" xlink:href="#DejaVuSans-57"/>
       <use x="159.033203" xlink:href="#DejaVuSans-48"/>
      </g>
     </g>
    </g>
    <g id="ytick_3">
     <g id="line2d_11">
      <g>
       <use style="stroke:#000000;stroke-width:0.8;" x="53.047188" xlink:href="#m46684e497c" y="137.880115"/>
      </g>
     </g>
     <g id="text_12">
      <!-- 0.95 -->
      <g transform="translate(23.781563 141.679333)scale(0.1 -0.1)">
       <use xlink:href="#DejaVuSans-48"/>
       <use x="63.623047" xlink:href="#DejaVuSans-46"/>
       <use x="95.410156" xlink:href="#DejaVuSans-57"/>
       <use x="159.033203" xlink:href="#DejaVuSans-53"/>
      </g>
     </g>
    </g>
    <g id="ytick_4">
     <g id="line2d_12">
      <g>
       <use style="stroke:#000000;stroke-width:0.8;" x="53.047188" xlink:href="#m46684e497c" y="107.38713"/>
      </g>
     </g>
     <g id="text_13">
      <!-- 1.00 -->
      <g transform="translate(23.781563 111.186349)scale(0.1 -0.1)">
       <use xlink:href="#DejaVuSans-49"/>
       <use x="63.623047" xlink:href="#DejaVuSans-46"/>
       <use x="95.410156" xlink:href="#DejaVuSans-48"/>
       <use x="159.033203" xlink:href="#DejaVuSans-48"/>
      </g>
     </g>
    </g>
    <g id="ytick_5">
     <g id="line2d_13">
      <g>
       <use style="stroke:#000000;stroke-width:0.8;" x="53.047188" xlink:href="#m46684e497c" y="76.894145"/>
      </g>
     </g>
     <g id="text_14">
      <!-- 1.05 -->
      <g transform="translate(23.781563 80.693364)scale(0.1 -0.1)">
       <use xlink:href="#DejaVuSans-49"/>
       <use x="63.623047" xlink:href="#DejaVuSans-46"/>
       <use x="95.410156" xlink:href="#DejaVuSans-48"/>
       <use x="159.033203" xlink:href="#DejaVuSans-53"/>
      </g>
     </g>
    </g>
    <g id="ytick_6">
     <g id="line2d_14">
      <g>
       <use style="stroke:#000000;stroke-width:0.8;" x="53.047188" xlink:href="#m46684e497c" y="46.40116"/>
      </g>
     </g>
     <g id="text_15">
      <!-- 1.10 -->
      <g transform="translate(23.781563 50.200379)scale(0.1 -0.1)">
       <use xlink:href="#DejaVuSans-49"/>
       <use x="63.623047" xlink:href="#DejaVuSans-46"/>
       <use x="95.410156" xlink:href="#DejaVuSans-49"/>
       <use x="159.033203" xlink:href="#DejaVuSans-48"/>
      </g>
     </g>
    </g>
    <g id="ytick_7">
     <g id="line2d_15">
      <g>
       <use style="stroke:#000000;stroke-width:0.8;" x="53.047188" xlink:href="#m46684e497c" y="15.908176"/>
      </g>
     </g>
     <g id="text_16">
      <!-- 1.15 -->
      <g transform="translate(23.781563 19.707394)scale(0.1 -0.1)">
       <use xlink:href="#DejaVuSans-49"/>
       <use x="63.623047" xlink:href="#DejaVuSans-46"/>
       <use x="95.410156" xlink:href="#DejaVuSans-49"/>
       <use x="159.033203" xlink:href="#DejaVuSans-53"/>
      </g>
     </g>
    </g>
    <g id="text_17">
     <!-- Scaling factor ratio -->
     <defs>
      <path d="M 53.515625 70.515625 
L 53.515625 60.890625 
Q 47.90625 63.578125 42.921875 64.890625 
Q 37.9375 66.21875 33.296875 66.21875 
Q 25.25 66.21875 20.875 63.09375 
Q 16.5 59.96875 16.5 54.203125 
Q 16.5 49.359375 19.40625 46.890625 
Q 22.3125 44.4375 30.421875 42.921875 
L 36.375 41.703125 
Q 47.40625 39.59375 52.65625 34.296875 
Q 57.90625 29 57.90625 20.125 
Q 57.90625 9.515625 50.796875 4.046875 
Q 43.703125 -1.421875 29.984375 -1.421875 
Q 24.8125 -1.421875 18.96875 -0.25 
Q 13.140625 0.921875 6.890625 3.21875 
L 6.890625 13.375 
Q 12.890625 10.015625 18.65625 8.296875 
Q 24.421875 6.59375 29.984375 6.59375 
Q 38.421875 6.59375 43.015625 9.90625 
Q 47.609375 13.234375 47.609375 19.390625 
Q 47.609375 24.75 44.3125 27.78125 
Q 41.015625 30.8125 33.5 32.328125 
L 27.484375 33.5 
Q 16.453125 35.6875 11.515625 40.375 
Q 6.59375 45.0625 6.59375 53.421875 
Q 6.59375 63.09375 13.40625 68.65625 
Q 20.21875 74.21875 32.171875 74.21875 
Q 37.3125 74.21875 42.625 73.28125 
Q 47.953125 72.359375 53.515625 70.515625 
z
" id="DejaVuSans-83"/>
      <path d="M 48.78125 52.59375 
L 48.78125 44.1875 
Q 44.96875 46.296875 41.140625 47.34375 
Q 37.3125 48.390625 33.40625 48.390625 
Q 24.65625 48.390625 19.8125 42.84375 
Q 14.984375 37.3125 14.984375 27.296875 
Q 14.984375 17.28125 19.8125 11.734375 
Q 24.65625 6.203125 33.40625 6.203125 
Q 37.3125 6.203125 41.140625 7.25 
Q 44.96875 8.296875 48.78125 10.40625 
L 48.78125 2.09375 
Q 45.015625 0.34375 40.984375 -0.53125 
Q 36.96875 -1.421875 32.421875 -1.421875 
Q 20.0625 -1.421875 12.78125 6.34375 
Q 5.515625 14.109375 5.515625 27.296875 
Q 5.515625 40.671875 12.859375 48.328125 
Q 20.21875 56 33.015625 56 
Q 37.15625 56 41.109375 55.140625 
Q 45.0625 54.296875 48.78125 52.59375 
z
" id="DejaVuSans-99"/>
      <path d="M 9.421875 75.984375 
L 18.40625 75.984375 
L 18.40625 0 
L 9.421875 0 
z
" id="DejaVuSans-108"/>
      <path d="M 54.890625 33.015625 
L 54.890625 0 
L 45.90625 0 
L 45.90625 32.71875 
Q 45.90625 40.484375 42.875 44.328125 
Q 39.84375 48.1875 33.796875 48.1875 
Q 26.515625 48.1875 22.3125 43.546875 
Q 18.109375 38.921875 18.109375 30.90625 
L 18.109375 0 
L 9.078125 0 
L 9.078125 54.6875 
L 18.109375 54.6875 
L 18.109375 46.1875 
Q 21.34375 51.125 25.703125 53.5625 
Q 30.078125 56 35.796875 56 
Q 45.21875 56 50.046875 50.171875 
Q 54.890625 44.34375 54.890625 33.015625 
z
" id="DejaVuSans-110"/>
      <path d="M 45.40625 27.984375 
Q 45.40625 37.75 41.375 43.109375 
Q 37.359375 48.484375 30.078125 48.484375 
Q 22.859375 48.484375 18.828125 43.109375 
Q 14.796875 37.75 14.796875 27.984375 
Q 14.796875 18.265625 18.828125 12.890625 
Q 22.859375 7.515625 30.078125 7.515625 
Q 37.359375 7.515625 41.375 12.890625 
Q 45.40625 18.265625 45.40625 27.984375 
z
M 54.390625 6.78125 
Q 54.390625 -7.171875 48.1875 -13.984375 
Q 42 -20.796875 29.203125 -20.796875 
Q 24.46875 -20.796875 20.265625 -20.09375 
Q 16.0625 -19.390625 12.109375 -17.921875 
L 12.109375 -9.1875 
Q 16.0625 -11.328125 19.921875 -12.34375 
Q 23.78125 -13.375 27.78125 -13.375 
Q 36.625 -13.375 41.015625 -8.765625 
Q 45.40625 -4.15625 45.40625 5.171875 
L 45.40625 9.625 
Q 42.625 4.78125 38.28125 2.390625 
Q 33.9375 0 27.875 0 
Q 17.828125 0 11.671875 7.65625 
Q 5.515625 15.328125 5.515625 27.984375 
Q 5.515625 40.671875 11.671875 48.328125 
Q 17.828125 56 27.875 56 
Q 33.9375 56 38.28125 53.609375 
Q 42.625 51.21875 45.40625 46.390625 
L 45.40625 54.6875 
L 54.390625 54.6875 
z
" id="DejaVuSans-103"/>
      <path d="M 37.109375 75.984375 
L 37.109375 68.5 
L 28.515625 68.5 
Q 23.6875 68.5 21.796875 66.546875 
Q 19.921875 64.59375 19.921875 59.515625 
L 19.921875 54.6875 
L 34.71875 54.6875 
L 34.71875 47.703125 
L 19.921875 47.703125 
L 19.921875 0 
L 10.890625 0 
L 10.890625 47.703125 
L 2.296875 47.703125 
L 2.296875 54.6875 
L 10.890625 54.6875 
L 10.890625 58.5 
Q 10.890625 67.625 15.140625 71.796875 
Q 19.390625 75.984375 28.609375 75.984375 
z
" id="DejaVuSans-102"/>
      <path d="M 18.3125 70.21875 
L 18.3125 54.6875 
L 36.8125 54.6875 
L 36.8125 47.703125 
L 18.3125 47.703125 
L 18.3125 18.015625 
Q 18.3125 11.328125 20.140625 9.421875 
Q 21.96875 7.515625 27.59375 7.515625 
L 36.8125 7.515625 
L 36.8125 0 
L 27.59375 0 
Q 17.1875 0 13.234375 3.875 
Q 9.28125 7.765625 9.28125 18.015625 
L 9.28125 47.703125 
L 2.6875 47.703125 
L 2.6875 54.6875 
L 9.28125 54.6875 
L 9.28125 70.21875 
z
" id="DejaVuSans-116"/>
      <path d="M 30.609375 48.390625 
Q 23.390625 48.390625 19.1875 42.75 
Q 14.984375 37.109375 14.984375 27.296875 
Q 14.984375 17.484375 19.15625 11.84375 
Q 23.34375 6.203125 30.609375 6.203125 
Q 37.796875 6.203125 41.984375 11.859375 
Q 46.1875 17.53125 46.1875 27.296875 
Q 46.1875 37.015625 41.984375 42.703125 
Q 37.796875 48.390625 30.609375 48.390625 
z
M 30.609375 56 
Q 42.328125 56 49.015625 48.375 
Q 55.71875 40.765625 55.71875 27.296875 
Q 55.71875 13.875 49.015625 6.21875 
Q 42.328125 -1.421875 30.609375 -1.421875 
Q 18.84375 -1.421875 12.171875 6.21875 
Q 5.515625 13.875 5.515625 27.296875 
Q 5.515625 40.765625 12.171875 48.375 
Q 18.84375 56 30.609375 56 
z
" id="DejaVuSans-111"/>
      <path d="M 41.109375 46.296875 
Q 39.59375 47.171875 37.8125 47.578125 
Q 36.03125 48 33.890625 48 
Q 26.265625 48 22.1875 43.046875 
Q 18.109375 38.09375 18.109375 28.8125 
L 18.109375 0 
L 9.078125 0 
L 9.078125 54.6875 
L 18.109375 54.6875 
L 18.109375 46.1875 
Q 20.953125 51.171875 25.484375 53.578125 
Q 30.03125 56 36.53125 56 
Q 37.453125 56 38.578125 55.875 
Q 39.703125 55.765625 41.0625 55.515625 
z
" id="DejaVuSans-114"/>
     </defs>
     <g transform="translate(17.077969 177.622266)rotate(-90)scale(0.13 -0.13)">
      <use xlink:href="#DejaVuSans-83"/>
      <use x="63.476562" xlink:href="#DejaVuSans-99"/>
      <use x="118.457031" xlink:href="#DejaVuSans-97"/>
      <use x="179.736328" xlink:href="#DejaVuSans-108"/>
      <use x="207.519531" xlink:href="#DejaVuSans-105"/>
      <use x="235.302734" xlink:href="#DejaVuSans-110"/>
      <use x="298.681641" xlink:href="#DejaVuSans-103"/>
      <use x="362.158203" xlink:href="#DejaVuSans-32"/>
      <use x="393.945312" xlink:href="#DejaVuSans-102"/>
      <use x="429.150391" xlink:href="#DejaVuSans-97"/>
      <use x="490.429688" xlink:href="#DejaVuSans-99"/>
      <use x="545.410156" xlink:href="#DejaVuSans-116"/>
      <use x="584.619141" xlink:href="#DejaVuSans-111"/>
      <use x="645.800781" xlink:href="#DejaVuSans-114"/>
      <use x="686.914062" xlink:href="#DejaVuSans-32"/>
      <use x="718.701172" xlink:href="#DejaVuSans-114"/>
      <use x="759.814453" xlink:href="#DejaVuSans-97"/>
      <use x="821.09375" xlink:href="#DejaVuSans-116"/>
      <use x="860.302734" xlink:href="#DejaVuSans-105"/>
      <use x="888.085938" xlink:href="#DejaVuSans-111"/>
     </g>
    </g>
   </g>
   <g id="line2d_16">
    <path clip-path="url(#pe1ff398cf9)" d="M 53.047188 92.837466 
L 53.326188 125.392841 
L 53.605188 114.900765 
L 53.884188 137.886172 
L 54.163188 85.000771 
L 54.442188 97.111347 
L 54.721188 102.812242 
L 55.000188 94.423831 
L 55.558188 116.917127 
L 55.837188 107.060858 
L 56.116188 85.28985 
L 56.395188 93.203858 
L 56.674188 72.729357 
L 56.953188 61.795396 
L 57.511188 175.924007 
L 57.790188 102.186356 
L 58.069188 102.421512 
L 58.348188 79.391684 
L 58.627188 101.790432 
L 58.906188 68.711009 
L 59.185188 97.622847 
L 59.464188 109.701805 
L 60.022188 145.106901 
L 60.301188 112.785029 
L 60.580188 37.826537 
L 61.138188 103.125451 
L 61.417188 154.204624 
L 61.696188 148.219704 
L 61.975188 113.746834 
L 62.254188 104.994784 
L 62.533188 118.20452 
L 62.812188 110.584914 
L 63.091188 91.324485 
L 63.370188 88.388095 
L 63.649188 90.682457 
L 64.207188 107.262319 
L 64.486188 126.983719 
L 65.044188 144.263547 
L 65.323188 112.99057 
L 65.602188 96.652346 
L 65.881188 124.895499 
L 66.160188 114.414513 
L 66.439188 111.14454 
L 66.718188 106.124976 
L 66.997188 103.87835 
L 67.276188 105.438516 
L 67.555188 117.169514 
L 67.834188 123.218089 
L 68.113188 102.676116 
L 68.392188 104.720902 
L 68.671188 95.495603 
L 68.950188 93.68054 
L 69.508188 124.661117 
L 69.787188 120.066445 
L 70.066188 110.314374 
L 70.345188 109.752859 
L 70.624188 104.961843 
L 70.903188 106.566249 
L 71.182188 113.806055 
L 71.461188 87.776083 
L 71.740188 84.746089 
L 72.019188 89.54092 
L 72.856188 127.261559 
L 73.135188 130.717395 
L 73.414188 126.673617 
L 73.972188 102.466511 
L 74.251188 131.562031 
L 75.367188 109.342559 
L 75.646188 119.514327 
L 76.483188 107.806175 
L 76.762188 106.367453 
L 77.041188 97.814789 
L 77.320188 98.964737 
L 77.599188 100.614909 
L 77.878188 104.682931 
L 78.157188 110.671982 
L 78.436188 102.665589 
L 78.715188 104.544663 
L 78.994188 105.330257 
L 79.273188 105.700547 
L 79.552188 107.725169 
L 79.831188 89.602551 
L 80.947188 106.149504 
L 81.226188 121.19758 
L 81.505188 120.936008 
L 81.784188 118.572716 
L 82.063188 114.318086 
L 82.342188 108.065956 
L 82.621188 64.620242 
L 82.900188 61.650787 
L 83.179188 68.703209 
L 83.737188 109.481817 
L 84.016188 39.360186 
L 84.574188 86.0397 
L 84.853188 99.970529 
L 85.132188 107.639521 
L 85.411188 96.382653 
L 85.690188 96.203968 
L 85.969188 97.208518 
L 86.248188 101.408872 
L 86.527188 107.846164 
L 86.806188 107.097246 
L 87.085188 111.600311 
L 87.364188 112.654952 
L 87.643188 112.264937 
L 87.922188 108.663542 
L 88.201188 153.48184 
L 88.480188 144.503152 
L 89.317188 103.496461 
L 89.596188 86.533719 
L 89.875188 92.752697 
L 90.433188 113.669971 
L 90.712187 116.207553 
L 90.991188 148.316293 
L 91.828188 115.756756 
L 92.107188 112.904802 
L 92.386188 116.687833 
L 92.665188 106.974726 
L 92.944188 106.01523 
L 93.502188 109.207719 
L 93.781188 166.918473 
L 94.339188 134.841733 
L 94.897188 105.905753 
L 95.176188 70.297324 
L 95.455188 74.137805 
L 96.013188 94.927598 
L 96.292188 108.620866 
L 96.571188 57.070261 
L 97.687188 102.490388 
L 97.966188 92.044261 
L 98.524188 115.834949 
L 98.803188 121.554147 
L 99.082188 109.684176 
L 99.361188 155.480656 
L 99.919188 124.607948 
L 100.477188 109.528029 
L 100.756188 112.732893 
L 101.035188 109.416964 
L 101.314188 108.676176 
L 101.872188 110.041496 
L 102.151188 100.258551 
L 102.430188 97.435412 
L 102.709188 97.153365 
L 102.988188 99.331292 
L 103.267188 105.158954 
L 103.546188 72.466108 
L 104.383188 100.82179 
L 104.662188 107.642596 
L 104.941188 129.303708 
L 105.220188 130.697251 
L 105.499188 128.872532 
L 105.778188 122.417335 
L 106.336188 100.178708 
L 106.894188 80.450466 
L 107.173188 88.574321 
L 107.452188 111.568857 
L 107.731188 107.278114 
L 108.010188 113.863533 
L 108.289188 108.952952 
L 108.568188 107.87393 
L 108.847188 107.480885 
L 109.126188 103.985571 
L 109.405188 102.792016 
L 109.684188 102.277783 
L 109.963188 102.461865 
L 110.242188 104.41105 
L 110.521188 93.278634 
L 111.358188 104.070336 
L 111.637188 106.776632 
L 111.916188 101.081945 
L 112.474187 104.257379 
L 112.753188 104.480806 
L 113.032188 105.43453 
L 113.311188 105.641097 
L 113.590188 106.041778 
L 114.148188 105.81951 
L 114.427188 106.336179 
L 114.706188 108.175301 
L 115.543188 107.643571 
L 115.822188 107.120623 
L 116.101188 111.709071 
L 117.217188 107.244866 
L 117.496188 108.714583 
L 118.054188 108.010278 
L 118.333188 108.037265 
L 118.612188 107.794436 
L 118.891188 102.261266 
L 119.728188 106.864963 
L 120.007188 108.921012 
L 120.286188 96.20655 
L 121.123188 103.761115 
L 121.402188 107.126802 
L 121.681188 104.214012 
L 122.239188 107.849852 
L 122.518188 109.464387 
L 122.797188 110.143114 
L 123.076188 123.413141 
L 123.355188 117.601839 
L 123.913188 97.955451 
L 124.192188 100.022642 
L 124.750188 109.705395 
L 125.029188 109.252958 
L 125.587188 106.689975 
L 125.866188 118.422078 
L 126.424188 114.157602 
L 126.982188 112.002489 
L 127.261188 113.592204 
L 127.540188 113.019752 
L 127.819188 113.04986 
L 128.098187 112.834851 
L 128.377187 111.803619 
L 128.656188 64.237209 
L 128.935188 66.68591 
L 129.772188 104.806923 
L 130.051188 93.320503 
L 130.330188 102.317014 
L 130.609188 106.380123 
L 130.888188 107.698125 
L 131.167188 107.413531 
L 131.446188 127.09581 
L 131.725188 125.134895 
L 132.004188 120.691916 
L 132.562187 106.443528 
L 132.841188 129.584537 
L 133.957188 107.237169 
L 134.236188 131.50646 
L 135.352188 110.040184 
L 135.631188 129.317736 
L 136.747187 106.713683 
L 137.026187 113.600809 
L 137.584188 108.892824 
L 137.863188 108.234222 
L 138.142188 108.05443 
L 138.421188 101.285519 
L 138.979188 103.999821 
L 139.537188 107.693897 
L 139.816188 103.928559 
L 140.095188 103.124075 
L 140.374188 102.668603 
L 140.653188 100.579365 
L 140.932187 97.437263 
L 141.211187 125.835886 
L 141.490188 123.295643 
L 142.048188 113.149864 
L 142.327188 106.301082 
L 142.606188 137.754544 
L 143.443188 113.392119 
L 143.722188 107.067064 
L 144.001188 114.973348 
L 144.559188 109.320618 
L 145.117188 106.130755 
L 145.396187 94.340558 
L 145.954188 98.052654 
L 146.233187 102.0008 
L 146.512188 108.497754 
L 146.791188 18.764242 
L 147.349188 54.059555 
L 147.907188 108.043793 
L 148.186188 65.25076 
L 148.744188 96.59029 
L 149.023188 103.092937 
L 149.302188 106.359802 
L 149.581187 103.689402 
L 150.139188 105.061441 
L 150.418187 105.051816 
L 150.697188 105.348056 
L 150.976188 103.782718 
L 151.255188 104.165454 
L 151.813187 105.171852 
L 152.092188 105.307157 
L 152.371188 104.0434 
L 152.929188 104.914416 
L 153.208188 105.127439 
L 153.487188 105.574634 
L 153.766188 104.737836 
L 154.882188 106.539075 
L 155.161188 105.718601 
L 155.998188 106.466884 
L 156.277188 106.521184 
L 156.556188 106.385368 
L 156.835188 106.412737 
L 157.672188 106.055129 
L 157.951188 106.924196 
L 158.230187 106.870886 
L 158.788187 106.341961 
L 159.067187 105.945251 
L 159.346188 106.819975 
L 160.462188 106.046883 
L 160.741188 107.129573 
L 161.299188 106.40374 
L 161.857188 105.616879 
L 162.136188 107.511272 
L 162.415188 107.0209 
L 162.694188 106.833049 
L 163.252187 105.971851 
L 163.531188 108.478691 
L 164.647188 106.031888 
L 164.926188 108.130275 
L 166.042188 105.750155 
L 166.321188 108.479096 
L 167.437187 105.80239 
L 167.716188 107.342783 
L 168.274188 106.364907 
L 168.832188 105.788942 
L 169.111188 106.623257 
L 169.669188 106.284974 
L 169.948188 106.180676 
L 170.227188 105.623642 
L 170.506188 107.959523 
L 171.064188 107.054694 
L 171.622187 105.418871 
L 171.901187 108.938089 
L 172.459188 107.338598 
L 173.017188 105.502431 
L 173.296188 110.072748 
L 174.412188 105.621894 
L 174.691188 110.780367 
L 175.807187 105.992894 
L 176.086187 111.491264 
L 177.202188 105.987339 
L 177.481188 111.925067 
L 178.597188 105.901176 
L 178.876188 111.916337 
L 179.992188 105.609406 
L 180.271187 112.349488 
L 181.387188 106.001027 
L 181.666188 112.749256 
L 182.782188 106.349589 
L 183.061188 113.076863 
L 184.177188 106.689738 
L 184.456187 113.133313 
L 185.572188 106.538417 
L 185.851188 113.28117 
L 186.967188 106.940894 
L 187.246188 112.605145 
L 188.362188 106.494265 
L 188.641188 112.605645 
L 189.757188 107.144035 
L 190.036188 112.461535 
L 191.152187 107.081492 
L 191.431188 112.109622 
L 192.268188 108.305033 
L 192.547188 107.204766 
L 192.826188 111.712647 
L 193.942188 107.108447 
L 194.221188 111.02124 
L 195.337187 106.818213 
L 195.616188 110.527693 
L 196.732188 106.427679 
L 197.011188 110.03158 
L 198.127188 106.508805 
L 198.406188 109.959896 
L 199.522188 105.990994 
L 199.801188 108.82835 
L 200.917188 106.150759 
L 201.196188 104.329884 
L 201.475188 104.328928 
L 201.754188 104.959835 
L 202.312188 107.26638 
L 202.591188 101.497665 
L 203.707188 106.955913 
L 203.986187 102.458356 
L 204.823188 105.847996 
L 205.102188 106.4854 
L 205.381188 104.19126 
L 205.939188 105.7804 
L 206.218188 106.539044 
L 206.497187 106.803238 
L 206.776188 107.657182 
L 207.055188 107.944619 
L 207.892188 107.435216 
L 208.171188 111.032939 
L 209.008188 107.979732 
L 209.287188 106.944752 
L 209.566188 112.085059 
L 210.403188 107.854502 
L 210.682187 106.367914 
L 210.961188 110.67802 
L 211.519188 108.307584 
L 212.077188 107.247323 
L 212.356188 104.774355 
L 212.635188 104.634911 
L 213.193188 105.541531 
L 213.472188 107.287846 
L 213.751188 98.021071 
L 214.309188 102.258786 
L 214.867188 107.293503 
L 215.146188 89.814682 
L 216.262188 106.419132 
L 216.541188 83.215019 
L 217.657188 103.729916 
L 217.936188 79.339917 
L 219.052188 104.476692 
L 219.331188 99.395209 
L 219.610188 102.403636 
L 219.889188 104.018031 
L 220.447188 106.058127 
L 220.726188 98.467356 
L 221.842188 106.56635 
L 222.121188 94.428514 
L 223.237188 105.978467 
L 223.516188 97.491133 
L 224.074188 101.391015 
L 224.632188 105.133647 
L 224.911188 100.209652 
L 225.190188 102.081983 
L 225.748188 104.073515 
L 226.027187 105.923626 
L 226.306188 99.917264 
L 227.422188 105.631705 
L 227.701188 101.641962 
L 227.980188 103.563984 
L 228.538188 104.911451 
L 228.817188 105.855067 
L 229.096188 100.611992 
L 229.375188 101.191646 
L 229.933188 104.151688 
L 230.212187 106.175132 
L 230.491188 100.706597 
L 230.770188 102.7541 
L 231.049188 103.482434 
L 231.607188 106.527667 
L 231.886188 102.627 
L 232.444187 104.417665 
L 232.723188 104.854432 
L 233.002188 105.825758 
L 233.281188 104.316507 
L 233.839188 105.596177 
L 234.118188 106.104934 
L 234.397188 105.816423 
L 234.676188 108.861849 
L 234.955188 108.320857 
L 235.513188 105.864519 
L 235.792188 105.200435 
L 236.071188 118.678969 
L 236.350188 117.077261 
L 236.629188 114.557161 
L 237.187188 106.423391 
L 237.466188 131.474738 
L 238.582188 105.942836 
L 238.861188 141.635055 
L 239.419187 124.242123 
L 239.977188 104.591903 
L 240.256188 122.209678 
L 240.814188 113.197668 
L 241.372187 106.310695 
L 241.651188 115.301964 
L 241.930188 112.941318 
L 242.488188 106.848548 
L 243.046188 102.047004 
L 243.325188 102.005424 
L 243.604187 102.483792 
L 244.162188 104.190093 
L 244.441188 97.2034 
L 244.720188 98.874803 
L 245.557187 105.86776 
L 245.836188 96.617018 
L 246.673188 105.316627 
L 246.952188 108.179264 
L 247.231188 97.2448 
L 248.347188 106.477225 
L 248.626188 97.175794 
L 249.742188 105.92038 
L 250.021188 99.147031 
L 250.858188 104.378421 
L 251.137188 105.598003 
L 251.416188 101.584791 
L 251.974187 104.181434 
L 252.532188 106.155393 
L 252.811188 103.967933 
L 253.090188 104.937168 
L 253.369188 104.905982 
L 253.648188 105.284619 
L 253.927188 105.378206 
L 254.206188 102.974322 
L 254.764187 104.196148 
L 255.322188 104.281421 
L 255.601188 103.666032 
L 255.880188 104.381094 
L 256.159188 104.636754 
L 256.438188 104.589314 
L 256.717188 105.067884 
L 256.996188 104.183993 
L 258.112188 105.741092 
L 258.391188 103.822795 
L 258.670187 104.185523 
L 258.949187 104.116104 
L 259.507187 105.525401 
L 259.786188 103.639402 
L 260.344187 105.399517 
L 260.623188 105.495798 
L 260.902187 105.727066 
L 261.181188 104.233452 
L 261.460188 104.478964 
L 262.018188 105.868634 
L 262.297188 106.255116 
L 262.576188 103.072206 
L 262.855188 103.663974 
L 263.413188 105.335092 
L 263.692188 105.891869 
L 263.971188 102.468026 
L 264.808188 105.372864 
L 265.087188 105.458668 
L 265.366188 103.538916 
L 265.924188 104.113157 
L 266.203188 104.958706 
L 266.482188 105.20434 
L 266.761188 104.674394 
L 267.040188 105.553179 
L 267.319188 105.802325 
L 267.598187 106.84403 
L 267.877187 106.842718 
L 268.156188 106.125574 
L 268.435187 106.080985 
L 268.714188 106.709915 
L 268.993188 106.437396 
L 269.551188 107.190522 
L 269.830188 106.801216 
L 270.109188 106.85198 
L 270.388188 107.311188 
L 270.667188 107.061423 
L 271.225188 107.818166 
L 271.504188 107.821452 
L 271.783188 107.265659 
L 272.062188 107.826631 
L 272.341188 107.97099 
L 272.899188 107.496403 
L 273.178188 107.51004 
L 273.457188 106.991272 
L 273.736188 107.089242 
L 274.294188 106.684613 
L 274.573188 106.663029 
L 274.852188 106.154284 
L 275.131188 107.418782 
L 275.689188 107.235142 
L 276.247187 105.78383 
L 276.526187 110.171301 
L 276.805187 109.828138 
L 277.084188 109.6612 
L 277.642187 108.092343 
L 277.921188 111.008279 
L 279.037188 107.808873 
L 279.316188 111.332912 
L 279.874188 110.120459 
L 280.153188 108.88139 
L 280.432187 108.478848 
L 280.711188 111.543352 
L 281.548188 109.276495 
L 281.827188 108.581958 
L 282.106188 110.680103 
L 283.222188 108.156315 
L 283.501188 110.325375 
L 284.338188 108.963513 
L 284.617188 108.939568 
L 284.896187 111.160309 
L 285.175187 111.100391 
L 285.454188 110.669142 
L 285.733187 110.553483 
L 286.291188 109.201692 
L 286.849188 108.531621 
L 287.128188 108.513638 
L 287.407188 108.820668 
L 287.686188 108.535391 
L 287.965188 108.851103 
L 288.523188 108.870527 
L 288.802188 108.686649 
L 289.081188 107.466507 
L 289.360188 107.405286 
L 289.639188 107.900869 
L 289.918188 107.88725 
L 290.197188 108.1137 
L 290.476188 105.773376 
L 291.313188 107.160711 
L 291.592188 107.834232 
L 291.871188 104.7956 
L 292.150188 105.693566 
L 292.429188 106.186001 
L 292.987188 107.942161 
L 293.266188 103.974183 
L 293.824188 105.721748 
L 294.103187 106.986038 
L 294.382187 107.711801 
L 294.661188 104.048656 
L 295.777187 107.702579 
L 296.056188 103.341012 
L 296.614188 105.634256 
L 297.172188 107.632533 
L 297.451188 102.708844 
L 298.567188 107.758847 
L 298.846188 102.265648 
L 299.962188 107.03416 
L 300.241188 101.463332 
L 301.357188 106.330037 
L 301.636188 100.685952 
L 302.752187 105.672591 
L 303.031188 101.746926 
L 304.147187 106.527233 
L 304.426188 102.510708 
L 305.263188 106.227347 
L 305.542188 107.108513 
L 305.821188 103.285934 
L 306.937188 107.173873 
L 307.216188 103.920782 
L 308.332188 106.679369 
L 308.611188 103.932689 
L 309.169188 104.987256 
L 309.727188 106.413296 
L 310.006188 103.864321 
L 311.122187 106.03942 
L 311.401188 104.229764 
L 312.238188 105.308301 
L 312.517188 105.8291 
L 312.796188 104.446129 
L 313.075188 104.93989 
L 313.912188 105.617833 
L 314.191188 104.686721 
L 314.749188 105.089648 
L 315.028188 105.072907 
L 315.307187 105.186496 
L 315.586188 105.011854 
L 315.865187 105.010684 
L 316.144188 105.243219 
L 316.702188 105.377161 
L 316.981188 105.295016 
L 317.539188 105.528662 
L 318.097188 105.670939 
L 318.934188 105.518646 
L 319.492188 105.33044 
L 319.771188 105.905333 
L 320.050187 105.685124 
L 320.329188 105.788439 
L 320.887188 105.480475 
L 321.166188 106.556879 
L 321.724188 106.640315 
L 322.282188 106.330545 
L 322.561188 107.454165 
L 323.677188 106.280654 
L 323.956188 107.882239 
L 324.514188 106.993976 
L 325.072187 106.388701 
L 325.351188 108.392492 
L 326.188188 106.636704 
L 326.467188 105.823003 
L 326.746188 108.637071 
L 327.862188 105.773078 
L 328.141188 109.897343 
L 328.978188 106.428186 
L 329.257187 105.074686 
L 329.536188 110.922549 
L 330.373188 106.844733 
L 330.652188 105.384595 
L 330.931188 113.170882 
L 332.047188 105.016133 
L 332.326188 114.168149 
L 333.442187 104.877858 
L 333.721188 115.868585 
L 334.558188 108.017573 
L 334.837188 105.20057 
L 335.116188 115.328033 
L 336.232188 103.484166 
L 336.511188 114.910481 
L 337.627187 104.549325 
L 337.906188 114.574032 
L 338.743188 106.990439 
L 339.022188 105.064844 
L 339.301188 114.838971 
L 340.417188 105.425763 
L 340.696188 113.884952 
L 341.812187 104.602722 
L 342.091188 112.865558 
L 343.207188 104.26782 
L 343.486188 113.00944 
L 343.765188 111.275043 
L 344.323188 106.224226 
L 344.602188 104.243062 
L 344.881188 115.957839 
L 345.997187 104.566952 
L 346.276188 119.85842 
L 346.834188 112.607587 
L 347.392188 103.476692 
L 347.671188 129.509791 
L 348.508188 111.052299 
L 348.787188 103.288962 
L 349.066188 136.430085 
L 350.182187 103.441839 
L 350.461188 125.185714 
L 351.019188 113.640901 
L 351.577188 105.939684 
L 351.856188 106.08712 
L 352.135188 105.838853 
L 352.414188 106.122686 
L 352.693188 106.930087 
L 352.972188 108.527967 
L 353.251188 90.219854 
L 354.088188 102.933174 
L 354.367188 108.332464 
L 354.646188 85.361743 
L 355.483188 104.56204 
L 355.762188 110.578109 
L 356.041188 91.48908 
L 356.878188 105.274456 
L 357.157188 108.607077 
L 357.436188 100.192957 
L 357.994188 104.874903 
L 358.831188 108.531975 
L 359.389188 109.157413 
L 359.947187 107.836411 
L 360.226188 114.279785 
L 360.784188 110.99904 
L 361.342188 106.89824 
L 361.621188 111.727478 
L 362.458188 107.918979 
L 362.737188 107.23202 
L 363.016188 102.187941 
L 363.295187 102.836453 
L 363.574188 103.806405 
L 364.132187 106.889742 
L 364.411188 94.060008 
L 365.527188 106.541069 
L 365.806188 94.784603 
L 366.922188 106.391777 
L 367.201188 99.378791 
L 368.038188 104.711208 
L 368.317187 106.260973 
L 368.596188 101.616282 
L 369.712188 106.313854 
L 369.991188 103.391861 
L 370.270188 103.960843 
L 370.828188 104.558137 
L 371.107188 104.890458 
L 371.386188 104.846613 
L 371.665188 105.309093 
L 371.944188 105.452213 
L 372.223188 105.909226 
L 372.502187 106.126433 
L 372.781188 107.854105 
L 373.060188 107.997376 
L 373.339188 107.87992 
L 373.897188 107.257603 
L 374.176188 109.274809 
L 375.292188 107.066842 
L 375.571188 109.062857 
L 376.687187 106.401974 
L 376.966188 109.71629 
L 378.082188 105.796675 
L 378.361188 109.629043 
L 379.477188 105.126268 
L 379.756188 109.732029 
L 380.872187 105.586664 
L 381.151188 108.363586 
L 382.267188 104.299313 
L 382.546188 107.470814 
L 383.104188 105.695647 
L 383.383188 105.387834 
L 383.662188 104.739858 
L 383.941188 106.014406 
L 385.057187 104.234271 
L 385.336188 105.636344 
L 385.615188 105.560309 
L 386.173188 104.704636 
L 386.452188 104.816651 
L 387.010188 105.287311 
L 387.289188 105.150365 
L 387.568188 104.815905 
L 388.126188 105.203639 
L 388.684188 105.39267 
L 389.242188 105.632271 
L 389.521188 105.977735 
L 389.800187 105.819916 
L 390.079188 106.175249 
L 390.637188 106.201839 
L 390.916188 105.29887 
L 391.195188 105.70824 
L 391.474188 105.598616 
L 392.032188 106.639391 
L 392.311188 105.426915 
L 392.590188 106.091357 
L 393.427188 107.256403 
L 393.706188 103.949781 
L 394.822187 107.159325 
L 395.101188 103.505452 
L 396.217188 107.95247 
L 396.496188 103.577206 
L 396.775188 104.433262 
L 397.054188 106.062091 
L 397.612188 107.932995 
L 397.891188 101.089005 
L 398.728188 104.771825 
L 399.007187 106.343621 
L 399.286188 99.536736 
L 400.402188 106.093674 
L 400.681188 96.870137 
L 400.960188 98.336457 
L 401.797188 105.91626 
L 402.076188 96.186916 
L 403.192187 106.244427 
L 403.471188 95.201124 
L 404.308188 103.70305 
L 404.587188 106.839906 
L 404.866188 93.730484 
L 405.982188 106.165022 
L 406.261188 94.082044 
L 407.377187 106.103422 
L 407.656188 96.011085 
L 408.493188 104.476707 
L 408.772188 107.071727 
L 409.051188 98.110931 
L 409.609188 103.21643 
L 410.167188 107.305519 
L 410.446188 99.792256 
L 411.283188 104.799772 
L 411.562187 106.948523 
L 411.841187 98.725543 
L 412.678188 104.71494 
L 412.957188 106.344853 
L 413.236187 101.708518 
L 413.794188 104.585519 
L 414.352188 106.913528 
L 414.631188 103.777986 
L 414.910188 104.940271 
L 415.468187 106.343313 
L 415.747187 106.571702 
L 416.026187 105.593834 
L 416.305188 106.147085 
L 416.584188 106.081589 
L 416.863188 106.142743 
L 417.142188 106.317801 
L 417.421187 107.683823 
L 417.700188 107.569168 
L 418.537188 106.516395 
L 418.816188 109.507337 
L 419.095188 108.962036 
L 419.932187 106.482254 
L 420.211187 111.340058 
L 421.048188 107.710456 
L 421.327188 106.300424 
L 421.606187 113.455989 
L 422.722188 105.791909 
L 423.001188 113.273571 
L 424.117188 105.180394 
L 424.396187 113.377744 
L 425.512188 106.127315 
L 425.791187 114.290426 
L 426.349188 110.059065 
L 426.907188 105.59815 
L 427.186188 114.075523 
L 427.744188 109.900626 
L 428.302188 106.254779 
L 428.581187 113.125083 
L 429.697187 106.449491 
L 429.976187 111.43989 
L 430.813188 107.085902 
L 431.092188 106.054658 
L 431.371188 108.721277 
L 431.929188 106.435825 
L 432.208188 105.99698 
L 432.487188 105.24994 
L 432.766188 107.088919 
L 433.045188 106.207468 
L 433.324188 106.194915 
L 433.882187 105.4582 
L 434.161187 107.165263 
L 434.440188 107.225087 
L 434.719188 107.058442 
L 434.998188 107.180749 
L 435.277188 106.980199 
L 435.556188 106.010764 
L 436.114188 105.888363 
L 436.672188 106.370413 
L 436.951188 105.028932 
L 437.509188 106.329747 
L 437.788188 106.453129 
L 438.067187 106.781385 
L 438.346187 105.264049 
L 438.625188 105.377332 
L 438.904188 105.896769 
L 439.183188 105.857597 
L 439.462188 106.383682 
L 439.741188 105.02521 
L 440.020188 105.217735 
L 440.299188 105.690154 
L 440.857188 105.816805 
L 441.136188 104.993832 
L 441.415188 105.484485 
L 441.694188 105.612518 
L 442.252187 106.433244 
L 442.531187 104.979247 
L 442.810188 105.772658 
L 443.089188 106.039331 
L 443.368188 106.144147 
L 443.647188 106.367686 
L 443.647188 106.367686 
" style="fill:none;stroke:#808080;stroke-linecap:square;stroke-width:1.5;"/>
   </g>
   <g id="line2d_17">
    <path clip-path="url(#pe1ff398cf9)" d="M 53.047188 98.24383 
L 54.442188 124.320765 
L 55.837188 123.270253 
L 57.232188 102.02865 
L 58.627188 120.106594 
L 60.022188 107.586883 
L 61.417188 99.570999 
L 62.812188 104.67351 
L 64.207188 86.861602 
L 65.602188 70.775472 
L 66.997188 114.594281 
L 68.392188 115.927275 
L 69.787188 106.832616 
L 71.182188 108.107976 
L 72.577188 83.693224 
L 73.972188 91.158874 
L 75.367188 129.244403 
L 76.762188 132.11418 
L 78.157188 124.186541 
L 79.552188 110.548998 
L 80.947188 89.241344 
L 82.342188 214.756364 
L 83.737188 184.984487 
L 85.132188 100.996517 
L 86.527188 86.415602 
L 87.922188 17.083636 
L 89.317188 76.035563 
L 90.712187 61.750926 
L 92.107188 105.16537 
L 93.502188 92.110105 
L 94.897188 156.764375 
L 96.292188 130.320888 
L 97.687188 68.265526 
L 99.082188 48.044935 
L 100.477188 117.152115 
L 101.872188 124.735844 
L 103.267188 117.348063 
L 104.662188 101.977016 
L 106.057187 119.951362 
L 107.452188 119.177241 
L 108.847188 90.758153 
L 110.242188 122.373855 
L 111.637188 108.458517 
L 113.032188 100.897041 
L 114.427188 99.80843 
L 115.822188 113.194883 
L 117.217188 118.671132 
L 118.612188 121.036102 
L 120.007188 114.878608 
L 121.402188 102.146571 
L 122.797188 96.014051 
L 124.192188 110.725478 
L 125.587188 105.237764 
L 126.982188 149.89302 
L 128.377187 151.760565 
L 129.772188 111.773396 
L 131.167188 87.856337 
L 132.562187 28.771863 
L 133.957188 61.706438 
L 135.352188 91.602218 
L 136.747187 117.568011 
L 138.142188 53.680541 
L 139.537188 45.387648 
L 140.932187 41.092614 
L 142.327188 75.054428 
L 143.722188 153.387507 
L 145.117188 164.393234 
L 146.512188 153.463756 
L 147.907188 60.725919 
L 149.302188 112.198163 
L 150.697188 107.212091 
L 153.487188 103.605412 
L 154.882188 107.157092 
L 156.277188 106.267386 
L 157.672188 106.184847 
L 159.067187 107.137647 
L 160.462188 99.128166 
L 161.857188 100.462443 
L 163.252187 102.81619 
L 164.647188 105.893072 
L 166.042188 99.939026 
L 167.437187 103.233214 
L 168.832188 105.394739 
L 170.227188 106.244312 
L 171.622187 88.999919 
L 173.017188 93.397046 
L 174.412188 99.162401 
L 175.807187 105.620409 
L 177.202188 82.192034 
L 179.992188 97.724415 
L 181.387188 106.150326 
L 182.782188 81.444985 
L 185.572188 98.297661 
L 186.967188 106.666269 
L 188.362188 85.417394 
L 189.757188 93.322015 
L 192.547188 106.567185 
L 193.942188 91.047904 
L 196.732188 101.065689 
L 198.127188 105.88054 
L 199.522188 111.306009 
L 200.917188 114.980562 
L 202.312188 113.317535 
L 203.707188 106.40001 
L 206.497187 100.362822 
L 207.892188 101.050969 
L 209.287188 105.491112 
L 210.682187 124.055279 
L 212.077188 128.955197 
L 213.472188 127.217654 
L 214.867188 117.114788 
L 216.262188 166.007293 
L 217.657188 141.094308 
L 219.052188 113.396291 
L 220.447188 104.785574 
L 221.842188 129.041403 
L 223.237188 114.773393 
L 224.632188 103.942512 
L 226.027187 96.951745 
L 227.422188 117.958867 
L 228.817188 113.336312 
L 231.607188 99.861836 
L 233.002188 63.404868 
L 234.397188 60.867774 
L 235.792188 64.371705 
L 237.187188 79.613394 
L 238.582188 33.720283 
L 239.977188 81.241234 
L 241.372187 106.37881 
L 242.767188 119.065677 
L 244.162188 138.030255 
L 245.557187 130.449205 
L 246.952188 118.39084 
L 248.347188 105.042786 
L 249.742188 125.134474 
L 251.137188 116.15719 
L 252.532188 111.002914 
L 253.927188 108.00157 
L 255.322188 110.813455 
L 258.112188 108.043797 
L 259.507187 105.714985 
L 260.902187 111.950328 
L 262.297188 110.335674 
L 263.692188 106.36806 
L 265.087188 102.021068 
L 266.482188 104.155383 
L 269.272187 102.113655 
L 270.667188 102.589493 
L 272.062188 102.450524 
L 273.457188 102.637463 
L 274.852188 103.069256 
L 276.247187 104.692989 
L 277.642187 95.730417 
L 279.037188 99.184264 
L 281.827188 106.986866 
L 283.222188 101.51574 
L 284.617188 103.708148 
L 286.012187 106.342199 
L 287.407188 106.122447 
L 288.802188 111.774972 
L 290.197188 110.055413 
L 291.592188 107.032278 
L 292.987188 103.144211 
L 294.382187 120.401399 
L 295.777187 116.074396 
L 298.567188 104.794527 
L 299.962188 124.866933 
L 302.752187 111.382377 
L 304.147187 106.166526 
L 305.542188 118.3451 
L 306.937188 113.578095 
L 308.332188 109.373951 
L 309.727188 105.935037 
L 311.122187 110.786852 
L 312.517188 108.492283 
L 313.912188 106.703783 
L 315.307187 105.27543 
L 316.702188 105.743203 
L 318.097188 105.646907 
L 319.492188 105.821461 
L 320.887188 106.383039 
L 322.282188 100.72742 
L 323.677188 102.18545 
L 325.072187 104.180571 
L 326.467188 106.78517 
L 327.862188 83.53744 
L 329.257187 88.85061 
L 330.652188 95.867353 
L 332.047188 105.343353 
L 333.442187 62.08085 
L 337.627187 105.089672 
L 339.022188 71.272204 
L 340.417188 84.225762 
L 343.207188 106.101267 
L 344.602188 32.286121 
L 345.997187 48.019821 
L 347.392188 68.630302 
L 348.787188 101.445343 
L 350.182187 95.448793 
L 351.577188 125.358998 
L 352.972188 127.031998 
L 354.367188 106.637808 
L 355.762188 138.863621 
L 357.157188 116.092587 
L 358.552188 105.092496 
L 359.947187 105.49583 
L 361.342188 117.648331 
L 362.737188 124.287079 
L 364.132187 119.325429 
L 365.527188 104.386174 
L 366.922188 123.363005 
L 368.317187 114.293912 
L 369.712188 108.413532 
L 371.107188 104.483991 
L 372.502187 98.083904 
L 373.897188 99.567618 
L 376.687187 104.466774 
L 378.082188 88.051692 
L 380.872187 98.32142 
L 382.267188 101.983848 
L 383.662188 101.725737 
L 385.057187 103.538799 
L 386.452188 105.158107 
L 387.847188 105.04334 
L 389.242188 108.704657 
L 390.637188 108.654281 
L 392.032188 107.64133 
L 393.427188 106.002248 
L 394.822187 122.036943 
L 396.217188 117.237596 
L 397.612188 111.44473 
L 399.007187 103.353034 
L 400.402188 141.395574 
L 401.797188 131.301187 
L 403.192187 120.032884 
L 404.587188 106.410851 
L 405.982188 145.49051 
L 408.772188 119.202879 
L 410.167188 107.750131 
L 411.562187 124.346152 
L 412.957188 114.66785 
L 414.352188 108.667808 
L 415.747187 104.876388 
L 417.142188 93.466447 
L 418.537188 94.980266 
L 419.932187 98.52609 
L 421.327188 104.405031 
L 422.722188 76.82384 
L 426.907188 107.466789 
L 428.302188 86.44768 
L 429.697187 95.302026 
L 431.092188 101.847765 
L 432.487188 105.592496 
L 435.277188 108.854675 
L 438.067187 106.130222 
L 439.462188 111.632748 
L 442.252187 108.565532 
L 443.647188 106.543742 
L 443.647188 106.543742 
" style="fill:none;stroke:#006400;stroke-linecap:square;stroke-width:1.5;"/>
   </g>
   <g id="line2d_18">
    <path clip-path="url(#pe1ff398cf9)" d="M 53.047188 107.38713 
L 443.647188 107.38713 
" style="fill:none;stroke:#000000;stroke-linecap:square;stroke-width:3;"/>
   </g>
   <g id="patch_3">
    <path d="M 53.047188 224.64 
L 53.047188 7.2 
" style="fill:none;stroke:#000000;stroke-linecap:square;stroke-linejoin:miter;stroke-width:0.8;"/>
   </g>
   <g id="patch_4">
    <path d="M 443.647188 224.64 
L 443.647188 7.2 
" style="fill:none;stroke:#000000;stroke-linecap:square;stroke-linejoin:miter;stroke-width:0.8;"/>
   </g>
   <g id="patch_5">
    <path d="M 53.047188 224.64 
L 443.647188 224.64 
" style="fill:none;stroke:#000000;stroke-linecap:square;stroke-linejoin:miter;stroke-width:0.8;"/>
   </g>
   <g id="patch_6">
    <path d="M 53.047188 7.2 
L 443.647188 7.2 
" style="fill:none;stroke:#000000;stroke-linecap:square;stroke-linejoin:miter;stroke-width:0.8;"/>
   </g>
   <g id="legend_1">
    <g id="patch_7">
     <path d="M 286.031563 219.64 
L 436.647188 219.64 
Q 438.647188 219.64 438.647188 217.64 
L 438.647188 189.28375 
Q 438.647188 187.28375 436.647188 187.28375 
L 286.031563 187.28375 
Q 284.031563 187.28375 284.031563 189.28375 
L 284.031563 217.64 
Q 284.031563 219.64 286.031563 219.64 
z
" style="fill:#ffffff;opacity:0.8;stroke:#cccccc;stroke-linejoin:miter;"/>
    </g>
    <g id="line2d_19">
     <path d="M 288.031563 195.382187 
L 308.031563 195.382187 
" style="fill:none;stroke:#808080;stroke-linecap:square;stroke-width:1.5;"/>
    </g>
    <g id="line2d_20"/>
    <g id="text_18">
     <!-- SF(250 kyr) : SF(50 kyr) -->
     <defs>
      <path d="M 9.8125 72.90625 
L 51.703125 72.90625 
L 51.703125 64.59375 
L 19.671875 64.59375 
L 19.671875 43.109375 
L 48.578125 43.109375 
L 48.578125 34.8125 
L 19.671875 34.8125 
L 19.671875 0 
L 9.8125 0 
z
" id="DejaVuSans-70"/>
      <path d="M 9.078125 75.984375 
L 18.109375 75.984375 
L 18.109375 31.109375 
L 44.921875 54.6875 
L 56.390625 54.6875 
L 27.390625 29.109375 
L 57.625 0 
L 45.90625 0 
L 18.109375 26.703125 
L 18.109375 0 
L 9.078125 0 
z
" id="DejaVuSans-107"/>
      <path d="M 32.171875 -5.078125 
Q 28.375 -14.84375 24.75 -17.8125 
Q 21.140625 -20.796875 15.09375 -20.796875 
L 7.90625 -20.796875 
L 7.90625 -13.28125 
L 13.1875 -13.28125 
Q 16.890625 -13.28125 18.9375 -11.515625 
Q 21 -9.765625 23.484375 -3.21875 
L 25.09375 0.875 
L 2.984375 54.6875 
L 12.5 54.6875 
L 29.59375 11.921875 
L 46.6875 54.6875 
L 56.203125 54.6875 
z
" id="DejaVuSans-121"/>
      <path d="M 11.71875 12.40625 
L 22.015625 12.40625 
L 22.015625 0 
L 11.71875 0 
z
M 11.71875 51.703125 
L 22.015625 51.703125 
L 22.015625 39.3125 
L 11.71875 39.3125 
z
" id="DejaVuSans-58"/>
     </defs>
     <g transform="translate(316.031563 198.882187)scale(0.1 -0.1)">
      <use xlink:href="#DejaVuSans-83"/>
      <use x="63.476562" xlink:href="#DejaVuSans-70"/>
      <use x="120.996094" xlink:href="#DejaVuSans-40"/>
      <use x="160.009766" xlink:href="#DejaVuSans-50"/>
      <use x="223.632812" xlink:href="#DejaVuSans-53"/>
      <use x="287.255859" xlink:href="#DejaVuSans-48"/>
      <use x="350.878906" xlink:href="#DejaVuSans-32"/>
      <use x="382.666016" xlink:href="#DejaVuSans-107"/>
      <use x="436.951172" xlink:href="#DejaVuSans-121"/>
      <use x="496.130859" xlink:href="#DejaVuSans-114"/>
      <use x="537.244141" xlink:href="#DejaVuSans-41"/>
      <use x="576.257812" xlink:href="#DejaVuSans-32"/>
      <use x="608.044922" xlink:href="#DejaVuSans-58"/>
      <use x="641.736328" xlink:href="#DejaVuSans-32"/>
      <use x="673.523438" xlink:href="#DejaVuSans-83"/>
      <use x="737" xlink:href="#DejaVuSans-70"/>
      <use x="794.519531" xlink:href="#DejaVuSans-40"/>
      <use x="833.533203" xlink:href="#DejaVuSans-53"/>
      <use x="897.15625" xlink:href="#DejaVuSans-48"/>
      <use x="960.779297" xlink:href="#DejaVuSans-32"/>
      <use x="992.566406" xlink:href="#DejaVuSans-107"/>
      <use x="1046.851562" xlink:href="#DejaVuSans-121"/>
      <use x="1106.03125" xlink:href="#DejaVuSans-114"/>
      <use x="1147.144531" xlink:href="#DejaVuSans-41"/>
     </g>
    </g>
    <g id="line2d_21">
     <path d="M 288.031563 210.060312 
L 308.031563 210.060312 
" style="fill:none;stroke:#006400;stroke-linecap:square;stroke-width:1.5;"/>
    </g>
    <g id="line2d_22"/>
    <g id="text_19">
     <!-- SF(250 kyr): SF(1 Myr) -->
     <g transform="translate(316.031563 213.560312)scale(0.1 -0.1)">
      <use xlink:href="#DejaVuSans-83"/>
      <use x="63.476562" xlink:href="#DejaVuSans-70"/>
      <use x="120.996094" xlink:href="#DejaVuSans-40"/>
      <use x="160.009766" xlink:href="#DejaVuSans-50"/>
      <use x="223.632812" xlink:href="#DejaVuSans-53"/>
      <use x="287.255859" xlink:href="#DejaVuSans-48"/>
      <use x="350.878906" xlink:href="#DejaVuSans-32"/>
      <use x="382.666016" xlink:href="#DejaVuSans-107"/>
      <use x="436.951172" xlink:href="#DejaVuSans-121"/>
      <use x="496.130859" xlink:href="#DejaVuSans-114"/>
      <use x="537.244141" xlink:href="#DejaVuSans-41"/>
      <use x="576.257812" xlink:href="#DejaVuSans-58"/>
      <use x="609.949219" xlink:href="#DejaVuSans-32"/>
      <use x="641.736328" xlink:href="#DejaVuSans-83"/>
      <use x="705.212891" xlink:href="#DejaVuSans-70"/>
      <use x="762.732422" xlink:href="#DejaVuSans-40"/>
      <use x="801.746094" xlink:href="#DejaVuSans-49"/>
      <use x="865.369141" xlink:href="#DejaVuSans-32"/>
      <use x="897.15625" xlink:href="#DejaVuSans-77"/>
      <use x="983.435547" xlink:href="#DejaVuSans-121"/>
      <use x="1042.615234" xlink:href="#DejaVuSans-114"/>
      <use x="1083.728516" xlink:href="#DejaVuSans-41"/>
     </g>
    </g>
   </g>
  </g>
 </g>
 <defs>
  <clipPath id="pe1ff398cf9">
   <rect height="217.44" width="390.6" x="53.047188" y="7.2"/>
  </clipPath>
 </defs>
</svg>
