<?xml version="1.0" encoding="utf-8" standalone="no"?>
<!DOCTYPE svg PUBLIC "-//W3C//DTD SVG 1.1//EN"
  "http://www.w3.org/Graphics/SVG/1.1/DTD/svg11.dtd">
<!-- Created with matplotlib (https://matplotlib.org/) -->
<svg height="265.099687pt" version="1.1" viewBox="0 0 406.18 265.099687" width="406.18pt" xmlns="http://www.w3.org/2000/svg" xmlns:xlink="http://www.w3.org/1999/xlink">
 <defs>
  <style type="text/css">
*{stroke-linecap:butt;stroke-linejoin:round;}
  </style>
 </defs>
 <g id="figure_1">
  <g id="patch_1">
   <path d="M 0 265.099687 
L 406.18 265.099687 
L 406.18 0 
L 0 0 
z
" style="fill:#ffffff;"/>
  </g>
  <g id="axes_1">
   <g id="patch_2">
    <path d="M 53.047188 224.64 
L 387.847188 224.64 
L 387.847188 7.2 
L 53.047188 7.2 
z
" style="fill:#ffffff;"/>
   </g>
   <g id="matplotlib.axis_1">
    <g id="xtick_1">
     <g id="line2d_1">
      <defs>
       <path d="M 0 0 
L 0 3.5 
" id="md3fc83db75" style="stroke:#000000;stroke-width:0.8;"/>
      </defs>
      <g>
       <use style="stroke:#000000;stroke-width:0.8;" x="53.047188" xlink:href="#md3fc83db75" y="224.64"/>
      </g>
     </g>
     <g id="text_1">
      <!-- 0.0 -->
      <defs>
       <path d="M 31.78125 66.40625 
Q 24.171875 66.40625 20.328125 58.90625 
Q 16.5 51.421875 16.5 36.375 
Q 16.5 21.390625 20.328125 13.890625 
Q 24.171875 6.390625 31.78125 6.390625 
Q 39.453125 6.390625 43.28125 13.890625 
Q 47.125 21.390625 47.125 36.375 
Q 47.125 51.421875 43.28125 58.90625 
Q 39.453125 66.40625 31.78125 66.40625 
z
M 31.78125 74.21875 
Q 44.046875 74.21875 50.515625 64.515625 
Q 56.984375 54.828125 56.984375 36.375 
Q 56.984375 17.96875 50.515625 8.265625 
Q 44.046875 -1.421875 31.78125 -1.421875 
Q 19.53125 -1.421875 13.0625 8.265625 
Q 6.59375 17.96875 6.59375 36.375 
Q 6.59375 54.828125 13.0625 64.515625 
Q 19.53125 74.21875 31.78125 74.21875 
z
" id="DejaVuSans-48"/>
       <path d="M 10.6875 12.40625 
L 21 12.40625 
L 21 0 
L 10.6875 0 
z
" id="DejaVuSans-46"/>
      </defs>
      <g transform="translate(45.095625 239.238437)scale(0.1 -0.1)">
       <use xlink:href="#DejaVuSans-48"/>
       <use x="63.623047" xlink:href="#DejaVuSans-46"/>
       <use x="95.410156" xlink:href="#DejaVuSans-48"/>
      </g>
     </g>
    </g>
    <g id="xtick_2">
     <g id="line2d_2">
      <g>
       <use style="stroke:#000000;stroke-width:0.8;" x="94.897188" xlink:href="#md3fc83db75" y="224.64"/>
      </g>
     </g>
     <g id="text_2">
      <!-- 2.5 -->
      <defs>
       <path d="M 19.1875 8.296875 
L 53.609375 8.296875 
L 53.609375 0 
L 7.328125 0 
L 7.328125 8.296875 
Q 12.9375 14.109375 22.625 23.890625 
Q 32.328125 33.6875 34.8125 36.53125 
Q 39.546875 41.84375 41.421875 45.53125 
Q 43.3125 49.21875 43.3125 52.78125 
Q 43.3125 58.59375 39.234375 62.25 
Q 35.15625 65.921875 28.609375 65.921875 
Q 23.96875 65.921875 18.8125 64.3125 
Q 13.671875 62.703125 7.8125 59.421875 
L 7.8125 69.390625 
Q 13.765625 71.78125 18.9375 73 
Q 24.125 74.21875 28.421875 74.21875 
Q 39.75 74.21875 46.484375 68.546875 
Q 53.21875 62.890625 53.21875 53.421875 
Q 53.21875 48.921875 51.53125 44.890625 
Q 49.859375 40.875 45.40625 35.40625 
Q 44.1875 33.984375 37.640625 27.21875 
Q 31.109375 20.453125 19.1875 8.296875 
z
" id="DejaVuSans-50"/>
       <path d="M 10.796875 72.90625 
L 49.515625 72.90625 
L 49.515625 64.59375 
L 19.828125 64.59375 
L 19.828125 46.734375 
Q 21.96875 47.46875 24.109375 47.828125 
Q 26.265625 48.1875 28.421875 48.1875 
Q 40.625 48.1875 47.75 41.5 
Q 54.890625 34.8125 54.890625 23.390625 
Q 54.890625 11.625 47.5625 5.09375 
Q 40.234375 -1.421875 26.90625 -1.421875 
Q 22.3125 -1.421875 17.546875 -0.640625 
Q 12.796875 0.140625 7.71875 1.703125 
L 7.71875 11.625 
Q 12.109375 9.234375 16.796875 8.0625 
Q 21.484375 6.890625 26.703125 6.890625 
Q 35.15625 6.890625 40.078125 11.328125 
Q 45.015625 15.765625 45.015625 23.390625 
Q 45.015625 31 40.078125 35.4375 
Q 35.15625 39.890625 26.703125 39.890625 
Q 22.75 39.890625 18.8125 39.015625 
Q 14.890625 38.140625 10.796875 36.28125 
z
" id="DejaVuSans-53"/>
      </defs>
      <g transform="translate(86.945625 239.238437)scale(0.1 -0.1)">
       <use xlink:href="#DejaVuSans-50"/>
       <use x="63.623047" xlink:href="#DejaVuSans-46"/>
       <use x="95.410156" xlink:href="#DejaVuSans-53"/>
      </g>
     </g>
    </g>
    <g id="xtick_3">
     <g id="line2d_3">
      <g>
       <use style="stroke:#000000;stroke-width:0.8;" x="136.747188" xlink:href="#md3fc83db75" y="224.64"/>
      </g>
     </g>
     <g id="text_3">
      <!-- 5.0 -->
      <g transform="translate(128.795625 239.238437)scale(0.1 -0.1)">
       <use xlink:href="#DejaVuSans-53"/>
       <use x="63.623047" xlink:href="#DejaVuSans-46"/>
       <use x="95.410156" xlink:href="#DejaVuSans-48"/>
      </g>
     </g>
    </g>
    <g id="xtick_4">
     <g id="line2d_4">
      <g>
       <use style="stroke:#000000;stroke-width:0.8;" x="178.597188" xlink:href="#md3fc83db75" y="224.64"/>
      </g>
     </g>
     <g id="text_4">
      <!-- 7.5 -->
      <defs>
       <path d="M 8.203125 72.90625 
L 55.078125 72.90625 
L 55.078125 68.703125 
L 28.609375 0 
L 18.3125 0 
L 43.21875 64.59375 
L 8.203125 64.59375 
z
" id="DejaVuSans-55"/>
      </defs>
      <g transform="translate(170.645625 239.238437)scale(0.1 -0.1)">
       <use xlink:href="#DejaVuSans-55"/>
       <use x="63.623047" xlink:href="#DejaVuSans-46"/>
       <use x="95.410156" xlink:href="#DejaVuSans-53"/>
      </g>
     </g>
    </g>
    <g id="xtick_5">
     <g id="line2d_5">
      <g>
       <use style="stroke:#000000;stroke-width:0.8;" x="220.447188" xlink:href="#md3fc83db75" y="224.64"/>
      </g>
     </g>
     <g id="text_5">
      <!-- 10.0 -->
      <defs>
       <path d="M 12.40625 8.296875 
L 28.515625 8.296875 
L 28.515625 63.921875 
L 10.984375 60.40625 
L 10.984375 69.390625 
L 28.421875 72.90625 
L 38.28125 72.90625 
L 38.28125 8.296875 
L 54.390625 8.296875 
L 54.390625 0 
L 12.40625 0 
z
" id="DejaVuSans-49"/>
      </defs>
      <g transform="translate(209.314375 239.238437)scale(0.1 -0.1)">
       <use xlink:href="#DejaVuSans-49"/>
       <use x="63.623047" xlink:href="#DejaVuSans-48"/>
       <use x="127.246094" xlink:href="#DejaVuSans-46"/>
       <use x="159.033203" xlink:href="#DejaVuSans-48"/>
      </g>
     </g>
    </g>
    <g id="xtick_6">
     <g id="line2d_6">
      <g>
       <use style="stroke:#000000;stroke-width:0.8;" x="262.297188" xlink:href="#md3fc83db75" y="224.64"/>
      </g>
     </g>
     <g id="text_6">
      <!-- 12.5 -->
      <g transform="translate(251.164375 239.238437)scale(0.1 -0.1)">
       <use xlink:href="#DejaVuSans-49"/>
       <use x="63.623047" xlink:href="#DejaVuSans-50"/>
       <use x="127.246094" xlink:href="#DejaVuSans-46"/>
       <use x="159.033203" xlink:href="#DejaVuSans-53"/>
      </g>
     </g>
    </g>
    <g id="xtick_7">
     <g id="line2d_7">
      <g>
       <use style="stroke:#000000;stroke-width:0.8;" x="304.147188" xlink:href="#md3fc83db75" y="224.64"/>
      </g>
     </g>
     <g id="text_7">
      <!-- 15.0 -->
      <g transform="translate(293.014375 239.238437)scale(0.1 -0.1)">
       <use xlink:href="#DejaVuSans-49"/>
       <use x="63.623047" xlink:href="#DejaVuSans-53"/>
       <use x="127.246094" xlink:href="#DejaVuSans-46"/>
       <use x="159.033203" xlink:href="#DejaVuSans-48"/>
      </g>
     </g>
    </g>
    <g id="xtick_8">
     <g id="line2d_8">
      <g>
       <use style="stroke:#000000;stroke-width:0.8;" x="345.997188" xlink:href="#md3fc83db75" y="224.64"/>
      </g>
     </g>
     <g id="text_8">
      <!-- 17.5 -->
      <g transform="translate(334.864375 239.238437)scale(0.1 -0.1)">
       <use xlink:href="#DejaVuSans-49"/>
       <use x="63.623047" xlink:href="#DejaVuSans-55"/>
       <use x="127.246094" xlink:href="#DejaVuSans-46"/>
       <use x="159.033203" xlink:href="#DejaVuSans-53"/>
      </g>
     </g>
    </g>
    <g id="xtick_9">
     <g id="line2d_9">
      <g>
       <use style="stroke:#000000;stroke-width:0.8;" x="387.847188" xlink:href="#md3fc83db75" y="224.64"/>
      </g>
     </g>
     <g id="text_9">
      <!-- 20.0 -->
      <g transform="translate(376.714375 239.238437)scale(0.1 -0.1)">
       <use xlink:href="#DejaVuSans-50"/>
       <use x="63.623047" xlink:href="#DejaVuSans-48"/>
       <use x="127.246094" xlink:href="#DejaVuSans-46"/>
       <use x="159.033203" xlink:href="#DejaVuSans-48"/>
      </g>
     </g>
    </g>
    <g id="text_10">
     <!-- Time (Ma) -->
     <defs>
      <path d="M -0.296875 72.90625 
L 61.375 72.90625 
L 61.375 64.59375 
L 35.5 64.59375 
L 35.5 0 
L 25.59375 0 
L 25.59375 64.59375 
L -0.296875 64.59375 
z
" id="DejaVuSans-84"/>
      <path d="M 9.421875 54.6875 
L 18.40625 54.6875 
L 18.40625 0 
L 9.421875 0 
z
M 9.421875 75.984375 
L 18.40625 75.984375 
L 18.40625 64.59375 
L 9.421875 64.59375 
z
" id="DejaVuSans-105"/>
      <path d="M 52 44.1875 
Q 55.375 50.25 60.0625 53.125 
Q 64.75 56 71.09375 56 
Q 79.640625 56 84.28125 50.015625 
Q 88.921875 44.046875 88.921875 33.015625 
L 88.921875 0 
L 79.890625 0 
L 79.890625 32.71875 
Q 79.890625 40.578125 77.09375 44.375 
Q 74.3125 48.1875 68.609375 48.1875 
Q 61.625 48.1875 57.5625 43.546875 
Q 53.515625 38.921875 53.515625 30.90625 
L 53.515625 0 
L 44.484375 0 
L 44.484375 32.71875 
Q 44.484375 40.625 41.703125 44.40625 
Q 38.921875 48.1875 33.109375 48.1875 
Q 26.21875 48.1875 22.15625 43.53125 
Q 18.109375 38.875 18.109375 30.90625 
L 18.109375 0 
L 9.078125 0 
L 9.078125 54.6875 
L 18.109375 54.6875 
L 18.109375 46.1875 
Q 21.1875 51.21875 25.484375 53.609375 
Q 29.78125 56 35.6875 56 
Q 41.65625 56 45.828125 52.96875 
Q 50 49.953125 52 44.1875 
z
" id="DejaVuSans-109"/>
      <path d="M 56.203125 29.59375 
L 56.203125 25.203125 
L 14.890625 25.203125 
Q 15.484375 15.921875 20.484375 11.0625 
Q 25.484375 6.203125 34.421875 6.203125 
Q 39.59375 6.203125 44.453125 7.46875 
Q 49.3125 8.734375 54.109375 11.28125 
L 54.109375 2.78125 
Q 49.265625 0.734375 44.1875 -0.34375 
Q 39.109375 -1.421875 33.890625 -1.421875 
Q 20.796875 -1.421875 13.15625 6.1875 
Q 5.515625 13.8125 5.515625 26.8125 
Q 5.515625 40.234375 12.765625 48.109375 
Q 20.015625 56 32.328125 56 
Q 43.359375 56 49.78125 48.890625 
Q 56.203125 41.796875 56.203125 29.59375 
z
M 47.21875 32.234375 
Q 47.125 39.59375 43.09375 43.984375 
Q 39.0625 48.390625 32.421875 48.390625 
Q 24.90625 48.390625 20.390625 44.140625 
Q 15.875 39.890625 15.1875 32.171875 
z
" id="DejaVuSans-101"/>
      <path id="DejaVuSans-32"/>
      <path d="M 31 75.875 
Q 24.46875 64.65625 21.28125 53.65625 
Q 18.109375 42.671875 18.109375 31.390625 
Q 18.109375 20.125 21.3125 9.0625 
Q 24.515625 -2 31 -13.1875 
L 23.1875 -13.1875 
Q 15.875 -1.703125 12.234375 9.375 
Q 8.59375 20.453125 8.59375 31.390625 
Q 8.59375 42.28125 12.203125 53.3125 
Q 15.828125 64.359375 23.1875 75.875 
z
" id="DejaVuSans-40"/>
      <path d="M 9.8125 72.90625 
L 24.515625 72.90625 
L 43.109375 23.296875 
L 61.8125 72.90625 
L 76.515625 72.90625 
L 76.515625 0 
L 66.890625 0 
L 66.890625 64.015625 
L 48.09375 14.015625 
L 38.1875 14.015625 
L 19.390625 64.015625 
L 19.390625 0 
L 9.8125 0 
z
" id="DejaVuSans-77"/>
      <path d="M 34.28125 27.484375 
Q 23.390625 27.484375 19.1875 25 
Q 14.984375 22.515625 14.984375 16.5 
Q 14.984375 11.71875 18.140625 8.90625 
Q 21.296875 6.109375 26.703125 6.109375 
Q 34.1875 6.109375 38.703125 11.40625 
Q 43.21875 16.703125 43.21875 25.484375 
L 43.21875 27.484375 
z
M 52.203125 31.203125 
L 52.203125 0 
L 43.21875 0 
L 43.21875 8.296875 
Q 40.140625 3.328125 35.546875 0.953125 
Q 30.953125 -1.421875 24.3125 -1.421875 
Q 15.921875 -1.421875 10.953125 3.296875 
Q 6 8.015625 6 15.921875 
Q 6 25.140625 12.171875 29.828125 
Q 18.359375 34.515625 30.609375 34.515625 
L 43.21875 34.515625 
L 43.21875 35.40625 
Q 43.21875 41.609375 39.140625 45 
Q 35.0625 48.390625 27.6875 48.390625 
Q 23 48.390625 18.546875 47.265625 
Q 14.109375 46.140625 10.015625 43.890625 
L 10.015625 52.203125 
Q 14.9375 54.109375 19.578125 55.046875 
Q 24.21875 56 28.609375 56 
Q 40.484375 56 46.34375 49.84375 
Q 52.203125 43.703125 52.203125 31.203125 
z
" id="DejaVuSans-97"/>
      <path d="M 8.015625 75.875 
L 15.828125 75.875 
Q 23.140625 64.359375 26.78125 53.3125 
Q 30.421875 42.28125 30.421875 31.390625 
Q 30.421875 20.453125 26.78125 9.375 
Q 23.140625 -1.703125 15.828125 -13.1875 
L 8.015625 -13.1875 
Q 14.5 -2 17.703125 9.0625 
Q 20.90625 20.125 20.90625 31.390625 
Q 20.90625 42.671875 17.703125 53.65625 
Q 14.5 64.65625 8.015625 75.875 
z
" id="DejaVuSans-41"/>
     </defs>
     <g transform="translate(187.814141 255.196094)scale(0.13 -0.13)">
      <use xlink:href="#DejaVuSans-84"/>
      <use x="57.958984" xlink:href="#DejaVuSans-105"/>
      <use x="85.742188" xlink:href="#DejaVuSans-109"/>
      <use x="183.154297" xlink:href="#DejaVuSans-101"/>
      <use x="244.677734" xlink:href="#DejaVuSans-32"/>
      <use x="276.464844" xlink:href="#DejaVuSans-40"/>
      <use x="315.478516" xlink:href="#DejaVuSans-77"/>
      <use x="401.757812" xlink:href="#DejaVuSans-97"/>
      <use x="463.037109" xlink:href="#DejaVuSans-41"/>
     </g>
    </g>
   </g>
   <g id="matplotlib.axis_2">
    <g id="ytick_1">
     <g id="line2d_10">
      <defs>
       <path d="M 0 0 
L -3.5 0 
" id="m035b05c4a8" style="stroke:#000000;stroke-width:0.8;"/>
      </defs>
      <g>
       <use style="stroke:#000000;stroke-width:0.8;" x="53.047188" xlink:href="#m035b05c4a8" y="217.327933"/>
      </g>
     </g>
     <g id="text_11">
      <!-- 0.55 -->
      <g transform="translate(23.781563 221.127152)scale(0.1 -0.1)">
       <use xlink:href="#DejaVuSans-48"/>
       <use x="63.623047" xlink:href="#DejaVuSans-46"/>
       <use x="95.410156" xlink:href="#DejaVuSans-53"/>
       <use x="159.033203" xlink:href="#DejaVuSans-53"/>
      </g>
     </g>
    </g>
    <g id="ytick_2">
     <g id="line2d_11">
      <g>
       <use style="stroke:#000000;stroke-width:0.8;" x="53.047188" xlink:href="#m035b05c4a8" y="188.737523"/>
      </g>
     </g>
     <g id="text_12">
      <!-- 0.60 -->
      <defs>
       <path d="M 33.015625 40.375 
Q 26.375 40.375 22.484375 35.828125 
Q 18.609375 31.296875 18.609375 23.390625 
Q 18.609375 15.53125 22.484375 10.953125 
Q 26.375 6.390625 33.015625 6.390625 
Q 39.65625 6.390625 43.53125 10.953125 
Q 47.40625 15.53125 47.40625 23.390625 
Q 47.40625 31.296875 43.53125 35.828125 
Q 39.65625 40.375 33.015625 40.375 
z
M 52.59375 71.296875 
L 52.59375 62.3125 
Q 48.875 64.0625 45.09375 64.984375 
Q 41.3125 65.921875 37.59375 65.921875 
Q 27.828125 65.921875 22.671875 59.328125 
Q 17.53125 52.734375 16.796875 39.40625 
Q 19.671875 43.65625 24.015625 45.921875 
Q 28.375 48.1875 33.59375 48.1875 
Q 44.578125 48.1875 50.953125 41.515625 
Q 57.328125 34.859375 57.328125 23.390625 
Q 57.328125 12.15625 50.6875 5.359375 
Q 44.046875 -1.421875 33.015625 -1.421875 
Q 20.359375 -1.421875 13.671875 8.265625 
Q 6.984375 17.96875 6.984375 36.375 
Q 6.984375 53.65625 15.1875 63.9375 
Q 23.390625 74.21875 37.203125 74.21875 
Q 40.921875 74.21875 44.703125 73.484375 
Q 48.484375 72.75 52.59375 71.296875 
z
" id="DejaVuSans-54"/>
      </defs>
      <g transform="translate(23.781563 192.536741)scale(0.1 -0.1)">
       <use xlink:href="#DejaVuSans-48"/>
       <use x="63.623047" xlink:href="#DejaVuSans-46"/>
       <use x="95.410156" xlink:href="#DejaVuSans-54"/>
       <use x="159.033203" xlink:href="#DejaVuSans-48"/>
      </g>
     </g>
    </g>
    <g id="ytick_3">
     <g id="line2d_12">
      <g>
       <use style="stroke:#000000;stroke-width:0.8;" x="53.047188" xlink:href="#m035b05c4a8" y="160.147113"/>
      </g>
     </g>
     <g id="text_13">
      <!-- 0.65 -->
      <g transform="translate(23.781563 163.946331)scale(0.1 -0.1)">
       <use xlink:href="#DejaVuSans-48"/>
       <use x="63.623047" xlink:href="#DejaVuSans-46"/>
       <use x="95.410156" xlink:href="#DejaVuSans-54"/>
       <use x="159.033203" xlink:href="#DejaVuSans-53"/>
      </g>
     </g>
    </g>
    <g id="ytick_4">
     <g id="line2d_13">
      <g>
       <use style="stroke:#000000;stroke-width:0.8;" x="53.047188" xlink:href="#m035b05c4a8" y="131.556703"/>
      </g>
     </g>
     <g id="text_14">
      <!-- 0.70 -->
      <g transform="translate(23.781563 135.355921)scale(0.1 -0.1)">
       <use xlink:href="#DejaVuSans-48"/>
       <use x="63.623047" xlink:href="#DejaVuSans-46"/>
       <use x="95.410156" xlink:href="#DejaVuSans-55"/>
       <use x="159.033203" xlink:href="#DejaVuSans-48"/>
      </g>
     </g>
    </g>
    <g id="ytick_5">
     <g id="line2d_14">
      <g>
       <use style="stroke:#000000;stroke-width:0.8;" x="53.047188" xlink:href="#m035b05c4a8" y="102.966293"/>
      </g>
     </g>
     <g id="text_15">
      <!-- 0.75 -->
      <g transform="translate(23.781563 106.765511)scale(0.1 -0.1)">
       <use xlink:href="#DejaVuSans-48"/>
       <use x="63.623047" xlink:href="#DejaVuSans-46"/>
       <use x="95.410156" xlink:href="#DejaVuSans-55"/>
       <use x="159.033203" xlink:href="#DejaVuSans-53"/>
      </g>
     </g>
    </g>
    <g id="ytick_6">
     <g id="line2d_15">
      <g>
       <use style="stroke:#000000;stroke-width:0.8;" x="53.047188" xlink:href="#m035b05c4a8" y="74.375883"/>
      </g>
     </g>
     <g id="text_16">
      <!-- 0.80 -->
      <defs>
       <path d="M 31.78125 34.625 
Q 24.75 34.625 20.71875 30.859375 
Q 16.703125 27.09375 16.703125 20.515625 
Q 16.703125 13.921875 20.71875 10.15625 
Q 24.75 6.390625 31.78125 6.390625 
Q 38.8125 6.390625 42.859375 10.171875 
Q 46.921875 13.96875 46.921875 20.515625 
Q 46.921875 27.09375 42.890625 30.859375 
Q 38.875 34.625 31.78125 34.625 
z
M 21.921875 38.8125 
Q 15.578125 40.375 12.03125 44.71875 
Q 8.5 49.078125 8.5 55.328125 
Q 8.5 64.0625 14.71875 69.140625 
Q 20.953125 74.21875 31.78125 74.21875 
Q 42.671875 74.21875 48.875 69.140625 
Q 55.078125 64.0625 55.078125 55.328125 
Q 55.078125 49.078125 51.53125 44.71875 
Q 48 40.375 41.703125 38.8125 
Q 48.828125 37.15625 52.796875 32.3125 
Q 56.78125 27.484375 56.78125 20.515625 
Q 56.78125 9.90625 50.3125 4.234375 
Q 43.84375 -1.421875 31.78125 -1.421875 
Q 19.734375 -1.421875 13.25 4.234375 
Q 6.78125 9.90625 6.78125 20.515625 
Q 6.78125 27.484375 10.78125 32.3125 
Q 14.796875 37.15625 21.921875 38.8125 
z
M 18.3125 54.390625 
Q 18.3125 48.734375 21.84375 45.5625 
Q 25.390625 42.390625 31.78125 42.390625 
Q 38.140625 42.390625 41.71875 45.5625 
Q 45.3125 48.734375 45.3125 54.390625 
Q 45.3125 60.0625 41.71875 63.234375 
Q 38.140625 66.40625 31.78125 66.40625 
Q 25.390625 66.40625 21.84375 63.234375 
Q 18.3125 60.0625 18.3125 54.390625 
z
" id="DejaVuSans-56"/>
      </defs>
      <g transform="translate(23.781563 78.175101)scale(0.1 -0.1)">
       <use xlink:href="#DejaVuSans-48"/>
       <use x="63.623047" xlink:href="#DejaVuSans-46"/>
       <use x="95.410156" xlink:href="#DejaVuSans-56"/>
       <use x="159.033203" xlink:href="#DejaVuSans-48"/>
      </g>
     </g>
    </g>
    <g id="ytick_7">
     <g id="line2d_16">
      <g>
       <use style="stroke:#000000;stroke-width:0.8;" x="53.047188" xlink:href="#m035b05c4a8" y="45.785472"/>
      </g>
     </g>
     <g id="text_17">
      <!-- 0.85 -->
      <g transform="translate(23.781563 49.584691)scale(0.1 -0.1)">
       <use xlink:href="#DejaVuSans-48"/>
       <use x="63.623047" xlink:href="#DejaVuSans-46"/>
       <use x="95.410156" xlink:href="#DejaVuSans-56"/>
       <use x="159.033203" xlink:href="#DejaVuSans-53"/>
      </g>
     </g>
    </g>
    <g id="ytick_8">
     <g id="line2d_17">
      <g>
       <use style="stroke:#000000;stroke-width:0.8;" x="53.047188" xlink:href="#m035b05c4a8" y="17.195062"/>
      </g>
     </g>
     <g id="text_18">
      <!-- 0.90 -->
      <defs>
       <path d="M 10.984375 1.515625 
L 10.984375 10.5 
Q 14.703125 8.734375 18.5 7.8125 
Q 22.3125 6.890625 25.984375 6.890625 
Q 35.75 6.890625 40.890625 13.453125 
Q 46.046875 20.015625 46.78125 33.40625 
Q 43.953125 29.203125 39.59375 26.953125 
Q 35.25 24.703125 29.984375 24.703125 
Q 19.046875 24.703125 12.671875 31.3125 
Q 6.296875 37.9375 6.296875 49.421875 
Q 6.296875 60.640625 12.9375 67.421875 
Q 19.578125 74.21875 30.609375 74.21875 
Q 43.265625 74.21875 49.921875 64.515625 
Q 56.59375 54.828125 56.59375 36.375 
Q 56.59375 19.140625 48.40625 8.859375 
Q 40.234375 -1.421875 26.421875 -1.421875 
Q 22.703125 -1.421875 18.890625 -0.6875 
Q 15.09375 0.046875 10.984375 1.515625 
z
M 30.609375 32.421875 
Q 37.25 32.421875 41.125 36.953125 
Q 45.015625 41.5 45.015625 49.421875 
Q 45.015625 57.28125 41.125 61.84375 
Q 37.25 66.40625 30.609375 66.40625 
Q 23.96875 66.40625 20.09375 61.84375 
Q 16.21875 57.28125 16.21875 49.421875 
Q 16.21875 41.5 20.09375 36.953125 
Q 23.96875 32.421875 30.609375 32.421875 
z
" id="DejaVuSans-57"/>
      </defs>
      <g transform="translate(23.781563 20.994281)scale(0.1 -0.1)">
       <use xlink:href="#DejaVuSans-48"/>
       <use x="63.623047" xlink:href="#DejaVuSans-46"/>
       <use x="95.410156" xlink:href="#DejaVuSans-57"/>
       <use x="159.033203" xlink:href="#DejaVuSans-48"/>
      </g>
     </g>
    </g>
    <g id="text_19">
     <!-- Scaling Factor -->
     <defs>
      <path d="M 53.515625 70.515625 
L 53.515625 60.890625 
Q 47.90625 63.578125 42.921875 64.890625 
Q 37.9375 66.21875 33.296875 66.21875 
Q 25.25 66.21875 20.875 63.09375 
Q 16.5 59.96875 16.5 54.203125 
Q 16.5 49.359375 19.40625 46.890625 
Q 22.3125 44.4375 30.421875 42.921875 
L 36.375 41.703125 
Q 47.40625 39.59375 52.65625 34.296875 
Q 57.90625 29 57.90625 20.125 
Q 57.90625 9.515625 50.796875 4.046875 
Q 43.703125 -1.421875 29.984375 -1.421875 
Q 24.8125 -1.421875 18.96875 -0.25 
Q 13.140625 0.921875 6.890625 3.21875 
L 6.890625 13.375 
Q 12.890625 10.015625 18.65625 8.296875 
Q 24.421875 6.59375 29.984375 6.59375 
Q 38.421875 6.59375 43.015625 9.90625 
Q 47.609375 13.234375 47.609375 19.390625 
Q 47.609375 24.75 44.3125 27.78125 
Q 41.015625 30.8125 33.5 32.328125 
L 27.484375 33.5 
Q 16.453125 35.6875 11.515625 40.375 
Q 6.59375 45.0625 6.59375 53.421875 
Q 6.59375 63.09375 13.40625 68.65625 
Q 20.21875 74.21875 32.171875 74.21875 
Q 37.3125 74.21875 42.625 73.28125 
Q 47.953125 72.359375 53.515625 70.515625 
z
" id="DejaVuSans-83"/>
      <path d="M 48.78125 52.59375 
L 48.78125 44.1875 
Q 44.96875 46.296875 41.140625 47.34375 
Q 37.3125 48.390625 33.40625 48.390625 
Q 24.65625 48.390625 19.8125 42.84375 
Q 14.984375 37.3125 14.984375 27.296875 
Q 14.984375 17.28125 19.8125 11.734375 
Q 24.65625 6.203125 33.40625 6.203125 
Q 37.3125 6.203125 41.140625 7.25 
Q 44.96875 8.296875 48.78125 10.40625 
L 48.78125 2.09375 
Q 45.015625 0.34375 40.984375 -0.53125 
Q 36.96875 -1.421875 32.421875 -1.421875 
Q 20.0625 -1.421875 12.78125 6.34375 
Q 5.515625 14.109375 5.515625 27.296875 
Q 5.515625 40.671875 12.859375 48.328125 
Q 20.21875 56 33.015625 56 
Q 37.15625 56 41.109375 55.140625 
Q 45.0625 54.296875 48.78125 52.59375 
z
" id="DejaVuSans-99"/>
      <path d="M 9.421875 75.984375 
L 18.40625 75.984375 
L 18.40625 0 
L 9.421875 0 
z
" id="DejaVuSans-108"/>
      <path d="M 54.890625 33.015625 
L 54.890625 0 
L 45.90625 0 
L 45.90625 32.71875 
Q 45.90625 40.484375 42.875 44.328125 
Q 39.84375 48.1875 33.796875 48.1875 
Q 26.515625 48.1875 22.3125 43.546875 
Q 18.109375 38.921875 18.109375 30.90625 
L 18.109375 0 
L 9.078125 0 
L 9.078125 54.6875 
L 18.109375 54.6875 
L 18.109375 46.1875 
Q 21.34375 51.125 25.703125 53.5625 
Q 30.078125 56 35.796875 56 
Q 45.21875 56 50.046875 50.171875 
Q 54.890625 44.34375 54.890625 33.015625 
z
" id="DejaVuSans-110"/>
      <path d="M 45.40625 27.984375 
Q 45.40625 37.75 41.375 43.109375 
Q 37.359375 48.484375 30.078125 48.484375 
Q 22.859375 48.484375 18.828125 43.109375 
Q 14.796875 37.75 14.796875 27.984375 
Q 14.796875 18.265625 18.828125 12.890625 
Q 22.859375 7.515625 30.078125 7.515625 
Q 37.359375 7.515625 41.375 12.890625 
Q 45.40625 18.265625 45.40625 27.984375 
z
M 54.390625 6.78125 
Q 54.390625 -7.171875 48.1875 -13.984375 
Q 42 -20.796875 29.203125 -20.796875 
Q 24.46875 -20.796875 20.265625 -20.09375 
Q 16.0625 -19.390625 12.109375 -17.921875 
L 12.109375 -9.1875 
Q 16.0625 -11.328125 19.921875 -12.34375 
Q 23.78125 -13.375 27.78125 -13.375 
Q 36.625 -13.375 41.015625 -8.765625 
Q 45.40625 -4.15625 45.40625 5.171875 
L 45.40625 9.625 
Q 42.625 4.78125 38.28125 2.390625 
Q 33.9375 0 27.875 0 
Q 17.828125 0 11.671875 7.65625 
Q 5.515625 15.328125 5.515625 27.984375 
Q 5.515625 40.671875 11.671875 48.328125 
Q 17.828125 56 27.875 56 
Q 33.9375 56 38.28125 53.609375 
Q 42.625 51.21875 45.40625 46.390625 
L 45.40625 54.6875 
L 54.390625 54.6875 
z
" id="DejaVuSans-103"/>
      <path d="M 9.8125 72.90625 
L 51.703125 72.90625 
L 51.703125 64.59375 
L 19.671875 64.59375 
L 19.671875 43.109375 
L 48.578125 43.109375 
L 48.578125 34.8125 
L 19.671875 34.8125 
L 19.671875 0 
L 9.8125 0 
z
" id="DejaVuSans-70"/>
      <path d="M 18.3125 70.21875 
L 18.3125 54.6875 
L 36.8125 54.6875 
L 36.8125 47.703125 
L 18.3125 47.703125 
L 18.3125 18.015625 
Q 18.3125 11.328125 20.140625 9.421875 
Q 21.96875 7.515625 27.59375 7.515625 
L 36.8125 7.515625 
L 36.8125 0 
L 27.59375 0 
Q 17.1875 0 13.234375 3.875 
Q 9.28125 7.765625 9.28125 18.015625 
L 9.28125 47.703125 
L 2.6875 47.703125 
L 2.6875 54.6875 
L 9.28125 54.6875 
L 9.28125 70.21875 
z
" id="DejaVuSans-116"/>
      <path d="M 30.609375 48.390625 
Q 23.390625 48.390625 19.1875 42.75 
Q 14.984375 37.109375 14.984375 27.296875 
Q 14.984375 17.484375 19.15625 11.84375 
Q 23.34375 6.203125 30.609375 6.203125 
Q 37.796875 6.203125 41.984375 11.859375 
Q 46.1875 17.53125 46.1875 27.296875 
Q 46.1875 37.015625 41.984375 42.703125 
Q 37.796875 48.390625 30.609375 48.390625 
z
M 30.609375 56 
Q 42.328125 56 49.015625 48.375 
Q 55.71875 40.765625 55.71875 27.296875 
Q 55.71875 13.875 49.015625 6.21875 
Q 42.328125 -1.421875 30.609375 -1.421875 
Q 18.84375 -1.421875 12.171875 6.21875 
Q 5.515625 13.875 5.515625 27.296875 
Q 5.515625 40.765625 12.171875 48.375 
Q 18.84375 56 30.609375 56 
z
" id="DejaVuSans-111"/>
      <path d="M 41.109375 46.296875 
Q 39.59375 47.171875 37.8125 47.578125 
Q 36.03125 48 33.890625 48 
Q 26.265625 48 22.1875 43.046875 
Q 18.109375 38.09375 18.109375 28.8125 
L 18.109375 0 
L 9.078125 0 
L 9.078125 54.6875 
L 18.109375 54.6875 
L 18.109375 46.1875 
Q 20.953125 51.171875 25.484375 53.578125 
Q 30.03125 56 36.53125 56 
Q 37.453125 56 38.578125 55.875 
Q 39.703125 55.765625 41.0625 55.515625 
z
" id="DejaVuSans-114"/>
     </defs>
     <g transform="translate(17.077969 161.427109)rotate(-90)scale(0.13 -0.13)">
      <use xlink:href="#DejaVuSans-83"/>
      <use x="63.476562" xlink:href="#DejaVuSans-99"/>
      <use x="118.457031" xlink:href="#DejaVuSans-97"/>
      <use x="179.736328" xlink:href="#DejaVuSans-108"/>
      <use x="207.519531" xlink:href="#DejaVuSans-105"/>
      <use x="235.302734" xlink:href="#DejaVuSans-110"/>
      <use x="298.681641" xlink:href="#DejaVuSans-103"/>
      <use x="362.158203" xlink:href="#DejaVuSans-32"/>
      <use x="393.945312" xlink:href="#DejaVuSans-70"/>
      <use x="442.339844" xlink:href="#DejaVuSans-97"/>
      <use x="503.619141" xlink:href="#DejaVuSans-99"/>
      <use x="558.599609" xlink:href="#DejaVuSans-116"/>
      <use x="597.808594" xlink:href="#DejaVuSans-111"/>
      <use x="658.990234" xlink:href="#DejaVuSans-114"/>
     </g>
    </g>
   </g>
   <g id="line2d_18">
    <path clip-path="url(#p849a464a3b)" d="M 53.047188 214.756364 
L 57.232188 163.968271 
L 61.417188 159.838045 
L 65.602188 132.813224 
L 69.787188 148.761709 
L 73.972188 92.931195 
L 78.157188 79.042642 
L 82.342188 115.983035 
L 86.527188 106.566491 
L 90.712188 116.702954 
L 94.897188 138.794854 
L 99.082188 141.223996 
L 103.267188 131.02267 
L 107.452188 137.643006 
L 111.637188 120.322101 
L 115.822188 133.35746 
L 120.007188 152.054743 
L 124.192188 159.846868 
L 128.377188 156.669917 
L 132.562188 155.191466 
L 136.747188 151.625211 
L 140.932187 132.549428 
L 145.117188 94.690075 
L 149.302188 55.025732 
L 153.487188 41.076634 
L 157.672188 47.002623 
L 161.857188 75.675941 
L 166.042188 77.742096 
L 170.227188 98.056797 
L 174.412188 113.04165 
L 178.597188 143.59064 
L 182.782188 130.969124 
L 186.967188 91.80881 
L 191.152188 76.460894 
L 195.337188 105.579888 
L 199.522188 115.456325 
L 203.707188 108.903432 
L 207.892188 87.841583 
L 212.077188 93.612759 
L 216.262188 90.375165 
L 220.447188 79.253737 
L 224.632188 75.874613 
L 228.817188 68.856568 
L 233.002188 64.816949 
L 237.187188 63.479001 
L 241.372188 63.135696 
L 245.557188 64.669691 
L 249.742188 65.103304 
L 253.927188 60.750614 
L 258.112188 53.253385 
L 262.297188 47.383167 
L 266.482188 64.178003 
L 270.667188 57.211736 
L 274.852188 57.689139 
L 279.037188 52.938002 
L 283.222188 34.708704 
L 287.407188 17.212726 
L 291.592188 32.273835 
L 295.777188 53.382877 
L 299.962188 74.148836 
L 304.147188 93.31777 
L 308.332188 97.714488 
L 312.517188 96.857801 
L 316.702188 99.413105 
L 320.887188 109.365166 
L 325.072188 125.66287 
L 329.257188 132.977671 
L 333.442188 123.631578 
L 337.627188 73.795762 
L 341.812188 40.333722 
L 345.997188 34.308765 
L 350.182188 32.757782 
L 354.367188 31.529594 
L 358.552188 29.016327 
L 362.737188 28.701083 
L 366.922188 28.728272 
L 371.107188 29.163134 
L 375.292188 29.355476 
L 379.477188 30.477697 
L 383.662188 31.901502 
L 387.847188 33.80614 
" style="fill:none;stroke:#000000;stroke-linecap:square;stroke-width:1.5;"/>
   </g>
   <g id="line2d_19">
    <path clip-path="url(#p849a464a3b)" d="M 53.047188 214.756364 
L 53.884188 157.146568 
L 54.721188 154.677472 
L 55.558188 147.146307 
L 56.395188 171.3619 
L 57.232188 163.968271 
L 58.069188 160.597114 
L 58.906188 166.974995 
L 59.743188 159.726076 
L 60.580188 154.30595 
L 61.417188 159.838045 
L 62.254188 159.174175 
L 63.091188 159.846463 
L 63.928188 168.66883 
L 64.765188 175.066364 
L 65.602188 132.813224 
L 66.439188 109.853311 
L 68.113188 152.161767 
L 68.950188 165.43808 
L 71.461188 115.358914 
L 72.298188 101.404106 
L 73.135188 90.895415 
L 73.972188 92.931195 
L 74.809188 114.901882 
L 75.646188 147.664373 
L 76.483188 128.937139 
L 77.320188 96.448314 
L 78.157188 79.042642 
L 78.994188 87.223279 
L 79.831188 104.196541 
L 80.668188 107.98939 
L 81.505188 112.476464 
L 82.342188 115.983035 
L 83.179188 117.741221 
L 84.016188 119.835178 
L 84.853188 117.321599 
L 85.690188 112.47818 
L 86.527188 106.566491 
L 88.201188 91.767935 
L 89.038188 86.778825 
L 89.875188 106.454776 
L 91.549188 126.918236 
L 92.386188 133.260867 
L 93.223188 135.626015 
L 94.060188 135.987947 
L 94.897188 138.794854 
L 95.734188 140.070473 
L 96.571188 133.466377 
L 97.408188 130.830558 
L 98.245188 141.307668 
L 99.082188 141.223996 
L 99.919188 142.183546 
L 100.756188 142.610861 
L 101.593188 136.185253 
L 102.430188 127.93627 
L 103.267188 131.02267 
L 104.104188 137.237663 
L 104.941188 139.487479 
L 105.778188 143.226712 
L 106.615188 141.492106 
L 107.452188 137.643006 
L 108.289188 137.546871 
L 109.126188 138.860003 
L 109.963188 135.487352 
L 111.637188 120.322101 
L 112.474188 114.215548 
L 113.311188 111.172788 
L 114.148188 115.512719 
L 115.822188 133.35746 
L 116.659188 139.935 
L 117.496188 143.844155 
L 120.007188 152.054743 
L 120.844188 153.544383 
L 122.518188 157.49803 
L 123.355188 158.968352 
L 124.192188 159.846868 
L 125.029188 160.138507 
L 125.866188 160.123451 
L 126.703188 159.680224 
L 127.540188 158.44847 
L 129.214188 154.951645 
L 130.051188 154.328831 
L 132.562188 155.191466 
L 133.399188 155.159196 
L 134.236188 154.908538 
L 135.073188 154.259536 
L 135.910188 153.174329 
L 136.747188 151.625211 
L 139.258188 141.883895 
L 140.095188 137.695657 
L 140.932187 132.549428 
L 142.606188 119.630397 
L 144.280188 103.810944 
L 147.628188 67.653961 
L 148.465188 60.59488 
L 149.302188 55.025732 
L 150.139188 50.846695 
L 151.813188 44.350504 
L 152.650188 42.281632 
L 154.324188 39.883084 
L 155.161188 39.776408 
L 155.998188 40.604857 
L 156.835188 42.846343 
L 158.509188 51.600214 
L 159.346188 57.009812 
L 161.020188 70.312542 
L 161.857188 75.675941 
L 162.694188 78.528566 
L 163.531188 78.992881 
L 164.368188 77.83083 
L 165.205188 77.001204 
L 166.042188 77.742096 
L 166.879188 81.712542 
L 168.553188 93.1321 
L 169.390188 96.289222 
L 170.227188 98.056797 
L 171.064188 98.95659 
L 172.738188 104.71636 
L 173.575188 108.307217 
L 174.412188 113.04165 
L 176.086188 125.905564 
L 177.760188 139.337889 
L 178.597188 143.59064 
L 179.434188 145.309082 
L 180.271188 144.650281 
L 181.108188 141.681544 
L 181.945188 136.972287 
L 182.782188 130.969124 
L 183.619188 123.750367 
L 186.130188 98.496771 
L 188.641188 78.735393 
L 189.478188 74.257405 
L 190.315188 72.69733 
L 191.152188 76.460894 
L 193.663188 96.660678 
L 195.337188 105.579888 
L 196.174188 109.495404 
L 197.011188 112.521363 
L 197.848188 114.420502 
L 198.685188 115.241409 
L 199.522188 115.456325 
L 200.359188 115.482708 
L 201.196188 115.267585 
L 202.033188 114.28268 
L 202.870188 112.18839 
L 203.707188 108.903432 
L 204.544188 103.382539 
L 206.218188 94.408323 
L 207.055188 90.631567 
L 207.892188 87.841583 
L 208.729188 86.0508 
L 209.566188 85.247652 
L 210.403188 85.962184 
L 211.240188 88.673987 
L 212.077188 93.612759 
L 213.751188 104.528727 
L 214.588188 107.722644 
L 215.425188 104.109746 
L 217.099188 78.236125 
L 217.936188 76.099696 
L 218.773188 77.754459 
L 220.447188 79.253737 
L 221.284188 78.655848 
L 222.121188 78.73668 
L 222.958188 78.11683 
L 223.795188 77.180535 
L 225.469188 74.519975 
L 227.980188 70.071413 
L 229.654188 67.760839 
L 231.328188 66.126611 
L 233.002188 64.816949 
L 233.839188 64.342803 
L 235.513188 63.763273 
L 237.187188 63.479001 
L 238.024188 62.579799 
L 239.698188 62.652101 
L 241.372188 63.135696 
L 243.046188 63.753223 
L 245.557188 64.669691 
L 247.231188 65.141652 
L 248.905188 65.259396 
L 249.742188 65.103304 
L 250.579188 64.695613 
L 251.416188 63.996363 
L 253.090188 61.954544 
L 253.927188 60.750614 
L 254.764188 58.650118 
L 256.438188 56.226208 
L 258.112188 53.253385 
L 259.786188 50.10925 
L 261.460188 47.860172 
L 262.297188 47.383167 
L 263.134188 48.130499 
L 263.971188 52.360887 
L 264.808188 60.368967 
L 265.645188 65.853796 
L 266.482188 64.178003 
L 267.319188 59.284601 
L 268.156188 57.406734 
L 269.830188 56.97806 
L 270.667188 57.211736 
L 271.504188 56.927156 
L 272.341188 57.474689 
L 273.178188 57.850621 
L 274.015188 57.944695 
L 274.852188 57.689139 
L 275.689188 57.101162 
L 276.526188 56.234388 
L 279.037188 52.938002 
L 279.874188 52.163689 
L 280.711188 50.879165 
L 281.548188 47.717113 
L 283.222188 34.708704 
L 284.059188 28.083603 
L 284.896188 22.612101 
L 285.733188 19.17263 
L 286.570188 17.568872 
L 287.407188 17.212726 
L 288.244188 17.083636 
L 289.081188 18.910911 
L 289.918188 22.413042 
L 291.592188 32.273835 
L 293.266188 43.013238 
L 294.103188 47.590856 
L 297.451188 60.344578 
L 299.125188 69.384847 
L 300.799188 78.713444 
L 302.473188 86.859549 
L 304.147188 93.31777 
L 304.984188 92.577244 
L 305.821188 94.670384 
L 306.658188 96.184555 
L 307.495188 97.178807 
L 308.332188 97.714488 
L 309.169188 97.900527 
L 310.006188 97.744077 
L 311.680188 97.07421 
L 312.517188 96.857801 
L 313.354188 96.790815 
L 314.191188 96.974643 
L 315.028188 97.448823 
L 315.865188 98.305322 
L 316.702188 99.413105 
L 317.539188 100.765528 
L 318.376188 102.366019 
L 319.213188 104.245981 
L 320.050188 106.52558 
L 320.887188 109.365166 
L 321.724188 109.258015 
L 325.072188 125.66287 
L 325.909188 128.635353 
L 326.746188 130.858521 
L 327.583188 132.272199 
L 328.420188 132.910214 
L 329.257188 132.977671 
L 330.094188 132.765797 
L 330.931188 131.92665 
L 331.768188 130.496385 
L 332.605188 127.944056 
L 333.442188 123.631578 
L 334.279188 116.963182 
L 335.116188 107.884701 
L 337.627188 73.795762 
L 338.464188 61.763648 
L 339.301188 54.517238 
L 340.975188 44.060585 
L 341.812188 40.333722 
L 342.649188 37.9071 
L 343.486188 36.37989 
L 344.323188 35.470174 
L 345.160188 34.813248 
L 346.834188 33.912791 
L 349.345188 33.039901 
L 352.693188 31.988812 
L 354.367188 31.529594 
L 355.204188 29.646536 
L 358.552188 29.016327 
L 361.063188 28.778568 
L 364.411188 28.659787 
L 366.922188 28.728272 
L 370.270188 29.042473 
L 371.107188 29.163134 
L 371.944188 28.667178 
L 375.292188 29.355476 
L 380.314188 30.723427 
L 383.662188 31.901502 
L 386.173188 32.997741 
L 387.847188 33.80614 
L 387.847188 33.80614 
" style="fill:none;stroke:#9400d3;stroke-dasharray:5.55,2.4;stroke-dashoffset:0;stroke-width:1.5;"/>
   </g>
   <g id="line2d_20">
    <path clip-path="url(#p849a464a3b)" d="M 53.047188 214.756364 
L 69.787188 148.761709 
L 86.527188 106.566491 
L 103.267188 131.02267 
L 120.007188 152.054743 
L 136.747188 151.625211 
L 153.487188 41.076634 
L 170.227188 98.056797 
L 186.967188 91.80881 
L 203.707188 108.903432 
L 220.447188 79.253737 
L 237.187188 63.479001 
L 253.927188 60.750614 
L 270.667188 57.211736 
L 287.407188 17.212726 
L 304.147188 93.31777 
L 320.887188 109.365166 
L 337.627188 73.795762 
L 354.367188 31.529594 
L 371.107188 29.163134 
L 387.847188 33.80614 
" style="fill:none;stroke:#6495ed;stroke-dasharray:9.6,2.4,1.5,2.4;stroke-dashoffset:0;stroke-width:1.5;"/>
   </g>
   <g id="patch_3">
    <path d="M 53.047188 224.64 
L 53.047188 7.2 
" style="fill:none;stroke:#000000;stroke-linecap:square;stroke-linejoin:miter;stroke-width:0.8;"/>
   </g>
   <g id="patch_4">
    <path d="M 387.847188 224.64 
L 387.847188 7.2 
" style="fill:none;stroke:#000000;stroke-linecap:square;stroke-linejoin:miter;stroke-width:0.8;"/>
   </g>
   <g id="patch_5">
    <path d="M 53.047188 224.64 
L 387.847188 224.64 
" style="fill:none;stroke:#000000;stroke-linecap:square;stroke-linejoin:miter;stroke-width:0.8;"/>
   </g>
   <g id="patch_6">
    <path d="M 53.047188 7.2 
L 387.847188 7.2 
" style="fill:none;stroke:#000000;stroke-linecap:square;stroke-linejoin:miter;stroke-width:0.8;"/>
   </g>
   <g id="legend_1">
    <g id="patch_7">
     <path d="M 311.12375 219.64 
L 380.847188 219.64 
Q 382.847188 219.64 382.847188 217.64 
L 382.847188 174.605625 
Q 382.847188 172.605625 380.847188 172.605625 
L 311.12375 172.605625 
Q 309.12375 172.605625 309.12375 174.605625 
L 309.12375 217.64 
Q 309.12375 219.64 311.12375 219.64 
z
" style="fill:#ffffff;opacity:0.8;stroke:#cccccc;stroke-linejoin:miter;"/>
    </g>
    <g id="line2d_21">
     <path d="M 313.12375 180.704062 
L 333.12375 180.704062 
" style="fill:none;stroke:#000000;stroke-linecap:square;stroke-width:1.5;"/>
    </g>
    <g id="line2d_22"/>
    <g id="text_20">
     <!-- 250 kyr -->
     <defs>
      <path d="M 9.078125 75.984375 
L 18.109375 75.984375 
L 18.109375 31.109375 
L 44.921875 54.6875 
L 56.390625 54.6875 
L 27.390625 29.109375 
L 57.625 0 
L 45.90625 0 
L 18.109375 26.703125 
L 18.109375 0 
L 9.078125 0 
z
" id="DejaVuSans-107"/>
      <path d="M 32.171875 -5.078125 
Q 28.375 -14.84375 24.75 -17.8125 
Q 21.140625 -20.796875 15.09375 -20.796875 
L 7.90625 -20.796875 
L 7.90625 -13.28125 
L 13.1875 -13.28125 
Q 16.890625 -13.28125 18.9375 -11.515625 
Q 21 -9.765625 23.484375 -3.21875 
L 25.09375 0.875 
L 2.984375 54.6875 
L 12.5 54.6875 
L 29.59375 11.921875 
L 46.6875 54.6875 
L 56.203125 54.6875 
z
" id="DejaVuSans-121"/>
     </defs>
     <g transform="translate(341.12375 184.204062)scale(0.1 -0.1)">
      <use xlink:href="#DejaVuSans-50"/>
      <use x="63.623047" xlink:href="#DejaVuSans-53"/>
      <use x="127.246094" xlink:href="#DejaVuSans-48"/>
      <use x="190.869141" xlink:href="#DejaVuSans-32"/>
      <use x="222.65625" xlink:href="#DejaVuSans-107"/>
      <use x="276.941406" xlink:href="#DejaVuSans-121"/>
      <use x="336.121094" xlink:href="#DejaVuSans-114"/>
     </g>
    </g>
    <g id="line2d_23">
     <path d="M 313.12375 195.382187 
L 333.12375 195.382187 
" style="fill:none;stroke:#9400d3;stroke-dasharray:5.55,2.4;stroke-dashoffset:0;stroke-width:1.5;"/>
    </g>
    <g id="line2d_24"/>
    <g id="text_21">
     <!-- 50 kyr -->
     <g transform="translate(341.12375 198.882187)scale(0.1 -0.1)">
      <use xlink:href="#DejaVuSans-53"/>
      <use x="63.623047" xlink:href="#DejaVuSans-48"/>
      <use x="127.246094" xlink:href="#DejaVuSans-32"/>
      <use x="159.033203" xlink:href="#DejaVuSans-107"/>
      <use x="213.318359" xlink:href="#DejaVuSans-121"/>
      <use x="272.498047" xlink:href="#DejaVuSans-114"/>
     </g>
    </g>
    <g id="line2d_25">
     <path d="M 313.12375 210.060312 
L 333.12375 210.060312 
" style="fill:none;stroke:#6495ed;stroke-dasharray:9.6,2.4,1.5,2.4;stroke-dashoffset:0;stroke-width:1.5;"/>
    </g>
    <g id="line2d_26"/>
    <g id="text_22">
     <!-- 1ma -->
     <g transform="translate(341.12375 213.560312)scale(0.1 -0.1)">
      <use xlink:href="#DejaVuSans-49"/>
      <use x="63.623047" xlink:href="#DejaVuSans-109"/>
      <use x="161.035156" xlink:href="#DejaVuSans-97"/>
     </g>
    </g>
   </g>
  </g>
 </g>
 <defs>
  <clipPath id="p849a464a3b">
   <rect height="217.44" width="334.8" x="53.047188" y="7.2"/>
  </clipPath>
 </defs>
</svg>
