<?xml version="1.0" encoding="UTF-8" standalone="no"?>
<svg
   xmlns:dc="http://purl.org/dc/elements/1.1/"
   xmlns:cc="http://creativecommons.org/ns#"
   xmlns:rdf="http://www.w3.org/1999/02/22-rdf-syntax-ns#"
   xmlns:svg="http://www.w3.org/2000/svg"
   xmlns="http://www.w3.org/2000/svg"
   xmlns:xlink="http://www.w3.org/1999/xlink"
   xmlns:sodipodi="http://sodipodi.sourceforge.net/DTD/sodipodi-0.dtd"
   xmlns:inkscape="http://www.inkscape.org/namespaces/inkscape"
   height="275.698125pt"
   version="1.1"
   viewBox="0 0 390.66625 275.698125"
   width="390.66625pt"
   id="svg7855"
   sodipodi:docname="Figure_10.svg"
   inkscape:version="1.0.1 (c497b03c, 2020-09-10)"
   inkscape:export-filename="/Users/mmijjum/Documents/Production_Rates_Calculator/src/plots/Figure_10_inkscape.png"
   inkscape:export-xdpi="300"
   inkscape:export-ydpi="300">
  <metadata
     id="metadata7859">
    <rdf:RDF>
      <cc:Work
         rdf:about="">
        <dc:format>image/svg+xml</dc:format>
        <dc:type
           rdf:resource="http://purl.org/dc/dcmitype/StillImage" />
      </cc:Work>
    </rdf:RDF>
  </metadata>
  <sodipodi:namedview
     pagecolor="#ffffff"
     bordercolor="#666666"
     borderopacity="1"
     objecttolerance="10"
     gridtolerance="10"
     guidetolerance="10"
     inkscape:pageopacity="0"
     inkscape:pageshadow="2"
     inkscape:window-width="1440"
     inkscape:window-height="804"
     id="namedview7857"
     showgrid="false"
     inkscape:zoom="0.84059333"
     inkscape:cx="260.44417"
     inkscape:cy="183.79875"
     inkscape:window-x="0"
     inkscape:window-y="23"
     inkscape:window-maximized="1"
     inkscape:current-layer="svg7855" />
  <defs
     id="defs7302">
    <style
       type="text/css"
       id="style7300">
*{stroke-linecap:butt;stroke-linejoin:round;}
  </style>
  </defs>
  <g
     id="figure_1">
    <g
       id="patch_1">
      <path
         d="M 0 275.698125  L 390.66625 275.698125  L 390.66625 0  L 0 0  z "
         style="fill:#ffffff;"
         id="path7304" />
    </g>
    <g
       id="axes_1">
      <g
         id="patch_2">
        <path
           d="M 39.1225 235.238438  L 373.9225 235.238438  L 373.9225 17.798437  L 39.1225 17.798437  z "
           style="fill:#ffffff;"
           id="path7307" />
      </g>
      <g
         id="PathCollection_1">
        <defs
           id="defs7311">
          <path
             d="M 0 3  C 0.795609 3 1.55874 2.683901 2.12132 2.12132  C 2.683901 1.55874 3 0.795609 3 0  C 3 -0.795609 2.683901 -1.55874 2.12132 -2.12132  C 1.55874 -2.683901 0.795609 -3 0 -3  C -0.795609 -3 -1.55874 -2.683901 -2.12132 -2.12132  C -2.683901 -1.55874 -3 -0.795609 -3 0  C -3 0.795609 -2.683901 1.55874 -2.12132 2.12132  C -1.55874 2.683901 -0.795609 3 0 3  z "
             id="m201fc545d3"
             style="stroke:#191970;stroke-opacity:0.7;" />
        </defs>
        <g
           clip-path="url(#p3563de8c97)"
           id="g7315">
          <use
             style="fill:#191970;fill-opacity:0.7;stroke:#191970;stroke-opacity:0.7;"
             x="89.3425"
             xlink:href="#m201fc545d3"
             y="131.736998"
             id="use7313" />
        </g>
      </g>
      <g
         id="PathCollection_2">
        <g
           clip-path="url(#p3563de8c97)"
           id="g7320">
          <use
             style="fill:#191970;fill-opacity:0.7;stroke:#191970;stroke-opacity:0.7;"
             x="89.3425"
             xlink:href="#m201fc545d3"
             y="120.864998"
             id="use7318" />
        </g>
      </g>
      <g
         id="PathCollection_3">
        <g
           clip-path="url(#p3563de8c97)"
           id="g7325">
          <use
             style="fill:#191970;fill-opacity:0.7;stroke:#191970;stroke-opacity:0.7;"
             x="89.3425"
             xlink:href="#m201fc545d3"
             y="115.646438"
             id="use7323" />
        </g>
      </g>
      <g
         id="PathCollection_4">
        <g
           clip-path="url(#p3563de8c97)"
           id="g7330">
          <use
             style="fill:#191970;fill-opacity:0.7;stroke:#191970;stroke-opacity:0.7;"
             x="156.3025"
             xlink:href="#m201fc545d3"
             y="220.887397"
             id="use7328" />
        </g>
      </g>
      <g
         id="PathCollection_5">
        <g
           clip-path="url(#p3563de8c97)"
           id="g7335">
          <use
             style="fill:#191970;fill-opacity:0.7;stroke:#191970;stroke-opacity:0.7;"
             x="189.7825"
             xlink:href="#m201fc545d3"
             y="203.492198"
             id="use7333" />
        </g>
      </g>
      <g
         id="PathCollection_6">
        <g
           clip-path="url(#p3563de8c97)"
           id="g7340">
          <use
             style="fill:#191970;fill-opacity:0.7;stroke:#191970;stroke-opacity:0.7;"
             x="156.3025"
             xlink:href="#m201fc545d3"
             y="220.452517"
             id="use7338" />
        </g>
      </g>
      <g
         id="PathCollection_7">
        <g
           clip-path="url(#p3563de8c97)"
           id="g7345">
          <use
             style="fill:#191970;fill-opacity:0.7;stroke:#191970;stroke-opacity:0.7;"
             x="223.2625"
             xlink:href="#m201fc545d3"
             y="209.580518"
             id="use7343" />
        </g>
      </g>
      <g
         id="matplotlib.axis_1">
        <g
           id="xtick_1">
          <g
             id="line2d_1">
            <defs
               id="defs7349">
              <path
                 d="M 0 0  L 0 3.5  "
                 id="m8653ec3084"
                 style="stroke:#000000;stroke-width:0.8;" />
            </defs>
            <g
               id="g7353">
              <use
                 style="stroke:#000000;stroke-width:0.8;"
                 x="39.1225"
                 xlink:href="#m8653ec3084"
                 y="235.238438"
                 id="use7351" />
            </g>
          </g>
          <g
             id="text_1">
            <!-- 0 -->
            <defs
               id="defs7357">
              <path
                 d="M 31.78125 66.40625  Q 24.171875 66.40625 20.328125 58.90625  Q 16.5 51.421875 16.5 36.375  Q 16.5 21.390625 20.328125 13.890625  Q 24.171875 6.390625 31.78125 6.390625  Q 39.453125 6.390625 43.28125 13.890625  Q 47.125 21.390625 47.125 36.375  Q 47.125 51.421875 43.28125 58.90625  Q 39.453125 66.40625 31.78125 66.40625  z M 31.78125 74.21875  Q 44.046875 74.21875 50.515625 64.515625  Q 56.984375 54.828125 56.984375 36.375  Q 56.984375 17.96875 50.515625 8.265625  Q 44.046875 -1.421875 31.78125 -1.421875  Q 19.53125 -1.421875 13.0625 8.265625  Q 6.59375 17.96875 6.59375 36.375  Q 6.59375 54.828125 13.0625 64.515625  Q 19.53125 74.21875 31.78125 74.21875  z "
                 id="DejaVuSans-48" />
            </defs>
            <g
               transform="translate(35.94125 249.836875)scale(0.1 -0.1)"
               id="g7361">
              <use
                 xlink:href="#DejaVuSans-48"
                 id="use7359" />
            </g>
          </g>
        </g>
        <g
           id="xtick_2">
          <g
             id="line2d_2">
            <g
               id="g7367">
              <use
                 style="stroke:#000000;stroke-width:0.8;"
                 x="106.0825"
                 xlink:href="#m8653ec3084"
                 y="235.238438"
                 id="use7365" />
            </g>
          </g>
          <g
             id="text_2">
            <!-- 20 -->
            <defs
               id="defs7371">
              <path
                 d="M 19.1875 8.296875  L 53.609375 8.296875  L 53.609375 0  L 7.328125 0  L 7.328125 8.296875  Q 12.9375 14.109375 22.625 23.890625  Q 32.328125 33.6875 34.8125 36.53125  Q 39.546875 41.84375 41.421875 45.53125  Q 43.3125 49.21875 43.3125 52.78125  Q 43.3125 58.59375 39.234375 62.25  Q 35.15625 65.921875 28.609375 65.921875  Q 23.96875 65.921875 18.8125 64.3125  Q 13.671875 62.703125 7.8125 59.421875  L 7.8125 69.390625  Q 13.765625 71.78125 18.9375 73  Q 24.125 74.21875 28.421875 74.21875  Q 39.75 74.21875 46.484375 68.546875  Q 53.21875 62.890625 53.21875 53.421875  Q 53.21875 48.921875 51.53125 44.890625  Q 49.859375 40.875 45.40625 35.40625  Q 44.1875 33.984375 37.640625 27.21875  Q 31.109375 20.453125 19.1875 8.296875  z "
                 id="DejaVuSans-50" />
            </defs>
            <g
               transform="translate(99.72 249.836875)scale(0.1 -0.1)"
               id="g7377">
              <use
                 xlink:href="#DejaVuSans-50"
                 id="use7373" />
              <use
                 x="63.623047"
                 xlink:href="#DejaVuSans-48"
                 id="use7375" />
            </g>
          </g>
        </g>
        <g
           id="xtick_3">
          <g
             id="line2d_3">
            <g
               id="g7383">
              <use
                 style="stroke:#000000;stroke-width:0.8;"
                 x="173.0425"
                 xlink:href="#m8653ec3084"
                 y="235.238438"
                 id="use7381" />
            </g>
          </g>
          <g
             id="text_3">
            <!-- 40 -->
            <defs
               id="defs7387">
              <path
                 d="M 37.796875 64.3125  L 12.890625 25.390625  L 37.796875 25.390625  z M 35.203125 72.90625  L 47.609375 72.90625  L 47.609375 25.390625  L 58.015625 25.390625  L 58.015625 17.1875  L 47.609375 17.1875  L 47.609375 0  L 37.796875 0  L 37.796875 17.1875  L 4.890625 17.1875  L 4.890625 26.703125  z "
                 id="DejaVuSans-52" />
            </defs>
            <g
               transform="translate(166.68 249.836875)scale(0.1 -0.1)"
               id="g7393">
              <use
                 xlink:href="#DejaVuSans-52"
                 id="use7389" />
              <use
                 x="63.623047"
                 xlink:href="#DejaVuSans-48"
                 id="use7391" />
            </g>
          </g>
        </g>
        <g
           id="xtick_4">
          <g
             id="line2d_4">
            <g
               id="g7399">
              <use
                 style="stroke:#000000;stroke-width:0.8;"
                 x="240.0025"
                 xlink:href="#m8653ec3084"
                 y="235.238438"
                 id="use7397" />
            </g>
          </g>
          <g
             id="text_4">
            <!-- 60 -->
            <defs
               id="defs7403">
              <path
                 d="M 33.015625 40.375  Q 26.375 40.375 22.484375 35.828125  Q 18.609375 31.296875 18.609375 23.390625  Q 18.609375 15.53125 22.484375 10.953125  Q 26.375 6.390625 33.015625 6.390625  Q 39.65625 6.390625 43.53125 10.953125  Q 47.40625 15.53125 47.40625 23.390625  Q 47.40625 31.296875 43.53125 35.828125  Q 39.65625 40.375 33.015625 40.375  z M 52.59375 71.296875  L 52.59375 62.3125  Q 48.875 64.0625 45.09375 64.984375  Q 41.3125 65.921875 37.59375 65.921875  Q 27.828125 65.921875 22.671875 59.328125  Q 17.53125 52.734375 16.796875 39.40625  Q 19.671875 43.65625 24.015625 45.921875  Q 28.375 48.1875 33.59375 48.1875  Q 44.578125 48.1875 50.953125 41.515625  Q 57.328125 34.859375 57.328125 23.390625  Q 57.328125 12.15625 50.6875 5.359375  Q 44.046875 -1.421875 33.015625 -1.421875  Q 20.359375 -1.421875 13.671875 8.265625  Q 6.984375 17.96875 6.984375 36.375  Q 6.984375 53.65625 15.1875 63.9375  Q 23.390625 74.21875 37.203125 74.21875  Q 40.921875 74.21875 44.703125 73.484375  Q 48.484375 72.75 52.59375 71.296875  z "
                 id="DejaVuSans-54" />
            </defs>
            <g
               transform="translate(233.64 249.836875)scale(0.1 -0.1)"
               id="g7409">
              <use
                 xlink:href="#DejaVuSans-54"
                 id="use7405" />
              <use
                 x="63.623047"
                 xlink:href="#DejaVuSans-48"
                 id="use7407" />
            </g>
          </g>
        </g>
        <g
           id="xtick_5">
          <g
             id="line2d_5">
            <g
               id="g7415">
              <use
                 style="stroke:#000000;stroke-width:0.8;"
                 x="306.9625"
                 xlink:href="#m8653ec3084"
                 y="235.238438"
                 id="use7413" />
            </g>
          </g>
          <g
             id="text_5">
            <!-- 80 -->
            <defs
               id="defs7419">
              <path
                 d="M 31.78125 34.625  Q 24.75 34.625 20.71875 30.859375  Q 16.703125 27.09375 16.703125 20.515625  Q 16.703125 13.921875 20.71875 10.15625  Q 24.75 6.390625 31.78125 6.390625  Q 38.8125 6.390625 42.859375 10.171875  Q 46.921875 13.96875 46.921875 20.515625  Q 46.921875 27.09375 42.890625 30.859375  Q 38.875 34.625 31.78125 34.625  z M 21.921875 38.8125  Q 15.578125 40.375 12.03125 44.71875  Q 8.5 49.078125 8.5 55.328125  Q 8.5 64.0625 14.71875 69.140625  Q 20.953125 74.21875 31.78125 74.21875  Q 42.671875 74.21875 48.875 69.140625  Q 55.078125 64.0625 55.078125 55.328125  Q 55.078125 49.078125 51.53125 44.71875  Q 48 40.375 41.703125 38.8125  Q 48.828125 37.15625 52.796875 32.3125  Q 56.78125 27.484375 56.78125 20.515625  Q 56.78125 9.90625 50.3125 4.234375  Q 43.84375 -1.421875 31.78125 -1.421875  Q 19.734375 -1.421875 13.25 4.234375  Q 6.78125 9.90625 6.78125 20.515625  Q 6.78125 27.484375 10.78125 32.3125  Q 14.796875 37.15625 21.921875 38.8125  z M 18.3125 54.390625  Q 18.3125 48.734375 21.84375 45.5625  Q 25.390625 42.390625 31.78125 42.390625  Q 38.140625 42.390625 41.71875 45.5625  Q 45.3125 48.734375 45.3125 54.390625  Q 45.3125 60.0625 41.71875 63.234375  Q 38.140625 66.40625 31.78125 66.40625  Q 25.390625 66.40625 21.84375 63.234375  Q 18.3125 60.0625 18.3125 54.390625  z "
                 id="DejaVuSans-56" />
            </defs>
            <g
               transform="translate(300.6 249.836875)scale(0.1 -0.1)"
               id="g7425">
              <use
                 xlink:href="#DejaVuSans-56"
                 id="use7421" />
              <use
                 x="63.623047"
                 xlink:href="#DejaVuSans-48"
                 id="use7423" />
            </g>
          </g>
        </g>
        <g
           id="xtick_6">
          <g
             id="line2d_6">
            <g
               id="g7431">
              <use
                 style="stroke:#000000;stroke-width:0.8;"
                 x="373.9225"
                 xlink:href="#m8653ec3084"
                 y="235.238438"
                 id="use7429" />
            </g>
          </g>
          <g
             id="text_6">
            <!-- 100 -->
            <defs
               id="defs7435">
              <path
                 d="M 12.40625 8.296875  L 28.515625 8.296875  L 28.515625 63.921875  L 10.984375 60.40625  L 10.984375 69.390625  L 28.421875 72.90625  L 38.28125 72.90625  L 38.28125 8.296875  L 54.390625 8.296875  L 54.390625 0  L 12.40625 0  z "
                 id="DejaVuSans-49" />
            </defs>
            <g
               transform="translate(364.37875 249.836875)scale(0.1 -0.1)"
               id="g7443">
              <use
                 xlink:href="#DejaVuSans-49"
                 id="use7437" />
              <use
                 x="63.623047"
                 xlink:href="#DejaVuSans-48"
                 id="use7439" />
              <use
                 x="127.246094"
                 xlink:href="#DejaVuSans-48"
                 id="use7441" />
            </g>
          </g>
        </g>
        <g
           id="text_7">
          <!-- Depth below surface (cm) -->
          <defs
             id="defs7466">
            <path
               d="M 19.671875 64.796875  L 19.671875 8.109375  L 31.59375 8.109375  Q 46.6875 8.109375 53.6875 14.9375  Q 60.6875 21.78125 60.6875 36.53125  Q 60.6875 51.171875 53.6875 57.984375  Q 46.6875 64.796875 31.59375 64.796875  z M 9.8125 72.90625  L 30.078125 72.90625  Q 51.265625 72.90625 61.171875 64.09375  Q 71.09375 55.28125 71.09375 36.53125  Q 71.09375 17.671875 61.125 8.828125  Q 51.171875 0 30.078125 0  L 9.8125 0  z "
               id="DejaVuSans-68" />
            <path
               d="M 56.203125 29.59375  L 56.203125 25.203125  L 14.890625 25.203125  Q 15.484375 15.921875 20.484375 11.0625  Q 25.484375 6.203125 34.421875 6.203125  Q 39.59375 6.203125 44.453125 7.46875  Q 49.3125 8.734375 54.109375 11.28125  L 54.109375 2.78125  Q 49.265625 0.734375 44.1875 -0.34375  Q 39.109375 -1.421875 33.890625 -1.421875  Q 20.796875 -1.421875 13.15625 6.1875  Q 5.515625 13.8125 5.515625 26.8125  Q 5.515625 40.234375 12.765625 48.109375  Q 20.015625 56 32.328125 56  Q 43.359375 56 49.78125 48.890625  Q 56.203125 41.796875 56.203125 29.59375  z M 47.21875 32.234375  Q 47.125 39.59375 43.09375 43.984375  Q 39.0625 48.390625 32.421875 48.390625  Q 24.90625 48.390625 20.390625 44.140625  Q 15.875 39.890625 15.1875 32.171875  z "
               id="DejaVuSans-101" />
            <path
               d="M 18.109375 8.203125  L 18.109375 -20.796875  L 9.078125 -20.796875  L 9.078125 54.6875  L 18.109375 54.6875  L 18.109375 46.390625  Q 20.953125 51.265625 25.265625 53.625  Q 29.59375 56 35.59375 56  Q 45.5625 56 51.78125 48.09375  Q 58.015625 40.1875 58.015625 27.296875  Q 58.015625 14.40625 51.78125 6.484375  Q 45.5625 -1.421875 35.59375 -1.421875  Q 29.59375 -1.421875 25.265625 0.953125  Q 20.953125 3.328125 18.109375 8.203125  z M 48.6875 27.296875  Q 48.6875 37.203125 44.609375 42.84375  Q 40.53125 48.484375 33.40625 48.484375  Q 26.265625 48.484375 22.1875 42.84375  Q 18.109375 37.203125 18.109375 27.296875  Q 18.109375 17.390625 22.1875 11.75  Q 26.265625 6.109375 33.40625 6.109375  Q 40.53125 6.109375 44.609375 11.75  Q 48.6875 17.390625 48.6875 27.296875  z "
               id="DejaVuSans-112" />
            <path
               d="M 18.3125 70.21875  L 18.3125 54.6875  L 36.8125 54.6875  L 36.8125 47.703125  L 18.3125 47.703125  L 18.3125 18.015625  Q 18.3125 11.328125 20.140625 9.421875  Q 21.96875 7.515625 27.59375 7.515625  L 36.8125 7.515625  L 36.8125 0  L 27.59375 0  Q 17.1875 0 13.234375 3.875  Q 9.28125 7.765625 9.28125 18.015625  L 9.28125 47.703125  L 2.6875 47.703125  L 2.6875 54.6875  L 9.28125 54.6875  L 9.28125 70.21875  z "
               id="DejaVuSans-116" />
            <path
               d="M 54.890625 33.015625  L 54.890625 0  L 45.90625 0  L 45.90625 32.71875  Q 45.90625 40.484375 42.875 44.328125  Q 39.84375 48.1875 33.796875 48.1875  Q 26.515625 48.1875 22.3125 43.546875  Q 18.109375 38.921875 18.109375 30.90625  L 18.109375 0  L 9.078125 0  L 9.078125 75.984375  L 18.109375 75.984375  L 18.109375 46.1875  Q 21.34375 51.125 25.703125 53.5625  Q 30.078125 56 35.796875 56  Q 45.21875 56 50.046875 50.171875  Q 54.890625 44.34375 54.890625 33.015625  z "
               id="DejaVuSans-104" />
            <path
               id="DejaVuSans-32" />
            <path
               d="M 48.6875 27.296875  Q 48.6875 37.203125 44.609375 42.84375  Q 40.53125 48.484375 33.40625 48.484375  Q 26.265625 48.484375 22.1875 42.84375  Q 18.109375 37.203125 18.109375 27.296875  Q 18.109375 17.390625 22.1875 11.75  Q 26.265625 6.109375 33.40625 6.109375  Q 40.53125 6.109375 44.609375 11.75  Q 48.6875 17.390625 48.6875 27.296875  z M 18.109375 46.390625  Q 20.953125 51.265625 25.265625 53.625  Q 29.59375 56 35.59375 56  Q 45.5625 56 51.78125 48.09375  Q 58.015625 40.1875 58.015625 27.296875  Q 58.015625 14.40625 51.78125 6.484375  Q 45.5625 -1.421875 35.59375 -1.421875  Q 29.59375 -1.421875 25.265625 0.953125  Q 20.953125 3.328125 18.109375 8.203125  L 18.109375 0  L 9.078125 0  L 9.078125 75.984375  L 18.109375 75.984375  z "
               id="DejaVuSans-98" />
            <path
               d="M 9.421875 75.984375  L 18.40625 75.984375  L 18.40625 0  L 9.421875 0  z "
               id="DejaVuSans-108" />
            <path
               d="M 30.609375 48.390625  Q 23.390625 48.390625 19.1875 42.75  Q 14.984375 37.109375 14.984375 27.296875  Q 14.984375 17.484375 19.15625 11.84375  Q 23.34375 6.203125 30.609375 6.203125  Q 37.796875 6.203125 41.984375 11.859375  Q 46.1875 17.53125 46.1875 27.296875  Q 46.1875 37.015625 41.984375 42.703125  Q 37.796875 48.390625 30.609375 48.390625  z M 30.609375 56  Q 42.328125 56 49.015625 48.375  Q 55.71875 40.765625 55.71875 27.296875  Q 55.71875 13.875 49.015625 6.21875  Q 42.328125 -1.421875 30.609375 -1.421875  Q 18.84375 -1.421875 12.171875 6.21875  Q 5.515625 13.875 5.515625 27.296875  Q 5.515625 40.765625 12.171875 48.375  Q 18.84375 56 30.609375 56  z "
               id="DejaVuSans-111" />
            <path
               d="M 4.203125 54.6875  L 13.1875 54.6875  L 24.421875 12.015625  L 35.59375 54.6875  L 46.1875 54.6875  L 57.421875 12.015625  L 68.609375 54.6875  L 77.59375 54.6875  L 63.28125 0  L 52.6875 0  L 40.921875 44.828125  L 29.109375 0  L 18.5 0  z "
               id="DejaVuSans-119" />
            <path
               d="M 44.28125 53.078125  L 44.28125 44.578125  Q 40.484375 46.53125 36.375 47.5  Q 32.28125 48.484375 27.875 48.484375  Q 21.1875 48.484375 17.84375 46.4375  Q 14.5 44.390625 14.5 40.28125  Q 14.5 37.15625 16.890625 35.375  Q 19.28125 33.59375 26.515625 31.984375  L 29.59375 31.296875  Q 39.15625 29.25 43.1875 25.515625  Q 47.21875 21.78125 47.21875 15.09375  Q 47.21875 7.46875 41.1875 3.015625  Q 35.15625 -1.421875 24.609375 -1.421875  Q 20.21875 -1.421875 15.453125 -0.5625  Q 10.6875 0.296875 5.421875 2  L 5.421875 11.28125  Q 10.40625 8.6875 15.234375 7.390625  Q 20.0625 6.109375 24.8125 6.109375  Q 31.15625 6.109375 34.5625 8.28125  Q 37.984375 10.453125 37.984375 14.40625  Q 37.984375 18.0625 35.515625 20.015625  Q 33.0625 21.96875 24.703125 23.78125  L 21.578125 24.515625  Q 13.234375 26.265625 9.515625 29.90625  Q 5.8125 33.546875 5.8125 39.890625  Q 5.8125 47.609375 11.28125 51.796875  Q 16.75 56 26.8125 56  Q 31.78125 56 36.171875 55.265625  Q 40.578125 54.546875 44.28125 53.078125  z "
               id="DejaVuSans-115" />
            <path
               d="M 8.5 21.578125  L 8.5 54.6875  L 17.484375 54.6875  L 17.484375 21.921875  Q 17.484375 14.15625 20.5 10.265625  Q 23.53125 6.390625 29.59375 6.390625  Q 36.859375 6.390625 41.078125 11.03125  Q 45.3125 15.671875 45.3125 23.6875  L 45.3125 54.6875  L 54.296875 54.6875  L 54.296875 0  L 45.3125 0  L 45.3125 8.40625  Q 42.046875 3.421875 37.71875 1  Q 33.40625 -1.421875 27.6875 -1.421875  Q 18.265625 -1.421875 13.375 4.4375  Q 8.5 10.296875 8.5 21.578125  z M 31.109375 56  z "
               id="DejaVuSans-117" />
            <path
               d="M 41.109375 46.296875  Q 39.59375 47.171875 37.8125 47.578125  Q 36.03125 48 33.890625 48  Q 26.265625 48 22.1875 43.046875  Q 18.109375 38.09375 18.109375 28.8125  L 18.109375 0  L 9.078125 0  L 9.078125 54.6875  L 18.109375 54.6875  L 18.109375 46.1875  Q 20.953125 51.171875 25.484375 53.578125  Q 30.03125 56 36.53125 56  Q 37.453125 56 38.578125 55.875  Q 39.703125 55.765625 41.0625 55.515625  z "
               id="DejaVuSans-114" />
            <path
               d="M 37.109375 75.984375  L 37.109375 68.5  L 28.515625 68.5  Q 23.6875 68.5 21.796875 66.546875  Q 19.921875 64.59375 19.921875 59.515625  L 19.921875 54.6875  L 34.71875 54.6875  L 34.71875 47.703125  L 19.921875 47.703125  L 19.921875 0  L 10.890625 0  L 10.890625 47.703125  L 2.296875 47.703125  L 2.296875 54.6875  L 10.890625 54.6875  L 10.890625 58.5  Q 10.890625 67.625 15.140625 71.796875  Q 19.390625 75.984375 28.609375 75.984375  z "
               id="DejaVuSans-102" />
            <path
               d="M 34.28125 27.484375  Q 23.390625 27.484375 19.1875 25  Q 14.984375 22.515625 14.984375 16.5  Q 14.984375 11.71875 18.140625 8.90625  Q 21.296875 6.109375 26.703125 6.109375  Q 34.1875 6.109375 38.703125 11.40625  Q 43.21875 16.703125 43.21875 25.484375  L 43.21875 27.484375  z M 52.203125 31.203125  L 52.203125 0  L 43.21875 0  L 43.21875 8.296875  Q 40.140625 3.328125 35.546875 0.953125  Q 30.953125 -1.421875 24.3125 -1.421875  Q 15.921875 -1.421875 10.953125 3.296875  Q 6 8.015625 6 15.921875  Q 6 25.140625 12.171875 29.828125  Q 18.359375 34.515625 30.609375 34.515625  L 43.21875 34.515625  L 43.21875 35.40625  Q 43.21875 41.609375 39.140625 45  Q 35.0625 48.390625 27.6875 48.390625  Q 23 48.390625 18.546875 47.265625  Q 14.109375 46.140625 10.015625 43.890625  L 10.015625 52.203125  Q 14.9375 54.109375 19.578125 55.046875  Q 24.21875 56 28.609375 56  Q 40.484375 56 46.34375 49.84375  Q 52.203125 43.703125 52.203125 31.203125  z "
               id="DejaVuSans-97" />
            <path
               d="M 48.78125 52.59375  L 48.78125 44.1875  Q 44.96875 46.296875 41.140625 47.34375  Q 37.3125 48.390625 33.40625 48.390625  Q 24.65625 48.390625 19.8125 42.84375  Q 14.984375 37.3125 14.984375 27.296875  Q 14.984375 17.28125 19.8125 11.734375  Q 24.65625 6.203125 33.40625 6.203125  Q 37.3125 6.203125 41.140625 7.25  Q 44.96875 8.296875 48.78125 10.40625  L 48.78125 2.09375  Q 45.015625 0.34375 40.984375 -0.53125  Q 36.96875 -1.421875 32.421875 -1.421875  Q 20.0625 -1.421875 12.78125 6.34375  Q 5.515625 14.109375 5.515625 27.296875  Q 5.515625 40.671875 12.859375 48.328125  Q 20.21875 56 33.015625 56  Q 37.15625 56 41.109375 55.140625  Q 45.0625 54.296875 48.78125 52.59375  z "
               id="DejaVuSans-99" />
            <path
               d="M 31 75.875  Q 24.46875 64.65625 21.28125 53.65625  Q 18.109375 42.671875 18.109375 31.390625  Q 18.109375 20.125 21.3125 9.0625  Q 24.515625 -2 31 -13.1875  L 23.1875 -13.1875  Q 15.875 -1.703125 12.234375 9.375  Q 8.59375 20.453125 8.59375 31.390625  Q 8.59375 42.28125 12.203125 53.3125  Q 15.828125 64.359375 23.1875 75.875  z "
               id="DejaVuSans-40" />
            <path
               d="M 52 44.1875  Q 55.375 50.25 60.0625 53.125  Q 64.75 56 71.09375 56  Q 79.640625 56 84.28125 50.015625  Q 88.921875 44.046875 88.921875 33.015625  L 88.921875 0  L 79.890625 0  L 79.890625 32.71875  Q 79.890625 40.578125 77.09375 44.375  Q 74.3125 48.1875 68.609375 48.1875  Q 61.625 48.1875 57.5625 43.546875  Q 53.515625 38.921875 53.515625 30.90625  L 53.515625 0  L 44.484375 0  L 44.484375 32.71875  Q 44.484375 40.625 41.703125 44.40625  Q 38.921875 48.1875 33.109375 48.1875  Q 26.21875 48.1875 22.15625 43.53125  Q 18.109375 38.875 18.109375 30.90625  L 18.109375 0  L 9.078125 0  L 9.078125 54.6875  L 18.109375 54.6875  L 18.109375 46.1875  Q 21.1875 51.21875 25.484375 53.609375  Q 29.78125 56 35.6875 56  Q 41.65625 56 45.828125 52.96875  Q 50 49.953125 52 44.1875  z "
               id="DejaVuSans-109" />
            <path
               d="M 8.015625 75.875  L 15.828125 75.875  Q 23.140625 64.359375 26.78125 53.3125  Q 30.421875 42.28125 30.421875 31.390625  Q 30.421875 20.453125 26.78125 9.375  Q 23.140625 -1.703125 15.828125 -13.1875  L 8.015625 -13.1875  Q 14.5 -2 17.703125 9.0625  Q 20.90625 20.125 20.90625 31.390625  Q 20.90625 42.671875 17.703125 53.65625  Q 14.5 64.65625 8.015625 75.875  z "
               id="DejaVuSans-41" />
          </defs>
          <g
             transform="translate(122.301797 265.794531)scale(0.13 -0.13)"
             id="g7516">
            <use
               xlink:href="#DejaVuSans-68"
               id="use7468" />
            <use
               x="77.001953"
               xlink:href="#DejaVuSans-101"
               id="use7470" />
            <use
               x="138.525391"
               xlink:href="#DejaVuSans-112"
               id="use7472" />
            <use
               x="202.001953"
               xlink:href="#DejaVuSans-116"
               id="use7474" />
            <use
               x="241.210938"
               xlink:href="#DejaVuSans-104"
               id="use7476" />
            <use
               x="304.589844"
               xlink:href="#DejaVuSans-32"
               id="use7478" />
            <use
               x="336.376953"
               xlink:href="#DejaVuSans-98"
               id="use7480" />
            <use
               x="399.853516"
               xlink:href="#DejaVuSans-101"
               id="use7482" />
            <use
               x="461.376953"
               xlink:href="#DejaVuSans-108"
               id="use7484" />
            <use
               x="489.160156"
               xlink:href="#DejaVuSans-111"
               id="use7486" />
            <use
               x="550.341797"
               xlink:href="#DejaVuSans-119"
               id="use7488" />
            <use
               x="632.128906"
               xlink:href="#DejaVuSans-32"
               id="use7490" />
            <use
               x="663.916016"
               xlink:href="#DejaVuSans-115"
               id="use7492" />
            <use
               x="716.015625"
               xlink:href="#DejaVuSans-117"
               id="use7494" />
            <use
               x="779.394531"
               xlink:href="#DejaVuSans-114"
               id="use7496" />
            <use
               x="820.507812"
               xlink:href="#DejaVuSans-102"
               id="use7498" />
            <use
               x="855.712891"
               xlink:href="#DejaVuSans-97"
               id="use7500" />
            <use
               x="916.992188"
               xlink:href="#DejaVuSans-99"
               id="use7502" />
            <use
               x="971.972656"
               xlink:href="#DejaVuSans-101"
               id="use7504" />
            <use
               x="1033.496094"
               xlink:href="#DejaVuSans-32"
               id="use7506" />
            <use
               x="1065.283203"
               xlink:href="#DejaVuSans-40"
               id="use7508" />
            <use
               x="1104.296875"
               xlink:href="#DejaVuSans-99"
               id="use7510" />
            <use
               x="1159.277344"
               xlink:href="#DejaVuSans-109"
               id="use7512" />
            <use
               x="1256.689453"
               xlink:href="#DejaVuSans-41"
               id="use7514" />
          </g>
        </g>
      </g>
      <g
         id="matplotlib.axis_2">
        <g
           id="ytick_1">
          <g
             id="line2d_7">
            <defs
               id="defs7521">
              <path
                 d="M 0 0  L -3.5 0  "
                 id="m15b9664d09"
                 style="stroke:#000000;stroke-width:0.8;" />
            </defs>
            <g
               id="g7525">
              <use
                 style="stroke:#000000;stroke-width:0.8;"
                 x="39.1225"
                 xlink:href="#m15b9664d09"
                 y="235.238438"
                 id="use7523" />
            </g>
          </g>
          <g
             id="text_8">
            <!-- 0 -->
            <g
               transform="translate(25.76 239.037656)scale(0.1 -0.1)"
               id="g7530">
              <use
                 xlink:href="#DejaVuSans-48"
                 id="use7528" />
            </g>
          </g>
        </g>
        <g
           id="ytick_2">
          <g
             id="line2d_8">
            <g
               id="g7536">
              <use
                 style="stroke:#000000;stroke-width:0.8;"
                 x="39.1225"
                 xlink:href="#m15b9664d09"
                 y="191.750438"
                 id="use7534" />
            </g>
          </g>
          <g
             id="text_9">
            <!-- 1 -->
            <g
               transform="translate(25.76 195.549656)scale(0.1 -0.1)"
               id="g7541">
              <use
                 xlink:href="#DejaVuSans-49"
                 id="use7539" />
            </g>
          </g>
        </g>
        <g
           id="ytick_3">
          <g
             id="line2d_9">
            <g
               id="g7547">
              <use
                 style="stroke:#000000;stroke-width:0.8;"
                 x="39.1225"
                 xlink:href="#m15b9664d09"
                 y="148.262438"
                 id="use7545" />
            </g>
          </g>
          <g
             id="text_10">
            <!-- 2 -->
            <g
               transform="translate(25.76 152.061656)scale(0.1 -0.1)"
               id="g7552">
              <use
                 xlink:href="#DejaVuSans-50"
                 id="use7550" />
            </g>
          </g>
        </g>
        <g
           id="ytick_4">
          <g
             id="line2d_10">
            <g
               id="g7558">
              <use
                 style="stroke:#000000;stroke-width:0.8;"
                 x="39.1225"
                 xlink:href="#m15b9664d09"
                 y="104.774438"
                 id="use7556" />
            </g>
          </g>
          <g
             id="text_11">
            <!-- 3 -->
            <defs
               id="defs7562">
              <path
                 d="M 40.578125 39.3125  Q 47.65625 37.796875 51.625 33  Q 55.609375 28.21875 55.609375 21.1875  Q 55.609375 10.40625 48.1875 4.484375  Q 40.765625 -1.421875 27.09375 -1.421875  Q 22.515625 -1.421875 17.65625 -0.515625  Q 12.796875 0.390625 7.625 2.203125  L 7.625 11.71875  Q 11.71875 9.328125 16.59375 8.109375  Q 21.484375 6.890625 26.8125 6.890625  Q 36.078125 6.890625 40.9375 10.546875  Q 45.796875 14.203125 45.796875 21.1875  Q 45.796875 27.640625 41.28125 31.265625  Q 36.765625 34.90625 28.71875 34.90625  L 20.21875 34.90625  L 20.21875 43.015625  L 29.109375 43.015625  Q 36.375 43.015625 40.234375 45.921875  Q 44.09375 48.828125 44.09375 54.296875  Q 44.09375 59.90625 40.109375 62.90625  Q 36.140625 65.921875 28.71875 65.921875  Q 24.65625 65.921875 20.015625 65.03125  Q 15.375 64.15625 9.8125 62.3125  L 9.8125 71.09375  Q 15.4375 72.65625 20.34375 73.4375  Q 25.25 74.21875 29.59375 74.21875  Q 40.828125 74.21875 47.359375 69.109375  Q 53.90625 64.015625 53.90625 55.328125  Q 53.90625 49.265625 50.4375 45.09375  Q 46.96875 40.921875 40.578125 39.3125  z "
                 id="DejaVuSans-51" />
            </defs>
            <g
               transform="translate(25.76 108.573656)scale(0.1 -0.1)"
               id="g7566">
              <use
                 xlink:href="#DejaVuSans-51"
                 id="use7564" />
            </g>
          </g>
        </g>
        <g
           id="ytick_5">
          <g
             id="line2d_11">
            <g
               id="g7572">
              <use
                 style="stroke:#000000;stroke-width:0.8;"
                 x="39.1225"
                 xlink:href="#m15b9664d09"
                 y="61.286438"
                 id="use7570" />
            </g>
          </g>
          <g
             id="text_12">
            <!-- 4 -->
            <g
               transform="translate(25.76 65.085656)scale(0.1 -0.1)"
               id="g7577">
              <use
                 xlink:href="#DejaVuSans-52"
                 id="use7575" />
            </g>
          </g>
        </g>
        <g
           id="ytick_6">
          <g
             id="line2d_12">
            <g
               id="g7583">
              <use
                 style="stroke:#000000;stroke-width:0.8;"
                 x="39.1225"
                 xlink:href="#m15b9664d09"
                 y="17.798438"
                 id="use7581" />
            </g>
          </g>
          <g
             id="text_13">
            <!-- 5 -->
            <defs
               id="defs7587">
              <path
                 d="M 10.796875 72.90625  L 49.515625 72.90625  L 49.515625 64.59375  L 19.828125 64.59375  L 19.828125 46.734375  Q 21.96875 47.46875 24.109375 47.828125  Q 26.265625 48.1875 28.421875 48.1875  Q 40.625 48.1875 47.75 41.5  Q 54.890625 34.8125 54.890625 23.390625  Q 54.890625 11.625 47.5625 5.09375  Q 40.234375 -1.421875 26.90625 -1.421875  Q 22.3125 -1.421875 17.546875 -0.640625  Q 12.796875 0.140625 7.71875 1.703125  L 7.71875 11.625  Q 12.109375 9.234375 16.796875 8.0625  Q 21.484375 6.890625 26.703125 6.890625  Q 35.15625 6.890625 40.078125 11.328125  Q 45.015625 15.765625 45.015625 23.390625  Q 45.015625 31 40.078125 35.4375  Q 35.15625 39.890625 26.703125 39.890625  Q 22.75 39.890625 18.8125 39.015625  Q 14.890625 38.140625 10.796875 36.28125  z "
                 id="DejaVuSans-53" />
            </defs>
            <g
               transform="translate(25.76 21.597656)scale(0.1 -0.1)"
               id="g7591">
              <use
                 xlink:href="#DejaVuSans-53"
                 id="use7589" />
            </g>
          </g>
        </g>
        <g
           id="text_14">
          <!-- Concentration $(\times 10^{6}$ atoms/g) -->
          <defs
             id="defs7601">
            <path
               d="M 64.40625 67.28125  L 64.40625 56.890625  Q 59.421875 61.53125 53.78125 63.8125  Q 48.140625 66.109375 41.796875 66.109375  Q 29.296875 66.109375 22.65625 58.46875  Q 16.015625 50.828125 16.015625 36.375  Q 16.015625 21.96875 22.65625 14.328125  Q 29.296875 6.6875 41.796875 6.6875  Q 48.140625 6.6875 53.78125 8.984375  Q 59.421875 11.28125 64.40625 15.921875  L 64.40625 5.609375  Q 59.234375 2.09375 53.4375 0.328125  Q 47.65625 -1.421875 41.21875 -1.421875  Q 24.65625 -1.421875 15.125 8.703125  Q 5.609375 18.84375 5.609375 36.375  Q 5.609375 53.953125 15.125 64.078125  Q 24.65625 74.21875 41.21875 74.21875  Q 47.75 74.21875 53.53125 72.484375  Q 59.328125 70.75 64.40625 67.28125  z "
               id="DejaVuSans-67" />
            <path
               d="M 54.890625 33.015625  L 54.890625 0  L 45.90625 0  L 45.90625 32.71875  Q 45.90625 40.484375 42.875 44.328125  Q 39.84375 48.1875 33.796875 48.1875  Q 26.515625 48.1875 22.3125 43.546875  Q 18.109375 38.921875 18.109375 30.90625  L 18.109375 0  L 9.078125 0  L 9.078125 54.6875  L 18.109375 54.6875  L 18.109375 46.1875  Q 21.34375 51.125 25.703125 53.5625  Q 30.078125 56 35.796875 56  Q 45.21875 56 50.046875 50.171875  Q 54.890625 44.34375 54.890625 33.015625  z "
               id="DejaVuSans-110" />
            <path
               d="M 9.421875 54.6875  L 18.40625 54.6875  L 18.40625 0  L 9.421875 0  z M 9.421875 75.984375  L 18.40625 75.984375  L 18.40625 64.59375  L 9.421875 64.59375  z "
               id="DejaVuSans-105" />
            <path
               d="M 70.125 53.71875  L 47.796875 31.296875  L 70.125 8.984375  L 64.3125 3.078125  L 41.890625 25.484375  L 19.484375 3.078125  L 13.71875 8.984375  L 35.984375 31.296875  L 13.71875 53.71875  L 19.484375 59.625  L 41.890625 37.203125  L 64.3125 59.625  z "
               id="DejaVuSans-215" />
            <path
               d="M 25.390625 72.90625  L 33.6875 72.90625  L 8.296875 -9.28125  L 0 -9.28125  z "
               id="DejaVuSans-47" />
            <path
               d="M 45.40625 27.984375  Q 45.40625 37.75 41.375 43.109375  Q 37.359375 48.484375 30.078125 48.484375  Q 22.859375 48.484375 18.828125 43.109375  Q 14.796875 37.75 14.796875 27.984375  Q 14.796875 18.265625 18.828125 12.890625  Q 22.859375 7.515625 30.078125 7.515625  Q 37.359375 7.515625 41.375 12.890625  Q 45.40625 18.265625 45.40625 27.984375  z M 54.390625 6.78125  Q 54.390625 -7.171875 48.1875 -13.984375  Q 42 -20.796875 29.203125 -20.796875  Q 24.46875 -20.796875 20.265625 -20.09375  Q 16.0625 -19.390625 12.109375 -17.921875  L 12.109375 -9.1875  Q 16.0625 -11.328125 19.921875 -12.34375  Q 23.78125 -13.375 27.78125 -13.375  Q 36.625 -13.375 41.015625 -8.765625  Q 45.40625 -4.15625 45.40625 5.171875  L 45.40625 9.625  Q 42.625 4.78125 38.28125 2.390625  Q 33.9375 0 27.875 0  Q 17.828125 0 11.671875 7.65625  Q 5.515625 15.328125 5.515625 27.984375  Q 5.515625 40.671875 11.671875 48.328125  Q 17.828125 56 27.875 56  Q 33.9375 56 38.28125 53.609375  Q 42.625 51.21875 45.40625 46.390625  L 45.40625 54.6875  L 54.390625 54.6875  z "
               id="DejaVuSans-103" />
          </defs>
          <g
             transform="translate(19.03 225.123438)rotate(-90)scale(0.13 -0.13)"
             id="g7659">
            <use
               transform="translate(0 0.765625)"
               xlink:href="#DejaVuSans-67"
               id="use7603" />
            <use
               transform="translate(69.824219 0.765625)"
               xlink:href="#DejaVuSans-111"
               id="use7605" />
            <use
               transform="translate(131.005859 0.765625)"
               xlink:href="#DejaVuSans-110"
               id="use7607" />
            <use
               transform="translate(194.384766 0.765625)"
               xlink:href="#DejaVuSans-99"
               id="use7609" />
            <use
               transform="translate(249.365234 0.765625)"
               xlink:href="#DejaVuSans-101"
               id="use7611" />
            <use
               transform="translate(310.888672 0.765625)"
               xlink:href="#DejaVuSans-110"
               id="use7613" />
            <use
               transform="translate(374.267578 0.765625)"
               xlink:href="#DejaVuSans-116"
               id="use7615" />
            <use
               transform="translate(413.476562 0.765625)"
               xlink:href="#DejaVuSans-114"
               id="use7617" />
            <use
               transform="translate(454.589844 0.765625)"
               xlink:href="#DejaVuSans-97"
               id="use7619" />
            <use
               transform="translate(515.869141 0.765625)"
               xlink:href="#DejaVuSans-116"
               id="use7621" />
            <use
               transform="translate(555.078125 0.765625)"
               xlink:href="#DejaVuSans-105"
               id="use7623" />
            <use
               transform="translate(582.861328 0.765625)"
               xlink:href="#DejaVuSans-111"
               id="use7625" />
            <use
               transform="translate(644.042969 0.765625)"
               xlink:href="#DejaVuSans-110"
               id="use7627" />
            <use
               transform="translate(707.421875 0.765625)"
               xlink:href="#DejaVuSans-32"
               id="use7629" />
            <use
               transform="translate(739.208984 0.765625)"
               xlink:href="#DejaVuSans-40"
               id="use7631" />
            <use
               transform="translate(778.222656 0.765625)"
               xlink:href="#DejaVuSans-215"
               id="use7633" />
            <use
               transform="translate(862.011719 0.765625)"
               xlink:href="#DejaVuSans-49"
               id="use7635" />
            <use
               transform="translate(925.634766 0.765625)"
               xlink:href="#DejaVuSans-48"
               id="use7637" />
            <use
               transform="translate(990.214844 39.046875)scale(0.7)"
               xlink:href="#DejaVuSans-54"
               id="use7639" />
            <use
               transform="translate(1037.485352 0.765625)"
               xlink:href="#DejaVuSans-32"
               id="use7641" />
            <use
               transform="translate(1069.272461 0.765625)"
               xlink:href="#DejaVuSans-97"
               id="use7643" />
            <use
               transform="translate(1130.551758 0.765625)"
               xlink:href="#DejaVuSans-116"
               id="use7645" />
            <use
               transform="translate(1169.760742 0.765625)"
               xlink:href="#DejaVuSans-111"
               id="use7647" />
            <use
               transform="translate(1230.942383 0.765625)"
               xlink:href="#DejaVuSans-109"
               id="use7649" />
            <use
               transform="translate(1328.354492 0.765625)"
               xlink:href="#DejaVuSans-115"
               id="use7651" />
            <use
               transform="translate(1380.454102 0.765625)"
               xlink:href="#DejaVuSans-47"
               id="use7653" />
            <use
               transform="translate(1414.145508 0.765625)"
               xlink:href="#DejaVuSans-103"
               id="use7655" />
            <use
               transform="translate(1477.62207 0.765625)"
               xlink:href="#DejaVuSans-41"
               id="use7657" />
          </g>
        </g>
        <g
           id="text_15">
          <!-- 1e6 -->
          <g
             transform="translate(39.1225 14.798437)scale(0.1 -0.1)"
             id="g7668" />
        </g>
      </g>
      <g
         id="LineCollection_1">
        <path
           clip-path="url(#p3563de8c97)"
           d="M 82.6465 131.736998  L 96.0385 131.736998  "
           style="fill:none;stroke:#000000;stroke-width:1.5;"
           id="path7672" />
        <path
           clip-path="url(#p3563de8c97)"
           d="M 82.6465 120.864998  L 96.0385 120.864998  "
           style="fill:none;stroke:#000000;stroke-width:1.5;"
           id="path7674" />
        <path
           clip-path="url(#p3563de8c97)"
           d="M 82.6465 115.646438  L 96.0385 115.646438  "
           style="fill:none;stroke:#000000;stroke-width:1.5;"
           id="path7676" />
        <path
           clip-path="url(#p3563de8c97)"
           d="M 149.6065 220.887397  L 162.9985 220.887397  "
           style="fill:none;stroke:#000000;stroke-width:1.5;"
           id="path7678" />
        <path
           clip-path="url(#p3563de8c97)"
           d="M 183.0865 203.492198  L 196.4785 203.492198  "
           style="fill:none;stroke:#000000;stroke-width:1.5;"
           id="path7680" />
        <path
           clip-path="url(#p3563de8c97)"
           d="M 149.6065 220.452517  L 162.9985 220.452517  "
           style="fill:none;stroke:#000000;stroke-width:1.5;"
           id="path7682" />
        <path
           clip-path="url(#p3563de8c97)"
           d="M 216.5665 209.580518  L 229.9585 209.580518  "
           style="fill:none;stroke:#000000;stroke-width:1.5;"
           id="path7684" />
      </g>
      <g
         id="LineCollection_2">
        <path
           clip-path="url(#p3563de8c97)"
           d="M 89.3425 156.090278  L 89.3425 107.383718  "
           style="fill:none;stroke:#000000;stroke-width:1.5;"
           id="path7687" />
        <path
           clip-path="url(#p3563de8c97)"
           d="M 89.3425 146.522918  L 89.3425 95.207077  "
           style="fill:none;stroke:#000000;stroke-width:1.5;"
           id="path7689" />
        <path
           clip-path="url(#p3563de8c97)"
           d="M 89.3425 140.434597  L 89.3425 90.858278  "
           style="fill:none;stroke:#000000;stroke-width:1.5;"
           id="path7691" />
        <path
           clip-path="url(#p3563de8c97)"
           d="M 156.3025 244.805798  L 156.3025 196.968998  "
           style="fill:none;stroke:#000000;stroke-width:1.5;"
           id="path7693" />
        <path
           clip-path="url(#p3563de8c97)"
           d="M 189.7825 226.975718  L 189.7825 180.008678  "
           style="fill:none;stroke:#000000;stroke-width:1.5;"
           id="path7695" />
        <path
           clip-path="url(#p3563de8c97)"
           d="M 156.3025 246.545318  L 156.3025 194.359717  "
           style="fill:none;stroke:#000000;stroke-width:1.5;"
           id="path7697" />
        <path
           clip-path="url(#p3563de8c97)"
           d="M 223.2625 233.933797  L 223.2625 185.227238  "
           style="fill:none;stroke:#000000;stroke-width:1.5;"
           id="path7699" />
      </g>
      <g
         id="line2d_13">
        <path
           clip-path="url(#p3563de8c97)"
           d="M 70.852132 -1  L 72.6025 0.800927  L 79.2985 7.493445  L 85.9945 13.994698  L 92.6905 20.310152  L 99.3865 26.445119  L 106.0825 32.404756  L 112.7785 38.194076  L 119.4745 43.817947  L 126.1705 49.281097  L 132.8665 54.588121  L 139.5625 59.743481  L 146.2585 64.751512  L 152.9545 69.616425  L 159.6505 74.34231  L 166.3465 78.933143  L 173.0425 83.392782  L 179.7385 87.724978  L 186.4345 91.933373  L 193.1305 96.021506  L 199.8265 99.992815  L 206.5225 103.850638  L 213.2185 107.598219  L 219.9145 111.238709  L 226.6105 114.77517  L 233.3065 118.210574  L 240.0025 121.54781  L 246.6985 124.789684  L 253.3945 127.938921  L 260.0905 130.99817  L 266.7865 133.970003  L 273.4825 136.856917  L 280.1785 139.661341  L 286.8745 142.385631  L 293.5705 145.032079  L 300.2665 147.60291  L 306.9625 150.100283  L 313.6585 152.5263  L 320.3545 154.883  L 327.0505 157.172364  L 333.7465 159.396316  L 340.4425 161.556726  L 347.1385 163.655411  L 353.8345 165.694134  L 360.5305 167.67461  L 367.2265 169.598502  L 373.9225 171.467429  "
           style="fill:none;stroke:#da70d6;stroke-linecap:square;stroke-width:3;"
           id="path7702" />
      </g>
      <g
         id="line2d_14">
        <path
           clip-path="url(#p3563de8c97)"
           d="M 39.1225 150.55624  L 45.8185 152.972683  L 52.5145 155.320069  L 59.2105 157.600374  L 65.9065 159.815513  L 72.6025 161.967351  L 79.2985 164.057695  L 85.9945 166.088305  L 92.6905 168.060886  L 99.3865 169.977099  L 106.0825 171.838553  L 112.7785 173.646815  L 119.4745 175.403404  L 126.1705 177.109797  L 132.8665 178.76743  L 139.5625 180.377695  L 146.2585 181.941948  L 152.9545 183.461502  L 159.6505 184.937635  L 166.3465 186.371589  L 173.0425 187.76457  L 179.7385 189.117747  L 186.4345 190.43226  L 193.1305 191.709212  L 199.8265 192.949678  L 206.5225 194.154701  L 213.2185 195.325293  L 219.9145 196.462438  L 226.6105 197.567094  L 233.3065 198.640187  L 240.0025 199.682621  L 246.6985 200.695272  L 253.3945 201.67899  L 260.0905 202.634603  L 266.7865 203.562915  L 273.4825 204.464704  L 280.1785 205.340731  L 286.8745 206.19173  L 293.5705 207.018418  L 300.2665 207.821488  L 306.9625 208.601617  L 313.6585 209.359459  L 320.3545 210.095652  L 327.0505 210.810815  L 333.7465 211.505548  L 340.4425 212.180436  L 347.1385 212.836046  L 353.8345 213.472928  L 360.5305 214.091618  L 367.2265 214.692636  L 373.9225 215.276488  "
           style="fill:none;stroke:#6495ed;stroke-linecap:square;stroke-width:3;"
           id="path7705" />
      </g>
      <g
         id="line2d_15">
        <path
           clip-path="url(#p3563de8c97)"
           d="M 39.1225 192.876744  L 45.8185 194.085328  L 52.5145 195.259375  L 59.2105 196.399871  L 65.9065 197.507776  L 72.6025 198.584021  L 79.2985 199.629512  L 85.9945 200.645126  L 92.6905 201.631718  L 99.3865 202.590118  L 106.0825 203.521131  L 112.7785 204.425541  L 119.4745 205.304107  L 126.1705 206.157568  L 132.8665 206.986642  L 139.5625 207.792026  L 146.2585 208.574397  L 152.9545 209.334412  L 159.6505 210.072711  L 166.3465 210.789915  L 173.0425 211.486626  L 179.7385 212.16343  L 186.4345 212.820896  L 193.1305 213.459577  L 199.8265 214.080009  L 206.5225 214.682715  L 213.2185 215.268201  L 219.9145 215.836959  L 226.6105 216.389467  L 233.3065 216.926189  L 240.0025 217.447578  L 246.6985 217.954071  L 253.3945 218.446093  L 260.0905 218.92406  L 266.7865 219.388371  L 273.4825 219.839418  L 280.1785 220.277579  L 286.8745 220.703224  L 293.5705 221.116709  L 300.2665 221.518382  L 306.9625 221.908581  L 313.6585 222.287634  L 320.3545 222.655859  L 327.0505 223.013566  L 333.7465 223.361055  L 340.4425 223.698619  L 347.1385 224.026541  L 353.8345 224.345097  L 360.5305 224.654554  L 367.2265 224.955172  L 373.9225 225.247204  "
           style="fill:none;stroke:#008080;stroke-linecap:square;stroke-width:3;"
           id="path7708" />
      </g>
      <g
         id="line2d_16">
        <defs
           id="defs7712">
          <path
             d="M 0 2  C 0.530406 2 1.03916 1.789267 1.414214 1.414214  C 1.789267 1.03916 2 0.530406 2 0  C 2 -0.530406 1.789267 -1.03916 1.414214 -1.414214  C 1.03916 -1.789267 0.530406 -2 0 -2  C -0.530406 -2 -1.03916 -1.789267 -1.414214 -1.414214  C -1.789267 -1.03916 -2 -0.530406 -2 0  C -2 0.530406 -1.789267 1.03916 -1.414214 1.414214  C -1.03916 1.789267 -0.530406 2 0 2  z "
             id="m2f799a434a"
             style="stroke:#000000;" />
        </defs>
        <g
           clip-path="url(#p3563de8c97)"
           id="g7728">
          <use
             style="stroke:#000000;"
             x="89.3425"
             xlink:href="#m2f799a434a"
             y="131.736998"
             id="use7714" />
          <use
             style="stroke:#000000;"
             x="89.3425"
             xlink:href="#m2f799a434a"
             y="120.864998"
             id="use7716" />
          <use
             style="stroke:#000000;"
             x="89.3425"
             xlink:href="#m2f799a434a"
             y="115.646438"
             id="use7718" />
          <use
             style="stroke:#000000;"
             x="156.3025"
             xlink:href="#m2f799a434a"
             y="220.887397"
             id="use7720" />
          <use
             style="stroke:#000000;"
             x="189.7825"
             xlink:href="#m2f799a434a"
             y="203.492198"
             id="use7722" />
          <use
             style="stroke:#000000;"
             x="156.3025"
             xlink:href="#m2f799a434a"
             y="220.452517"
             id="use7724" />
          <use
             style="stroke:#000000;"
             x="223.2625"
             xlink:href="#m2f799a434a"
             y="209.580518"
             id="use7726" />
        </g>
      </g>
      <g
         id="patch_3">
        <path
           d="M 39.1225 235.238438  L 39.1225 17.798438  "
           style="fill:none;stroke:#000000;stroke-linecap:square;stroke-linejoin:miter;stroke-width:0.8;"
           id="path7731" />
      </g>
      <g
         id="patch_4">
        <path
           d="M 373.9225 235.238438  L 373.9225 17.798438  "
           style="fill:none;stroke:#000000;stroke-linecap:square;stroke-linejoin:miter;stroke-width:0.8;"
           id="path7734" />
      </g>
      <g
         id="patch_5">
        <path
           d="M 39.1225 235.238438  L 373.9225 235.238438  "
           style="fill:none;stroke:#000000;stroke-linecap:square;stroke-linejoin:miter;stroke-width:0.8;"
           id="path7737" />
      </g>
      <g
         id="patch_6">
        <path
           d="M 39.1225 17.798437  L 373.9225 17.798437  "
           style="fill:none;stroke:#000000;stroke-linecap:square;stroke-linejoin:miter;stroke-width:0.8;"
           id="path7740" />
      </g>
      <g
         id="legend_1">
        <g
           id="patch_7">
          <path
             d="M 258.5225 74.398437  L 366.9225 74.398437  Q 368.9225 74.398437 368.9225 72.398437  L 368.9225 24.798437  Q 368.9225 22.798437 366.9225 22.798437  L 258.5225 22.798437  Q 256.5225 22.798437 256.5225 24.798437  L 256.5225 72.398437  Q 256.5225 74.398437 258.5225 74.398437  z "
             style="fill:#ffffff;opacity:0.8;stroke:#cccccc;stroke-linejoin:miter;"
             id="path7743" />
        </g>
        <g
           id="line2d_17">
          <path
             d="M 260.5225 32.398437  L 280.5225 32.398437  "
             style="fill:none;stroke:#da70d6;stroke-linecap:square;stroke-width:3;"
             id="path7746" />
        </g>
        <g
           id="line2d_18" />
        <g
           id="text_16">
          <!-- 3$\times 10^{-3}$ cm/yr -->
          <defs
             id="defs7752">
            <path
               d="M 10.59375 35.5  L 73.1875 35.5  L 73.1875 27.203125  L 10.59375 27.203125  z "
               id="DejaVuSans-8722" />
            <path
               d="M 32.171875 -5.078125  Q 28.375 -14.84375 24.75 -17.8125  Q 21.140625 -20.796875 15.09375 -20.796875  L 7.90625 -20.796875  L 7.90625 -13.28125  L 13.1875 -13.28125  Q 16.890625 -13.28125 18.9375 -11.515625  Q 21 -9.765625 23.484375 -3.21875  L 25.09375 0.875  L 2.984375 54.6875  L 12.5 54.6875  L 29.59375 11.921875  L 46.6875 54.6875  L 56.203125 54.6875  z "
               id="DejaVuSans-121" />
          </defs>
          <g
             transform="translate(288.5225 35.898437)scale(0.1 -0.1)"
             id="g7778">
            <use
               transform="translate(0 0.765625)"
               xlink:href="#DejaVuSans-51"
               id="use7754" />
            <use
               transform="translate(63.623047 0.765625)"
               xlink:href="#DejaVuSans-215"
               id="use7756" />
            <use
               transform="translate(147.412109 0.765625)"
               xlink:href="#DejaVuSans-49"
               id="use7758" />
            <use
               transform="translate(211.035156 0.765625)"
               xlink:href="#DejaVuSans-48"
               id="use7760" />
            <use
               transform="translate(275.615234 39.046875)scale(0.7)"
               xlink:href="#DejaVuSans-8722"
               id="use7762" />
            <use
               transform="translate(334.267578 39.046875)scale(0.7)"
               xlink:href="#DejaVuSans-51"
               id="use7764" />
            <use
               transform="translate(381.538086 0.765625)"
               xlink:href="#DejaVuSans-32"
               id="use7766" />
            <use
               transform="translate(413.325195 0.765625)"
               xlink:href="#DejaVuSans-99"
               id="use7768" />
            <use
               transform="translate(468.305664 0.765625)"
               xlink:href="#DejaVuSans-109"
               id="use7770" />
            <use
               transform="translate(565.717773 0.765625)"
               xlink:href="#DejaVuSans-47"
               id="use7772" />
            <use
               transform="translate(599.40918 0.765625)"
               xlink:href="#DejaVuSans-121"
               id="use7774" />
            <use
               transform="translate(658.588867 0.765625)"
               xlink:href="#DejaVuSans-114"
               id="use7776" />
          </g>
        </g>
        <g
           id="line2d_19">
          <path
             d="M 260.5225 48.598437  L 280.5225 48.598437  "
             style="fill:none;stroke:#6495ed;stroke-linecap:square;stroke-width:3;"
             id="path7781" />
        </g>
        <g
           id="line2d_20" />
        <g
           id="text_17">
          <!-- 10$\times 10^{-3}$ cm/yr -->
          <g
             transform="translate(288.5225 52.098437)scale(0.1 -0.1)"
             id="g7811">
            <use
               transform="translate(0 0.765625)"
               xlink:href="#DejaVuSans-49"
               id="use7785" />
            <use
               transform="translate(63.623047 0.765625)"
               xlink:href="#DejaVuSans-48"
               id="use7787" />
            <use
               transform="translate(127.246094 0.765625)"
               xlink:href="#DejaVuSans-215"
               id="use7789" />
            <use
               transform="translate(211.035156 0.765625)"
               xlink:href="#DejaVuSans-49"
               id="use7791" />
            <use
               transform="translate(274.658203 0.765625)"
               xlink:href="#DejaVuSans-48"
               id="use7793" />
            <use
               transform="translate(339.238281 39.046875)scale(0.7)"
               xlink:href="#DejaVuSans-8722"
               id="use7795" />
            <use
               transform="translate(397.890625 39.046875)scale(0.7)"
               xlink:href="#DejaVuSans-51"
               id="use7797" />
            <use
               transform="translate(445.161133 0.765625)"
               xlink:href="#DejaVuSans-32"
               id="use7799" />
            <use
               transform="translate(476.948242 0.765625)"
               xlink:href="#DejaVuSans-99"
               id="use7801" />
            <use
               transform="translate(531.928711 0.765625)"
               xlink:href="#DejaVuSans-109"
               id="use7803" />
            <use
               transform="translate(629.34082 0.765625)"
               xlink:href="#DejaVuSans-47"
               id="use7805" />
            <use
               transform="translate(663.032227 0.765625)"
               xlink:href="#DejaVuSans-121"
               id="use7807" />
            <use
               transform="translate(722.211914 0.765625)"
               xlink:href="#DejaVuSans-114"
               id="use7809" />
          </g>
        </g>
        <g
           id="line2d_21">
          <path
             d="M 260.5225 64.798437  L 280.5225 64.798437  "
             style="fill:none;stroke:#008080;stroke-linecap:square;stroke-width:3;"
             id="path7814" />
        </g>
        <g
           id="line2d_22" />
        <g
           id="text_18">
          <!-- 20$\times 10^{-3}$ cm/yr -->
          <g
             transform="translate(288.5225 68.298437)scale(0.1 -0.1)"
             id="g7844">
            <use
               transform="translate(0 0.765625)"
               xlink:href="#DejaVuSans-50"
               id="use7818" />
            <use
               transform="translate(63.623047 0.765625)"
               xlink:href="#DejaVuSans-48"
               id="use7820" />
            <use
               transform="translate(127.246094 0.765625)"
               xlink:href="#DejaVuSans-215"
               id="use7822" />
            <use
               transform="translate(211.035156 0.765625)"
               xlink:href="#DejaVuSans-49"
               id="use7824" />
            <use
               transform="translate(274.658203 0.765625)"
               xlink:href="#DejaVuSans-48"
               id="use7826" />
            <use
               transform="translate(339.238281 39.046875)scale(0.7)"
               xlink:href="#DejaVuSans-8722"
               id="use7828" />
            <use
               transform="translate(397.890625 39.046875)scale(0.7)"
               xlink:href="#DejaVuSans-51"
               id="use7830" />
            <use
               transform="translate(445.161133 0.765625)"
               xlink:href="#DejaVuSans-32"
               id="use7832" />
            <use
               transform="translate(476.948242 0.765625)"
               xlink:href="#DejaVuSans-99"
               id="use7834" />
            <use
               transform="translate(531.928711 0.765625)"
               xlink:href="#DejaVuSans-109"
               id="use7836" />
            <use
               transform="translate(629.34082 0.765625)"
               xlink:href="#DejaVuSans-47"
               id="use7838" />
            <use
               transform="translate(663.032227 0.765625)"
               xlink:href="#DejaVuSans-121"
               id="use7840" />
            <use
               transform="translate(722.211914 0.765625)"
               xlink:href="#DejaVuSans-114"
               id="use7842" />
          </g>
        </g>
      </g>
    </g>
  </g>
  <defs
     id="defs7853">
    <clipPath
       id="p3563de8c97">
      <rect
         height="217.44"
         width="334.8"
         x="39.1225"
         y="17.798437"
         id="rect7850" />
    </clipPath>
  </defs>
</svg>
