<?xml version="1.0" encoding="utf-8" standalone="no"?>
<!DOCTYPE svg PUBLIC "-//W3C//DTD SVG 1.1//EN"
  "http://www.w3.org/Graphics/SVG/1.1/DTD/svg11.dtd">
<!-- Created with matplotlib (https://matplotlib.org/) -->
<svg height="268.898906pt" version="1.1" viewBox="0 0 624.609687 268.898906" width="624.609687pt" xmlns="http://www.w3.org/2000/svg" xmlns:xlink="http://www.w3.org/1999/xlink">
 <defs>
  <style type="text/css">
*{stroke-linecap:butt;stroke-linejoin:round;}
  </style>
 </defs>
 <g id="figure_1">
  <g id="patch_1">
   <path d="M 0 268.898906 
L 624.609687 268.898906 
L 624.609687 0 
L 0 0 
z
" style="fill:#ffffff;"/>
  </g>
  <g id="axes_1">
   <g id="patch_2">
    <path d="M 53.047188 228.439219 
L 306.683551 228.439219 
L 306.683551 10.999219 
L 53.047188 10.999219 
z
" style="fill:#ffffff;"/>
   </g>
   <g id="matplotlib.axis_1">
    <g id="xtick_1">
     <g id="line2d_1">
      <defs>
       <path d="M 0 0 
L 0 3.5 
" id="ma589497d84" style="stroke:#000000;stroke-width:0.8;"/>
      </defs>
      <g>
       <use style="stroke:#000000;stroke-width:0.8;" x="53.047188" xlink:href="#ma589497d84" y="228.439219"/>
      </g>
     </g>
     <g id="text_1">
      <!-- 0 -->
      <defs>
       <path d="M 31.78125 66.40625 
Q 24.171875 66.40625 20.328125 58.90625 
Q 16.5 51.421875 16.5 36.375 
Q 16.5 21.390625 20.328125 13.890625 
Q 24.171875 6.390625 31.78125 6.390625 
Q 39.453125 6.390625 43.28125 13.890625 
Q 47.125 21.390625 47.125 36.375 
Q 47.125 51.421875 43.28125 58.90625 
Q 39.453125 66.40625 31.78125 66.40625 
z
M 31.78125 74.21875 
Q 44.046875 74.21875 50.515625 64.515625 
Q 56.984375 54.828125 56.984375 36.375 
Q 56.984375 17.96875 50.515625 8.265625 
Q 44.046875 -1.421875 31.78125 -1.421875 
Q 19.53125 -1.421875 13.0625 8.265625 
Q 6.59375 17.96875 6.59375 36.375 
Q 6.59375 54.828125 13.0625 64.515625 
Q 19.53125 74.21875 31.78125 74.21875 
z
" id="DejaVuSans-48"/>
      </defs>
      <g transform="translate(49.865938 243.037656)scale(0.1 -0.1)">
       <use xlink:href="#DejaVuSans-48"/>
      </g>
     </g>
    </g>
    <g id="xtick_2">
     <g id="line2d_2">
      <g>
       <use style="stroke:#000000;stroke-width:0.8;" x="89.280954" xlink:href="#ma589497d84" y="228.439219"/>
      </g>
     </g>
     <g id="text_2">
      <!-- 10 -->
      <defs>
       <path d="M 12.40625 8.296875 
L 28.515625 8.296875 
L 28.515625 63.921875 
L 10.984375 60.40625 
L 10.984375 69.390625 
L 28.421875 72.90625 
L 38.28125 72.90625 
L 38.28125 8.296875 
L 54.390625 8.296875 
L 54.390625 0 
L 12.40625 0 
z
" id="DejaVuSans-49"/>
      </defs>
      <g transform="translate(82.918454 243.037656)scale(0.1 -0.1)">
       <use xlink:href="#DejaVuSans-49"/>
       <use x="63.623047" xlink:href="#DejaVuSans-48"/>
      </g>
     </g>
    </g>
    <g id="xtick_3">
     <g id="line2d_3">
      <g>
       <use style="stroke:#000000;stroke-width:0.8;" x="125.51472" xlink:href="#ma589497d84" y="228.439219"/>
      </g>
     </g>
     <g id="text_3">
      <!-- 20 -->
      <defs>
       <path d="M 19.1875 8.296875 
L 53.609375 8.296875 
L 53.609375 0 
L 7.328125 0 
L 7.328125 8.296875 
Q 12.9375 14.109375 22.625 23.890625 
Q 32.328125 33.6875 34.8125 36.53125 
Q 39.546875 41.84375 41.421875 45.53125 
Q 43.3125 49.21875 43.3125 52.78125 
Q 43.3125 58.59375 39.234375 62.25 
Q 35.15625 65.921875 28.609375 65.921875 
Q 23.96875 65.921875 18.8125 64.3125 
Q 13.671875 62.703125 7.8125 59.421875 
L 7.8125 69.390625 
Q 13.765625 71.78125 18.9375 73 
Q 24.125 74.21875 28.421875 74.21875 
Q 39.75 74.21875 46.484375 68.546875 
Q 53.21875 62.890625 53.21875 53.421875 
Q 53.21875 48.921875 51.53125 44.890625 
Q 49.859375 40.875 45.40625 35.40625 
Q 44.1875 33.984375 37.640625 27.21875 
Q 31.109375 20.453125 19.1875 8.296875 
z
" id="DejaVuSans-50"/>
      </defs>
      <g transform="translate(119.15222 243.037656)scale(0.1 -0.1)">
       <use xlink:href="#DejaVuSans-50"/>
       <use x="63.623047" xlink:href="#DejaVuSans-48"/>
      </g>
     </g>
    </g>
    <g id="xtick_4">
     <g id="line2d_4">
      <g>
       <use style="stroke:#000000;stroke-width:0.8;" x="161.748486" xlink:href="#ma589497d84" y="228.439219"/>
      </g>
     </g>
     <g id="text_4">
      <!-- 30 -->
      <defs>
       <path d="M 40.578125 39.3125 
Q 47.65625 37.796875 51.625 33 
Q 55.609375 28.21875 55.609375 21.1875 
Q 55.609375 10.40625 48.1875 4.484375 
Q 40.765625 -1.421875 27.09375 -1.421875 
Q 22.515625 -1.421875 17.65625 -0.515625 
Q 12.796875 0.390625 7.625 2.203125 
L 7.625 11.71875 
Q 11.71875 9.328125 16.59375 8.109375 
Q 21.484375 6.890625 26.8125 6.890625 
Q 36.078125 6.890625 40.9375 10.546875 
Q 45.796875 14.203125 45.796875 21.1875 
Q 45.796875 27.640625 41.28125 31.265625 
Q 36.765625 34.90625 28.71875 34.90625 
L 20.21875 34.90625 
L 20.21875 43.015625 
L 29.109375 43.015625 
Q 36.375 43.015625 40.234375 45.921875 
Q 44.09375 48.828125 44.09375 54.296875 
Q 44.09375 59.90625 40.109375 62.90625 
Q 36.140625 65.921875 28.71875 65.921875 
Q 24.65625 65.921875 20.015625 65.03125 
Q 15.375 64.15625 9.8125 62.3125 
L 9.8125 71.09375 
Q 15.4375 72.65625 20.34375 73.4375 
Q 25.25 74.21875 29.59375 74.21875 
Q 40.828125 74.21875 47.359375 69.109375 
Q 53.90625 64.015625 53.90625 55.328125 
Q 53.90625 49.265625 50.4375 45.09375 
Q 46.96875 40.921875 40.578125 39.3125 
z
" id="DejaVuSans-51"/>
      </defs>
      <g transform="translate(155.385986 243.037656)scale(0.1 -0.1)">
       <use xlink:href="#DejaVuSans-51"/>
       <use x="63.623047" xlink:href="#DejaVuSans-48"/>
      </g>
     </g>
    </g>
    <g id="xtick_5">
     <g id="line2d_5">
      <g>
       <use style="stroke:#000000;stroke-width:0.8;" x="197.982252" xlink:href="#ma589497d84" y="228.439219"/>
      </g>
     </g>
     <g id="text_5">
      <!-- 40 -->
      <defs>
       <path d="M 37.796875 64.3125 
L 12.890625 25.390625 
L 37.796875 25.390625 
z
M 35.203125 72.90625 
L 47.609375 72.90625 
L 47.609375 25.390625 
L 58.015625 25.390625 
L 58.015625 17.1875 
L 47.609375 17.1875 
L 47.609375 0 
L 37.796875 0 
L 37.796875 17.1875 
L 4.890625 17.1875 
L 4.890625 26.703125 
z
" id="DejaVuSans-52"/>
      </defs>
      <g transform="translate(191.619752 243.037656)scale(0.1 -0.1)">
       <use xlink:href="#DejaVuSans-52"/>
       <use x="63.623047" xlink:href="#DejaVuSans-48"/>
      </g>
     </g>
    </g>
    <g id="xtick_6">
     <g id="line2d_6">
      <g>
       <use style="stroke:#000000;stroke-width:0.8;" x="234.216019" xlink:href="#ma589497d84" y="228.439219"/>
      </g>
     </g>
     <g id="text_6">
      <!-- 50 -->
      <defs>
       <path d="M 10.796875 72.90625 
L 49.515625 72.90625 
L 49.515625 64.59375 
L 19.828125 64.59375 
L 19.828125 46.734375 
Q 21.96875 47.46875 24.109375 47.828125 
Q 26.265625 48.1875 28.421875 48.1875 
Q 40.625 48.1875 47.75 41.5 
Q 54.890625 34.8125 54.890625 23.390625 
Q 54.890625 11.625 47.5625 5.09375 
Q 40.234375 -1.421875 26.90625 -1.421875 
Q 22.3125 -1.421875 17.546875 -0.640625 
Q 12.796875 0.140625 7.71875 1.703125 
L 7.71875 11.625 
Q 12.109375 9.234375 16.796875 8.0625 
Q 21.484375 6.890625 26.703125 6.890625 
Q 35.15625 6.890625 40.078125 11.328125 
Q 45.015625 15.765625 45.015625 23.390625 
Q 45.015625 31 40.078125 35.4375 
Q 35.15625 39.890625 26.703125 39.890625 
Q 22.75 39.890625 18.8125 39.015625 
Q 14.890625 38.140625 10.796875 36.28125 
z
" id="DejaVuSans-53"/>
      </defs>
      <g transform="translate(227.853519 243.037656)scale(0.1 -0.1)">
       <use xlink:href="#DejaVuSans-53"/>
       <use x="63.623047" xlink:href="#DejaVuSans-48"/>
      </g>
     </g>
    </g>
    <g id="xtick_7">
     <g id="line2d_7">
      <g>
       <use style="stroke:#000000;stroke-width:0.8;" x="270.449785" xlink:href="#ma589497d84" y="228.439219"/>
      </g>
     </g>
     <g id="text_7">
      <!-- 60 -->
      <defs>
       <path d="M 33.015625 40.375 
Q 26.375 40.375 22.484375 35.828125 
Q 18.609375 31.296875 18.609375 23.390625 
Q 18.609375 15.53125 22.484375 10.953125 
Q 26.375 6.390625 33.015625 6.390625 
Q 39.65625 6.390625 43.53125 10.953125 
Q 47.40625 15.53125 47.40625 23.390625 
Q 47.40625 31.296875 43.53125 35.828125 
Q 39.65625 40.375 33.015625 40.375 
z
M 52.59375 71.296875 
L 52.59375 62.3125 
Q 48.875 64.0625 45.09375 64.984375 
Q 41.3125 65.921875 37.59375 65.921875 
Q 27.828125 65.921875 22.671875 59.328125 
Q 17.53125 52.734375 16.796875 39.40625 
Q 19.671875 43.65625 24.015625 45.921875 
Q 28.375 48.1875 33.59375 48.1875 
Q 44.578125 48.1875 50.953125 41.515625 
Q 57.328125 34.859375 57.328125 23.390625 
Q 57.328125 12.15625 50.6875 5.359375 
Q 44.046875 -1.421875 33.015625 -1.421875 
Q 20.359375 -1.421875 13.671875 8.265625 
Q 6.984375 17.96875 6.984375 36.375 
Q 6.984375 53.65625 15.1875 63.9375 
Q 23.390625 74.21875 37.203125 74.21875 
Q 40.921875 74.21875 44.703125 73.484375 
Q 48.484375 72.75 52.59375 71.296875 
z
" id="DejaVuSans-54"/>
      </defs>
      <g transform="translate(264.087285 243.037656)scale(0.1 -0.1)">
       <use xlink:href="#DejaVuSans-54"/>
       <use x="63.623047" xlink:href="#DejaVuSans-48"/>
      </g>
     </g>
    </g>
    <g id="xtick_8">
     <g id="line2d_8">
      <g>
       <use style="stroke:#000000;stroke-width:0.8;" x="306.683551" xlink:href="#ma589497d84" y="228.439219"/>
      </g>
     </g>
     <g id="text_8">
      <!-- 70 -->
      <defs>
       <path d="M 8.203125 72.90625 
L 55.078125 72.90625 
L 55.078125 68.703125 
L 28.609375 0 
L 18.3125 0 
L 43.21875 64.59375 
L 8.203125 64.59375 
z
" id="DejaVuSans-55"/>
      </defs>
      <g transform="translate(300.321051 243.037656)scale(0.1 -0.1)">
       <use xlink:href="#DejaVuSans-55"/>
       <use x="63.623047" xlink:href="#DejaVuSans-48"/>
      </g>
     </g>
    </g>
    <g id="text_9">
     <!-- Time (Ma) -->
     <defs>
      <path d="M -0.296875 72.90625 
L 61.375 72.90625 
L 61.375 64.59375 
L 35.5 64.59375 
L 35.5 0 
L 25.59375 0 
L 25.59375 64.59375 
L -0.296875 64.59375 
z
" id="DejaVuSans-84"/>
      <path d="M 9.421875 54.6875 
L 18.40625 54.6875 
L 18.40625 0 
L 9.421875 0 
z
M 9.421875 75.984375 
L 18.40625 75.984375 
L 18.40625 64.59375 
L 9.421875 64.59375 
z
" id="DejaVuSans-105"/>
      <path d="M 52 44.1875 
Q 55.375 50.25 60.0625 53.125 
Q 64.75 56 71.09375 56 
Q 79.640625 56 84.28125 50.015625 
Q 88.921875 44.046875 88.921875 33.015625 
L 88.921875 0 
L 79.890625 0 
L 79.890625 32.71875 
Q 79.890625 40.578125 77.09375 44.375 
Q 74.3125 48.1875 68.609375 48.1875 
Q 61.625 48.1875 57.5625 43.546875 
Q 53.515625 38.921875 53.515625 30.90625 
L 53.515625 0 
L 44.484375 0 
L 44.484375 32.71875 
Q 44.484375 40.625 41.703125 44.40625 
Q 38.921875 48.1875 33.109375 48.1875 
Q 26.21875 48.1875 22.15625 43.53125 
Q 18.109375 38.875 18.109375 30.90625 
L 18.109375 0 
L 9.078125 0 
L 9.078125 54.6875 
L 18.109375 54.6875 
L 18.109375 46.1875 
Q 21.1875 51.21875 25.484375 53.609375 
Q 29.78125 56 35.6875 56 
Q 41.65625 56 45.828125 52.96875 
Q 50 49.953125 52 44.1875 
z
" id="DejaVuSans-109"/>
      <path d="M 56.203125 29.59375 
L 56.203125 25.203125 
L 14.890625 25.203125 
Q 15.484375 15.921875 20.484375 11.0625 
Q 25.484375 6.203125 34.421875 6.203125 
Q 39.59375 6.203125 44.453125 7.46875 
Q 49.3125 8.734375 54.109375 11.28125 
L 54.109375 2.78125 
Q 49.265625 0.734375 44.1875 -0.34375 
Q 39.109375 -1.421875 33.890625 -1.421875 
Q 20.796875 -1.421875 13.15625 6.1875 
Q 5.515625 13.8125 5.515625 26.8125 
Q 5.515625 40.234375 12.765625 48.109375 
Q 20.015625 56 32.328125 56 
Q 43.359375 56 49.78125 48.890625 
Q 56.203125 41.796875 56.203125 29.59375 
z
M 47.21875 32.234375 
Q 47.125 39.59375 43.09375 43.984375 
Q 39.0625 48.390625 32.421875 48.390625 
Q 24.90625 48.390625 20.390625 44.140625 
Q 15.875 39.890625 15.1875 32.171875 
z
" id="DejaVuSans-101"/>
      <path id="DejaVuSans-32"/>
      <path d="M 31 75.875 
Q 24.46875 64.65625 21.28125 53.65625 
Q 18.109375 42.671875 18.109375 31.390625 
Q 18.109375 20.125 21.3125 9.0625 
Q 24.515625 -2 31 -13.1875 
L 23.1875 -13.1875 
Q 15.875 -1.703125 12.234375 9.375 
Q 8.59375 20.453125 8.59375 31.390625 
Q 8.59375 42.28125 12.203125 53.3125 
Q 15.828125 64.359375 23.1875 75.875 
z
" id="DejaVuSans-40"/>
      <path d="M 9.8125 72.90625 
L 24.515625 72.90625 
L 43.109375 23.296875 
L 61.8125 72.90625 
L 76.515625 72.90625 
L 76.515625 0 
L 66.890625 0 
L 66.890625 64.015625 
L 48.09375 14.015625 
L 38.1875 14.015625 
L 19.390625 64.015625 
L 19.390625 0 
L 9.8125 0 
z
" id="DejaVuSans-77"/>
      <path d="M 34.28125 27.484375 
Q 23.390625 27.484375 19.1875 25 
Q 14.984375 22.515625 14.984375 16.5 
Q 14.984375 11.71875 18.140625 8.90625 
Q 21.296875 6.109375 26.703125 6.109375 
Q 34.1875 6.109375 38.703125 11.40625 
Q 43.21875 16.703125 43.21875 25.484375 
L 43.21875 27.484375 
z
M 52.203125 31.203125 
L 52.203125 0 
L 43.21875 0 
L 43.21875 8.296875 
Q 40.140625 3.328125 35.546875 0.953125 
Q 30.953125 -1.421875 24.3125 -1.421875 
Q 15.921875 -1.421875 10.953125 3.296875 
Q 6 8.015625 6 15.921875 
Q 6 25.140625 12.171875 29.828125 
Q 18.359375 34.515625 30.609375 34.515625 
L 43.21875 34.515625 
L 43.21875 35.40625 
Q 43.21875 41.609375 39.140625 45 
Q 35.0625 48.390625 27.6875 48.390625 
Q 23 48.390625 18.546875 47.265625 
Q 14.109375 46.140625 10.015625 43.890625 
L 10.015625 52.203125 
Q 14.9375 54.109375 19.578125 55.046875 
Q 24.21875 56 28.609375 56 
Q 40.484375 56 46.34375 49.84375 
Q 52.203125 43.703125 52.203125 31.203125 
z
" id="DejaVuSans-97"/>
      <path d="M 8.015625 75.875 
L 15.828125 75.875 
Q 23.140625 64.359375 26.78125 53.3125 
Q 30.421875 42.28125 30.421875 31.390625 
Q 30.421875 20.453125 26.78125 9.375 
Q 23.140625 -1.703125 15.828125 -13.1875 
L 8.015625 -13.1875 
Q 14.5 -2 17.703125 9.0625 
Q 20.90625 20.125 20.90625 31.390625 
Q 20.90625 42.671875 17.703125 53.65625 
Q 14.5 64.65625 8.015625 75.875 
z
" id="DejaVuSans-41"/>
     </defs>
     <g transform="translate(147.232322 258.995313)scale(0.13 -0.13)">
      <use xlink:href="#DejaVuSans-84"/>
      <use x="57.958984" xlink:href="#DejaVuSans-105"/>
      <use x="85.742188" xlink:href="#DejaVuSans-109"/>
      <use x="183.154297" xlink:href="#DejaVuSans-101"/>
      <use x="244.677734" xlink:href="#DejaVuSans-32"/>
      <use x="276.464844" xlink:href="#DejaVuSans-40"/>
      <use x="315.478516" xlink:href="#DejaVuSans-77"/>
      <use x="401.757812" xlink:href="#DejaVuSans-97"/>
      <use x="463.037109" xlink:href="#DejaVuSans-41"/>
     </g>
    </g>
   </g>
   <g id="matplotlib.axis_2">
    <g id="ytick_1">
     <g id="line2d_9">
      <defs>
       <path d="M 0 0 
L -3.5 0 
" id="m471053e9a1" style="stroke:#000000;stroke-width:0.8;"/>
      </defs>
      <g>
       <use style="stroke:#000000;stroke-width:0.8;" x="53.047188" xlink:href="#m471053e9a1" y="228.439219"/>
      </g>
     </g>
     <g id="text_10">
      <!-- 0.55 -->
      <defs>
       <path d="M 10.6875 12.40625 
L 21 12.40625 
L 21 0 
L 10.6875 0 
z
" id="DejaVuSans-46"/>
      </defs>
      <g transform="translate(23.781563 232.238438)scale(0.1 -0.1)">
       <use xlink:href="#DejaVuSans-48"/>
       <use x="63.623047" xlink:href="#DejaVuSans-46"/>
       <use x="95.410156" xlink:href="#DejaVuSans-53"/>
       <use x="159.033203" xlink:href="#DejaVuSans-53"/>
      </g>
     </g>
    </g>
    <g id="ytick_2">
     <g id="line2d_10">
      <g>
       <use style="stroke:#000000;stroke-width:0.8;" x="53.047188" xlink:href="#m471053e9a1" y="201.259219"/>
      </g>
     </g>
     <g id="text_11">
      <!-- 0.60 -->
      <g transform="translate(23.781563 205.058438)scale(0.1 -0.1)">
       <use xlink:href="#DejaVuSans-48"/>
       <use x="63.623047" xlink:href="#DejaVuSans-46"/>
       <use x="95.410156" xlink:href="#DejaVuSans-54"/>
       <use x="159.033203" xlink:href="#DejaVuSans-48"/>
      </g>
     </g>
    </g>
    <g id="ytick_3">
     <g id="line2d_11">
      <g>
       <use style="stroke:#000000;stroke-width:0.8;" x="53.047188" xlink:href="#m471053e9a1" y="174.079219"/>
      </g>
     </g>
     <g id="text_12">
      <!-- 0.65 -->
      <g transform="translate(23.781563 177.878438)scale(0.1 -0.1)">
       <use xlink:href="#DejaVuSans-48"/>
       <use x="63.623047" xlink:href="#DejaVuSans-46"/>
       <use x="95.410156" xlink:href="#DejaVuSans-54"/>
       <use x="159.033203" xlink:href="#DejaVuSans-53"/>
      </g>
     </g>
    </g>
    <g id="ytick_4">
     <g id="line2d_12">
      <g>
       <use style="stroke:#000000;stroke-width:0.8;" x="53.047188" xlink:href="#m471053e9a1" y="146.899219"/>
      </g>
     </g>
     <g id="text_13">
      <!-- 0.70 -->
      <g transform="translate(23.781563 150.698438)scale(0.1 -0.1)">
       <use xlink:href="#DejaVuSans-48"/>
       <use x="63.623047" xlink:href="#DejaVuSans-46"/>
       <use x="95.410156" xlink:href="#DejaVuSans-55"/>
       <use x="159.033203" xlink:href="#DejaVuSans-48"/>
      </g>
     </g>
    </g>
    <g id="ytick_5">
     <g id="line2d_13">
      <g>
       <use style="stroke:#000000;stroke-width:0.8;" x="53.047188" xlink:href="#m471053e9a1" y="119.719219"/>
      </g>
     </g>
     <g id="text_14">
      <!-- 0.75 -->
      <g transform="translate(23.781563 123.518438)scale(0.1 -0.1)">
       <use xlink:href="#DejaVuSans-48"/>
       <use x="63.623047" xlink:href="#DejaVuSans-46"/>
       <use x="95.410156" xlink:href="#DejaVuSans-55"/>
       <use x="159.033203" xlink:href="#DejaVuSans-53"/>
      </g>
     </g>
    </g>
    <g id="ytick_6">
     <g id="line2d_14">
      <g>
       <use style="stroke:#000000;stroke-width:0.8;" x="53.047188" xlink:href="#m471053e9a1" y="92.539219"/>
      </g>
     </g>
     <g id="text_15">
      <!-- 0.80 -->
      <defs>
       <path d="M 31.78125 34.625 
Q 24.75 34.625 20.71875 30.859375 
Q 16.703125 27.09375 16.703125 20.515625 
Q 16.703125 13.921875 20.71875 10.15625 
Q 24.75 6.390625 31.78125 6.390625 
Q 38.8125 6.390625 42.859375 10.171875 
Q 46.921875 13.96875 46.921875 20.515625 
Q 46.921875 27.09375 42.890625 30.859375 
Q 38.875 34.625 31.78125 34.625 
z
M 21.921875 38.8125 
Q 15.578125 40.375 12.03125 44.71875 
Q 8.5 49.078125 8.5 55.328125 
Q 8.5 64.0625 14.71875 69.140625 
Q 20.953125 74.21875 31.78125 74.21875 
Q 42.671875 74.21875 48.875 69.140625 
Q 55.078125 64.0625 55.078125 55.328125 
Q 55.078125 49.078125 51.53125 44.71875 
Q 48 40.375 41.703125 38.8125 
Q 48.828125 37.15625 52.796875 32.3125 
Q 56.78125 27.484375 56.78125 20.515625 
Q 56.78125 9.90625 50.3125 4.234375 
Q 43.84375 -1.421875 31.78125 -1.421875 
Q 19.734375 -1.421875 13.25 4.234375 
Q 6.78125 9.90625 6.78125 20.515625 
Q 6.78125 27.484375 10.78125 32.3125 
Q 14.796875 37.15625 21.921875 38.8125 
z
M 18.3125 54.390625 
Q 18.3125 48.734375 21.84375 45.5625 
Q 25.390625 42.390625 31.78125 42.390625 
Q 38.140625 42.390625 41.71875 45.5625 
Q 45.3125 48.734375 45.3125 54.390625 
Q 45.3125 60.0625 41.71875 63.234375 
Q 38.140625 66.40625 31.78125 66.40625 
Q 25.390625 66.40625 21.84375 63.234375 
Q 18.3125 60.0625 18.3125 54.390625 
z
" id="DejaVuSans-56"/>
      </defs>
      <g transform="translate(23.781563 96.338438)scale(0.1 -0.1)">
       <use xlink:href="#DejaVuSans-48"/>
       <use x="63.623047" xlink:href="#DejaVuSans-46"/>
       <use x="95.410156" xlink:href="#DejaVuSans-56"/>
       <use x="159.033203" xlink:href="#DejaVuSans-48"/>
      </g>
     </g>
    </g>
    <g id="ytick_7">
     <g id="line2d_15">
      <g>
       <use style="stroke:#000000;stroke-width:0.8;" x="53.047188" xlink:href="#m471053e9a1" y="65.359219"/>
      </g>
     </g>
     <g id="text_16">
      <!-- 0.85 -->
      <g transform="translate(23.781563 69.158438)scale(0.1 -0.1)">
       <use xlink:href="#DejaVuSans-48"/>
       <use x="63.623047" xlink:href="#DejaVuSans-46"/>
       <use x="95.410156" xlink:href="#DejaVuSans-56"/>
       <use x="159.033203" xlink:href="#DejaVuSans-53"/>
      </g>
     </g>
    </g>
    <g id="ytick_8">
     <g id="line2d_16">
      <g>
       <use style="stroke:#000000;stroke-width:0.8;" x="53.047188" xlink:href="#m471053e9a1" y="38.179219"/>
      </g>
     </g>
     <g id="text_17">
      <!-- 0.90 -->
      <defs>
       <path d="M 10.984375 1.515625 
L 10.984375 10.5 
Q 14.703125 8.734375 18.5 7.8125 
Q 22.3125 6.890625 25.984375 6.890625 
Q 35.75 6.890625 40.890625 13.453125 
Q 46.046875 20.015625 46.78125 33.40625 
Q 43.953125 29.203125 39.59375 26.953125 
Q 35.25 24.703125 29.984375 24.703125 
Q 19.046875 24.703125 12.671875 31.3125 
Q 6.296875 37.9375 6.296875 49.421875 
Q 6.296875 60.640625 12.9375 67.421875 
Q 19.578125 74.21875 30.609375 74.21875 
Q 43.265625 74.21875 49.921875 64.515625 
Q 56.59375 54.828125 56.59375 36.375 
Q 56.59375 19.140625 48.40625 8.859375 
Q 40.234375 -1.421875 26.421875 -1.421875 
Q 22.703125 -1.421875 18.890625 -0.6875 
Q 15.09375 0.046875 10.984375 1.515625 
z
M 30.609375 32.421875 
Q 37.25 32.421875 41.125 36.953125 
Q 45.015625 41.5 45.015625 49.421875 
Q 45.015625 57.28125 41.125 61.84375 
Q 37.25 66.40625 30.609375 66.40625 
Q 23.96875 66.40625 20.09375 61.84375 
Q 16.21875 57.28125 16.21875 49.421875 
Q 16.21875 41.5 20.09375 36.953125 
Q 23.96875 32.421875 30.609375 32.421875 
z
" id="DejaVuSans-57"/>
      </defs>
      <g transform="translate(23.781563 41.978438)scale(0.1 -0.1)">
       <use xlink:href="#DejaVuSans-48"/>
       <use x="63.623047" xlink:href="#DejaVuSans-46"/>
       <use x="95.410156" xlink:href="#DejaVuSans-57"/>
       <use x="159.033203" xlink:href="#DejaVuSans-48"/>
      </g>
     </g>
    </g>
    <g id="ytick_9">
     <g id="line2d_17">
      <g>
       <use style="stroke:#000000;stroke-width:0.8;" x="53.047188" xlink:href="#m471053e9a1" y="10.999219"/>
      </g>
     </g>
     <g id="text_18">
      <!-- 0.95 -->
      <g transform="translate(23.781563 14.798438)scale(0.1 -0.1)">
       <use xlink:href="#DejaVuSans-48"/>
       <use x="63.623047" xlink:href="#DejaVuSans-46"/>
       <use x="95.410156" xlink:href="#DejaVuSans-57"/>
       <use x="159.033203" xlink:href="#DejaVuSans-53"/>
      </g>
     </g>
    </g>
    <g id="text_19">
     <!-- Scaling Factor -->
     <defs>
      <path d="M 53.515625 70.515625 
L 53.515625 60.890625 
Q 47.90625 63.578125 42.921875 64.890625 
Q 37.9375 66.21875 33.296875 66.21875 
Q 25.25 66.21875 20.875 63.09375 
Q 16.5 59.96875 16.5 54.203125 
Q 16.5 49.359375 19.40625 46.890625 
Q 22.3125 44.4375 30.421875 42.921875 
L 36.375 41.703125 
Q 47.40625 39.59375 52.65625 34.296875 
Q 57.90625 29 57.90625 20.125 
Q 57.90625 9.515625 50.796875 4.046875 
Q 43.703125 -1.421875 29.984375 -1.421875 
Q 24.8125 -1.421875 18.96875 -0.25 
Q 13.140625 0.921875 6.890625 3.21875 
L 6.890625 13.375 
Q 12.890625 10.015625 18.65625 8.296875 
Q 24.421875 6.59375 29.984375 6.59375 
Q 38.421875 6.59375 43.015625 9.90625 
Q 47.609375 13.234375 47.609375 19.390625 
Q 47.609375 24.75 44.3125 27.78125 
Q 41.015625 30.8125 33.5 32.328125 
L 27.484375 33.5 
Q 16.453125 35.6875 11.515625 40.375 
Q 6.59375 45.0625 6.59375 53.421875 
Q 6.59375 63.09375 13.40625 68.65625 
Q 20.21875 74.21875 32.171875 74.21875 
Q 37.3125 74.21875 42.625 73.28125 
Q 47.953125 72.359375 53.515625 70.515625 
z
" id="DejaVuSans-83"/>
      <path d="M 48.78125 52.59375 
L 48.78125 44.1875 
Q 44.96875 46.296875 41.140625 47.34375 
Q 37.3125 48.390625 33.40625 48.390625 
Q 24.65625 48.390625 19.8125 42.84375 
Q 14.984375 37.3125 14.984375 27.296875 
Q 14.984375 17.28125 19.8125 11.734375 
Q 24.65625 6.203125 33.40625 6.203125 
Q 37.3125 6.203125 41.140625 7.25 
Q 44.96875 8.296875 48.78125 10.40625 
L 48.78125 2.09375 
Q 45.015625 0.34375 40.984375 -0.53125 
Q 36.96875 -1.421875 32.421875 -1.421875 
Q 20.0625 -1.421875 12.78125 6.34375 
Q 5.515625 14.109375 5.515625 27.296875 
Q 5.515625 40.671875 12.859375 48.328125 
Q 20.21875 56 33.015625 56 
Q 37.15625 56 41.109375 55.140625 
Q 45.0625 54.296875 48.78125 52.59375 
z
" id="DejaVuSans-99"/>
      <path d="M 9.421875 75.984375 
L 18.40625 75.984375 
L 18.40625 0 
L 9.421875 0 
z
" id="DejaVuSans-108"/>
      <path d="M 54.890625 33.015625 
L 54.890625 0 
L 45.90625 0 
L 45.90625 32.71875 
Q 45.90625 40.484375 42.875 44.328125 
Q 39.84375 48.1875 33.796875 48.1875 
Q 26.515625 48.1875 22.3125 43.546875 
Q 18.109375 38.921875 18.109375 30.90625 
L 18.109375 0 
L 9.078125 0 
L 9.078125 54.6875 
L 18.109375 54.6875 
L 18.109375 46.1875 
Q 21.34375 51.125 25.703125 53.5625 
Q 30.078125 56 35.796875 56 
Q 45.21875 56 50.046875 50.171875 
Q 54.890625 44.34375 54.890625 33.015625 
z
" id="DejaVuSans-110"/>
      <path d="M 45.40625 27.984375 
Q 45.40625 37.75 41.375 43.109375 
Q 37.359375 48.484375 30.078125 48.484375 
Q 22.859375 48.484375 18.828125 43.109375 
Q 14.796875 37.75 14.796875 27.984375 
Q 14.796875 18.265625 18.828125 12.890625 
Q 22.859375 7.515625 30.078125 7.515625 
Q 37.359375 7.515625 41.375 12.890625 
Q 45.40625 18.265625 45.40625 27.984375 
z
M 54.390625 6.78125 
Q 54.390625 -7.171875 48.1875 -13.984375 
Q 42 -20.796875 29.203125 -20.796875 
Q 24.46875 -20.796875 20.265625 -20.09375 
Q 16.0625 -19.390625 12.109375 -17.921875 
L 12.109375 -9.1875 
Q 16.0625 -11.328125 19.921875 -12.34375 
Q 23.78125 -13.375 27.78125 -13.375 
Q 36.625 -13.375 41.015625 -8.765625 
Q 45.40625 -4.15625 45.40625 5.171875 
L 45.40625 9.625 
Q 42.625 4.78125 38.28125 2.390625 
Q 33.9375 0 27.875 0 
Q 17.828125 0 11.671875 7.65625 
Q 5.515625 15.328125 5.515625 27.984375 
Q 5.515625 40.671875 11.671875 48.328125 
Q 17.828125 56 27.875 56 
Q 33.9375 56 38.28125 53.609375 
Q 42.625 51.21875 45.40625 46.390625 
L 45.40625 54.6875 
L 54.390625 54.6875 
z
" id="DejaVuSans-103"/>
      <path d="M 9.8125 72.90625 
L 51.703125 72.90625 
L 51.703125 64.59375 
L 19.671875 64.59375 
L 19.671875 43.109375 
L 48.578125 43.109375 
L 48.578125 34.8125 
L 19.671875 34.8125 
L 19.671875 0 
L 9.8125 0 
z
" id="DejaVuSans-70"/>
      <path d="M 18.3125 70.21875 
L 18.3125 54.6875 
L 36.8125 54.6875 
L 36.8125 47.703125 
L 18.3125 47.703125 
L 18.3125 18.015625 
Q 18.3125 11.328125 20.140625 9.421875 
Q 21.96875 7.515625 27.59375 7.515625 
L 36.8125 7.515625 
L 36.8125 0 
L 27.59375 0 
Q 17.1875 0 13.234375 3.875 
Q 9.28125 7.765625 9.28125 18.015625 
L 9.28125 47.703125 
L 2.6875 47.703125 
L 2.6875 54.6875 
L 9.28125 54.6875 
L 9.28125 70.21875 
z
" id="DejaVuSans-116"/>
      <path d="M 30.609375 48.390625 
Q 23.390625 48.390625 19.1875 42.75 
Q 14.984375 37.109375 14.984375 27.296875 
Q 14.984375 17.484375 19.15625 11.84375 
Q 23.34375 6.203125 30.609375 6.203125 
Q 37.796875 6.203125 41.984375 11.859375 
Q 46.1875 17.53125 46.1875 27.296875 
Q 46.1875 37.015625 41.984375 42.703125 
Q 37.796875 48.390625 30.609375 48.390625 
z
M 30.609375 56 
Q 42.328125 56 49.015625 48.375 
Q 55.71875 40.765625 55.71875 27.296875 
Q 55.71875 13.875 49.015625 6.21875 
Q 42.328125 -1.421875 30.609375 -1.421875 
Q 18.84375 -1.421875 12.171875 6.21875 
Q 5.515625 13.875 5.515625 27.296875 
Q 5.515625 40.765625 12.171875 48.375 
Q 18.84375 56 30.609375 56 
z
" id="DejaVuSans-111"/>
      <path d="M 41.109375 46.296875 
Q 39.59375 47.171875 37.8125 47.578125 
Q 36.03125 48 33.890625 48 
Q 26.265625 48 22.1875 43.046875 
Q 18.109375 38.09375 18.109375 28.8125 
L 18.109375 0 
L 9.078125 0 
L 9.078125 54.6875 
L 18.109375 54.6875 
L 18.109375 46.1875 
Q 20.953125 51.171875 25.484375 53.578125 
Q 30.03125 56 36.53125 56 
Q 37.453125 56 38.578125 55.875 
Q 39.703125 55.765625 41.0625 55.515625 
z
" id="DejaVuSans-114"/>
     </defs>
     <g transform="translate(17.077969 165.226328)rotate(-90)scale(0.13 -0.13)">
      <use xlink:href="#DejaVuSans-83"/>
      <use x="63.476562" xlink:href="#DejaVuSans-99"/>
      <use x="118.457031" xlink:href="#DejaVuSans-97"/>
      <use x="179.736328" xlink:href="#DejaVuSans-108"/>
      <use x="207.519531" xlink:href="#DejaVuSans-105"/>
      <use x="235.302734" xlink:href="#DejaVuSans-110"/>
      <use x="298.681641" xlink:href="#DejaVuSans-103"/>
      <use x="362.158203" xlink:href="#DejaVuSans-32"/>
      <use x="393.945312" xlink:href="#DejaVuSans-70"/>
      <use x="442.339844" xlink:href="#DejaVuSans-97"/>
      <use x="503.619141" xlink:href="#DejaVuSans-99"/>
      <use x="558.599609" xlink:href="#DejaVuSans-116"/>
      <use x="597.808594" xlink:href="#DejaVuSans-111"/>
      <use x="658.990234" xlink:href="#DejaVuSans-114"/>
     </g>
    </g>
   </g>
   <g id="LineCollection_1">
    <path clip-path="url(#p3b4b285c54)" d="M 292.37846 228.439219 
L 292.37846 10.999219 
" style="fill:none;stroke:#000000;stroke-width:1.5;"/>
   </g>
   <g id="line2d_18">
    <path clip-path="url(#p3b4b285c54)" d="M 53.047188 221.027873 
L 53.953032 167.04835 
L 54.858876 162.717903 
L 55.76472 136.80367 
L 56.670564 151.801858 
L 57.576408 104.200915 
L 58.482252 88.789238 
L 59.388097 127.283712 
L 60.293941 118.226147 
L 61.199785 131.501452 
L 62.105629 150.638114 
L 63.011473 152.731632 
L 63.917317 144.015776 
L 64.823162 151.433386 
L 65.729006 136.838852 
L 66.63485 147.849202 
L 67.540694 164.396098 
L 68.446538 174.93356 
L 69.352382 171.124054 
L 70.258226 169.457226 
L 71.164071 165.687265 
L 72.069915 150.628009 
L 72.975759 117.016668 
L 73.881603 67.235645 
L 74.787447 50.510759 
L 75.693291 57.538693 
L 76.599136 97.420684 
L 77.50498 100.017348 
L 78.410824 122.738396 
L 79.316668 138.483743 
L 80.222512 163.133817 
L 81.128356 152.742323 
L 82.0342 118.559312 
L 82.940045 103.02348 
L 83.845889 134.095042 
L 84.751733 142.385679 
L 85.657577 136.975558 
L 86.563421 118.88679 
L 87.469265 124.960047 
L 88.37511 121.614478 
L 89.280954 108.877493 
L 90.186798 106.939798 
L 91.092642 97.3958 
L 91.998486 91.50671 
L 92.90433 89.495127 
L 93.810175 91.147797 
L 94.716019 93.495749 
L 95.621863 94.151439 
L 96.527707 87.410515 
L 98.339395 67.170932 
L 99.245239 95.316373 
L 100.151084 84.019678 
L 101.056928 87.289309 
L 101.962772 78.8228 
L 102.868616 53.685604 
L 103.77446 32.728824 
L 104.680304 52.49011 
L 106.491993 115.339301 
L 107.397837 136.416569 
L 108.303681 143.709793 
L 109.209525 143.005504 
L 110.115369 145.080121 
L 111.021213 152.577233 
L 111.927058 167.614986 
L 112.832902 173.974003 
L 113.738746 166.015594 
L 114.64459 123.281532 
L 115.550434 71.208668 
L 116.456278 62.522119 
L 117.362123 60.392583 
L 118.267967 58.742462 
L 119.173811 58.025347 
L 120.079655 57.599332 
L 120.985499 57.635976 
L 121.891343 58.224592 
L 124.608876 63.636846 
L 125.51472 66.47535 
L 126.420564 70.747545 
L 127.326408 73.819443 
L 129.138097 77.542138 
L 132.761473 95.114243 
L 133.667317 101.340116 
L 138.196538 125.473389 
L 141.819915 141.134974 
L 145.443291 153.154155 
L 147.25498 157.680744 
L 148.160824 162.550244 
L 149.066668 164.236785 
L 149.972512 164.160947 
L 150.878356 162.606461 
L 151.7842 163.343616 
L 152.690045 162.15976 
L 153.595889 162.25228 
L 154.501733 163.803291 
L 155.407577 168.62169 
L 156.313421 170.434317 
L 157.219265 168.897655 
L 158.12511 163.446227 
L 159.030954 153.989051 
L 160.842642 125.445819 
L 161.748486 118.472836 
L 162.65433 115.17651 
L 163.560175 110.761359 
L 164.466019 108.644748 
L 165.371863 109.092474 
L 166.277707 108.71079 
L 167.183551 106.254863 
L 168.089395 101.341632 
L 169.901084 89.899506 
L 170.806928 85.506497 
L 171.712772 87.175195 
L 172.618616 94.264278 
L 173.52446 119.303577 
L 174.430304 147.685032 
L 175.336149 161.03733 
L 176.241993 169.598578 
L 177.147837 167.8251 
L 178.053681 164.555188 
L 178.959525 159.593133 
L 180.771213 147.730618 
L 181.677058 142.587995 
L 182.582902 138.506942 
L 183.488746 135.366857 
L 185.300434 130.597712 
L 186.206278 128.674762 
L 187.112123 127.370106 
L 190.735499 124.161829 
L 192.547188 123.001123 
L 193.453032 122.712533 
L 194.358876 122.645476 
L 196.170564 123.229646 
L 197.076408 123.895944 
L 197.982252 124.883294 
L 198.888097 126.666249 
L 199.793941 128.063044 
L 200.699785 129.252818 
L 202.511473 131.193473 
L 203.417317 131.546897 
L 204.323162 131.517875 
L 206.13485 130.786796 
L 207.040694 129.654818 
L 207.946538 128.016057 
L 209.758226 123.609549 
L 210.664071 120.498773 
L 212.475759 112.896228 
L 214.287447 104.558558 
L 217.910824 86.654998 
L 219.722512 78.901984 
L 221.5342 73.175645 
L 222.440045 71.060834 
L 223.345889 69.369471 
L 224.251733 68.304384 
L 225.157577 67.598519 
L 226.063421 67.276469 
L 226.969265 67.456063 
L 227.87511 68.170687 
L 228.780954 69.366046 
L 229.686798 71.220695 
L 230.592642 73.778055 
L 231.498486 77.034693 
L 232.40433 81.209134 
L 233.310175 86.346139 
L 235.121863 99.038582 
L 237.839395 121.415541 
L 239.651084 134.402908 
L 242.368616 155.512982 
L 243.27446 163.755121 
L 244.180304 173.809708 
L 245.991993 198.922051 
L 246.897837 208.497705 
L 247.803681 210.156271 
L 248.709525 204.731297 
L 249.615369 193.833098 
L 250.521213 185.526502 
L 251.427058 180.422274 
L 252.332902 178.898637 
L 253.238746 178.021528 
L 254.14459 180.0848 
L 255.050434 177.885364 
L 255.956278 171.676405 
L 256.862123 163.2213 
L 257.767967 159.47006 
L 258.673811 157.247314 
L 259.579655 156.783319 
L 260.485499 154.725025 
L 261.391343 156.695522 
L 262.297188 159.540657 
L 263.203032 162.948932 
L 264.108876 163.365003 
L 265.920564 171.249067 
L 266.826408 174.75505 
L 267.732252 172.934526 
L 268.638097 174.680019 
L 269.543941 175.303563 
L 270.449785 175.570008 
L 271.355629 169.940273 
L 272.261473 169.880492 
L 273.167317 169.313428 
L 274.073162 167.964392 
L 274.979006 158.894656 
L 275.88485 155.774508 
L 276.790694 151.746021 
L 277.696538 146.667156 
L 278.602382 131.332317 
L 279.508226 122.680691 
L 280.414071 112.388083 
L 281.319915 100.803436 
L 282.225759 78.389769 
L 283.131603 67.877902 
L 284.037447 58.954477 
L 284.943291 51.488949 
L 285.849136 42.322445 
L 286.75498 36.078659 
L 287.660824 31.173129 
L 288.566668 28.111291 
L 289.472512 24.440907 
L 290.378356 25.234593 
L 291.2842 27.627526 
L 292.190045 31.814327 
L 293.095889 34.456458 
L 294.907577 48.218743 
L 295.813421 54.459783 
L 296.719265 56.854252 
L 297.62511 62.407783 
L 298.530954 67.170084 
L 299.436798 70.659797 
L 300.342642 70.201599 
L 301.248486 71.521704 
L 302.15433 72.189356 
L 303.060175 72.482511 
L 303.966019 70.799785 
L 304.871863 70.789025 
L 305.777707 70.538192 
L 306.683551 70.02586 
L 306.683551 70.02586 
" style="fill:none;stroke:#6495ed;stroke-linecap:square;stroke-width:1.5;"/>
   </g>
   <g id="line2d_19">
    <path clip-path="url(#p3b4b285c54)" d="M 53.047188 147.821916 
L 306.683551 147.821916 
L 306.683551 147.821916 
" style="fill:none;stroke:#808080;stroke-dasharray:5.55,2.4;stroke-dashoffset:0;stroke-width:1.5;"/>
   </g>
   <g id="patch_3">
    <path d="M 53.047188 228.439219 
L 53.047188 10.999219 
" style="fill:none;stroke:#000000;stroke-linecap:square;stroke-linejoin:miter;stroke-width:0.8;"/>
   </g>
   <g id="patch_4">
    <path d="M 306.683551 228.439219 
L 306.683551 10.999219 
" style="fill:none;stroke:#000000;stroke-linecap:square;stroke-linejoin:miter;stroke-width:0.8;"/>
   </g>
   <g id="patch_5">
    <path d="M 53.047188 228.439219 
L 306.683551 228.439219 
" style="fill:none;stroke:#000000;stroke-linecap:square;stroke-linejoin:miter;stroke-width:0.8;"/>
   </g>
   <g id="patch_6">
    <path d="M 53.047188 10.999219 
L 306.683551 10.999219 
" style="fill:none;stroke:#000000;stroke-linecap:square;stroke-linejoin:miter;stroke-width:0.8;"/>
   </g>
   <g id="legend_1">
    <g id="patch_7">
     <path d="M 60.047188 223.439219 
L 243.815938 223.439219 
Q 245.815938 223.439219 245.815938 221.439219 
L 245.815938 193.082969 
Q 245.815938 191.082969 243.815938 191.082969 
L 60.047188 191.082969 
Q 58.047188 191.082969 58.047188 193.082969 
L 58.047188 221.439219 
Q 58.047188 223.439219 60.047188 223.439219 
z
" style="fill:#ffffff;opacity:0.8;stroke:#cccccc;stroke-linejoin:miter;"/>
    </g>
    <g id="line2d_20">
     <path d="M 62.047188 199.181406 
L 82.047188 199.181406 
" style="fill:none;stroke:#6495ed;stroke-linecap:square;stroke-width:1.5;"/>
    </g>
    <g id="line2d_21"/>
    <g id="text_20">
     <!-- time-varying field and latitude -->
     <defs>
      <path d="M 4.890625 31.390625 
L 31.203125 31.390625 
L 31.203125 23.390625 
L 4.890625 23.390625 
z
" id="DejaVuSans-45"/>
      <path d="M 2.984375 54.6875 
L 12.5 54.6875 
L 29.59375 8.796875 
L 46.6875 54.6875 
L 56.203125 54.6875 
L 35.6875 0 
L 23.484375 0 
z
" id="DejaVuSans-118"/>
      <path d="M 32.171875 -5.078125 
Q 28.375 -14.84375 24.75 -17.8125 
Q 21.140625 -20.796875 15.09375 -20.796875 
L 7.90625 -20.796875 
L 7.90625 -13.28125 
L 13.1875 -13.28125 
Q 16.890625 -13.28125 18.9375 -11.515625 
Q 21 -9.765625 23.484375 -3.21875 
L 25.09375 0.875 
L 2.984375 54.6875 
L 12.5 54.6875 
L 29.59375 11.921875 
L 46.6875 54.6875 
L 56.203125 54.6875 
z
" id="DejaVuSans-121"/>
      <path d="M 37.109375 75.984375 
L 37.109375 68.5 
L 28.515625 68.5 
Q 23.6875 68.5 21.796875 66.546875 
Q 19.921875 64.59375 19.921875 59.515625 
L 19.921875 54.6875 
L 34.71875 54.6875 
L 34.71875 47.703125 
L 19.921875 47.703125 
L 19.921875 0 
L 10.890625 0 
L 10.890625 47.703125 
L 2.296875 47.703125 
L 2.296875 54.6875 
L 10.890625 54.6875 
L 10.890625 58.5 
Q 10.890625 67.625 15.140625 71.796875 
Q 19.390625 75.984375 28.609375 75.984375 
z
" id="DejaVuSans-102"/>
      <path d="M 45.40625 46.390625 
L 45.40625 75.984375 
L 54.390625 75.984375 
L 54.390625 0 
L 45.40625 0 
L 45.40625 8.203125 
Q 42.578125 3.328125 38.25 0.953125 
Q 33.9375 -1.421875 27.875 -1.421875 
Q 17.96875 -1.421875 11.734375 6.484375 
Q 5.515625 14.40625 5.515625 27.296875 
Q 5.515625 40.1875 11.734375 48.09375 
Q 17.96875 56 27.875 56 
Q 33.9375 56 38.25 53.625 
Q 42.578125 51.265625 45.40625 46.390625 
z
M 14.796875 27.296875 
Q 14.796875 17.390625 18.875 11.75 
Q 22.953125 6.109375 30.078125 6.109375 
Q 37.203125 6.109375 41.296875 11.75 
Q 45.40625 17.390625 45.40625 27.296875 
Q 45.40625 37.203125 41.296875 42.84375 
Q 37.203125 48.484375 30.078125 48.484375 
Q 22.953125 48.484375 18.875 42.84375 
Q 14.796875 37.203125 14.796875 27.296875 
z
" id="DejaVuSans-100"/>
      <path d="M 8.5 21.578125 
L 8.5 54.6875 
L 17.484375 54.6875 
L 17.484375 21.921875 
Q 17.484375 14.15625 20.5 10.265625 
Q 23.53125 6.390625 29.59375 6.390625 
Q 36.859375 6.390625 41.078125 11.03125 
Q 45.3125 15.671875 45.3125 23.6875 
L 45.3125 54.6875 
L 54.296875 54.6875 
L 54.296875 0 
L 45.3125 0 
L 45.3125 8.40625 
Q 42.046875 3.421875 37.71875 1 
Q 33.40625 -1.421875 27.6875 -1.421875 
Q 18.265625 -1.421875 13.375 4.4375 
Q 8.5 10.296875 8.5 21.578125 
z
M 31.109375 56 
z
" id="DejaVuSans-117"/>
     </defs>
     <g transform="translate(90.047188 202.681406)scale(0.1 -0.1)">
      <use xlink:href="#DejaVuSans-116"/>
      <use x="39.208984" xlink:href="#DejaVuSans-105"/>
      <use x="66.992188" xlink:href="#DejaVuSans-109"/>
      <use x="164.404297" xlink:href="#DejaVuSans-101"/>
      <use x="225.927734" xlink:href="#DejaVuSans-45"/>
      <use x="259.386719" xlink:href="#DejaVuSans-118"/>
      <use x="318.566406" xlink:href="#DejaVuSans-97"/>
      <use x="379.845703" xlink:href="#DejaVuSans-114"/>
      <use x="420.958984" xlink:href="#DejaVuSans-121"/>
      <use x="480.138672" xlink:href="#DejaVuSans-105"/>
      <use x="507.921875" xlink:href="#DejaVuSans-110"/>
      <use x="571.300781" xlink:href="#DejaVuSans-103"/>
      <use x="634.777344" xlink:href="#DejaVuSans-32"/>
      <use x="666.564453" xlink:href="#DejaVuSans-102"/>
      <use x="701.769531" xlink:href="#DejaVuSans-105"/>
      <use x="729.552734" xlink:href="#DejaVuSans-101"/>
      <use x="791.076172" xlink:href="#DejaVuSans-108"/>
      <use x="818.859375" xlink:href="#DejaVuSans-100"/>
      <use x="882.335938" xlink:href="#DejaVuSans-32"/>
      <use x="914.123047" xlink:href="#DejaVuSans-97"/>
      <use x="975.402344" xlink:href="#DejaVuSans-110"/>
      <use x="1038.78125" xlink:href="#DejaVuSans-100"/>
      <use x="1102.257812" xlink:href="#DejaVuSans-32"/>
      <use x="1134.044922" xlink:href="#DejaVuSans-108"/>
      <use x="1161.828125" xlink:href="#DejaVuSans-97"/>
      <use x="1223.107422" xlink:href="#DejaVuSans-116"/>
      <use x="1262.316406" xlink:href="#DejaVuSans-105"/>
      <use x="1290.099609" xlink:href="#DejaVuSans-116"/>
      <use x="1329.308594" xlink:href="#DejaVuSans-117"/>
      <use x="1392.6875" xlink:href="#DejaVuSans-100"/>
      <use x="1456.164062" xlink:href="#DejaVuSans-101"/>
     </g>
    </g>
    <g id="line2d_22">
     <path d="M 62.047188 213.859531 
L 82.047188 213.859531 
" style="fill:none;stroke:#808080;stroke-dasharray:5.55,2.4;stroke-dashoffset:0;stroke-width:1.5;"/>
    </g>
    <g id="line2d_23"/>
    <g id="text_21">
     <!-- constant field and latitude -->
     <defs>
      <path d="M 44.28125 53.078125 
L 44.28125 44.578125 
Q 40.484375 46.53125 36.375 47.5 
Q 32.28125 48.484375 27.875 48.484375 
Q 21.1875 48.484375 17.84375 46.4375 
Q 14.5 44.390625 14.5 40.28125 
Q 14.5 37.15625 16.890625 35.375 
Q 19.28125 33.59375 26.515625 31.984375 
L 29.59375 31.296875 
Q 39.15625 29.25 43.1875 25.515625 
Q 47.21875 21.78125 47.21875 15.09375 
Q 47.21875 7.46875 41.1875 3.015625 
Q 35.15625 -1.421875 24.609375 -1.421875 
Q 20.21875 -1.421875 15.453125 -0.5625 
Q 10.6875 0.296875 5.421875 2 
L 5.421875 11.28125 
Q 10.40625 8.6875 15.234375 7.390625 
Q 20.0625 6.109375 24.8125 6.109375 
Q 31.15625 6.109375 34.5625 8.28125 
Q 37.984375 10.453125 37.984375 14.40625 
Q 37.984375 18.0625 35.515625 20.015625 
Q 33.0625 21.96875 24.703125 23.78125 
L 21.578125 24.515625 
Q 13.234375 26.265625 9.515625 29.90625 
Q 5.8125 33.546875 5.8125 39.890625 
Q 5.8125 47.609375 11.28125 51.796875 
Q 16.75 56 26.8125 56 
Q 31.78125 56 36.171875 55.265625 
Q 40.578125 54.546875 44.28125 53.078125 
z
" id="DejaVuSans-115"/>
     </defs>
     <g transform="translate(90.047188 217.359531)scale(0.1 -0.1)">
      <use xlink:href="#DejaVuSans-99"/>
      <use x="54.980469" xlink:href="#DejaVuSans-111"/>
      <use x="116.162109" xlink:href="#DejaVuSans-110"/>
      <use x="179.541016" xlink:href="#DejaVuSans-115"/>
      <use x="231.640625" xlink:href="#DejaVuSans-116"/>
      <use x="270.849609" xlink:href="#DejaVuSans-97"/>
      <use x="332.128906" xlink:href="#DejaVuSans-110"/>
      <use x="395.507812" xlink:href="#DejaVuSans-116"/>
      <use x="434.716797" xlink:href="#DejaVuSans-32"/>
      <use x="466.503906" xlink:href="#DejaVuSans-102"/>
      <use x="501.708984" xlink:href="#DejaVuSans-105"/>
      <use x="529.492188" xlink:href="#DejaVuSans-101"/>
      <use x="591.015625" xlink:href="#DejaVuSans-108"/>
      <use x="618.798828" xlink:href="#DejaVuSans-100"/>
      <use x="682.275391" xlink:href="#DejaVuSans-32"/>
      <use x="714.0625" xlink:href="#DejaVuSans-97"/>
      <use x="775.341797" xlink:href="#DejaVuSans-110"/>
      <use x="838.720703" xlink:href="#DejaVuSans-100"/>
      <use x="902.197266" xlink:href="#DejaVuSans-32"/>
      <use x="933.984375" xlink:href="#DejaVuSans-108"/>
      <use x="961.767578" xlink:href="#DejaVuSans-97"/>
      <use x="1023.046875" xlink:href="#DejaVuSans-116"/>
      <use x="1062.255859" xlink:href="#DejaVuSans-105"/>
      <use x="1090.039062" xlink:href="#DejaVuSans-116"/>
      <use x="1129.248047" xlink:href="#DejaVuSans-117"/>
      <use x="1192.626953" xlink:href="#DejaVuSans-100"/>
      <use x="1256.103516" xlink:href="#DejaVuSans-101"/>
     </g>
    </g>
   </g>
  </g>
  <g id="axes_2">
   <g id="patch_8">
    <path d="M 357.410824 228.439219 
L 611.047187 228.439219 
L 611.047187 10.999219 
L 357.410824 10.999219 
z
" style="fill:#ffffff;"/>
   </g>
   <g id="matplotlib.axis_3">
    <g id="xtick_9">
     <g id="line2d_24">
      <g>
       <use style="stroke:#000000;stroke-width:0.8;" x="357.410824" xlink:href="#ma589497d84" y="228.439219"/>
      </g>
     </g>
     <g id="text_22">
      <!-- 0 -->
      <g transform="translate(354.229574 243.037656)scale(0.1 -0.1)">
       <use xlink:href="#DejaVuSans-48"/>
      </g>
     </g>
    </g>
    <g id="xtick_10">
     <g id="line2d_25">
      <g>
       <use style="stroke:#000000;stroke-width:0.8;" x="393.64459" xlink:href="#ma589497d84" y="228.439219"/>
      </g>
     </g>
     <g id="text_23">
      <!-- 10 -->
      <g transform="translate(387.28209 243.037656)scale(0.1 -0.1)">
       <use xlink:href="#DejaVuSans-49"/>
       <use x="63.623047" xlink:href="#DejaVuSans-48"/>
      </g>
     </g>
    </g>
    <g id="xtick_11">
     <g id="line2d_26">
      <g>
       <use style="stroke:#000000;stroke-width:0.8;" x="429.878356" xlink:href="#ma589497d84" y="228.439219"/>
      </g>
     </g>
     <g id="text_24">
      <!-- 20 -->
      <g transform="translate(423.515856 243.037656)scale(0.1 -0.1)">
       <use xlink:href="#DejaVuSans-50"/>
       <use x="63.623047" xlink:href="#DejaVuSans-48"/>
      </g>
     </g>
    </g>
    <g id="xtick_12">
     <g id="line2d_27">
      <g>
       <use style="stroke:#000000;stroke-width:0.8;" x="466.112123" xlink:href="#ma589497d84" y="228.439219"/>
      </g>
     </g>
     <g id="text_25">
      <!-- 30 -->
      <g transform="translate(459.749623 243.037656)scale(0.1 -0.1)">
       <use xlink:href="#DejaVuSans-51"/>
       <use x="63.623047" xlink:href="#DejaVuSans-48"/>
      </g>
     </g>
    </g>
    <g id="xtick_13">
     <g id="line2d_28">
      <g>
       <use style="stroke:#000000;stroke-width:0.8;" x="502.345889" xlink:href="#ma589497d84" y="228.439219"/>
      </g>
     </g>
     <g id="text_26">
      <!-- 40 -->
      <g transform="translate(495.983389 243.037656)scale(0.1 -0.1)">
       <use xlink:href="#DejaVuSans-52"/>
       <use x="63.623047" xlink:href="#DejaVuSans-48"/>
      </g>
     </g>
    </g>
    <g id="xtick_14">
     <g id="line2d_29">
      <g>
       <use style="stroke:#000000;stroke-width:0.8;" x="538.579655" xlink:href="#ma589497d84" y="228.439219"/>
      </g>
     </g>
     <g id="text_27">
      <!-- 50 -->
      <g transform="translate(532.217155 243.037656)scale(0.1 -0.1)">
       <use xlink:href="#DejaVuSans-53"/>
       <use x="63.623047" xlink:href="#DejaVuSans-48"/>
      </g>
     </g>
    </g>
    <g id="xtick_15">
     <g id="line2d_30">
      <g>
       <use style="stroke:#000000;stroke-width:0.8;" x="574.813421" xlink:href="#ma589497d84" y="228.439219"/>
      </g>
     </g>
     <g id="text_28">
      <!-- 60 -->
      <g transform="translate(568.450921 243.037656)scale(0.1 -0.1)">
       <use xlink:href="#DejaVuSans-54"/>
       <use x="63.623047" xlink:href="#DejaVuSans-48"/>
      </g>
     </g>
    </g>
    <g id="xtick_16">
     <g id="line2d_31">
      <g>
       <use style="stroke:#000000;stroke-width:0.8;" x="611.047187" xlink:href="#ma589497d84" y="228.439219"/>
      </g>
     </g>
     <g id="text_29">
      <!-- 70 -->
      <g transform="translate(604.684687 243.037656)scale(0.1 -0.1)">
       <use xlink:href="#DejaVuSans-55"/>
       <use x="63.623047" xlink:href="#DejaVuSans-48"/>
      </g>
     </g>
    </g>
    <g id="text_30">
     <!-- Time (Ma) -->
     <g transform="translate(451.595959 258.995313)scale(0.13 -0.13)">
      <use xlink:href="#DejaVuSans-84"/>
      <use x="57.958984" xlink:href="#DejaVuSans-105"/>
      <use x="85.742188" xlink:href="#DejaVuSans-109"/>
      <use x="183.154297" xlink:href="#DejaVuSans-101"/>
      <use x="244.677734" xlink:href="#DejaVuSans-32"/>
      <use x="276.464844" xlink:href="#DejaVuSans-40"/>
      <use x="315.478516" xlink:href="#DejaVuSans-77"/>
      <use x="401.757812" xlink:href="#DejaVuSans-97"/>
      <use x="463.037109" xlink:href="#DejaVuSans-41"/>
     </g>
    </g>
   </g>
   <g id="matplotlib.axis_4">
    <g id="ytick_10">
     <g id="line2d_32">
      <g>
       <use style="stroke:#000000;stroke-width:0.8;" x="357.410824" xlink:href="#m471053e9a1" y="228.439219"/>
      </g>
     </g>
    </g>
    <g id="ytick_11">
     <g id="line2d_33">
      <g>
       <use style="stroke:#000000;stroke-width:0.8;" x="357.410824" xlink:href="#m471053e9a1" y="201.259219"/>
      </g>
     </g>
    </g>
    <g id="ytick_12">
     <g id="line2d_34">
      <g>
       <use style="stroke:#000000;stroke-width:0.8;" x="357.410824" xlink:href="#m471053e9a1" y="174.079219"/>
      </g>
     </g>
    </g>
    <g id="ytick_13">
     <g id="line2d_35">
      <g>
       <use style="stroke:#000000;stroke-width:0.8;" x="357.410824" xlink:href="#m471053e9a1" y="146.899219"/>
      </g>
     </g>
    </g>
    <g id="ytick_14">
     <g id="line2d_36">
      <g>
       <use style="stroke:#000000;stroke-width:0.8;" x="357.410824" xlink:href="#m471053e9a1" y="119.719219"/>
      </g>
     </g>
    </g>
    <g id="ytick_15">
     <g id="line2d_37">
      <g>
       <use style="stroke:#000000;stroke-width:0.8;" x="357.410824" xlink:href="#m471053e9a1" y="92.539219"/>
      </g>
     </g>
    </g>
    <g id="ytick_16">
     <g id="line2d_38">
      <g>
       <use style="stroke:#000000;stroke-width:0.8;" x="357.410824" xlink:href="#m471053e9a1" y="65.359219"/>
      </g>
     </g>
    </g>
    <g id="ytick_17">
     <g id="line2d_39">
      <g>
       <use style="stroke:#000000;stroke-width:0.8;" x="357.410824" xlink:href="#m471053e9a1" y="38.179219"/>
      </g>
     </g>
    </g>
    <g id="ytick_18">
     <g id="line2d_40">
      <g>
       <use style="stroke:#000000;stroke-width:0.8;" x="357.410824" xlink:href="#m471053e9a1" y="10.999219"/>
      </g>
     </g>
    </g>
   </g>
   <g id="LineCollection_2">
    <path clip-path="url(#p7073660637)" d="M 596.742097 228.439219 
L 596.742097 10.999219 
" style="fill:none;stroke:#000000;stroke-width:1.5;"/>
   </g>
   <g id="line2d_41">
    <path clip-path="url(#p7073660637)" d="M 357.410824 216.81709 
L 358.316668 164.322949 
L 359.222512 160.111165 
L 360.128356 133.619701 
L 361.0342 149.129946 
L 361.940045 96.85775 
L 362.845889 82.131922 
L 363.751733 120.18661 
L 364.657577 110.834567 
L 365.563421 123.842857 
L 366.469265 144.438662 
L 367.37511 146.666055 
L 368.280954 137.305231 
L 369.186798 144.512072 
L 370.092642 128.635598 
L 370.998486 140.635114 
L 371.90433 157.808721 
L 372.810175 166.631234 
L 373.716019 163.304623 
L 374.621863 161.808888 
L 375.527707 158.317 
L 376.433551 142.02515 
L 377.339395 105.746818 
L 378.245239 59.899297 
L 379.151084 45.839366 
L 380.056928 51.173193 
L 380.962772 85.843849 
L 381.868616 88.252164 
L 382.77446 110.621596 
L 383.680304 126.702858 
L 384.586149 153.722505 
L 385.491993 142.763674 
L 386.397837 105.320151 
L 387.303681 89.212784 
L 388.209525 120.854812 
L 389.115369 130.194511 
L 390.021213 124.068926 
L 390.927058 103.692415 
L 391.832902 109.990346 
L 392.738746 106.491124 
L 393.64459 93.822622 
L 394.550434 91.086484 
L 395.456278 82.357666 
L 396.362123 77.182792 
L 397.267967 75.446412 
L 398.173811 76.112139 
L 399.079655 78.135053 
L 399.985499 78.703983 
L 400.891343 72.935374 
L 401.797187 63.688671 
L 402.703032 55.81918 
L 403.608876 78.778337 
L 404.51472 69.272596 
L 405.420564 71.144033 
L 406.326408 64.306827 
L 408.138097 24.206001 
L 409.043941 43.024466 
L 409.949785 66.283907 
L 410.855629 95.128532 
L 411.761473 117.528361 
L 412.667317 125.444456 
L 413.573162 124.599109 
L 414.479006 127.094563 
L 415.38485 136.134061 
L 416.290694 151.952873 
L 417.196538 157.550444 
L 418.102382 150.413975 
L 419.914071 56.547489 
L 420.819915 50.220028 
L 421.725759 48.709473 
L 422.631603 47.553481 
L 423.537447 46.768131 
L 424.443291 46.477855 
L 425.349136 46.502778 
L 426.25498 46.904277 
L 427.160824 47.684634 
L 428.066668 48.779948 
L 428.972512 50.215992 
L 429.878356 52.211846 
L 431.690045 56.670386 
L 433.501733 59.354403 
L 434.407577 61.671613 
L 435.313421 64.595065 
L 437.12511 71.585175 
L 439.842642 83.565206 
L 447.089395 116.317407 
L 448.901084 123.43693 
L 450.712772 129.723902 
L 452.52446 135.162072 
L 453.430304 137.156405 
L 454.336149 137.068359 
L 457.053681 131.752196 
L 457.959525 131.867716 
L 458.865369 133.772237 
L 459.771213 136.943601 
L 460.677058 138.874074 
L 461.582902 137.244144 
L 462.488746 130.878562 
L 463.39459 116.084129 
L 464.300434 96.908378 
L 465.206278 82.445391 
L 466.112123 76.355788 
L 467.017967 73.48115 
L 467.923811 70.118549 
L 468.829655 68.574562 
L 469.735499 68.897738 
L 470.641343 68.709272 
L 471.547187 66.963516 
L 473.358876 59.997253 
L 474.26472 56.486323 
L 475.170564 53.903151 
L 476.076408 54.873815 
L 476.982252 59.146533 
L 477.888097 77.067738 
L 478.793941 107.494495 
L 479.699785 125.750638 
L 480.605629 136.129607 
L 481.511473 134.089745 
L 482.417317 130.194584 
L 483.323162 123.7489 
L 485.13485 107.417655 
L 486.040694 100.789616 
L 486.946538 95.886596 
L 487.852382 92.340495 
L 488.758226 89.560439 
L 489.664071 87.25241 
L 490.569915 85.34597 
L 491.475759 84.088516 
L 493.287447 82.502395 
L 496.00498 80.413986 
L 496.910824 79.955432 
L 497.816668 79.700815 
L 499.628356 79.480755 
L 500.5342 79.768825 
L 501.440045 80.360853 
L 502.345889 81.250327 
L 505.063421 84.983974 
L 505.969265 85.907495 
L 506.87511 86.550995 
L 507.780954 86.908247 
L 508.686798 86.878824 
L 509.592642 86.533161 
L 510.498486 85.823839 
L 511.40433 84.706527 
L 512.310175 83.12896 
L 513.216019 81.164882 
L 514.121863 78.842939 
L 515.933551 73.27073 
L 520.462772 58.312399 
L 522.27446 53.130454 
L 524.086149 48.935952 
L 524.991993 47.245328 
L 525.897837 45.906743 
L 526.803681 44.365812 
L 527.709525 43.099858 
L 528.615369 42.160326 
L 529.521213 41.625833 
L 530.427058 41.381142 
L 531.332902 41.517661 
L 532.238746 41.993054 
L 533.14459 42.892704 
L 534.050434 44.276259 
L 536.767967 49.852559 
L 537.673811 52.625173 
L 538.579655 56.107001 
L 539.485499 60.23624 
L 541.297187 70.376843 
L 543.108876 82.462492 
L 544.01472 89.125854 
L 544.920564 96.924783 
L 546.732252 116.898308 
L 549.449785 149.720116 
L 550.355629 158.3398 
L 551.261473 163.888692 
L 552.167317 164.882056 
L 553.073162 161.685873 
L 554.88485 151.407425 
L 555.790694 147.707131 
L 556.696538 146.505754 
L 558.508226 149.628432 
L 559.414071 147.901873 
L 560.319915 142.393537 
L 561.225759 136.167134 
L 562.131603 131.554863 
L 563.037447 128.690825 
L 563.943291 128.083877 
L 564.849136 129.249026 
L 565.75498 131.772779 
L 566.660824 135.322572 
L 570.2842 151.4834 
L 571.190045 154.470339 
L 572.095889 156.789143 
L 573.001733 158.227463 
L 573.907577 158.729396 
L 574.813421 158.942082 
L 576.62511 158.90133 
L 577.530954 158.395355 
L 578.436798 157.172295 
L 579.342642 154.937034 
L 580.248486 151.772368 
L 581.15433 147.613192 
L 582.060175 142.292016 
L 582.966019 135.510361 
L 583.871863 127.158872 
L 584.777707 117.07951 
L 586.589395 93.015097 
L 588.401084 69.880511 
L 589.306928 60.558797 
L 590.212772 53.031526 
L 592.02446 42.550545 
L 592.930304 38.973222 
L 593.836149 37.84903 
L 594.741993 38.808904 
L 595.647837 41.71625 
L 597.459525 51.827088 
L 598.365369 59.267009 
L 600.177058 78.371033 
L 601.988746 96.833569 
L 602.89459 103.785501 
L 603.800434 108.578106 
L 604.706278 111.690674 
L 605.612123 113.443786 
L 606.517967 114.314735 
L 607.423811 114.693845 
L 608.329655 114.791792 
L 609.235499 114.777552 
L 610.141343 114.444791 
L 611.047187 113.760153 
L 611.047187 113.760153 
" style="fill:none;stroke:#00008b;stroke-linecap:square;stroke-width:1.5;"/>
   </g>
   <g id="line2d_42">
    <path clip-path="url(#p7073660637)" d="M 357.410824 150.950824 
L 361.0342 150.950824 
L 361.940045 153.677046 
L 364.657577 153.677046 
L 365.563421 154.265335 
L 368.280954 154.265335 
L 369.186798 154.978205 
L 371.90433 154.978205 
L 372.810175 155.708854 
L 375.527707 155.708854 
L 376.433551 156.423774 
L 379.151084 156.423774 
L 380.056928 157.130184 
L 382.77446 157.130184 
L 383.680304 157.830823 
L 386.397837 157.830823 
L 387.303681 158.531965 
L 390.021213 158.531965 
L 390.927058 159.21257 
L 393.64459 159.21257 
L 394.550434 159.87765 
L 397.267967 159.87765 
L 398.173811 160.535169 
L 400.891343 160.535169 
L 401.797187 161.322924 
L 404.51472 161.322924 
L 405.420564 162.098177 
L 408.138097 162.098177 
L 409.043941 162.817868 
L 411.761473 162.817868 
L 412.667317 163.321368 
L 415.38485 163.321368 
L 416.290694 163.826623 
L 419.008226 163.826623 
L 419.914071 164.312876 
L 422.631603 164.312876 
L 423.537447 164.826951 
L 426.25498 164.826951 
L 427.160824 165.548912 
L 429.878356 165.548912 
L 430.7842 166.611863 
L 433.501733 166.611863 
L 434.407577 167.675608 
L 437.12511 167.675608 
L 438.030954 168.719182 
L 440.748486 168.719182 
L 441.65433 169.752043 
L 444.371863 169.752043 
L 445.277707 170.76249 
L 447.995239 170.76249 
L 448.901084 171.759463 
L 451.618616 171.759463 
L 452.52446 174.917967 
L 455.241993 174.917967 
L 456.147837 177.806114 
L 458.865369 177.806114 
L 459.771213 180.331634 
L 462.488746 180.331634 
L 463.39459 182.465695 
L 466.112123 182.465695 
L 467.017967 182.737323 
L 469.735499 182.737323 
L 470.641343 182.618676 
L 476.982252 182.507647 
L 478.793941 182.440457 
L 484.229006 182.514504 
L 486.040694 182.575136 
L 491.475759 182.646788 
L 493.287447 182.717203 
L 498.722512 182.785802 
L 499.628356 183.239589 
L 502.345889 183.239589 
L 503.251733 183.671574 
L 505.969265 183.671574 
L 506.87511 184.070187 
L 509.592642 184.070187 
L 510.498486 184.427335 
L 513.216019 184.427335 
L 514.121863 184.746822 
L 516.839395 184.746822 
L 517.745239 185.034098 
L 520.462772 185.034098 
L 521.368616 185.289717 
L 524.086149 185.289717 
L 524.991993 185.597356 
L 527.709525 185.597356 
L 528.615369 185.855998 
L 531.332902 185.855998 
L 532.238746 185.982737 
L 538.579655 185.97422 
L 539.485499 185.633465 
L 542.203032 185.633465 
L 543.108876 184.895083 
L 545.826408 184.895083 
L 546.732252 183.77427 
L 549.449785 183.77427 
L 550.355629 182.280355 
L 553.073162 182.280355 
L 553.979006 180.464307 
L 556.696538 180.464307 
L 557.602382 177.777263 
L 560.319915 177.777263 
L 561.225759 174.719066 
L 563.943291 174.719066 
L 564.849136 171.322021 
L 567.566668 171.322021 
L 568.472512 167.650945 
L 571.190045 167.650945 
L 572.095889 163.724054 
L 574.813421 163.724054 
L 575.719265 158.97475 
L 578.436798 158.97475 
L 579.342642 152.378334 
L 582.060175 152.378334 
L 582.966019 144.539093 
L 585.683551 144.539093 
L 586.589395 134.912721 
L 589.306928 134.912721 
L 590.212772 129.502545 
L 592.930304 129.502545 
L 593.836149 123.60091 
L 596.553681 123.60091 
L 597.459525 117.241803 
L 600.177058 117.241803 
L 601.082902 110.493929 
L 603.800434 110.493929 
L 604.706278 106.782792 
L 607.423811 106.782792 
L 608.329655 104.488924 
L 611.047187 104.488924 
L 611.047187 104.488924 
" style="fill:none;stroke:#a9a9a9;stroke-dasharray:5.55,2.4;stroke-dashoffset:0;stroke-width:1.5;"/>
   </g>
   <g id="patch_9">
    <path d="M 357.410824 228.439219 
L 357.410824 10.999219 
" style="fill:none;stroke:#000000;stroke-linecap:square;stroke-linejoin:miter;stroke-width:0.8;"/>
   </g>
   <g id="patch_10">
    <path d="M 611.047187 228.439219 
L 611.047187 10.999219 
" style="fill:none;stroke:#000000;stroke-linecap:square;stroke-linejoin:miter;stroke-width:0.8;"/>
   </g>
   <g id="patch_11">
    <path d="M 357.410824 228.439219 
L 611.047187 228.439219 
" style="fill:none;stroke:#000000;stroke-linecap:square;stroke-linejoin:miter;stroke-width:0.8;"/>
   </g>
   <g id="patch_12">
    <path d="M 357.410824 10.999219 
L 611.047187 10.999219 
" style="fill:none;stroke:#000000;stroke-linecap:square;stroke-linejoin:miter;stroke-width:0.8;"/>
   </g>
   <g id="legend_2">
    <g id="patch_13">
     <path d="M 364.410824 223.439219 
L 576.013949 223.439219 
Q 578.013949 223.439219 578.013949 221.439219 
L 578.013949 193.082969 
Q 578.013949 191.082969 576.013949 191.082969 
L 364.410824 191.082969 
Q 362.410824 191.082969 362.410824 193.082969 
L 362.410824 221.439219 
Q 362.410824 223.439219 364.410824 223.439219 
z
" style="fill:#ffffff;opacity:0.8;stroke:#cccccc;stroke-linejoin:miter;"/>
    </g>
    <g id="line2d_43">
     <path d="M 366.410824 199.181406 
L 386.410824 199.181406 
" style="fill:none;stroke:#00008b;stroke-linecap:square;stroke-width:1.5;"/>
    </g>
    <g id="line2d_44"/>
    <g id="text_31">
     <!-- time-varying field, constant latitude -->
     <defs>
      <path d="M 11.71875 12.40625 
L 22.015625 12.40625 
L 22.015625 4 
L 14.015625 -11.625 
L 7.71875 -11.625 
L 11.71875 4 
z
" id="DejaVuSans-44"/>
     </defs>
     <g transform="translate(394.410824 202.681406)scale(0.1 -0.1)">
      <use xlink:href="#DejaVuSans-116"/>
      <use x="39.208984" xlink:href="#DejaVuSans-105"/>
      <use x="66.992188" xlink:href="#DejaVuSans-109"/>
      <use x="164.404297" xlink:href="#DejaVuSans-101"/>
      <use x="225.927734" xlink:href="#DejaVuSans-45"/>
      <use x="259.386719" xlink:href="#DejaVuSans-118"/>
      <use x="318.566406" xlink:href="#DejaVuSans-97"/>
      <use x="379.845703" xlink:href="#DejaVuSans-114"/>
      <use x="420.958984" xlink:href="#DejaVuSans-121"/>
      <use x="480.138672" xlink:href="#DejaVuSans-105"/>
      <use x="507.921875" xlink:href="#DejaVuSans-110"/>
      <use x="571.300781" xlink:href="#DejaVuSans-103"/>
      <use x="634.777344" xlink:href="#DejaVuSans-32"/>
      <use x="666.564453" xlink:href="#DejaVuSans-102"/>
      <use x="701.769531" xlink:href="#DejaVuSans-105"/>
      <use x="729.552734" xlink:href="#DejaVuSans-101"/>
      <use x="791.076172" xlink:href="#DejaVuSans-108"/>
      <use x="818.859375" xlink:href="#DejaVuSans-100"/>
      <use x="882.335938" xlink:href="#DejaVuSans-44"/>
      <use x="914.123047" xlink:href="#DejaVuSans-32"/>
      <use x="945.910156" xlink:href="#DejaVuSans-99"/>
      <use x="1000.890625" xlink:href="#DejaVuSans-111"/>
      <use x="1062.072266" xlink:href="#DejaVuSans-110"/>
      <use x="1125.451172" xlink:href="#DejaVuSans-115"/>
      <use x="1177.550781" xlink:href="#DejaVuSans-116"/>
      <use x="1216.759766" xlink:href="#DejaVuSans-97"/>
      <use x="1278.039062" xlink:href="#DejaVuSans-110"/>
      <use x="1341.417969" xlink:href="#DejaVuSans-116"/>
      <use x="1380.626953" xlink:href="#DejaVuSans-32"/>
      <use x="1412.414062" xlink:href="#DejaVuSans-108"/>
      <use x="1440.197266" xlink:href="#DejaVuSans-97"/>
      <use x="1501.476562" xlink:href="#DejaVuSans-116"/>
      <use x="1540.685547" xlink:href="#DejaVuSans-105"/>
      <use x="1568.46875" xlink:href="#DejaVuSans-116"/>
      <use x="1607.677734" xlink:href="#DejaVuSans-117"/>
      <use x="1671.056641" xlink:href="#DejaVuSans-100"/>
      <use x="1734.533203" xlink:href="#DejaVuSans-101"/>
     </g>
    </g>
    <g id="line2d_45">
     <path d="M 366.410824 213.859531 
L 386.410824 213.859531 
" style="fill:none;stroke:#a9a9a9;stroke-dasharray:5.55,2.4;stroke-dashoffset:0;stroke-width:1.5;"/>
    </g>
    <g id="line2d_46"/>
    <g id="text_32">
     <!-- constant field, time-varying latitude -->
     <g transform="translate(394.410824 217.359531)scale(0.1 -0.1)">
      <use xlink:href="#DejaVuSans-99"/>
      <use x="54.980469" xlink:href="#DejaVuSans-111"/>
      <use x="116.162109" xlink:href="#DejaVuSans-110"/>
      <use x="179.541016" xlink:href="#DejaVuSans-115"/>
      <use x="231.640625" xlink:href="#DejaVuSans-116"/>
      <use x="270.849609" xlink:href="#DejaVuSans-97"/>
      <use x="332.128906" xlink:href="#DejaVuSans-110"/>
      <use x="395.507812" xlink:href="#DejaVuSans-116"/>
      <use x="434.716797" xlink:href="#DejaVuSans-32"/>
      <use x="466.503906" xlink:href="#DejaVuSans-102"/>
      <use x="501.708984" xlink:href="#DejaVuSans-105"/>
      <use x="529.492188" xlink:href="#DejaVuSans-101"/>
      <use x="591.015625" xlink:href="#DejaVuSans-108"/>
      <use x="618.798828" xlink:href="#DejaVuSans-100"/>
      <use x="682.275391" xlink:href="#DejaVuSans-44"/>
      <use x="714.0625" xlink:href="#DejaVuSans-32"/>
      <use x="745.849609" xlink:href="#DejaVuSans-116"/>
      <use x="785.058594" xlink:href="#DejaVuSans-105"/>
      <use x="812.841797" xlink:href="#DejaVuSans-109"/>
      <use x="910.253906" xlink:href="#DejaVuSans-101"/>
      <use x="971.777344" xlink:href="#DejaVuSans-45"/>
      <use x="1005.236328" xlink:href="#DejaVuSans-118"/>
      <use x="1064.416016" xlink:href="#DejaVuSans-97"/>
      <use x="1125.695312" xlink:href="#DejaVuSans-114"/>
      <use x="1166.808594" xlink:href="#DejaVuSans-121"/>
      <use x="1225.988281" xlink:href="#DejaVuSans-105"/>
      <use x="1253.771484" xlink:href="#DejaVuSans-110"/>
      <use x="1317.150391" xlink:href="#DejaVuSans-103"/>
      <use x="1380.626953" xlink:href="#DejaVuSans-32"/>
      <use x="1412.414062" xlink:href="#DejaVuSans-108"/>
      <use x="1440.197266" xlink:href="#DejaVuSans-97"/>
      <use x="1501.476562" xlink:href="#DejaVuSans-116"/>
      <use x="1540.685547" xlink:href="#DejaVuSans-105"/>
      <use x="1568.46875" xlink:href="#DejaVuSans-116"/>
      <use x="1607.677734" xlink:href="#DejaVuSans-117"/>
      <use x="1671.056641" xlink:href="#DejaVuSans-100"/>
      <use x="1734.533203" xlink:href="#DejaVuSans-101"/>
     </g>
    </g>
   </g>
  </g>
 </g>
 <defs>
  <clipPath id="p3b4b285c54">
   <rect height="217.44" width="253.636364" x="53.047188" y="10.999219"/>
  </clipPath>
  <clipPath id="p7073660637">
   <rect height="217.44" width="253.636364" x="357.410824" y="10.999219"/>
  </clipPath>
 </defs>
</svg>
