<?xml version="1.0" encoding="utf-8" standalone="no"?>
<!DOCTYPE svg PUBLIC "-//W3C//DTD SVG 1.1//EN"
  "http://www.w3.org/Graphics/SVG/1.1/DTD/svg11.dtd">
<!-- Created with matplotlib (https://matplotlib.org/) -->
<svg height="319.459687pt" version="1.1" viewBox="0 0 345.609688 319.459687" width="345.609688pt" xmlns="http://www.w3.org/2000/svg" xmlns:xlink="http://www.w3.org/1999/xlink">
 <defs>
  <style type="text/css">
*{stroke-linecap:butt;stroke-linejoin:round;}
  </style>
 </defs>
 <g id="figure_1">
  <g id="patch_1">
   <path d="M 0 319.459687 
L 345.609688 319.459687 
L 345.609688 0 
L 0 0 
z
" style="fill:#ffffff;"/>
  </g>
  <g id="axes_1">
   <g id="patch_2">
    <path d="M 53.047188 279 
L 332.047188 279 
L 332.047188 7.2 
L 53.047188 7.2 
z
" style="fill:#ffffff;"/>
   </g>
   <g id="matplotlib.axis_1">
    <g id="xtick_1">
     <g id="line2d_1">
      <defs>
       <path d="M 0 0 
L 0 3.5 
" id="mb99aa1c08d" style="stroke:#000000;stroke-width:0.8;"/>
      </defs>
      <g>
       <use style="stroke:#000000;stroke-width:0.8;" x="53.047188" xlink:href="#mb99aa1c08d" y="279"/>
      </g>
     </g>
     <g id="text_1">
      <!-- 0 -->
      <defs>
       <path d="M 31.78125 66.40625 
Q 24.171875 66.40625 20.328125 58.90625 
Q 16.5 51.421875 16.5 36.375 
Q 16.5 21.390625 20.328125 13.890625 
Q 24.171875 6.390625 31.78125 6.390625 
Q 39.453125 6.390625 43.28125 13.890625 
Q 47.125 21.390625 47.125 36.375 
Q 47.125 51.421875 43.28125 58.90625 
Q 39.453125 66.40625 31.78125 66.40625 
z
M 31.78125 74.21875 
Q 44.046875 74.21875 50.515625 64.515625 
Q 56.984375 54.828125 56.984375 36.375 
Q 56.984375 17.96875 50.515625 8.265625 
Q 44.046875 -1.421875 31.78125 -1.421875 
Q 19.53125 -1.421875 13.0625 8.265625 
Q 6.59375 17.96875 6.59375 36.375 
Q 6.59375 54.828125 13.0625 64.515625 
Q 19.53125 74.21875 31.78125 74.21875 
z
" id="DejaVuSans-48"/>
      </defs>
      <g transform="translate(49.865938 293.598437)scale(0.1 -0.1)">
       <use xlink:href="#DejaVuSans-48"/>
      </g>
     </g>
    </g>
    <g id="xtick_2">
     <g id="line2d_2">
      <g>
       <use style="stroke:#000000;stroke-width:0.8;" x="92.90433" xlink:href="#mb99aa1c08d" y="279"/>
      </g>
     </g>
     <g id="text_2">
      <!-- 10 -->
      <defs>
       <path d="M 12.40625 8.296875 
L 28.515625 8.296875 
L 28.515625 63.921875 
L 10.984375 60.40625 
L 10.984375 69.390625 
L 28.421875 72.90625 
L 38.28125 72.90625 
L 38.28125 8.296875 
L 54.390625 8.296875 
L 54.390625 0 
L 12.40625 0 
z
" id="DejaVuSans-49"/>
      </defs>
      <g transform="translate(86.54183 293.598437)scale(0.1 -0.1)">
       <use xlink:href="#DejaVuSans-49"/>
       <use x="63.623047" xlink:href="#DejaVuSans-48"/>
      </g>
     </g>
    </g>
    <g id="xtick_3">
     <g id="line2d_3">
      <g>
       <use style="stroke:#000000;stroke-width:0.8;" x="132.761473" xlink:href="#mb99aa1c08d" y="279"/>
      </g>
     </g>
     <g id="text_3">
      <!-- 20 -->
      <defs>
       <path d="M 19.1875 8.296875 
L 53.609375 8.296875 
L 53.609375 0 
L 7.328125 0 
L 7.328125 8.296875 
Q 12.9375 14.109375 22.625 23.890625 
Q 32.328125 33.6875 34.8125 36.53125 
Q 39.546875 41.84375 41.421875 45.53125 
Q 43.3125 49.21875 43.3125 52.78125 
Q 43.3125 58.59375 39.234375 62.25 
Q 35.15625 65.921875 28.609375 65.921875 
Q 23.96875 65.921875 18.8125 64.3125 
Q 13.671875 62.703125 7.8125 59.421875 
L 7.8125 69.390625 
Q 13.765625 71.78125 18.9375 73 
Q 24.125 74.21875 28.421875 74.21875 
Q 39.75 74.21875 46.484375 68.546875 
Q 53.21875 62.890625 53.21875 53.421875 
Q 53.21875 48.921875 51.53125 44.890625 
Q 49.859375 40.875 45.40625 35.40625 
Q 44.1875 33.984375 37.640625 27.21875 
Q 31.109375 20.453125 19.1875 8.296875 
z
" id="DejaVuSans-50"/>
      </defs>
      <g transform="translate(126.398973 293.598437)scale(0.1 -0.1)">
       <use xlink:href="#DejaVuSans-50"/>
       <use x="63.623047" xlink:href="#DejaVuSans-48"/>
      </g>
     </g>
    </g>
    <g id="xtick_4">
     <g id="line2d_4">
      <g>
       <use style="stroke:#000000;stroke-width:0.8;" x="172.618616" xlink:href="#mb99aa1c08d" y="279"/>
      </g>
     </g>
     <g id="text_4">
      <!-- 30 -->
      <defs>
       <path d="M 40.578125 39.3125 
Q 47.65625 37.796875 51.625 33 
Q 55.609375 28.21875 55.609375 21.1875 
Q 55.609375 10.40625 48.1875 4.484375 
Q 40.765625 -1.421875 27.09375 -1.421875 
Q 22.515625 -1.421875 17.65625 -0.515625 
Q 12.796875 0.390625 7.625 2.203125 
L 7.625 11.71875 
Q 11.71875 9.328125 16.59375 8.109375 
Q 21.484375 6.890625 26.8125 6.890625 
Q 36.078125 6.890625 40.9375 10.546875 
Q 45.796875 14.203125 45.796875 21.1875 
Q 45.796875 27.640625 41.28125 31.265625 
Q 36.765625 34.90625 28.71875 34.90625 
L 20.21875 34.90625 
L 20.21875 43.015625 
L 29.109375 43.015625 
Q 36.375 43.015625 40.234375 45.921875 
Q 44.09375 48.828125 44.09375 54.296875 
Q 44.09375 59.90625 40.109375 62.90625 
Q 36.140625 65.921875 28.71875 65.921875 
Q 24.65625 65.921875 20.015625 65.03125 
Q 15.375 64.15625 9.8125 62.3125 
L 9.8125 71.09375 
Q 15.4375 72.65625 20.34375 73.4375 
Q 25.25 74.21875 29.59375 74.21875 
Q 40.828125 74.21875 47.359375 69.109375 
Q 53.90625 64.015625 53.90625 55.328125 
Q 53.90625 49.265625 50.4375 45.09375 
Q 46.96875 40.921875 40.578125 39.3125 
z
" id="DejaVuSans-51"/>
      </defs>
      <g transform="translate(166.256116 293.598437)scale(0.1 -0.1)">
       <use xlink:href="#DejaVuSans-51"/>
       <use x="63.623047" xlink:href="#DejaVuSans-48"/>
      </g>
     </g>
    </g>
    <g id="xtick_5">
     <g id="line2d_5">
      <g>
       <use style="stroke:#000000;stroke-width:0.8;" x="212.475759" xlink:href="#mb99aa1c08d" y="279"/>
      </g>
     </g>
     <g id="text_5">
      <!-- 40 -->
      <defs>
       <path d="M 37.796875 64.3125 
L 12.890625 25.390625 
L 37.796875 25.390625 
z
M 35.203125 72.90625 
L 47.609375 72.90625 
L 47.609375 25.390625 
L 58.015625 25.390625 
L 58.015625 17.1875 
L 47.609375 17.1875 
L 47.609375 0 
L 37.796875 0 
L 37.796875 17.1875 
L 4.890625 17.1875 
L 4.890625 26.703125 
z
" id="DejaVuSans-52"/>
      </defs>
      <g transform="translate(206.113259 293.598437)scale(0.1 -0.1)">
       <use xlink:href="#DejaVuSans-52"/>
       <use x="63.623047" xlink:href="#DejaVuSans-48"/>
      </g>
     </g>
    </g>
    <g id="xtick_6">
     <g id="line2d_6">
      <g>
       <use style="stroke:#000000;stroke-width:0.8;" x="252.332902" xlink:href="#mb99aa1c08d" y="279"/>
      </g>
     </g>
     <g id="text_6">
      <!-- 50 -->
      <defs>
       <path d="M 10.796875 72.90625 
L 49.515625 72.90625 
L 49.515625 64.59375 
L 19.828125 64.59375 
L 19.828125 46.734375 
Q 21.96875 47.46875 24.109375 47.828125 
Q 26.265625 48.1875 28.421875 48.1875 
Q 40.625 48.1875 47.75 41.5 
Q 54.890625 34.8125 54.890625 23.390625 
Q 54.890625 11.625 47.5625 5.09375 
Q 40.234375 -1.421875 26.90625 -1.421875 
Q 22.3125 -1.421875 17.546875 -0.640625 
Q 12.796875 0.140625 7.71875 1.703125 
L 7.71875 11.625 
Q 12.109375 9.234375 16.796875 8.0625 
Q 21.484375 6.890625 26.703125 6.890625 
Q 35.15625 6.890625 40.078125 11.328125 
Q 45.015625 15.765625 45.015625 23.390625 
Q 45.015625 31 40.078125 35.4375 
Q 35.15625 39.890625 26.703125 39.890625 
Q 22.75 39.890625 18.8125 39.015625 
Q 14.890625 38.140625 10.796875 36.28125 
z
" id="DejaVuSans-53"/>
      </defs>
      <g transform="translate(245.970402 293.598437)scale(0.1 -0.1)">
       <use xlink:href="#DejaVuSans-53"/>
       <use x="63.623047" xlink:href="#DejaVuSans-48"/>
      </g>
     </g>
    </g>
    <g id="xtick_7">
     <g id="line2d_7">
      <g>
       <use style="stroke:#000000;stroke-width:0.8;" x="292.190045" xlink:href="#mb99aa1c08d" y="279"/>
      </g>
     </g>
     <g id="text_7">
      <!-- 60 -->
      <defs>
       <path d="M 33.015625 40.375 
Q 26.375 40.375 22.484375 35.828125 
Q 18.609375 31.296875 18.609375 23.390625 
Q 18.609375 15.53125 22.484375 10.953125 
Q 26.375 6.390625 33.015625 6.390625 
Q 39.65625 6.390625 43.53125 10.953125 
Q 47.40625 15.53125 47.40625 23.390625 
Q 47.40625 31.296875 43.53125 35.828125 
Q 39.65625 40.375 33.015625 40.375 
z
M 52.59375 71.296875 
L 52.59375 62.3125 
Q 48.875 64.0625 45.09375 64.984375 
Q 41.3125 65.921875 37.59375 65.921875 
Q 27.828125 65.921875 22.671875 59.328125 
Q 17.53125 52.734375 16.796875 39.40625 
Q 19.671875 43.65625 24.015625 45.921875 
Q 28.375 48.1875 33.59375 48.1875 
Q 44.578125 48.1875 50.953125 41.515625 
Q 57.328125 34.859375 57.328125 23.390625 
Q 57.328125 12.15625 50.6875 5.359375 
Q 44.046875 -1.421875 33.015625 -1.421875 
Q 20.359375 -1.421875 13.671875 8.265625 
Q 6.984375 17.96875 6.984375 36.375 
Q 6.984375 53.65625 15.1875 63.9375 
Q 23.390625 74.21875 37.203125 74.21875 
Q 40.921875 74.21875 44.703125 73.484375 
Q 48.484375 72.75 52.59375 71.296875 
z
" id="DejaVuSans-54"/>
      </defs>
      <g transform="translate(285.827545 293.598437)scale(0.1 -0.1)">
       <use xlink:href="#DejaVuSans-54"/>
       <use x="63.623047" xlink:href="#DejaVuSans-48"/>
      </g>
     </g>
    </g>
    <g id="xtick_8">
     <g id="line2d_8">
      <g>
       <use style="stroke:#000000;stroke-width:0.8;" x="332.047188" xlink:href="#mb99aa1c08d" y="279"/>
      </g>
     </g>
     <g id="text_8">
      <!-- 70 -->
      <defs>
       <path d="M 8.203125 72.90625 
L 55.078125 72.90625 
L 55.078125 68.703125 
L 28.609375 0 
L 18.3125 0 
L 43.21875 64.59375 
L 8.203125 64.59375 
z
" id="DejaVuSans-55"/>
      </defs>
      <g transform="translate(325.684687 293.598437)scale(0.1 -0.1)">
       <use xlink:href="#DejaVuSans-55"/>
       <use x="63.623047" xlink:href="#DejaVuSans-48"/>
      </g>
     </g>
    </g>
    <g id="text_9">
     <!-- Time (Ma) -->
     <defs>
      <path d="M -0.296875 72.90625 
L 61.375 72.90625 
L 61.375 64.59375 
L 35.5 64.59375 
L 35.5 0 
L 25.59375 0 
L 25.59375 64.59375 
L -0.296875 64.59375 
z
" id="DejaVuSans-84"/>
      <path d="M 9.421875 54.6875 
L 18.40625 54.6875 
L 18.40625 0 
L 9.421875 0 
z
M 9.421875 75.984375 
L 18.40625 75.984375 
L 18.40625 64.59375 
L 9.421875 64.59375 
z
" id="DejaVuSans-105"/>
      <path d="M 52 44.1875 
Q 55.375 50.25 60.0625 53.125 
Q 64.75 56 71.09375 56 
Q 79.640625 56 84.28125 50.015625 
Q 88.921875 44.046875 88.921875 33.015625 
L 88.921875 0 
L 79.890625 0 
L 79.890625 32.71875 
Q 79.890625 40.578125 77.09375 44.375 
Q 74.3125 48.1875 68.609375 48.1875 
Q 61.625 48.1875 57.5625 43.546875 
Q 53.515625 38.921875 53.515625 30.90625 
L 53.515625 0 
L 44.484375 0 
L 44.484375 32.71875 
Q 44.484375 40.625 41.703125 44.40625 
Q 38.921875 48.1875 33.109375 48.1875 
Q 26.21875 48.1875 22.15625 43.53125 
Q 18.109375 38.875 18.109375 30.90625 
L 18.109375 0 
L 9.078125 0 
L 9.078125 54.6875 
L 18.109375 54.6875 
L 18.109375 46.1875 
Q 21.1875 51.21875 25.484375 53.609375 
Q 29.78125 56 35.6875 56 
Q 41.65625 56 45.828125 52.96875 
Q 50 49.953125 52 44.1875 
z
" id="DejaVuSans-109"/>
      <path d="M 56.203125 29.59375 
L 56.203125 25.203125 
L 14.890625 25.203125 
Q 15.484375 15.921875 20.484375 11.0625 
Q 25.484375 6.203125 34.421875 6.203125 
Q 39.59375 6.203125 44.453125 7.46875 
Q 49.3125 8.734375 54.109375 11.28125 
L 54.109375 2.78125 
Q 49.265625 0.734375 44.1875 -0.34375 
Q 39.109375 -1.421875 33.890625 -1.421875 
Q 20.796875 -1.421875 13.15625 6.1875 
Q 5.515625 13.8125 5.515625 26.8125 
Q 5.515625 40.234375 12.765625 48.109375 
Q 20.015625 56 32.328125 56 
Q 43.359375 56 49.78125 48.890625 
Q 56.203125 41.796875 56.203125 29.59375 
z
M 47.21875 32.234375 
Q 47.125 39.59375 43.09375 43.984375 
Q 39.0625 48.390625 32.421875 48.390625 
Q 24.90625 48.390625 20.390625 44.140625 
Q 15.875 39.890625 15.1875 32.171875 
z
" id="DejaVuSans-101"/>
      <path id="DejaVuSans-32"/>
      <path d="M 31 75.875 
Q 24.46875 64.65625 21.28125 53.65625 
Q 18.109375 42.671875 18.109375 31.390625 
Q 18.109375 20.125 21.3125 9.0625 
Q 24.515625 -2 31 -13.1875 
L 23.1875 -13.1875 
Q 15.875 -1.703125 12.234375 9.375 
Q 8.59375 20.453125 8.59375 31.390625 
Q 8.59375 42.28125 12.203125 53.3125 
Q 15.828125 64.359375 23.1875 75.875 
z
" id="DejaVuSans-40"/>
      <path d="M 9.8125 72.90625 
L 24.515625 72.90625 
L 43.109375 23.296875 
L 61.8125 72.90625 
L 76.515625 72.90625 
L 76.515625 0 
L 66.890625 0 
L 66.890625 64.015625 
L 48.09375 14.015625 
L 38.1875 14.015625 
L 19.390625 64.015625 
L 19.390625 0 
L 9.8125 0 
z
" id="DejaVuSans-77"/>
      <path d="M 34.28125 27.484375 
Q 23.390625 27.484375 19.1875 25 
Q 14.984375 22.515625 14.984375 16.5 
Q 14.984375 11.71875 18.140625 8.90625 
Q 21.296875 6.109375 26.703125 6.109375 
Q 34.1875 6.109375 38.703125 11.40625 
Q 43.21875 16.703125 43.21875 25.484375 
L 43.21875 27.484375 
z
M 52.203125 31.203125 
L 52.203125 0 
L 43.21875 0 
L 43.21875 8.296875 
Q 40.140625 3.328125 35.546875 0.953125 
Q 30.953125 -1.421875 24.3125 -1.421875 
Q 15.921875 -1.421875 10.953125 3.296875 
Q 6 8.015625 6 15.921875 
Q 6 25.140625 12.171875 29.828125 
Q 18.359375 34.515625 30.609375 34.515625 
L 43.21875 34.515625 
L 43.21875 35.40625 
Q 43.21875 41.609375 39.140625 45 
Q 35.0625 48.390625 27.6875 48.390625 
Q 23 48.390625 18.546875 47.265625 
Q 14.109375 46.140625 10.015625 43.890625 
L 10.015625 52.203125 
Q 14.9375 54.109375 19.578125 55.046875 
Q 24.21875 56 28.609375 56 
Q 40.484375 56 46.34375 49.84375 
Q 52.203125 43.703125 52.203125 31.203125 
z
" id="DejaVuSans-97"/>
      <path d="M 8.015625 75.875 
L 15.828125 75.875 
Q 23.140625 64.359375 26.78125 53.3125 
Q 30.421875 42.28125 30.421875 31.390625 
Q 30.421875 20.453125 26.78125 9.375 
Q 23.140625 -1.703125 15.828125 -13.1875 
L 8.015625 -13.1875 
Q 14.5 -2 17.703125 9.0625 
Q 20.90625 20.125 20.90625 31.390625 
Q 20.90625 42.671875 17.703125 53.65625 
Q 14.5 64.65625 8.015625 75.875 
z
" id="DejaVuSans-41"/>
     </defs>
     <g transform="translate(159.914141 309.556094)scale(0.13 -0.13)">
      <use xlink:href="#DejaVuSans-84"/>
      <use x="57.958984" xlink:href="#DejaVuSans-105"/>
      <use x="85.742188" xlink:href="#DejaVuSans-109"/>
      <use x="183.154297" xlink:href="#DejaVuSans-101"/>
      <use x="244.677734" xlink:href="#DejaVuSans-32"/>
      <use x="276.464844" xlink:href="#DejaVuSans-40"/>
      <use x="315.478516" xlink:href="#DejaVuSans-77"/>
      <use x="401.757812" xlink:href="#DejaVuSans-97"/>
      <use x="463.037109" xlink:href="#DejaVuSans-41"/>
     </g>
    </g>
   </g>
   <g id="matplotlib.axis_2">
    <g id="ytick_1">
     <g id="line2d_9">
      <defs>
       <path d="M 0 0 
L -3.5 0 
" id="m30a59c535e" style="stroke:#000000;stroke-width:0.8;"/>
      </defs>
      <g>
       <use style="stroke:#000000;stroke-width:0.8;" x="53.047188" xlink:href="#m30a59c535e" y="246.782605"/>
      </g>
     </g>
     <g id="text_10">
      <!-- 0.85 -->
      <defs>
       <path d="M 10.6875 12.40625 
L 21 12.40625 
L 21 0 
L 10.6875 0 
z
" id="DejaVuSans-46"/>
       <path d="M 31.78125 34.625 
Q 24.75 34.625 20.71875 30.859375 
Q 16.703125 27.09375 16.703125 20.515625 
Q 16.703125 13.921875 20.71875 10.15625 
Q 24.75 6.390625 31.78125 6.390625 
Q 38.8125 6.390625 42.859375 10.171875 
Q 46.921875 13.96875 46.921875 20.515625 
Q 46.921875 27.09375 42.890625 30.859375 
Q 38.875 34.625 31.78125 34.625 
z
M 21.921875 38.8125 
Q 15.578125 40.375 12.03125 44.71875 
Q 8.5 49.078125 8.5 55.328125 
Q 8.5 64.0625 14.71875 69.140625 
Q 20.953125 74.21875 31.78125 74.21875 
Q 42.671875 74.21875 48.875 69.140625 
Q 55.078125 64.0625 55.078125 55.328125 
Q 55.078125 49.078125 51.53125 44.71875 
Q 48 40.375 41.703125 38.8125 
Q 48.828125 37.15625 52.796875 32.3125 
Q 56.78125 27.484375 56.78125 20.515625 
Q 56.78125 9.90625 50.3125 4.234375 
Q 43.84375 -1.421875 31.78125 -1.421875 
Q 19.734375 -1.421875 13.25 4.234375 
Q 6.78125 9.90625 6.78125 20.515625 
Q 6.78125 27.484375 10.78125 32.3125 
Q 14.796875 37.15625 21.921875 38.8125 
z
M 18.3125 54.390625 
Q 18.3125 48.734375 21.84375 45.5625 
Q 25.390625 42.390625 31.78125 42.390625 
Q 38.140625 42.390625 41.71875 45.5625 
Q 45.3125 48.734375 45.3125 54.390625 
Q 45.3125 60.0625 41.71875 63.234375 
Q 38.140625 66.40625 31.78125 66.40625 
Q 25.390625 66.40625 21.84375 63.234375 
Q 18.3125 60.0625 18.3125 54.390625 
z
" id="DejaVuSans-56"/>
      </defs>
      <g transform="translate(23.781563 250.581824)scale(0.1 -0.1)">
       <use xlink:href="#DejaVuSans-48"/>
       <use x="63.623047" xlink:href="#DejaVuSans-46"/>
       <use x="95.410156" xlink:href="#DejaVuSans-56"/>
       <use x="159.033203" xlink:href="#DejaVuSans-53"/>
      </g>
     </g>
    </g>
    <g id="ytick_2">
     <g id="line2d_10">
      <g>
       <use style="stroke:#000000;stroke-width:0.8;" x="53.047188" xlink:href="#m30a59c535e" y="208.666374"/>
      </g>
     </g>
     <g id="text_11">
      <!-- 0.90 -->
      <defs>
       <path d="M 10.984375 1.515625 
L 10.984375 10.5 
Q 14.703125 8.734375 18.5 7.8125 
Q 22.3125 6.890625 25.984375 6.890625 
Q 35.75 6.890625 40.890625 13.453125 
Q 46.046875 20.015625 46.78125 33.40625 
Q 43.953125 29.203125 39.59375 26.953125 
Q 35.25 24.703125 29.984375 24.703125 
Q 19.046875 24.703125 12.671875 31.3125 
Q 6.296875 37.9375 6.296875 49.421875 
Q 6.296875 60.640625 12.9375 67.421875 
Q 19.578125 74.21875 30.609375 74.21875 
Q 43.265625 74.21875 49.921875 64.515625 
Q 56.59375 54.828125 56.59375 36.375 
Q 56.59375 19.140625 48.40625 8.859375 
Q 40.234375 -1.421875 26.421875 -1.421875 
Q 22.703125 -1.421875 18.890625 -0.6875 
Q 15.09375 0.046875 10.984375 1.515625 
z
M 30.609375 32.421875 
Q 37.25 32.421875 41.125 36.953125 
Q 45.015625 41.5 45.015625 49.421875 
Q 45.015625 57.28125 41.125 61.84375 
Q 37.25 66.40625 30.609375 66.40625 
Q 23.96875 66.40625 20.09375 61.84375 
Q 16.21875 57.28125 16.21875 49.421875 
Q 16.21875 41.5 20.09375 36.953125 
Q 23.96875 32.421875 30.609375 32.421875 
z
" id="DejaVuSans-57"/>
      </defs>
      <g transform="translate(23.781563 212.465593)scale(0.1 -0.1)">
       <use xlink:href="#DejaVuSans-48"/>
       <use x="63.623047" xlink:href="#DejaVuSans-46"/>
       <use x="95.410156" xlink:href="#DejaVuSans-57"/>
       <use x="159.033203" xlink:href="#DejaVuSans-48"/>
      </g>
     </g>
    </g>
    <g id="ytick_3">
     <g id="line2d_11">
      <g>
       <use style="stroke:#000000;stroke-width:0.8;" x="53.047188" xlink:href="#m30a59c535e" y="170.550143"/>
      </g>
     </g>
     <g id="text_12">
      <!-- 0.95 -->
      <g transform="translate(23.781563 174.349362)scale(0.1 -0.1)">
       <use xlink:href="#DejaVuSans-48"/>
       <use x="63.623047" xlink:href="#DejaVuSans-46"/>
       <use x="95.410156" xlink:href="#DejaVuSans-57"/>
       <use x="159.033203" xlink:href="#DejaVuSans-53"/>
      </g>
     </g>
    </g>
    <g id="ytick_4">
     <g id="line2d_12">
      <g>
       <use style="stroke:#000000;stroke-width:0.8;" x="53.047188" xlink:href="#m30a59c535e" y="132.433912"/>
      </g>
     </g>
     <g id="text_13">
      <!-- 1.00 -->
      <g transform="translate(23.781563 136.233131)scale(0.1 -0.1)">
       <use xlink:href="#DejaVuSans-49"/>
       <use x="63.623047" xlink:href="#DejaVuSans-46"/>
       <use x="95.410156" xlink:href="#DejaVuSans-48"/>
       <use x="159.033203" xlink:href="#DejaVuSans-48"/>
      </g>
     </g>
    </g>
    <g id="ytick_5">
     <g id="line2d_13">
      <g>
       <use style="stroke:#000000;stroke-width:0.8;" x="53.047188" xlink:href="#m30a59c535e" y="94.317681"/>
      </g>
     </g>
     <g id="text_14">
      <!-- 1.05 -->
      <g transform="translate(23.781563 98.1169)scale(0.1 -0.1)">
       <use xlink:href="#DejaVuSans-49"/>
       <use x="63.623047" xlink:href="#DejaVuSans-46"/>
       <use x="95.410156" xlink:href="#DejaVuSans-48"/>
       <use x="159.033203" xlink:href="#DejaVuSans-53"/>
      </g>
     </g>
    </g>
    <g id="ytick_6">
     <g id="line2d_14">
      <g>
       <use style="stroke:#000000;stroke-width:0.8;" x="53.047188" xlink:href="#m30a59c535e" y="56.201451"/>
      </g>
     </g>
     <g id="text_15">
      <!-- 1.10 -->
      <g transform="translate(23.781563 60.000669)scale(0.1 -0.1)">
       <use xlink:href="#DejaVuSans-49"/>
       <use x="63.623047" xlink:href="#DejaVuSans-46"/>
       <use x="95.410156" xlink:href="#DejaVuSans-49"/>
       <use x="159.033203" xlink:href="#DejaVuSans-48"/>
      </g>
     </g>
    </g>
    <g id="ytick_7">
     <g id="line2d_15">
      <g>
       <use style="stroke:#000000;stroke-width:0.8;" x="53.047188" xlink:href="#m30a59c535e" y="18.08522"/>
      </g>
     </g>
     <g id="text_16">
      <!-- 1.15 -->
      <g transform="translate(23.781563 21.884438)scale(0.1 -0.1)">
       <use xlink:href="#DejaVuSans-49"/>
       <use x="63.623047" xlink:href="#DejaVuSans-46"/>
       <use x="95.410156" xlink:href="#DejaVuSans-49"/>
       <use x="159.033203" xlink:href="#DejaVuSans-53"/>
      </g>
     </g>
    </g>
    <g id="text_17">
     <!-- Scaling factor ratio -->
     <defs>
      <path d="M 53.515625 70.515625 
L 53.515625 60.890625 
Q 47.90625 63.578125 42.921875 64.890625 
Q 37.9375 66.21875 33.296875 66.21875 
Q 25.25 66.21875 20.875 63.09375 
Q 16.5 59.96875 16.5 54.203125 
Q 16.5 49.359375 19.40625 46.890625 
Q 22.3125 44.4375 30.421875 42.921875 
L 36.375 41.703125 
Q 47.40625 39.59375 52.65625 34.296875 
Q 57.90625 29 57.90625 20.125 
Q 57.90625 9.515625 50.796875 4.046875 
Q 43.703125 -1.421875 29.984375 -1.421875 
Q 24.8125 -1.421875 18.96875 -0.25 
Q 13.140625 0.921875 6.890625 3.21875 
L 6.890625 13.375 
Q 12.890625 10.015625 18.65625 8.296875 
Q 24.421875 6.59375 29.984375 6.59375 
Q 38.421875 6.59375 43.015625 9.90625 
Q 47.609375 13.234375 47.609375 19.390625 
Q 47.609375 24.75 44.3125 27.78125 
Q 41.015625 30.8125 33.5 32.328125 
L 27.484375 33.5 
Q 16.453125 35.6875 11.515625 40.375 
Q 6.59375 45.0625 6.59375 53.421875 
Q 6.59375 63.09375 13.40625 68.65625 
Q 20.21875 74.21875 32.171875 74.21875 
Q 37.3125 74.21875 42.625 73.28125 
Q 47.953125 72.359375 53.515625 70.515625 
z
" id="DejaVuSans-83"/>
      <path d="M 48.78125 52.59375 
L 48.78125 44.1875 
Q 44.96875 46.296875 41.140625 47.34375 
Q 37.3125 48.390625 33.40625 48.390625 
Q 24.65625 48.390625 19.8125 42.84375 
Q 14.984375 37.3125 14.984375 27.296875 
Q 14.984375 17.28125 19.8125 11.734375 
Q 24.65625 6.203125 33.40625 6.203125 
Q 37.3125 6.203125 41.140625 7.25 
Q 44.96875 8.296875 48.78125 10.40625 
L 48.78125 2.09375 
Q 45.015625 0.34375 40.984375 -0.53125 
Q 36.96875 -1.421875 32.421875 -1.421875 
Q 20.0625 -1.421875 12.78125 6.34375 
Q 5.515625 14.109375 5.515625 27.296875 
Q 5.515625 40.671875 12.859375 48.328125 
Q 20.21875 56 33.015625 56 
Q 37.15625 56 41.109375 55.140625 
Q 45.0625 54.296875 48.78125 52.59375 
z
" id="DejaVuSans-99"/>
      <path d="M 9.421875 75.984375 
L 18.40625 75.984375 
L 18.40625 0 
L 9.421875 0 
z
" id="DejaVuSans-108"/>
      <path d="M 54.890625 33.015625 
L 54.890625 0 
L 45.90625 0 
L 45.90625 32.71875 
Q 45.90625 40.484375 42.875 44.328125 
Q 39.84375 48.1875 33.796875 48.1875 
Q 26.515625 48.1875 22.3125 43.546875 
Q 18.109375 38.921875 18.109375 30.90625 
L 18.109375 0 
L 9.078125 0 
L 9.078125 54.6875 
L 18.109375 54.6875 
L 18.109375 46.1875 
Q 21.34375 51.125 25.703125 53.5625 
Q 30.078125 56 35.796875 56 
Q 45.21875 56 50.046875 50.171875 
Q 54.890625 44.34375 54.890625 33.015625 
z
" id="DejaVuSans-110"/>
      <path d="M 45.40625 27.984375 
Q 45.40625 37.75 41.375 43.109375 
Q 37.359375 48.484375 30.078125 48.484375 
Q 22.859375 48.484375 18.828125 43.109375 
Q 14.796875 37.75 14.796875 27.984375 
Q 14.796875 18.265625 18.828125 12.890625 
Q 22.859375 7.515625 30.078125 7.515625 
Q 37.359375 7.515625 41.375 12.890625 
Q 45.40625 18.265625 45.40625 27.984375 
z
M 54.390625 6.78125 
Q 54.390625 -7.171875 48.1875 -13.984375 
Q 42 -20.796875 29.203125 -20.796875 
Q 24.46875 -20.796875 20.265625 -20.09375 
Q 16.0625 -19.390625 12.109375 -17.921875 
L 12.109375 -9.1875 
Q 16.0625 -11.328125 19.921875 -12.34375 
Q 23.78125 -13.375 27.78125 -13.375 
Q 36.625 -13.375 41.015625 -8.765625 
Q 45.40625 -4.15625 45.40625 5.171875 
L 45.40625 9.625 
Q 42.625 4.78125 38.28125 2.390625 
Q 33.9375 0 27.875 0 
Q 17.828125 0 11.671875 7.65625 
Q 5.515625 15.328125 5.515625 27.984375 
Q 5.515625 40.671875 11.671875 48.328125 
Q 17.828125 56 27.875 56 
Q 33.9375 56 38.28125 53.609375 
Q 42.625 51.21875 45.40625 46.390625 
L 45.40625 54.6875 
L 54.390625 54.6875 
z
" id="DejaVuSans-103"/>
      <path d="M 37.109375 75.984375 
L 37.109375 68.5 
L 28.515625 68.5 
Q 23.6875 68.5 21.796875 66.546875 
Q 19.921875 64.59375 19.921875 59.515625 
L 19.921875 54.6875 
L 34.71875 54.6875 
L 34.71875 47.703125 
L 19.921875 47.703125 
L 19.921875 0 
L 10.890625 0 
L 10.890625 47.703125 
L 2.296875 47.703125 
L 2.296875 54.6875 
L 10.890625 54.6875 
L 10.890625 58.5 
Q 10.890625 67.625 15.140625 71.796875 
Q 19.390625 75.984375 28.609375 75.984375 
z
" id="DejaVuSans-102"/>
      <path d="M 18.3125 70.21875 
L 18.3125 54.6875 
L 36.8125 54.6875 
L 36.8125 47.703125 
L 18.3125 47.703125 
L 18.3125 18.015625 
Q 18.3125 11.328125 20.140625 9.421875 
Q 21.96875 7.515625 27.59375 7.515625 
L 36.8125 7.515625 
L 36.8125 0 
L 27.59375 0 
Q 17.1875 0 13.234375 3.875 
Q 9.28125 7.765625 9.28125 18.015625 
L 9.28125 47.703125 
L 2.6875 47.703125 
L 2.6875 54.6875 
L 9.28125 54.6875 
L 9.28125 70.21875 
z
" id="DejaVuSans-116"/>
      <path d="M 30.609375 48.390625 
Q 23.390625 48.390625 19.1875 42.75 
Q 14.984375 37.109375 14.984375 27.296875 
Q 14.984375 17.484375 19.15625 11.84375 
Q 23.34375 6.203125 30.609375 6.203125 
Q 37.796875 6.203125 41.984375 11.859375 
Q 46.1875 17.53125 46.1875 27.296875 
Q 46.1875 37.015625 41.984375 42.703125 
Q 37.796875 48.390625 30.609375 48.390625 
z
M 30.609375 56 
Q 42.328125 56 49.015625 48.375 
Q 55.71875 40.765625 55.71875 27.296875 
Q 55.71875 13.875 49.015625 6.21875 
Q 42.328125 -1.421875 30.609375 -1.421875 
Q 18.84375 -1.421875 12.171875 6.21875 
Q 5.515625 13.875 5.515625 27.296875 
Q 5.515625 40.765625 12.171875 48.375 
Q 18.84375 56 30.609375 56 
z
" id="DejaVuSans-111"/>
      <path d="M 41.109375 46.296875 
Q 39.59375 47.171875 37.8125 47.578125 
Q 36.03125 48 33.890625 48 
Q 26.265625 48 22.1875 43.046875 
Q 18.109375 38.09375 18.109375 28.8125 
L 18.109375 0 
L 9.078125 0 
L 9.078125 54.6875 
L 18.109375 54.6875 
L 18.109375 46.1875 
Q 20.953125 51.171875 25.484375 53.578125 
Q 30.03125 56 36.53125 56 
Q 37.453125 56 38.578125 55.875 
Q 39.703125 55.765625 41.0625 55.515625 
z
" id="DejaVuSans-114"/>
     </defs>
     <g transform="translate(17.077969 204.802266)rotate(-90)scale(0.13 -0.13)">
      <use xlink:href="#DejaVuSans-83"/>
      <use x="63.476562" xlink:href="#DejaVuSans-99"/>
      <use x="118.457031" xlink:href="#DejaVuSans-97"/>
      <use x="179.736328" xlink:href="#DejaVuSans-108"/>
      <use x="207.519531" xlink:href="#DejaVuSans-105"/>
      <use x="235.302734" xlink:href="#DejaVuSans-110"/>
      <use x="298.681641" xlink:href="#DejaVuSans-103"/>
      <use x="362.158203" xlink:href="#DejaVuSans-32"/>
      <use x="393.945312" xlink:href="#DejaVuSans-102"/>
      <use x="429.150391" xlink:href="#DejaVuSans-97"/>
      <use x="490.429688" xlink:href="#DejaVuSans-99"/>
      <use x="545.410156" xlink:href="#DejaVuSans-116"/>
      <use x="584.619141" xlink:href="#DejaVuSans-111"/>
      <use x="645.800781" xlink:href="#DejaVuSans-114"/>
      <use x="686.914062" xlink:href="#DejaVuSans-32"/>
      <use x="718.701172" xlink:href="#DejaVuSans-114"/>
      <use x="759.814453" xlink:href="#DejaVuSans-97"/>
      <use x="821.09375" xlink:href="#DejaVuSans-116"/>
      <use x="860.302734" xlink:href="#DejaVuSans-105"/>
      <use x="888.085938" xlink:href="#DejaVuSans-111"/>
     </g>
    </g>
   </g>
   <g id="line2d_16">
    <path clip-path="url(#pa9f723350b)" d="M 53.047188 114.246832 
L 53.246473 154.941051 
L 53.445759 141.825957 
L 53.645045 170.557715 
L 53.84433 104.450964 
L 54.242902 126.715303 
L 54.442188 116.229789 
L 54.840759 144.346409 
L 55.040045 132.026072 
L 55.23933 104.812312 
L 55.438616 114.704822 
L 55.837188 75.444245 
L 56.235759 218.105009 
L 56.435045 125.932945 
L 56.63433 126.22689 
L 56.833616 97.439606 
L 57.032902 125.43804 
L 57.232188 84.088761 
L 57.431473 120.228559 
L 57.630759 135.327257 
L 58.02933 179.583626 
L 58.228616 139.181287 
L 58.427902 45.483171 
L 58.826473 127.106813 
L 59.025759 190.955779 
L 59.225045 183.47463 
L 59.42433 140.383543 
L 59.623616 129.443481 
L 59.822902 145.95565 
L 60.022188 136.431143 
L 60.221473 112.355606 
L 60.420759 108.685119 
L 60.620045 111.553071 
L 61.018616 132.277898 
L 61.217902 156.929649 
L 61.616473 178.529434 
L 62.015045 119.015432 
L 62.21433 154.319373 
L 62.413616 141.218141 
L 63.011473 128.047938 
L 63.210759 129.998145 
L 63.60933 152.222611 
L 63.808616 126.545145 
L 64.007902 129.101128 
L 64.207188 117.569504 
L 64.406473 115.300674 
L 64.805045 154.026396 
L 65.00433 148.283056 
L 65.203616 136.092967 
L 65.402902 135.391073 
L 65.602188 129.402304 
L 65.801473 131.407811 
L 66.000759 140.457568 
L 66.200045 107.920103 
L 66.39933 104.132611 
L 66.598616 110.12615 
L 67.196473 157.276948 
L 67.395759 161.596744 
L 67.595045 156.542021 
L 67.993616 126.283138 
L 68.192902 162.652539 
L 68.990045 134.878198 
L 69.18933 147.592908 
L 69.787188 132.957719 
L 69.986473 131.159317 
L 70.185759 120.468486 
L 70.58433 123.968637 
L 70.982902 136.539977 
L 71.182187 126.531987 
L 71.381473 128.880829 
L 71.780045 130.325683 
L 71.97933 132.856461 
L 72.178616 110.203189 
L 72.975759 130.88688 
L 73.175045 149.696975 
L 73.37433 149.37001 
L 73.573616 146.415895 
L 73.972188 133.282446 
L 74.171473 78.975302 
L 74.370759 75.263484 
L 74.570045 84.079011 
L 74.968616 135.052271 
L 75.167902 47.400232 
L 75.566473 105.749625 
L 75.965045 132.749402 
L 76.16433 118.678316 
L 76.363616 118.454961 
L 76.562902 119.710648 
L 76.961473 133.007705 
L 77.160759 132.071558 
L 77.360045 137.700389 
L 77.55933 139.01869 
L 77.758616 138.531171 
L 77.957902 134.029428 
L 78.157188 190.0523 
L 78.555759 162.972739 
L 79.153616 106.367149 
L 79.352902 114.140872 
L 79.751473 140.287464 
L 79.950759 143.459442 
L 80.150045 183.595367 
L 80.747902 142.895946 
L 80.947188 139.331002 
L 81.146473 144.059791 
L 81.345759 131.918407 
L 81.545045 130.719037 
L 81.943616 134.709648 
L 82.142902 206.848091 
L 82.541473 166.752166 
L 82.940045 130.582192 
L 83.13933 86.071655 
L 83.338616 90.872257 
L 83.737188 116.859497 
L 83.936473 133.976083 
L 84.135759 69.537827 
L 84.932902 126.312985 
L 85.132188 113.255326 
L 85.530759 142.993686 
L 85.730045 150.142684 
L 85.92933 135.30522 
L 86.128616 192.55082 
L 86.527188 153.959935 
L 86.925759 135.110036 
L 87.125045 139.116116 
L 87.32433 134.971205 
L 87.523616 134.04522 
L 87.922188 135.75187 
L 88.121473 123.523189 
L 88.320759 119.994265 
L 88.520045 119.641707 
L 88.71933 122.364115 
L 88.918616 129.648692 
L 89.117902 88.782635 
L 89.715759 124.227237 
L 89.915045 132.753245 
L 90.11433 159.829636 
L 90.313616 161.571563 
L 90.512902 159.290665 
L 90.911473 139.449456 
L 91.50933 98.763082 
L 91.708616 108.917901 
L 91.907902 137.661071 
L 92.107188 132.297643 
L 92.306473 140.529417 
L 92.505759 134.39119 
L 92.705045 133.042412 
L 92.90433 132.551107 
L 93.103616 128.181964 
L 93.302902 126.69002 
L 93.502188 126.047229 
L 93.701473 126.277331 
L 93.900759 128.713812 
L 94.100045 114.798293 
L 94.897188 131.67079 
L 95.096473 124.552431 
L 95.495045 128.521724 
L 95.69433 128.801008 
L 95.893616 129.993163 
L 96.092902 130.251372 
L 96.292188 130.752223 
L 96.690759 130.474387 
L 96.890045 131.120224 
L 97.08933 133.419126 
L 97.687188 132.754463 
L 97.886473 132.100779 
L 98.085759 137.836339 
L 98.882902 132.256083 
L 99.082188 134.093229 
L 99.480759 133.212848 
L 99.680045 133.246581 
L 99.87933 132.943045 
L 100.078616 126.026582 
L 100.676473 131.781204 
L 100.875759 134.351265 
L 101.075045 118.458187 
L 101.672902 127.901394 
L 101.872188 132.108502 
L 102.071473 128.467515 
L 102.66933 135.030483 
L 102.868616 135.878892 
L 103.067902 152.466427 
L 103.267188 145.202298 
L 103.665759 120.644314 
L 103.865045 123.228302 
L 104.263616 135.331743 
L 104.462902 134.766197 
L 104.861473 131.562469 
L 105.060759 146.227598 
L 105.658616 139.300713 
L 105.857902 138.203111 
L 106.057188 140.190254 
L 106.256473 139.47469 
L 106.455759 139.512325 
L 106.655045 139.243564 
L 106.85433 137.954523 
L 107.053616 78.496512 
L 107.252902 81.557387 
L 107.850759 129.208654 
L 108.050045 114.850629 
L 108.448616 131.175153 
L 108.647902 132.822656 
L 108.847188 132.466914 
L 109.046473 157.069763 
L 109.245759 154.618619 
L 109.64433 141.033242 
L 109.843616 131.25441 
L 110.042902 160.180672 
L 110.840045 132.246461 
L 111.03933 162.583075 
L 111.836473 135.75023 
L 112.035759 159.84717 
L 112.832902 131.592104 
L 113.032188 140.201012 
L 113.430759 134.31603 
L 113.630045 133.492777 
L 113.82933 133.268037 
L 114.028616 124.806899 
L 114.427188 128.199777 
L 114.825759 132.817371 
L 115.025045 128.110698 
L 115.423616 126.535754 
L 115.822188 119.996578 
L 116.021473 155.494858 
L 116.220759 152.319553 
L 116.61933 139.63733 
L 116.818616 131.076352 
L 117.017902 170.393179 
L 117.815045 132.03383 
L 118.01433 141.916685 
L 118.412902 134.850773 
L 118.811473 130.863443 
L 119.010759 116.125697 
L 119.40933 120.765818 
L 119.608616 125.701 
L 119.807902 133.822193 
L 120.007188 21.655302 
L 120.405759 65.774444 
L 120.80433 133.254742 
L 121.003616 79.76345 
L 121.402188 118.937863 
L 121.800759 131.149752 
L 122.000045 127.811753 
L 122.398616 129.526801 
L 122.597902 129.51477 
L 122.797188 129.88507 
L 122.996473 127.928397 
L 123.195759 128.406817 
L 123.59433 129.664815 
L 123.793616 129.833946 
L 123.992902 128.254249 
L 124.391473 129.34302 
L 124.590759 129.609298 
L 124.790045 130.168293 
L 124.98933 129.122295 
L 125.786473 131.373843 
L 125.985759 130.348251 
L 126.583616 131.283606 
L 126.782902 131.35148 
L 126.982188 131.181711 
L 127.181473 131.215921 
L 127.77933 130.768911 
L 127.978616 131.855245 
L 128.177902 131.788607 
L 128.775759 130.631564 
L 128.975045 131.724969 
L 129.772188 130.758604 
L 129.971473 132.111967 
L 130.56933 130.71621 
L 130.768616 130.221099 
L 130.967902 132.58909 
L 131.167188 131.976125 
L 131.366473 131.741312 
L 131.765045 130.664814 
L 131.96433 133.798363 
L 132.761473 130.73986 
L 132.960759 133.362843 
L 133.757902 130.387694 
L 133.957188 133.79887 
L 134.75433 130.452988 
L 134.953616 132.378479 
L 135.352188 131.156134 
L 135.750759 130.436178 
L 135.950045 131.479071 
L 136.348616 131.056218 
L 136.547902 130.925845 
L 136.747187 130.229552 
L 136.946473 133.149403 
L 137.345045 132.018368 
L 137.743616 129.973589 
L 137.942902 134.372611 
L 138.540759 131.156522 
L 138.740045 130.078039 
L 138.93933 135.790935 
L 139.736473 130.227368 
L 139.935759 136.675458 
L 140.732902 130.691118 
L 140.932187 137.56408 
L 141.72933 130.684174 
L 141.928616 138.106334 
L 142.725759 130.57647 
L 142.925045 138.095421 
L 143.722188 130.211757 
L 143.921473 138.63686 
L 144.718616 130.701284 
L 144.917902 139.13657 
L 145.715045 131.136987 
L 145.91433 139.546078 
L 146.711473 131.562173 
L 146.910759 139.616642 
L 147.707902 131.373021 
L 147.907188 139.801463 
L 148.70433 131.876118 
L 148.903616 138.956431 
L 149.700759 131.317831 
L 149.900045 138.957056 
L 150.697188 132.130044 
L 150.896473 138.776918 
L 151.693616 132.051865 
L 151.892902 138.337027 
L 152.690045 132.205958 
L 152.88933 137.840809 
L 153.686473 132.085559 
L 153.885759 136.97655 
L 154.682902 131.722766 
L 154.882188 136.359616 
L 155.67933 131.234599 
L 155.878616 135.739475 
L 156.675759 131.336006 
L 156.875045 135.64987 
L 157.672188 130.688743 
L 157.871473 134.235437 
L 158.668616 130.888448 
L 158.867902 128.612356 
L 159.067188 128.61116 
L 159.266473 129.399794 
L 159.665045 132.282975 
L 159.86433 125.072081 
L 160.661473 131.894891 
L 160.860759 126.272945 
L 161.458616 130.509995 
L 161.657902 131.30675 
L 161.857188 128.439075 
L 162.455045 131.373805 
L 162.65433 131.704047 
L 162.853616 132.771478 
L 163.052902 133.130773 
L 163.451473 132.822032 
L 163.650759 132.49402 
L 163.850045 136.991174 
L 164.647188 131.88094 
L 164.846473 138.306324 
L 165.643616 131.159892 
L 165.842902 136.547525 
L 166.440759 132.93166 
L 166.640045 132.259153 
L 166.83933 129.167944 
L 167.038616 128.993639 
L 167.437188 130.126914 
L 167.636473 132.309808 
L 167.835759 120.726339 
L 168.433616 128.942129 
L 168.632902 132.316879 
L 168.832188 110.468352 
L 169.62933 131.223915 
L 169.828616 102.218774 
L 170.625759 127.862395 
L 170.825045 97.374896 
L 171.622187 128.795865 
L 171.821473 122.444012 
L 172.220045 128.222538 
L 172.618616 130.772658 
L 172.817902 121.284195 
L 173.615045 131.407937 
L 173.81433 116.235643 
L 174.611473 130.673084 
L 174.810759 120.063916 
L 175.20933 124.938769 
L 175.607902 129.617059 
L 175.807187 123.462065 
L 176.205759 126.884731 
L 176.405045 128.291893 
L 176.60433 130.604533 
L 176.803616 123.096579 
L 177.600759 130.239631 
L 177.800045 125.252452 
L 177.99933 127.654979 
L 178.397902 129.339314 
L 178.597188 130.518834 
L 178.796473 123.96499 
L 178.995759 124.689558 
L 179.39433 128.38961 
L 179.593616 130.918916 
L 179.792902 124.083247 
L 179.992188 126.642625 
L 180.191473 127.553043 
L 180.590045 131.359584 
L 180.78933 126.48375 
L 181.187902 128.722081 
L 181.387188 129.26804 
L 181.586473 130.482197 
L 181.785759 128.595634 
L 182.18433 130.195222 
L 182.383616 130.831167 
L 182.582902 130.470528 
L 182.782188 134.277311 
L 182.981473 133.601072 
L 183.380045 130.530649 
L 183.57933 129.700544 
L 183.778616 146.548712 
L 183.977902 144.546576 
L 184.376473 136.693325 
L 184.575759 131.229239 
L 184.775045 162.543422 
L 185.572188 130.628545 
L 185.771473 175.243819 
L 186.170045 153.502654 
L 186.568616 128.939879 
L 186.767902 150.962098 
L 187.166473 139.697085 
L 187.565045 131.088369 
L 187.76433 142.327456 
L 188.162902 134.893272 
L 188.760759 125.758755 
L 188.960045 125.706779 
L 189.358616 127.19565 
L 189.557902 128.437616 
L 189.757188 119.70425 
L 190.155759 124.893342 
L 190.55433 130.5347 
L 190.753616 118.971273 
L 191.550759 133.42408 
L 191.750045 119.756 
L 192.547188 131.296531 
L 192.746473 119.669742 
L 193.543616 130.600475 
L 193.742902 122.133789 
L 194.340759 128.673026 
L 194.540045 130.197503 
L 194.73933 125.180988 
L 195.137902 128.426793 
L 195.536473 130.894241 
L 195.735759 128.159916 
L 195.935045 129.37146 
L 196.13433 129.332478 
L 196.333616 129.805773 
L 196.532902 129.922758 
L 196.732188 126.917903 
L 197.130759 128.445186 
L 197.52933 128.551776 
L 197.728616 127.782539 
L 197.927902 128.676368 
L 198.127187 128.995942 
L 198.326473 128.936643 
L 198.525759 129.534855 
L 198.725045 128.429992 
L 199.522188 130.376366 
L 199.721473 127.978493 
L 199.920759 128.431904 
L 200.120045 128.34513 
L 200.518616 130.106752 
L 200.717902 127.749252 
L 201.116473 129.949396 
L 201.315759 130.069748 
L 201.515045 130.358832 
L 201.71433 128.491815 
L 201.913616 128.798704 
L 202.312188 130.535793 
L 202.511473 131.018895 
L 202.710759 127.040258 
L 203.10933 128.882194 
L 203.507902 130.564836 
L 203.707188 126.285032 
L 204.305045 129.91608 
L 204.50433 130.023334 
L 204.703616 127.623645 
L 205.102188 128.341447 
L 205.301473 129.398382 
L 205.500759 129.705425 
L 205.700045 129.042993 
L 205.89933 130.141474 
L 206.098616 130.452906 
L 206.297902 131.755038 
L 206.497187 131.753397 
L 206.696473 130.856967 
L 206.895759 130.801232 
L 207.095045 131.587394 
L 207.29433 131.246745 
L 207.692902 132.188153 
L 207.892188 131.70152 
L 208.091473 131.764975 
L 208.290759 132.338985 
L 208.490045 132.026779 
L 208.888616 132.972708 
L 209.087902 132.976815 
L 209.287188 132.282074 
L 209.486473 132.983289 
L 209.685759 133.163738 
L 210.283616 132.587551 
L 210.482902 131.93909 
L 210.682188 132.061552 
L 211.080759 131.555766 
L 211.280045 131.528786 
L 211.47933 130.892854 
L 211.678616 132.473478 
L 212.077188 132.243928 
L 212.475759 130.429788 
L 212.675045 135.914126 
L 213.073616 135.2765 
L 213.472188 133.315428 
L 213.671473 136.960349 
L 214.468616 132.961092 
L 214.667902 137.36614 
L 215.066473 135.850573 
L 215.265759 134.301737 
L 215.465045 133.798561 
L 215.66433 137.62919 
L 216.461473 133.927447 
L 216.660759 136.550129 
L 217.457902 133.395393 
L 217.657188 136.106719 
L 218.255045 134.404392 
L 218.45433 134.37446 
L 218.653616 137.150386 
L 218.852902 137.075489 
L 219.052188 136.536427 
L 219.251473 136.391854 
L 219.650045 134.702115 
L 220.048616 133.864526 
L 220.247902 133.842047 
L 220.447188 134.225836 
L 220.646473 133.869239 
L 220.845759 134.263879 
L 221.24433 134.288158 
L 221.443616 134.058312 
L 221.642902 132.533134 
L 221.842188 132.456607 
L 222.041473 133.076086 
L 222.240759 133.059063 
L 222.440045 133.342125 
L 222.63933 130.41672 
L 223.237188 132.150888 
L 223.436473 132.99279 
L 223.635759 129.1945 
L 224.432902 133.127702 
L 224.632188 128.167728 
L 225.030759 130.352186 
L 225.42933 132.839751 
L 225.628616 128.26082 
L 226.425759 132.828224 
L 226.625045 127.376265 
L 227.222902 131.66871 
L 227.422188 132.740667 
L 227.621473 126.586055 
L 228.418616 132.898559 
L 228.617902 126.032059 
L 229.415045 131.9927 
L 229.61433 125.029165 
L 230.411473 131.112547 
L 230.610759 124.05744 
L 231.407902 130.290739 
L 231.607188 125.383657 
L 232.40433 131.359041 
L 232.603616 126.338385 
L 233.201473 130.984184 
L 233.400759 132.085641 
L 233.600045 127.307417 
L 234.397188 132.167341 
L 234.596473 128.100977 
L 235.393616 131.549211 
L 235.592902 128.115861 
L 235.991473 129.43407 
L 236.390045 131.21662 
L 236.58933 128.030401 
L 237.386473 130.749275 
L 237.585759 128.487206 
L 238.382902 130.486376 
L 238.582188 128.757661 
L 238.980759 129.655168 
L 239.37933 130.222291 
L 239.578616 129.058401 
L 239.977188 129.56206 
L 240.176473 129.541134 
L 240.375759 129.68312 
L 240.575045 129.464817 
L 240.77433 129.463355 
L 241.172902 129.860228 
L 241.372187 129.921452 
L 241.571473 129.81877 
L 241.970045 130.110828 
L 242.368616 130.288673 
L 242.567902 130.253624 
L 242.767188 130.348983 
L 243.165759 129.928816 
L 243.365045 129.86305 
L 243.56433 130.581667 
L 243.763616 130.306405 
L 243.962902 130.435548 
L 244.361473 130.050593 
L 244.560759 131.396098 
L 244.95933 131.500393 
L 245.357902 131.113181 
L 245.557188 132.517706 
L 246.35433 131.050818 
L 246.553616 133.052799 
L 247.151473 131.600805 
L 247.350759 131.185876 
L 247.550045 133.690616 
L 248.147902 131.49588 
L 248.347188 130.478754 
L 248.546473 133.996339 
L 249.343616 130.416347 
L 249.542902 135.571679 
L 250.140759 131.235233 
L 250.340045 129.543357 
L 250.53933 136.853186 
L 251.336473 129.930744 
L 251.535759 139.663603 
L 252.332902 129.470166 
L 252.532188 140.910186 
L 253.32933 129.297322 
L 253.528616 143.035731 
L 254.325759 129.700712 
L 254.525045 142.360041 
L 255.322188 127.555208 
L 255.521473 141.838102 
L 256.318616 128.886656 
L 256.517902 141.41754 
L 257.115759 131.938048 
L 257.315045 129.531055 
L 257.51433 141.748713 
L 258.311473 129.982204 
L 258.510759 140.55619 
L 259.307902 128.953403 
L 259.507187 139.281948 
L 260.30433 128.534776 
L 260.503616 139.4618 
L 260.702902 137.293803 
L 261.300759 128.503827 
L 261.500045 143.147298 
L 262.297188 128.90869 
L 262.496473 148.023025 
L 263.09433 133.163149 
L 263.293616 127.545865 
L 263.492902 160.087239 
L 264.290045 127.311203 
L 264.48933 168.737606 
L 265.286473 127.502299 
L 265.485759 154.682142 
L 265.88433 140.251127 
L 266.282902 130.624605 
L 266.482188 130.8089 
L 266.681473 130.498566 
L 266.880759 130.853357 
L 267.080045 131.862609 
L 267.27933 133.859958 
L 267.478616 110.974818 
L 268.076473 126.866467 
L 268.275759 133.61558 
L 268.475045 104.902178 
L 269.272187 136.422636 
L 269.471473 112.56135 
L 270.06933 129.793069 
L 270.268616 133.958847 
L 270.467902 123.441196 
L 270.866473 129.293628 
L 271.46433 133.864968 
L 271.862902 134.646767 
L 272.261473 132.995513 
L 272.460759 141.049731 
L 272.85933 136.9488 
L 273.257902 131.8228 
L 273.457188 137.859347 
L 274.055045 133.098723 
L 274.25433 132.240026 
L 274.453616 125.934926 
L 274.852188 127.958006 
L 275.250759 131.812177 
L 275.450045 115.77501 
L 276.247187 131.376336 
L 276.446473 116.680754 
L 277.243616 131.189721 
L 277.442902 122.423489 
L 278.240045 131.026216 
L 278.43933 125.220352 
L 279.236473 131.092318 
L 279.435759 127.439827 
L 279.635045 128.151054 
L 280.033616 128.897672 
L 280.232902 129.313073 
L 280.432188 129.258266 
L 280.631473 129.836367 
L 280.830759 130.015266 
L 281.22933 130.858041 
L 281.428616 133.017631 
L 281.627902 133.19672 
L 281.827188 133.0499 
L 282.225759 132.272004 
L 282.425045 134.793511 
L 283.222188 132.033553 
L 283.421473 134.528571 
L 284.218616 131.202467 
L 284.417902 135.345362 
L 285.215045 130.445844 
L 285.41433 135.236304 
L 286.211473 129.607836 
L 286.410759 135.365037 
L 287.207902 130.18333 
L 287.407188 133.654483 
L 288.20433 128.574141 
L 288.403616 132.538517 
L 288.802188 130.319559 
L 289.001473 129.934793 
L 289.200759 129.124823 
L 289.400045 130.718008 
L 290.197188 128.492839 
L 290.396473 130.24543 
L 290.595759 130.150386 
L 290.99433 129.080796 
L 291.193616 129.220813 
L 291.592188 129.809138 
L 291.791473 129.637956 
L 291.990759 129.219881 
L 292.38933 129.704549 
L 292.588616 129.754213 
L 293.186473 130.240339 
L 293.385759 130.672168 
L 293.585045 130.474895 
L 293.78433 130.919061 
L 294.182902 130.952299 
L 294.382187 129.823587 
L 294.581473 130.3353 
L 294.780759 130.198271 
L 295.17933 131.499239 
L 295.378616 129.983644 
L 295.777188 131.243035 
L 296.175759 132.270504 
L 296.375045 128.137227 
L 297.172188 132.149156 
L 297.371473 127.581814 
L 298.168616 133.140587 
L 298.367902 127.671507 
L 298.567188 128.741577 
L 298.965759 131.841772 
L 299.165045 133.116244 
L 299.36433 124.561257 
L 299.962188 129.164781 
L 300.161473 131.129526 
L 300.360759 122.62092 
L 301.157902 130.817092 
L 301.357188 119.287672 
L 301.556473 121.120571 
L 302.15433 130.595326 
L 302.353616 118.433645 
L 303.150759 131.005533 
L 303.350045 117.201405 
L 304.147187 131.749883 
L 304.346473 115.363105 
L 305.143616 130.906277 
L 305.342902 115.802555 
L 306.140045 130.829278 
L 306.33933 118.213857 
L 307.136473 132.039659 
L 307.335759 120.838664 
L 307.933616 129.978199 
L 308.132902 132.331899 
L 308.332188 122.94032 
L 309.12933 131.885653 
L 309.328616 121.606929 
L 309.926473 129.093676 
L 310.125759 131.131066 
L 310.325045 125.335647 
L 310.922902 130.554597 
L 311.122187 131.84191 
L 311.321473 127.922482 
L 311.720045 130.188202 
L 311.91933 131.129141 
L 312.118616 131.414627 
L 312.317902 130.192293 
L 312.517188 130.883856 
L 312.716473 130.801986 
L 312.915759 130.878428 
L 313.115045 131.097251 
L 313.31433 132.804778 
L 313.513616 132.66146 
L 314.111473 131.345493 
L 314.310759 135.084171 
L 314.70933 133.357533 
L 315.107902 131.302817 
L 315.307187 137.375072 
L 315.905045 132.83807 
L 316.10433 131.07553 
L 316.303616 140.019987 
L 317.100759 130.439887 
L 317.300045 139.791963 
L 318.097188 129.675492 
L 318.296473 139.92218 
L 319.093616 130.859144 
L 319.292902 141.063033 
L 320.090045 130.197688 
L 320.28933 140.794404 
L 320.687902 135.575783 
L 321.086473 131.018474 
L 321.285759 139.606354 
L 322.082902 131.261864 
L 322.282188 137.499863 
L 322.880045 132.057377 
L 323.07933 130.768322 
L 323.278616 134.101596 
L 323.677188 131.244781 
L 323.876473 130.696225 
L 324.075759 129.762425 
L 324.275045 132.061148 
L 324.47433 130.959336 
L 324.673616 130.943644 
L 325.072187 130.022749 
L 325.271473 132.156578 
L 325.470759 132.231358 
L 325.670045 132.023052 
L 325.86933 132.175936 
L 326.068616 131.925249 
L 326.267902 130.713455 
L 326.666473 130.560454 
L 327.065045 131.163016 
L 327.26433 129.486165 
L 327.662902 131.112183 
L 327.862188 131.266411 
L 328.061473 131.676731 
L 328.260759 129.780062 
L 328.460045 129.921665 
L 328.65933 130.570961 
L 328.858616 130.521996 
L 329.057902 131.179603 
L 329.257187 129.481513 
L 329.456473 129.722169 
L 329.655759 130.312692 
L 330.05433 130.471006 
L 330.253616 129.44229 
L 330.452902 130.055607 
L 330.652188 130.215647 
L 331.050759 131.241555 
L 331.250045 129.424059 
L 331.44933 130.415822 
L 331.847902 130.880183 
L 332.047188 131.159607 
L 332.047188 131.159607 
" style="fill:none;stroke:#6495ed;stroke-linecap:square;stroke-width:1.5;"/>
   </g>
   <g id="line2d_17">
    <path clip-path="url(#pa9f723350b)" d="M 53.047188 121.004788 
L 54.043616 153.600956 
L 55.040045 152.287816 
L 56.036473 125.735813 
L 57.032902 148.333242 
L 58.02933 132.683604 
L 59.025759 122.663749 
L 60.022188 129.041887 
L 62.015045 86.66934 
L 63.011473 141.442851 
L 64.007902 143.109093 
L 65.00433 131.74077 
L 66.000759 133.334971 
L 66.997188 102.81653 
L 67.993616 112.148593 
L 68.990045 159.755504 
L 69.986473 163.342725 
L 70.982902 153.433176 
L 71.97933 136.386248 
L 72.975759 109.75168 
L 73.972188 266.645455 
L 74.968616 229.430609 
L 75.965045 124.445646 
L 76.961473 106.219503 
L 77.957902 19.554545 
L 78.95433 93.244454 
L 79.950759 75.388657 
L 80.947188 129.656713 
L 81.943616 113.337631 
L 82.940045 194.155468 
L 83.936473 161.101109 
L 84.932902 83.531907 
L 85.92933 58.256169 
L 86.925759 144.640144 
L 87.922188 154.119806 
L 88.918616 144.885079 
L 89.915045 125.671271 
L 90.911473 148.139203 
L 91.907902 147.171551 
L 92.90433 111.647691 
L 93.900759 151.167319 
L 94.897188 133.773146 
L 95.893616 124.321302 
L 96.890045 122.960537 
L 97.886473 139.693604 
L 98.882902 146.538916 
L 99.87933 149.495127 
L 100.875759 141.79826 
L 101.872188 125.883214 
L 102.868616 118.217563 
L 103.865045 136.606847 
L 104.861473 129.747205 
L 105.857902 185.566275 
L 106.85433 187.900707 
L 107.850759 137.916745 
L 108.847188 108.020421 
L 109.843616 34.164829 
L 111.836473 112.702772 
L 112.832902 145.160013 
L 113.82933 65.300676 
L 114.825759 54.93456 
L 115.822188 49.565768 
L 116.818616 92.018036 
L 117.815045 189.934384 
L 118.811473 203.691542 
L 119.807902 190.029695 
L 120.80433 74.107399 
L 121.800759 138.447703 
L 122.797188 132.215114 
L 124.790045 127.706765 
L 125.786473 132.146365 
L 126.782902 131.034233 
L 127.77933 130.931058 
L 128.775759 132.122058 
L 129.772188 122.110207 
L 130.768616 123.778054 
L 131.765045 126.720237 
L 132.761473 130.566339 
L 133.757902 123.123782 
L 134.75433 127.241518 
L 135.750759 129.943424 
L 136.747187 131.00539 
L 137.743616 109.449899 
L 138.740045 114.946307 
L 139.736473 122.153002 
L 140.732902 130.225512 
L 141.72933 100.940042 
L 144.718616 130.887907 
L 145.715045 100.006232 
L 148.70433 131.532836 
L 149.700759 104.971742 
L 150.697188 114.852518 
L 152.690045 131.408981 
L 153.686473 112.009881 
L 157.672188 137.332511 
L 158.668616 141.925702 
L 159.665045 139.846918 
L 160.661473 131.200013 
L 162.65433 123.653527 
L 163.650759 124.513711 
L 164.647188 130.06389 
L 165.643616 153.269098 
L 166.640045 159.393997 
L 167.636473 157.222067 
L 168.632902 144.593485 
L 169.62933 205.709116 
L 170.625759 174.567885 
L 171.622187 139.945364 
L 172.618616 129.181968 
L 173.615045 159.501753 
L 174.611473 141.666741 
L 175.607902 128.12814 
L 176.60433 119.389681 
L 177.600759 145.648584 
L 178.597188 139.87039 
L 180.590045 123.027295 
L 181.586473 77.456085 
L 182.582902 74.284718 
L 183.57933 78.664631 
L 184.575759 97.716743 
L 185.572188 40.350354 
L 186.568616 99.751543 
L 187.565045 131.173513 
L 188.561473 147.032096 
L 189.557902 170.737819 
L 190.55433 161.261506 
L 192.547188 129.503482 
L 193.543616 154.618093 
L 194.540045 143.396487 
L 195.536473 136.953643 
L 196.532902 133.201963 
L 197.52933 136.716819 
L 199.522188 133.254746 
L 200.518616 130.343732 
L 201.515045 138.13791 
L 202.511473 136.119593 
L 204.50433 125.726334 
L 205.500759 128.394229 
L 207.493616 125.842068 
L 208.490045 126.436866 
L 209.486473 126.263155 
L 210.482902 126.496829 
L 211.47933 127.036571 
L 212.475759 129.066236 
L 213.472188 117.863022 
L 214.468616 122.18033 
L 216.461473 131.933582 
L 217.457902 125.094675 
L 218.45433 127.835185 
L 219.450759 131.127748 
L 220.447188 130.853058 
L 221.443616 137.918716 
L 222.440045 135.769267 
L 223.436473 131.990348 
L 224.432902 127.130263 
L 225.42933 148.701749 
L 226.425759 143.292996 
L 228.418616 129.193159 
L 229.415045 154.283666 
L 231.407902 137.427972 
L 232.40433 130.908157 
L 233.400759 146.131375 
L 234.397188 140.172618 
L 235.393616 134.917438 
L 236.390045 130.618796 
L 237.386473 136.683565 
L 238.382902 133.815354 
L 239.37933 131.579729 
L 240.375759 129.794288 
L 241.372187 130.379004 
L 242.368616 130.258634 
L 243.365045 130.476826 
L 244.361473 131.178799 
L 245.357902 124.109275 
L 246.35433 125.931813 
L 247.350759 128.425714 
L 248.347188 131.681462 
L 249.343616 102.6218 
L 250.340045 109.263262 
L 251.336473 118.034192 
L 252.332902 129.879191 
L 253.32933 75.801063 
L 256.318616 129.56209 
L 257.315045 87.290255 
L 258.311473 103.482202 
L 260.30433 130.826584 
L 261.300759 38.557651 
L 262.297188 58.224776 
L 263.293616 83.987878 
L 264.290045 125.006678 
L 265.286473 117.510991 
L 266.282902 154.898747 
L 267.27933 156.989997 
L 268.275759 131.49726 
L 269.272187 171.779526 
L 270.268616 143.315734 
L 271.265045 129.565621 
L 272.261473 130.069788 
L 273.257902 145.260414 
L 274.25433 153.558848 
L 275.250759 147.356786 
L 276.247187 128.682717 
L 277.243616 152.403757 
L 278.240045 141.06739 
L 279.236473 133.716915 
L 280.232902 128.804988 
L 281.22933 120.80488 
L 282.225759 122.659523 
L 284.218616 128.783467 
L 285.215045 108.264615 
L 287.207902 121.101775 
L 288.20433 125.67981 
L 289.200759 125.357171 
L 291.193616 129.647634 
L 292.190045 129.504175 
L 293.186473 134.080822 
L 294.182902 134.017851 
L 295.17933 132.751662 
L 296.175759 130.70281 
L 297.172188 150.746179 
L 298.168616 144.746994 
L 299.165045 137.505913 
L 300.161473 127.391292 
L 301.157902 174.944468 
L 302.15433 162.326483 
L 303.150759 148.241105 
L 304.147187 131.213564 
L 305.143616 180.063137 
L 307.136473 147.203598 
L 308.132902 132.887664 
L 309.12933 153.63269 
L 310.125759 141.534812 
L 311.122187 134.03476 
L 312.118616 129.295485 
L 313.115045 115.033058 
L 314.111473 116.925332 
L 315.107902 121.357612 
L 316.10433 128.706289 
L 317.100759 94.2298 
L 320.090045 132.533486 
L 321.086473 106.2596 
L 322.082902 117.327532 
L 323.07933 125.509706 
L 324.075759 130.19062 
L 326.068616 134.268344 
L 328.061473 130.862777 
L 328.061473 130.862777 
" style="fill:none;stroke:#000000;stroke-linecap:square;stroke-width:1.5;"/>
   </g>
   <g id="patch_3">
    <path d="M 53.047188 279 
L 53.047188 7.2 
" style="fill:none;stroke:#000000;stroke-linecap:square;stroke-linejoin:miter;stroke-width:0.8;"/>
   </g>
   <g id="patch_4">
    <path d="M 332.047188 279 
L 332.047188 7.2 
" style="fill:none;stroke:#000000;stroke-linecap:square;stroke-linejoin:miter;stroke-width:0.8;"/>
   </g>
   <g id="patch_5">
    <path d="M 53.047188 279 
L 332.047188 279 
" style="fill:none;stroke:#000000;stroke-linecap:square;stroke-linejoin:miter;stroke-width:0.8;"/>
   </g>
   <g id="patch_6">
    <path d="M 53.047188 7.2 
L 332.047188 7.2 
" style="fill:none;stroke:#000000;stroke-linecap:square;stroke-linejoin:miter;stroke-width:0.8;"/>
   </g>
   <g id="legend_1">
    <g id="patch_7">
     <path d="M 174.431562 274 
L 325.047188 274 
Q 327.047188 274 327.047188 272 
L 327.047188 243.64375 
Q 327.047188 241.64375 325.047188 241.64375 
L 174.431562 241.64375 
Q 172.431562 241.64375 172.431562 243.64375 
L 172.431562 272 
Q 172.431562 274 174.431562 274 
z
" style="fill:#ffffff;opacity:0.8;stroke:#cccccc;stroke-linejoin:miter;"/>
    </g>
    <g id="line2d_18">
     <path d="M 176.431562 249.742187 
L 196.431562 249.742187 
" style="fill:none;stroke:#6495ed;stroke-linecap:square;stroke-width:1.5;"/>
    </g>
    <g id="line2d_19"/>
    <g id="text_18">
     <!-- SF(250 kyr) : SF(50 kyr) -->
     <defs>
      <path d="M 9.8125 72.90625 
L 51.703125 72.90625 
L 51.703125 64.59375 
L 19.671875 64.59375 
L 19.671875 43.109375 
L 48.578125 43.109375 
L 48.578125 34.8125 
L 19.671875 34.8125 
L 19.671875 0 
L 9.8125 0 
z
" id="DejaVuSans-70"/>
      <path d="M 9.078125 75.984375 
L 18.109375 75.984375 
L 18.109375 31.109375 
L 44.921875 54.6875 
L 56.390625 54.6875 
L 27.390625 29.109375 
L 57.625 0 
L 45.90625 0 
L 18.109375 26.703125 
L 18.109375 0 
L 9.078125 0 
z
" id="DejaVuSans-107"/>
      <path d="M 32.171875 -5.078125 
Q 28.375 -14.84375 24.75 -17.8125 
Q 21.140625 -20.796875 15.09375 -20.796875 
L 7.90625 -20.796875 
L 7.90625 -13.28125 
L 13.1875 -13.28125 
Q 16.890625 -13.28125 18.9375 -11.515625 
Q 21 -9.765625 23.484375 -3.21875 
L 25.09375 0.875 
L 2.984375 54.6875 
L 12.5 54.6875 
L 29.59375 11.921875 
L 46.6875 54.6875 
L 56.203125 54.6875 
z
" id="DejaVuSans-121"/>
      <path d="M 11.71875 12.40625 
L 22.015625 12.40625 
L 22.015625 0 
L 11.71875 0 
z
M 11.71875 51.703125 
L 22.015625 51.703125 
L 22.015625 39.3125 
L 11.71875 39.3125 
z
" id="DejaVuSans-58"/>
     </defs>
     <g transform="translate(204.431562 253.242187)scale(0.1 -0.1)">
      <use xlink:href="#DejaVuSans-83"/>
      <use x="63.476562" xlink:href="#DejaVuSans-70"/>
      <use x="120.996094" xlink:href="#DejaVuSans-40"/>
      <use x="160.009766" xlink:href="#DejaVuSans-50"/>
      <use x="223.632812" xlink:href="#DejaVuSans-53"/>
      <use x="287.255859" xlink:href="#DejaVuSans-48"/>
      <use x="350.878906" xlink:href="#DejaVuSans-32"/>
      <use x="382.666016" xlink:href="#DejaVuSans-107"/>
      <use x="436.951172" xlink:href="#DejaVuSans-121"/>
      <use x="496.130859" xlink:href="#DejaVuSans-114"/>
      <use x="537.244141" xlink:href="#DejaVuSans-41"/>
      <use x="576.257812" xlink:href="#DejaVuSans-32"/>
      <use x="608.044922" xlink:href="#DejaVuSans-58"/>
      <use x="641.736328" xlink:href="#DejaVuSans-32"/>
      <use x="673.523438" xlink:href="#DejaVuSans-83"/>
      <use x="737" xlink:href="#DejaVuSans-70"/>
      <use x="794.519531" xlink:href="#DejaVuSans-40"/>
      <use x="833.533203" xlink:href="#DejaVuSans-53"/>
      <use x="897.15625" xlink:href="#DejaVuSans-48"/>
      <use x="960.779297" xlink:href="#DejaVuSans-32"/>
      <use x="992.566406" xlink:href="#DejaVuSans-107"/>
      <use x="1046.851562" xlink:href="#DejaVuSans-121"/>
      <use x="1106.03125" xlink:href="#DejaVuSans-114"/>
      <use x="1147.144531" xlink:href="#DejaVuSans-41"/>
     </g>
    </g>
    <g id="line2d_20">
     <path d="M 176.431562 264.420312 
L 196.431562 264.420312 
" style="fill:none;stroke:#000000;stroke-linecap:square;stroke-width:1.5;"/>
    </g>
    <g id="line2d_21"/>
    <g id="text_19">
     <!-- SF(250 kyr): SF(1 Myr) -->
     <g transform="translate(204.431562 267.920312)scale(0.1 -0.1)">
      <use xlink:href="#DejaVuSans-83"/>
      <use x="63.476562" xlink:href="#DejaVuSans-70"/>
      <use x="120.996094" xlink:href="#DejaVuSans-40"/>
      <use x="160.009766" xlink:href="#DejaVuSans-50"/>
      <use x="223.632812" xlink:href="#DejaVuSans-53"/>
      <use x="287.255859" xlink:href="#DejaVuSans-48"/>
      <use x="350.878906" xlink:href="#DejaVuSans-32"/>
      <use x="382.666016" xlink:href="#DejaVuSans-107"/>
      <use x="436.951172" xlink:href="#DejaVuSans-121"/>
      <use x="496.130859" xlink:href="#DejaVuSans-114"/>
      <use x="537.244141" xlink:href="#DejaVuSans-41"/>
      <use x="576.257812" xlink:href="#DejaVuSans-58"/>
      <use x="609.949219" xlink:href="#DejaVuSans-32"/>
      <use x="641.736328" xlink:href="#DejaVuSans-83"/>
      <use x="705.212891" xlink:href="#DejaVuSans-70"/>
      <use x="762.732422" xlink:href="#DejaVuSans-40"/>
      <use x="801.746094" xlink:href="#DejaVuSans-49"/>
      <use x="865.369141" xlink:href="#DejaVuSans-32"/>
      <use x="897.15625" xlink:href="#DejaVuSans-77"/>
      <use x="983.435547" xlink:href="#DejaVuSans-121"/>
      <use x="1042.615234" xlink:href="#DejaVuSans-114"/>
      <use x="1083.728516" xlink:href="#DejaVuSans-41"/>
     </g>
    </g>
   </g>
  </g>
 </g>
 <defs>
  <clipPath id="pa9f723350b">
   <rect height="271.8" width="279" x="53.047188" y="7.2"/>
  </clipPath>
 </defs>
</svg>
