<?xml version="1.0" encoding="utf-8" standalone="no"?>
<!DOCTYPE svg PUBLIC "-//W3C//DTD SVG 1.1//EN"
  "http://www.w3.org/Graphics/SVG/1.1/DTD/svg11.dtd">
<!-- Created with matplotlib (https://matplotlib.org/) -->
<svg height="268.898906pt" version="1.1" viewBox="0 0 624.609687 268.898906" width="624.609687pt" xmlns="http://www.w3.org/2000/svg" xmlns:xlink="http://www.w3.org/1999/xlink">
 <defs>
  <style type="text/css">
*{stroke-linecap:butt;stroke-linejoin:round;}
  </style>
 </defs>
 <g id="figure_1">
  <g id="patch_1">
   <path d="M 0 268.898906 
L 624.609687 268.898906 
L 624.609687 0 
L 0 0 
z
" style="fill:#ffffff;"/>
  </g>
  <g id="axes_1">
   <g id="patch_2">
    <path d="M 53.047188 228.439219 
L 306.683551 228.439219 
L 306.683551 10.999219 
L 53.047188 10.999219 
z
" style="fill:#ffffff;"/>
   </g>
   <g id="matplotlib.axis_1">
    <g id="xtick_1">
     <g id="line2d_1">
      <defs>
       <path d="M 0 0 
L 0 3.5 
" id="ma220d0751a" style="stroke:#000000;stroke-width:0.8;"/>
      </defs>
      <g>
       <use style="stroke:#000000;stroke-width:0.8;" x="53.047188" xlink:href="#ma220d0751a" y="228.439219"/>
      </g>
     </g>
     <g id="text_1">
      <!-- 0 -->
      <defs>
       <path d="M 31.78125 66.40625 
Q 24.171875 66.40625 20.328125 58.90625 
Q 16.5 51.421875 16.5 36.375 
Q 16.5 21.390625 20.328125 13.890625 
Q 24.171875 6.390625 31.78125 6.390625 
Q 39.453125 6.390625 43.28125 13.890625 
Q 47.125 21.390625 47.125 36.375 
Q 47.125 51.421875 43.28125 58.90625 
Q 39.453125 66.40625 31.78125 66.40625 
z
M 31.78125 74.21875 
Q 44.046875 74.21875 50.515625 64.515625 
Q 56.984375 54.828125 56.984375 36.375 
Q 56.984375 17.96875 50.515625 8.265625 
Q 44.046875 -1.421875 31.78125 -1.421875 
Q 19.53125 -1.421875 13.0625 8.265625 
Q 6.59375 17.96875 6.59375 36.375 
Q 6.59375 54.828125 13.0625 64.515625 
Q 19.53125 74.21875 31.78125 74.21875 
z
" id="DejaVuSans-48"/>
      </defs>
      <g transform="translate(49.865938 243.037656)scale(0.1 -0.1)">
       <use xlink:href="#DejaVuSans-48"/>
      </g>
     </g>
    </g>
    <g id="xtick_2">
     <g id="line2d_2">
      <g>
       <use style="stroke:#000000;stroke-width:0.8;" x="89.280954" xlink:href="#ma220d0751a" y="228.439219"/>
      </g>
     </g>
     <g id="text_2">
      <!-- 10 -->
      <defs>
       <path d="M 12.40625 8.296875 
L 28.515625 8.296875 
L 28.515625 63.921875 
L 10.984375 60.40625 
L 10.984375 69.390625 
L 28.421875 72.90625 
L 38.28125 72.90625 
L 38.28125 8.296875 
L 54.390625 8.296875 
L 54.390625 0 
L 12.40625 0 
z
" id="DejaVuSans-49"/>
      </defs>
      <g transform="translate(82.918454 243.037656)scale(0.1 -0.1)">
       <use xlink:href="#DejaVuSans-49"/>
       <use x="63.623047" xlink:href="#DejaVuSans-48"/>
      </g>
     </g>
    </g>
    <g id="xtick_3">
     <g id="line2d_3">
      <g>
       <use style="stroke:#000000;stroke-width:0.8;" x="125.51472" xlink:href="#ma220d0751a" y="228.439219"/>
      </g>
     </g>
     <g id="text_3">
      <!-- 20 -->
      <defs>
       <path d="M 19.1875 8.296875 
L 53.609375 8.296875 
L 53.609375 0 
L 7.328125 0 
L 7.328125 8.296875 
Q 12.9375 14.109375 22.625 23.890625 
Q 32.328125 33.6875 34.8125 36.53125 
Q 39.546875 41.84375 41.421875 45.53125 
Q 43.3125 49.21875 43.3125 52.78125 
Q 43.3125 58.59375 39.234375 62.25 
Q 35.15625 65.921875 28.609375 65.921875 
Q 23.96875 65.921875 18.8125 64.3125 
Q 13.671875 62.703125 7.8125 59.421875 
L 7.8125 69.390625 
Q 13.765625 71.78125 18.9375 73 
Q 24.125 74.21875 28.421875 74.21875 
Q 39.75 74.21875 46.484375 68.546875 
Q 53.21875 62.890625 53.21875 53.421875 
Q 53.21875 48.921875 51.53125 44.890625 
Q 49.859375 40.875 45.40625 35.40625 
Q 44.1875 33.984375 37.640625 27.21875 
Q 31.109375 20.453125 19.1875 8.296875 
z
" id="DejaVuSans-50"/>
      </defs>
      <g transform="translate(119.15222 243.037656)scale(0.1 -0.1)">
       <use xlink:href="#DejaVuSans-50"/>
       <use x="63.623047" xlink:href="#DejaVuSans-48"/>
      </g>
     </g>
    </g>
    <g id="xtick_4">
     <g id="line2d_4">
      <g>
       <use style="stroke:#000000;stroke-width:0.8;" x="161.748486" xlink:href="#ma220d0751a" y="228.439219"/>
      </g>
     </g>
     <g id="text_4">
      <!-- 30 -->
      <defs>
       <path d="M 40.578125 39.3125 
Q 47.65625 37.796875 51.625 33 
Q 55.609375 28.21875 55.609375 21.1875 
Q 55.609375 10.40625 48.1875 4.484375 
Q 40.765625 -1.421875 27.09375 -1.421875 
Q 22.515625 -1.421875 17.65625 -0.515625 
Q 12.796875 0.390625 7.625 2.203125 
L 7.625 11.71875 
Q 11.71875 9.328125 16.59375 8.109375 
Q 21.484375 6.890625 26.8125 6.890625 
Q 36.078125 6.890625 40.9375 10.546875 
Q 45.796875 14.203125 45.796875 21.1875 
Q 45.796875 27.640625 41.28125 31.265625 
Q 36.765625 34.90625 28.71875 34.90625 
L 20.21875 34.90625 
L 20.21875 43.015625 
L 29.109375 43.015625 
Q 36.375 43.015625 40.234375 45.921875 
Q 44.09375 48.828125 44.09375 54.296875 
Q 44.09375 59.90625 40.109375 62.90625 
Q 36.140625 65.921875 28.71875 65.921875 
Q 24.65625 65.921875 20.015625 65.03125 
Q 15.375 64.15625 9.8125 62.3125 
L 9.8125 71.09375 
Q 15.4375 72.65625 20.34375 73.4375 
Q 25.25 74.21875 29.59375 74.21875 
Q 40.828125 74.21875 47.359375 69.109375 
Q 53.90625 64.015625 53.90625 55.328125 
Q 53.90625 49.265625 50.4375 45.09375 
Q 46.96875 40.921875 40.578125 39.3125 
z
" id="DejaVuSans-51"/>
      </defs>
      <g transform="translate(155.385986 243.037656)scale(0.1 -0.1)">
       <use xlink:href="#DejaVuSans-51"/>
       <use x="63.623047" xlink:href="#DejaVuSans-48"/>
      </g>
     </g>
    </g>
    <g id="xtick_5">
     <g id="line2d_5">
      <g>
       <use style="stroke:#000000;stroke-width:0.8;" x="197.982252" xlink:href="#ma220d0751a" y="228.439219"/>
      </g>
     </g>
     <g id="text_5">
      <!-- 40 -->
      <defs>
       <path d="M 37.796875 64.3125 
L 12.890625 25.390625 
L 37.796875 25.390625 
z
M 35.203125 72.90625 
L 47.609375 72.90625 
L 47.609375 25.390625 
L 58.015625 25.390625 
L 58.015625 17.1875 
L 47.609375 17.1875 
L 47.609375 0 
L 37.796875 0 
L 37.796875 17.1875 
L 4.890625 17.1875 
L 4.890625 26.703125 
z
" id="DejaVuSans-52"/>
      </defs>
      <g transform="translate(191.619752 243.037656)scale(0.1 -0.1)">
       <use xlink:href="#DejaVuSans-52"/>
       <use x="63.623047" xlink:href="#DejaVuSans-48"/>
      </g>
     </g>
    </g>
    <g id="xtick_6">
     <g id="line2d_6">
      <g>
       <use style="stroke:#000000;stroke-width:0.8;" x="234.216019" xlink:href="#ma220d0751a" y="228.439219"/>
      </g>
     </g>
     <g id="text_6">
      <!-- 50 -->
      <defs>
       <path d="M 10.796875 72.90625 
L 49.515625 72.90625 
L 49.515625 64.59375 
L 19.828125 64.59375 
L 19.828125 46.734375 
Q 21.96875 47.46875 24.109375 47.828125 
Q 26.265625 48.1875 28.421875 48.1875 
Q 40.625 48.1875 47.75 41.5 
Q 54.890625 34.8125 54.890625 23.390625 
Q 54.890625 11.625 47.5625 5.09375 
Q 40.234375 -1.421875 26.90625 -1.421875 
Q 22.3125 -1.421875 17.546875 -0.640625 
Q 12.796875 0.140625 7.71875 1.703125 
L 7.71875 11.625 
Q 12.109375 9.234375 16.796875 8.0625 
Q 21.484375 6.890625 26.703125 6.890625 
Q 35.15625 6.890625 40.078125 11.328125 
Q 45.015625 15.765625 45.015625 23.390625 
Q 45.015625 31 40.078125 35.4375 
Q 35.15625 39.890625 26.703125 39.890625 
Q 22.75 39.890625 18.8125 39.015625 
Q 14.890625 38.140625 10.796875 36.28125 
z
" id="DejaVuSans-53"/>
      </defs>
      <g transform="translate(227.853519 243.037656)scale(0.1 -0.1)">
       <use xlink:href="#DejaVuSans-53"/>
       <use x="63.623047" xlink:href="#DejaVuSans-48"/>
      </g>
     </g>
    </g>
    <g id="xtick_7">
     <g id="line2d_7">
      <g>
       <use style="stroke:#000000;stroke-width:0.8;" x="270.449785" xlink:href="#ma220d0751a" y="228.439219"/>
      </g>
     </g>
     <g id="text_7">
      <!-- 60 -->
      <defs>
       <path d="M 33.015625 40.375 
Q 26.375 40.375 22.484375 35.828125 
Q 18.609375 31.296875 18.609375 23.390625 
Q 18.609375 15.53125 22.484375 10.953125 
Q 26.375 6.390625 33.015625 6.390625 
Q 39.65625 6.390625 43.53125 10.953125 
Q 47.40625 15.53125 47.40625 23.390625 
Q 47.40625 31.296875 43.53125 35.828125 
Q 39.65625 40.375 33.015625 40.375 
z
M 52.59375 71.296875 
L 52.59375 62.3125 
Q 48.875 64.0625 45.09375 64.984375 
Q 41.3125 65.921875 37.59375 65.921875 
Q 27.828125 65.921875 22.671875 59.328125 
Q 17.53125 52.734375 16.796875 39.40625 
Q 19.671875 43.65625 24.015625 45.921875 
Q 28.375 48.1875 33.59375 48.1875 
Q 44.578125 48.1875 50.953125 41.515625 
Q 57.328125 34.859375 57.328125 23.390625 
Q 57.328125 12.15625 50.6875 5.359375 
Q 44.046875 -1.421875 33.015625 -1.421875 
Q 20.359375 -1.421875 13.671875 8.265625 
Q 6.984375 17.96875 6.984375 36.375 
Q 6.984375 53.65625 15.1875 63.9375 
Q 23.390625 74.21875 37.203125 74.21875 
Q 40.921875 74.21875 44.703125 73.484375 
Q 48.484375 72.75 52.59375 71.296875 
z
" id="DejaVuSans-54"/>
      </defs>
      <g transform="translate(264.087285 243.037656)scale(0.1 -0.1)">
       <use xlink:href="#DejaVuSans-54"/>
       <use x="63.623047" xlink:href="#DejaVuSans-48"/>
      </g>
     </g>
    </g>
    <g id="xtick_8">
     <g id="line2d_8">
      <g>
       <use style="stroke:#000000;stroke-width:0.8;" x="306.683551" xlink:href="#ma220d0751a" y="228.439219"/>
      </g>
     </g>
     <g id="text_8">
      <!-- 70 -->
      <defs>
       <path d="M 8.203125 72.90625 
L 55.078125 72.90625 
L 55.078125 68.703125 
L 28.609375 0 
L 18.3125 0 
L 43.21875 64.59375 
L 8.203125 64.59375 
z
" id="DejaVuSans-55"/>
      </defs>
      <g transform="translate(300.321051 243.037656)scale(0.1 -0.1)">
       <use xlink:href="#DejaVuSans-55"/>
       <use x="63.623047" xlink:href="#DejaVuSans-48"/>
      </g>
     </g>
    </g>
    <g id="text_9">
     <!-- Time (Ma) -->
     <defs>
      <path d="M -0.296875 72.90625 
L 61.375 72.90625 
L 61.375 64.59375 
L 35.5 64.59375 
L 35.5 0 
L 25.59375 0 
L 25.59375 64.59375 
L -0.296875 64.59375 
z
" id="DejaVuSans-84"/>
      <path d="M 9.421875 54.6875 
L 18.40625 54.6875 
L 18.40625 0 
L 9.421875 0 
z
M 9.421875 75.984375 
L 18.40625 75.984375 
L 18.40625 64.59375 
L 9.421875 64.59375 
z
" id="DejaVuSans-105"/>
      <path d="M 52 44.1875 
Q 55.375 50.25 60.0625 53.125 
Q 64.75 56 71.09375 56 
Q 79.640625 56 84.28125 50.015625 
Q 88.921875 44.046875 88.921875 33.015625 
L 88.921875 0 
L 79.890625 0 
L 79.890625 32.71875 
Q 79.890625 40.578125 77.09375 44.375 
Q 74.3125 48.1875 68.609375 48.1875 
Q 61.625 48.1875 57.5625 43.546875 
Q 53.515625 38.921875 53.515625 30.90625 
L 53.515625 0 
L 44.484375 0 
L 44.484375 32.71875 
Q 44.484375 40.625 41.703125 44.40625 
Q 38.921875 48.1875 33.109375 48.1875 
Q 26.21875 48.1875 22.15625 43.53125 
Q 18.109375 38.875 18.109375 30.90625 
L 18.109375 0 
L 9.078125 0 
L 9.078125 54.6875 
L 18.109375 54.6875 
L 18.109375 46.1875 
Q 21.1875 51.21875 25.484375 53.609375 
Q 29.78125 56 35.6875 56 
Q 41.65625 56 45.828125 52.96875 
Q 50 49.953125 52 44.1875 
z
" id="DejaVuSans-109"/>
      <path d="M 56.203125 29.59375 
L 56.203125 25.203125 
L 14.890625 25.203125 
Q 15.484375 15.921875 20.484375 11.0625 
Q 25.484375 6.203125 34.421875 6.203125 
Q 39.59375 6.203125 44.453125 7.46875 
Q 49.3125 8.734375 54.109375 11.28125 
L 54.109375 2.78125 
Q 49.265625 0.734375 44.1875 -0.34375 
Q 39.109375 -1.421875 33.890625 -1.421875 
Q 20.796875 -1.421875 13.15625 6.1875 
Q 5.515625 13.8125 5.515625 26.8125 
Q 5.515625 40.234375 12.765625 48.109375 
Q 20.015625 56 32.328125 56 
Q 43.359375 56 49.78125 48.890625 
Q 56.203125 41.796875 56.203125 29.59375 
z
M 47.21875 32.234375 
Q 47.125 39.59375 43.09375 43.984375 
Q 39.0625 48.390625 32.421875 48.390625 
Q 24.90625 48.390625 20.390625 44.140625 
Q 15.875 39.890625 15.1875 32.171875 
z
" id="DejaVuSans-101"/>
      <path id="DejaVuSans-32"/>
      <path d="M 31 75.875 
Q 24.46875 64.65625 21.28125 53.65625 
Q 18.109375 42.671875 18.109375 31.390625 
Q 18.109375 20.125 21.3125 9.0625 
Q 24.515625 -2 31 -13.1875 
L 23.1875 -13.1875 
Q 15.875 -1.703125 12.234375 9.375 
Q 8.59375 20.453125 8.59375 31.390625 
Q 8.59375 42.28125 12.203125 53.3125 
Q 15.828125 64.359375 23.1875 75.875 
z
" id="DejaVuSans-40"/>
      <path d="M 9.8125 72.90625 
L 24.515625 72.90625 
L 43.109375 23.296875 
L 61.8125 72.90625 
L 76.515625 72.90625 
L 76.515625 0 
L 66.890625 0 
L 66.890625 64.015625 
L 48.09375 14.015625 
L 38.1875 14.015625 
L 19.390625 64.015625 
L 19.390625 0 
L 9.8125 0 
z
" id="DejaVuSans-77"/>
      <path d="M 34.28125 27.484375 
Q 23.390625 27.484375 19.1875 25 
Q 14.984375 22.515625 14.984375 16.5 
Q 14.984375 11.71875 18.140625 8.90625 
Q 21.296875 6.109375 26.703125 6.109375 
Q 34.1875 6.109375 38.703125 11.40625 
Q 43.21875 16.703125 43.21875 25.484375 
L 43.21875 27.484375 
z
M 52.203125 31.203125 
L 52.203125 0 
L 43.21875 0 
L 43.21875 8.296875 
Q 40.140625 3.328125 35.546875 0.953125 
Q 30.953125 -1.421875 24.3125 -1.421875 
Q 15.921875 -1.421875 10.953125 3.296875 
Q 6 8.015625 6 15.921875 
Q 6 25.140625 12.171875 29.828125 
Q 18.359375 34.515625 30.609375 34.515625 
L 43.21875 34.515625 
L 43.21875 35.40625 
Q 43.21875 41.609375 39.140625 45 
Q 35.0625 48.390625 27.6875 48.390625 
Q 23 48.390625 18.546875 47.265625 
Q 14.109375 46.140625 10.015625 43.890625 
L 10.015625 52.203125 
Q 14.9375 54.109375 19.578125 55.046875 
Q 24.21875 56 28.609375 56 
Q 40.484375 56 46.34375 49.84375 
Q 52.203125 43.703125 52.203125 31.203125 
z
" id="DejaVuSans-97"/>
      <path d="M 8.015625 75.875 
L 15.828125 75.875 
Q 23.140625 64.359375 26.78125 53.3125 
Q 30.421875 42.28125 30.421875 31.390625 
Q 30.421875 20.453125 26.78125 9.375 
Q 23.140625 -1.703125 15.828125 -13.1875 
L 8.015625 -13.1875 
Q 14.5 -2 17.703125 9.0625 
Q 20.90625 20.125 20.90625 31.390625 
Q 20.90625 42.671875 17.703125 53.65625 
Q 14.5 64.65625 8.015625 75.875 
z
" id="DejaVuSans-41"/>
     </defs>
     <g transform="translate(147.232322 258.995312)scale(0.13 -0.13)">
      <use xlink:href="#DejaVuSans-84"/>
      <use x="57.958984" xlink:href="#DejaVuSans-105"/>
      <use x="85.742188" xlink:href="#DejaVuSans-109"/>
      <use x="183.154297" xlink:href="#DejaVuSans-101"/>
      <use x="244.677734" xlink:href="#DejaVuSans-32"/>
      <use x="276.464844" xlink:href="#DejaVuSans-40"/>
      <use x="315.478516" xlink:href="#DejaVuSans-77"/>
      <use x="401.757812" xlink:href="#DejaVuSans-97"/>
      <use x="463.037109" xlink:href="#DejaVuSans-41"/>
     </g>
    </g>
   </g>
   <g id="matplotlib.axis_2">
    <g id="ytick_1">
     <g id="line2d_9">
      <defs>
       <path d="M 0 0 
L -3.5 0 
" id="m08a716add6" style="stroke:#000000;stroke-width:0.8;"/>
      </defs>
      <g>
       <use style="stroke:#000000;stroke-width:0.8;" x="53.047188" xlink:href="#m08a716add6" y="228.439219"/>
      </g>
     </g>
     <g id="text_10">
      <!-- 0.50 -->
      <defs>
       <path d="M 10.6875 12.40625 
L 21 12.40625 
L 21 0 
L 10.6875 0 
z
" id="DejaVuSans-46"/>
      </defs>
      <g transform="translate(23.781563 232.238437)scale(0.1 -0.1)">
       <use xlink:href="#DejaVuSans-48"/>
       <use x="63.623047" xlink:href="#DejaVuSans-46"/>
       <use x="95.410156" xlink:href="#DejaVuSans-53"/>
       <use x="159.033203" xlink:href="#DejaVuSans-48"/>
      </g>
     </g>
    </g>
    <g id="ytick_2">
     <g id="line2d_10">
      <g>
       <use style="stroke:#000000;stroke-width:0.8;" x="53.047188" xlink:href="#m08a716add6" y="204.279219"/>
      </g>
     </g>
     <g id="text_11">
      <!-- 0.55 -->
      <g transform="translate(23.781563 208.078437)scale(0.1 -0.1)">
       <use xlink:href="#DejaVuSans-48"/>
       <use x="63.623047" xlink:href="#DejaVuSans-46"/>
       <use x="95.410156" xlink:href="#DejaVuSans-53"/>
       <use x="159.033203" xlink:href="#DejaVuSans-53"/>
      </g>
     </g>
    </g>
    <g id="ytick_3">
     <g id="line2d_11">
      <g>
       <use style="stroke:#000000;stroke-width:0.8;" x="53.047188" xlink:href="#m08a716add6" y="180.119219"/>
      </g>
     </g>
     <g id="text_12">
      <!-- 0.60 -->
      <g transform="translate(23.781563 183.918437)scale(0.1 -0.1)">
       <use xlink:href="#DejaVuSans-48"/>
       <use x="63.623047" xlink:href="#DejaVuSans-46"/>
       <use x="95.410156" xlink:href="#DejaVuSans-54"/>
       <use x="159.033203" xlink:href="#DejaVuSans-48"/>
      </g>
     </g>
    </g>
    <g id="ytick_4">
     <g id="line2d_12">
      <g>
       <use style="stroke:#000000;stroke-width:0.8;" x="53.047188" xlink:href="#m08a716add6" y="155.959219"/>
      </g>
     </g>
     <g id="text_13">
      <!-- 0.65 -->
      <g transform="translate(23.781563 159.758437)scale(0.1 -0.1)">
       <use xlink:href="#DejaVuSans-48"/>
       <use x="63.623047" xlink:href="#DejaVuSans-46"/>
       <use x="95.410156" xlink:href="#DejaVuSans-54"/>
       <use x="159.033203" xlink:href="#DejaVuSans-53"/>
      </g>
     </g>
    </g>
    <g id="ytick_5">
     <g id="line2d_13">
      <g>
       <use style="stroke:#000000;stroke-width:0.8;" x="53.047188" xlink:href="#m08a716add6" y="131.799219"/>
      </g>
     </g>
     <g id="text_14">
      <!-- 0.70 -->
      <g transform="translate(23.781563 135.598437)scale(0.1 -0.1)">
       <use xlink:href="#DejaVuSans-48"/>
       <use x="63.623047" xlink:href="#DejaVuSans-46"/>
       <use x="95.410156" xlink:href="#DejaVuSans-55"/>
       <use x="159.033203" xlink:href="#DejaVuSans-48"/>
      </g>
     </g>
    </g>
    <g id="ytick_6">
     <g id="line2d_14">
      <g>
       <use style="stroke:#000000;stroke-width:0.8;" x="53.047188" xlink:href="#m08a716add6" y="107.639219"/>
      </g>
     </g>
     <g id="text_15">
      <!-- 0.75 -->
      <g transform="translate(23.781563 111.438437)scale(0.1 -0.1)">
       <use xlink:href="#DejaVuSans-48"/>
       <use x="63.623047" xlink:href="#DejaVuSans-46"/>
       <use x="95.410156" xlink:href="#DejaVuSans-55"/>
       <use x="159.033203" xlink:href="#DejaVuSans-53"/>
      </g>
     </g>
    </g>
    <g id="ytick_7">
     <g id="line2d_15">
      <g>
       <use style="stroke:#000000;stroke-width:0.8;" x="53.047188" xlink:href="#m08a716add6" y="83.479219"/>
      </g>
     </g>
     <g id="text_16">
      <!-- 0.80 -->
      <defs>
       <path d="M 31.78125 34.625 
Q 24.75 34.625 20.71875 30.859375 
Q 16.703125 27.09375 16.703125 20.515625 
Q 16.703125 13.921875 20.71875 10.15625 
Q 24.75 6.390625 31.78125 6.390625 
Q 38.8125 6.390625 42.859375 10.171875 
Q 46.921875 13.96875 46.921875 20.515625 
Q 46.921875 27.09375 42.890625 30.859375 
Q 38.875 34.625 31.78125 34.625 
z
M 21.921875 38.8125 
Q 15.578125 40.375 12.03125 44.71875 
Q 8.5 49.078125 8.5 55.328125 
Q 8.5 64.0625 14.71875 69.140625 
Q 20.953125 74.21875 31.78125 74.21875 
Q 42.671875 74.21875 48.875 69.140625 
Q 55.078125 64.0625 55.078125 55.328125 
Q 55.078125 49.078125 51.53125 44.71875 
Q 48 40.375 41.703125 38.8125 
Q 48.828125 37.15625 52.796875 32.3125 
Q 56.78125 27.484375 56.78125 20.515625 
Q 56.78125 9.90625 50.3125 4.234375 
Q 43.84375 -1.421875 31.78125 -1.421875 
Q 19.734375 -1.421875 13.25 4.234375 
Q 6.78125 9.90625 6.78125 20.515625 
Q 6.78125 27.484375 10.78125 32.3125 
Q 14.796875 37.15625 21.921875 38.8125 
z
M 18.3125 54.390625 
Q 18.3125 48.734375 21.84375 45.5625 
Q 25.390625 42.390625 31.78125 42.390625 
Q 38.140625 42.390625 41.71875 45.5625 
Q 45.3125 48.734375 45.3125 54.390625 
Q 45.3125 60.0625 41.71875 63.234375 
Q 38.140625 66.40625 31.78125 66.40625 
Q 25.390625 66.40625 21.84375 63.234375 
Q 18.3125 60.0625 18.3125 54.390625 
z
" id="DejaVuSans-56"/>
      </defs>
      <g transform="translate(23.781563 87.278437)scale(0.1 -0.1)">
       <use xlink:href="#DejaVuSans-48"/>
       <use x="63.623047" xlink:href="#DejaVuSans-46"/>
       <use x="95.410156" xlink:href="#DejaVuSans-56"/>
       <use x="159.033203" xlink:href="#DejaVuSans-48"/>
      </g>
     </g>
    </g>
    <g id="ytick_8">
     <g id="line2d_16">
      <g>
       <use style="stroke:#000000;stroke-width:0.8;" x="53.047188" xlink:href="#m08a716add6" y="59.319219"/>
      </g>
     </g>
     <g id="text_17">
      <!-- 0.85 -->
      <g transform="translate(23.781563 63.118437)scale(0.1 -0.1)">
       <use xlink:href="#DejaVuSans-48"/>
       <use x="63.623047" xlink:href="#DejaVuSans-46"/>
       <use x="95.410156" xlink:href="#DejaVuSans-56"/>
       <use x="159.033203" xlink:href="#DejaVuSans-53"/>
      </g>
     </g>
    </g>
    <g id="ytick_9">
     <g id="line2d_17">
      <g>
       <use style="stroke:#000000;stroke-width:0.8;" x="53.047188" xlink:href="#m08a716add6" y="35.159219"/>
      </g>
     </g>
     <g id="text_18">
      <!-- 0.90 -->
      <defs>
       <path d="M 10.984375 1.515625 
L 10.984375 10.5 
Q 14.703125 8.734375 18.5 7.8125 
Q 22.3125 6.890625 25.984375 6.890625 
Q 35.75 6.890625 40.890625 13.453125 
Q 46.046875 20.015625 46.78125 33.40625 
Q 43.953125 29.203125 39.59375 26.953125 
Q 35.25 24.703125 29.984375 24.703125 
Q 19.046875 24.703125 12.671875 31.3125 
Q 6.296875 37.9375 6.296875 49.421875 
Q 6.296875 60.640625 12.9375 67.421875 
Q 19.578125 74.21875 30.609375 74.21875 
Q 43.265625 74.21875 49.921875 64.515625 
Q 56.59375 54.828125 56.59375 36.375 
Q 56.59375 19.140625 48.40625 8.859375 
Q 40.234375 -1.421875 26.421875 -1.421875 
Q 22.703125 -1.421875 18.890625 -0.6875 
Q 15.09375 0.046875 10.984375 1.515625 
z
M 30.609375 32.421875 
Q 37.25 32.421875 41.125 36.953125 
Q 45.015625 41.5 45.015625 49.421875 
Q 45.015625 57.28125 41.125 61.84375 
Q 37.25 66.40625 30.609375 66.40625 
Q 23.96875 66.40625 20.09375 61.84375 
Q 16.21875 57.28125 16.21875 49.421875 
Q 16.21875 41.5 20.09375 36.953125 
Q 23.96875 32.421875 30.609375 32.421875 
z
" id="DejaVuSans-57"/>
      </defs>
      <g transform="translate(23.781563 38.958437)scale(0.1 -0.1)">
       <use xlink:href="#DejaVuSans-48"/>
       <use x="63.623047" xlink:href="#DejaVuSans-46"/>
       <use x="95.410156" xlink:href="#DejaVuSans-57"/>
       <use x="159.033203" xlink:href="#DejaVuSans-48"/>
      </g>
     </g>
    </g>
    <g id="ytick_10">
     <g id="line2d_18">
      <g>
       <use style="stroke:#000000;stroke-width:0.8;" x="53.047188" xlink:href="#m08a716add6" y="10.999219"/>
      </g>
     </g>
     <g id="text_19">
      <!-- 0.95 -->
      <g transform="translate(23.781563 14.798437)scale(0.1 -0.1)">
       <use xlink:href="#DejaVuSans-48"/>
       <use x="63.623047" xlink:href="#DejaVuSans-46"/>
       <use x="95.410156" xlink:href="#DejaVuSans-57"/>
       <use x="159.033203" xlink:href="#DejaVuSans-53"/>
      </g>
     </g>
    </g>
    <g id="text_20">
     <!-- Scaling Factor -->
     <defs>
      <path d="M 53.515625 70.515625 
L 53.515625 60.890625 
Q 47.90625 63.578125 42.921875 64.890625 
Q 37.9375 66.21875 33.296875 66.21875 
Q 25.25 66.21875 20.875 63.09375 
Q 16.5 59.96875 16.5 54.203125 
Q 16.5 49.359375 19.40625 46.890625 
Q 22.3125 44.4375 30.421875 42.921875 
L 36.375 41.703125 
Q 47.40625 39.59375 52.65625 34.296875 
Q 57.90625 29 57.90625 20.125 
Q 57.90625 9.515625 50.796875 4.046875 
Q 43.703125 -1.421875 29.984375 -1.421875 
Q 24.8125 -1.421875 18.96875 -0.25 
Q 13.140625 0.921875 6.890625 3.21875 
L 6.890625 13.375 
Q 12.890625 10.015625 18.65625 8.296875 
Q 24.421875 6.59375 29.984375 6.59375 
Q 38.421875 6.59375 43.015625 9.90625 
Q 47.609375 13.234375 47.609375 19.390625 
Q 47.609375 24.75 44.3125 27.78125 
Q 41.015625 30.8125 33.5 32.328125 
L 27.484375 33.5 
Q 16.453125 35.6875 11.515625 40.375 
Q 6.59375 45.0625 6.59375 53.421875 
Q 6.59375 63.09375 13.40625 68.65625 
Q 20.21875 74.21875 32.171875 74.21875 
Q 37.3125 74.21875 42.625 73.28125 
Q 47.953125 72.359375 53.515625 70.515625 
z
" id="DejaVuSans-83"/>
      <path d="M 48.78125 52.59375 
L 48.78125 44.1875 
Q 44.96875 46.296875 41.140625 47.34375 
Q 37.3125 48.390625 33.40625 48.390625 
Q 24.65625 48.390625 19.8125 42.84375 
Q 14.984375 37.3125 14.984375 27.296875 
Q 14.984375 17.28125 19.8125 11.734375 
Q 24.65625 6.203125 33.40625 6.203125 
Q 37.3125 6.203125 41.140625 7.25 
Q 44.96875 8.296875 48.78125 10.40625 
L 48.78125 2.09375 
Q 45.015625 0.34375 40.984375 -0.53125 
Q 36.96875 -1.421875 32.421875 -1.421875 
Q 20.0625 -1.421875 12.78125 6.34375 
Q 5.515625 14.109375 5.515625 27.296875 
Q 5.515625 40.671875 12.859375 48.328125 
Q 20.21875 56 33.015625 56 
Q 37.15625 56 41.109375 55.140625 
Q 45.0625 54.296875 48.78125 52.59375 
z
" id="DejaVuSans-99"/>
      <path d="M 9.421875 75.984375 
L 18.40625 75.984375 
L 18.40625 0 
L 9.421875 0 
z
" id="DejaVuSans-108"/>
      <path d="M 54.890625 33.015625 
L 54.890625 0 
L 45.90625 0 
L 45.90625 32.71875 
Q 45.90625 40.484375 42.875 44.328125 
Q 39.84375 48.1875 33.796875 48.1875 
Q 26.515625 48.1875 22.3125 43.546875 
Q 18.109375 38.921875 18.109375 30.90625 
L 18.109375 0 
L 9.078125 0 
L 9.078125 54.6875 
L 18.109375 54.6875 
L 18.109375 46.1875 
Q 21.34375 51.125 25.703125 53.5625 
Q 30.078125 56 35.796875 56 
Q 45.21875 56 50.046875 50.171875 
Q 54.890625 44.34375 54.890625 33.015625 
z
" id="DejaVuSans-110"/>
      <path d="M 45.40625 27.984375 
Q 45.40625 37.75 41.375 43.109375 
Q 37.359375 48.484375 30.078125 48.484375 
Q 22.859375 48.484375 18.828125 43.109375 
Q 14.796875 37.75 14.796875 27.984375 
Q 14.796875 18.265625 18.828125 12.890625 
Q 22.859375 7.515625 30.078125 7.515625 
Q 37.359375 7.515625 41.375 12.890625 
Q 45.40625 18.265625 45.40625 27.984375 
z
M 54.390625 6.78125 
Q 54.390625 -7.171875 48.1875 -13.984375 
Q 42 -20.796875 29.203125 -20.796875 
Q 24.46875 -20.796875 20.265625 -20.09375 
Q 16.0625 -19.390625 12.109375 -17.921875 
L 12.109375 -9.1875 
Q 16.0625 -11.328125 19.921875 -12.34375 
Q 23.78125 -13.375 27.78125 -13.375 
Q 36.625 -13.375 41.015625 -8.765625 
Q 45.40625 -4.15625 45.40625 5.171875 
L 45.40625 9.625 
Q 42.625 4.78125 38.28125 2.390625 
Q 33.9375 0 27.875 0 
Q 17.828125 0 11.671875 7.65625 
Q 5.515625 15.328125 5.515625 27.984375 
Q 5.515625 40.671875 11.671875 48.328125 
Q 17.828125 56 27.875 56 
Q 33.9375 56 38.28125 53.609375 
Q 42.625 51.21875 45.40625 46.390625 
L 45.40625 54.6875 
L 54.390625 54.6875 
z
" id="DejaVuSans-103"/>
      <path d="M 9.8125 72.90625 
L 51.703125 72.90625 
L 51.703125 64.59375 
L 19.671875 64.59375 
L 19.671875 43.109375 
L 48.578125 43.109375 
L 48.578125 34.8125 
L 19.671875 34.8125 
L 19.671875 0 
L 9.8125 0 
z
" id="DejaVuSans-70"/>
      <path d="M 18.3125 70.21875 
L 18.3125 54.6875 
L 36.8125 54.6875 
L 36.8125 47.703125 
L 18.3125 47.703125 
L 18.3125 18.015625 
Q 18.3125 11.328125 20.140625 9.421875 
Q 21.96875 7.515625 27.59375 7.515625 
L 36.8125 7.515625 
L 36.8125 0 
L 27.59375 0 
Q 17.1875 0 13.234375 3.875 
Q 9.28125 7.765625 9.28125 18.015625 
L 9.28125 47.703125 
L 2.6875 47.703125 
L 2.6875 54.6875 
L 9.28125 54.6875 
L 9.28125 70.21875 
z
" id="DejaVuSans-116"/>
      <path d="M 30.609375 48.390625 
Q 23.390625 48.390625 19.1875 42.75 
Q 14.984375 37.109375 14.984375 27.296875 
Q 14.984375 17.484375 19.15625 11.84375 
Q 23.34375 6.203125 30.609375 6.203125 
Q 37.796875 6.203125 41.984375 11.859375 
Q 46.1875 17.53125 46.1875 27.296875 
Q 46.1875 37.015625 41.984375 42.703125 
Q 37.796875 48.390625 30.609375 48.390625 
z
M 30.609375 56 
Q 42.328125 56 49.015625 48.375 
Q 55.71875 40.765625 55.71875 27.296875 
Q 55.71875 13.875 49.015625 6.21875 
Q 42.328125 -1.421875 30.609375 -1.421875 
Q 18.84375 -1.421875 12.171875 6.21875 
Q 5.515625 13.875 5.515625 27.296875 
Q 5.515625 40.765625 12.171875 48.375 
Q 18.84375 56 30.609375 56 
z
" id="DejaVuSans-111"/>
      <path d="M 41.109375 46.296875 
Q 39.59375 47.171875 37.8125 47.578125 
Q 36.03125 48 33.890625 48 
Q 26.265625 48 22.1875 43.046875 
Q 18.109375 38.09375 18.109375 28.8125 
L 18.109375 0 
L 9.078125 0 
L 9.078125 54.6875 
L 18.109375 54.6875 
L 18.109375 46.1875 
Q 20.953125 51.171875 25.484375 53.578125 
Q 30.03125 56 36.53125 56 
Q 37.453125 56 38.578125 55.875 
Q 39.703125 55.765625 41.0625 55.515625 
z
" id="DejaVuSans-114"/>
     </defs>
     <g transform="translate(17.077969 165.226328)rotate(-90)scale(0.13 -0.13)">
      <use xlink:href="#DejaVuSans-83"/>
      <use x="63.476562" xlink:href="#DejaVuSans-99"/>
      <use x="118.457031" xlink:href="#DejaVuSans-97"/>
      <use x="179.736328" xlink:href="#DejaVuSans-108"/>
      <use x="207.519531" xlink:href="#DejaVuSans-105"/>
      <use x="235.302734" xlink:href="#DejaVuSans-110"/>
      <use x="298.681641" xlink:href="#DejaVuSans-103"/>
      <use x="362.158203" xlink:href="#DejaVuSans-32"/>
      <use x="393.945312" xlink:href="#DejaVuSans-70"/>
      <use x="442.339844" xlink:href="#DejaVuSans-97"/>
      <use x="503.619141" xlink:href="#DejaVuSans-99"/>
      <use x="558.599609" xlink:href="#DejaVuSans-116"/>
      <use x="597.808594" xlink:href="#DejaVuSans-111"/>
      <use x="658.990234" xlink:href="#DejaVuSans-114"/>
     </g>
    </g>
   </g>
   <g id="LineCollection_1">
    <path clip-path="url(#p9a794548b9)" d="M 292.37846 228.439219 
L 292.37846 10.999219 
" style="fill:none;stroke:#000000;stroke-width:2.5;"/>
   </g>
   <g id="line2d_19">
    <path clip-path="url(#p9a794548b9)" d="M 53.047188 141.295891 
L 53.953032 148.161306 
L 54.858876 147.591022 
L 55.76472 136.059731 
L 56.670564 145.873587 
L 57.576408 118.731372 
L 58.482252 114.112333 
L 59.388097 117.052582 
L 60.293941 106.788724 
L 61.199785 116.325148 
L 62.105629 140.300424 
L 63.011473 141.029766 
L 63.917317 136.053662 
L 64.823162 139.190474 
L 65.729006 125.929802 
L 66.63485 129.984709 
L 67.540694 150.67055 
L 68.446538 159.196069 
L 69.352382 154.984627 
L 70.258226 147.739882 
L 71.164071 136.420503 
L 72.069915 144.279389 
L 72.975759 124.978563 
L 73.881603 70.529953 
L 74.787447 61.077283 
L 75.693291 56.294301 
L 76.599136 91.130551 
L 77.50498 82.689381 
L 78.410824 108.344123 
L 79.316668 113.084874 
L 80.222512 150.002594 
L 81.128356 134.903309 
L 82.0342 99.46957 
L 82.940045 86.620328 
L 83.845889 126.215253 
L 84.751733 130.560347 
L 85.657577 126.327521 
L 86.563421 103.915225 
L 87.469265 114.611084 
L 88.37511 114.150434 
L 89.280954 97.2393 
L 90.186798 96.26661 
L 91.092642 87.523277 
L 91.998486 82.772225 
L 92.90433 82.088225 
L 93.810175 84.113927 
L 94.716019 87.612671 
L 95.621863 89.123636 
L 96.527707 85.189649 
L 97.433551 76.80832 
L 98.339395 72.887826 
L 99.245239 82.292777 
L 100.151084 78.784506 
L 101.056928 88.320697 
L 101.962772 89.57719 
L 102.868616 62.67362 
L 103.77446 46.582101 
L 104.680304 61.164936 
L 106.491993 98.47888 
L 107.397837 113.89955 
L 108.303681 121.237733 
L 109.209525 116.878601 
L 110.115369 114.62093 
L 111.021213 132.472848 
L 111.927058 154.896454 
L 112.832902 161.04759 
L 113.738746 154.93907 
L 114.64459 103.107598 
L 115.550434 62.372479 
L 116.456278 59.012987 
L 118.267967 56.582897 
L 119.173811 56.184516 
L 120.079655 55.580983 
L 120.985499 55.524993 
L 121.891343 56.171325 
L 122.797188 57.506118 
L 123.703032 58.396616 
L 124.608876 59.967509 
L 126.420564 64.330735 
L 127.326408 66.495749 
L 128.232252 67.916351 
L 129.138097 68.47471 
L 130.043941 70.927512 
L 130.949785 73.720912 
L 132.761473 81.486151 
L 134.573162 91.380316 
L 136.38485 101.16231 
L 137.290694 107.442841 
L 140.914071 127.281209 
L 141.819915 131.569348 
L 144.537447 142.9055 
L 147.25498 150.654244 
L 148.160824 155.85846 
L 149.066668 157.763719 
L 149.972512 156.901438 
L 150.878356 153.314696 
L 151.7842 153.026463 
L 152.690045 151.522519 
L 153.595889 151.877831 
L 154.501733 154.170417 
L 155.407577 159.735313 
L 156.313421 162.298505 
L 157.219265 161.38958 
L 158.12511 156.104679 
L 159.030954 147.503351 
L 160.842642 116.720118 
L 161.748486 111.6819 
L 162.65433 107.47989 
L 163.560175 98.685344 
L 164.466019 92.009382 
L 166.277707 82.969667 
L 167.183551 79.984039 
L 168.995239 71.281112 
L 169.901084 68.12588 
L 170.806928 66.566342 
L 171.712772 68.72019 
L 172.618616 78.089179 
L 173.52446 97.775414 
L 174.430304 123.656384 
L 175.336149 137.346869 
L 176.241993 144.25642 
L 177.147837 143.791519 
L 178.053681 139.521441 
L 180.771213 118.642786 
L 181.677058 113.315105 
L 182.582902 110.256236 
L 184.39459 106.864981 
L 186.206278 105.206318 
L 188.017967 102.47763 
L 188.923811 101.497144 
L 190.735499 96.448164 
L 191.641343 95.160691 
L 193.453032 93.912263 
L 195.26472 94.493259 
L 196.170564 94.60745 
L 197.076408 94.871209 
L 197.982252 95.86306 
L 198.888097 99.28445 
L 199.793941 101.344782 
L 201.605629 105.999288 
L 202.511473 108.209974 
L 203.417317 109.498324 
L 204.323162 111.046202 
L 205.229006 110.917066 
L 206.13485 111.249393 
L 207.040694 110.230418 
L 207.946538 108.438972 
L 209.758226 103.70927 
L 210.664071 101.053456 
L 213.381603 90.604774 
L 215.193291 81.967572 
L 217.00498 75.584048 
L 218.816668 69.675371 
L 219.722512 67.410396 
L 221.5342 64.14594 
L 222.440045 62.953439 
L 223.345889 62.001071 
L 224.251733 62.074113 
L 225.157577 62.009869 
L 226.063421 62.126323 
L 226.969265 62.500981 
L 228.780954 64.512866 
L 229.686798 65.828302 
L 230.592642 67.545584 
L 231.498486 70.218653 
L 232.40433 73.570843 
L 233.310175 77.997854 
L 234.216019 83.976461 
L 236.027707 99.835169 
L 238.745239 123.794445 
L 239.651084 130.737599 
L 242.368616 148.033396 
L 243.27446 155.429941 
L 244.180304 165.119103 
L 245.086149 180.545731 
L 245.991993 199.125625 
L 246.897837 212.157318 
L 247.803681 212.886234 
L 248.709525 204.00061 
L 249.615369 190.683114 
L 250.521213 179.684822 
L 251.427058 174.371835 
L 252.332902 174.566643 
L 253.238746 177.091865 
L 254.14459 180.335375 
L 255.050434 177.911249 
L 255.956278 170.61234 
L 256.862123 161.624765 
L 257.767967 156.915023 
L 258.673811 153.861237 
L 260.485499 149.917586 
L 261.391343 150.6847 
L 263.203032 153.217678 
L 264.108876 153.454265 
L 265.920564 158.621568 
L 266.826408 160.46435 
L 267.732252 160.024352 
L 269.543941 161.753108 
L 270.449785 161.695304 
L 271.355629 158.726211 
L 272.261473 158.70044 
L 273.167317 158.182243 
L 274.073162 157.343735 
L 274.979006 151.122586 
L 275.88485 148.55107 
L 276.790694 145.447222 
L 277.696538 141.111648 
L 278.602382 130.731606 
L 280.414071 118.144113 
L 281.319915 110.117632 
L 282.225759 93.012159 
L 284.037447 75.677592 
L 286.75498 53.271062 
L 287.660824 49.121188 
L 289.472512 43.715769 
L 290.378356 44.75039 
L 291.2842 47.173788 
L 293.095889 55.053151 
L 295.813421 74.909398 
L 296.719265 78.739748 
L 297.62511 84.232306 
L 298.530954 88.292781 
L 299.436798 90.615725 
L 300.342642 89.900725 
L 301.248486 90.948224 
L 303.060175 89.250609 
L 303.966019 86.741189 
L 306.683551 83.520316 
L 306.683551 83.520316 
" style="fill:none;stroke:#ba55d3;stroke-linecap:square;stroke-width:2.5;"/>
   </g>
   <g id="line2d_20">
    <path clip-path="url(#p9a794548b9)" d="M 53.047188 109.967433 
L 306.683551 109.967433 
L 306.683551 109.967433 
" style="fill:none;stroke:#000000;stroke-dasharray:9.25,4;stroke-dashoffset:0;stroke-width:2.5;"/>
   </g>
   <g id="patch_3">
    <path d="M 53.047188 228.439219 
L 53.047188 10.999219 
" style="fill:none;stroke:#000000;stroke-linecap:square;stroke-linejoin:miter;stroke-width:0.8;"/>
   </g>
   <g id="patch_4">
    <path d="M 306.683551 228.439219 
L 306.683551 10.999219 
" style="fill:none;stroke:#000000;stroke-linecap:square;stroke-linejoin:miter;stroke-width:0.8;"/>
   </g>
   <g id="patch_5">
    <path d="M 53.047188 228.439219 
L 306.683551 228.439219 
" style="fill:none;stroke:#000000;stroke-linecap:square;stroke-linejoin:miter;stroke-width:0.8;"/>
   </g>
   <g id="patch_6">
    <path d="M 53.047188 10.999219 
L 306.683551 10.999219 
" style="fill:none;stroke:#000000;stroke-linecap:square;stroke-linejoin:miter;stroke-width:0.8;"/>
   </g>
   <g id="legend_1">
    <g id="patch_7">
     <path d="M 60.047188 223.439219 
L 243.815938 223.439219 
Q 245.815938 223.439219 245.815938 221.439219 
L 245.815938 193.082969 
Q 245.815938 191.082969 243.815938 191.082969 
L 60.047188 191.082969 
Q 58.047188 191.082969 58.047188 193.082969 
L 58.047188 221.439219 
Q 58.047188 223.439219 60.047188 223.439219 
z
" style="fill:#ffffff;opacity:0.8;stroke:#cccccc;stroke-linejoin:miter;"/>
    </g>
    <g id="line2d_21">
     <path d="M 62.047188 199.181406 
L 82.047188 199.181406 
" style="fill:none;stroke:#ba55d3;stroke-linecap:square;stroke-width:2.5;"/>
    </g>
    <g id="line2d_22"/>
    <g id="text_21">
     <!-- time-varying field and latitude -->
     <defs>
      <path d="M 4.890625 31.390625 
L 31.203125 31.390625 
L 31.203125 23.390625 
L 4.890625 23.390625 
z
" id="DejaVuSans-45"/>
      <path d="M 2.984375 54.6875 
L 12.5 54.6875 
L 29.59375 8.796875 
L 46.6875 54.6875 
L 56.203125 54.6875 
L 35.6875 0 
L 23.484375 0 
z
" id="DejaVuSans-118"/>
      <path d="M 32.171875 -5.078125 
Q 28.375 -14.84375 24.75 -17.8125 
Q 21.140625 -20.796875 15.09375 -20.796875 
L 7.90625 -20.796875 
L 7.90625 -13.28125 
L 13.1875 -13.28125 
Q 16.890625 -13.28125 18.9375 -11.515625 
Q 21 -9.765625 23.484375 -3.21875 
L 25.09375 0.875 
L 2.984375 54.6875 
L 12.5 54.6875 
L 29.59375 11.921875 
L 46.6875 54.6875 
L 56.203125 54.6875 
z
" id="DejaVuSans-121"/>
      <path d="M 37.109375 75.984375 
L 37.109375 68.5 
L 28.515625 68.5 
Q 23.6875 68.5 21.796875 66.546875 
Q 19.921875 64.59375 19.921875 59.515625 
L 19.921875 54.6875 
L 34.71875 54.6875 
L 34.71875 47.703125 
L 19.921875 47.703125 
L 19.921875 0 
L 10.890625 0 
L 10.890625 47.703125 
L 2.296875 47.703125 
L 2.296875 54.6875 
L 10.890625 54.6875 
L 10.890625 58.5 
Q 10.890625 67.625 15.140625 71.796875 
Q 19.390625 75.984375 28.609375 75.984375 
z
" id="DejaVuSans-102"/>
      <path d="M 45.40625 46.390625 
L 45.40625 75.984375 
L 54.390625 75.984375 
L 54.390625 0 
L 45.40625 0 
L 45.40625 8.203125 
Q 42.578125 3.328125 38.25 0.953125 
Q 33.9375 -1.421875 27.875 -1.421875 
Q 17.96875 -1.421875 11.734375 6.484375 
Q 5.515625 14.40625 5.515625 27.296875 
Q 5.515625 40.1875 11.734375 48.09375 
Q 17.96875 56 27.875 56 
Q 33.9375 56 38.25 53.625 
Q 42.578125 51.265625 45.40625 46.390625 
z
M 14.796875 27.296875 
Q 14.796875 17.390625 18.875 11.75 
Q 22.953125 6.109375 30.078125 6.109375 
Q 37.203125 6.109375 41.296875 11.75 
Q 45.40625 17.390625 45.40625 27.296875 
Q 45.40625 37.203125 41.296875 42.84375 
Q 37.203125 48.484375 30.078125 48.484375 
Q 22.953125 48.484375 18.875 42.84375 
Q 14.796875 37.203125 14.796875 27.296875 
z
" id="DejaVuSans-100"/>
      <path d="M 8.5 21.578125 
L 8.5 54.6875 
L 17.484375 54.6875 
L 17.484375 21.921875 
Q 17.484375 14.15625 20.5 10.265625 
Q 23.53125 6.390625 29.59375 6.390625 
Q 36.859375 6.390625 41.078125 11.03125 
Q 45.3125 15.671875 45.3125 23.6875 
L 45.3125 54.6875 
L 54.296875 54.6875 
L 54.296875 0 
L 45.3125 0 
L 45.3125 8.40625 
Q 42.046875 3.421875 37.71875 1 
Q 33.40625 -1.421875 27.6875 -1.421875 
Q 18.265625 -1.421875 13.375 4.4375 
Q 8.5 10.296875 8.5 21.578125 
z
M 31.109375 56 
z
" id="DejaVuSans-117"/>
     </defs>
     <g transform="translate(90.047188 202.681406)scale(0.1 -0.1)">
      <use xlink:href="#DejaVuSans-116"/>
      <use x="39.208984" xlink:href="#DejaVuSans-105"/>
      <use x="66.992188" xlink:href="#DejaVuSans-109"/>
      <use x="164.404297" xlink:href="#DejaVuSans-101"/>
      <use x="225.927734" xlink:href="#DejaVuSans-45"/>
      <use x="259.386719" xlink:href="#DejaVuSans-118"/>
      <use x="318.566406" xlink:href="#DejaVuSans-97"/>
      <use x="379.845703" xlink:href="#DejaVuSans-114"/>
      <use x="420.958984" xlink:href="#DejaVuSans-121"/>
      <use x="480.138672" xlink:href="#DejaVuSans-105"/>
      <use x="507.921875" xlink:href="#DejaVuSans-110"/>
      <use x="571.300781" xlink:href="#DejaVuSans-103"/>
      <use x="634.777344" xlink:href="#DejaVuSans-32"/>
      <use x="666.564453" xlink:href="#DejaVuSans-102"/>
      <use x="701.769531" xlink:href="#DejaVuSans-105"/>
      <use x="729.552734" xlink:href="#DejaVuSans-101"/>
      <use x="791.076172" xlink:href="#DejaVuSans-108"/>
      <use x="818.859375" xlink:href="#DejaVuSans-100"/>
      <use x="882.335938" xlink:href="#DejaVuSans-32"/>
      <use x="914.123047" xlink:href="#DejaVuSans-97"/>
      <use x="975.402344" xlink:href="#DejaVuSans-110"/>
      <use x="1038.78125" xlink:href="#DejaVuSans-100"/>
      <use x="1102.257812" xlink:href="#DejaVuSans-32"/>
      <use x="1134.044922" xlink:href="#DejaVuSans-108"/>
      <use x="1161.828125" xlink:href="#DejaVuSans-97"/>
      <use x="1223.107422" xlink:href="#DejaVuSans-116"/>
      <use x="1262.316406" xlink:href="#DejaVuSans-105"/>
      <use x="1290.099609" xlink:href="#DejaVuSans-116"/>
      <use x="1329.308594" xlink:href="#DejaVuSans-117"/>
      <use x="1392.6875" xlink:href="#DejaVuSans-100"/>
      <use x="1456.164062" xlink:href="#DejaVuSans-101"/>
     </g>
    </g>
    <g id="line2d_23">
     <path d="M 62.047188 213.859531 
L 82.047188 213.859531 
" style="fill:none;stroke:#000000;stroke-dasharray:9.25,4;stroke-dashoffset:0;stroke-width:2.5;"/>
    </g>
    <g id="line2d_24"/>
    <g id="text_22">
     <!-- constant field and latitude -->
     <defs>
      <path d="M 44.28125 53.078125 
L 44.28125 44.578125 
Q 40.484375 46.53125 36.375 47.5 
Q 32.28125 48.484375 27.875 48.484375 
Q 21.1875 48.484375 17.84375 46.4375 
Q 14.5 44.390625 14.5 40.28125 
Q 14.5 37.15625 16.890625 35.375 
Q 19.28125 33.59375 26.515625 31.984375 
L 29.59375 31.296875 
Q 39.15625 29.25 43.1875 25.515625 
Q 47.21875 21.78125 47.21875 15.09375 
Q 47.21875 7.46875 41.1875 3.015625 
Q 35.15625 -1.421875 24.609375 -1.421875 
Q 20.21875 -1.421875 15.453125 -0.5625 
Q 10.6875 0.296875 5.421875 2 
L 5.421875 11.28125 
Q 10.40625 8.6875 15.234375 7.390625 
Q 20.0625 6.109375 24.8125 6.109375 
Q 31.15625 6.109375 34.5625 8.28125 
Q 37.984375 10.453125 37.984375 14.40625 
Q 37.984375 18.0625 35.515625 20.015625 
Q 33.0625 21.96875 24.703125 23.78125 
L 21.578125 24.515625 
Q 13.234375 26.265625 9.515625 29.90625 
Q 5.8125 33.546875 5.8125 39.890625 
Q 5.8125 47.609375 11.28125 51.796875 
Q 16.75 56 26.8125 56 
Q 31.78125 56 36.171875 55.265625 
Q 40.578125 54.546875 44.28125 53.078125 
z
" id="DejaVuSans-115"/>
     </defs>
     <g transform="translate(90.047188 217.359531)scale(0.1 -0.1)">
      <use xlink:href="#DejaVuSans-99"/>
      <use x="54.980469" xlink:href="#DejaVuSans-111"/>
      <use x="116.162109" xlink:href="#DejaVuSans-110"/>
      <use x="179.541016" xlink:href="#DejaVuSans-115"/>
      <use x="231.640625" xlink:href="#DejaVuSans-116"/>
      <use x="270.849609" xlink:href="#DejaVuSans-97"/>
      <use x="332.128906" xlink:href="#DejaVuSans-110"/>
      <use x="395.507812" xlink:href="#DejaVuSans-116"/>
      <use x="434.716797" xlink:href="#DejaVuSans-32"/>
      <use x="466.503906" xlink:href="#DejaVuSans-102"/>
      <use x="501.708984" xlink:href="#DejaVuSans-105"/>
      <use x="529.492188" xlink:href="#DejaVuSans-101"/>
      <use x="591.015625" xlink:href="#DejaVuSans-108"/>
      <use x="618.798828" xlink:href="#DejaVuSans-100"/>
      <use x="682.275391" xlink:href="#DejaVuSans-32"/>
      <use x="714.0625" xlink:href="#DejaVuSans-97"/>
      <use x="775.341797" xlink:href="#DejaVuSans-110"/>
      <use x="838.720703" xlink:href="#DejaVuSans-100"/>
      <use x="902.197266" xlink:href="#DejaVuSans-32"/>
      <use x="933.984375" xlink:href="#DejaVuSans-108"/>
      <use x="961.767578" xlink:href="#DejaVuSans-97"/>
      <use x="1023.046875" xlink:href="#DejaVuSans-116"/>
      <use x="1062.255859" xlink:href="#DejaVuSans-105"/>
      <use x="1090.039062" xlink:href="#DejaVuSans-116"/>
      <use x="1129.248047" xlink:href="#DejaVuSans-117"/>
      <use x="1192.626953" xlink:href="#DejaVuSans-100"/>
      <use x="1256.103516" xlink:href="#DejaVuSans-101"/>
     </g>
    </g>
   </g>
  </g>
  <g id="axes_2">
   <g id="patch_8">
    <path d="M 357.410824 228.439219 
L 611.047187 228.439219 
L 611.047187 10.999219 
L 357.410824 10.999219 
z
" style="fill:#ffffff;"/>
   </g>
   <g id="matplotlib.axis_3">
    <g id="xtick_9">
     <g id="line2d_25">
      <g>
       <use style="stroke:#000000;stroke-width:0.8;" x="357.410824" xlink:href="#ma220d0751a" y="228.439219"/>
      </g>
     </g>
     <g id="text_23">
      <!-- 0 -->
      <g transform="translate(354.229574 243.037656)scale(0.1 -0.1)">
       <use xlink:href="#DejaVuSans-48"/>
      </g>
     </g>
    </g>
    <g id="xtick_10">
     <g id="line2d_26">
      <g>
       <use style="stroke:#000000;stroke-width:0.8;" x="393.64459" xlink:href="#ma220d0751a" y="228.439219"/>
      </g>
     </g>
     <g id="text_24">
      <!-- 10 -->
      <g transform="translate(387.28209 243.037656)scale(0.1 -0.1)">
       <use xlink:href="#DejaVuSans-49"/>
       <use x="63.623047" xlink:href="#DejaVuSans-48"/>
      </g>
     </g>
    </g>
    <g id="xtick_11">
     <g id="line2d_27">
      <g>
       <use style="stroke:#000000;stroke-width:0.8;" x="429.878356" xlink:href="#ma220d0751a" y="228.439219"/>
      </g>
     </g>
     <g id="text_25">
      <!-- 20 -->
      <g transform="translate(423.515856 243.037656)scale(0.1 -0.1)">
       <use xlink:href="#DejaVuSans-50"/>
       <use x="63.623047" xlink:href="#DejaVuSans-48"/>
      </g>
     </g>
    </g>
    <g id="xtick_12">
     <g id="line2d_28">
      <g>
       <use style="stroke:#000000;stroke-width:0.8;" x="466.112123" xlink:href="#ma220d0751a" y="228.439219"/>
      </g>
     </g>
     <g id="text_26">
      <!-- 30 -->
      <g transform="translate(459.749623 243.037656)scale(0.1 -0.1)">
       <use xlink:href="#DejaVuSans-51"/>
       <use x="63.623047" xlink:href="#DejaVuSans-48"/>
      </g>
     </g>
    </g>
    <g id="xtick_13">
     <g id="line2d_29">
      <g>
       <use style="stroke:#000000;stroke-width:0.8;" x="502.345889" xlink:href="#ma220d0751a" y="228.439219"/>
      </g>
     </g>
     <g id="text_27">
      <!-- 40 -->
      <g transform="translate(495.983389 243.037656)scale(0.1 -0.1)">
       <use xlink:href="#DejaVuSans-52"/>
       <use x="63.623047" xlink:href="#DejaVuSans-48"/>
      </g>
     </g>
    </g>
    <g id="xtick_14">
     <g id="line2d_30">
      <g>
       <use style="stroke:#000000;stroke-width:0.8;" x="538.579655" xlink:href="#ma220d0751a" y="228.439219"/>
      </g>
     </g>
     <g id="text_28">
      <!-- 50 -->
      <g transform="translate(532.217155 243.037656)scale(0.1 -0.1)">
       <use xlink:href="#DejaVuSans-53"/>
       <use x="63.623047" xlink:href="#DejaVuSans-48"/>
      </g>
     </g>
    </g>
    <g id="xtick_15">
     <g id="line2d_31">
      <g>
       <use style="stroke:#000000;stroke-width:0.8;" x="574.813421" xlink:href="#ma220d0751a" y="228.439219"/>
      </g>
     </g>
     <g id="text_29">
      <!-- 60 -->
      <g transform="translate(568.450921 243.037656)scale(0.1 -0.1)">
       <use xlink:href="#DejaVuSans-54"/>
       <use x="63.623047" xlink:href="#DejaVuSans-48"/>
      </g>
     </g>
    </g>
    <g id="xtick_16">
     <g id="line2d_32">
      <g>
       <use style="stroke:#000000;stroke-width:0.8;" x="611.047187" xlink:href="#ma220d0751a" y="228.439219"/>
      </g>
     </g>
     <g id="text_30">
      <!-- 70 -->
      <g transform="translate(604.684687 243.037656)scale(0.1 -0.1)">
       <use xlink:href="#DejaVuSans-55"/>
       <use x="63.623047" xlink:href="#DejaVuSans-48"/>
      </g>
     </g>
    </g>
    <g id="text_31">
     <!-- Time (Ma) -->
     <g transform="translate(451.595959 258.995312)scale(0.13 -0.13)">
      <use xlink:href="#DejaVuSans-84"/>
      <use x="57.958984" xlink:href="#DejaVuSans-105"/>
      <use x="85.742188" xlink:href="#DejaVuSans-109"/>
      <use x="183.154297" xlink:href="#DejaVuSans-101"/>
      <use x="244.677734" xlink:href="#DejaVuSans-32"/>
      <use x="276.464844" xlink:href="#DejaVuSans-40"/>
      <use x="315.478516" xlink:href="#DejaVuSans-77"/>
      <use x="401.757812" xlink:href="#DejaVuSans-97"/>
      <use x="463.037109" xlink:href="#DejaVuSans-41"/>
     </g>
    </g>
   </g>
   <g id="matplotlib.axis_4">
    <g id="ytick_11">
     <g id="line2d_33">
      <g>
       <use style="stroke:#000000;stroke-width:0.8;" x="357.410824" xlink:href="#m08a716add6" y="228.439219"/>
      </g>
     </g>
    </g>
    <g id="ytick_12">
     <g id="line2d_34">
      <g>
       <use style="stroke:#000000;stroke-width:0.8;" x="357.410824" xlink:href="#m08a716add6" y="204.279219"/>
      </g>
     </g>
    </g>
    <g id="ytick_13">
     <g id="line2d_35">
      <g>
       <use style="stroke:#000000;stroke-width:0.8;" x="357.410824" xlink:href="#m08a716add6" y="180.119219"/>
      </g>
     </g>
    </g>
    <g id="ytick_14">
     <g id="line2d_36">
      <g>
       <use style="stroke:#000000;stroke-width:0.8;" x="357.410824" xlink:href="#m08a716add6" y="155.959219"/>
      </g>
     </g>
    </g>
    <g id="ytick_15">
     <g id="line2d_37">
      <g>
       <use style="stroke:#000000;stroke-width:0.8;" x="357.410824" xlink:href="#m08a716add6" y="131.799219"/>
      </g>
     </g>
    </g>
    <g id="ytick_16">
     <g id="line2d_38">
      <g>
       <use style="stroke:#000000;stroke-width:0.8;" x="357.410824" xlink:href="#m08a716add6" y="107.639219"/>
      </g>
     </g>
    </g>
    <g id="ytick_17">
     <g id="line2d_39">
      <g>
       <use style="stroke:#000000;stroke-width:0.8;" x="357.410824" xlink:href="#m08a716add6" y="83.479219"/>
      </g>
     </g>
    </g>
    <g id="ytick_18">
     <g id="line2d_40">
      <g>
       <use style="stroke:#000000;stroke-width:0.8;" x="357.410824" xlink:href="#m08a716add6" y="59.319219"/>
      </g>
     </g>
    </g>
    <g id="ytick_19">
     <g id="line2d_41">
      <g>
       <use style="stroke:#000000;stroke-width:0.8;" x="357.410824" xlink:href="#m08a716add6" y="35.159219"/>
      </g>
     </g>
    </g>
    <g id="ytick_20">
     <g id="line2d_42">
      <g>
       <use style="stroke:#000000;stroke-width:0.8;" x="357.410824" xlink:href="#m08a716add6" y="10.999219"/>
      </g>
     </g>
    </g>
   </g>
   <g id="LineCollection_2">
    <path clip-path="url(#p66f3cdb817)" d="M 596.742097 228.439219 
L 596.742097 10.999219 
" style="fill:none;stroke:#000000;stroke-width:2.5;"/>
   </g>
   <g id="line2d_43">
    <path clip-path="url(#p66f3cdb817)" d="M 357.410824 137.495549 
L 358.316668 144.686157 
L 359.222512 144.091061 
L 360.128356 132.013795 
L 361.0342 142.295258 
L 361.940045 110.241896 
L 362.845889 105.659861 
L 363.751733 108.565211 
L 364.657577 98.585498 
L 365.563421 106.980236 
L 366.469265 132.144449 
L 367.37511 132.948913 
L 368.280954 127.49086 
L 369.186798 130.031781 
L 370.092642 115.749291 
L 370.998486 120.01547 
L 371.90433 142.820126 
L 372.810175 151.127379 
L 373.716019 146.749037 
L 374.621863 138.749038 
L 375.527707 126.031196 
L 376.433551 133.978263 
L 377.339395 112.801022 
L 378.245239 64.134553 
L 379.151084 54.203683 
L 380.056928 49.431526 
L 380.962772 80.530525 
L 381.868616 73.498397 
L 382.77446 95.646327 
L 383.680304 99.160618 
L 384.586149 138.897739 
L 385.491993 121.52375 
L 386.397837 86.908911 
L 387.303681 75.481422 
L 388.209525 111.186285 
L 389.115369 115.793914 
L 390.021213 111.303191 
L 390.927058 89.175318 
L 391.832902 98.798983 
L 392.738746 98.368012 
L 393.64459 83.508423 
L 394.550434 82.008066 
L 395.456278 75.001724 
L 396.362123 71.301371 
L 397.267967 70.774277 
L 398.173811 71.796524 
L 399.079655 74.488097 
L 399.985499 75.662734 
L 400.891343 72.619942 
L 401.797187 65.749672 
L 402.703032 62.955154 
L 403.608876 69.770395 
L 404.51472 67.185431 
L 405.420564 73.6048 
L 406.326408 74.548758 
L 407.232252 51.971839 
L 408.138097 37.866489 
L 409.043941 49.841981 
L 409.949785 67.47046 
L 411.761473 93.415376 
L 412.667317 99.450775 
L 413.573162 95.389589 
L 414.479006 93.363359 
L 415.38485 110.968833 
L 416.290694 137.391305 
L 417.196538 144.45478 
L 418.102382 137.443098 
L 419.008226 83.110318 
L 419.914071 49.977415 
L 420.819915 46.990178 
L 422.631603 44.982093 
L 423.537447 44.310553 
L 424.443291 43.812013 
L 425.349136 43.765718 
L 426.25498 44.299667 
L 428.066668 45.690596 
L 428.972512 46.966222 
L 429.878356 48.716494 
L 430.7842 50.737711 
L 431.690045 53.05183 
L 432.595889 54.506991 
L 433.501733 55.067546 
L 434.407577 56.744691 
L 438.030954 67.349615 
L 439.842642 73.477121 
L 442.560175 84.331428 
L 444.371863 92.159395 
L 447.089395 104.306251 
L 448.901084 112.094762 
L 452.52446 125.380994 
L 453.430304 127.967769 
L 454.336149 126.804757 
L 455.241993 121.86022 
L 456.147837 117.743903 
L 457.053681 115.632612 
L 457.959525 116.129915 
L 458.865369 119.356222 
L 459.771213 123.909231 
L 460.677058 127.304825 
L 461.582902 126.122601 
L 462.488746 118.852349 
L 465.206278 75.642672 
L 466.112123 72.500851 
L 467.017967 69.861679 
L 467.923811 65.211316 
L 468.829655 62.013919 
L 469.735499 59.426705 
L 470.641343 56.245902 
L 471.547187 54.122628 
L 472.453032 51.037726 
L 473.358876 47.544862 
L 474.26472 45.013527 
L 475.170564 43.659726 
L 476.076408 45.51707 
L 476.982252 52.829648 
L 477.888097 64.963335 
L 478.793941 80.512818 
L 479.699785 92.408135 
L 480.605629 100.121452 
L 481.511473 99.458191 
L 482.417317 94.595058 
L 484.229006 81.60477 
L 485.13485 76.839686 
L 486.040694 73.423674 
L 486.946538 71.591448 
L 488.758226 69.596504 
L 490.569915 68.683269 
L 492.381603 67.171478 
L 493.287447 66.660395 
L 495.099136 64.126119 
L 496.00498 63.461825 
L 497.816668 62.870924 
L 498.722512 63.00777 
L 499.628356 62.899186 
L 501.440045 63.076127 
L 502.345889 63.544729 
L 503.251733 64.942053 
L 504.157577 65.967831 
L 505.969265 68.390101 
L 506.87511 69.295392 
L 507.780954 70.008676 
L 508.686798 70.883943 
L 510.498486 70.70722 
L 511.40433 70.132094 
L 512.310175 69.142213 
L 513.216019 67.906642 
L 516.839395 61.873084 
L 517.745239 59.567213 
L 520.462772 51.452401 
L 523.180304 44.542022 
L 524.991993 40.932217 
L 525.897837 39.560813 
L 526.803681 38.442646 
L 527.709525 37.511797 
L 528.615369 37.319299 
L 529.521213 37.255642 
L 530.427058 37.370897 
L 531.332902 37.737771 
L 533.14459 39.388106 
L 534.050434 40.547571 
L 534.956278 41.999554 
L 535.862123 43.923184 
L 536.767967 46.4613 
L 537.673811 49.629335 
L 538.579655 53.678601 
L 540.391343 62.796862 
L 541.297187 66.61863 
L 544.01472 80.516094 
L 544.920564 85.439492 
L 546.732252 97.840961 
L 547.638097 107.785088 
L 548.543941 121.094829 
L 549.449785 136.709611 
L 550.355629 149.287115 
L 551.261473 157.391249 
L 552.167317 157.89575 
L 553.073162 152.199052 
L 554.88485 136.92259 
L 555.790694 132.306844 
L 556.696538 132.490065 
L 557.602382 135.904822 
L 558.508226 138.54187 
L 559.414071 136.595291 
L 560.319915 129.747843 
L 561.225759 120.594537 
L 562.131603 114.019403 
L 563.037447 109.677517 
L 563.943291 106.823452 
L 564.849136 106.488684 
L 565.75498 107.535334 
L 567.566668 111.066612 
L 568.472512 114.208917 
L 570.2842 121.515051 
L 572.095889 126.624826 
L 573.907577 128.883366 
L 574.813421 128.809332 
L 575.719265 128.90923 
L 576.62511 128.875152 
L 577.530954 128.186567 
L 578.436798 127.05978 
L 579.342642 124.340929 
L 580.248486 120.878238 
L 581.15433 116.776361 
L 583.871863 100.190406 
L 585.683551 87.107164 
L 587.495239 72.164222 
L 591.118616 46.770645 
L 592.02446 43.006415 
L 592.930304 40.615594 
L 593.836149 39.747837 
L 594.741993 40.723404 
L 595.647837 43.00537 
L 596.553681 46.77689 
L 598.365369 59.00641 
L 601.082902 78.783677 
L 601.988746 84.339518 
L 602.89459 88.442582 
L 603.800434 90.788081 
L 604.706278 92.288164 
L 605.612123 93.376328 
L 607.423811 91.612093 
L 609.235499 89.259602 
L 610.141343 88.280469 
L 611.047187 86.914077 
L 611.047187 86.914077 
" style="fill:none;stroke:#008080;stroke-linecap:square;stroke-width:2.5;"/>
   </g>
   <g id="line2d_44">
    <path clip-path="url(#p66f3cdb817)" d="M 357.410824 114.648221 
L 361.0342 114.648221 
L 361.940045 118.631053 
L 364.657577 118.631053 
L 365.563421 119.495859 
L 368.280954 119.495859 
L 369.186798 120.447258 
L 371.90433 120.447258 
L 372.810175 121.41724 
L 375.527707 121.41724 
L 376.433551 122.366848 
L 379.151084 122.366848 
L 380.056928 123.304859 
L 382.77446 123.304859 
L 383.680304 124.234301 
L 386.397837 124.234301 
L 387.303681 125.162652 
L 390.021213 125.162652 
L 390.927058 126.059576 
L 393.64459 126.059576 
L 394.550434 126.931347 
L 397.267967 126.931347 
L 398.173811 127.792793 
L 400.891343 127.792793 
L 401.797187 128.861237 
L 404.51472 128.861237 
L 405.420564 129.901359 
L 408.138097 129.901359 
L 409.043941 130.864431 
L 411.761473 130.864431 
L 412.667317 131.567141 
L 415.38485 131.567141 
L 416.290694 132.264496 
L 419.008226 132.264496 
L 419.914071 132.929617 
L 422.631603 132.929617 
L 423.537447 133.622709 
L 426.25498 133.622709 
L 427.160824 134.486799 
L 429.878356 134.486799 
L 430.7842 135.64349 
L 433.501733 135.64349 
L 434.407577 136.783562 
L 437.12511 136.783562 
L 438.030954 137.881131 
L 440.748486 137.881131 
L 441.65433 138.947602 
L 444.371863 138.947602 
L 445.277707 139.970684 
L 447.995239 139.970684 
L 448.901084 140.961665 
L 451.618616 140.961665 
L 452.52446 144.216007 
L 455.241993 144.216007 
L 456.147837 147.0139 
L 458.865369 147.0139 
L 459.771213 149.38226 
L 462.488746 149.38226 
L 463.39459 151.397452 
L 466.112123 151.397452 
L 467.017967 151.65183 
L 469.735499 151.65183 
L 470.641343 151.525452 
L 473.358876 151.525452 
L 474.26472 151.40676 
L 487.852382 151.47612 
L 489.664071 151.550809 
L 495.099136 151.624431 
L 496.910824 151.696278 
L 498.722512 151.696278 
L 499.628356 152.111646 
L 502.345889 152.111646 
L 503.251733 152.519613 
L 505.969265 152.519613 
L 506.87511 152.909833 
L 509.592642 152.909833 
L 510.498486 153.274432 
L 513.216019 153.274432 
L 514.121863 153.617949 
L 516.839395 153.617949 
L 517.745239 153.94703 
L 520.462772 153.94703 
L 521.368616 154.264536 
L 524.086149 154.264536 
L 524.991993 154.714406 
L 527.709525 154.714406 
L 528.615369 155.20683 
L 531.332902 155.20683 
L 532.238746 155.621733 
L 534.956278 155.621733 
L 535.862123 155.996765 
L 538.579655 155.996765 
L 539.485499 156.424115 
L 542.203032 156.424115 
L 543.108876 156.623436 
L 549.449785 156.594036 
L 550.355629 156.333417 
L 553.073162 156.333417 
L 553.979006 155.846222 
L 556.696538 155.846222 
L 557.602382 154.918998 
L 560.319915 154.918998 
L 561.225759 153.647775 
L 563.943291 153.647775 
L 564.849136 152.014294 
L 567.566668 152.014294 
L 568.472512 150.014884 
L 571.190045 150.014884 
L 572.095889 147.63434 
L 574.813421 147.63434 
L 575.719265 144.489771 
L 578.436798 144.489771 
L 579.342642 139.821131 
L 582.060175 139.821131 
L 582.966019 134.08068 
L 585.683551 134.08068 
L 586.589395 127.050361 
L 589.306928 127.050361 
L 590.212772 123.170267 
L 592.930304 123.170267 
L 593.836149 118.983649 
L 596.553681 118.983649 
L 597.459525 114.512594 
L 600.177058 114.512594 
L 601.082902 109.793892 
L 603.800434 109.793892 
L 604.706278 107.202685 
L 607.423811 107.202685 
L 608.329655 105.602592 
L 611.047187 105.602592 
L 611.047187 105.602592 
" style="fill:none;stroke:#6495ed;stroke-dasharray:9.25,4;stroke-dashoffset:0;stroke-width:2.5;"/>
   </g>
   <g id="patch_9">
    <path d="M 357.410824 228.439219 
L 357.410824 10.999219 
" style="fill:none;stroke:#000000;stroke-linecap:square;stroke-linejoin:miter;stroke-width:0.8;"/>
   </g>
   <g id="patch_10">
    <path d="M 611.047187 228.439219 
L 611.047187 10.999219 
" style="fill:none;stroke:#000000;stroke-linecap:square;stroke-linejoin:miter;stroke-width:0.8;"/>
   </g>
   <g id="patch_11">
    <path d="M 357.410824 228.439219 
L 611.047187 228.439219 
" style="fill:none;stroke:#000000;stroke-linecap:square;stroke-linejoin:miter;stroke-width:0.8;"/>
   </g>
   <g id="patch_12">
    <path d="M 357.410824 10.999219 
L 611.047187 10.999219 
" style="fill:none;stroke:#000000;stroke-linecap:square;stroke-linejoin:miter;stroke-width:0.8;"/>
   </g>
   <g id="legend_2">
    <g id="patch_13">
     <path d="M 364.410824 223.439219 
L 576.013949 223.439219 
Q 578.013949 223.439219 578.013949 221.439219 
L 578.013949 193.082969 
Q 578.013949 191.082969 576.013949 191.082969 
L 364.410824 191.082969 
Q 362.410824 191.082969 362.410824 193.082969 
L 362.410824 221.439219 
Q 362.410824 223.439219 364.410824 223.439219 
z
" style="fill:#ffffff;opacity:0.8;stroke:#cccccc;stroke-linejoin:miter;"/>
    </g>
    <g id="line2d_45">
     <path d="M 366.410824 199.181406 
L 386.410824 199.181406 
" style="fill:none;stroke:#008080;stroke-linecap:square;stroke-width:2.5;"/>
    </g>
    <g id="line2d_46"/>
    <g id="text_32">
     <!-- time-varying field, constant latitude -->
     <defs>
      <path d="M 11.71875 12.40625 
L 22.015625 12.40625 
L 22.015625 4 
L 14.015625 -11.625 
L 7.71875 -11.625 
L 11.71875 4 
z
" id="DejaVuSans-44"/>
     </defs>
     <g transform="translate(394.410824 202.681406)scale(0.1 -0.1)">
      <use xlink:href="#DejaVuSans-116"/>
      <use x="39.208984" xlink:href="#DejaVuSans-105"/>
      <use x="66.992188" xlink:href="#DejaVuSans-109"/>
      <use x="164.404297" xlink:href="#DejaVuSans-101"/>
      <use x="225.927734" xlink:href="#DejaVuSans-45"/>
      <use x="259.386719" xlink:href="#DejaVuSans-118"/>
      <use x="318.566406" xlink:href="#DejaVuSans-97"/>
      <use x="379.845703" xlink:href="#DejaVuSans-114"/>
      <use x="420.958984" xlink:href="#DejaVuSans-121"/>
      <use x="480.138672" xlink:href="#DejaVuSans-105"/>
      <use x="507.921875" xlink:href="#DejaVuSans-110"/>
      <use x="571.300781" xlink:href="#DejaVuSans-103"/>
      <use x="634.777344" xlink:href="#DejaVuSans-32"/>
      <use x="666.564453" xlink:href="#DejaVuSans-102"/>
      <use x="701.769531" xlink:href="#DejaVuSans-105"/>
      <use x="729.552734" xlink:href="#DejaVuSans-101"/>
      <use x="791.076172" xlink:href="#DejaVuSans-108"/>
      <use x="818.859375" xlink:href="#DejaVuSans-100"/>
      <use x="882.335938" xlink:href="#DejaVuSans-44"/>
      <use x="914.123047" xlink:href="#DejaVuSans-32"/>
      <use x="945.910156" xlink:href="#DejaVuSans-99"/>
      <use x="1000.890625" xlink:href="#DejaVuSans-111"/>
      <use x="1062.072266" xlink:href="#DejaVuSans-110"/>
      <use x="1125.451172" xlink:href="#DejaVuSans-115"/>
      <use x="1177.550781" xlink:href="#DejaVuSans-116"/>
      <use x="1216.759766" xlink:href="#DejaVuSans-97"/>
      <use x="1278.039062" xlink:href="#DejaVuSans-110"/>
      <use x="1341.417969" xlink:href="#DejaVuSans-116"/>
      <use x="1380.626953" xlink:href="#DejaVuSans-32"/>
      <use x="1412.414062" xlink:href="#DejaVuSans-108"/>
      <use x="1440.197266" xlink:href="#DejaVuSans-97"/>
      <use x="1501.476562" xlink:href="#DejaVuSans-116"/>
      <use x="1540.685547" xlink:href="#DejaVuSans-105"/>
      <use x="1568.46875" xlink:href="#DejaVuSans-116"/>
      <use x="1607.677734" xlink:href="#DejaVuSans-117"/>
      <use x="1671.056641" xlink:href="#DejaVuSans-100"/>
      <use x="1734.533203" xlink:href="#DejaVuSans-101"/>
     </g>
    </g>
    <g id="line2d_47">
     <path d="M 366.410824 213.859531 
L 386.410824 213.859531 
" style="fill:none;stroke:#6495ed;stroke-dasharray:9.25,4;stroke-dashoffset:0;stroke-width:2.5;"/>
    </g>
    <g id="line2d_48"/>
    <g id="text_33">
     <!-- constant field, time-varying latitude -->
     <g transform="translate(394.410824 217.359531)scale(0.1 -0.1)">
      <use xlink:href="#DejaVuSans-99"/>
      <use x="54.980469" xlink:href="#DejaVuSans-111"/>
      <use x="116.162109" xlink:href="#DejaVuSans-110"/>
      <use x="179.541016" xlink:href="#DejaVuSans-115"/>
      <use x="231.640625" xlink:href="#DejaVuSans-116"/>
      <use x="270.849609" xlink:href="#DejaVuSans-97"/>
      <use x="332.128906" xlink:href="#DejaVuSans-110"/>
      <use x="395.507812" xlink:href="#DejaVuSans-116"/>
      <use x="434.716797" xlink:href="#DejaVuSans-32"/>
      <use x="466.503906" xlink:href="#DejaVuSans-102"/>
      <use x="501.708984" xlink:href="#DejaVuSans-105"/>
      <use x="529.492188" xlink:href="#DejaVuSans-101"/>
      <use x="591.015625" xlink:href="#DejaVuSans-108"/>
      <use x="618.798828" xlink:href="#DejaVuSans-100"/>
      <use x="682.275391" xlink:href="#DejaVuSans-44"/>
      <use x="714.0625" xlink:href="#DejaVuSans-32"/>
      <use x="745.849609" xlink:href="#DejaVuSans-116"/>
      <use x="785.058594" xlink:href="#DejaVuSans-105"/>
      <use x="812.841797" xlink:href="#DejaVuSans-109"/>
      <use x="910.253906" xlink:href="#DejaVuSans-101"/>
      <use x="971.777344" xlink:href="#DejaVuSans-45"/>
      <use x="1005.236328" xlink:href="#DejaVuSans-118"/>
      <use x="1064.416016" xlink:href="#DejaVuSans-97"/>
      <use x="1125.695312" xlink:href="#DejaVuSans-114"/>
      <use x="1166.808594" xlink:href="#DejaVuSans-121"/>
      <use x="1225.988281" xlink:href="#DejaVuSans-105"/>
      <use x="1253.771484" xlink:href="#DejaVuSans-110"/>
      <use x="1317.150391" xlink:href="#DejaVuSans-103"/>
      <use x="1380.626953" xlink:href="#DejaVuSans-32"/>
      <use x="1412.414062" xlink:href="#DejaVuSans-108"/>
      <use x="1440.197266" xlink:href="#DejaVuSans-97"/>
      <use x="1501.476562" xlink:href="#DejaVuSans-116"/>
      <use x="1540.685547" xlink:href="#DejaVuSans-105"/>
      <use x="1568.46875" xlink:href="#DejaVuSans-116"/>
      <use x="1607.677734" xlink:href="#DejaVuSans-117"/>
      <use x="1671.056641" xlink:href="#DejaVuSans-100"/>
      <use x="1734.533203" xlink:href="#DejaVuSans-101"/>
     </g>
    </g>
   </g>
  </g>
 </g>
 <defs>
  <clipPath id="p9a794548b9">
   <rect height="217.44" width="253.636364" x="53.047188" y="10.999219"/>
  </clipPath>
  <clipPath id="p66f3cdb817">
   <rect height="217.44" width="253.636364" x="357.410824" y="10.999219"/>
  </clipPath>
 </defs>
</svg>
