<?xml version="1.0" encoding="utf-8" standalone="no"?>
<!DOCTYPE svg PUBLIC "-//W3C//DTD SVG 1.1//EN"
  "http://www.w3.org/Graphics/SVG/1.1/DTD/svg11.dtd">
<!-- Created with matplotlib (https://matplotlib.org/) -->
<svg height="268.898906pt" version="1.1" viewBox="0 0 624.609687 268.898906" width="624.609687pt" xmlns="http://www.w3.org/2000/svg" xmlns:xlink="http://www.w3.org/1999/xlink">
 <defs>
  <style type="text/css">
*{stroke-linecap:butt;stroke-linejoin:round;}
  </style>
 </defs>
 <g id="figure_1">
  <g id="patch_1">
   <path d="M 0 268.898906 
L 624.609687 268.898906 
L 624.609687 0 
L 0 0 
z
" style="fill:#ffffff;"/>
  </g>
  <g id="axes_1">
   <g id="patch_2">
    <path d="M 53.047188 228.439219 
L 306.683551 228.439219 
L 306.683551 10.999219 
L 53.047188 10.999219 
z
" style="fill:#ffffff;"/>
   </g>
   <g id="matplotlib.axis_1">
    <g id="xtick_1">
     <g id="line2d_1">
      <defs>
       <path d="M 0 0 
L 0 3.5 
" id="m33c699e2f9" style="stroke:#000000;stroke-width:0.8;"/>
      </defs>
      <g>
       <use style="stroke:#000000;stroke-width:0.8;" x="53.047188" xlink:href="#m33c699e2f9" y="228.439219"/>
      </g>
     </g>
     <g id="text_1">
      <!-- 0 -->
      <defs>
       <path d="M 31.78125 66.40625 
Q 24.171875 66.40625 20.328125 58.90625 
Q 16.5 51.421875 16.5 36.375 
Q 16.5 21.390625 20.328125 13.890625 
Q 24.171875 6.390625 31.78125 6.390625 
Q 39.453125 6.390625 43.28125 13.890625 
Q 47.125 21.390625 47.125 36.375 
Q 47.125 51.421875 43.28125 58.90625 
Q 39.453125 66.40625 31.78125 66.40625 
z
M 31.78125 74.21875 
Q 44.046875 74.21875 50.515625 64.515625 
Q 56.984375 54.828125 56.984375 36.375 
Q 56.984375 17.96875 50.515625 8.265625 
Q 44.046875 -1.421875 31.78125 -1.421875 
Q 19.53125 -1.421875 13.0625 8.265625 
Q 6.59375 17.96875 6.59375 36.375 
Q 6.59375 54.828125 13.0625 64.515625 
Q 19.53125 74.21875 31.78125 74.21875 
z
" id="DejaVuSans-48"/>
      </defs>
      <g transform="translate(49.865938 243.037656)scale(0.1 -0.1)">
       <use xlink:href="#DejaVuSans-48"/>
      </g>
     </g>
    </g>
    <g id="xtick_2">
     <g id="line2d_2">
      <g>
       <use style="stroke:#000000;stroke-width:0.8;" x="89.280954" xlink:href="#m33c699e2f9" y="228.439219"/>
      </g>
     </g>
     <g id="text_2">
      <!-- 10 -->
      <defs>
       <path d="M 12.40625 8.296875 
L 28.515625 8.296875 
L 28.515625 63.921875 
L 10.984375 60.40625 
L 10.984375 69.390625 
L 28.421875 72.90625 
L 38.28125 72.90625 
L 38.28125 8.296875 
L 54.390625 8.296875 
L 54.390625 0 
L 12.40625 0 
z
" id="DejaVuSans-49"/>
      </defs>
      <g transform="translate(82.918454 243.037656)scale(0.1 -0.1)">
       <use xlink:href="#DejaVuSans-49"/>
       <use x="63.623047" xlink:href="#DejaVuSans-48"/>
      </g>
     </g>
    </g>
    <g id="xtick_3">
     <g id="line2d_3">
      <g>
       <use style="stroke:#000000;stroke-width:0.8;" x="125.51472" xlink:href="#m33c699e2f9" y="228.439219"/>
      </g>
     </g>
     <g id="text_3">
      <!-- 20 -->
      <defs>
       <path d="M 19.1875 8.296875 
L 53.609375 8.296875 
L 53.609375 0 
L 7.328125 0 
L 7.328125 8.296875 
Q 12.9375 14.109375 22.625 23.890625 
Q 32.328125 33.6875 34.8125 36.53125 
Q 39.546875 41.84375 41.421875 45.53125 
Q 43.3125 49.21875 43.3125 52.78125 
Q 43.3125 58.59375 39.234375 62.25 
Q 35.15625 65.921875 28.609375 65.921875 
Q 23.96875 65.921875 18.8125 64.3125 
Q 13.671875 62.703125 7.8125 59.421875 
L 7.8125 69.390625 
Q 13.765625 71.78125 18.9375 73 
Q 24.125 74.21875 28.421875 74.21875 
Q 39.75 74.21875 46.484375 68.546875 
Q 53.21875 62.890625 53.21875 53.421875 
Q 53.21875 48.921875 51.53125 44.890625 
Q 49.859375 40.875 45.40625 35.40625 
Q 44.1875 33.984375 37.640625 27.21875 
Q 31.109375 20.453125 19.1875 8.296875 
z
" id="DejaVuSans-50"/>
      </defs>
      <g transform="translate(119.15222 243.037656)scale(0.1 -0.1)">
       <use xlink:href="#DejaVuSans-50"/>
       <use x="63.623047" xlink:href="#DejaVuSans-48"/>
      </g>
     </g>
    </g>
    <g id="xtick_4">
     <g id="line2d_4">
      <g>
       <use style="stroke:#000000;stroke-width:0.8;" x="161.748486" xlink:href="#m33c699e2f9" y="228.439219"/>
      </g>
     </g>
     <g id="text_4">
      <!-- 30 -->
      <defs>
       <path d="M 40.578125 39.3125 
Q 47.65625 37.796875 51.625 33 
Q 55.609375 28.21875 55.609375 21.1875 
Q 55.609375 10.40625 48.1875 4.484375 
Q 40.765625 -1.421875 27.09375 -1.421875 
Q 22.515625 -1.421875 17.65625 -0.515625 
Q 12.796875 0.390625 7.625 2.203125 
L 7.625 11.71875 
Q 11.71875 9.328125 16.59375 8.109375 
Q 21.484375 6.890625 26.8125 6.890625 
Q 36.078125 6.890625 40.9375 10.546875 
Q 45.796875 14.203125 45.796875 21.1875 
Q 45.796875 27.640625 41.28125 31.265625 
Q 36.765625 34.90625 28.71875 34.90625 
L 20.21875 34.90625 
L 20.21875 43.015625 
L 29.109375 43.015625 
Q 36.375 43.015625 40.234375 45.921875 
Q 44.09375 48.828125 44.09375 54.296875 
Q 44.09375 59.90625 40.109375 62.90625 
Q 36.140625 65.921875 28.71875 65.921875 
Q 24.65625 65.921875 20.015625 65.03125 
Q 15.375 64.15625 9.8125 62.3125 
L 9.8125 71.09375 
Q 15.4375 72.65625 20.34375 73.4375 
Q 25.25 74.21875 29.59375 74.21875 
Q 40.828125 74.21875 47.359375 69.109375 
Q 53.90625 64.015625 53.90625 55.328125 
Q 53.90625 49.265625 50.4375 45.09375 
Q 46.96875 40.921875 40.578125 39.3125 
z
" id="DejaVuSans-51"/>
      </defs>
      <g transform="translate(155.385986 243.037656)scale(0.1 -0.1)">
       <use xlink:href="#DejaVuSans-51"/>
       <use x="63.623047" xlink:href="#DejaVuSans-48"/>
      </g>
     </g>
    </g>
    <g id="xtick_5">
     <g id="line2d_5">
      <g>
       <use style="stroke:#000000;stroke-width:0.8;" x="197.982252" xlink:href="#m33c699e2f9" y="228.439219"/>
      </g>
     </g>
     <g id="text_5">
      <!-- 40 -->
      <defs>
       <path d="M 37.796875 64.3125 
L 12.890625 25.390625 
L 37.796875 25.390625 
z
M 35.203125 72.90625 
L 47.609375 72.90625 
L 47.609375 25.390625 
L 58.015625 25.390625 
L 58.015625 17.1875 
L 47.609375 17.1875 
L 47.609375 0 
L 37.796875 0 
L 37.796875 17.1875 
L 4.890625 17.1875 
L 4.890625 26.703125 
z
" id="DejaVuSans-52"/>
      </defs>
      <g transform="translate(191.619752 243.037656)scale(0.1 -0.1)">
       <use xlink:href="#DejaVuSans-52"/>
       <use x="63.623047" xlink:href="#DejaVuSans-48"/>
      </g>
     </g>
    </g>
    <g id="xtick_6">
     <g id="line2d_6">
      <g>
       <use style="stroke:#000000;stroke-width:0.8;" x="234.216019" xlink:href="#m33c699e2f9" y="228.439219"/>
      </g>
     </g>
     <g id="text_6">
      <!-- 50 -->
      <defs>
       <path d="M 10.796875 72.90625 
L 49.515625 72.90625 
L 49.515625 64.59375 
L 19.828125 64.59375 
L 19.828125 46.734375 
Q 21.96875 47.46875 24.109375 47.828125 
Q 26.265625 48.1875 28.421875 48.1875 
Q 40.625 48.1875 47.75 41.5 
Q 54.890625 34.8125 54.890625 23.390625 
Q 54.890625 11.625 47.5625 5.09375 
Q 40.234375 -1.421875 26.90625 -1.421875 
Q 22.3125 -1.421875 17.546875 -0.640625 
Q 12.796875 0.140625 7.71875 1.703125 
L 7.71875 11.625 
Q 12.109375 9.234375 16.796875 8.0625 
Q 21.484375 6.890625 26.703125 6.890625 
Q 35.15625 6.890625 40.078125 11.328125 
Q 45.015625 15.765625 45.015625 23.390625 
Q 45.015625 31 40.078125 35.4375 
Q 35.15625 39.890625 26.703125 39.890625 
Q 22.75 39.890625 18.8125 39.015625 
Q 14.890625 38.140625 10.796875 36.28125 
z
" id="DejaVuSans-53"/>
      </defs>
      <g transform="translate(227.853519 243.037656)scale(0.1 -0.1)">
       <use xlink:href="#DejaVuSans-53"/>
       <use x="63.623047" xlink:href="#DejaVuSans-48"/>
      </g>
     </g>
    </g>
    <g id="xtick_7">
     <g id="line2d_7">
      <g>
       <use style="stroke:#000000;stroke-width:0.8;" x="270.449785" xlink:href="#m33c699e2f9" y="228.439219"/>
      </g>
     </g>
     <g id="text_7">
      <!-- 60 -->
      <defs>
       <path d="M 33.015625 40.375 
Q 26.375 40.375 22.484375 35.828125 
Q 18.609375 31.296875 18.609375 23.390625 
Q 18.609375 15.53125 22.484375 10.953125 
Q 26.375 6.390625 33.015625 6.390625 
Q 39.65625 6.390625 43.53125 10.953125 
Q 47.40625 15.53125 47.40625 23.390625 
Q 47.40625 31.296875 43.53125 35.828125 
Q 39.65625 40.375 33.015625 40.375 
z
M 52.59375 71.296875 
L 52.59375 62.3125 
Q 48.875 64.0625 45.09375 64.984375 
Q 41.3125 65.921875 37.59375 65.921875 
Q 27.828125 65.921875 22.671875 59.328125 
Q 17.53125 52.734375 16.796875 39.40625 
Q 19.671875 43.65625 24.015625 45.921875 
Q 28.375 48.1875 33.59375 48.1875 
Q 44.578125 48.1875 50.953125 41.515625 
Q 57.328125 34.859375 57.328125 23.390625 
Q 57.328125 12.15625 50.6875 5.359375 
Q 44.046875 -1.421875 33.015625 -1.421875 
Q 20.359375 -1.421875 13.671875 8.265625 
Q 6.984375 17.96875 6.984375 36.375 
Q 6.984375 53.65625 15.1875 63.9375 
Q 23.390625 74.21875 37.203125 74.21875 
Q 40.921875 74.21875 44.703125 73.484375 
Q 48.484375 72.75 52.59375 71.296875 
z
" id="DejaVuSans-54"/>
      </defs>
      <g transform="translate(264.087285 243.037656)scale(0.1 -0.1)">
       <use xlink:href="#DejaVuSans-54"/>
       <use x="63.623047" xlink:href="#DejaVuSans-48"/>
      </g>
     </g>
    </g>
    <g id="xtick_8">
     <g id="line2d_8">
      <g>
       <use style="stroke:#000000;stroke-width:0.8;" x="306.683551" xlink:href="#m33c699e2f9" y="228.439219"/>
      </g>
     </g>
     <g id="text_8">
      <!-- 70 -->
      <defs>
       <path d="M 8.203125 72.90625 
L 55.078125 72.90625 
L 55.078125 68.703125 
L 28.609375 0 
L 18.3125 0 
L 43.21875 64.59375 
L 8.203125 64.59375 
z
" id="DejaVuSans-55"/>
      </defs>
      <g transform="translate(300.321051 243.037656)scale(0.1 -0.1)">
       <use xlink:href="#DejaVuSans-55"/>
       <use x="63.623047" xlink:href="#DejaVuSans-48"/>
      </g>
     </g>
    </g>
    <g id="text_9">
     <!-- Time (Ma) -->
     <defs>
      <path d="M -0.296875 72.90625 
L 61.375 72.90625 
L 61.375 64.59375 
L 35.5 64.59375 
L 35.5 0 
L 25.59375 0 
L 25.59375 64.59375 
L -0.296875 64.59375 
z
" id="DejaVuSans-84"/>
      <path d="M 9.421875 54.6875 
L 18.40625 54.6875 
L 18.40625 0 
L 9.421875 0 
z
M 9.421875 75.984375 
L 18.40625 75.984375 
L 18.40625 64.59375 
L 9.421875 64.59375 
z
" id="DejaVuSans-105"/>
      <path d="M 52 44.1875 
Q 55.375 50.25 60.0625 53.125 
Q 64.75 56 71.09375 56 
Q 79.640625 56 84.28125 50.015625 
Q 88.921875 44.046875 88.921875 33.015625 
L 88.921875 0 
L 79.890625 0 
L 79.890625 32.71875 
Q 79.890625 40.578125 77.09375 44.375 
Q 74.3125 48.1875 68.609375 48.1875 
Q 61.625 48.1875 57.5625 43.546875 
Q 53.515625 38.921875 53.515625 30.90625 
L 53.515625 0 
L 44.484375 0 
L 44.484375 32.71875 
Q 44.484375 40.625 41.703125 44.40625 
Q 38.921875 48.1875 33.109375 48.1875 
Q 26.21875 48.1875 22.15625 43.53125 
Q 18.109375 38.875 18.109375 30.90625 
L 18.109375 0 
L 9.078125 0 
L 9.078125 54.6875 
L 18.109375 54.6875 
L 18.109375 46.1875 
Q 21.1875 51.21875 25.484375 53.609375 
Q 29.78125 56 35.6875 56 
Q 41.65625 56 45.828125 52.96875 
Q 50 49.953125 52 44.1875 
z
" id="DejaVuSans-109"/>
      <path d="M 56.203125 29.59375 
L 56.203125 25.203125 
L 14.890625 25.203125 
Q 15.484375 15.921875 20.484375 11.0625 
Q 25.484375 6.203125 34.421875 6.203125 
Q 39.59375 6.203125 44.453125 7.46875 
Q 49.3125 8.734375 54.109375 11.28125 
L 54.109375 2.78125 
Q 49.265625 0.734375 44.1875 -0.34375 
Q 39.109375 -1.421875 33.890625 -1.421875 
Q 20.796875 -1.421875 13.15625 6.1875 
Q 5.515625 13.8125 5.515625 26.8125 
Q 5.515625 40.234375 12.765625 48.109375 
Q 20.015625 56 32.328125 56 
Q 43.359375 56 49.78125 48.890625 
Q 56.203125 41.796875 56.203125 29.59375 
z
M 47.21875 32.234375 
Q 47.125 39.59375 43.09375 43.984375 
Q 39.0625 48.390625 32.421875 48.390625 
Q 24.90625 48.390625 20.390625 44.140625 
Q 15.875 39.890625 15.1875 32.171875 
z
" id="DejaVuSans-101"/>
      <path id="DejaVuSans-32"/>
      <path d="M 31 75.875 
Q 24.46875 64.65625 21.28125 53.65625 
Q 18.109375 42.671875 18.109375 31.390625 
Q 18.109375 20.125 21.3125 9.0625 
Q 24.515625 -2 31 -13.1875 
L 23.1875 -13.1875 
Q 15.875 -1.703125 12.234375 9.375 
Q 8.59375 20.453125 8.59375 31.390625 
Q 8.59375 42.28125 12.203125 53.3125 
Q 15.828125 64.359375 23.1875 75.875 
z
" id="DejaVuSans-40"/>
      <path d="M 9.8125 72.90625 
L 24.515625 72.90625 
L 43.109375 23.296875 
L 61.8125 72.90625 
L 76.515625 72.90625 
L 76.515625 0 
L 66.890625 0 
L 66.890625 64.015625 
L 48.09375 14.015625 
L 38.1875 14.015625 
L 19.390625 64.015625 
L 19.390625 0 
L 9.8125 0 
z
" id="DejaVuSans-77"/>
      <path d="M 34.28125 27.484375 
Q 23.390625 27.484375 19.1875 25 
Q 14.984375 22.515625 14.984375 16.5 
Q 14.984375 11.71875 18.140625 8.90625 
Q 21.296875 6.109375 26.703125 6.109375 
Q 34.1875 6.109375 38.703125 11.40625 
Q 43.21875 16.703125 43.21875 25.484375 
L 43.21875 27.484375 
z
M 52.203125 31.203125 
L 52.203125 0 
L 43.21875 0 
L 43.21875 8.296875 
Q 40.140625 3.328125 35.546875 0.953125 
Q 30.953125 -1.421875 24.3125 -1.421875 
Q 15.921875 -1.421875 10.953125 3.296875 
Q 6 8.015625 6 15.921875 
Q 6 25.140625 12.171875 29.828125 
Q 18.359375 34.515625 30.609375 34.515625 
L 43.21875 34.515625 
L 43.21875 35.40625 
Q 43.21875 41.609375 39.140625 45 
Q 35.0625 48.390625 27.6875 48.390625 
Q 23 48.390625 18.546875 47.265625 
Q 14.109375 46.140625 10.015625 43.890625 
L 10.015625 52.203125 
Q 14.9375 54.109375 19.578125 55.046875 
Q 24.21875 56 28.609375 56 
Q 40.484375 56 46.34375 49.84375 
Q 52.203125 43.703125 52.203125 31.203125 
z
" id="DejaVuSans-97"/>
      <path d="M 8.015625 75.875 
L 15.828125 75.875 
Q 23.140625 64.359375 26.78125 53.3125 
Q 30.421875 42.28125 30.421875 31.390625 
Q 30.421875 20.453125 26.78125 9.375 
Q 23.140625 -1.703125 15.828125 -13.1875 
L 8.015625 -13.1875 
Q 14.5 -2 17.703125 9.0625 
Q 20.90625 20.125 20.90625 31.390625 
Q 20.90625 42.671875 17.703125 53.65625 
Q 14.5 64.65625 8.015625 75.875 
z
" id="DejaVuSans-41"/>
     </defs>
     <g transform="translate(147.232322 258.995312)scale(0.13 -0.13)">
      <use xlink:href="#DejaVuSans-84"/>
      <use x="57.958984" xlink:href="#DejaVuSans-105"/>
      <use x="85.742188" xlink:href="#DejaVuSans-109"/>
      <use x="183.154297" xlink:href="#DejaVuSans-101"/>
      <use x="244.677734" xlink:href="#DejaVuSans-32"/>
      <use x="276.464844" xlink:href="#DejaVuSans-40"/>
      <use x="315.478516" xlink:href="#DejaVuSans-77"/>
      <use x="401.757812" xlink:href="#DejaVuSans-97"/>
      <use x="463.037109" xlink:href="#DejaVuSans-41"/>
     </g>
    </g>
   </g>
   <g id="matplotlib.axis_2">
    <g id="ytick_1">
     <g id="line2d_9">
      <defs>
       <path d="M 0 0 
L -3.5 0 
" id="mcd8a715628" style="stroke:#000000;stroke-width:0.8;"/>
      </defs>
      <g>
       <use style="stroke:#000000;stroke-width:0.8;" x="53.047188" xlink:href="#mcd8a715628" y="228.439219"/>
      </g>
     </g>
     <g id="text_10">
      <!-- 0.50 -->
      <defs>
       <path d="M 10.6875 12.40625 
L 21 12.40625 
L 21 0 
L 10.6875 0 
z
" id="DejaVuSans-46"/>
      </defs>
      <g transform="translate(23.781563 232.238437)scale(0.1 -0.1)">
       <use xlink:href="#DejaVuSans-48"/>
       <use x="63.623047" xlink:href="#DejaVuSans-46"/>
       <use x="95.410156" xlink:href="#DejaVuSans-53"/>
       <use x="159.033203" xlink:href="#DejaVuSans-48"/>
      </g>
     </g>
    </g>
    <g id="ytick_2">
     <g id="line2d_10">
      <g>
       <use style="stroke:#000000;stroke-width:0.8;" x="53.047188" xlink:href="#mcd8a715628" y="201.259219"/>
      </g>
     </g>
     <g id="text_11">
      <!-- 0.55 -->
      <g transform="translate(23.781563 205.058437)scale(0.1 -0.1)">
       <use xlink:href="#DejaVuSans-48"/>
       <use x="63.623047" xlink:href="#DejaVuSans-46"/>
       <use x="95.410156" xlink:href="#DejaVuSans-53"/>
       <use x="159.033203" xlink:href="#DejaVuSans-53"/>
      </g>
     </g>
    </g>
    <g id="ytick_3">
     <g id="line2d_11">
      <g>
       <use style="stroke:#000000;stroke-width:0.8;" x="53.047188" xlink:href="#mcd8a715628" y="174.079219"/>
      </g>
     </g>
     <g id="text_12">
      <!-- 0.60 -->
      <g transform="translate(23.781563 177.878437)scale(0.1 -0.1)">
       <use xlink:href="#DejaVuSans-48"/>
       <use x="63.623047" xlink:href="#DejaVuSans-46"/>
       <use x="95.410156" xlink:href="#DejaVuSans-54"/>
       <use x="159.033203" xlink:href="#DejaVuSans-48"/>
      </g>
     </g>
    </g>
    <g id="ytick_4">
     <g id="line2d_12">
      <g>
       <use style="stroke:#000000;stroke-width:0.8;" x="53.047188" xlink:href="#mcd8a715628" y="146.899219"/>
      </g>
     </g>
     <g id="text_13">
      <!-- 0.65 -->
      <g transform="translate(23.781563 150.698437)scale(0.1 -0.1)">
       <use xlink:href="#DejaVuSans-48"/>
       <use x="63.623047" xlink:href="#DejaVuSans-46"/>
       <use x="95.410156" xlink:href="#DejaVuSans-54"/>
       <use x="159.033203" xlink:href="#DejaVuSans-53"/>
      </g>
     </g>
    </g>
    <g id="ytick_5">
     <g id="line2d_13">
      <g>
       <use style="stroke:#000000;stroke-width:0.8;" x="53.047188" xlink:href="#mcd8a715628" y="119.719219"/>
      </g>
     </g>
     <g id="text_14">
      <!-- 0.70 -->
      <g transform="translate(23.781563 123.518438)scale(0.1 -0.1)">
       <use xlink:href="#DejaVuSans-48"/>
       <use x="63.623047" xlink:href="#DejaVuSans-46"/>
       <use x="95.410156" xlink:href="#DejaVuSans-55"/>
       <use x="159.033203" xlink:href="#DejaVuSans-48"/>
      </g>
     </g>
    </g>
    <g id="ytick_6">
     <g id="line2d_14">
      <g>
       <use style="stroke:#000000;stroke-width:0.8;" x="53.047188" xlink:href="#mcd8a715628" y="92.539219"/>
      </g>
     </g>
     <g id="text_15">
      <!-- 0.75 -->
      <g transform="translate(23.781563 96.338437)scale(0.1 -0.1)">
       <use xlink:href="#DejaVuSans-48"/>
       <use x="63.623047" xlink:href="#DejaVuSans-46"/>
       <use x="95.410156" xlink:href="#DejaVuSans-55"/>
       <use x="159.033203" xlink:href="#DejaVuSans-53"/>
      </g>
     </g>
    </g>
    <g id="ytick_7">
     <g id="line2d_15">
      <g>
       <use style="stroke:#000000;stroke-width:0.8;" x="53.047188" xlink:href="#mcd8a715628" y="65.359219"/>
      </g>
     </g>
     <g id="text_16">
      <!-- 0.80 -->
      <defs>
       <path d="M 31.78125 34.625 
Q 24.75 34.625 20.71875 30.859375 
Q 16.703125 27.09375 16.703125 20.515625 
Q 16.703125 13.921875 20.71875 10.15625 
Q 24.75 6.390625 31.78125 6.390625 
Q 38.8125 6.390625 42.859375 10.171875 
Q 46.921875 13.96875 46.921875 20.515625 
Q 46.921875 27.09375 42.890625 30.859375 
Q 38.875 34.625 31.78125 34.625 
z
M 21.921875 38.8125 
Q 15.578125 40.375 12.03125 44.71875 
Q 8.5 49.078125 8.5 55.328125 
Q 8.5 64.0625 14.71875 69.140625 
Q 20.953125 74.21875 31.78125 74.21875 
Q 42.671875 74.21875 48.875 69.140625 
Q 55.078125 64.0625 55.078125 55.328125 
Q 55.078125 49.078125 51.53125 44.71875 
Q 48 40.375 41.703125 38.8125 
Q 48.828125 37.15625 52.796875 32.3125 
Q 56.78125 27.484375 56.78125 20.515625 
Q 56.78125 9.90625 50.3125 4.234375 
Q 43.84375 -1.421875 31.78125 -1.421875 
Q 19.734375 -1.421875 13.25 4.234375 
Q 6.78125 9.90625 6.78125 20.515625 
Q 6.78125 27.484375 10.78125 32.3125 
Q 14.796875 37.15625 21.921875 38.8125 
z
M 18.3125 54.390625 
Q 18.3125 48.734375 21.84375 45.5625 
Q 25.390625 42.390625 31.78125 42.390625 
Q 38.140625 42.390625 41.71875 45.5625 
Q 45.3125 48.734375 45.3125 54.390625 
Q 45.3125 60.0625 41.71875 63.234375 
Q 38.140625 66.40625 31.78125 66.40625 
Q 25.390625 66.40625 21.84375 63.234375 
Q 18.3125 60.0625 18.3125 54.390625 
z
" id="DejaVuSans-56"/>
      </defs>
      <g transform="translate(23.781563 69.158437)scale(0.1 -0.1)">
       <use xlink:href="#DejaVuSans-48"/>
       <use x="63.623047" xlink:href="#DejaVuSans-46"/>
       <use x="95.410156" xlink:href="#DejaVuSans-56"/>
       <use x="159.033203" xlink:href="#DejaVuSans-48"/>
      </g>
     </g>
    </g>
    <g id="ytick_8">
     <g id="line2d_16">
      <g>
       <use style="stroke:#000000;stroke-width:0.8;" x="53.047188" xlink:href="#mcd8a715628" y="38.179219"/>
      </g>
     </g>
     <g id="text_17">
      <!-- 0.85 -->
      <g transform="translate(23.781563 41.978437)scale(0.1 -0.1)">
       <use xlink:href="#DejaVuSans-48"/>
       <use x="63.623047" xlink:href="#DejaVuSans-46"/>
       <use x="95.410156" xlink:href="#DejaVuSans-56"/>
       <use x="159.033203" xlink:href="#DejaVuSans-53"/>
      </g>
     </g>
    </g>
    <g id="ytick_9">
     <g id="line2d_17">
      <g>
       <use style="stroke:#000000;stroke-width:0.8;" x="53.047188" xlink:href="#mcd8a715628" y="10.999219"/>
      </g>
     </g>
     <g id="text_18">
      <!-- 0.90 -->
      <defs>
       <path d="M 10.984375 1.515625 
L 10.984375 10.5 
Q 14.703125 8.734375 18.5 7.8125 
Q 22.3125 6.890625 25.984375 6.890625 
Q 35.75 6.890625 40.890625 13.453125 
Q 46.046875 20.015625 46.78125 33.40625 
Q 43.953125 29.203125 39.59375 26.953125 
Q 35.25 24.703125 29.984375 24.703125 
Q 19.046875 24.703125 12.671875 31.3125 
Q 6.296875 37.9375 6.296875 49.421875 
Q 6.296875 60.640625 12.9375 67.421875 
Q 19.578125 74.21875 30.609375 74.21875 
Q 43.265625 74.21875 49.921875 64.515625 
Q 56.59375 54.828125 56.59375 36.375 
Q 56.59375 19.140625 48.40625 8.859375 
Q 40.234375 -1.421875 26.421875 -1.421875 
Q 22.703125 -1.421875 18.890625 -0.6875 
Q 15.09375 0.046875 10.984375 1.515625 
z
M 30.609375 32.421875 
Q 37.25 32.421875 41.125 36.953125 
Q 45.015625 41.5 45.015625 49.421875 
Q 45.015625 57.28125 41.125 61.84375 
Q 37.25 66.40625 30.609375 66.40625 
Q 23.96875 66.40625 20.09375 61.84375 
Q 16.21875 57.28125 16.21875 49.421875 
Q 16.21875 41.5 20.09375 36.953125 
Q 23.96875 32.421875 30.609375 32.421875 
z
" id="DejaVuSans-57"/>
      </defs>
      <g transform="translate(23.781563 14.798437)scale(0.1 -0.1)">
       <use xlink:href="#DejaVuSans-48"/>
       <use x="63.623047" xlink:href="#DejaVuSans-46"/>
       <use x="95.410156" xlink:href="#DejaVuSans-57"/>
       <use x="159.033203" xlink:href="#DejaVuSans-48"/>
      </g>
     </g>
    </g>
    <g id="text_19">
     <!-- Scaling Factor -->
     <defs>
      <path d="M 53.515625 70.515625 
L 53.515625 60.890625 
Q 47.90625 63.578125 42.921875 64.890625 
Q 37.9375 66.21875 33.296875 66.21875 
Q 25.25 66.21875 20.875 63.09375 
Q 16.5 59.96875 16.5 54.203125 
Q 16.5 49.359375 19.40625 46.890625 
Q 22.3125 44.4375 30.421875 42.921875 
L 36.375 41.703125 
Q 47.40625 39.59375 52.65625 34.296875 
Q 57.90625 29 57.90625 20.125 
Q 57.90625 9.515625 50.796875 4.046875 
Q 43.703125 -1.421875 29.984375 -1.421875 
Q 24.8125 -1.421875 18.96875 -0.25 
Q 13.140625 0.921875 6.890625 3.21875 
L 6.890625 13.375 
Q 12.890625 10.015625 18.65625 8.296875 
Q 24.421875 6.59375 29.984375 6.59375 
Q 38.421875 6.59375 43.015625 9.90625 
Q 47.609375 13.234375 47.609375 19.390625 
Q 47.609375 24.75 44.3125 27.78125 
Q 41.015625 30.8125 33.5 32.328125 
L 27.484375 33.5 
Q 16.453125 35.6875 11.515625 40.375 
Q 6.59375 45.0625 6.59375 53.421875 
Q 6.59375 63.09375 13.40625 68.65625 
Q 20.21875 74.21875 32.171875 74.21875 
Q 37.3125 74.21875 42.625 73.28125 
Q 47.953125 72.359375 53.515625 70.515625 
z
" id="DejaVuSans-83"/>
      <path d="M 48.78125 52.59375 
L 48.78125 44.1875 
Q 44.96875 46.296875 41.140625 47.34375 
Q 37.3125 48.390625 33.40625 48.390625 
Q 24.65625 48.390625 19.8125 42.84375 
Q 14.984375 37.3125 14.984375 27.296875 
Q 14.984375 17.28125 19.8125 11.734375 
Q 24.65625 6.203125 33.40625 6.203125 
Q 37.3125 6.203125 41.140625 7.25 
Q 44.96875 8.296875 48.78125 10.40625 
L 48.78125 2.09375 
Q 45.015625 0.34375 40.984375 -0.53125 
Q 36.96875 -1.421875 32.421875 -1.421875 
Q 20.0625 -1.421875 12.78125 6.34375 
Q 5.515625 14.109375 5.515625 27.296875 
Q 5.515625 40.671875 12.859375 48.328125 
Q 20.21875 56 33.015625 56 
Q 37.15625 56 41.109375 55.140625 
Q 45.0625 54.296875 48.78125 52.59375 
z
" id="DejaVuSans-99"/>
      <path d="M 9.421875 75.984375 
L 18.40625 75.984375 
L 18.40625 0 
L 9.421875 0 
z
" id="DejaVuSans-108"/>
      <path d="M 54.890625 33.015625 
L 54.890625 0 
L 45.90625 0 
L 45.90625 32.71875 
Q 45.90625 40.484375 42.875 44.328125 
Q 39.84375 48.1875 33.796875 48.1875 
Q 26.515625 48.1875 22.3125 43.546875 
Q 18.109375 38.921875 18.109375 30.90625 
L 18.109375 0 
L 9.078125 0 
L 9.078125 54.6875 
L 18.109375 54.6875 
L 18.109375 46.1875 
Q 21.34375 51.125 25.703125 53.5625 
Q 30.078125 56 35.796875 56 
Q 45.21875 56 50.046875 50.171875 
Q 54.890625 44.34375 54.890625 33.015625 
z
" id="DejaVuSans-110"/>
      <path d="M 45.40625 27.984375 
Q 45.40625 37.75 41.375 43.109375 
Q 37.359375 48.484375 30.078125 48.484375 
Q 22.859375 48.484375 18.828125 43.109375 
Q 14.796875 37.75 14.796875 27.984375 
Q 14.796875 18.265625 18.828125 12.890625 
Q 22.859375 7.515625 30.078125 7.515625 
Q 37.359375 7.515625 41.375 12.890625 
Q 45.40625 18.265625 45.40625 27.984375 
z
M 54.390625 6.78125 
Q 54.390625 -7.171875 48.1875 -13.984375 
Q 42 -20.796875 29.203125 -20.796875 
Q 24.46875 -20.796875 20.265625 -20.09375 
Q 16.0625 -19.390625 12.109375 -17.921875 
L 12.109375 -9.1875 
Q 16.0625 -11.328125 19.921875 -12.34375 
Q 23.78125 -13.375 27.78125 -13.375 
Q 36.625 -13.375 41.015625 -8.765625 
Q 45.40625 -4.15625 45.40625 5.171875 
L 45.40625 9.625 
Q 42.625 4.78125 38.28125 2.390625 
Q 33.9375 0 27.875 0 
Q 17.828125 0 11.671875 7.65625 
Q 5.515625 15.328125 5.515625 27.984375 
Q 5.515625 40.671875 11.671875 48.328125 
Q 17.828125 56 27.875 56 
Q 33.9375 56 38.28125 53.609375 
Q 42.625 51.21875 45.40625 46.390625 
L 45.40625 54.6875 
L 54.390625 54.6875 
z
" id="DejaVuSans-103"/>
      <path d="M 9.8125 72.90625 
L 51.703125 72.90625 
L 51.703125 64.59375 
L 19.671875 64.59375 
L 19.671875 43.109375 
L 48.578125 43.109375 
L 48.578125 34.8125 
L 19.671875 34.8125 
L 19.671875 0 
L 9.8125 0 
z
" id="DejaVuSans-70"/>
      <path d="M 18.3125 70.21875 
L 18.3125 54.6875 
L 36.8125 54.6875 
L 36.8125 47.703125 
L 18.3125 47.703125 
L 18.3125 18.015625 
Q 18.3125 11.328125 20.140625 9.421875 
Q 21.96875 7.515625 27.59375 7.515625 
L 36.8125 7.515625 
L 36.8125 0 
L 27.59375 0 
Q 17.1875 0 13.234375 3.875 
Q 9.28125 7.765625 9.28125 18.015625 
L 9.28125 47.703125 
L 2.6875 47.703125 
L 2.6875 54.6875 
L 9.28125 54.6875 
L 9.28125 70.21875 
z
" id="DejaVuSans-116"/>
      <path d="M 30.609375 48.390625 
Q 23.390625 48.390625 19.1875 42.75 
Q 14.984375 37.109375 14.984375 27.296875 
Q 14.984375 17.484375 19.15625 11.84375 
Q 23.34375 6.203125 30.609375 6.203125 
Q 37.796875 6.203125 41.984375 11.859375 
Q 46.1875 17.53125 46.1875 27.296875 
Q 46.1875 37.015625 41.984375 42.703125 
Q 37.796875 48.390625 30.609375 48.390625 
z
M 30.609375 56 
Q 42.328125 56 49.015625 48.375 
Q 55.71875 40.765625 55.71875 27.296875 
Q 55.71875 13.875 49.015625 6.21875 
Q 42.328125 -1.421875 30.609375 -1.421875 
Q 18.84375 -1.421875 12.171875 6.21875 
Q 5.515625 13.875 5.515625 27.296875 
Q 5.515625 40.765625 12.171875 48.375 
Q 18.84375 56 30.609375 56 
z
" id="DejaVuSans-111"/>
      <path d="M 41.109375 46.296875 
Q 39.59375 47.171875 37.8125 47.578125 
Q 36.03125 48 33.890625 48 
Q 26.265625 48 22.1875 43.046875 
Q 18.109375 38.09375 18.109375 28.8125 
L 18.109375 0 
L 9.078125 0 
L 9.078125 54.6875 
L 18.109375 54.6875 
L 18.109375 46.1875 
Q 20.953125 51.171875 25.484375 53.578125 
Q 30.03125 56 36.53125 56 
Q 37.453125 56 38.578125 55.875 
Q 39.703125 55.765625 41.0625 55.515625 
z
" id="DejaVuSans-114"/>
     </defs>
     <g transform="translate(17.077969 165.226328)rotate(-90)scale(0.13 -0.13)">
      <use xlink:href="#DejaVuSans-83"/>
      <use x="63.476562" xlink:href="#DejaVuSans-99"/>
      <use x="118.457031" xlink:href="#DejaVuSans-97"/>
      <use x="179.736328" xlink:href="#DejaVuSans-108"/>
      <use x="207.519531" xlink:href="#DejaVuSans-105"/>
      <use x="235.302734" xlink:href="#DejaVuSans-110"/>
      <use x="298.681641" xlink:href="#DejaVuSans-103"/>
      <use x="362.158203" xlink:href="#DejaVuSans-32"/>
      <use x="393.945312" xlink:href="#DejaVuSans-70"/>
      <use x="442.339844" xlink:href="#DejaVuSans-97"/>
      <use x="503.619141" xlink:href="#DejaVuSans-99"/>
      <use x="558.599609" xlink:href="#DejaVuSans-116"/>
      <use x="597.808594" xlink:href="#DejaVuSans-111"/>
      <use x="658.990234" xlink:href="#DejaVuSans-114"/>
     </g>
    </g>
   </g>
   <g id="LineCollection_1">
    <path clip-path="url(#pf027bb91a1)" d="M 292.37846 228.439219 
L 292.37846 10.999219 
" style="fill:none;stroke:#000000;stroke-width:1.5;"/>
   </g>
   <g id="line2d_18">
    <path clip-path="url(#pf027bb91a1)" d="M 53.047188 149.511031 
L 53.953032 144.039377 
L 54.858876 147.05918 
L 55.76472 123.573057 
L 56.670564 103.083433 
L 57.576408 107.376247 
L 58.482252 85.389676 
L 59.388097 104.368922 
L 60.293941 90.470315 
L 61.199785 121.987042 
L 62.105629 128.191 
L 63.011473 129.41023 
L 63.917317 129.863517 
L 64.823162 127.885925 
L 65.729006 110.879102 
L 66.63485 133.370857 
L 67.540694 145.672866 
L 68.446538 149.93482 
L 69.352382 145.046239 
L 70.258226 144.207414 
L 71.164071 136.68539 
L 72.069915 113.924694 
L 72.975759 72.778237 
L 73.881603 45.470964 
L 74.787447 39.586644 
L 75.693291 56.858522 
L 76.599136 78.16117 
L 77.50498 86.58222 
L 78.410824 103.402722 
L 79.316668 129.80019 
L 80.222512 144.315361 
L 81.128356 119.307775 
L 82.0342 85.748848 
L 82.940045 96.870297 
L 83.845889 118.784982 
L 84.751733 121.808432 
L 85.657577 108.461378 
L 86.563421 97.055575 
L 87.469265 111.082374 
L 88.37511 88.43551 
L 89.280954 88.397911 
L 90.186798 83.410647 
L 91.092642 76.482152 
L 91.998486 72.837638 
L 92.90433 72.394765 
L 93.810175 74.381375 
L 94.716019 75.596356 
L 95.621863 73.955408 
L 96.527707 67.156207 
L 97.433551 58.269606 
L 99.245239 71.353048 
L 100.151084 70.556154 
L 101.056928 68.043306 
L 101.962772 55.720259 
L 102.868616 32.788441 
L 103.77446 29.111025 
L 105.586149 76.756885 
L 106.491993 105.666991 
L 107.397837 121.136203 
L 108.303681 125.398458 
L 109.209525 125.576785 
L 110.115369 130.197318 
L 111.021213 139.78188 
L 111.927058 151.542164 
L 112.832902 152.514299 
L 113.738746 133.984741 
L 114.64459 78.170555 
L 115.550434 54.015595 
L 116.456278 50.850968 
L 117.362123 49.431854 
L 118.267967 48.650199 
L 119.173811 48.725545 
L 120.079655 48.686185 
L 120.985499 48.896572 
L 121.891343 49.575544 
L 122.797188 51.229 
L 123.703032 52.598175 
L 124.608876 54.411827 
L 125.51472 56.705782 
L 126.420564 60.191311 
L 127.326408 62.207442 
L 128.232252 63.412937 
L 129.138097 65.363004 
L 130.043941 69.337252 
L 131.855629 76.536157 
L 132.761473 80.578993 
L 133.667317 86.157854 
L 136.38485 99.196081 
L 137.290694 104.894809 
L 140.008226 116.882223 
L 140.914071 121.944858 
L 142.725759 128.562071 
L 143.631603 131.583022 
L 144.537447 135.470981 
L 146.349136 140.377562 
L 147.25498 142.534899 
L 148.160824 147.870109 
L 149.066668 148.971575 
L 149.972512 148.07509 
L 150.878356 146.370279 
L 151.7842 147.610092 
L 152.690045 146.888379 
L 153.595889 147.560798 
L 154.501733 149.52881 
L 155.407577 154.55902 
L 156.313421 154.851388 
L 157.219265 151.947897 
L 158.12511 144.505152 
L 159.030954 134.189629 
L 159.936798 120.137608 
L 160.842642 107.826008 
L 161.748486 102.303159 
L 162.65433 99.425417 
L 163.560175 95.803713 
L 165.371863 91.46543 
L 166.277707 88.693499 
L 167.183551 85.541226 
L 169.901084 71.715487 
L 170.806928 69.722243 
L 171.712772 74.151743 
L 172.618616 90.395386 
L 173.52446 116.970714 
L 174.430304 136.453742 
L 175.336149 146.528396 
L 176.241993 149.878789 
L 177.147837 148.499036 
L 178.053681 145.055198 
L 180.771213 129.097249 
L 181.677058 125.409195 
L 184.39459 117.690705 
L 185.300434 115.273772 
L 187.112123 111.770704 
L 188.923811 109.450454 
L 189.829655 108.631404 
L 191.641343 106.370991 
L 192.547188 105.823003 
L 193.453032 105.654412 
L 194.358876 105.62674 
L 197.076408 108.343264 
L 198.888097 111.011692 
L 200.699785 113.800297 
L 201.605629 114.914479 
L 202.511473 116.234839 
L 203.417317 116.541212 
L 204.323162 116.466672 
L 206.13485 115.406406 
L 207.040694 113.830366 
L 208.852382 109.628257 
L 209.758226 107.431487 
L 211.569915 100.938048 
L 212.475759 96.86351 
L 213.381603 93.384356 
L 217.910824 73.611509 
L 218.816668 69.978457 
L 219.722512 66.862225 
L 221.5342 62.321497 
L 222.440045 60.654603 
L 223.345889 59.325704 
L 224.251733 58.978964 
L 225.157577 58.438792 
L 226.063421 58.321799 
L 226.969265 58.610275 
L 227.87511 59.943286 
L 228.780954 61.570155 
L 229.686798 63.428049 
L 230.592642 66.196458 
L 232.40433 74.135426 
L 233.310175 79.559461 
L 234.216019 85.706252 
L 236.933551 107.95642 
L 242.368616 149.236533 
L 243.27446 157.332578 
L 244.180304 168.093531 
L 245.991993 196.525217 
L 246.897837 203.114782 
L 247.803681 200.910158 
L 248.709525 192.775614 
L 249.615369 182.811225 
L 250.521213 176.22084 
L 251.427058 173.109907 
L 252.332902 173.266938 
L 253.238746 174.153137 
L 254.14459 174.635121 
L 255.050434 170.003077 
L 256.862123 156.776182 
L 257.767967 153.577724 
L 258.673811 152.152632 
L 259.579655 151.884803 
L 260.485499 150.472573 
L 261.391343 151.942869 
L 262.297188 154.356139 
L 263.203032 157.395535 
L 264.108876 158.92677 
L 265.920564 167.396997 
L 266.826408 172.282112 
L 267.732252 171.89447 
L 268.638097 173.668326 
L 269.543941 174.58587 
L 270.449785 174.722807 
L 271.355629 169.140203 
L 272.261473 168.716554 
L 273.167317 167.437962 
L 274.073162 164.941332 
L 274.979006 156.519203 
L 276.790694 148.293526 
L 277.696538 143.154851 
L 278.602382 131.172884 
L 279.508226 123.313495 
L 280.414071 114.396681 
L 281.319915 103.654843 
L 282.225759 83.391967 
L 284.037447 62.485515 
L 285.849136 45.338898 
L 287.660824 35.146782 
L 289.472512 30.37527 
L 290.378356 31.917298 
L 291.2842 35.490639 
L 292.190045 40.887621 
L 293.095889 44.705457 
L 294.001733 51.037237 
L 294.907577 58.695879 
L 295.813421 67.510826 
L 296.719265 71.104306 
L 297.62511 77.78559 
L 298.530954 82.869637 
L 299.436798 85.944587 
L 300.342642 85.243596 
L 301.248486 86.286692 
L 302.15433 86.885895 
L 303.060175 87.328057 
L 303.966019 85.43437 
L 304.871863 85.314606 
L 305.777707 84.823118 
L 306.683551 83.726633 
L 306.683551 83.726633 
" style="fill:none;stroke:#6495ed;stroke-linecap:square;stroke-width:1.5;"/>
   </g>
   <g id="line2d_19">
    <path clip-path="url(#pf027bb91a1)" d="M 53.047188 95.944845 
L 306.683551 95.944845 
L 306.683551 95.944845 
" style="fill:none;stroke:#808080;stroke-dasharray:5.55,2.4;stroke-dashoffset:0;stroke-width:1.5;"/>
   </g>
   <g id="patch_3">
    <path d="M 53.047188 228.439219 
L 53.047188 10.999219 
" style="fill:none;stroke:#000000;stroke-linecap:square;stroke-linejoin:miter;stroke-width:0.8;"/>
   </g>
   <g id="patch_4">
    <path d="M 306.683551 228.439219 
L 306.683551 10.999219 
" style="fill:none;stroke:#000000;stroke-linecap:square;stroke-linejoin:miter;stroke-width:0.8;"/>
   </g>
   <g id="patch_5">
    <path d="M 53.047188 228.439219 
L 306.683551 228.439219 
" style="fill:none;stroke:#000000;stroke-linecap:square;stroke-linejoin:miter;stroke-width:0.8;"/>
   </g>
   <g id="patch_6">
    <path d="M 53.047188 10.999219 
L 306.683551 10.999219 
" style="fill:none;stroke:#000000;stroke-linecap:square;stroke-linejoin:miter;stroke-width:0.8;"/>
   </g>
   <g id="legend_1">
    <g id="patch_7">
     <path d="M 60.047188 223.439219 
L 243.815938 223.439219 
Q 245.815938 223.439219 245.815938 221.439219 
L 245.815938 193.082969 
Q 245.815938 191.082969 243.815938 191.082969 
L 60.047188 191.082969 
Q 58.047188 191.082969 58.047188 193.082969 
L 58.047188 221.439219 
Q 58.047188 223.439219 60.047188 223.439219 
z
" style="fill:#ffffff;opacity:0.8;stroke:#cccccc;stroke-linejoin:miter;"/>
    </g>
    <g id="line2d_20">
     <path d="M 62.047188 199.181406 
L 82.047188 199.181406 
" style="fill:none;stroke:#6495ed;stroke-linecap:square;stroke-width:1.5;"/>
    </g>
    <g id="line2d_21"/>
    <g id="text_20">
     <!-- time-varying field and latitude -->
     <defs>
      <path d="M 4.890625 31.390625 
L 31.203125 31.390625 
L 31.203125 23.390625 
L 4.890625 23.390625 
z
" id="DejaVuSans-45"/>
      <path d="M 2.984375 54.6875 
L 12.5 54.6875 
L 29.59375 8.796875 
L 46.6875 54.6875 
L 56.203125 54.6875 
L 35.6875 0 
L 23.484375 0 
z
" id="DejaVuSans-118"/>
      <path d="M 32.171875 -5.078125 
Q 28.375 -14.84375 24.75 -17.8125 
Q 21.140625 -20.796875 15.09375 -20.796875 
L 7.90625 -20.796875 
L 7.90625 -13.28125 
L 13.1875 -13.28125 
Q 16.890625 -13.28125 18.9375 -11.515625 
Q 21 -9.765625 23.484375 -3.21875 
L 25.09375 0.875 
L 2.984375 54.6875 
L 12.5 54.6875 
L 29.59375 11.921875 
L 46.6875 54.6875 
L 56.203125 54.6875 
z
" id="DejaVuSans-121"/>
      <path d="M 37.109375 75.984375 
L 37.109375 68.5 
L 28.515625 68.5 
Q 23.6875 68.5 21.796875 66.546875 
Q 19.921875 64.59375 19.921875 59.515625 
L 19.921875 54.6875 
L 34.71875 54.6875 
L 34.71875 47.703125 
L 19.921875 47.703125 
L 19.921875 0 
L 10.890625 0 
L 10.890625 47.703125 
L 2.296875 47.703125 
L 2.296875 54.6875 
L 10.890625 54.6875 
L 10.890625 58.5 
Q 10.890625 67.625 15.140625 71.796875 
Q 19.390625 75.984375 28.609375 75.984375 
z
" id="DejaVuSans-102"/>
      <path d="M 45.40625 46.390625 
L 45.40625 75.984375 
L 54.390625 75.984375 
L 54.390625 0 
L 45.40625 0 
L 45.40625 8.203125 
Q 42.578125 3.328125 38.25 0.953125 
Q 33.9375 -1.421875 27.875 -1.421875 
Q 17.96875 -1.421875 11.734375 6.484375 
Q 5.515625 14.40625 5.515625 27.296875 
Q 5.515625 40.1875 11.734375 48.09375 
Q 17.96875 56 27.875 56 
Q 33.9375 56 38.25 53.625 
Q 42.578125 51.265625 45.40625 46.390625 
z
M 14.796875 27.296875 
Q 14.796875 17.390625 18.875 11.75 
Q 22.953125 6.109375 30.078125 6.109375 
Q 37.203125 6.109375 41.296875 11.75 
Q 45.40625 17.390625 45.40625 27.296875 
Q 45.40625 37.203125 41.296875 42.84375 
Q 37.203125 48.484375 30.078125 48.484375 
Q 22.953125 48.484375 18.875 42.84375 
Q 14.796875 37.203125 14.796875 27.296875 
z
" id="DejaVuSans-100"/>
      <path d="M 8.5 21.578125 
L 8.5 54.6875 
L 17.484375 54.6875 
L 17.484375 21.921875 
Q 17.484375 14.15625 20.5 10.265625 
Q 23.53125 6.390625 29.59375 6.390625 
Q 36.859375 6.390625 41.078125 11.03125 
Q 45.3125 15.671875 45.3125 23.6875 
L 45.3125 54.6875 
L 54.296875 54.6875 
L 54.296875 0 
L 45.3125 0 
L 45.3125 8.40625 
Q 42.046875 3.421875 37.71875 1 
Q 33.40625 -1.421875 27.6875 -1.421875 
Q 18.265625 -1.421875 13.375 4.4375 
Q 8.5 10.296875 8.5 21.578125 
z
M 31.109375 56 
z
" id="DejaVuSans-117"/>
     </defs>
     <g transform="translate(90.047188 202.681406)scale(0.1 -0.1)">
      <use xlink:href="#DejaVuSans-116"/>
      <use x="39.208984" xlink:href="#DejaVuSans-105"/>
      <use x="66.992188" xlink:href="#DejaVuSans-109"/>
      <use x="164.404297" xlink:href="#DejaVuSans-101"/>
      <use x="225.927734" xlink:href="#DejaVuSans-45"/>
      <use x="259.386719" xlink:href="#DejaVuSans-118"/>
      <use x="318.566406" xlink:href="#DejaVuSans-97"/>
      <use x="379.845703" xlink:href="#DejaVuSans-114"/>
      <use x="420.958984" xlink:href="#DejaVuSans-121"/>
      <use x="480.138672" xlink:href="#DejaVuSans-105"/>
      <use x="507.921875" xlink:href="#DejaVuSans-110"/>
      <use x="571.300781" xlink:href="#DejaVuSans-103"/>
      <use x="634.777344" xlink:href="#DejaVuSans-32"/>
      <use x="666.564453" xlink:href="#DejaVuSans-102"/>
      <use x="701.769531" xlink:href="#DejaVuSans-105"/>
      <use x="729.552734" xlink:href="#DejaVuSans-101"/>
      <use x="791.076172" xlink:href="#DejaVuSans-108"/>
      <use x="818.859375" xlink:href="#DejaVuSans-100"/>
      <use x="882.335938" xlink:href="#DejaVuSans-32"/>
      <use x="914.123047" xlink:href="#DejaVuSans-97"/>
      <use x="975.402344" xlink:href="#DejaVuSans-110"/>
      <use x="1038.78125" xlink:href="#DejaVuSans-100"/>
      <use x="1102.257812" xlink:href="#DejaVuSans-32"/>
      <use x="1134.044922" xlink:href="#DejaVuSans-108"/>
      <use x="1161.828125" xlink:href="#DejaVuSans-97"/>
      <use x="1223.107422" xlink:href="#DejaVuSans-116"/>
      <use x="1262.316406" xlink:href="#DejaVuSans-105"/>
      <use x="1290.099609" xlink:href="#DejaVuSans-116"/>
      <use x="1329.308594" xlink:href="#DejaVuSans-117"/>
      <use x="1392.6875" xlink:href="#DejaVuSans-100"/>
      <use x="1456.164062" xlink:href="#DejaVuSans-101"/>
     </g>
    </g>
    <g id="line2d_22">
     <path d="M 62.047188 213.859531 
L 82.047188 213.859531 
" style="fill:none;stroke:#808080;stroke-dasharray:5.55,2.4;stroke-dashoffset:0;stroke-width:1.5;"/>
    </g>
    <g id="line2d_23"/>
    <g id="text_21">
     <!-- constant field and latitude -->
     <defs>
      <path d="M 44.28125 53.078125 
L 44.28125 44.578125 
Q 40.484375 46.53125 36.375 47.5 
Q 32.28125 48.484375 27.875 48.484375 
Q 21.1875 48.484375 17.84375 46.4375 
Q 14.5 44.390625 14.5 40.28125 
Q 14.5 37.15625 16.890625 35.375 
Q 19.28125 33.59375 26.515625 31.984375 
L 29.59375 31.296875 
Q 39.15625 29.25 43.1875 25.515625 
Q 47.21875 21.78125 47.21875 15.09375 
Q 47.21875 7.46875 41.1875 3.015625 
Q 35.15625 -1.421875 24.609375 -1.421875 
Q 20.21875 -1.421875 15.453125 -0.5625 
Q 10.6875 0.296875 5.421875 2 
L 5.421875 11.28125 
Q 10.40625 8.6875 15.234375 7.390625 
Q 20.0625 6.109375 24.8125 6.109375 
Q 31.15625 6.109375 34.5625 8.28125 
Q 37.984375 10.453125 37.984375 14.40625 
Q 37.984375 18.0625 35.515625 20.015625 
Q 33.0625 21.96875 24.703125 23.78125 
L 21.578125 24.515625 
Q 13.234375 26.265625 9.515625 29.90625 
Q 5.8125 33.546875 5.8125 39.890625 
Q 5.8125 47.609375 11.28125 51.796875 
Q 16.75 56 26.8125 56 
Q 31.78125 56 36.171875 55.265625 
Q 40.578125 54.546875 44.28125 53.078125 
z
" id="DejaVuSans-115"/>
     </defs>
     <g transform="translate(90.047188 217.359531)scale(0.1 -0.1)">
      <use xlink:href="#DejaVuSans-99"/>
      <use x="54.980469" xlink:href="#DejaVuSans-111"/>
      <use x="116.162109" xlink:href="#DejaVuSans-110"/>
      <use x="179.541016" xlink:href="#DejaVuSans-115"/>
      <use x="231.640625" xlink:href="#DejaVuSans-116"/>
      <use x="270.849609" xlink:href="#DejaVuSans-97"/>
      <use x="332.128906" xlink:href="#DejaVuSans-110"/>
      <use x="395.507812" xlink:href="#DejaVuSans-116"/>
      <use x="434.716797" xlink:href="#DejaVuSans-32"/>
      <use x="466.503906" xlink:href="#DejaVuSans-102"/>
      <use x="501.708984" xlink:href="#DejaVuSans-105"/>
      <use x="529.492188" xlink:href="#DejaVuSans-101"/>
      <use x="591.015625" xlink:href="#DejaVuSans-108"/>
      <use x="618.798828" xlink:href="#DejaVuSans-100"/>
      <use x="682.275391" xlink:href="#DejaVuSans-32"/>
      <use x="714.0625" xlink:href="#DejaVuSans-97"/>
      <use x="775.341797" xlink:href="#DejaVuSans-110"/>
      <use x="838.720703" xlink:href="#DejaVuSans-100"/>
      <use x="902.197266" xlink:href="#DejaVuSans-32"/>
      <use x="933.984375" xlink:href="#DejaVuSans-108"/>
      <use x="961.767578" xlink:href="#DejaVuSans-97"/>
      <use x="1023.046875" xlink:href="#DejaVuSans-116"/>
      <use x="1062.255859" xlink:href="#DejaVuSans-105"/>
      <use x="1090.039062" xlink:href="#DejaVuSans-116"/>
      <use x="1129.248047" xlink:href="#DejaVuSans-117"/>
      <use x="1192.626953" xlink:href="#DejaVuSans-100"/>
      <use x="1256.103516" xlink:href="#DejaVuSans-101"/>
     </g>
    </g>
   </g>
  </g>
  <g id="axes_2">
   <g id="patch_8">
    <path d="M 357.410824 228.439219 
L 611.047187 228.439219 
L 611.047187 10.999219 
L 357.410824 10.999219 
z
" style="fill:#ffffff;"/>
   </g>
   <g id="matplotlib.axis_3">
    <g id="xtick_9">
     <g id="line2d_24">
      <g>
       <use style="stroke:#000000;stroke-width:0.8;" x="357.410824" xlink:href="#m33c699e2f9" y="228.439219"/>
      </g>
     </g>
     <g id="text_22">
      <!-- 0 -->
      <g transform="translate(354.229574 243.037656)scale(0.1 -0.1)">
       <use xlink:href="#DejaVuSans-48"/>
      </g>
     </g>
    </g>
    <g id="xtick_10">
     <g id="line2d_25">
      <g>
       <use style="stroke:#000000;stroke-width:0.8;" x="393.64459" xlink:href="#m33c699e2f9" y="228.439219"/>
      </g>
     </g>
     <g id="text_23">
      <!-- 10 -->
      <g transform="translate(387.28209 243.037656)scale(0.1 -0.1)">
       <use xlink:href="#DejaVuSans-49"/>
       <use x="63.623047" xlink:href="#DejaVuSans-48"/>
      </g>
     </g>
    </g>
    <g id="xtick_11">
     <g id="line2d_26">
      <g>
       <use style="stroke:#000000;stroke-width:0.8;" x="429.878356" xlink:href="#m33c699e2f9" y="228.439219"/>
      </g>
     </g>
     <g id="text_24">
      <!-- 20 -->
      <g transform="translate(423.515856 243.037656)scale(0.1 -0.1)">
       <use xlink:href="#DejaVuSans-50"/>
       <use x="63.623047" xlink:href="#DejaVuSans-48"/>
      </g>
     </g>
    </g>
    <g id="xtick_12">
     <g id="line2d_27">
      <g>
       <use style="stroke:#000000;stroke-width:0.8;" x="466.112123" xlink:href="#m33c699e2f9" y="228.439219"/>
      </g>
     </g>
     <g id="text_25">
      <!-- 30 -->
      <g transform="translate(459.749623 243.037656)scale(0.1 -0.1)">
       <use xlink:href="#DejaVuSans-51"/>
       <use x="63.623047" xlink:href="#DejaVuSans-48"/>
      </g>
     </g>
    </g>
    <g id="xtick_13">
     <g id="line2d_28">
      <g>
       <use style="stroke:#000000;stroke-width:0.8;" x="502.345889" xlink:href="#m33c699e2f9" y="228.439219"/>
      </g>
     </g>
     <g id="text_26">
      <!-- 40 -->
      <g transform="translate(495.983389 243.037656)scale(0.1 -0.1)">
       <use xlink:href="#DejaVuSans-52"/>
       <use x="63.623047" xlink:href="#DejaVuSans-48"/>
      </g>
     </g>
    </g>
    <g id="xtick_14">
     <g id="line2d_29">
      <g>
       <use style="stroke:#000000;stroke-width:0.8;" x="538.579655" xlink:href="#m33c699e2f9" y="228.439219"/>
      </g>
     </g>
     <g id="text_27">
      <!-- 50 -->
      <g transform="translate(532.217155 243.037656)scale(0.1 -0.1)">
       <use xlink:href="#DejaVuSans-53"/>
       <use x="63.623047" xlink:href="#DejaVuSans-48"/>
      </g>
     </g>
    </g>
    <g id="xtick_15">
     <g id="line2d_30">
      <g>
       <use style="stroke:#000000;stroke-width:0.8;" x="574.813421" xlink:href="#m33c699e2f9" y="228.439219"/>
      </g>
     </g>
     <g id="text_28">
      <!-- 60 -->
      <g transform="translate(568.450921 243.037656)scale(0.1 -0.1)">
       <use xlink:href="#DejaVuSans-54"/>
       <use x="63.623047" xlink:href="#DejaVuSans-48"/>
      </g>
     </g>
    </g>
    <g id="xtick_16">
     <g id="line2d_31">
      <g>
       <use style="stroke:#000000;stroke-width:0.8;" x="611.047187" xlink:href="#m33c699e2f9" y="228.439219"/>
      </g>
     </g>
     <g id="text_29">
      <!-- 70 -->
      <g transform="translate(604.684687 243.037656)scale(0.1 -0.1)">
       <use xlink:href="#DejaVuSans-55"/>
       <use x="63.623047" xlink:href="#DejaVuSans-48"/>
      </g>
     </g>
    </g>
    <g id="text_30">
     <!-- Time (Ma) -->
     <g transform="translate(451.595959 258.995312)scale(0.13 -0.13)">
      <use xlink:href="#DejaVuSans-84"/>
      <use x="57.958984" xlink:href="#DejaVuSans-105"/>
      <use x="85.742188" xlink:href="#DejaVuSans-109"/>
      <use x="183.154297" xlink:href="#DejaVuSans-101"/>
      <use x="244.677734" xlink:href="#DejaVuSans-32"/>
      <use x="276.464844" xlink:href="#DejaVuSans-40"/>
      <use x="315.478516" xlink:href="#DejaVuSans-77"/>
      <use x="401.757812" xlink:href="#DejaVuSans-97"/>
      <use x="463.037109" xlink:href="#DejaVuSans-41"/>
     </g>
    </g>
   </g>
   <g id="matplotlib.axis_4">
    <g id="ytick_10">
     <g id="line2d_32">
      <g>
       <use style="stroke:#000000;stroke-width:0.8;" x="357.410824" xlink:href="#mcd8a715628" y="228.439219"/>
      </g>
     </g>
    </g>
    <g id="ytick_11">
     <g id="line2d_33">
      <g>
       <use style="stroke:#000000;stroke-width:0.8;" x="357.410824" xlink:href="#mcd8a715628" y="201.259219"/>
      </g>
     </g>
    </g>
    <g id="ytick_12">
     <g id="line2d_34">
      <g>
       <use style="stroke:#000000;stroke-width:0.8;" x="357.410824" xlink:href="#mcd8a715628" y="174.079219"/>
      </g>
     </g>
    </g>
    <g id="ytick_13">
     <g id="line2d_35">
      <g>
       <use style="stroke:#000000;stroke-width:0.8;" x="357.410824" xlink:href="#mcd8a715628" y="146.899219"/>
      </g>
     </g>
    </g>
    <g id="ytick_14">
     <g id="line2d_36">
      <g>
       <use style="stroke:#000000;stroke-width:0.8;" x="357.410824" xlink:href="#mcd8a715628" y="119.719219"/>
      </g>
     </g>
    </g>
    <g id="ytick_15">
     <g id="line2d_37">
      <g>
       <use style="stroke:#000000;stroke-width:0.8;" x="357.410824" xlink:href="#mcd8a715628" y="92.539219"/>
      </g>
     </g>
    </g>
    <g id="ytick_16">
     <g id="line2d_38">
      <g>
       <use style="stroke:#000000;stroke-width:0.8;" x="357.410824" xlink:href="#mcd8a715628" y="65.359219"/>
      </g>
     </g>
    </g>
    <g id="ytick_17">
     <g id="line2d_39">
      <g>
       <use style="stroke:#000000;stroke-width:0.8;" x="357.410824" xlink:href="#mcd8a715628" y="38.179219"/>
      </g>
     </g>
    </g>
    <g id="ytick_18">
     <g id="line2d_40">
      <g>
       <use style="stroke:#000000;stroke-width:0.8;" x="357.410824" xlink:href="#mcd8a715628" y="10.999219"/>
      </g>
     </g>
    </g>
   </g>
   <g id="LineCollection_2">
    <path clip-path="url(#pd3b08d3427)" d="M 596.742097 228.439219 
L 596.742097 10.999219 
" style="fill:none;stroke:#000000;stroke-width:1.5;"/>
   </g>
   <g id="line2d_41">
    <path clip-path="url(#pd3b08d3427)" d="M 357.410824 146.164908 
L 358.316668 140.594166 
L 359.222512 143.686695 
L 360.128356 119.233694 
L 361.0342 98.356291 
L 361.940045 98.203226 
L 362.845889 77.072715 
L 363.751733 95.205506 
L 364.657577 81.807413 
L 365.563421 112.363633 
L 366.469265 119.076864 
L 367.37511 120.412128 
L 368.280954 120.909636 
L 369.186798 117.728677 
L 370.092642 99.688748 
L 370.998486 123.813371 
L 371.90433 137.442029 
L 372.810175 141.139853 
L 373.716019 135.9109 
L 374.621863 134.989458 
L 375.527707 126.560674 
L 376.433551 100.616458 
L 377.339395 62.571486 
L 378.245239 38.738976 
L 379.151084 32.586313 
L 380.962772 66.358518 
L 381.868616 73.626004 
L 382.77446 89.054222 
L 383.680304 115.735052 
L 384.586149 132.519371 
L 385.491993 104.11283 
L 386.397837 72.014601 
L 387.303681 80.921084 
L 388.209525 102.469968 
L 389.115369 105.732578 
L 390.021213 91.881096 
L 390.927058 80.139941 
L 391.832902 93.450761 
L 392.738746 72.579108 
L 393.64459 72.546963 
L 395.456278 61.938544 
L 396.362123 59.05106 
L 397.267967 58.702862 
L 399.079655 60.542784 
L 399.985499 59.260785 
L 400.891343 54.033684 
L 401.797187 46.822101 
L 403.608876 56.454821 
L 404.51472 55.852901 
L 405.420564 53.252437 
L 406.326408 44.500546 
L 407.232252 22.569795 
L 408.138097 19.400422 
L 409.043941 40.4881 
L 409.949785 58.981126 
L 410.855629 82.699792 
L 411.761473 98.147713 
L 412.667317 102.001907 
L 413.573162 102.204352 
L 414.479006 107.580296 
L 415.38485 119.373767 
L 416.290694 132.975693 
L 417.196538 134.071063 
L 418.102382 111.303827 
L 419.008226 58.904557 
L 419.914071 41.258831 
L 420.819915 38.084902 
L 421.725759 36.60977 
L 422.631603 35.780711 
L 423.537447 35.409387 
L 424.443291 35.367651 
L 425.349136 35.590354 
L 426.25498 36.302871 
L 427.160824 37.415234 
L 428.066668 38.77621 
L 428.972512 40.538885 
L 429.878356 42.712979 
L 430.7842 44.447924 
L 431.690045 45.696084 
L 432.595889 46.452662 
L 433.501733 47.691092 
L 434.407577 49.505536 
L 435.313421 51.692695 
L 437.12511 56.937905 
L 438.936798 62.947807 
L 440.748486 69.455038 
L 443.466019 79.926759 
L 449.806928 105.000335 
L 451.618616 111.046704 
L 452.52446 113.801084 
L 453.430304 115.314352 
L 454.336149 114.083652 
L 456.147837 109.333024 
L 457.053681 108.316954 
L 457.959525 109.263682 
L 458.865369 112.019421 
L 459.771213 115.333506 
L 460.677058 115.718447 
L 461.582902 111.805106 
L 462.488746 101.315388 
L 463.39459 84.763553 
L 464.300434 70.609676 
L 465.206278 61.224026 
L 466.112123 57.625798 
L 467.923811 53.519123 
L 470.641343 49.750385 
L 471.547187 48.129801 
L 473.358876 43.723985 
L 474.26472 40.906696 
L 475.170564 39.531039 
L 476.076408 42.573414 
L 476.982252 50.746481 
L 477.888097 68.053593 
L 478.793941 87.583769 
L 479.699785 101.116498 
L 480.605629 105.88225 
L 481.511473 103.800084 
L 482.417317 98.912622 
L 484.229006 84.575881 
L 485.13485 78.997618 
L 486.040694 75.297047 
L 487.852382 70.497287 
L 489.664071 66.456835 
L 491.475759 63.828753 
L 493.287447 62.098341 
L 494.193291 61.532268 
L 495.099136 60.819104 
L 496.00498 59.935145 
L 496.910824 59.574942 
L 498.722512 59.446697 
L 499.628356 59.582095 
L 500.5342 60.09488 
L 501.440045 60.817789 
L 502.345889 61.703753 
L 503.251733 62.217609 
L 505.063421 64.225405 
L 505.969265 65.057604 
L 506.87511 65.613421 
L 507.780954 65.849702 
L 508.686798 65.792081 
L 509.592642 65.336152 
L 510.498486 64.565307 
L 511.40433 63.400551 
L 513.216019 60.459584 
L 515.027707 56.712255 
L 515.933551 54.692084 
L 517.745239 50.260468 
L 521.368616 42.311099 
L 523.180304 37.2968 
L 524.991993 33.336132 
L 525.897837 31.713228 
L 526.803681 30.535262 
L 527.709525 29.581852 
L 528.615369 28.971125 
L 529.521213 28.580221 
L 530.427058 28.495234 
L 531.332902 28.704582 
L 532.238746 29.359019 
L 534.050434 31.792404 
L 534.956278 33.673229 
L 535.862123 35.856523 
L 536.767967 38.57299 
L 538.579655 45.071164 
L 539.485499 48.276189 
L 541.297187 56.24595 
L 543.108876 65.521419 
L 544.01472 70.848423 
L 544.920564 77.9407 
L 546.732252 96.704904 
L 548.543941 120.308144 
L 549.449785 132.071048 
L 550.355629 141.253222 
L 551.261473 145.187981 
L 552.167317 143.862265 
L 553.073162 139.008177 
L 553.979006 133.269073 
L 554.88485 128.480052 
L 555.790694 125.948968 
L 556.696538 126.081743 
L 557.602382 128.0749 
L 558.508226 128.463981 
L 559.414071 124.503177 
L 560.319915 117.651825 
L 561.225759 111.74594 
L 562.131603 107.439588 
L 563.037447 105.454412 
L 563.943291 105.078047 
L 564.849136 105.65725 
L 565.75498 107.727492 
L 566.660824 111.052655 
L 567.566668 115.047359 
L 569.378356 124.69971 
L 571.190045 132.988325 
L 572.095889 135.60729 
L 573.001733 136.942031 
L 573.907577 137.607997 
L 574.813421 137.706051 
L 575.719265 137.105207 
L 576.62511 136.764573 
L 577.530954 135.709287 
L 578.436798 133.521175 
L 579.342642 130.439711 
L 580.248486 125.76428 
L 581.15433 120.334626 
L 582.060175 113.444439 
L 582.966019 105.582985 
L 585.683551 77.275013 
L 587.495239 58.587484 
L 588.401084 50.979885 
L 590.212772 38.076804 
L 591.118616 32.706219 
L 592.02446 28.145332 
L 592.930304 26.036999 
L 593.836149 25.905973 
L 594.741993 27.349627 
L 595.647837 30.686457 
L 596.553681 35.70393 
L 597.459525 42.61008 
L 598.365369 48.659572 
L 599.271213 55.80563 
L 601.082902 71.601766 
L 601.988746 78.341674 
L 602.89459 83.462989 
L 603.800434 86.556961 
L 604.706278 88.592733 
L 605.612123 89.66097 
L 606.517967 90.273876 
L 607.423811 90.725798 
L 609.235499 90.390632 
L 610.141343 89.881671 
L 611.047187 88.744244 
L 611.047187 88.744244 
" style="fill:none;stroke:#00008b;stroke-linecap:square;stroke-width:1.5;"/>
   </g>
   <g id="line2d_42">
    <path clip-path="url(#pd3b08d3427)" d="M 357.410824 101.200508 
L 361.0342 101.200508 
L 361.940045 105.672497 
L 364.657577 105.672497 
L 365.563421 106.643515 
L 368.280954 106.643515 
L 369.186798 107.71176 
L 371.90433 107.71176 
L 372.810175 108.800871 
L 375.527707 108.800871 
L 376.433551 109.867107 
L 379.151084 109.867107 
L 380.056928 110.920321 
L 382.77446 110.920321 
L 383.680304 111.963913 
L 386.397837 111.963913 
L 387.303681 113.006281 
L 390.021213 113.006281 
L 390.927058 114.013361 
L 393.64459 114.013361 
L 394.550434 114.992199 
L 397.267967 114.992199 
L 398.173811 115.959445 
L 400.891343 115.959445 
L 401.797187 117.159111 
L 404.51472 117.159111 
L 405.420564 118.326977 
L 408.138097 118.326977 
L 409.043941 119.408329 
L 411.761473 119.408329 
L 412.667317 120.197343 
L 415.38485 120.197343 
L 416.290694 120.980345 
L 419.008226 120.980345 
L 419.914071 121.727153 
L 422.631603 121.727153 
L 423.537447 122.505368 
L 426.25498 122.505368 
L 427.160824 123.475582 
L 429.878356 123.475582 
L 430.7842 124.774334 
L 433.501733 124.774334 
L 434.407577 126.054424 
L 437.12511 126.054424 
L 438.030954 127.286793 
L 440.748486 127.286793 
L 441.65433 128.484243 
L 444.371863 128.484243 
L 445.277707 129.632976 
L 447.995239 129.632976 
L 448.901084 130.745666 
L 451.618616 130.745666 
L 452.52446 134.399693 
L 455.241993 134.399693 
L 456.147837 137.541212 
L 458.865369 137.541212 
L 459.771213 140.200445 
L 462.488746 140.200445 
L 463.39459 142.463135 
L 466.112123 142.463135 
L 467.017967 142.748754 
L 469.735499 142.748754 
L 470.641343 142.606856 
L 473.358876 142.606856 
L 474.26472 142.473586 
L 487.852382 142.551465 
L 489.664071 142.635326 
L 495.099136 142.71799 
L 496.910824 142.798661 
L 498.722512 142.798661 
L 499.628356 143.265043 
L 502.345889 143.265043 
L 503.251733 143.723115 
L 505.969265 143.723115 
L 506.87511 144.16126 
L 509.592642 144.16126 
L 510.498486 144.570638 
L 513.216019 144.570638 
L 514.121863 144.956344 
L 516.839395 144.956344 
L 517.745239 145.325841 
L 520.462772 145.325841 
L 521.368616 145.682343 
L 524.086149 145.682343 
L 524.991993 146.187464 
L 527.709525 146.187464 
L 528.615369 146.740365 
L 531.332902 146.740365 
L 532.238746 147.206226 
L 534.956278 147.206226 
L 535.862123 147.627317 
L 538.579655 147.627317 
L 539.485499 148.107152 
L 542.203032 148.107152 
L 543.108876 148.330954 
L 549.449785 148.297942 
L 550.355629 148.005316 
L 553.073162 148.005316 
L 553.979006 147.458284 
L 556.696538 147.458284 
L 557.602382 146.417183 
L 560.319915 146.417183 
L 561.225759 144.989833 
L 563.943291 144.989833 
L 564.849136 143.155735 
L 567.566668 143.155735 
L 568.472512 140.910765 
L 571.190045 140.910765 
L 572.095889 138.237852 
L 574.813421 138.237852 
L 575.719265 134.707079 
L 578.436798 134.707079 
L 579.342642 129.465056 
L 582.060175 129.465056 
L 582.966019 123.019585 
L 585.683551 123.019585 
L 586.589395 115.125831 
L 589.306928 115.125831 
L 590.212772 110.769199 
L 592.930304 110.769199 
L 593.836149 106.068397 
L 596.553681 106.068397 
L 597.459525 101.048225 
L 600.177058 101.048225 
L 601.082902 95.749991 
L 603.800434 95.749991 
L 604.706278 92.840541 
L 607.423811 92.840541 
L 608.329655 91.043932 
L 611.047187 91.043932 
L 611.047187 91.043932 
" style="fill:none;stroke:#00008b;stroke-dasharray:5.55,2.4;stroke-dashoffset:0;stroke-width:1.5;"/>
   </g>
   <g id="patch_9">
    <path d="M 357.410824 228.439219 
L 357.410824 10.999219 
" style="fill:none;stroke:#000000;stroke-linecap:square;stroke-linejoin:miter;stroke-width:0.8;"/>
   </g>
   <g id="patch_10">
    <path d="M 611.047187 228.439219 
L 611.047187 10.999219 
" style="fill:none;stroke:#000000;stroke-linecap:square;stroke-linejoin:miter;stroke-width:0.8;"/>
   </g>
   <g id="patch_11">
    <path d="M 357.410824 228.439219 
L 611.047187 228.439219 
" style="fill:none;stroke:#000000;stroke-linecap:square;stroke-linejoin:miter;stroke-width:0.8;"/>
   </g>
   <g id="patch_12">
    <path d="M 357.410824 10.999219 
L 611.047187 10.999219 
" style="fill:none;stroke:#000000;stroke-linecap:square;stroke-linejoin:miter;stroke-width:0.8;"/>
   </g>
   <g id="legend_2">
    <g id="patch_13">
     <path d="M 364.410824 223.439219 
L 576.013949 223.439219 
Q 578.013949 223.439219 578.013949 221.439219 
L 578.013949 193.082969 
Q 578.013949 191.082969 576.013949 191.082969 
L 364.410824 191.082969 
Q 362.410824 191.082969 362.410824 193.082969 
L 362.410824 221.439219 
Q 362.410824 223.439219 364.410824 223.439219 
z
" style="fill:#ffffff;opacity:0.8;stroke:#cccccc;stroke-linejoin:miter;"/>
    </g>
    <g id="line2d_43">
     <path d="M 366.410824 199.181406 
L 386.410824 199.181406 
" style="fill:none;stroke:#00008b;stroke-linecap:square;stroke-width:1.5;"/>
    </g>
    <g id="line2d_44"/>
    <g id="text_31">
     <!-- time-varying field, constant latitude -->
     <defs>
      <path d="M 11.71875 12.40625 
L 22.015625 12.40625 
L 22.015625 4 
L 14.015625 -11.625 
L 7.71875 -11.625 
L 11.71875 4 
z
" id="DejaVuSans-44"/>
     </defs>
     <g transform="translate(394.410824 202.681406)scale(0.1 -0.1)">
      <use xlink:href="#DejaVuSans-116"/>
      <use x="39.208984" xlink:href="#DejaVuSans-105"/>
      <use x="66.992188" xlink:href="#DejaVuSans-109"/>
      <use x="164.404297" xlink:href="#DejaVuSans-101"/>
      <use x="225.927734" xlink:href="#DejaVuSans-45"/>
      <use x="259.386719" xlink:href="#DejaVuSans-118"/>
      <use x="318.566406" xlink:href="#DejaVuSans-97"/>
      <use x="379.845703" xlink:href="#DejaVuSans-114"/>
      <use x="420.958984" xlink:href="#DejaVuSans-121"/>
      <use x="480.138672" xlink:href="#DejaVuSans-105"/>
      <use x="507.921875" xlink:href="#DejaVuSans-110"/>
      <use x="571.300781" xlink:href="#DejaVuSans-103"/>
      <use x="634.777344" xlink:href="#DejaVuSans-32"/>
      <use x="666.564453" xlink:href="#DejaVuSans-102"/>
      <use x="701.769531" xlink:href="#DejaVuSans-105"/>
      <use x="729.552734" xlink:href="#DejaVuSans-101"/>
      <use x="791.076172" xlink:href="#DejaVuSans-108"/>
      <use x="818.859375" xlink:href="#DejaVuSans-100"/>
      <use x="882.335938" xlink:href="#DejaVuSans-44"/>
      <use x="914.123047" xlink:href="#DejaVuSans-32"/>
      <use x="945.910156" xlink:href="#DejaVuSans-99"/>
      <use x="1000.890625" xlink:href="#DejaVuSans-111"/>
      <use x="1062.072266" xlink:href="#DejaVuSans-110"/>
      <use x="1125.451172" xlink:href="#DejaVuSans-115"/>
      <use x="1177.550781" xlink:href="#DejaVuSans-116"/>
      <use x="1216.759766" xlink:href="#DejaVuSans-97"/>
      <use x="1278.039062" xlink:href="#DejaVuSans-110"/>
      <use x="1341.417969" xlink:href="#DejaVuSans-116"/>
      <use x="1380.626953" xlink:href="#DejaVuSans-32"/>
      <use x="1412.414062" xlink:href="#DejaVuSans-108"/>
      <use x="1440.197266" xlink:href="#DejaVuSans-97"/>
      <use x="1501.476562" xlink:href="#DejaVuSans-116"/>
      <use x="1540.685547" xlink:href="#DejaVuSans-105"/>
      <use x="1568.46875" xlink:href="#DejaVuSans-116"/>
      <use x="1607.677734" xlink:href="#DejaVuSans-117"/>
      <use x="1671.056641" xlink:href="#DejaVuSans-100"/>
      <use x="1734.533203" xlink:href="#DejaVuSans-101"/>
     </g>
    </g>
    <g id="line2d_45">
     <path d="M 366.410824 213.859531 
L 386.410824 213.859531 
" style="fill:none;stroke:#00008b;stroke-dasharray:5.55,2.4;stroke-dashoffset:0;stroke-width:1.5;"/>
    </g>
    <g id="line2d_46"/>
    <g id="text_32">
     <!-- constant field, time-varying latitude -->
     <g transform="translate(394.410824 217.359531)scale(0.1 -0.1)">
      <use xlink:href="#DejaVuSans-99"/>
      <use x="54.980469" xlink:href="#DejaVuSans-111"/>
      <use x="116.162109" xlink:href="#DejaVuSans-110"/>
      <use x="179.541016" xlink:href="#DejaVuSans-115"/>
      <use x="231.640625" xlink:href="#DejaVuSans-116"/>
      <use x="270.849609" xlink:href="#DejaVuSans-97"/>
      <use x="332.128906" xlink:href="#DejaVuSans-110"/>
      <use x="395.507812" xlink:href="#DejaVuSans-116"/>
      <use x="434.716797" xlink:href="#DejaVuSans-32"/>
      <use x="466.503906" xlink:href="#DejaVuSans-102"/>
      <use x="501.708984" xlink:href="#DejaVuSans-105"/>
      <use x="529.492188" xlink:href="#DejaVuSans-101"/>
      <use x="591.015625" xlink:href="#DejaVuSans-108"/>
      <use x="618.798828" xlink:href="#DejaVuSans-100"/>
      <use x="682.275391" xlink:href="#DejaVuSans-44"/>
      <use x="714.0625" xlink:href="#DejaVuSans-32"/>
      <use x="745.849609" xlink:href="#DejaVuSans-116"/>
      <use x="785.058594" xlink:href="#DejaVuSans-105"/>
      <use x="812.841797" xlink:href="#DejaVuSans-109"/>
      <use x="910.253906" xlink:href="#DejaVuSans-101"/>
      <use x="971.777344" xlink:href="#DejaVuSans-45"/>
      <use x="1005.236328" xlink:href="#DejaVuSans-118"/>
      <use x="1064.416016" xlink:href="#DejaVuSans-97"/>
      <use x="1125.695312" xlink:href="#DejaVuSans-114"/>
      <use x="1166.808594" xlink:href="#DejaVuSans-121"/>
      <use x="1225.988281" xlink:href="#DejaVuSans-105"/>
      <use x="1253.771484" xlink:href="#DejaVuSans-110"/>
      <use x="1317.150391" xlink:href="#DejaVuSans-103"/>
      <use x="1380.626953" xlink:href="#DejaVuSans-32"/>
      <use x="1412.414062" xlink:href="#DejaVuSans-108"/>
      <use x="1440.197266" xlink:href="#DejaVuSans-97"/>
      <use x="1501.476562" xlink:href="#DejaVuSans-116"/>
      <use x="1540.685547" xlink:href="#DejaVuSans-105"/>
      <use x="1568.46875" xlink:href="#DejaVuSans-116"/>
      <use x="1607.677734" xlink:href="#DejaVuSans-117"/>
      <use x="1671.056641" xlink:href="#DejaVuSans-100"/>
      <use x="1734.533203" xlink:href="#DejaVuSans-101"/>
     </g>
    </g>
   </g>
  </g>
 </g>
 <defs>
  <clipPath id="pf027bb91a1">
   <rect height="217.44" width="253.636364" x="53.047188" y="10.999219"/>
  </clipPath>
  <clipPath id="pd3b08d3427">
   <rect height="217.44" width="253.636364" x="357.410824" y="10.999219"/>
  </clipPath>
 </defs>
</svg>
