<?xml version="1.0" encoding="utf-8" standalone="no"?>
<!DOCTYPE svg PUBLIC "-//W3C//DTD SVG 1.1//EN"
  "http://www.w3.org/Graphics/SVG/1.1/DTD/svg11.dtd">
<!-- Created with matplotlib (https://matplotlib.org/) -->
<svg height="319.459687pt" version="1.1" viewBox="0 0 339.247187 319.459687" width="339.247187pt" xmlns="http://www.w3.org/2000/svg" xmlns:xlink="http://www.w3.org/1999/xlink">
 <defs>
  <style type="text/css">
*{stroke-linecap:butt;stroke-linejoin:round;}
  </style>
 </defs>
 <g id="figure_1">
  <g id="patch_1">
   <path d="M 0 319.459687 
L 339.247187 319.459687 
L 339.247187 0 
L 0 0 
z
" style="fill:#ffffff;"/>
  </g>
  <g id="axes_1">
   <g id="patch_2">
    <path d="M 46.684688 279 
L 325.684687 279 
L 325.684687 7.2 
L 46.684688 7.2 
z
" style="fill:#ffffff;"/>
   </g>
   <g id="matplotlib.axis_1">
    <g id="xtick_1">
     <g id="line2d_1">
      <defs>
       <path d="M 0 0 
L 0 3.5 
" id="mb12a14a70a" style="stroke:#000000;stroke-width:0.8;"/>
      </defs>
      <g>
       <use style="stroke:#000000;stroke-width:0.8;" x="46.684688" xlink:href="#mb12a14a70a" y="279"/>
      </g>
     </g>
     <g id="text_1">
      <!-- 0 -->
      <defs>
       <path d="M 31.78125 66.40625 
Q 24.171875 66.40625 20.328125 58.90625 
Q 16.5 51.421875 16.5 36.375 
Q 16.5 21.390625 20.328125 13.890625 
Q 24.171875 6.390625 31.78125 6.390625 
Q 39.453125 6.390625 43.28125 13.890625 
Q 47.125 21.390625 47.125 36.375 
Q 47.125 51.421875 43.28125 58.90625 
Q 39.453125 66.40625 31.78125 66.40625 
z
M 31.78125 74.21875 
Q 44.046875 74.21875 50.515625 64.515625 
Q 56.984375 54.828125 56.984375 36.375 
Q 56.984375 17.96875 50.515625 8.265625 
Q 44.046875 -1.421875 31.78125 -1.421875 
Q 19.53125 -1.421875 13.0625 8.265625 
Q 6.59375 17.96875 6.59375 36.375 
Q 6.59375 54.828125 13.0625 64.515625 
Q 19.53125 74.21875 31.78125 74.21875 
z
" id="DejaVuSans-48"/>
      </defs>
      <g transform="translate(43.503438 293.598437)scale(0.1 -0.1)">
       <use xlink:href="#DejaVuSans-48"/>
      </g>
     </g>
    </g>
    <g id="xtick_2">
     <g id="line2d_2">
      <g>
       <use style="stroke:#000000;stroke-width:0.8;" x="86.54183" xlink:href="#mb12a14a70a" y="279"/>
      </g>
     </g>
     <g id="text_2">
      <!-- 10 -->
      <defs>
       <path d="M 12.40625 8.296875 
L 28.515625 8.296875 
L 28.515625 63.921875 
L 10.984375 60.40625 
L 10.984375 69.390625 
L 28.421875 72.90625 
L 38.28125 72.90625 
L 38.28125 8.296875 
L 54.390625 8.296875 
L 54.390625 0 
L 12.40625 0 
z
" id="DejaVuSans-49"/>
      </defs>
      <g transform="translate(80.17933 293.598437)scale(0.1 -0.1)">
       <use xlink:href="#DejaVuSans-49"/>
       <use x="63.623047" xlink:href="#DejaVuSans-48"/>
      </g>
     </g>
    </g>
    <g id="xtick_3">
     <g id="line2d_3">
      <g>
       <use style="stroke:#000000;stroke-width:0.8;" x="126.398973" xlink:href="#mb12a14a70a" y="279"/>
      </g>
     </g>
     <g id="text_3">
      <!-- 20 -->
      <defs>
       <path d="M 19.1875 8.296875 
L 53.609375 8.296875 
L 53.609375 0 
L 7.328125 0 
L 7.328125 8.296875 
Q 12.9375 14.109375 22.625 23.890625 
Q 32.328125 33.6875 34.8125 36.53125 
Q 39.546875 41.84375 41.421875 45.53125 
Q 43.3125 49.21875 43.3125 52.78125 
Q 43.3125 58.59375 39.234375 62.25 
Q 35.15625 65.921875 28.609375 65.921875 
Q 23.96875 65.921875 18.8125 64.3125 
Q 13.671875 62.703125 7.8125 59.421875 
L 7.8125 69.390625 
Q 13.765625 71.78125 18.9375 73 
Q 24.125 74.21875 28.421875 74.21875 
Q 39.75 74.21875 46.484375 68.546875 
Q 53.21875 62.890625 53.21875 53.421875 
Q 53.21875 48.921875 51.53125 44.890625 
Q 49.859375 40.875 45.40625 35.40625 
Q 44.1875 33.984375 37.640625 27.21875 
Q 31.109375 20.453125 19.1875 8.296875 
z
" id="DejaVuSans-50"/>
      </defs>
      <g transform="translate(120.036473 293.598437)scale(0.1 -0.1)">
       <use xlink:href="#DejaVuSans-50"/>
       <use x="63.623047" xlink:href="#DejaVuSans-48"/>
      </g>
     </g>
    </g>
    <g id="xtick_4">
     <g id="line2d_4">
      <g>
       <use style="stroke:#000000;stroke-width:0.8;" x="166.256116" xlink:href="#mb12a14a70a" y="279"/>
      </g>
     </g>
     <g id="text_4">
      <!-- 30 -->
      <defs>
       <path d="M 40.578125 39.3125 
Q 47.65625 37.796875 51.625 33 
Q 55.609375 28.21875 55.609375 21.1875 
Q 55.609375 10.40625 48.1875 4.484375 
Q 40.765625 -1.421875 27.09375 -1.421875 
Q 22.515625 -1.421875 17.65625 -0.515625 
Q 12.796875 0.390625 7.625 2.203125 
L 7.625 11.71875 
Q 11.71875 9.328125 16.59375 8.109375 
Q 21.484375 6.890625 26.8125 6.890625 
Q 36.078125 6.890625 40.9375 10.546875 
Q 45.796875 14.203125 45.796875 21.1875 
Q 45.796875 27.640625 41.28125 31.265625 
Q 36.765625 34.90625 28.71875 34.90625 
L 20.21875 34.90625 
L 20.21875 43.015625 
L 29.109375 43.015625 
Q 36.375 43.015625 40.234375 45.921875 
Q 44.09375 48.828125 44.09375 54.296875 
Q 44.09375 59.90625 40.109375 62.90625 
Q 36.140625 65.921875 28.71875 65.921875 
Q 24.65625 65.921875 20.015625 65.03125 
Q 15.375 64.15625 9.8125 62.3125 
L 9.8125 71.09375 
Q 15.4375 72.65625 20.34375 73.4375 
Q 25.25 74.21875 29.59375 74.21875 
Q 40.828125 74.21875 47.359375 69.109375 
Q 53.90625 64.015625 53.90625 55.328125 
Q 53.90625 49.265625 50.4375 45.09375 
Q 46.96875 40.921875 40.578125 39.3125 
z
" id="DejaVuSans-51"/>
      </defs>
      <g transform="translate(159.893616 293.598437)scale(0.1 -0.1)">
       <use xlink:href="#DejaVuSans-51"/>
       <use x="63.623047" xlink:href="#DejaVuSans-48"/>
      </g>
     </g>
    </g>
    <g id="xtick_5">
     <g id="line2d_5">
      <g>
       <use style="stroke:#000000;stroke-width:0.8;" x="206.113259" xlink:href="#mb12a14a70a" y="279"/>
      </g>
     </g>
     <g id="text_5">
      <!-- 40 -->
      <defs>
       <path d="M 37.796875 64.3125 
L 12.890625 25.390625 
L 37.796875 25.390625 
z
M 35.203125 72.90625 
L 47.609375 72.90625 
L 47.609375 25.390625 
L 58.015625 25.390625 
L 58.015625 17.1875 
L 47.609375 17.1875 
L 47.609375 0 
L 37.796875 0 
L 37.796875 17.1875 
L 4.890625 17.1875 
L 4.890625 26.703125 
z
" id="DejaVuSans-52"/>
      </defs>
      <g transform="translate(199.750759 293.598437)scale(0.1 -0.1)">
       <use xlink:href="#DejaVuSans-52"/>
       <use x="63.623047" xlink:href="#DejaVuSans-48"/>
      </g>
     </g>
    </g>
    <g id="xtick_6">
     <g id="line2d_6">
      <g>
       <use style="stroke:#000000;stroke-width:0.8;" x="245.970402" xlink:href="#mb12a14a70a" y="279"/>
      </g>
     </g>
     <g id="text_6">
      <!-- 50 -->
      <defs>
       <path d="M 10.796875 72.90625 
L 49.515625 72.90625 
L 49.515625 64.59375 
L 19.828125 64.59375 
L 19.828125 46.734375 
Q 21.96875 47.46875 24.109375 47.828125 
Q 26.265625 48.1875 28.421875 48.1875 
Q 40.625 48.1875 47.75 41.5 
Q 54.890625 34.8125 54.890625 23.390625 
Q 54.890625 11.625 47.5625 5.09375 
Q 40.234375 -1.421875 26.90625 -1.421875 
Q 22.3125 -1.421875 17.546875 -0.640625 
Q 12.796875 0.140625 7.71875 1.703125 
L 7.71875 11.625 
Q 12.109375 9.234375 16.796875 8.0625 
Q 21.484375 6.890625 26.703125 6.890625 
Q 35.15625 6.890625 40.078125 11.328125 
Q 45.015625 15.765625 45.015625 23.390625 
Q 45.015625 31 40.078125 35.4375 
Q 35.15625 39.890625 26.703125 39.890625 
Q 22.75 39.890625 18.8125 39.015625 
Q 14.890625 38.140625 10.796875 36.28125 
z
" id="DejaVuSans-53"/>
      </defs>
      <g transform="translate(239.607902 293.598437)scale(0.1 -0.1)">
       <use xlink:href="#DejaVuSans-53"/>
       <use x="63.623047" xlink:href="#DejaVuSans-48"/>
      </g>
     </g>
    </g>
    <g id="xtick_7">
     <g id="line2d_7">
      <g>
       <use style="stroke:#000000;stroke-width:0.8;" x="285.827545" xlink:href="#mb12a14a70a" y="279"/>
      </g>
     </g>
     <g id="text_7">
      <!-- 60 -->
      <defs>
       <path d="M 33.015625 40.375 
Q 26.375 40.375 22.484375 35.828125 
Q 18.609375 31.296875 18.609375 23.390625 
Q 18.609375 15.53125 22.484375 10.953125 
Q 26.375 6.390625 33.015625 6.390625 
Q 39.65625 6.390625 43.53125 10.953125 
Q 47.40625 15.53125 47.40625 23.390625 
Q 47.40625 31.296875 43.53125 35.828125 
Q 39.65625 40.375 33.015625 40.375 
z
M 52.59375 71.296875 
L 52.59375 62.3125 
Q 48.875 64.0625 45.09375 64.984375 
Q 41.3125 65.921875 37.59375 65.921875 
Q 27.828125 65.921875 22.671875 59.328125 
Q 17.53125 52.734375 16.796875 39.40625 
Q 19.671875 43.65625 24.015625 45.921875 
Q 28.375 48.1875 33.59375 48.1875 
Q 44.578125 48.1875 50.953125 41.515625 
Q 57.328125 34.859375 57.328125 23.390625 
Q 57.328125 12.15625 50.6875 5.359375 
Q 44.046875 -1.421875 33.015625 -1.421875 
Q 20.359375 -1.421875 13.671875 8.265625 
Q 6.984375 17.96875 6.984375 36.375 
Q 6.984375 53.65625 15.1875 63.9375 
Q 23.390625 74.21875 37.203125 74.21875 
Q 40.921875 74.21875 44.703125 73.484375 
Q 48.484375 72.75 52.59375 71.296875 
z
" id="DejaVuSans-54"/>
      </defs>
      <g transform="translate(279.465045 293.598437)scale(0.1 -0.1)">
       <use xlink:href="#DejaVuSans-54"/>
       <use x="63.623047" xlink:href="#DejaVuSans-48"/>
      </g>
     </g>
    </g>
    <g id="xtick_8">
     <g id="line2d_8">
      <g>
       <use style="stroke:#000000;stroke-width:0.8;" x="325.684687" xlink:href="#mb12a14a70a" y="279"/>
      </g>
     </g>
     <g id="text_8">
      <!-- 70 -->
      <defs>
       <path d="M 8.203125 72.90625 
L 55.078125 72.90625 
L 55.078125 68.703125 
L 28.609375 0 
L 18.3125 0 
L 43.21875 64.59375 
L 8.203125 64.59375 
z
" id="DejaVuSans-55"/>
      </defs>
      <g transform="translate(319.322187 293.598437)scale(0.1 -0.1)">
       <use xlink:href="#DejaVuSans-55"/>
       <use x="63.623047" xlink:href="#DejaVuSans-48"/>
      </g>
     </g>
    </g>
    <g id="text_9">
     <!-- Time (Ma) -->
     <defs>
      <path d="M -0.296875 72.90625 
L 61.375 72.90625 
L 61.375 64.59375 
L 35.5 64.59375 
L 35.5 0 
L 25.59375 0 
L 25.59375 64.59375 
L -0.296875 64.59375 
z
" id="DejaVuSans-84"/>
      <path d="M 9.421875 54.6875 
L 18.40625 54.6875 
L 18.40625 0 
L 9.421875 0 
z
M 9.421875 75.984375 
L 18.40625 75.984375 
L 18.40625 64.59375 
L 9.421875 64.59375 
z
" id="DejaVuSans-105"/>
      <path d="M 52 44.1875 
Q 55.375 50.25 60.0625 53.125 
Q 64.75 56 71.09375 56 
Q 79.640625 56 84.28125 50.015625 
Q 88.921875 44.046875 88.921875 33.015625 
L 88.921875 0 
L 79.890625 0 
L 79.890625 32.71875 
Q 79.890625 40.578125 77.09375 44.375 
Q 74.3125 48.1875 68.609375 48.1875 
Q 61.625 48.1875 57.5625 43.546875 
Q 53.515625 38.921875 53.515625 30.90625 
L 53.515625 0 
L 44.484375 0 
L 44.484375 32.71875 
Q 44.484375 40.625 41.703125 44.40625 
Q 38.921875 48.1875 33.109375 48.1875 
Q 26.21875 48.1875 22.15625 43.53125 
Q 18.109375 38.875 18.109375 30.90625 
L 18.109375 0 
L 9.078125 0 
L 9.078125 54.6875 
L 18.109375 54.6875 
L 18.109375 46.1875 
Q 21.1875 51.21875 25.484375 53.609375 
Q 29.78125 56 35.6875 56 
Q 41.65625 56 45.828125 52.96875 
Q 50 49.953125 52 44.1875 
z
" id="DejaVuSans-109"/>
      <path d="M 56.203125 29.59375 
L 56.203125 25.203125 
L 14.890625 25.203125 
Q 15.484375 15.921875 20.484375 11.0625 
Q 25.484375 6.203125 34.421875 6.203125 
Q 39.59375 6.203125 44.453125 7.46875 
Q 49.3125 8.734375 54.109375 11.28125 
L 54.109375 2.78125 
Q 49.265625 0.734375 44.1875 -0.34375 
Q 39.109375 -1.421875 33.890625 -1.421875 
Q 20.796875 -1.421875 13.15625 6.1875 
Q 5.515625 13.8125 5.515625 26.8125 
Q 5.515625 40.234375 12.765625 48.109375 
Q 20.015625 56 32.328125 56 
Q 43.359375 56 49.78125 48.890625 
Q 56.203125 41.796875 56.203125 29.59375 
z
M 47.21875 32.234375 
Q 47.125 39.59375 43.09375 43.984375 
Q 39.0625 48.390625 32.421875 48.390625 
Q 24.90625 48.390625 20.390625 44.140625 
Q 15.875 39.890625 15.1875 32.171875 
z
" id="DejaVuSans-101"/>
      <path id="DejaVuSans-32"/>
      <path d="M 31 75.875 
Q 24.46875 64.65625 21.28125 53.65625 
Q 18.109375 42.671875 18.109375 31.390625 
Q 18.109375 20.125 21.3125 9.0625 
Q 24.515625 -2 31 -13.1875 
L 23.1875 -13.1875 
Q 15.875 -1.703125 12.234375 9.375 
Q 8.59375 20.453125 8.59375 31.390625 
Q 8.59375 42.28125 12.203125 53.3125 
Q 15.828125 64.359375 23.1875 75.875 
z
" id="DejaVuSans-40"/>
      <path d="M 9.8125 72.90625 
L 24.515625 72.90625 
L 43.109375 23.296875 
L 61.8125 72.90625 
L 76.515625 72.90625 
L 76.515625 0 
L 66.890625 0 
L 66.890625 64.015625 
L 48.09375 14.015625 
L 38.1875 14.015625 
L 19.390625 64.015625 
L 19.390625 0 
L 9.8125 0 
z
" id="DejaVuSans-77"/>
      <path d="M 34.28125 27.484375 
Q 23.390625 27.484375 19.1875 25 
Q 14.984375 22.515625 14.984375 16.5 
Q 14.984375 11.71875 18.140625 8.90625 
Q 21.296875 6.109375 26.703125 6.109375 
Q 34.1875 6.109375 38.703125 11.40625 
Q 43.21875 16.703125 43.21875 25.484375 
L 43.21875 27.484375 
z
M 52.203125 31.203125 
L 52.203125 0 
L 43.21875 0 
L 43.21875 8.296875 
Q 40.140625 3.328125 35.546875 0.953125 
Q 30.953125 -1.421875 24.3125 -1.421875 
Q 15.921875 -1.421875 10.953125 3.296875 
Q 6 8.015625 6 15.921875 
Q 6 25.140625 12.171875 29.828125 
Q 18.359375 34.515625 30.609375 34.515625 
L 43.21875 34.515625 
L 43.21875 35.40625 
Q 43.21875 41.609375 39.140625 45 
Q 35.0625 48.390625 27.6875 48.390625 
Q 23 48.390625 18.546875 47.265625 
Q 14.109375 46.140625 10.015625 43.890625 
L 10.015625 52.203125 
Q 14.9375 54.109375 19.578125 55.046875 
Q 24.21875 56 28.609375 56 
Q 40.484375 56 46.34375 49.84375 
Q 52.203125 43.703125 52.203125 31.203125 
z
" id="DejaVuSans-97"/>
      <path d="M 8.015625 75.875 
L 15.828125 75.875 
Q 23.140625 64.359375 26.78125 53.3125 
Q 30.421875 42.28125 30.421875 31.390625 
Q 30.421875 20.453125 26.78125 9.375 
Q 23.140625 -1.703125 15.828125 -13.1875 
L 8.015625 -13.1875 
Q 14.5 -2 17.703125 9.0625 
Q 20.90625 20.125 20.90625 31.390625 
Q 20.90625 42.671875 17.703125 53.65625 
Q 14.5 64.65625 8.015625 75.875 
z
" id="DejaVuSans-41"/>
     </defs>
     <g transform="translate(153.551641 309.556094)scale(0.13 -0.13)">
      <use xlink:href="#DejaVuSans-84"/>
      <use x="57.958984" xlink:href="#DejaVuSans-105"/>
      <use x="85.742188" xlink:href="#DejaVuSans-109"/>
      <use x="183.154297" xlink:href="#DejaVuSans-101"/>
      <use x="244.677734" xlink:href="#DejaVuSans-32"/>
      <use x="276.464844" xlink:href="#DejaVuSans-40"/>
      <use x="315.478516" xlink:href="#DejaVuSans-77"/>
      <use x="401.757812" xlink:href="#DejaVuSans-97"/>
      <use x="463.037109" xlink:href="#DejaVuSans-41"/>
     </g>
    </g>
   </g>
   <g id="matplotlib.axis_2">
    <g id="ytick_1">
     <g id="line2d_9">
      <defs>
       <path d="M 0 0 
L -3.5 0 
" id="m46e716182a" style="stroke:#000000;stroke-width:0.8;"/>
      </defs>
      <g>
       <use style="stroke:#000000;stroke-width:0.8;" x="46.684688" xlink:href="#m46e716182a" y="256.785631"/>
      </g>
     </g>
     <g id="text_10">
      <!-- 0.8 -->
      <defs>
       <path d="M 10.6875 12.40625 
L 21 12.40625 
L 21 0 
L 10.6875 0 
z
" id="DejaVuSans-46"/>
       <path d="M 31.78125 34.625 
Q 24.75 34.625 20.71875 30.859375 
Q 16.703125 27.09375 16.703125 20.515625 
Q 16.703125 13.921875 20.71875 10.15625 
Q 24.75 6.390625 31.78125 6.390625 
Q 38.8125 6.390625 42.859375 10.171875 
Q 46.921875 13.96875 46.921875 20.515625 
Q 46.921875 27.09375 42.890625 30.859375 
Q 38.875 34.625 31.78125 34.625 
z
M 21.921875 38.8125 
Q 15.578125 40.375 12.03125 44.71875 
Q 8.5 49.078125 8.5 55.328125 
Q 8.5 64.0625 14.71875 69.140625 
Q 20.953125 74.21875 31.78125 74.21875 
Q 42.671875 74.21875 48.875 69.140625 
Q 55.078125 64.0625 55.078125 55.328125 
Q 55.078125 49.078125 51.53125 44.71875 
Q 48 40.375 41.703125 38.8125 
Q 48.828125 37.15625 52.796875 32.3125 
Q 56.78125 27.484375 56.78125 20.515625 
Q 56.78125 9.90625 50.3125 4.234375 
Q 43.84375 -1.421875 31.78125 -1.421875 
Q 19.734375 -1.421875 13.25 4.234375 
Q 6.78125 9.90625 6.78125 20.515625 
Q 6.78125 27.484375 10.78125 32.3125 
Q 14.796875 37.15625 21.921875 38.8125 
z
M 18.3125 54.390625 
Q 18.3125 48.734375 21.84375 45.5625 
Q 25.390625 42.390625 31.78125 42.390625 
Q 38.140625 42.390625 41.71875 45.5625 
Q 45.3125 48.734375 45.3125 54.390625 
Q 45.3125 60.0625 41.71875 63.234375 
Q 38.140625 66.40625 31.78125 66.40625 
Q 25.390625 66.40625 21.84375 63.234375 
Q 18.3125 60.0625 18.3125 54.390625 
z
" id="DejaVuSans-56"/>
      </defs>
      <g transform="translate(23.781563 260.58485)scale(0.1 -0.1)">
       <use xlink:href="#DejaVuSans-48"/>
       <use x="63.623047" xlink:href="#DejaVuSans-46"/>
       <use x="95.410156" xlink:href="#DejaVuSans-56"/>
      </g>
     </g>
    </g>
    <g id="ytick_2">
     <g id="line2d_10">
      <g>
       <use style="stroke:#000000;stroke-width:0.8;" x="46.684688" xlink:href="#m46e716182a" y="196.588624"/>
      </g>
     </g>
     <g id="text_11">
      <!-- 0.9 -->
      <defs>
       <path d="M 10.984375 1.515625 
L 10.984375 10.5 
Q 14.703125 8.734375 18.5 7.8125 
Q 22.3125 6.890625 25.984375 6.890625 
Q 35.75 6.890625 40.890625 13.453125 
Q 46.046875 20.015625 46.78125 33.40625 
Q 43.953125 29.203125 39.59375 26.953125 
Q 35.25 24.703125 29.984375 24.703125 
Q 19.046875 24.703125 12.671875 31.3125 
Q 6.296875 37.9375 6.296875 49.421875 
Q 6.296875 60.640625 12.9375 67.421875 
Q 19.578125 74.21875 30.609375 74.21875 
Q 43.265625 74.21875 49.921875 64.515625 
Q 56.59375 54.828125 56.59375 36.375 
Q 56.59375 19.140625 48.40625 8.859375 
Q 40.234375 -1.421875 26.421875 -1.421875 
Q 22.703125 -1.421875 18.890625 -0.6875 
Q 15.09375 0.046875 10.984375 1.515625 
z
M 30.609375 32.421875 
Q 37.25 32.421875 41.125 36.953125 
Q 45.015625 41.5 45.015625 49.421875 
Q 45.015625 57.28125 41.125 61.84375 
Q 37.25 66.40625 30.609375 66.40625 
Q 23.96875 66.40625 20.09375 61.84375 
Q 16.21875 57.28125 16.21875 49.421875 
Q 16.21875 41.5 20.09375 36.953125 
Q 23.96875 32.421875 30.609375 32.421875 
z
" id="DejaVuSans-57"/>
      </defs>
      <g transform="translate(23.781563 200.387843)scale(0.1 -0.1)">
       <use xlink:href="#DejaVuSans-48"/>
       <use x="63.623047" xlink:href="#DejaVuSans-46"/>
       <use x="95.410156" xlink:href="#DejaVuSans-57"/>
      </g>
     </g>
    </g>
    <g id="ytick_3">
     <g id="line2d_11">
      <g>
       <use style="stroke:#000000;stroke-width:0.8;" x="46.684688" xlink:href="#m46e716182a" y="136.391618"/>
      </g>
     </g>
     <g id="text_12">
      <!-- 1.0 -->
      <g transform="translate(23.781563 140.190837)scale(0.1 -0.1)">
       <use xlink:href="#DejaVuSans-49"/>
       <use x="63.623047" xlink:href="#DejaVuSans-46"/>
       <use x="95.410156" xlink:href="#DejaVuSans-48"/>
      </g>
     </g>
    </g>
    <g id="ytick_4">
     <g id="line2d_12">
      <g>
       <use style="stroke:#000000;stroke-width:0.8;" x="46.684688" xlink:href="#m46e716182a" y="76.194611"/>
      </g>
     </g>
     <g id="text_13">
      <!-- 1.1 -->
      <g transform="translate(23.781563 79.99383)scale(0.1 -0.1)">
       <use xlink:href="#DejaVuSans-49"/>
       <use x="63.623047" xlink:href="#DejaVuSans-46"/>
       <use x="95.410156" xlink:href="#DejaVuSans-49"/>
      </g>
     </g>
    </g>
    <g id="ytick_5">
     <g id="line2d_13">
      <g>
       <use style="stroke:#000000;stroke-width:0.8;" x="46.684688" xlink:href="#m46e716182a" y="15.997605"/>
      </g>
     </g>
     <g id="text_14">
      <!-- 1.2 -->
      <g transform="translate(23.781563 19.796824)scale(0.1 -0.1)">
       <use xlink:href="#DejaVuSans-49"/>
       <use x="63.623047" xlink:href="#DejaVuSans-46"/>
       <use x="95.410156" xlink:href="#DejaVuSans-50"/>
      </g>
     </g>
    </g>
    <g id="text_15">
     <!-- Scaling factor ratio -->
     <defs>
      <path d="M 53.515625 70.515625 
L 53.515625 60.890625 
Q 47.90625 63.578125 42.921875 64.890625 
Q 37.9375 66.21875 33.296875 66.21875 
Q 25.25 66.21875 20.875 63.09375 
Q 16.5 59.96875 16.5 54.203125 
Q 16.5 49.359375 19.40625 46.890625 
Q 22.3125 44.4375 30.421875 42.921875 
L 36.375 41.703125 
Q 47.40625 39.59375 52.65625 34.296875 
Q 57.90625 29 57.90625 20.125 
Q 57.90625 9.515625 50.796875 4.046875 
Q 43.703125 -1.421875 29.984375 -1.421875 
Q 24.8125 -1.421875 18.96875 -0.25 
Q 13.140625 0.921875 6.890625 3.21875 
L 6.890625 13.375 
Q 12.890625 10.015625 18.65625 8.296875 
Q 24.421875 6.59375 29.984375 6.59375 
Q 38.421875 6.59375 43.015625 9.90625 
Q 47.609375 13.234375 47.609375 19.390625 
Q 47.609375 24.75 44.3125 27.78125 
Q 41.015625 30.8125 33.5 32.328125 
L 27.484375 33.5 
Q 16.453125 35.6875 11.515625 40.375 
Q 6.59375 45.0625 6.59375 53.421875 
Q 6.59375 63.09375 13.40625 68.65625 
Q 20.21875 74.21875 32.171875 74.21875 
Q 37.3125 74.21875 42.625 73.28125 
Q 47.953125 72.359375 53.515625 70.515625 
z
" id="DejaVuSans-83"/>
      <path d="M 48.78125 52.59375 
L 48.78125 44.1875 
Q 44.96875 46.296875 41.140625 47.34375 
Q 37.3125 48.390625 33.40625 48.390625 
Q 24.65625 48.390625 19.8125 42.84375 
Q 14.984375 37.3125 14.984375 27.296875 
Q 14.984375 17.28125 19.8125 11.734375 
Q 24.65625 6.203125 33.40625 6.203125 
Q 37.3125 6.203125 41.140625 7.25 
Q 44.96875 8.296875 48.78125 10.40625 
L 48.78125 2.09375 
Q 45.015625 0.34375 40.984375 -0.53125 
Q 36.96875 -1.421875 32.421875 -1.421875 
Q 20.0625 -1.421875 12.78125 6.34375 
Q 5.515625 14.109375 5.515625 27.296875 
Q 5.515625 40.671875 12.859375 48.328125 
Q 20.21875 56 33.015625 56 
Q 37.15625 56 41.109375 55.140625 
Q 45.0625 54.296875 48.78125 52.59375 
z
" id="DejaVuSans-99"/>
      <path d="M 9.421875 75.984375 
L 18.40625 75.984375 
L 18.40625 0 
L 9.421875 0 
z
" id="DejaVuSans-108"/>
      <path d="M 54.890625 33.015625 
L 54.890625 0 
L 45.90625 0 
L 45.90625 32.71875 
Q 45.90625 40.484375 42.875 44.328125 
Q 39.84375 48.1875 33.796875 48.1875 
Q 26.515625 48.1875 22.3125 43.546875 
Q 18.109375 38.921875 18.109375 30.90625 
L 18.109375 0 
L 9.078125 0 
L 9.078125 54.6875 
L 18.109375 54.6875 
L 18.109375 46.1875 
Q 21.34375 51.125 25.703125 53.5625 
Q 30.078125 56 35.796875 56 
Q 45.21875 56 50.046875 50.171875 
Q 54.890625 44.34375 54.890625 33.015625 
z
" id="DejaVuSans-110"/>
      <path d="M 45.40625 27.984375 
Q 45.40625 37.75 41.375 43.109375 
Q 37.359375 48.484375 30.078125 48.484375 
Q 22.859375 48.484375 18.828125 43.109375 
Q 14.796875 37.75 14.796875 27.984375 
Q 14.796875 18.265625 18.828125 12.890625 
Q 22.859375 7.515625 30.078125 7.515625 
Q 37.359375 7.515625 41.375 12.890625 
Q 45.40625 18.265625 45.40625 27.984375 
z
M 54.390625 6.78125 
Q 54.390625 -7.171875 48.1875 -13.984375 
Q 42 -20.796875 29.203125 -20.796875 
Q 24.46875 -20.796875 20.265625 -20.09375 
Q 16.0625 -19.390625 12.109375 -17.921875 
L 12.109375 -9.1875 
Q 16.0625 -11.328125 19.921875 -12.34375 
Q 23.78125 -13.375 27.78125 -13.375 
Q 36.625 -13.375 41.015625 -8.765625 
Q 45.40625 -4.15625 45.40625 5.171875 
L 45.40625 9.625 
Q 42.625 4.78125 38.28125 2.390625 
Q 33.9375 0 27.875 0 
Q 17.828125 0 11.671875 7.65625 
Q 5.515625 15.328125 5.515625 27.984375 
Q 5.515625 40.671875 11.671875 48.328125 
Q 17.828125 56 27.875 56 
Q 33.9375 56 38.28125 53.609375 
Q 42.625 51.21875 45.40625 46.390625 
L 45.40625 54.6875 
L 54.390625 54.6875 
z
" id="DejaVuSans-103"/>
      <path d="M 37.109375 75.984375 
L 37.109375 68.5 
L 28.515625 68.5 
Q 23.6875 68.5 21.796875 66.546875 
Q 19.921875 64.59375 19.921875 59.515625 
L 19.921875 54.6875 
L 34.71875 54.6875 
L 34.71875 47.703125 
L 19.921875 47.703125 
L 19.921875 0 
L 10.890625 0 
L 10.890625 47.703125 
L 2.296875 47.703125 
L 2.296875 54.6875 
L 10.890625 54.6875 
L 10.890625 58.5 
Q 10.890625 67.625 15.140625 71.796875 
Q 19.390625 75.984375 28.609375 75.984375 
z
" id="DejaVuSans-102"/>
      <path d="M 18.3125 70.21875 
L 18.3125 54.6875 
L 36.8125 54.6875 
L 36.8125 47.703125 
L 18.3125 47.703125 
L 18.3125 18.015625 
Q 18.3125 11.328125 20.140625 9.421875 
Q 21.96875 7.515625 27.59375 7.515625 
L 36.8125 7.515625 
L 36.8125 0 
L 27.59375 0 
Q 17.1875 0 13.234375 3.875 
Q 9.28125 7.765625 9.28125 18.015625 
L 9.28125 47.703125 
L 2.6875 47.703125 
L 2.6875 54.6875 
L 9.28125 54.6875 
L 9.28125 70.21875 
z
" id="DejaVuSans-116"/>
      <path d="M 30.609375 48.390625 
Q 23.390625 48.390625 19.1875 42.75 
Q 14.984375 37.109375 14.984375 27.296875 
Q 14.984375 17.484375 19.15625 11.84375 
Q 23.34375 6.203125 30.609375 6.203125 
Q 37.796875 6.203125 41.984375 11.859375 
Q 46.1875 17.53125 46.1875 27.296875 
Q 46.1875 37.015625 41.984375 42.703125 
Q 37.796875 48.390625 30.609375 48.390625 
z
M 30.609375 56 
Q 42.328125 56 49.015625 48.375 
Q 55.71875 40.765625 55.71875 27.296875 
Q 55.71875 13.875 49.015625 6.21875 
Q 42.328125 -1.421875 30.609375 -1.421875 
Q 18.84375 -1.421875 12.171875 6.21875 
Q 5.515625 13.875 5.515625 27.296875 
Q 5.515625 40.765625 12.171875 48.375 
Q 18.84375 56 30.609375 56 
z
" id="DejaVuSans-111"/>
      <path d="M 41.109375 46.296875 
Q 39.59375 47.171875 37.8125 47.578125 
Q 36.03125 48 33.890625 48 
Q 26.265625 48 22.1875 43.046875 
Q 18.109375 38.09375 18.109375 28.8125 
L 18.109375 0 
L 9.078125 0 
L 9.078125 54.6875 
L 18.109375 54.6875 
L 18.109375 46.1875 
Q 20.953125 51.171875 25.484375 53.578125 
Q 30.03125 56 36.53125 56 
Q 37.453125 56 38.578125 55.875 
Q 39.703125 55.765625 41.0625 55.515625 
z
" id="DejaVuSans-114"/>
     </defs>
     <g transform="translate(17.077969 204.802266)rotate(-90)scale(0.13 -0.13)">
      <use xlink:href="#DejaVuSans-83"/>
      <use x="63.476562" xlink:href="#DejaVuSans-99"/>
      <use x="118.457031" xlink:href="#DejaVuSans-97"/>
      <use x="179.736328" xlink:href="#DejaVuSans-108"/>
      <use x="207.519531" xlink:href="#DejaVuSans-105"/>
      <use x="235.302734" xlink:href="#DejaVuSans-110"/>
      <use x="298.681641" xlink:href="#DejaVuSans-103"/>
      <use x="362.158203" xlink:href="#DejaVuSans-32"/>
      <use x="393.945312" xlink:href="#DejaVuSans-102"/>
      <use x="429.150391" xlink:href="#DejaVuSans-97"/>
      <use x="490.429688" xlink:href="#DejaVuSans-99"/>
      <use x="545.410156" xlink:href="#DejaVuSans-116"/>
      <use x="584.619141" xlink:href="#DejaVuSans-111"/>
      <use x="645.800781" xlink:href="#DejaVuSans-114"/>
      <use x="686.914062" xlink:href="#DejaVuSans-32"/>
      <use x="718.701172" xlink:href="#DejaVuSans-114"/>
      <use x="759.814453" xlink:href="#DejaVuSans-97"/>
      <use x="821.09375" xlink:href="#DejaVuSans-116"/>
      <use x="860.302734" xlink:href="#DejaVuSans-105"/>
      <use x="888.085938" xlink:href="#DejaVuSans-111"/>
     </g>
    </g>
   </g>
   <g id="line2d_14">
    <path clip-path="url(#p8d9acb3afc)" d="M 46.684688 65.50477 
L 46.883973 144.964408 
L 47.083259 148.22136 
L 47.282545 160.728864 
L 47.48183 122.168915 
L 47.880402 144.272631 
L 48.079688 134.166862 
L 48.478259 154.548343 
L 48.677545 145.571401 
L 48.87683 107.406497 
L 49.076116 106.639702 
L 49.474688 80.472427 
L 49.673973 150.66402 
L 49.873259 152.528941 
L 50.471116 62.238859 
L 51.068973 143.909937 
L 51.467545 175.529907 
L 51.66683 173.969791 
L 52.065402 53.718614 
L 52.862545 179.096988 
L 53.06183 157.834367 
L 53.261116 153.616809 
L 53.659688 141.210661 
L 53.858973 116.312275 
L 54.058259 112.32023 
L 54.257545 115.452994 
L 54.656116 129.908123 
L 54.855402 180.29815 
L 55.253973 196.519316 
L 55.652545 157.781504 
L 55.85183 152.624101 
L 56.051116 143.153796 
L 56.648973 135.79272 
L 56.848259 135.901832 
L 57.047545 146.159525 
L 57.24683 148.907181 
L 57.446116 133.560866 
L 58.043973 132.80438 
L 58.442545 154.563769 
L 58.64183 151.012621 
L 58.841116 135.669002 
L 59.040402 132.955529 
L 59.239688 126.307357 
L 59.438973 128.120135 
L 59.638259 134.459136 
L 59.837545 107.014558 
L 60.03683 105.596123 
L 60.236116 111.804976 
L 60.634688 134.617936 
L 60.833973 176.486604 
L 61.033259 179.856567 
L 61.232545 175.082354 
L 61.631116 151.919641 
L 61.830402 162.500815 
L 62.228973 153.16625 
L 62.627545 144.685537 
L 62.82683 147.003782 
L 63.424688 138.756923 
L 63.623973 137.391064 
L 63.823259 128.55175 
L 64.022545 128.880933 
L 64.421116 132.914425 
L 64.819688 137.25466 
L 65.018973 138.18162 
L 65.218259 137.455966 
L 65.417545 137.380465 
L 65.61683 137.644529 
L 65.816116 124.969813 
L 66.015402 125.230047 
L 66.413973 127.193593 
L 66.613259 129.56901 
L 66.812545 93.685677 
L 67.410402 110.962664 
L 67.609688 118.770831 
L 67.808973 62.461991 
L 68.606116 112.637205 
L 68.805402 86.57988 
L 69.403259 122.002196 
L 69.602545 129.749323 
L 69.80183 127.792684 
L 70.200402 134.721286 
L 70.598973 138.963883 
L 70.798259 161.451661 
L 70.997545 161.14807 
L 71.19683 160.246198 
L 71.595402 152.933531 
L 71.794688 175.37854 
L 72.193259 158.177843 
L 72.59183 140.02837 
L 72.791116 148.347352 
L 72.990402 148.501422 
L 73.388973 152.002804 
L 73.588259 150.712744 
L 73.787545 169.460543 
L 74.186116 155.502957 
L 74.584688 148.168712 
L 74.783973 181.875584 
L 75.38183 166.525174 
L 75.581116 158.886405 
L 75.780402 173.376731 
L 76.577545 135.404733 
L 76.77683 89.58658 
L 76.976116 92.389465 
L 77.374688 107.356192 
L 77.573973 116.877228 
L 77.773259 73.484613 
L 78.570402 121.997986 
L 78.769688 146.315089 
L 79.168259 161.690103 
L 79.367545 163.992418 
L 79.56683 157.477349 
L 79.766116 179.559045 
L 80.363973 154.10126 
L 80.563259 147.263291 
L 80.762545 146.45587 
L 81.161116 138.645382 
L 81.360402 137.024854 
L 81.559688 136.633795 
L 81.758973 115.343564 
L 81.958259 116.070278 
L 82.157545 117.893416 
L 82.556116 126.113801 
L 82.755402 112.56116 
L 83.552545 136.516875 
L 83.75183 159.882574 
L 83.951116 161.259983 
L 84.150402 160.126354 
L 84.349688 157.431439 
L 84.548973 151.128344 
L 84.748259 107.867587 
L 85.14683 94.010254 
L 85.346116 99.526247 
L 85.744688 141.140127 
L 85.943973 145.000695 
L 86.143259 142.413458 
L 86.342545 141.341476 
L 86.54183 139.244985 
L 86.741116 129.419274 
L 86.940402 128.384056 
L 87.139688 128.708 
L 87.538259 133.421644 
L 87.737545 126.077046 
L 88.534688 135.234863 
L 88.733973 131.99807 
L 89.531116 136.98579 
L 89.929688 137.884287 
L 90.128973 138.484134 
L 90.328259 138.606943 
L 90.527545 138.532885 
L 90.72683 139.93882 
L 90.926116 139.892359 
L 91.125402 140.119284 
L 91.523973 139.484553 
L 91.723259 140.709417 
L 92.321116 139.066953 
L 92.520402 138.826057 
L 92.719688 136.010672 
L 92.918973 135.804338 
L 93.317545 135.984153 
L 93.51683 136.288157 
L 93.716116 127.33172 
L 94.114688 129.850271 
L 94.513259 133.705707 
L 94.712545 122.003515 
L 95.509688 132.462867 
L 95.708973 144.655801 
L 96.107545 150.244406 
L 96.30683 151.414865 
L 96.506116 151.842953 
L 96.705402 159.337541 
L 96.904688 151.489331 
L 97.303259 124.958566 
L 97.502545 128.437778 
L 97.70183 136.895352 
L 97.901116 139.863212 
L 98.100402 140.678239 
L 98.299688 140.976191 
L 98.498973 140.255302 
L 98.698259 134.051495 
L 99.09683 132.388496 
L 99.296116 132.307335 
L 99.495402 133.390604 
L 99.694688 117.90198 
L 100.093259 123.753336 
L 100.49183 131.451755 
L 100.691116 103.440112 
L 100.890402 105.979099 
L 101.089688 110.020285 
L 102.086116 140.917898 
L 102.285402 143.124012 
L 102.484688 143.551586 
L 102.683973 171.03525 
L 102.883259 168.74063 
L 103.28183 157.441936 
L 103.481116 149.572612 
L 103.680402 177.007262 
L 104.477545 153.880097 
L 104.67683 187.380437 
L 105.473973 153.308457 
L 105.673259 168.272697 
L 106.271116 149.103102 
L 106.470402 144.919923 
L 106.669688 146.020541 
L 107.068259 140.801026 
L 107.267545 139.216553 
L 107.666116 138.424893 
L 107.865402 138.401842 
L 108.064688 138.507689 
L 108.463259 138.994078 
L 108.662545 146.496905 
L 108.86183 146.250521 
L 109.260402 144.290395 
L 109.459688 142.729931 
L 109.658973 156.189955 
L 110.25683 149.214822 
L 110.456116 146.896836 
L 110.655402 161.75473 
L 111.65183 142.362128 
L 112.050402 136.835708 
L 112.249688 135.656183 
L 112.448973 135.9024 
L 112.648259 104.141011 
L 112.847545 105.281875 
L 113.04683 107.339225 
L 113.445402 116.734928 
L 113.644688 31.891711 
L 114.043259 61.572661 
L 114.44183 103.451423 
L 114.641116 87.738364 
L 115.039688 119.422032 
L 115.438259 134.19738 
L 115.637545 132.905503 
L 116.036116 135.997417 
L 116.434688 137.35927 
L 116.633973 136.008555 
L 117.032545 136.984913 
L 117.431116 137.694203 
L 117.630402 137.169232 
L 118.427545 138.103175 
L 118.62683 137.846558 
L 119.025402 138.043814 
L 119.423973 138.289851 
L 119.623259 138.258625 
L 120.02183 138.435007 
L 120.420402 138.324022 
L 120.619688 138.652934 
L 121.018259 138.738601 
L 121.41683 138.564078 
L 121.616116 139.403287 
L 122.413259 138.912243 
L 122.612545 140.14172 
L 123.011116 139.549073 
L 123.409688 139.101459 
L 123.608973 140.455128 
L 124.406116 139.231205 
L 124.605402 141.208957 
L 125.402545 139.447705 
L 125.60183 142.022628 
L 126.398973 139.682607 
L 126.598259 142.483233 
L 127.395402 139.738986 
L 127.594688 141.803397 
L 128.39183 139.210363 
L 128.591116 140.479612 
L 129.388259 138.950601 
L 129.587545 141.394591 
L 130.185402 140.367469 
L 130.384688 139.733659 
L 130.583973 143.077449 
L 131.381116 140.065298 
L 131.580402 143.969975 
L 132.377545 140.409351 
L 132.57683 144.743891 
L 133.373973 140.584022 
L 133.573259 145.203535 
L 134.370402 140.647621 
L 134.569688 145.590475 
L 135.36683 140.839434 
L 135.566116 145.916482 
L 136.363259 140.860532 
L 136.562545 145.874276 
L 137.359688 140.916377 
L 137.558973 146.03804 
L 138.356116 140.956986 
L 138.555402 145.997632 
L 139.352545 140.91754 
L 139.55183 145.841819 
L 140.348973 140.80145 
L 140.548259 145.84904 
L 141.345402 140.796126 
L 141.544688 145.48675 
L 142.34183 140.766773 
L 142.541116 145.368699 
L 143.338259 140.678907 
L 143.537545 144.893967 
L 144.334688 140.425302 
L 144.533973 144.576838 
L 145.331116 140.421184 
L 145.530402 144.211997 
L 146.327545 140.274219 
L 146.52683 143.795842 
L 147.323973 140.123078 
L 147.523259 143.410039 
L 148.320402 140.004828 
L 148.519688 143.051186 
L 149.31683 139.877092 
L 149.516116 142.706735 
L 150.313259 139.839733 
L 150.512545 142.436521 
L 151.309687 139.650181 
L 151.508973 140.84591 
L 152.306116 138.535745 
L 152.505402 136.688336 
L 152.704688 136.766425 
L 152.903973 136.720002 
L 153.103259 136.883343 
L 153.302545 137.276866 
L 153.50183 134.796718 
L 154.099688 136.484239 
L 154.298973 136.945231 
L 154.498259 134.621275 
L 155.295402 137.316813 
L 155.494687 136.634385 
L 155.893259 137.688075 
L 156.29183 138.088793 
L 156.491116 139.53234 
L 156.889688 139.543823 
L 157.088973 139.544007 
L 157.288259 139.27472 
L 157.487545 142.191014 
L 158.284688 140.129541 
L 158.483973 143.660123 
L 159.281116 139.581991 
L 159.480402 139.292854 
L 160.078259 137.750162 
L 160.277545 137.706501 
L 160.47683 132.811843 
L 160.875402 133.558921 
L 161.273973 135.524274 
L 161.473259 123.828861 
L 162.071116 128.841681 
L 162.270402 131.530163 
L 162.469688 113.274546 
L 163.26683 129.274715 
L 163.466116 110.534665 
L 164.263259 129.827856 
L 164.462545 113.860392 
L 165.259688 133.009272 
L 165.458973 127.518822 
L 166.05683 134.592054 
L 166.256116 136.313672 
L 166.455402 132.776069 
L 166.654688 133.285095 
L 167.252545 136.391302 
L 167.45183 131.453419 
L 168.248973 136.634702 
L 168.448259 134.401969 
L 168.84683 135.508886 
L 169.245402 137.45918 
L 169.444688 134.63698 
L 170.24183 136.800527 
L 170.441116 133.661249 
L 170.839688 135.380854 
L 171.238259 137.024388 
L 171.437545 133.134837 
L 171.836116 134.133117 
L 172.234688 136.035978 
L 172.433973 130.505323 
L 173.231116 135.10082 
L 173.430402 130.480495 
L 174.227545 136.135648 
L 174.42683 130.743233 
L 175.223973 136.019888 
L 175.423259 134.096157 
L 175.622545 135.182045 
L 176.021116 138.400342 
L 176.220402 139.222529 
L 176.419688 145.126585 
L 176.618973 144.999208 
L 177.017545 143.023389 
L 177.21683 141.859871 
L 177.416116 163.464018 
L 177.814687 159.426309 
L 178.213259 152.803 
L 178.412545 185.390062 
L 179.209688 155.142614 
L 179.408973 177.57888 
L 180.206116 146.748023 
L 180.405402 158.550086 
L 181.202545 144.293997 
L 181.40183 146.383452 
L 181.999688 139.101246 
L 182.198973 137.745231 
L 182.398259 135.384875 
L 182.597545 135.939885 
L 182.996116 136.458172 
L 183.195402 137.123484 
L 183.394688 131.72233 
L 183.793259 132.978736 
L 184.19183 135.338402 
L 184.391116 127.75751 
L 185.188259 134.779988 
L 185.387545 126.781536 
L 186.184687 134.733383 
L 186.383973 128.471703 
L 187.181116 135.488922 
L 187.380402 130.854544 
L 187.978259 135.224976 
L 188.177545 136.257826 
L 188.37683 133.019501 
L 188.974688 136.064845 
L 189.173973 136.653254 
L 189.373259 133.304564 
L 190.170402 136.836889 
L 190.369688 133.573185 
L 190.967545 135.929516 
L 191.16683 136.719645 
L 191.366116 133.607424 
L 192.163259 137.123386 
L 192.362545 134.792256 
L 193.159688 137.384037 
L 193.358973 135.218935 
L 194.156116 137.237221 
L 194.355402 135.971468 
L 194.953259 137.497479 
L 195.152545 137.707955 
L 195.35183 136.160388 
L 195.551116 136.384453 
L 196.148973 137.553561 
L 196.348259 136.816235 
L 196.74683 137.446656 
L 197.145402 138.188364 
L 197.344688 136.492549 
L 197.543973 136.450878 
L 197.942545 137.252447 
L 198.14183 137.588021 
L 198.341116 136.00315 
L 198.739688 136.723625 
L 199.138259 137.457398 
L 199.337545 137.260516 
L 199.53683 137.772979 
L 200.134687 138.178668 
L 200.333973 137.883199 
L 200.533259 137.936477 
L 200.732545 138.143501 
L 200.93183 138.624515 
L 201.330402 138.306474 
L 201.529688 138.364802 
L 201.928259 138.230039 
L 202.32683 138.71386 
L 202.526116 138.678274 
L 202.725402 138.757589 
L 202.924688 138.461231 
L 203.123973 138.665201 
L 203.323259 139.681759 
L 203.522545 139.768522 
L 204.120402 138.812327 
L 204.319688 140.118278 
L 204.518973 139.883541 
L 204.718259 139.862088 
L 204.917545 139.709525 
L 205.11683 139.278565 
L 205.316116 140.8331 
L 206.113259 138.906909 
L 206.312545 139.530727 
L 206.51183 139.552472 
L 207.109688 138.947975 
L 207.308973 140.940756 
L 208.106116 139.469457 
L 208.305402 140.969011 
L 209.102545 138.956963 
L 209.30183 140.432142 
L 209.501116 140.187541 
L 210.098973 138.979504 
L 210.298259 139.797908 
L 210.497545 139.561173 
L 210.896116 138.858881 
L 211.095402 138.76012 
L 211.294688 138.998258 
L 211.493973 138.871003 
L 211.693259 138.573502 
L 212.291116 138.386994 
L 212.490402 138.435711 
L 212.689688 138.016104 
L 213.088259 137.971238 
L 213.287545 137.221393 
L 213.686116 137.666696 
L 214.084688 137.919842 
L 214.283973 136.480768 
L 214.682545 136.973636 
L 215.081116 137.722972 
L 215.280402 135.46799 
L 216.077545 137.128095 
L 216.27683 134.588994 
L 217.073973 137.192193 
L 217.273259 134.38798 
L 217.871116 136.103685 
L 218.070402 136.931405 
L 218.269688 133.277746 
L 219.06683 136.586242 
L 219.266116 132.710181 
L 220.063259 136.395142 
L 220.262545 132.275296 
L 221.059687 136.054342 
L 221.258973 130.980028 
L 222.056116 135.982137 
L 222.255402 131.348387 
L 223.052545 135.988278 
L 223.25183 131.161933 
L 224.048973 136.155221 
L 224.248259 131.247446 
L 225.045402 135.961675 
L 225.244688 131.093093 
L 226.04183 136.172276 
L 226.241116 131.46828 
L 226.639688 133.821988 
L 227.038259 136.126027 
L 227.237545 131.540203 
L 228.034688 136.125729 
L 228.233973 132.156884 
L 229.031116 136.348742 
L 229.230402 133.010931 
L 230.027545 136.857693 
L 230.22683 133.801033 
L 231.023973 136.878437 
L 231.223259 134.312911 
L 231.62183 135.897901 
L 232.020402 137.330527 
L 232.219688 135.582326 
L 233.01683 137.577634 
L 233.216116 136.210987 
L 234.013259 137.724506 
L 234.212545 137.038305 
L 235.009687 138.038784 
L 235.208973 137.634983 
L 235.607545 137.713527 
L 235.80683 137.903476 
L 236.006116 138.293092 
L 236.205402 138.132728 
L 236.404688 138.309658 
L 237.002545 138.251934 
L 237.20183 138.755277 
L 237.401116 138.868269 
L 237.998973 138.727634 
L 238.198259 139.802148 
L 238.397545 139.709599 
L 238.995402 138.864698 
L 239.194688 140.911227 
L 239.593259 140.427897 
L 239.99183 139.264872 
L 240.191116 141.286121 
L 240.788973 140.04336 
L 240.988259 139.550498 
L 241.187545 142.988356 
L 241.785402 140.726669 
L 241.984688 139.885988 
L 242.183973 143.681581 
L 242.582545 142.193184 
L 242.981116 140.293461 
L 243.180402 145.266668 
L 243.977545 140.940955 
L 244.17683 147.322429 
L 244.774688 143.249264 
L 244.973973 141.576889 
L 245.173259 148.851188 
L 245.970402 142.31434 
L 246.169688 150.385828 
L 246.96683 142.398286 
L 247.166116 151.1775 
L 247.763973 144.986504 
L 247.963259 142.719072 
L 248.162545 151.796472 
L 248.959688 142.864443 
L 249.158973 150.832379 
L 249.956116 142.743165 
L 250.155402 150.711922 
L 250.952545 142.110475 
L 251.15183 150.12585 
L 251.948973 142.353473 
L 252.148259 151.639038 
L 252.945402 143.229787 
L 253.144688 152.955688 
L 253.94183 143.350536 
L 254.141116 152.78578 
L 254.938259 143.222536 
L 255.137545 154.685305 
L 255.934687 144.556843 
L 256.133973 160.351954 
L 256.73183 150.424315 
L 256.931116 146.835123 
L 257.130402 168.390565 
L 257.728259 155.152827 
L 257.927545 149.60884 
L 258.12683 171.326925 
L 258.923973 148.179312 
L 259.123259 155.553301 
L 259.52183 146.544717 
L 259.920402 140.146879 
L 260.119688 133.615482 
L 260.318973 133.277898 
L 260.518259 133.304985 
L 260.717545 133.526646 
L 260.91683 134.253271 
L 261.116116 119.237187 
L 261.713973 127.139083 
L 261.913259 131.32543 
L 262.112545 117.08168 
L 262.909688 132.207034 
L 263.108973 123.046393 
L 263.906116 134.130608 
L 264.105402 130.728367 
L 264.703259 136.137877 
L 265.301116 138.79716 
L 265.500402 139.227438 
L 265.699688 139.216716 
L 265.898973 139.325391 
L 266.098259 143.464903 
L 266.696116 141.361016 
L 266.895402 140.396064 
L 267.094688 140.27059 
L 267.692545 137.370628 
L 267.89183 137.232989 
L 268.091116 128.912894 
L 268.489688 130.253197 
L 268.888259 133.569691 
L 269.087545 123.377018 
L 269.884687 133.828302 
L 270.083973 127.913188 
L 270.881116 135.370246 
L 271.080402 131.489323 
L 271.877545 136.725283 
L 272.07683 135.287192 
L 272.475402 136.639322 
L 272.873973 137.676343 
L 273.073259 137.558877 
L 273.47183 138.189241 
L 273.671116 138.461199 
L 273.870402 138.406232 
L 274.069688 139.019809 
L 274.667545 139.020699 
L 274.86683 138.981451 
L 275.066116 141.270465 
L 275.464688 140.531908 
L 275.863259 139.58681 
L 276.062545 143.215898 
L 276.660402 141.056286 
L 276.859688 140.214109 
L 277.058973 144.537382 
L 277.856116 140.668306 
L 278.055402 146.117406 
L 278.852545 141.3579 
L 279.05183 147.32155 
L 279.848973 141.310214 
L 280.048259 147.136505 
L 280.845402 141.552046 
L 281.044688 148.575311 
L 281.443259 145.597629 
L 281.84183 141.984044 
L 282.041116 146.073099 
L 282.638973 140.978485 
L 282.838259 139.558515 
L 283.037545 141.848716 
L 283.23683 141.994364 
L 283.436116 141.250178 
L 283.834688 139.077705 
L 284.033973 140.462134 
L 284.233259 139.74847 
L 284.432545 140.020457 
L 284.63183 139.119591 
L 284.831116 138.810952 
L 285.229688 138.733196 
L 285.428973 138.493116 
L 285.628259 137.911706 
L 285.827545 138.046692 
L 286.02683 136.832607 
L 286.226116 136.876747 
L 286.624688 137.31942 
L 286.823973 137.969218 
L 287.023259 137.566523 
L 287.222545 137.568752 
L 287.42183 137.774985 
L 287.621116 137.741163 
L 287.820402 137.846971 
L 288.019688 135.684091 
L 288.218973 135.829937 
L 288.617545 136.722163 
L 288.81683 136.728266 
L 289.016116 133.009252 
L 289.414688 134.801935 
L 289.613973 135.172446 
L 289.813259 136.208078 
L 290.012545 132.486332 
L 290.610402 134.978098 
L 290.809687 135.859503 
L 291.008973 129.901978 
L 291.806116 135.57946 
L 292.005402 129.556069 
L 292.603259 133.739856 
L 292.802545 134.847961 
L 293.00183 127.83226 
L 293.798973 134.59384 
L 293.998259 125.874082 
L 294.795402 133.917289 
L 294.994688 123.407535 
L 295.592545 130.456636 
L 295.79183 133.087063 
L 295.991116 121.659174 
L 296.788259 132.350523 
L 296.987545 118.79957 
L 297.784688 131.258054 
L 297.983973 117.424361 
L 298.781116 131.566546 
L 298.980402 118.853665 
L 299.777545 132.49385 
L 299.97683 121.744095 
L 300.773973 132.93968 
L 300.973259 123.833375 
L 301.770402 134.145977 
L 301.969688 128.306557 
L 302.76683 135.709726 
L 302.966116 130.363171 
L 303.763259 135.610467 
L 303.962545 130.269315 
L 304.759687 136.223376 
L 304.958973 134.502121 
L 305.357545 136.494202 
L 305.756116 137.812729 
L 306.353973 138.479705 
L 306.553259 138.644752 
L 306.752545 138.622489 
L 306.95183 140.698194 
L 307.549688 140.016253 
L 307.748973 139.437153 
L 307.948259 143.692146 
L 308.34683 142.487445 
L 308.745402 140.375495 
L 308.944687 146.391733 
L 309.542545 143.245015 
L 309.74183 141.747427 
L 309.941116 148.626499 
L 310.738259 141.618329 
L 310.937545 148.260347 
L 311.734688 142.042791 
L 311.933973 150.470524 
L 312.731116 142.709666 
L 312.930402 152.712073 
L 313.727545 143.093026 
L 313.92683 150.734145 
L 314.723973 142.162302 
L 314.923259 149.752481 
L 315.720402 141.913288 
L 315.919688 147.376392 
L 316.71683 140.678078 
L 316.916116 143.923837 
L 317.314688 141.590093 
L 317.713259 139.824554 
L 317.912545 141.856493 
L 318.709687 139.333243 
L 318.908973 140.082463 
L 319.108259 140.013978 
L 319.706116 138.594187 
L 319.905402 139.590362 
L 320.702545 138.471149 
L 320.90183 138.919315 
L 321.300402 139.087257 
L 321.698973 138.558863 
L 322.496116 137.860091 
L 323.093973 138.331098 
L 323.492545 138.32728 
L 323.69183 138.305821 
L 323.891116 137.685672 
L 324.090402 137.556547 
L 324.289688 137.590237 
L 324.488973 137.816986 
L 324.688259 137.730688 
L 324.887545 136.547907 
L 325.286116 137.050735 
L 325.485402 137.250968 
L 325.684687 137.665554 
L 325.684687 137.665554 
" style="fill:none;stroke:#6495ed;stroke-linecap:square;stroke-width:1.5;"/>
   </g>
   <g id="line2d_15">
    <path clip-path="url(#p8d9acb3afc)" d="M 46.684688 149.734357 
L 47.681116 207.311075 
L 48.677545 211.813234 
L 49.673973 176.798284 
L 50.670402 146.250748 
L 51.66683 120.191434 
L 52.663259 85.595545 
L 53.659688 115.459405 
L 54.656116 93.589935 
L 55.652545 131.580748 
L 56.648973 141.532953 
L 57.645402 143.488805 
L 58.64183 144.215955 
L 59.638259 106.843338 
L 60.634688 77.99944 
L 61.631116 116.145888 
L 62.627545 137.010333 
L 63.623973 222.170569 
L 64.620402 214.966999 
L 65.61683 213.730949 
L 66.613259 202.646869 
L 67.609688 207.088013 
L 68.606116 150.501922 
L 69.602545 112.947975 
L 70.598973 104.855645 
L 71.595402 27.321118 
L 72.59183 61.48374 
L 73.588259 74.988406 
L 74.584688 101.963101 
L 75.581116 173.641744 
L 76.577545 195.769559 
L 77.573973 157.646464 
L 78.570402 106.48718 
L 79.56683 131.261693 
L 80.563259 164.24491 
L 81.559688 168.795425 
L 82.556116 148.707126 
L 83.552545 162.034852 
L 84.548973 182.08532 
L 85.545402 149.712987 
L 86.54183 149.659241 
L 87.538259 151.041864 
L 88.534688 141.279474 
L 89.531116 136.144282 
L 90.527545 135.520264 
L 91.523973 150.537869 
L 92.520402 152.214942 
L 93.51683 149.949895 
L 94.513259 140.564762 
L 95.509688 140.847765 
L 97.502545 158.53572 
L 98.498973 157.458371 
L 99.495402 144.481897 
L 100.49183 127.548815 
L 101.488259 96.038237 
L 102.484688 90.985106 
L 103.481116 19.554545 
L 104.477545 59.519199 
L 105.473973 105.86212 
L 106.470402 130.659278 
L 107.46683 104.870572 
L 108.463259 105.171949 
L 109.459688 112.980776 
L 110.456116 129.178948 
L 111.452545 265.326677 
L 112.448973 266.645455 
L 113.445402 241.50865 
L 114.44183 165.792313 
L 115.438259 144.439829 
L 116.434688 140.227723 
L 117.431116 138.338888 
L 118.427545 137.298508 
L 119.423973 133.307512 
L 120.420402 133.254767 
L 121.41683 133.536698 
L 122.413259 134.446559 
L 123.409688 125.238186 
L 124.406116 127.107795 
L 125.402545 129.584336 
L 126.398973 132.716732 
L 127.395402 123.252141 
L 128.39183 126.070337 
L 129.388259 127.755406 
L 130.384688 130.481257 
L 131.381116 111.363616 
L 132.377545 116.292501 
L 134.370402 127.72128 
L 135.36683 107.489056 
L 138.356116 127.353414 
L 139.352545 109.190515 
L 142.34183 128.267896 
L 143.338259 114.374806 
L 145.331116 125.289729 
L 146.327545 130.272711 
L 147.323973 121.904378 
L 149.31683 130.196487 
L 150.313259 133.84238 
L 151.309687 142.024186 
L 152.306116 143.888269 
L 153.302545 142.371088 
L 154.298973 139.485924 
L 155.295402 131.540622 
L 156.29183 130.298665 
L 157.288259 131.455795 
L 158.284688 134.842445 
L 159.281116 182.398806 
L 160.277545 182.869025 
L 161.273973 178.199295 
L 162.270402 166.229012 
L 163.26683 191.782837 
L 164.263259 170.800606 
L 165.259688 152.417139 
L 166.256116 144.170517 
L 167.252545 155.359973 
L 168.248973 150.092042 
L 170.24183 143.781814 
L 171.238259 158.970576 
L 172.234688 154.532675 
L 174.227545 141.596306 
L 175.223973 50.152693 
L 176.220402 46.951543 
L 177.21683 54.065319 
L 178.213259 80.152605 
L 179.209688 87.960877 
L 180.206116 121.023279 
L 181.202545 138.119813 
L 182.198973 143.805379 
L 183.195402 170.224816 
L 184.19183 164.662268 
L 185.188259 156.282564 
L 186.184687 146.883522 
L 187.181116 156.581356 
L 188.177545 150.80018 
L 190.170402 142.51131 
L 191.16683 148.761906 
L 192.163259 145.036828 
L 194.156116 139.637752 
L 195.152545 143.677065 
L 196.148973 141.830842 
L 197.145402 140.58058 
L 198.14183 138.980462 
L 199.138259 136.872872 
L 200.134687 136.036022 
L 201.131116 135.778561 
L 202.127545 135.736302 
L 203.123973 129.599751 
L 204.120402 130.80182 
L 205.11683 132.47065 
L 206.113259 134.475197 
L 207.109688 129.812787 
L 209.102545 134.172711 
L 210.098973 135.91471 
L 211.095402 140.717795 
L 212.09183 141.194618 
L 213.088259 141.078609 
L 214.084688 140.154485 
L 215.081116 152.498565 
L 216.077545 150.099227 
L 218.070402 143.702006 
L 219.06683 161.329799 
L 221.059687 151.790982 
L 222.056116 145.805514 
L 223.052545 162.688728 
L 226.04183 145.38122 
L 227.038259 156.774313 
L 229.031116 146.284662 
L 230.027545 141.99645 
L 231.023973 145.515498 
L 232.020402 142.332878 
L 233.01683 140.064148 
L 234.013259 138.255448 
L 235.009687 134.854466 
L 236.006116 134.115678 
L 237.002545 133.955667 
L 237.998973 134.350213 
L 238.995402 120.044952 
L 239.99183 122.329599 
L 240.988259 124.938678 
L 241.984688 128.826412 
L 242.981116 97.457491 
L 243.977545 103.70687 
L 244.973973 111.78563 
L 245.970402 120.940889 
L 246.96683 86.187102 
L 249.956116 120.679655 
L 250.952545 80.553239 
L 251.948973 91.28276 
L 253.94183 116.238369 
L 254.938259 43.845696 
L 255.934687 59.86504 
L 256.931116 81.157337 
L 257.927545 109.548095 
L 258.923973 164.893765 
L 259.920402 177.336077 
L 260.91683 173.173341 
L 261.913259 157.813825 
L 262.909688 152.984666 
L 263.906116 140.83117 
L 264.902545 135.094219 
L 265.898973 135.383804 
L 266.895402 166.250525 
L 267.89183 167.096155 
L 268.888259 158.969331 
L 269.884687 147.084803 
L 270.881116 142.575672 
L 271.877545 137.027487 
L 272.873973 134.55546 
L 273.870402 134.090872 
L 274.86683 113.499309 
L 275.863259 116.12601 
L 276.859688 120.437346 
L 277.856116 125.867264 
L 278.852545 105.228608 
L 280.845402 120.940841 
L 281.84183 130.002708 
L 282.838259 134.002802 
L 283.834688 137.267801 
L 284.831116 138.956653 
L 285.827545 139.208703 
L 286.823973 154.546879 
L 287.820402 153.799873 
L 288.81683 151.54538 
L 289.813259 147.143163 
L 290.809687 174.570897 
L 292.802545 161.078634 
L 293.798973 152.649861 
L 294.795402 202.764859 
L 295.79183 191.359149 
L 296.788259 178.418882 
L 297.784688 162.8301 
L 298.781116 187.050484 
L 300.773973 159.400161 
L 301.770402 148.023743 
L 302.76683 151.098197 
L 304.759687 137.940463 
L 305.756116 134.926735 
L 306.752545 110.138649 
L 307.748973 112.20039 
L 308.745402 116.97806 
L 309.74183 124.193997 
L 310.738259 89.33932 
L 311.734688 98.360532 
L 312.731116 109.272193 
L 313.727545 121.831302 
L 314.723973 112.114956 
L 315.720402 121.865112 
L 316.71683 129.284382 
L 317.713259 133.771729 
L 318.709687 134.446507 
L 319.706116 135.964454 
L 320.702545 136.836435 
L 321.698973 137.479883 
L 322.695402 140.873683 
L 323.69183 140.701174 
L 324.688259 139.993232 
L 325.684687 138.413847 
L 325.684687 138.413847 
" style="fill:none;stroke:#000000;stroke-linecap:square;stroke-width:1.5;"/>
   </g>
   <g id="patch_3">
    <path d="M 46.684688 279 
L 46.684688 7.2 
" style="fill:none;stroke:#000000;stroke-linecap:square;stroke-linejoin:miter;stroke-width:0.8;"/>
   </g>
   <g id="patch_4">
    <path d="M 325.684687 279 
L 325.684687 7.2 
" style="fill:none;stroke:#000000;stroke-linecap:square;stroke-linejoin:miter;stroke-width:0.8;"/>
   </g>
   <g id="patch_5">
    <path d="M 46.684688 279 
L 325.684687 279 
" style="fill:none;stroke:#000000;stroke-linecap:square;stroke-linejoin:miter;stroke-width:0.8;"/>
   </g>
   <g id="patch_6">
    <path d="M 46.684688 7.2 
L 325.684687 7.2 
" style="fill:none;stroke:#000000;stroke-linecap:square;stroke-linejoin:miter;stroke-width:0.8;"/>
   </g>
   <g id="legend_1">
    <g id="patch_7">
     <path d="M 174.425313 274 
L 318.684687 274 
Q 320.684687 274 320.684687 272 
L 320.684687 243.64375 
Q 320.684687 241.64375 318.684687 241.64375 
L 174.425313 241.64375 
Q 172.425313 241.64375 172.425313 243.64375 
L 172.425313 272 
Q 172.425313 274 174.425313 274 
z
" style="fill:#ffffff;opacity:0.8;stroke:#cccccc;stroke-linejoin:miter;"/>
    </g>
    <g id="line2d_16">
     <path d="M 176.425313 249.742187 
L 196.425313 249.742187 
" style="fill:none;stroke:#6495ed;stroke-linecap:square;stroke-width:1.5;"/>
    </g>
    <g id="line2d_17"/>
    <g id="text_16">
     <!-- SF(250kyr) : SF(50kyr) -->
     <defs>
      <path d="M 9.8125 72.90625 
L 51.703125 72.90625 
L 51.703125 64.59375 
L 19.671875 64.59375 
L 19.671875 43.109375 
L 48.578125 43.109375 
L 48.578125 34.8125 
L 19.671875 34.8125 
L 19.671875 0 
L 9.8125 0 
z
" id="DejaVuSans-70"/>
      <path d="M 9.078125 75.984375 
L 18.109375 75.984375 
L 18.109375 31.109375 
L 44.921875 54.6875 
L 56.390625 54.6875 
L 27.390625 29.109375 
L 57.625 0 
L 45.90625 0 
L 18.109375 26.703125 
L 18.109375 0 
L 9.078125 0 
z
" id="DejaVuSans-107"/>
      <path d="M 32.171875 -5.078125 
Q 28.375 -14.84375 24.75 -17.8125 
Q 21.140625 -20.796875 15.09375 -20.796875 
L 7.90625 -20.796875 
L 7.90625 -13.28125 
L 13.1875 -13.28125 
Q 16.890625 -13.28125 18.9375 -11.515625 
Q 21 -9.765625 23.484375 -3.21875 
L 25.09375 0.875 
L 2.984375 54.6875 
L 12.5 54.6875 
L 29.59375 11.921875 
L 46.6875 54.6875 
L 56.203125 54.6875 
z
" id="DejaVuSans-121"/>
      <path d="M 11.71875 12.40625 
L 22.015625 12.40625 
L 22.015625 0 
L 11.71875 0 
z
M 11.71875 51.703125 
L 22.015625 51.703125 
L 22.015625 39.3125 
L 11.71875 39.3125 
z
" id="DejaVuSans-58"/>
     </defs>
     <g transform="translate(204.425313 253.242187)scale(0.1 -0.1)">
      <use xlink:href="#DejaVuSans-83"/>
      <use x="63.476562" xlink:href="#DejaVuSans-70"/>
      <use x="120.996094" xlink:href="#DejaVuSans-40"/>
      <use x="160.009766" xlink:href="#DejaVuSans-50"/>
      <use x="223.632812" xlink:href="#DejaVuSans-53"/>
      <use x="287.255859" xlink:href="#DejaVuSans-48"/>
      <use x="350.878906" xlink:href="#DejaVuSans-107"/>
      <use x="405.164062" xlink:href="#DejaVuSans-121"/>
      <use x="464.34375" xlink:href="#DejaVuSans-114"/>
      <use x="505.457031" xlink:href="#DejaVuSans-41"/>
      <use x="544.470703" xlink:href="#DejaVuSans-32"/>
      <use x="576.257812" xlink:href="#DejaVuSans-58"/>
      <use x="609.949219" xlink:href="#DejaVuSans-32"/>
      <use x="641.736328" xlink:href="#DejaVuSans-83"/>
      <use x="705.212891" xlink:href="#DejaVuSans-70"/>
      <use x="762.732422" xlink:href="#DejaVuSans-40"/>
      <use x="801.746094" xlink:href="#DejaVuSans-53"/>
      <use x="865.369141" xlink:href="#DejaVuSans-48"/>
      <use x="928.992188" xlink:href="#DejaVuSans-107"/>
      <use x="983.277344" xlink:href="#DejaVuSans-121"/>
      <use x="1042.457031" xlink:href="#DejaVuSans-114"/>
      <use x="1083.570312" xlink:href="#DejaVuSans-41"/>
     </g>
    </g>
    <g id="line2d_18">
     <path d="M 176.425313 264.420312 
L 196.425313 264.420312 
" style="fill:none;stroke:#000000;stroke-linecap:square;stroke-width:1.5;"/>
    </g>
    <g id="line2d_19"/>
    <g id="text_17">
     <!-- SF(250kyr): SF(1 Ma) -->
     <g transform="translate(204.425313 267.920312)scale(0.1 -0.1)">
      <use xlink:href="#DejaVuSans-83"/>
      <use x="63.476562" xlink:href="#DejaVuSans-70"/>
      <use x="120.996094" xlink:href="#DejaVuSans-40"/>
      <use x="160.009766" xlink:href="#DejaVuSans-50"/>
      <use x="223.632812" xlink:href="#DejaVuSans-53"/>
      <use x="287.255859" xlink:href="#DejaVuSans-48"/>
      <use x="350.878906" xlink:href="#DejaVuSans-107"/>
      <use x="405.164062" xlink:href="#DejaVuSans-121"/>
      <use x="464.34375" xlink:href="#DejaVuSans-114"/>
      <use x="505.457031" xlink:href="#DejaVuSans-41"/>
      <use x="544.470703" xlink:href="#DejaVuSans-58"/>
      <use x="578.162109" xlink:href="#DejaVuSans-32"/>
      <use x="609.949219" xlink:href="#DejaVuSans-83"/>
      <use x="673.425781" xlink:href="#DejaVuSans-70"/>
      <use x="730.945312" xlink:href="#DejaVuSans-40"/>
      <use x="769.958984" xlink:href="#DejaVuSans-49"/>
      <use x="833.582031" xlink:href="#DejaVuSans-32"/>
      <use x="865.369141" xlink:href="#DejaVuSans-77"/>
      <use x="951.648438" xlink:href="#DejaVuSans-97"/>
      <use x="1012.927734" xlink:href="#DejaVuSans-41"/>
     </g>
    </g>
   </g>
  </g>
 </g>
 <defs>
  <clipPath id="p8d9acb3afc">
   <rect height="271.8" width="279" x="46.684688" y="7.2"/>
  </clipPath>
 </defs>
</svg>
