<?xml version="1.0" encoding="UTF-8" standalone="no"?>
<svg
   xmlns:dc="http://purl.org/dc/elements/1.1/"
   xmlns:cc="http://creativecommons.org/ns#"
   xmlns:rdf="http://www.w3.org/1999/02/22-rdf-syntax-ns#"
   xmlns:svg="http://www.w3.org/2000/svg"
   xmlns="http://www.w3.org/2000/svg"
   xmlns:xlink="http://www.w3.org/1999/xlink"
   xmlns:sodipodi="http://sodipodi.sourceforge.net/DTD/sodipodi-0.dtd"
   xmlns:inkscape="http://www.inkscape.org/namespaces/inkscape"
   height="268.898906pt"
   version="1.1"
   viewBox="0 0 624.609687 268.898906"
   width="624.609687pt"
   id="svg3143"
   sodipodi:docname="Figure_8.svg"
   inkscape:version="1.0.1 (c497b03c, 2020-09-10)">
  <metadata
     id="metadata3147">
    <rdf:RDF>
      <cc:Work
         rdf:about="">
        <dc:format>image/svg+xml</dc:format>
        <dc:type
           rdf:resource="http://purl.org/dc/dcmitype/StillImage" />
      </cc:Work>
    </rdf:RDF>
  </metadata>
  <sodipodi:namedview
     pagecolor="#ffffff"
     bordercolor="#666666"
     borderopacity="1"
     objecttolerance="10"
     gridtolerance="10"
     guidetolerance="10"
     inkscape:pageopacity="0"
     inkscape:pageshadow="2"
     inkscape:window-width="1440"
     inkscape:window-height="804"
     id="namedview3145"
     showgrid="false"
     inkscape:zoom="0.85493392"
     inkscape:cx="416.40645"
     inkscape:cy="179.26593"
     inkscape:window-x="0"
     inkscape:window-y="23"
     inkscape:window-maximized="1"
     inkscape:current-layer="svg3143" />
  <defs
     id="defs2216">
    <style
       type="text/css"
       id="style2214">
*{stroke-linecap:butt;stroke-linejoin:round;}
  </style>
  </defs>
  <g
     id="figure_1">
    <g
       id="patch_1">
      <path
         d="M 0 268.898906  L 624.609687 268.898906  L 624.609687 0  L 0 0  z "
         style="fill:#ffffff;"
         id="path2218" />
    </g>
    <g
       id="axes_1">
      <g
         id="patch_2">
        <path
           d="M 53.047188 228.439219  L 306.683551 228.439219  L 306.683551 10.999219  L 53.047188 10.999219  z "
           style="fill:#ffffff;"
           id="path2221" />
      </g>
      <g
         id="matplotlib.axis_1">
        <g
           id="xtick_1">
          <g
             id="line2d_1">
            <defs
               id="defs2225">
              <path
                 d="M 0 0  L 0 3.5  "
                 id="m729b329d42"
                 style="stroke:#000000;stroke-width:0.8;" />
            </defs>
            <g
               id="g2229">
              <use
                 style="stroke:#000000;stroke-width:0.8;"
                 x="53.047188"
                 xlink:href="#m729b329d42"
                 y="228.439219"
                 id="use2227" />
            </g>
          </g>
          <g
             id="text_1">
            <!-- 0 -->
            <defs
               id="defs2233">
              <path
                 d="M 31.78125 66.40625  Q 24.171875 66.40625 20.328125 58.90625  Q 16.5 51.421875 16.5 36.375  Q 16.5 21.390625 20.328125 13.890625  Q 24.171875 6.390625 31.78125 6.390625  Q 39.453125 6.390625 43.28125 13.890625  Q 47.125 21.390625 47.125 36.375  Q 47.125 51.421875 43.28125 58.90625  Q 39.453125 66.40625 31.78125 66.40625  z M 31.78125 74.21875  Q 44.046875 74.21875 50.515625 64.515625  Q 56.984375 54.828125 56.984375 36.375  Q 56.984375 17.96875 50.515625 8.265625  Q 44.046875 -1.421875 31.78125 -1.421875  Q 19.53125 -1.421875 13.0625 8.265625  Q 6.59375 17.96875 6.59375 36.375  Q 6.59375 54.828125 13.0625 64.515625  Q 19.53125 74.21875 31.78125 74.21875  z "
                 id="DejaVuSans-48" />
            </defs>
            <g
               transform="translate(49.865938 243.037656)scale(0.1 -0.1)"
               id="g2237">
              <use
                 xlink:href="#DejaVuSans-48"
                 id="use2235" />
            </g>
          </g>
        </g>
        <g
           id="xtick_2">
          <g
             id="line2d_2">
            <g
               id="g2243">
              <use
                 style="stroke:#000000;stroke-width:0.8;"
                 x="89.280954"
                 xlink:href="#m729b329d42"
                 y="228.439219"
                 id="use2241" />
            </g>
          </g>
          <g
             id="text_2">
            <!-- 10 -->
            <defs
               id="defs2247">
              <path
                 d="M 12.40625 8.296875  L 28.515625 8.296875  L 28.515625 63.921875  L 10.984375 60.40625  L 10.984375 69.390625  L 28.421875 72.90625  L 38.28125 72.90625  L 38.28125 8.296875  L 54.390625 8.296875  L 54.390625 0  L 12.40625 0  z "
                 id="DejaVuSans-49" />
            </defs>
            <g
               transform="translate(82.918454 243.037656)scale(0.1 -0.1)"
               id="g2253">
              <use
                 xlink:href="#DejaVuSans-49"
                 id="use2249" />
              <use
                 x="63.623047"
                 xlink:href="#DejaVuSans-48"
                 id="use2251" />
            </g>
          </g>
        </g>
        <g
           id="xtick_3">
          <g
             id="line2d_3">
            <g
               id="g2259">
              <use
                 style="stroke:#000000;stroke-width:0.8;"
                 x="125.51472"
                 xlink:href="#m729b329d42"
                 y="228.439219"
                 id="use2257" />
            </g>
          </g>
          <g
             id="text_3">
            <!-- 20 -->
            <defs
               id="defs2263">
              <path
                 d="M 19.1875 8.296875  L 53.609375 8.296875  L 53.609375 0  L 7.328125 0  L 7.328125 8.296875  Q 12.9375 14.109375 22.625 23.890625  Q 32.328125 33.6875 34.8125 36.53125  Q 39.546875 41.84375 41.421875 45.53125  Q 43.3125 49.21875 43.3125 52.78125  Q 43.3125 58.59375 39.234375 62.25  Q 35.15625 65.921875 28.609375 65.921875  Q 23.96875 65.921875 18.8125 64.3125  Q 13.671875 62.703125 7.8125 59.421875  L 7.8125 69.390625  Q 13.765625 71.78125 18.9375 73  Q 24.125 74.21875 28.421875 74.21875  Q 39.75 74.21875 46.484375 68.546875  Q 53.21875 62.890625 53.21875 53.421875  Q 53.21875 48.921875 51.53125 44.890625  Q 49.859375 40.875 45.40625 35.40625  Q 44.1875 33.984375 37.640625 27.21875  Q 31.109375 20.453125 19.1875 8.296875  z "
                 id="DejaVuSans-50" />
            </defs>
            <g
               transform="translate(119.15222 243.037656)scale(0.1 -0.1)"
               id="g2269">
              <use
                 xlink:href="#DejaVuSans-50"
                 id="use2265" />
              <use
                 x="63.623047"
                 xlink:href="#DejaVuSans-48"
                 id="use2267" />
            </g>
          </g>
        </g>
        <g
           id="xtick_4">
          <g
             id="line2d_4">
            <g
               id="g2275">
              <use
                 style="stroke:#000000;stroke-width:0.8;"
                 x="161.748486"
                 xlink:href="#m729b329d42"
                 y="228.439219"
                 id="use2273" />
            </g>
          </g>
          <g
             id="text_4">
            <!-- 30 -->
            <defs
               id="defs2279">
              <path
                 d="M 40.578125 39.3125  Q 47.65625 37.796875 51.625 33  Q 55.609375 28.21875 55.609375 21.1875  Q 55.609375 10.40625 48.1875 4.484375  Q 40.765625 -1.421875 27.09375 -1.421875  Q 22.515625 -1.421875 17.65625 -0.515625  Q 12.796875 0.390625 7.625 2.203125  L 7.625 11.71875  Q 11.71875 9.328125 16.59375 8.109375  Q 21.484375 6.890625 26.8125 6.890625  Q 36.078125 6.890625 40.9375 10.546875  Q 45.796875 14.203125 45.796875 21.1875  Q 45.796875 27.640625 41.28125 31.265625  Q 36.765625 34.90625 28.71875 34.90625  L 20.21875 34.90625  L 20.21875 43.015625  L 29.109375 43.015625  Q 36.375 43.015625 40.234375 45.921875  Q 44.09375 48.828125 44.09375 54.296875  Q 44.09375 59.90625 40.109375 62.90625  Q 36.140625 65.921875 28.71875 65.921875  Q 24.65625 65.921875 20.015625 65.03125  Q 15.375 64.15625 9.8125 62.3125  L 9.8125 71.09375  Q 15.4375 72.65625 20.34375 73.4375  Q 25.25 74.21875 29.59375 74.21875  Q 40.828125 74.21875 47.359375 69.109375  Q 53.90625 64.015625 53.90625 55.328125  Q 53.90625 49.265625 50.4375 45.09375  Q 46.96875 40.921875 40.578125 39.3125  z "
                 id="DejaVuSans-51" />
            </defs>
            <g
               transform="translate(155.385986 243.037656)scale(0.1 -0.1)"
               id="g2285">
              <use
                 xlink:href="#DejaVuSans-51"
                 id="use2281" />
              <use
                 x="63.623047"
                 xlink:href="#DejaVuSans-48"
                 id="use2283" />
            </g>
          </g>
        </g>
        <g
           id="xtick_5">
          <g
             id="line2d_5">
            <g
               id="g2291">
              <use
                 style="stroke:#000000;stroke-width:0.8;"
                 x="197.982252"
                 xlink:href="#m729b329d42"
                 y="228.439219"
                 id="use2289" />
            </g>
          </g>
          <g
             id="text_5">
            <!-- 40 -->
            <defs
               id="defs2295">
              <path
                 d="M 37.796875 64.3125  L 12.890625 25.390625  L 37.796875 25.390625  z M 35.203125 72.90625  L 47.609375 72.90625  L 47.609375 25.390625  L 58.015625 25.390625  L 58.015625 17.1875  L 47.609375 17.1875  L 47.609375 0  L 37.796875 0  L 37.796875 17.1875  L 4.890625 17.1875  L 4.890625 26.703125  z "
                 id="DejaVuSans-52" />
            </defs>
            <g
               transform="translate(191.619752 243.037656)scale(0.1 -0.1)"
               id="g2301">
              <use
                 xlink:href="#DejaVuSans-52"
                 id="use2297" />
              <use
                 x="63.623047"
                 xlink:href="#DejaVuSans-48"
                 id="use2299" />
            </g>
          </g>
        </g>
        <g
           id="xtick_6">
          <g
             id="line2d_6">
            <g
               id="g2307">
              <use
                 style="stroke:#000000;stroke-width:0.8;"
                 x="234.216019"
                 xlink:href="#m729b329d42"
                 y="228.439219"
                 id="use2305" />
            </g>
          </g>
          <g
             id="text_6">
            <!-- 50 -->
            <defs
               id="defs2311">
              <path
                 d="M 10.796875 72.90625  L 49.515625 72.90625  L 49.515625 64.59375  L 19.828125 64.59375  L 19.828125 46.734375  Q 21.96875 47.46875 24.109375 47.828125  Q 26.265625 48.1875 28.421875 48.1875  Q 40.625 48.1875 47.75 41.5  Q 54.890625 34.8125 54.890625 23.390625  Q 54.890625 11.625 47.5625 5.09375  Q 40.234375 -1.421875 26.90625 -1.421875  Q 22.3125 -1.421875 17.546875 -0.640625  Q 12.796875 0.140625 7.71875 1.703125  L 7.71875 11.625  Q 12.109375 9.234375 16.796875 8.0625  Q 21.484375 6.890625 26.703125 6.890625  Q 35.15625 6.890625 40.078125 11.328125  Q 45.015625 15.765625 45.015625 23.390625  Q 45.015625 31 40.078125 35.4375  Q 35.15625 39.890625 26.703125 39.890625  Q 22.75 39.890625 18.8125 39.015625  Q 14.890625 38.140625 10.796875 36.28125  z "
                 id="DejaVuSans-53" />
            </defs>
            <g
               transform="translate(227.853519 243.037656)scale(0.1 -0.1)"
               id="g2317">
              <use
                 xlink:href="#DejaVuSans-53"
                 id="use2313" />
              <use
                 x="63.623047"
                 xlink:href="#DejaVuSans-48"
                 id="use2315" />
            </g>
          </g>
        </g>
        <g
           id="xtick_7">
          <g
             id="line2d_7">
            <g
               id="g2323">
              <use
                 style="stroke:#000000;stroke-width:0.8;"
                 x="270.449785"
                 xlink:href="#m729b329d42"
                 y="228.439219"
                 id="use2321" />
            </g>
          </g>
          <g
             id="text_7">
            <!-- 60 -->
            <defs
               id="defs2327">
              <path
                 d="M 33.015625 40.375  Q 26.375 40.375 22.484375 35.828125  Q 18.609375 31.296875 18.609375 23.390625  Q 18.609375 15.53125 22.484375 10.953125  Q 26.375 6.390625 33.015625 6.390625  Q 39.65625 6.390625 43.53125 10.953125  Q 47.40625 15.53125 47.40625 23.390625  Q 47.40625 31.296875 43.53125 35.828125  Q 39.65625 40.375 33.015625 40.375  z M 52.59375 71.296875  L 52.59375 62.3125  Q 48.875 64.0625 45.09375 64.984375  Q 41.3125 65.921875 37.59375 65.921875  Q 27.828125 65.921875 22.671875 59.328125  Q 17.53125 52.734375 16.796875 39.40625  Q 19.671875 43.65625 24.015625 45.921875  Q 28.375 48.1875 33.59375 48.1875  Q 44.578125 48.1875 50.953125 41.515625  Q 57.328125 34.859375 57.328125 23.390625  Q 57.328125 12.15625 50.6875 5.359375  Q 44.046875 -1.421875 33.015625 -1.421875  Q 20.359375 -1.421875 13.671875 8.265625  Q 6.984375 17.96875 6.984375 36.375  Q 6.984375 53.65625 15.1875 63.9375  Q 23.390625 74.21875 37.203125 74.21875  Q 40.921875 74.21875 44.703125 73.484375  Q 48.484375 72.75 52.59375 71.296875  z "
                 id="DejaVuSans-54" />
            </defs>
            <g
               transform="translate(264.087285 243.037656)scale(0.1 -0.1)"
               id="g2333">
              <use
                 xlink:href="#DejaVuSans-54"
                 id="use2329" />
              <use
                 x="63.623047"
                 xlink:href="#DejaVuSans-48"
                 id="use2331" />
            </g>
          </g>
        </g>
        <g
           id="xtick_8">
          <g
             id="line2d_8">
            <g
               id="g2339">
              <use
                 style="stroke:#000000;stroke-width:0.8;"
                 x="306.683551"
                 xlink:href="#m729b329d42"
                 y="228.439219"
                 id="use2337" />
            </g>
          </g>
          <g
             id="text_8">
            <!-- 70 -->
            <defs
               id="defs2343">
              <path
                 d="M 8.203125 72.90625  L 55.078125 72.90625  L 55.078125 68.703125  L 28.609375 0  L 18.3125 0  L 43.21875 64.59375  L 8.203125 64.59375  z "
                 id="DejaVuSans-55" />
            </defs>
            <g
               transform="translate(300.321051 243.037656)scale(0.1 -0.1)"
               id="g2349">
              <use
                 xlink:href="#DejaVuSans-55"
                 id="use2345" />
              <use
                 x="63.623047"
                 xlink:href="#DejaVuSans-48"
                 id="use2347" />
            </g>
          </g>
        </g>
        <g
           id="text_9">
          <!-- Time (Ma) -->
          <defs
             id="defs2362">
            <path
               d="M -0.296875 72.90625  L 61.375 72.90625  L 61.375 64.59375  L 35.5 64.59375  L 35.5 0  L 25.59375 0  L 25.59375 64.59375  L -0.296875 64.59375  z "
               id="DejaVuSans-84" />
            <path
               d="M 9.421875 54.6875  L 18.40625 54.6875  L 18.40625 0  L 9.421875 0  z M 9.421875 75.984375  L 18.40625 75.984375  L 18.40625 64.59375  L 9.421875 64.59375  z "
               id="DejaVuSans-105" />
            <path
               d="M 52 44.1875  Q 55.375 50.25 60.0625 53.125  Q 64.75 56 71.09375 56  Q 79.640625 56 84.28125 50.015625  Q 88.921875 44.046875 88.921875 33.015625  L 88.921875 0  L 79.890625 0  L 79.890625 32.71875  Q 79.890625 40.578125 77.09375 44.375  Q 74.3125 48.1875 68.609375 48.1875  Q 61.625 48.1875 57.5625 43.546875  Q 53.515625 38.921875 53.515625 30.90625  L 53.515625 0  L 44.484375 0  L 44.484375 32.71875  Q 44.484375 40.625 41.703125 44.40625  Q 38.921875 48.1875 33.109375 48.1875  Q 26.21875 48.1875 22.15625 43.53125  Q 18.109375 38.875 18.109375 30.90625  L 18.109375 0  L 9.078125 0  L 9.078125 54.6875  L 18.109375 54.6875  L 18.109375 46.1875  Q 21.1875 51.21875 25.484375 53.609375  Q 29.78125 56 35.6875 56  Q 41.65625 56 45.828125 52.96875  Q 50 49.953125 52 44.1875  z "
               id="DejaVuSans-109" />
            <path
               d="M 56.203125 29.59375  L 56.203125 25.203125  L 14.890625 25.203125  Q 15.484375 15.921875 20.484375 11.0625  Q 25.484375 6.203125 34.421875 6.203125  Q 39.59375 6.203125 44.453125 7.46875  Q 49.3125 8.734375 54.109375 11.28125  L 54.109375 2.78125  Q 49.265625 0.734375 44.1875 -0.34375  Q 39.109375 -1.421875 33.890625 -1.421875  Q 20.796875 -1.421875 13.15625 6.1875  Q 5.515625 13.8125 5.515625 26.8125  Q 5.515625 40.234375 12.765625 48.109375  Q 20.015625 56 32.328125 56  Q 43.359375 56 49.78125 48.890625  Q 56.203125 41.796875 56.203125 29.59375  z M 47.21875 32.234375  Q 47.125 39.59375 43.09375 43.984375  Q 39.0625 48.390625 32.421875 48.390625  Q 24.90625 48.390625 20.390625 44.140625  Q 15.875 39.890625 15.1875 32.171875  z "
               id="DejaVuSans-101" />
            <path
               id="DejaVuSans-32" />
            <path
               d="M 31 75.875  Q 24.46875 64.65625 21.28125 53.65625  Q 18.109375 42.671875 18.109375 31.390625  Q 18.109375 20.125 21.3125 9.0625  Q 24.515625 -2 31 -13.1875  L 23.1875 -13.1875  Q 15.875 -1.703125 12.234375 9.375  Q 8.59375 20.453125 8.59375 31.390625  Q 8.59375 42.28125 12.203125 53.3125  Q 15.828125 64.359375 23.1875 75.875  z "
               id="DejaVuSans-40" />
            <path
               d="M 9.8125 72.90625  L 24.515625 72.90625  L 43.109375 23.296875  L 61.8125 72.90625  L 76.515625 72.90625  L 76.515625 0  L 66.890625 0  L 66.890625 64.015625  L 48.09375 14.015625  L 38.1875 14.015625  L 19.390625 64.015625  L 19.390625 0  L 9.8125 0  z "
               id="DejaVuSans-77" />
            <path
               d="M 34.28125 27.484375  Q 23.390625 27.484375 19.1875 25  Q 14.984375 22.515625 14.984375 16.5  Q 14.984375 11.71875 18.140625 8.90625  Q 21.296875 6.109375 26.703125 6.109375  Q 34.1875 6.109375 38.703125 11.40625  Q 43.21875 16.703125 43.21875 25.484375  L 43.21875 27.484375  z M 52.203125 31.203125  L 52.203125 0  L 43.21875 0  L 43.21875 8.296875  Q 40.140625 3.328125 35.546875 0.953125  Q 30.953125 -1.421875 24.3125 -1.421875  Q 15.921875 -1.421875 10.953125 3.296875  Q 6 8.015625 6 15.921875  Q 6 25.140625 12.171875 29.828125  Q 18.359375 34.515625 30.609375 34.515625  L 43.21875 34.515625  L 43.21875 35.40625  Q 43.21875 41.609375 39.140625 45  Q 35.0625 48.390625 27.6875 48.390625  Q 23 48.390625 18.546875 47.265625  Q 14.109375 46.140625 10.015625 43.890625  L 10.015625 52.203125  Q 14.9375 54.109375 19.578125 55.046875  Q 24.21875 56 28.609375 56  Q 40.484375 56 46.34375 49.84375  Q 52.203125 43.703125 52.203125 31.203125  z "
               id="DejaVuSans-97" />
            <path
               d="M 8.015625 75.875  L 15.828125 75.875  Q 23.140625 64.359375 26.78125 53.3125  Q 30.421875 42.28125 30.421875 31.390625  Q 30.421875 20.453125 26.78125 9.375  Q 23.140625 -1.703125 15.828125 -13.1875  L 8.015625 -13.1875  Q 14.5 -2 17.703125 9.0625  Q 20.90625 20.125 20.90625 31.390625  Q 20.90625 42.671875 17.703125 53.65625  Q 14.5 64.65625 8.015625 75.875  z "
               id="DejaVuSans-41" />
          </defs>
          <g
             transform="translate(147.232322 258.995313)scale(0.13 -0.13)"
             id="g2382">
            <use
               xlink:href="#DejaVuSans-84"
               id="use2364" />
            <use
               x="57.958984"
               xlink:href="#DejaVuSans-105"
               id="use2366" />
            <use
               x="85.742188"
               xlink:href="#DejaVuSans-109"
               id="use2368" />
            <use
               x="183.154297"
               xlink:href="#DejaVuSans-101"
               id="use2370" />
            <use
               x="244.677734"
               xlink:href="#DejaVuSans-32"
               id="use2372" />
            <use
               x="276.464844"
               xlink:href="#DejaVuSans-40"
               id="use2374" />
            <use
               x="315.478516"
               xlink:href="#DejaVuSans-77"
               id="use2376" />
            <use
               x="401.757812"
               xlink:href="#DejaVuSans-97"
               id="use2378" />
            <use
               x="463.037109"
               xlink:href="#DejaVuSans-41"
               id="use2380" />
          </g>
        </g>
      </g>
      <g
         id="matplotlib.axis_2">
        <g
           id="ytick_1">
          <g
             id="line2d_9">
            <defs
               id="defs2387">
              <path
                 d="M 0 0  L -3.5 0  "
                 id="md293031a9d"
                 style="stroke:#000000;stroke-width:0.8;" />
            </defs>
            <g
               id="g2391">
              <use
                 style="stroke:#000000;stroke-width:0.8;"
                 x="53.047188"
                 xlink:href="#md293031a9d"
                 y="228.439219"
                 id="use2389" />
            </g>
          </g>
          <g
             id="text_10">
            <!-- 0.55 -->
            <defs
               id="defs2395">
              <path
                 d="M 10.6875 12.40625  L 21 12.40625  L 21 0  L 10.6875 0  z "
                 id="DejaVuSans-46" />
            </defs>
            <g
               transform="translate(23.781563 232.238438)scale(0.1 -0.1)"
               id="g2405">
              <use
                 xlink:href="#DejaVuSans-48"
                 id="use2397" />
              <use
                 x="63.623047"
                 xlink:href="#DejaVuSans-46"
                 id="use2399" />
              <use
                 x="95.410156"
                 xlink:href="#DejaVuSans-53"
                 id="use2401" />
              <use
                 x="159.033203"
                 xlink:href="#DejaVuSans-53"
                 id="use2403" />
            </g>
          </g>
        </g>
        <g
           id="ytick_2">
          <g
             id="line2d_10">
            <g
               id="g2411">
              <use
                 style="stroke:#000000;stroke-width:0.8;"
                 x="53.047188"
                 xlink:href="#md293031a9d"
                 y="201.259219"
                 id="use2409" />
            </g>
          </g>
          <g
             id="text_11">
            <!-- 0.60 -->
            <g
               transform="translate(23.781563 205.058438)scale(0.1 -0.1)"
               id="g2422">
              <use
                 xlink:href="#DejaVuSans-48"
                 id="use2414" />
              <use
                 x="63.623047"
                 xlink:href="#DejaVuSans-46"
                 id="use2416" />
              <use
                 x="95.410156"
                 xlink:href="#DejaVuSans-54"
                 id="use2418" />
              <use
                 x="159.033203"
                 xlink:href="#DejaVuSans-48"
                 id="use2420" />
            </g>
          </g>
        </g>
        <g
           id="ytick_3">
          <g
             id="line2d_11">
            <g
               id="g2428">
              <use
                 style="stroke:#000000;stroke-width:0.8;"
                 x="53.047188"
                 xlink:href="#md293031a9d"
                 y="174.079219"
                 id="use2426" />
            </g>
          </g>
          <g
             id="text_12">
            <!-- 0.65 -->
            <g
               transform="translate(23.781563 177.878438)scale(0.1 -0.1)"
               id="g2439">
              <use
                 xlink:href="#DejaVuSans-48"
                 id="use2431" />
              <use
                 x="63.623047"
                 xlink:href="#DejaVuSans-46"
                 id="use2433" />
              <use
                 x="95.410156"
                 xlink:href="#DejaVuSans-54"
                 id="use2435" />
              <use
                 x="159.033203"
                 xlink:href="#DejaVuSans-53"
                 id="use2437" />
            </g>
          </g>
        </g>
        <g
           id="ytick_4">
          <g
             id="line2d_12">
            <g
               id="g2445">
              <use
                 style="stroke:#000000;stroke-width:0.8;"
                 x="53.047188"
                 xlink:href="#md293031a9d"
                 y="146.899219"
                 id="use2443" />
            </g>
          </g>
          <g
             id="text_13">
            <!-- 0.70 -->
            <g
               transform="translate(23.781563 150.698438)scale(0.1 -0.1)"
               id="g2456">
              <use
                 xlink:href="#DejaVuSans-48"
                 id="use2448" />
              <use
                 x="63.623047"
                 xlink:href="#DejaVuSans-46"
                 id="use2450" />
              <use
                 x="95.410156"
                 xlink:href="#DejaVuSans-55"
                 id="use2452" />
              <use
                 x="159.033203"
                 xlink:href="#DejaVuSans-48"
                 id="use2454" />
            </g>
          </g>
        </g>
        <g
           id="ytick_5">
          <g
             id="line2d_13">
            <g
               id="g2462">
              <use
                 style="stroke:#000000;stroke-width:0.8;"
                 x="53.047188"
                 xlink:href="#md293031a9d"
                 y="119.719219"
                 id="use2460" />
            </g>
          </g>
          <g
             id="text_14">
            <!-- 0.75 -->
            <g
               transform="translate(23.781563 123.518438)scale(0.1 -0.1)"
               id="g2473">
              <use
                 xlink:href="#DejaVuSans-48"
                 id="use2465" />
              <use
                 x="63.623047"
                 xlink:href="#DejaVuSans-46"
                 id="use2467" />
              <use
                 x="95.410156"
                 xlink:href="#DejaVuSans-55"
                 id="use2469" />
              <use
                 x="159.033203"
                 xlink:href="#DejaVuSans-53"
                 id="use2471" />
            </g>
          </g>
        </g>
        <g
           id="ytick_6">
          <g
             id="line2d_14">
            <g
               id="g2479">
              <use
                 style="stroke:#000000;stroke-width:0.8;"
                 x="53.047188"
                 xlink:href="#md293031a9d"
                 y="92.539219"
                 id="use2477" />
            </g>
          </g>
          <g
             id="text_15">
            <!-- 0.80 -->
            <defs
               id="defs2483">
              <path
                 d="M 31.78125 34.625  Q 24.75 34.625 20.71875 30.859375  Q 16.703125 27.09375 16.703125 20.515625  Q 16.703125 13.921875 20.71875 10.15625  Q 24.75 6.390625 31.78125 6.390625  Q 38.8125 6.390625 42.859375 10.171875  Q 46.921875 13.96875 46.921875 20.515625  Q 46.921875 27.09375 42.890625 30.859375  Q 38.875 34.625 31.78125 34.625  z M 21.921875 38.8125  Q 15.578125 40.375 12.03125 44.71875  Q 8.5 49.078125 8.5 55.328125  Q 8.5 64.0625 14.71875 69.140625  Q 20.953125 74.21875 31.78125 74.21875  Q 42.671875 74.21875 48.875 69.140625  Q 55.078125 64.0625 55.078125 55.328125  Q 55.078125 49.078125 51.53125 44.71875  Q 48 40.375 41.703125 38.8125  Q 48.828125 37.15625 52.796875 32.3125  Q 56.78125 27.484375 56.78125 20.515625  Q 56.78125 9.90625 50.3125 4.234375  Q 43.84375 -1.421875 31.78125 -1.421875  Q 19.734375 -1.421875 13.25 4.234375  Q 6.78125 9.90625 6.78125 20.515625  Q 6.78125 27.484375 10.78125 32.3125  Q 14.796875 37.15625 21.921875 38.8125  z M 18.3125 54.390625  Q 18.3125 48.734375 21.84375 45.5625  Q 25.390625 42.390625 31.78125 42.390625  Q 38.140625 42.390625 41.71875 45.5625  Q 45.3125 48.734375 45.3125 54.390625  Q 45.3125 60.0625 41.71875 63.234375  Q 38.140625 66.40625 31.78125 66.40625  Q 25.390625 66.40625 21.84375 63.234375  Q 18.3125 60.0625 18.3125 54.390625  z "
                 id="DejaVuSans-56" />
            </defs>
            <g
               transform="translate(23.781563 96.338438)scale(0.1 -0.1)"
               id="g2493">
              <use
                 xlink:href="#DejaVuSans-48"
                 id="use2485" />
              <use
                 x="63.623047"
                 xlink:href="#DejaVuSans-46"
                 id="use2487" />
              <use
                 x="95.410156"
                 xlink:href="#DejaVuSans-56"
                 id="use2489" />
              <use
                 x="159.033203"
                 xlink:href="#DejaVuSans-48"
                 id="use2491" />
            </g>
          </g>
        </g>
        <g
           id="ytick_7">
          <g
             id="line2d_15">
            <g
               id="g2499">
              <use
                 style="stroke:#000000;stroke-width:0.8;"
                 x="53.047188"
                 xlink:href="#md293031a9d"
                 y="65.359219"
                 id="use2497" />
            </g>
          </g>
          <g
             id="text_16">
            <!-- 0.85 -->
            <g
               transform="translate(23.781563 69.158438)scale(0.1 -0.1)"
               id="g2510">
              <use
                 xlink:href="#DejaVuSans-48"
                 id="use2502" />
              <use
                 x="63.623047"
                 xlink:href="#DejaVuSans-46"
                 id="use2504" />
              <use
                 x="95.410156"
                 xlink:href="#DejaVuSans-56"
                 id="use2506" />
              <use
                 x="159.033203"
                 xlink:href="#DejaVuSans-53"
                 id="use2508" />
            </g>
          </g>
        </g>
        <g
           id="ytick_8">
          <g
             id="line2d_16">
            <g
               id="g2516">
              <use
                 style="stroke:#000000;stroke-width:0.8;"
                 x="53.047188"
                 xlink:href="#md293031a9d"
                 y="38.179219"
                 id="use2514" />
            </g>
          </g>
          <g
             id="text_17">
            <!-- 0.90 -->
            <defs
               id="defs2520">
              <path
                 d="M 10.984375 1.515625  L 10.984375 10.5  Q 14.703125 8.734375 18.5 7.8125  Q 22.3125 6.890625 25.984375 6.890625  Q 35.75 6.890625 40.890625 13.453125  Q 46.046875 20.015625 46.78125 33.40625  Q 43.953125 29.203125 39.59375 26.953125  Q 35.25 24.703125 29.984375 24.703125  Q 19.046875 24.703125 12.671875 31.3125  Q 6.296875 37.9375 6.296875 49.421875  Q 6.296875 60.640625 12.9375 67.421875  Q 19.578125 74.21875 30.609375 74.21875  Q 43.265625 74.21875 49.921875 64.515625  Q 56.59375 54.828125 56.59375 36.375  Q 56.59375 19.140625 48.40625 8.859375  Q 40.234375 -1.421875 26.421875 -1.421875  Q 22.703125 -1.421875 18.890625 -0.6875  Q 15.09375 0.046875 10.984375 1.515625  z M 30.609375 32.421875  Q 37.25 32.421875 41.125 36.953125  Q 45.015625 41.5 45.015625 49.421875  Q 45.015625 57.28125 41.125 61.84375  Q 37.25 66.40625 30.609375 66.40625  Q 23.96875 66.40625 20.09375 61.84375  Q 16.21875 57.28125 16.21875 49.421875  Q 16.21875 41.5 20.09375 36.953125  Q 23.96875 32.421875 30.609375 32.421875  z "
                 id="DejaVuSans-57" />
            </defs>
            <g
               transform="translate(23.781563 41.978438)scale(0.1 -0.1)"
               id="g2530">
              <use
                 xlink:href="#DejaVuSans-48"
                 id="use2522" />
              <use
                 x="63.623047"
                 xlink:href="#DejaVuSans-46"
                 id="use2524" />
              <use
                 x="95.410156"
                 xlink:href="#DejaVuSans-57"
                 id="use2526" />
              <use
                 x="159.033203"
                 xlink:href="#DejaVuSans-48"
                 id="use2528" />
            </g>
          </g>
        </g>
        <g
           id="ytick_9">
          <g
             id="line2d_17">
            <g
               id="g2536">
              <use
                 style="stroke:#000000;stroke-width:0.8;"
                 x="53.047188"
                 xlink:href="#md293031a9d"
                 y="10.999219"
                 id="use2534" />
            </g>
          </g>
          <g
             id="text_18">
            <!-- 0.95 -->
            <g
               transform="translate(23.781563 14.798438)scale(0.1 -0.1)"
               id="g2547">
              <use
                 xlink:href="#DejaVuSans-48"
                 id="use2539" />
              <use
                 x="63.623047"
                 xlink:href="#DejaVuSans-46"
                 id="use2541" />
              <use
                 x="95.410156"
                 xlink:href="#DejaVuSans-57"
                 id="use2543" />
              <use
                 x="159.033203"
                 xlink:href="#DejaVuSans-53"
                 id="use2545" />
            </g>
          </g>
        </g>
        <g
           id="text_19">
          <!-- Scaling Factor -->
          <defs
             id="defs2560">
            <path
               d="M 53.515625 70.515625  L 53.515625 60.890625  Q 47.90625 63.578125 42.921875 64.890625  Q 37.9375 66.21875 33.296875 66.21875  Q 25.25 66.21875 20.875 63.09375  Q 16.5 59.96875 16.5 54.203125  Q 16.5 49.359375 19.40625 46.890625  Q 22.3125 44.4375 30.421875 42.921875  L 36.375 41.703125  Q 47.40625 39.59375 52.65625 34.296875  Q 57.90625 29 57.90625 20.125  Q 57.90625 9.515625 50.796875 4.046875  Q 43.703125 -1.421875 29.984375 -1.421875  Q 24.8125 -1.421875 18.96875 -0.25  Q 13.140625 0.921875 6.890625 3.21875  L 6.890625 13.375  Q 12.890625 10.015625 18.65625 8.296875  Q 24.421875 6.59375 29.984375 6.59375  Q 38.421875 6.59375 43.015625 9.90625  Q 47.609375 13.234375 47.609375 19.390625  Q 47.609375 24.75 44.3125 27.78125  Q 41.015625 30.8125 33.5 32.328125  L 27.484375 33.5  Q 16.453125 35.6875 11.515625 40.375  Q 6.59375 45.0625 6.59375 53.421875  Q 6.59375 63.09375 13.40625 68.65625  Q 20.21875 74.21875 32.171875 74.21875  Q 37.3125 74.21875 42.625 73.28125  Q 47.953125 72.359375 53.515625 70.515625  z "
               id="DejaVuSans-83" />
            <path
               d="M 48.78125 52.59375  L 48.78125 44.1875  Q 44.96875 46.296875 41.140625 47.34375  Q 37.3125 48.390625 33.40625 48.390625  Q 24.65625 48.390625 19.8125 42.84375  Q 14.984375 37.3125 14.984375 27.296875  Q 14.984375 17.28125 19.8125 11.734375  Q 24.65625 6.203125 33.40625 6.203125  Q 37.3125 6.203125 41.140625 7.25  Q 44.96875 8.296875 48.78125 10.40625  L 48.78125 2.09375  Q 45.015625 0.34375 40.984375 -0.53125  Q 36.96875 -1.421875 32.421875 -1.421875  Q 20.0625 -1.421875 12.78125 6.34375  Q 5.515625 14.109375 5.515625 27.296875  Q 5.515625 40.671875 12.859375 48.328125  Q 20.21875 56 33.015625 56  Q 37.15625 56 41.109375 55.140625  Q 45.0625 54.296875 48.78125 52.59375  z "
               id="DejaVuSans-99" />
            <path
               d="M 9.421875 75.984375  L 18.40625 75.984375  L 18.40625 0  L 9.421875 0  z "
               id="DejaVuSans-108" />
            <path
               d="M 54.890625 33.015625  L 54.890625 0  L 45.90625 0  L 45.90625 32.71875  Q 45.90625 40.484375 42.875 44.328125  Q 39.84375 48.1875 33.796875 48.1875  Q 26.515625 48.1875 22.3125 43.546875  Q 18.109375 38.921875 18.109375 30.90625  L 18.109375 0  L 9.078125 0  L 9.078125 54.6875  L 18.109375 54.6875  L 18.109375 46.1875  Q 21.34375 51.125 25.703125 53.5625  Q 30.078125 56 35.796875 56  Q 45.21875 56 50.046875 50.171875  Q 54.890625 44.34375 54.890625 33.015625  z "
               id="DejaVuSans-110" />
            <path
               d="M 45.40625 27.984375  Q 45.40625 37.75 41.375 43.109375  Q 37.359375 48.484375 30.078125 48.484375  Q 22.859375 48.484375 18.828125 43.109375  Q 14.796875 37.75 14.796875 27.984375  Q 14.796875 18.265625 18.828125 12.890625  Q 22.859375 7.515625 30.078125 7.515625  Q 37.359375 7.515625 41.375 12.890625  Q 45.40625 18.265625 45.40625 27.984375  z M 54.390625 6.78125  Q 54.390625 -7.171875 48.1875 -13.984375  Q 42 -20.796875 29.203125 -20.796875  Q 24.46875 -20.796875 20.265625 -20.09375  Q 16.0625 -19.390625 12.109375 -17.921875  L 12.109375 -9.1875  Q 16.0625 -11.328125 19.921875 -12.34375  Q 23.78125 -13.375 27.78125 -13.375  Q 36.625 -13.375 41.015625 -8.765625  Q 45.40625 -4.15625 45.40625 5.171875  L 45.40625 9.625  Q 42.625 4.78125 38.28125 2.390625  Q 33.9375 0 27.875 0  Q 17.828125 0 11.671875 7.65625  Q 5.515625 15.328125 5.515625 27.984375  Q 5.515625 40.671875 11.671875 48.328125  Q 17.828125 56 27.875 56  Q 33.9375 56 38.28125 53.609375  Q 42.625 51.21875 45.40625 46.390625  L 45.40625 54.6875  L 54.390625 54.6875  z "
               id="DejaVuSans-103" />
            <path
               d="M 9.8125 72.90625  L 51.703125 72.90625  L 51.703125 64.59375  L 19.671875 64.59375  L 19.671875 43.109375  L 48.578125 43.109375  L 48.578125 34.8125  L 19.671875 34.8125  L 19.671875 0  L 9.8125 0  z "
               id="DejaVuSans-70" />
            <path
               d="M 18.3125 70.21875  L 18.3125 54.6875  L 36.8125 54.6875  L 36.8125 47.703125  L 18.3125 47.703125  L 18.3125 18.015625  Q 18.3125 11.328125 20.140625 9.421875  Q 21.96875 7.515625 27.59375 7.515625  L 36.8125 7.515625  L 36.8125 0  L 27.59375 0  Q 17.1875 0 13.234375 3.875  Q 9.28125 7.765625 9.28125 18.015625  L 9.28125 47.703125  L 2.6875 47.703125  L 2.6875 54.6875  L 9.28125 54.6875  L 9.28125 70.21875  z "
               id="DejaVuSans-116" />
            <path
               d="M 30.609375 48.390625  Q 23.390625 48.390625 19.1875 42.75  Q 14.984375 37.109375 14.984375 27.296875  Q 14.984375 17.484375 19.15625 11.84375  Q 23.34375 6.203125 30.609375 6.203125  Q 37.796875 6.203125 41.984375 11.859375  Q 46.1875 17.53125 46.1875 27.296875  Q 46.1875 37.015625 41.984375 42.703125  Q 37.796875 48.390625 30.609375 48.390625  z M 30.609375 56  Q 42.328125 56 49.015625 48.375  Q 55.71875 40.765625 55.71875 27.296875  Q 55.71875 13.875 49.015625 6.21875  Q 42.328125 -1.421875 30.609375 -1.421875  Q 18.84375 -1.421875 12.171875 6.21875  Q 5.515625 13.875 5.515625 27.296875  Q 5.515625 40.765625 12.171875 48.375  Q 18.84375 56 30.609375 56  z "
               id="DejaVuSans-111" />
            <path
               d="M 41.109375 46.296875  Q 39.59375 47.171875 37.8125 47.578125  Q 36.03125 48 33.890625 48  Q 26.265625 48 22.1875 43.046875  Q 18.109375 38.09375 18.109375 28.8125  L 18.109375 0  L 9.078125 0  L 9.078125 54.6875  L 18.109375 54.6875  L 18.109375 46.1875  Q 20.953125 51.171875 25.484375 53.578125  Q 30.03125 56 36.53125 56  Q 37.453125 56 38.578125 55.875  Q 39.703125 55.765625 41.0625 55.515625  z "
               id="DejaVuSans-114" />
          </defs>
          <g
             transform="translate(17.077969 165.226328)rotate(-90)scale(0.13 -0.13)"
             id="g2590">
            <use
               xlink:href="#DejaVuSans-83"
               id="use2562" />
            <use
               x="63.476562"
               xlink:href="#DejaVuSans-99"
               id="use2564" />
            <use
               x="118.457031"
               xlink:href="#DejaVuSans-97"
               id="use2566" />
            <use
               x="179.736328"
               xlink:href="#DejaVuSans-108"
               id="use2568" />
            <use
               x="207.519531"
               xlink:href="#DejaVuSans-105"
               id="use2570" />
            <use
               x="235.302734"
               xlink:href="#DejaVuSans-110"
               id="use2572" />
            <use
               x="298.681641"
               xlink:href="#DejaVuSans-103"
               id="use2574" />
            <use
               x="362.158203"
               xlink:href="#DejaVuSans-32"
               id="use2576" />
            <use
               x="393.945312"
               xlink:href="#DejaVuSans-70"
               id="use2578" />
            <use
               x="442.339844"
               xlink:href="#DejaVuSans-97"
               id="use2580" />
            <use
               x="503.619141"
               xlink:href="#DejaVuSans-99"
               id="use2582" />
            <use
               x="558.599609"
               xlink:href="#DejaVuSans-116"
               id="use2584" />
            <use
               x="597.808594"
               xlink:href="#DejaVuSans-111"
               id="use2586" />
            <use
               x="658.990234"
               xlink:href="#DejaVuSans-114"
               id="use2588" />
          </g>
        </g>
      </g>
      <g
         id="LineCollection_1">
        <path
           clip-path="url(#pc0d847e118)"
           d="M 292.37846 228.439219  L 292.37846 10.999219  "
           style="fill:none;stroke:#000000;stroke-width:1.5;"
           id="path2594" />
      </g>
      <g
         id="line2d_18">
        <path
           clip-path="url(#pc0d847e118)"
           d="M 53.047188 217.258296  L 53.953032 160.957666  L 54.858876 162.80778  L 55.76472 161.948768  L 56.670564 146.898026  L 57.576408 114.972491  L 58.482252 124.547564  L 59.388097 112.952834  L 60.293941 123.278676  L 61.199785 113.958605  L 62.105629 145.457792  L 63.011473 147.882832  L 63.917317 146.294089  L 64.823162 151.004174  L 65.729006 143.612774  L 66.63485 133.506655  L 67.540694 155.570536  L 68.446538 167.170646  L 69.352382 168.232985  L 70.258226 163.263526  L 71.164071 162.188429  L 72.069915 152.416584  L 72.975759 125.639698  L 73.881603 78.744167  L 74.787447 51.530531  L 75.693291 50.362308  L 76.599136 78.095233  L 77.50498 95.597137  L 78.410824 109.639662  L 79.316668 128.093463  L 80.222512 154.357981  L 81.128356 159.668636  L 82.940045 101.425744  L 83.845889 122.656656  L 84.751733 139.759435  L 85.657577 139.271188  L 86.563421 124.414823  L 87.469265 116.964186  L 88.37511 129.608935  L 89.280954 103.671275  L 90.186798 107.043048  L 91.092642 98.799913  L 91.998486 91.583148  L 92.90433 88.125612  L 93.810175 88.984235  L 94.716019 90.656186  L 95.621863 91.69128  L 96.527707 88.417025  L 97.433551 80.12301  L 98.339395 68.288621  L 99.245239 84.809981  L 100.151084 84.045615  L 101.056928 86.795214  L 101.962772 79.287046  L 102.868616 62.18751  L 103.77446 36.209614  L 104.680304 41.759352  L 105.586149 68.257845  L 107.397837 128.516104  L 108.303681 141.118222  L 109.209525 142.91875  L 110.115369 143.568417  L 111.021213 148.987252  L 112.832902 170.938721  L 113.738746 168.71296  L 114.64459 141.766154  L 115.550434 82.525863  L 116.456278 62.840149  L 117.362123 59.898381  L 118.267967 58.267592  L 120.079655 57.531041  L 120.985499 57.507351  L 121.891343 57.880842  L 124.608876 62.744047  L 125.51472 65.116302  L 126.420564 69.088494  L 127.326408 72.168672  L 128.232252 74.341023  L 129.138097 75.793143  L 131.855629 87.322864  L 132.761473 91.828981  L 133.667317 97.834998  L 136.38485 112.067252  L 137.290694 118.011132  L 139.102382 126.472359  L 140.008226 130.484957  L 140.914071 135.408727  L 142.725759 142.219015  L 143.631603 145.308464  L 144.537447 149.13181  L 146.349136 154.29283  L 147.25498 156.610321  L 148.160824 161.551878  L 149.066668 163.625256  L 149.972512 164.371587  L 150.878356 163.065736  L 151.7842 163.511406  L 152.690045 161.838914  L 153.595889 161.33533  L 154.501733 162.413752  L 155.407577 166.930153  L 156.313421 169.350435  L 157.219265 168.927944  L 158.12511 164.832622  L 159.030954 157.05032  L 160.842642 129.210387  L 161.748486 117.976618  L 162.65433 113.4566  L 164.466019 106.240567  L 165.371863 104.089526  L 167.183551 98.739003  L 168.089395 94.948157  L 169.901084 84.580152  L 170.806928 79.594865  L 171.712772 79.042049  L 172.618616 85.492292  L 173.52446 107.36113  L 174.430304 134.923866  L 175.336149 151.586996  L 176.241993 161.11262  L 177.147837 162.82097  L 178.053681 160.938496  L 178.959525 156.722769  L 181.677058 140.536404  L 182.582902 137.077538  L 185.300434 129.238112  L 186.206278 126.919329  L 188.017967 123.478144  L 189.829655 121.023464  L 190.735499 120.304095  L 192.547188 117.814103  L 193.453032 117.391412  L 194.358876 117.298415  L 196.170564 118.096239  L 197.076408 118.929448  L 197.982252 120.229993  L 198.888097 121.807153  L 199.793941 122.662885  L 200.699785 124.285324  L 201.605629 125.54817  L 202.511473 127.015998  L 203.417317 127.680859  L 204.323162 127.942745  L 206.13485 127.324077  L 207.040694 126.204659  L 208.852382 122.316839  L 209.758226 120.207393  L 211.569915 113.932132  L 213.381603 106.100136  L 219.722512 76.199981  L 221.5342 70.183767  L 222.440045 67.804005  L 223.345889 66.062174  L 224.251733 64.848661  L 225.157577 64.001242  L 226.063421 63.563306  L 226.969265 63.44037  L 227.87511 64.048837  L 228.780954 65.170344  L 229.686798 67.01727  L 230.592642 69.247058  L 231.498486 72.36077  L 232.40433 76.088292  L 233.310175 80.891102  L 235.121863 93.40886  L 239.651084 129.62905  L 240.556928 136.346824  L 244.180304 167.766932  L 245.086149 179.575542  L 246.897837 207.242155  L 247.803681 211.987167  L 248.709525 207.863136  L 249.615369 196.306499  L 250.521213 187.587786  L 251.427058 181.695148  L 253.238746 177.442079  L 254.14459 179.803943  L 255.050434 179.24253  L 255.956278 173.921823  L 256.862123 164.981484  L 257.767967 160.551484  L 258.673811 157.708229  L 259.579655 156.509279  L 260.485499 153.439802  L 261.391343 154.126362  L 262.297188 155.90526  L 263.203032 158.576432  L 264.108876 158.401305  L 266.826408 170.299548  L 267.732252 170.177124  L 268.638097 172.526404  L 269.543941 173.873821  L 270.449785 174.569013  L 271.355629 168.923215  L 272.261473 168.340558  L 273.167317 167.920249  L 274.073162 166.522903  L 274.979006 157.590351  L 275.88485 154.44773  L 276.790694 150.233422  L 277.696538 145.133481  L 278.602382 129.775655  L 279.508226 121.61341  L 281.319915 101.683088  L 282.225759 79.889075  L 284.037447 60.54593  L 284.943291 52.619723  L 285.849136 43.006442  L 286.75498 36.146333  L 287.660824 30.910763  L 289.472512 22.445451  L 290.378356 22.652489  L 291.2842 24.462234  L 292.190045 28.030491  L 293.095889 30.342421  L 294.001733 37.018394  L 294.907577 44.761081  L 295.813421 50.992599  L 296.719265 54.034688  L 298.530954 64.72664  L 299.436798 68.454224  L 300.342642 68.043096  L 301.248486 69.539621  L 302.15433 70.245839  L 303.060175 70.689394  L 303.966019 69.303254  L 304.871863 69.056915  L 305.777707 68.994694  L 306.683551 68.418743  L 306.683551 68.418743  "
           style="fill:none;stroke:#6495ed;stroke-linecap:square;stroke-width:1.5;"
           id="path2597" />
      </g>
      <g
         id="line2d_19">
        <path
           clip-path="url(#pc0d847e118)"
           d="M 53.047188 122.161192  L 306.683551 122.161192  L 306.683551 122.161192  "
           style="fill:none;stroke:#808080;stroke-dasharray:5.55,2.4;stroke-dashoffset:0;stroke-width:1.5;"
           id="path2600" />
      </g>
      <g
         id="patch_3">
        <path
           d="M 53.047188 228.439219  L 53.047188 10.999219  "
           style="fill:none;stroke:#000000;stroke-linecap:square;stroke-linejoin:miter;stroke-width:0.8;"
           id="path2603" />
      </g>
      <g
         id="patch_4">
        <path
           d="M 306.683551 228.439219  L 306.683551 10.999219  "
           style="fill:none;stroke:#000000;stroke-linecap:square;stroke-linejoin:miter;stroke-width:0.8;"
           id="path2606" />
      </g>
      <g
         id="patch_5">
        <path
           d="M 53.047188 228.439219  L 306.683551 228.439219  "
           style="fill:none;stroke:#000000;stroke-linecap:square;stroke-linejoin:miter;stroke-width:0.8;"
           id="path2609" />
      </g>
      <g
         id="patch_6">
        <path
           d="M 53.047188 10.999219  L 306.683551 10.999219  "
           style="fill:none;stroke:#000000;stroke-linecap:square;stroke-linejoin:miter;stroke-width:0.8;"
           id="path2612" />
      </g>
      <g
         id="legend_1">
        <g
           id="patch_7">
          <path
             d="M 60.047188 223.439219  L 243.815938 223.439219  Q 245.815938 223.439219 245.815938 221.439219  L 245.815938 193.082969  Q 245.815938 191.082969 243.815938 191.082969  L 60.047188 191.082969  Q 58.047188 191.082969 58.047188 193.082969  L 58.047188 221.439219  Q 58.047188 223.439219 60.047188 223.439219  z "
             style="fill:#ffffff;opacity:0.8;stroke:#cccccc;stroke-linejoin:miter;"
             id="path2615" />
        </g>
        <g
           id="line2d_20">
          <path
             d="M 62.047188 199.181406  L 82.047188 199.181406  "
             style="fill:none;stroke:#6495ed;stroke-linecap:square;stroke-width:1.5;"
             id="path2618" />
        </g>
        <g
           id="line2d_21" />
        <g
           id="text_20">
          <!-- time-varying field and latitude -->
          <defs
             id="defs2628">
            <path
               d="M 4.890625 31.390625  L 31.203125 31.390625  L 31.203125 23.390625  L 4.890625 23.390625  z "
               id="DejaVuSans-45" />
            <path
               d="M 2.984375 54.6875  L 12.5 54.6875  L 29.59375 8.796875  L 46.6875 54.6875  L 56.203125 54.6875  L 35.6875 0  L 23.484375 0  z "
               id="DejaVuSans-118" />
            <path
               d="M 32.171875 -5.078125  Q 28.375 -14.84375 24.75 -17.8125  Q 21.140625 -20.796875 15.09375 -20.796875  L 7.90625 -20.796875  L 7.90625 -13.28125  L 13.1875 -13.28125  Q 16.890625 -13.28125 18.9375 -11.515625  Q 21 -9.765625 23.484375 -3.21875  L 25.09375 0.875  L 2.984375 54.6875  L 12.5 54.6875  L 29.59375 11.921875  L 46.6875 54.6875  L 56.203125 54.6875  z "
               id="DejaVuSans-121" />
            <path
               d="M 37.109375 75.984375  L 37.109375 68.5  L 28.515625 68.5  Q 23.6875 68.5 21.796875 66.546875  Q 19.921875 64.59375 19.921875 59.515625  L 19.921875 54.6875  L 34.71875 54.6875  L 34.71875 47.703125  L 19.921875 47.703125  L 19.921875 0  L 10.890625 0  L 10.890625 47.703125  L 2.296875 47.703125  L 2.296875 54.6875  L 10.890625 54.6875  L 10.890625 58.5  Q 10.890625 67.625 15.140625 71.796875  Q 19.390625 75.984375 28.609375 75.984375  z "
               id="DejaVuSans-102" />
            <path
               d="M 45.40625 46.390625  L 45.40625 75.984375  L 54.390625 75.984375  L 54.390625 0  L 45.40625 0  L 45.40625 8.203125  Q 42.578125 3.328125 38.25 0.953125  Q 33.9375 -1.421875 27.875 -1.421875  Q 17.96875 -1.421875 11.734375 6.484375  Q 5.515625 14.40625 5.515625 27.296875  Q 5.515625 40.1875 11.734375 48.09375  Q 17.96875 56 27.875 56  Q 33.9375 56 38.25 53.625  Q 42.578125 51.265625 45.40625 46.390625  z M 14.796875 27.296875  Q 14.796875 17.390625 18.875 11.75  Q 22.953125 6.109375 30.078125 6.109375  Q 37.203125 6.109375 41.296875 11.75  Q 45.40625 17.390625 45.40625 27.296875  Q 45.40625 37.203125 41.296875 42.84375  Q 37.203125 48.484375 30.078125 48.484375  Q 22.953125 48.484375 18.875 42.84375  Q 14.796875 37.203125 14.796875 27.296875  z "
               id="DejaVuSans-100" />
            <path
               d="M 8.5 21.578125  L 8.5 54.6875  L 17.484375 54.6875  L 17.484375 21.921875  Q 17.484375 14.15625 20.5 10.265625  Q 23.53125 6.390625 29.59375 6.390625  Q 36.859375 6.390625 41.078125 11.03125  Q 45.3125 15.671875 45.3125 23.6875  L 45.3125 54.6875  L 54.296875 54.6875  L 54.296875 0  L 45.3125 0  L 45.3125 8.40625  Q 42.046875 3.421875 37.71875 1  Q 33.40625 -1.421875 27.6875 -1.421875  Q 18.265625 -1.421875 13.375 4.4375  Q 8.5 10.296875 8.5 21.578125  z M 31.109375 56  z "
               id="DejaVuSans-117" />
          </defs>
          <g
             transform="translate(90.047188 202.681406)scale(0.1 -0.1)"
             id="g2692">
            <use
               xlink:href="#DejaVuSans-116"
               id="use2630" />
            <use
               x="39.208984"
               xlink:href="#DejaVuSans-105"
               id="use2632" />
            <use
               x="66.992188"
               xlink:href="#DejaVuSans-109"
               id="use2634" />
            <use
               x="164.404297"
               xlink:href="#DejaVuSans-101"
               id="use2636" />
            <use
               x="225.927734"
               xlink:href="#DejaVuSans-45"
               id="use2638" />
            <use
               x="259.386719"
               xlink:href="#DejaVuSans-118"
               id="use2640" />
            <use
               x="318.566406"
               xlink:href="#DejaVuSans-97"
               id="use2642" />
            <use
               x="379.845703"
               xlink:href="#DejaVuSans-114"
               id="use2644" />
            <use
               x="420.958984"
               xlink:href="#DejaVuSans-121"
               id="use2646" />
            <use
               x="480.138672"
               xlink:href="#DejaVuSans-105"
               id="use2648" />
            <use
               x="507.921875"
               xlink:href="#DejaVuSans-110"
               id="use2650" />
            <use
               x="571.300781"
               xlink:href="#DejaVuSans-103"
               id="use2652" />
            <use
               x="634.777344"
               xlink:href="#DejaVuSans-32"
               id="use2654" />
            <use
               x="666.564453"
               xlink:href="#DejaVuSans-102"
               id="use2656" />
            <use
               x="701.769531"
               xlink:href="#DejaVuSans-105"
               id="use2658" />
            <use
               x="729.552734"
               xlink:href="#DejaVuSans-101"
               id="use2660" />
            <use
               x="791.076172"
               xlink:href="#DejaVuSans-108"
               id="use2662" />
            <use
               x="818.859375"
               xlink:href="#DejaVuSans-100"
               id="use2664" />
            <use
               x="882.335938"
               xlink:href="#DejaVuSans-32"
               id="use2666" />
            <use
               x="914.123047"
               xlink:href="#DejaVuSans-97"
               id="use2668" />
            <use
               x="975.402344"
               xlink:href="#DejaVuSans-110"
               id="use2670" />
            <use
               x="1038.78125"
               xlink:href="#DejaVuSans-100"
               id="use2672" />
            <use
               x="1102.257812"
               xlink:href="#DejaVuSans-32"
               id="use2674" />
            <use
               x="1134.044922"
               xlink:href="#DejaVuSans-108"
               id="use2676" />
            <use
               x="1161.828125"
               xlink:href="#DejaVuSans-97"
               id="use2678" />
            <use
               x="1223.107422"
               xlink:href="#DejaVuSans-116"
               id="use2680" />
            <use
               x="1262.316406"
               xlink:href="#DejaVuSans-105"
               id="use2682" />
            <use
               x="1290.099609"
               xlink:href="#DejaVuSans-116"
               id="use2684" />
            <use
               x="1329.308594"
               xlink:href="#DejaVuSans-117"
               id="use2686" />
            <use
               x="1392.6875"
               xlink:href="#DejaVuSans-100"
               id="use2688" />
            <use
               x="1456.164062"
               xlink:href="#DejaVuSans-101"
               id="use2690" />
          </g>
        </g>
        <g
           id="line2d_22">
          <path
             d="M 62.047188 213.859531  L 82.047188 213.859531  "
             style="fill:none;stroke:#808080;stroke-dasharray:5.55,2.4;stroke-dashoffset:0;stroke-width:1.5;"
             id="path2695" />
        </g>
        <g
           id="line2d_23" />
        <g
           id="text_21">
          <!-- constant field and latitude -->
          <defs
             id="defs2700">
            <path
               d="M 44.28125 53.078125  L 44.28125 44.578125  Q 40.484375 46.53125 36.375 47.5  Q 32.28125 48.484375 27.875 48.484375  Q 21.1875 48.484375 17.84375 46.4375  Q 14.5 44.390625 14.5 40.28125  Q 14.5 37.15625 16.890625 35.375  Q 19.28125 33.59375 26.515625 31.984375  L 29.59375 31.296875  Q 39.15625 29.25 43.1875 25.515625  Q 47.21875 21.78125 47.21875 15.09375  Q 47.21875 7.46875 41.1875 3.015625  Q 35.15625 -1.421875 24.609375 -1.421875  Q 20.21875 -1.421875 15.453125 -0.5625  Q 10.6875 0.296875 5.421875 2  L 5.421875 11.28125  Q 10.40625 8.6875 15.234375 7.390625  Q 20.0625 6.109375 24.8125 6.109375  Q 31.15625 6.109375 34.5625 8.28125  Q 37.984375 10.453125 37.984375 14.40625  Q 37.984375 18.0625 35.515625 20.015625  Q 33.0625 21.96875 24.703125 23.78125  L 21.578125 24.515625  Q 13.234375 26.265625 9.515625 29.90625  Q 5.8125 33.546875 5.8125 39.890625  Q 5.8125 47.609375 11.28125 51.796875  Q 16.75 56 26.8125 56  Q 31.78125 56 36.171875 55.265625  Q 40.578125 54.546875 44.28125 53.078125  z "
               id="DejaVuSans-115" />
          </defs>
          <g
             transform="translate(90.047188 217.359531)scale(0.1 -0.1)"
             id="g2756">
            <use
               xlink:href="#DejaVuSans-99"
               id="use2702" />
            <use
               x="54.980469"
               xlink:href="#DejaVuSans-111"
               id="use2704" />
            <use
               x="116.162109"
               xlink:href="#DejaVuSans-110"
               id="use2706" />
            <use
               x="179.541016"
               xlink:href="#DejaVuSans-115"
               id="use2708" />
            <use
               x="231.640625"
               xlink:href="#DejaVuSans-116"
               id="use2710" />
            <use
               x="270.849609"
               xlink:href="#DejaVuSans-97"
               id="use2712" />
            <use
               x="332.128906"
               xlink:href="#DejaVuSans-110"
               id="use2714" />
            <use
               x="395.507812"
               xlink:href="#DejaVuSans-116"
               id="use2716" />
            <use
               x="434.716797"
               xlink:href="#DejaVuSans-32"
               id="use2718" />
            <use
               x="466.503906"
               xlink:href="#DejaVuSans-102"
               id="use2720" />
            <use
               x="501.708984"
               xlink:href="#DejaVuSans-105"
               id="use2722" />
            <use
               x="529.492188"
               xlink:href="#DejaVuSans-101"
               id="use2724" />
            <use
               x="591.015625"
               xlink:href="#DejaVuSans-108"
               id="use2726" />
            <use
               x="618.798828"
               xlink:href="#DejaVuSans-100"
               id="use2728" />
            <use
               x="682.275391"
               xlink:href="#DejaVuSans-32"
               id="use2730" />
            <use
               x="714.0625"
               xlink:href="#DejaVuSans-97"
               id="use2732" />
            <use
               x="775.341797"
               xlink:href="#DejaVuSans-110"
               id="use2734" />
            <use
               x="838.720703"
               xlink:href="#DejaVuSans-100"
               id="use2736" />
            <use
               x="902.197266"
               xlink:href="#DejaVuSans-32"
               id="use2738" />
            <use
               x="933.984375"
               xlink:href="#DejaVuSans-108"
               id="use2740" />
            <use
               x="961.767578"
               xlink:href="#DejaVuSans-97"
               id="use2742" />
            <use
               x="1023.046875"
               xlink:href="#DejaVuSans-116"
               id="use2744" />
            <use
               x="1062.255859"
               xlink:href="#DejaVuSans-105"
               id="use2746" />
            <use
               x="1090.039062"
               xlink:href="#DejaVuSans-116"
               id="use2748" />
            <use
               x="1129.248047"
               xlink:href="#DejaVuSans-117"
               id="use2750" />
            <use
               x="1192.626953"
               xlink:href="#DejaVuSans-100"
               id="use2752" />
            <use
               x="1256.103516"
               xlink:href="#DejaVuSans-101"
               id="use2754" />
          </g>
        </g>
      </g>
    </g>
    <g
       id="axes_2">
      <g
         id="patch_8">
        <path
           d="M 357.410824 228.439219  L 611.047187 228.439219  L 611.047187 10.999219  L 357.410824 10.999219  z "
           style="fill:#ffffff;"
           id="path2761" />
      </g>
      <g
         id="matplotlib.axis_3">
        <g
           id="xtick_9">
          <g
             id="line2d_24">
            <g
               id="g2766">
              <use
                 style="stroke:#000000;stroke-width:0.8;"
                 x="357.410824"
                 xlink:href="#m729b329d42"
                 y="228.439219"
                 id="use2764" />
            </g>
          </g>
          <g
             id="text_22">
            <!-- 0 -->
            <g
               transform="translate(354.229574 243.037656)scale(0.1 -0.1)"
               id="g2771">
              <use
                 xlink:href="#DejaVuSans-48"
                 id="use2769" />
            </g>
          </g>
        </g>
        <g
           id="xtick_10">
          <g
             id="line2d_25">
            <g
               id="g2777">
              <use
                 style="stroke:#000000;stroke-width:0.8;"
                 x="393.64459"
                 xlink:href="#m729b329d42"
                 y="228.439219"
                 id="use2775" />
            </g>
          </g>
          <g
             id="text_23">
            <!-- 10 -->
            <g
               transform="translate(387.28209 243.037656)scale(0.1 -0.1)"
               id="g2784">
              <use
                 xlink:href="#DejaVuSans-49"
                 id="use2780" />
              <use
                 x="63.623047"
                 xlink:href="#DejaVuSans-48"
                 id="use2782" />
            </g>
          </g>
        </g>
        <g
           id="xtick_11">
          <g
             id="line2d_26">
            <g
               id="g2790">
              <use
                 style="stroke:#000000;stroke-width:0.8;"
                 x="429.878356"
                 xlink:href="#m729b329d42"
                 y="228.439219"
                 id="use2788" />
            </g>
          </g>
          <g
             id="text_24">
            <!-- 20 -->
            <g
               transform="translate(423.515856 243.037656)scale(0.1 -0.1)"
               id="g2797">
              <use
                 xlink:href="#DejaVuSans-50"
                 id="use2793" />
              <use
                 x="63.623047"
                 xlink:href="#DejaVuSans-48"
                 id="use2795" />
            </g>
          </g>
        </g>
        <g
           id="xtick_12">
          <g
             id="line2d_27">
            <g
               id="g2803">
              <use
                 style="stroke:#000000;stroke-width:0.8;"
                 x="466.112123"
                 xlink:href="#m729b329d42"
                 y="228.439219"
                 id="use2801" />
            </g>
          </g>
          <g
             id="text_25">
            <!-- 30 -->
            <g
               transform="translate(459.749623 243.037656)scale(0.1 -0.1)"
               id="g2810">
              <use
                 xlink:href="#DejaVuSans-51"
                 id="use2806" />
              <use
                 x="63.623047"
                 xlink:href="#DejaVuSans-48"
                 id="use2808" />
            </g>
          </g>
        </g>
        <g
           id="xtick_13">
          <g
             id="line2d_28">
            <g
               id="g2816">
              <use
                 style="stroke:#000000;stroke-width:0.8;"
                 x="502.345889"
                 xlink:href="#m729b329d42"
                 y="228.439219"
                 id="use2814" />
            </g>
          </g>
          <g
             id="text_26">
            <!-- 40 -->
            <g
               transform="translate(495.983389 243.037656)scale(0.1 -0.1)"
               id="g2823">
              <use
                 xlink:href="#DejaVuSans-52"
                 id="use2819" />
              <use
                 x="63.623047"
                 xlink:href="#DejaVuSans-48"
                 id="use2821" />
            </g>
          </g>
        </g>
        <g
           id="xtick_14">
          <g
             id="line2d_29">
            <g
               id="g2829">
              <use
                 style="stroke:#000000;stroke-width:0.8;"
                 x="538.579655"
                 xlink:href="#m729b329d42"
                 y="228.439219"
                 id="use2827" />
            </g>
          </g>
          <g
             id="text_27">
            <!-- 50 -->
            <g
               transform="translate(532.217155 243.037656)scale(0.1 -0.1)"
               id="g2836">
              <use
                 xlink:href="#DejaVuSans-53"
                 id="use2832" />
              <use
                 x="63.623047"
                 xlink:href="#DejaVuSans-48"
                 id="use2834" />
            </g>
          </g>
        </g>
        <g
           id="xtick_15">
          <g
             id="line2d_30">
            <g
               id="g2842">
              <use
                 style="stroke:#000000;stroke-width:0.8;"
                 x="574.813421"
                 xlink:href="#m729b329d42"
                 y="228.439219"
                 id="use2840" />
            </g>
          </g>
          <g
             id="text_28">
            <!-- 60 -->
            <g
               transform="translate(568.450921 243.037656)scale(0.1 -0.1)"
               id="g2849">
              <use
                 xlink:href="#DejaVuSans-54"
                 id="use2845" />
              <use
                 x="63.623047"
                 xlink:href="#DejaVuSans-48"
                 id="use2847" />
            </g>
          </g>
        </g>
        <g
           id="xtick_16">
          <g
             id="line2d_31">
            <g
               id="g2855">
              <use
                 style="stroke:#000000;stroke-width:0.8;"
                 x="611.047187"
                 xlink:href="#m729b329d42"
                 y="228.439219"
                 id="use2853" />
            </g>
          </g>
          <g
             id="text_29">
            <!-- 70 -->
            <g
               transform="translate(604.684687 243.037656)scale(0.1 -0.1)"
               id="g2862">
              <use
                 xlink:href="#DejaVuSans-55"
                 id="use2858" />
              <use
                 x="63.623047"
                 xlink:href="#DejaVuSans-48"
                 id="use2860" />
            </g>
          </g>
        </g>
        <g
           id="text_30">
          <!-- Time (Ma) -->
          <g
             transform="translate(451.595959 258.995313)scale(0.13 -0.13)"
             id="g2884">
            <use
               xlink:href="#DejaVuSans-84"
               id="use2866" />
            <use
               x="57.958984"
               xlink:href="#DejaVuSans-105"
               id="use2868" />
            <use
               x="85.742188"
               xlink:href="#DejaVuSans-109"
               id="use2870" />
            <use
               x="183.154297"
               xlink:href="#DejaVuSans-101"
               id="use2872" />
            <use
               x="244.677734"
               xlink:href="#DejaVuSans-32"
               id="use2874" />
            <use
               x="276.464844"
               xlink:href="#DejaVuSans-40"
               id="use2876" />
            <use
               x="315.478516"
               xlink:href="#DejaVuSans-77"
               id="use2878" />
            <use
               x="401.757812"
               xlink:href="#DejaVuSans-97"
               id="use2880" />
            <use
               x="463.037109"
               xlink:href="#DejaVuSans-41"
               id="use2882" />
          </g>
        </g>
      </g>
      <g
         id="matplotlib.axis_4">
        <g
           id="ytick_10">
          <g
             id="line2d_32">
            <g
               id="g2890">
              <use
                 style="stroke:#000000;stroke-width:0.8;"
                 x="357.410824"
                 xlink:href="#md293031a9d"
                 y="228.439219"
                 id="use2888" />
            </g>
          </g>
        </g>
        <g
           id="ytick_11">
          <g
             id="line2d_33">
            <g
               id="g2896">
              <use
                 style="stroke:#000000;stroke-width:0.8;"
                 x="357.410824"
                 xlink:href="#md293031a9d"
                 y="201.259219"
                 id="use2894" />
            </g>
          </g>
        </g>
        <g
           id="ytick_12">
          <g
             id="line2d_34">
            <g
               id="g2902">
              <use
                 style="stroke:#000000;stroke-width:0.8;"
                 x="357.410824"
                 xlink:href="#md293031a9d"
                 y="174.079219"
                 id="use2900" />
            </g>
          </g>
        </g>
        <g
           id="ytick_13">
          <g
             id="line2d_35">
            <g
               id="g2908">
              <use
                 style="stroke:#000000;stroke-width:0.8;"
                 x="357.410824"
                 xlink:href="#md293031a9d"
                 y="146.899219"
                 id="use2906" />
            </g>
          </g>
        </g>
        <g
           id="ytick_14">
          <g
             id="line2d_36">
            <g
               id="g2914">
              <use
                 style="stroke:#000000;stroke-width:0.8;"
                 x="357.410824"
                 xlink:href="#md293031a9d"
                 y="119.719219"
                 id="use2912" />
            </g>
          </g>
        </g>
        <g
           id="ytick_15">
          <g
             id="line2d_37">
            <g
               id="g2920">
              <use
                 style="stroke:#000000;stroke-width:0.8;"
                 x="357.410824"
                 xlink:href="#md293031a9d"
                 y="92.539219"
                 id="use2918" />
            </g>
          </g>
        </g>
        <g
           id="ytick_16">
          <g
             id="line2d_38">
            <g
               id="g2926">
              <use
                 style="stroke:#000000;stroke-width:0.8;"
                 x="357.410824"
                 xlink:href="#md293031a9d"
                 y="65.359219"
                 id="use2924" />
            </g>
          </g>
        </g>
        <g
           id="ytick_17">
          <g
             id="line2d_39">
            <g
               id="g2932">
              <use
                 style="stroke:#000000;stroke-width:0.8;"
                 x="357.410824"
                 xlink:href="#md293031a9d"
                 y="38.179219"
                 id="use2930" />
            </g>
          </g>
        </g>
        <g
           id="ytick_18">
          <g
             id="line2d_40">
            <g
               id="g2938">
              <use
                 style="stroke:#000000;stroke-width:0.8;"
                 x="357.410824"
                 xlink:href="#md293031a9d"
                 y="10.999219"
                 id="use2936" />
            </g>
          </g>
        </g>
      </g>
      <g
         id="LineCollection_2">
        <path
           clip-path="url(#p2356878fda)"
           d="M 596.742097 228.439219  L 596.742097 10.999219  "
           style="fill:none;stroke:#000000;stroke-width:1.5;"
           id="path2943" />
      </g>
      <g
         id="line2d_41">
        <path
           clip-path="url(#p2356878fda)"
           d="M 357.410824 212.857613  L 358.316668 158.389543  L 359.222512 160.216099  L 360.128356 159.370022  L 361.0342 144.088617  L 361.940045 107.554431  L 362.845889 117.34631  L 363.751733 105.525988  L 364.657577 116.032195  L 365.563421 105.71501  L 366.469265 138.868934  L 367.37511 141.486598  L 368.280954 139.77266  L 369.186798 144.055278  L 370.092642 136.018038  L 370.998486 125.043038  L 371.90433 148.918466  L 372.810175 159.736204  L 373.716019 160.720094  L 374.621863 156.004707  L 375.527707 154.946113  L 376.433551 143.986153  L 377.339395 114.671446  L 378.245239 69.941163  L 379.151084 46.730285  L 380.056928 45.06651  L 380.962772 68.647556  L 381.868616 84.203275  L 382.77446 97.446974  L 383.680304 115.297231  L 384.586149 144.546728  L 385.491993 150.226165  L 387.303681 87.764477  L 389.115369 127.207707  L 390.021213 126.655166  L 390.927058 109.427338  L 391.832902 101.769193  L 392.738746 114.980925  L 393.64459 88.95178  L 394.550434 91.215927  L 395.456278 83.653797  L 396.362123 77.295141  L 397.267967 74.321038  L 398.173811 74.316826  L 399.079655 75.740013  L 399.985499 76.626345  L 400.891343 73.836304  L 401.797187 66.153315  L 402.703032 56.754502  L 403.608876 69.977833  L 404.51472 69.349585  L 405.420564 70.79479  L 406.326408 64.737224  L 407.232252 51.514356  L 408.138097 27.311751  L 409.043941 31.675127  L 410.855629 81.119847  L 411.761473 108.687172  L 412.667317 122.338305  L 413.573162 124.486326  L 414.479006 125.265343  L 415.38485 131.807324  L 416.290694 144.379309  L 417.196538 155.014694  L 418.102382 153.00862  L 419.008226 122.428267  L 419.914071 65.184955  L 420.819915 50.526243  L 421.725759 48.443658  L 422.631603 47.307197  L 423.537447 46.738769  L 424.443291 46.518195  L 425.349136 46.502131  L 426.25498 46.755825  L 427.160824 47.440884  L 428.066668 48.432711  L 428.972512 49.678202  L 429.878356 51.334095  L 431.690045 55.573554  L 432.595889 57.122385  L 433.501733 58.165667  L 434.407577 60.097474  L 435.313421 62.655816  L 437.12511 69.107241  L 438.936798 76.567282  L 441.65433 88.789066  L 447.995239 117.708258  L 449.806928 124.897475  L 451.618616 131.151513  L 453.430304 136.441647  L 454.336149 137.315128  L 455.241993 135.777082  L 457.053681 131.339194  L 457.959525 130.70143  L 458.865369 132.060037  L 460.677058 137.749333  L 461.582902 137.292342  L 462.488746 132.577464  L 463.39459 120.298698  L 464.300434 101.987436  L 465.206278 86.073381  L 466.112123 76.011379  L 467.017967 72.22082  L 468.829655 66.954738  L 470.641343 63.795325  L 471.547187 62.006527  L 472.453032 59.604299  L 473.358876 56.330926  L 475.170564 50.67866  L 476.076408 50.374771  L 476.982252 54.004195  L 477.888097 67.956335  L 478.793941 92.004943  L 479.699785 112.760843  L 480.605629 125.832031  L 481.511473 127.993302  L 482.417317 125.529764  L 483.323162 119.797846  L 485.13485 104.258089  L 486.040694 98.28468  L 486.946538 94.260468  L 488.758226 88.586578  L 489.664071 85.934278  L 490.569915 83.703491  L 492.381603 80.490295  L 494.193291 78.349882  L 495.099136 77.738308  L 496.910824 75.617308  L 497.816668 75.274635  L 499.628356 75.188051  L 500.5342 75.479883  L 501.440045 76.161244  L 503.251733 78.223806  L 504.157577 78.962437  L 505.063421 80.391759  L 506.87511 82.541546  L 507.780954 83.164994  L 508.686798 83.41258  L 509.592642 83.166215  L 510.498486 82.521615  L 511.40433 81.486029  L 513.216019 78.040441  L 514.121863 76.008891  L 515.933551 71.067087  L 522.27446 52.024844  L 524.086149 47.663566  L 524.991993 46.011379  L 525.897837 43.790409  L 526.803681 41.994474  L 527.709525 40.662072  L 528.615369 39.59301  L 529.521213 38.93345  L 530.427058 38.590735  L 531.332902 38.494294  L 532.238746 38.907477  L 533.14459 39.778253  L 534.050434 41.195709  L 534.956278 42.882797  L 537.673811 49.80519  L 538.579655 53.024714  L 539.485499 56.934458  L 540.391343 61.444886  L 542.203032 72.242931  L 544.01472 84.311846  L 544.920564 91.247166  L 545.826408 100.311395  L 548.543941 132.908457  L 550.355629 155.002123  L 551.261473 163.232094  L 552.167317 166.082871  L 553.073162 163.597165  L 554.88485 152.861455  L 555.790694 148.736589  L 556.696538 146.982903  L 557.602382 147.592857  L 558.508226 149.47251  L 559.414071 149.036658  L 560.319915 144.543876  L 561.225759 138.215938  L 562.131603 132.905739  L 563.037447 129.272673  L 563.943291 127.703672  L 564.849136 127.564233  L 565.75498 128.455607  L 566.660824 130.748725  L 567.566668 134.123321  L 568.472512 138.032129  L 570.2842 146.871559  L 572.095889 154.441917  L 573.001733 156.487286  L 573.907577 157.61463  L 574.813421 158.184256  L 575.719265 158.076168  L 576.62511 157.546619  L 577.530954 157.161368  L 578.436798 155.860521  L 579.342642 153.634003  L 580.248486 150.421157  L 581.15433 146.043705  L 582.060175 140.682699  L 582.966019 134.032287  L 583.871863 126.138596  L 585.683551 106.408198  L 588.401084 71.803321  L 589.306928 61.94836  L 590.212772 53.692203  L 592.02446 42.219708  L 592.930304 37.25739  L 593.836149 35.414587  L 594.741993 35.663219  L 595.647837 37.842574  L 596.553681 42.172719  L 597.459525 47.922338  L 598.365369 54.43859  L 599.271213 62.905104  L 601.988746 92.38758  L 602.89459 100.188088  L 603.800434 105.504872  L 604.706278 108.656326  L 605.612123 110.724649  L 606.517967 111.682028  L 607.423811 112.277235  L 608.329655 112.710446  L 609.235499 112.373113  L 610.141343 112.287661  L 611.047187 111.491929  L 611.047187 111.491929  "
           style="fill:none;stroke:#00008b;stroke-linecap:square;stroke-width:1.5;"
           id="path2946" />
      </g>
      <g
         id="line2d_42">
        <path
           clip-path="url(#p2356878fda)"
           d="M 357.410824 126.295787  L 361.0342 126.295787  L 361.940045 129.754408  L 364.657577 129.754408  L 365.563421 130.497441  L 368.280954 130.497441  L 369.186798 131.395074  L 371.90433 131.395074  L 372.810175 132.311256  L 375.527707 132.311256  L 376.433551 133.203202  L 379.151084 133.203202  L 380.056928 134.07941  L 382.77446 134.07941  L 383.680304 134.942715  L 386.397837 134.942715  L 387.303681 135.800208  L 390.021213 135.800208  L 390.927058 136.625775  L 393.64459 136.625775  L 394.550434 137.425429  L 397.267967 137.425429  L 398.173811 138.208561  L 400.891343 138.208561  L 401.797187 139.136355  L 404.51472 139.136355  L 405.420564 140.037536  L 408.138097 140.037536  L 409.043941 140.862931  L 411.761473 140.862931  L 412.667317 141.433678  L 415.38485 141.433678  L 416.290694 142.000677  L 419.008226 142.000677  L 419.914071 142.540784  L 422.631603 142.540784  L 423.537447 143.105721  L 426.25498 143.105721  L 427.160824 143.888345  L 429.878356 143.888345  L 430.7842 145.017195  L 433.501733 145.017195  L 434.407577 146.118437  L 437.12511 146.118437  L 438.030954 147.170856  L 440.748486 147.170856  L 441.65433 148.185244  L 444.371863 148.185244  L 445.277707 149.151686  L 447.995239 149.151686  L 448.901084 150.080583  L 451.618616 150.080583  L 452.52446 152.870076  L 455.241993 152.870076  L 456.147837 155.236967  L 458.865369 155.236967  L 459.771213 157.185279  L 462.488746 157.185279  L 463.39459 158.75857  L 466.112123 158.75857  L 467.017967 158.954673  L 473.358876 158.869122  L 475.170564 158.788914  L 491.475759 158.889407  L 494.193291 158.940177  L 498.722512 158.989581  L 499.628356 159.315042  L 502.345889 159.315042  L 503.251733 159.622749  L 505.969265 159.622749  L 506.87511 159.904936  L 509.592642 159.904936  L 510.498486 160.156404  L 513.216019 160.156404  L 514.121863 160.380305  L 516.839395 160.380305  L 517.745239 160.580817  L 520.462772 160.580817  L 521.368616 160.758606  L 524.086149 160.758606  L 524.991993 160.971822  L 527.709525 160.971822  L 528.615369 161.150462  L 538.579655 161.231934  L 539.485499 160.996795  L 542.203032 160.996795  L 543.108876 160.483882  L 545.826408 160.483882  L 546.732252 159.695607  L 549.449785 159.695607  L 550.355629 158.624258  L 553.073162 158.624258  L 553.979006 157.284896  L 556.696538 157.284896  L 557.602382 155.214099  L 560.319915 155.214099  L 561.225759 152.700936  L 563.943291 152.700936  L 564.849136 149.675988  L 567.566668 149.675988  L 568.472512 146.09323  L 571.190045 146.09323  L 572.095889 141.886046  L 574.813421 141.886046  L 575.719265 136.338104  L 578.436798 136.338104  L 579.342642 128.108865  L 582.060175 128.108865  L 582.966019 118.215267  L 585.683551 118.215267  L 586.589395 106.723171  L 589.306928 106.723171  L 590.212772 100.731499  L 592.930304 100.731499  L 593.836149 94.588546  L 596.553681 94.588546  L 597.459525 88.394647  L 600.177058 88.394647  L 601.082902 82.245845  L 603.800434 82.245845  L 604.706278 79.025557  L 607.423811 79.025557  L 608.329655 77.085816  L 611.047187 77.085816  L 611.047187 77.085816  "
           style="fill:none;stroke:#a9a9a9;stroke-dasharray:5.55,2.4;stroke-dashoffset:0;stroke-width:1.5;"
           id="path2949" />
      </g>
      <g
         id="patch_9">
        <path
           d="M 357.410824 228.439219  L 357.410824 10.999219  "
           style="fill:none;stroke:#000000;stroke-linecap:square;stroke-linejoin:miter;stroke-width:0.8;"
           id="path2952" />
      </g>
      <g
         id="patch_10">
        <path
           d="M 611.047187 228.439219  L 611.047187 10.999219  "
           style="fill:none;stroke:#000000;stroke-linecap:square;stroke-linejoin:miter;stroke-width:0.8;"
           id="path2955" />
      </g>
      <g
         id="patch_11">
        <path
           d="M 357.410824 228.439219  L 611.047187 228.439219  "
           style="fill:none;stroke:#000000;stroke-linecap:square;stroke-linejoin:miter;stroke-width:0.8;"
           id="path2958" />
      </g>
      <g
         id="patch_12">
        <path
           d="M 357.410824 10.999219  L 611.047187 10.999219  "
           style="fill:none;stroke:#000000;stroke-linecap:square;stroke-linejoin:miter;stroke-width:0.8;"
           id="path2961" />
      </g>
      <g
         id="legend_2">
        <g
           id="patch_13">
          <path
             d="M 364.410824 223.439219  L 576.013949 223.439219  Q 578.013949 223.439219 578.013949 221.439219  L 578.013949 193.082969  Q 578.013949 191.082969 576.013949 191.082969  L 364.410824 191.082969  Q 362.410824 191.082969 362.410824 193.082969  L 362.410824 221.439219  Q 362.410824 223.439219 364.410824 223.439219  z "
             style="fill:#ffffff;opacity:0.8;stroke:#cccccc;stroke-linejoin:miter;"
             id="path2964" />
        </g>
        <g
           id="line2d_43">
          <path
             d="M 366.410824 199.181406  L 386.410824 199.181406  "
             style="fill:none;stroke:#00008b;stroke-linecap:square;stroke-width:1.5;"
             id="path2967" />
        </g>
        <g
           id="line2d_44" />
        <g
           id="text_31">
          <!-- time-varying field, constant latitude -->
          <defs
             id="defs2972">
            <path
               d="M 11.71875 12.40625  L 22.015625 12.40625  L 22.015625 4  L 14.015625 -11.625  L 7.71875 -11.625  L 11.71875 4  z "
               id="DejaVuSans-44" />
          </defs>
          <g
             transform="translate(394.410824 202.681406)scale(0.1 -0.1)"
             id="g3048">
            <use
               xlink:href="#DejaVuSans-116"
               id="use2974" />
            <use
               x="39.208984"
               xlink:href="#DejaVuSans-105"
               id="use2976" />
            <use
               x="66.992188"
               xlink:href="#DejaVuSans-109"
               id="use2978" />
            <use
               x="164.404297"
               xlink:href="#DejaVuSans-101"
               id="use2980" />
            <use
               x="225.927734"
               xlink:href="#DejaVuSans-45"
               id="use2982" />
            <use
               x="259.386719"
               xlink:href="#DejaVuSans-118"
               id="use2984" />
            <use
               x="318.566406"
               xlink:href="#DejaVuSans-97"
               id="use2986" />
            <use
               x="379.845703"
               xlink:href="#DejaVuSans-114"
               id="use2988" />
            <use
               x="420.958984"
               xlink:href="#DejaVuSans-121"
               id="use2990" />
            <use
               x="480.138672"
               xlink:href="#DejaVuSans-105"
               id="use2992" />
            <use
               x="507.921875"
               xlink:href="#DejaVuSans-110"
               id="use2994" />
            <use
               x="571.300781"
               xlink:href="#DejaVuSans-103"
               id="use2996" />
            <use
               x="634.777344"
               xlink:href="#DejaVuSans-32"
               id="use2998" />
            <use
               x="666.564453"
               xlink:href="#DejaVuSans-102"
               id="use3000" />
            <use
               x="701.769531"
               xlink:href="#DejaVuSans-105"
               id="use3002" />
            <use
               x="729.552734"
               xlink:href="#DejaVuSans-101"
               id="use3004" />
            <use
               x="791.076172"
               xlink:href="#DejaVuSans-108"
               id="use3006" />
            <use
               x="818.859375"
               xlink:href="#DejaVuSans-100"
               id="use3008" />
            <use
               x="882.335938"
               xlink:href="#DejaVuSans-44"
               id="use3010" />
            <use
               x="914.123047"
               xlink:href="#DejaVuSans-32"
               id="use3012" />
            <use
               x="945.910156"
               xlink:href="#DejaVuSans-99"
               id="use3014" />
            <use
               x="1000.890625"
               xlink:href="#DejaVuSans-111"
               id="use3016" />
            <use
               x="1062.072266"
               xlink:href="#DejaVuSans-110"
               id="use3018" />
            <use
               x="1125.451172"
               xlink:href="#DejaVuSans-115"
               id="use3020" />
            <use
               x="1177.550781"
               xlink:href="#DejaVuSans-116"
               id="use3022" />
            <use
               x="1216.759766"
               xlink:href="#DejaVuSans-97"
               id="use3024" />
            <use
               x="1278.039062"
               xlink:href="#DejaVuSans-110"
               id="use3026" />
            <use
               x="1341.417969"
               xlink:href="#DejaVuSans-116"
               id="use3028" />
            <use
               x="1380.626953"
               xlink:href="#DejaVuSans-32"
               id="use3030" />
            <use
               x="1412.414062"
               xlink:href="#DejaVuSans-108"
               id="use3032" />
            <use
               x="1440.197266"
               xlink:href="#DejaVuSans-97"
               id="use3034" />
            <use
               x="1501.476562"
               xlink:href="#DejaVuSans-116"
               id="use3036" />
            <use
               x="1540.685547"
               xlink:href="#DejaVuSans-105"
               id="use3038" />
            <use
               x="1568.46875"
               xlink:href="#DejaVuSans-116"
               id="use3040" />
            <use
               x="1607.677734"
               xlink:href="#DejaVuSans-117"
               id="use3042" />
            <use
               x="1671.056641"
               xlink:href="#DejaVuSans-100"
               id="use3044" />
            <use
               x="1734.533203"
               xlink:href="#DejaVuSans-101"
               id="use3046" />
          </g>
        </g>
        <g
           id="line2d_45">
          <path
             d="M 366.410824 213.859531  L 386.410824 213.859531  "
             style="fill:none;stroke:#a9a9a9;stroke-dasharray:5.55,2.4;stroke-dashoffset:0;stroke-width:1.5;"
             id="path3051" />
        </g>
        <g
           id="line2d_46" />
        <g
           id="text_32">
          <!-- constant field, time-varying latitude -->
          <g
             transform="translate(394.410824 217.359531)scale(0.1 -0.1)"
             id="g3129">
            <use
               xlink:href="#DejaVuSans-99"
               id="use3055" />
            <use
               x="54.980469"
               xlink:href="#DejaVuSans-111"
               id="use3057" />
            <use
               x="116.162109"
               xlink:href="#DejaVuSans-110"
               id="use3059" />
            <use
               x="179.541016"
               xlink:href="#DejaVuSans-115"
               id="use3061" />
            <use
               x="231.640625"
               xlink:href="#DejaVuSans-116"
               id="use3063" />
            <use
               x="270.849609"
               xlink:href="#DejaVuSans-97"
               id="use3065" />
            <use
               x="332.128906"
               xlink:href="#DejaVuSans-110"
               id="use3067" />
            <use
               x="395.507812"
               xlink:href="#DejaVuSans-116"
               id="use3069" />
            <use
               x="434.716797"
               xlink:href="#DejaVuSans-32"
               id="use3071" />
            <use
               x="466.503906"
               xlink:href="#DejaVuSans-102"
               id="use3073" />
            <use
               x="501.708984"
               xlink:href="#DejaVuSans-105"
               id="use3075" />
            <use
               x="529.492188"
               xlink:href="#DejaVuSans-101"
               id="use3077" />
            <use
               x="591.015625"
               xlink:href="#DejaVuSans-108"
               id="use3079" />
            <use
               x="618.798828"
               xlink:href="#DejaVuSans-100"
               id="use3081" />
            <use
               x="682.275391"
               xlink:href="#DejaVuSans-44"
               id="use3083" />
            <use
               x="714.0625"
               xlink:href="#DejaVuSans-32"
               id="use3085" />
            <use
               x="745.849609"
               xlink:href="#DejaVuSans-116"
               id="use3087" />
            <use
               x="785.058594"
               xlink:href="#DejaVuSans-105"
               id="use3089" />
            <use
               x="812.841797"
               xlink:href="#DejaVuSans-109"
               id="use3091" />
            <use
               x="910.253906"
               xlink:href="#DejaVuSans-101"
               id="use3093" />
            <use
               x="971.777344"
               xlink:href="#DejaVuSans-45"
               id="use3095" />
            <use
               x="1005.236328"
               xlink:href="#DejaVuSans-118"
               id="use3097" />
            <use
               x="1064.416016"
               xlink:href="#DejaVuSans-97"
               id="use3099" />
            <use
               x="1125.695312"
               xlink:href="#DejaVuSans-114"
               id="use3101" />
            <use
               x="1166.808594"
               xlink:href="#DejaVuSans-121"
               id="use3103" />
            <use
               x="1225.988281"
               xlink:href="#DejaVuSans-105"
               id="use3105" />
            <use
               x="1253.771484"
               xlink:href="#DejaVuSans-110"
               id="use3107" />
            <use
               x="1317.150391"
               xlink:href="#DejaVuSans-103"
               id="use3109" />
            <use
               x="1380.626953"
               xlink:href="#DejaVuSans-32"
               id="use3111" />
            <use
               x="1412.414062"
               xlink:href="#DejaVuSans-108"
               id="use3113" />
            <use
               x="1440.197266"
               xlink:href="#DejaVuSans-97"
               id="use3115" />
            <use
               x="1501.476562"
               xlink:href="#DejaVuSans-116"
               id="use3117" />
            <use
               x="1540.685547"
               xlink:href="#DejaVuSans-105"
               id="use3119" />
            <use
               x="1568.46875"
               xlink:href="#DejaVuSans-116"
               id="use3121" />
            <use
               x="1607.677734"
               xlink:href="#DejaVuSans-117"
               id="use3123" />
            <use
               x="1671.056641"
               xlink:href="#DejaVuSans-100"
               id="use3125" />
            <use
               x="1734.533203"
               xlink:href="#DejaVuSans-101"
               id="use3127" />
          </g>
        </g>
      </g>
    </g>
  </g>
  <defs
     id="defs3141">
    <clipPath
       id="pc0d847e118">
      <rect
         height="217.44"
         width="253.636364"
         x="53.047188"
         y="10.999219"
         id="rect3135" />
    </clipPath>
    <clipPath
       id="p2356878fda">
      <rect
         height="217.44"
         width="253.636364"
         x="357.410824"
         y="10.999219"
         id="rect3138" />
    </clipPath>
  </defs>
  <text
     xml:space="preserve"
     style="font-size:12px;line-height:1.25;font-family:sans-serif;stroke-width:0.75;stroke-linecap:butt;stroke-linejoin:round"
     x="-220.89803"
     y="290.01956"
     id="text6084"
     transform="rotate(-90)"><tspan
       sodipodi:role="line"
       id="tspan6082"
       x="-220.89803"
       y="290.01956"
       style="font-size:12px;stroke-width:0.75">Deccan Traps</tspan></text>
  <text
     xml:space="preserve"
     style="font-size:12px;line-height:1.25;font-family:sans-serif;stroke-width:0.75;stroke-linecap:butt;stroke-linejoin:round"
     x="-220.9846"
     y="594.51959"
     id="text6084-7"
     transform="rotate(-90)"><tspan
       sodipodi:role="line"
       id="tspan6082-9"
       x="-220.9846"
       y="594.51959"
       style="font-size:12px;stroke-width:0.75">Deccan Traps</tspan></text>
</svg>
