<?xml version="1.0" encoding="utf-8" standalone="no"?>
<!DOCTYPE svg PUBLIC "-//W3C//DTD SVG 1.1//EN"
  "http://www.w3.org/Graphics/SVG/1.1/DTD/svg11.dtd">
<!-- Created with matplotlib (https://matplotlib.org/) -->
<svg height="330.058125pt" version="1.1" viewBox="0 0 631.582813 330.058125" width="631.582813pt" xmlns="http://www.w3.org/2000/svg" xmlns:xlink="http://www.w3.org/1999/xlink">
 <defs>
  <style type="text/css">
*{stroke-linecap:butt;stroke-linejoin:round;}
  </style>
 </defs>
 <g id="figure_1">
  <g id="patch_1">
   <path d="M 0 330.058125 
L 631.582813 330.058125 
L 631.582813 0 
L 0 0 
z
" style="fill:#ffffff;"/>
  </g>
  <g id="axes_1">
   <g id="patch_2">
    <path d="M 38.482813 143.1 
L 624.382813 143.1 
L 624.382813 7.2 
L 38.482813 7.2 
z
" style="fill:#ffffff;"/>
   </g>
   <g id="matplotlib.axis_1">
    <g id="xtick_1">
     <g id="line2d_1">
      <defs>
       <path d="M 0 0 
L 0 3.5 
" id="m43878930f7" style="stroke:#000000;stroke-width:0.8;"/>
      </defs>
      <g>
       <use style="stroke:#000000;stroke-width:0.8;" x="65.114631" xlink:href="#m43878930f7" y="143.1"/>
      </g>
     </g>
     <g id="text_1">
      <!-- 0 -->
      <defs>
       <path d="M 31.78125 66.40625 
Q 24.171875 66.40625 20.328125 58.90625 
Q 16.5 51.421875 16.5 36.375 
Q 16.5 21.390625 20.328125 13.890625 
Q 24.171875 6.390625 31.78125 6.390625 
Q 39.453125 6.390625 43.28125 13.890625 
Q 47.125 21.390625 47.125 36.375 
Q 47.125 51.421875 43.28125 58.90625 
Q 39.453125 66.40625 31.78125 66.40625 
z
M 31.78125 74.21875 
Q 44.046875 74.21875 50.515625 64.515625 
Q 56.984375 54.828125 56.984375 36.375 
Q 56.984375 17.96875 50.515625 8.265625 
Q 44.046875 -1.421875 31.78125 -1.421875 
Q 19.53125 -1.421875 13.0625 8.265625 
Q 6.59375 17.96875 6.59375 36.375 
Q 6.59375 54.828125 13.0625 64.515625 
Q 19.53125 74.21875 31.78125 74.21875 
z
" id="DejaVuSans-48"/>
      </defs>
      <g transform="translate(61.933381 157.698438)scale(0.1 -0.1)">
       <use xlink:href="#DejaVuSans-48"/>
      </g>
     </g>
    </g>
    <g id="xtick_2">
     <g id="line2d_2">
      <g>
       <use style="stroke:#000000;stroke-width:0.8;" x="141.20554" xlink:href="#m43878930f7" y="143.1"/>
      </g>
     </g>
     <g id="text_2">
      <!-- 10 -->
      <defs>
       <path d="M 12.40625 8.296875 
L 28.515625 8.296875 
L 28.515625 63.921875 
L 10.984375 60.40625 
L 10.984375 69.390625 
L 28.421875 72.90625 
L 38.28125 72.90625 
L 38.28125 8.296875 
L 54.390625 8.296875 
L 54.390625 0 
L 12.40625 0 
z
" id="DejaVuSans-49"/>
      </defs>
      <g transform="translate(134.84304 157.698438)scale(0.1 -0.1)">
       <use xlink:href="#DejaVuSans-49"/>
       <use x="63.623047" xlink:href="#DejaVuSans-48"/>
      </g>
     </g>
    </g>
    <g id="xtick_3">
     <g id="line2d_3">
      <g>
       <use style="stroke:#000000;stroke-width:0.8;" x="217.296449" xlink:href="#m43878930f7" y="143.1"/>
      </g>
     </g>
     <g id="text_3">
      <!-- 20 -->
      <defs>
       <path d="M 19.1875 8.296875 
L 53.609375 8.296875 
L 53.609375 0 
L 7.328125 0 
L 7.328125 8.296875 
Q 12.9375 14.109375 22.625 23.890625 
Q 32.328125 33.6875 34.8125 36.53125 
Q 39.546875 41.84375 41.421875 45.53125 
Q 43.3125 49.21875 43.3125 52.78125 
Q 43.3125 58.59375 39.234375 62.25 
Q 35.15625 65.921875 28.609375 65.921875 
Q 23.96875 65.921875 18.8125 64.3125 
Q 13.671875 62.703125 7.8125 59.421875 
L 7.8125 69.390625 
Q 13.765625 71.78125 18.9375 73 
Q 24.125 74.21875 28.421875 74.21875 
Q 39.75 74.21875 46.484375 68.546875 
Q 53.21875 62.890625 53.21875 53.421875 
Q 53.21875 48.921875 51.53125 44.890625 
Q 49.859375 40.875 45.40625 35.40625 
Q 44.1875 33.984375 37.640625 27.21875 
Q 31.109375 20.453125 19.1875 8.296875 
z
" id="DejaVuSans-50"/>
      </defs>
      <g transform="translate(210.933949 157.698438)scale(0.1 -0.1)">
       <use xlink:href="#DejaVuSans-50"/>
       <use x="63.623047" xlink:href="#DejaVuSans-48"/>
      </g>
     </g>
    </g>
    <g id="xtick_4">
     <g id="line2d_4">
      <g>
       <use style="stroke:#000000;stroke-width:0.8;" x="293.387358" xlink:href="#m43878930f7" y="143.1"/>
      </g>
     </g>
     <g id="text_4">
      <!-- 30 -->
      <defs>
       <path d="M 40.578125 39.3125 
Q 47.65625 37.796875 51.625 33 
Q 55.609375 28.21875 55.609375 21.1875 
Q 55.609375 10.40625 48.1875 4.484375 
Q 40.765625 -1.421875 27.09375 -1.421875 
Q 22.515625 -1.421875 17.65625 -0.515625 
Q 12.796875 0.390625 7.625 2.203125 
L 7.625 11.71875 
Q 11.71875 9.328125 16.59375 8.109375 
Q 21.484375 6.890625 26.8125 6.890625 
Q 36.078125 6.890625 40.9375 10.546875 
Q 45.796875 14.203125 45.796875 21.1875 
Q 45.796875 27.640625 41.28125 31.265625 
Q 36.765625 34.90625 28.71875 34.90625 
L 20.21875 34.90625 
L 20.21875 43.015625 
L 29.109375 43.015625 
Q 36.375 43.015625 40.234375 45.921875 
Q 44.09375 48.828125 44.09375 54.296875 
Q 44.09375 59.90625 40.109375 62.90625 
Q 36.140625 65.921875 28.71875 65.921875 
Q 24.65625 65.921875 20.015625 65.03125 
Q 15.375 64.15625 9.8125 62.3125 
L 9.8125 71.09375 
Q 15.4375 72.65625 20.34375 73.4375 
Q 25.25 74.21875 29.59375 74.21875 
Q 40.828125 74.21875 47.359375 69.109375 
Q 53.90625 64.015625 53.90625 55.328125 
Q 53.90625 49.265625 50.4375 45.09375 
Q 46.96875 40.921875 40.578125 39.3125 
z
" id="DejaVuSans-51"/>
      </defs>
      <g transform="translate(287.024858 157.698438)scale(0.1 -0.1)">
       <use xlink:href="#DejaVuSans-51"/>
       <use x="63.623047" xlink:href="#DejaVuSans-48"/>
      </g>
     </g>
    </g>
    <g id="xtick_5">
     <g id="line2d_5">
      <g>
       <use style="stroke:#000000;stroke-width:0.8;" x="369.478267" xlink:href="#m43878930f7" y="143.1"/>
      </g>
     </g>
     <g id="text_5">
      <!-- 40 -->
      <defs>
       <path d="M 37.796875 64.3125 
L 12.890625 25.390625 
L 37.796875 25.390625 
z
M 35.203125 72.90625 
L 47.609375 72.90625 
L 47.609375 25.390625 
L 58.015625 25.390625 
L 58.015625 17.1875 
L 47.609375 17.1875 
L 47.609375 0 
L 37.796875 0 
L 37.796875 17.1875 
L 4.890625 17.1875 
L 4.890625 26.703125 
z
" id="DejaVuSans-52"/>
      </defs>
      <g transform="translate(363.115767 157.698438)scale(0.1 -0.1)">
       <use xlink:href="#DejaVuSans-52"/>
       <use x="63.623047" xlink:href="#DejaVuSans-48"/>
      </g>
     </g>
    </g>
    <g id="xtick_6">
     <g id="line2d_6">
      <g>
       <use style="stroke:#000000;stroke-width:0.8;" x="445.569176" xlink:href="#m43878930f7" y="143.1"/>
      </g>
     </g>
     <g id="text_6">
      <!-- 50 -->
      <defs>
       <path d="M 10.796875 72.90625 
L 49.515625 72.90625 
L 49.515625 64.59375 
L 19.828125 64.59375 
L 19.828125 46.734375 
Q 21.96875 47.46875 24.109375 47.828125 
Q 26.265625 48.1875 28.421875 48.1875 
Q 40.625 48.1875 47.75 41.5 
Q 54.890625 34.8125 54.890625 23.390625 
Q 54.890625 11.625 47.5625 5.09375 
Q 40.234375 -1.421875 26.90625 -1.421875 
Q 22.3125 -1.421875 17.546875 -0.640625 
Q 12.796875 0.140625 7.71875 1.703125 
L 7.71875 11.625 
Q 12.109375 9.234375 16.796875 8.0625 
Q 21.484375 6.890625 26.703125 6.890625 
Q 35.15625 6.890625 40.078125 11.328125 
Q 45.015625 15.765625 45.015625 23.390625 
Q 45.015625 31 40.078125 35.4375 
Q 35.15625 39.890625 26.703125 39.890625 
Q 22.75 39.890625 18.8125 39.015625 
Q 14.890625 38.140625 10.796875 36.28125 
z
" id="DejaVuSans-53"/>
      </defs>
      <g transform="translate(439.206676 157.698438)scale(0.1 -0.1)">
       <use xlink:href="#DejaVuSans-53"/>
       <use x="63.623047" xlink:href="#DejaVuSans-48"/>
      </g>
     </g>
    </g>
    <g id="xtick_7">
     <g id="line2d_7">
      <g>
       <use style="stroke:#000000;stroke-width:0.8;" x="521.660085" xlink:href="#m43878930f7" y="143.1"/>
      </g>
     </g>
     <g id="text_7">
      <!-- 60 -->
      <defs>
       <path d="M 33.015625 40.375 
Q 26.375 40.375 22.484375 35.828125 
Q 18.609375 31.296875 18.609375 23.390625 
Q 18.609375 15.53125 22.484375 10.953125 
Q 26.375 6.390625 33.015625 6.390625 
Q 39.65625 6.390625 43.53125 10.953125 
Q 47.40625 15.53125 47.40625 23.390625 
Q 47.40625 31.296875 43.53125 35.828125 
Q 39.65625 40.375 33.015625 40.375 
z
M 52.59375 71.296875 
L 52.59375 62.3125 
Q 48.875 64.0625 45.09375 64.984375 
Q 41.3125 65.921875 37.59375 65.921875 
Q 27.828125 65.921875 22.671875 59.328125 
Q 17.53125 52.734375 16.796875 39.40625 
Q 19.671875 43.65625 24.015625 45.921875 
Q 28.375 48.1875 33.59375 48.1875 
Q 44.578125 48.1875 50.953125 41.515625 
Q 57.328125 34.859375 57.328125 23.390625 
Q 57.328125 12.15625 50.6875 5.359375 
Q 44.046875 -1.421875 33.015625 -1.421875 
Q 20.359375 -1.421875 13.671875 8.265625 
Q 6.984375 17.96875 6.984375 36.375 
Q 6.984375 53.65625 15.1875 63.9375 
Q 23.390625 74.21875 37.203125 74.21875 
Q 40.921875 74.21875 44.703125 73.484375 
Q 48.484375 72.75 52.59375 71.296875 
z
" id="DejaVuSans-54"/>
      </defs>
      <g transform="translate(515.297585 157.698438)scale(0.1 -0.1)">
       <use xlink:href="#DejaVuSans-54"/>
       <use x="63.623047" xlink:href="#DejaVuSans-48"/>
      </g>
     </g>
    </g>
    <g id="xtick_8">
     <g id="line2d_8">
      <g>
       <use style="stroke:#000000;stroke-width:0.8;" x="597.750994" xlink:href="#m43878930f7" y="143.1"/>
      </g>
     </g>
     <g id="text_8">
      <!-- 70 -->
      <defs>
       <path d="M 8.203125 72.90625 
L 55.078125 72.90625 
L 55.078125 68.703125 
L 28.609375 0 
L 18.3125 0 
L 43.21875 64.59375 
L 8.203125 64.59375 
z
" id="DejaVuSans-55"/>
      </defs>
      <g transform="translate(591.388494 157.698438)scale(0.1 -0.1)">
       <use xlink:href="#DejaVuSans-55"/>
       <use x="63.623047" xlink:href="#DejaVuSans-48"/>
      </g>
     </g>
    </g>
   </g>
   <g id="matplotlib.axis_2">
    <g id="ytick_1">
     <g id="line2d_9">
      <defs>
       <path d="M 0 0 
L -3.5 0 
" id="m01110fda8d" style="stroke:#000000;stroke-width:0.8;"/>
      </defs>
      <g>
       <use style="stroke:#000000;stroke-width:0.8;" x="38.482813" xlink:href="#m01110fda8d" y="139.2208"/>
      </g>
     </g>
     <g id="text_9">
      <!-- −1.5 -->
      <defs>
       <path d="M 10.59375 35.5 
L 73.1875 35.5 
L 73.1875 27.203125 
L 10.59375 27.203125 
z
" id="DejaVuSans-8722"/>
       <path d="M 10.6875 12.40625 
L 21 12.40625 
L 21 0 
L 10.6875 0 
z
" id="DejaVuSans-46"/>
      </defs>
      <g transform="translate(7.2 143.020018)scale(0.1 -0.1)">
       <use xlink:href="#DejaVuSans-8722"/>
       <use x="83.789062" xlink:href="#DejaVuSans-49"/>
       <use x="147.412109" xlink:href="#DejaVuSans-46"/>
       <use x="179.199219" xlink:href="#DejaVuSans-53"/>
      </g>
     </g>
    </g>
    <g id="ytick_2">
     <g id="line2d_10">
      <g>
       <use style="stroke:#000000;stroke-width:0.8;" x="38.482813" xlink:href="#m01110fda8d" y="114.121784"/>
      </g>
     </g>
     <g id="text_10">
      <!-- −1.0 -->
      <g transform="translate(7.2 117.921003)scale(0.1 -0.1)">
       <use xlink:href="#DejaVuSans-8722"/>
       <use x="83.789062" xlink:href="#DejaVuSans-49"/>
       <use x="147.412109" xlink:href="#DejaVuSans-46"/>
       <use x="179.199219" xlink:href="#DejaVuSans-48"/>
      </g>
     </g>
    </g>
    <g id="ytick_3">
     <g id="line2d_11">
      <g>
       <use style="stroke:#000000;stroke-width:0.8;" x="38.482813" xlink:href="#m01110fda8d" y="89.022769"/>
      </g>
     </g>
     <g id="text_11">
      <!-- −0.5 -->
      <g transform="translate(7.2 92.821987)scale(0.1 -0.1)">
       <use xlink:href="#DejaVuSans-8722"/>
       <use x="83.789062" xlink:href="#DejaVuSans-48"/>
       <use x="147.412109" xlink:href="#DejaVuSans-46"/>
       <use x="179.199219" xlink:href="#DejaVuSans-53"/>
      </g>
     </g>
    </g>
    <g id="ytick_4">
     <g id="line2d_12">
      <g>
       <use style="stroke:#000000;stroke-width:0.8;" x="38.482813" xlink:href="#m01110fda8d" y="63.923753"/>
      </g>
     </g>
     <g id="text_12">
      <!-- 0.0 -->
      <g transform="translate(15.579688 67.722972)scale(0.1 -0.1)">
       <use xlink:href="#DejaVuSans-48"/>
       <use x="63.623047" xlink:href="#DejaVuSans-46"/>
       <use x="95.410156" xlink:href="#DejaVuSans-48"/>
      </g>
     </g>
    </g>
    <g id="ytick_5">
     <g id="line2d_13">
      <g>
       <use style="stroke:#000000;stroke-width:0.8;" x="38.482813" xlink:href="#m01110fda8d" y="38.824738"/>
      </g>
     </g>
     <g id="text_13">
      <!-- 0.5 -->
      <g transform="translate(15.579688 42.623957)scale(0.1 -0.1)">
       <use xlink:href="#DejaVuSans-48"/>
       <use x="63.623047" xlink:href="#DejaVuSans-46"/>
       <use x="95.410156" xlink:href="#DejaVuSans-53"/>
      </g>
     </g>
    </g>
    <g id="ytick_6">
     <g id="line2d_14">
      <g>
       <use style="stroke:#000000;stroke-width:0.8;" x="38.482813" xlink:href="#m01110fda8d" y="13.725722"/>
      </g>
     </g>
     <g id="text_14">
      <!-- 1.0 -->
      <g transform="translate(15.579688 17.524941)scale(0.1 -0.1)">
       <use xlink:href="#DejaVuSans-49"/>
       <use x="63.623047" xlink:href="#DejaVuSans-46"/>
       <use x="95.410156" xlink:href="#DejaVuSans-48"/>
      </g>
     </g>
    </g>
   </g>
   <g id="line2d_15">
    <path clip-path="url(#p30416bbd5b)" d="M 65.114631 13.725722 
L 72.723722 13.725722 
L 74.625994 15.855953 
L 80.332813 15.855953 
L 82.235085 16.335546 
L 87.941903 16.335546 
L 89.844176 16.926379 
L 95.550994 16.926379 
L 97.453267 17.543036 
L 103.160085 17.543036 
L 105.062358 18.157351 
L 110.769176 18.157351 
L 112.671449 18.775017 
L 118.378267 18.775017 
L 120.28054 19.398125 
L 125.987358 19.398125 
L 127.889631 20.032137 
L 133.596449 20.032137 
L 135.498722 20.657562 
L 141.20554 20.657562 
L 143.107813 21.278191 
L 148.814631 21.278191 
L 150.716903 21.90092 
L 156.423722 21.90092 
L 158.325994 22.658909 
L 164.032813 22.658909 
L 165.935085 23.417458 
L 171.641903 23.417458 
L 173.544176 24.132736 
L 179.250994 24.132736 
L 181.153267 24.639459 
L 186.860085 24.639459 
L 188.762358 25.153145 
L 194.469176 25.153145 
L 196.371449 25.652412 
L 202.078267 25.652412 
L 203.98054 26.185461 
L 209.687358 26.185461 
L 211.589631 26.943115 
L 217.296449 26.943115 
L 219.198722 28.077916 
L 224.90554 28.077916 
L 226.807813 29.236854 
L 232.514631 29.236854 
L 234.416903 30.397039 
L 240.123722 30.397039 
L 242.025994 31.568904 
L 247.732813 31.568904 
L 249.635085 32.739381 
L 255.341903 32.739381 
L 257.244176 33.919333 
L 262.950994 33.919333 
L 264.853267 37.853556 
L 270.560085 37.853556 
L 272.462358 41.812063 
L 278.169176 41.812063 
L 280.071449 45.745046 
L 285.778267 45.745046 
L 287.68054 49.704201 
L 293.387358 49.704201 
L 295.289631 50.277639 
L 300.996449 50.277639 
L 302.898722 50.024586 
L 308.60554 50.024586 
L 310.507813 49.791423 
L 316.214631 49.791423 
L 318.116903 49.651956 
L 323.823722 49.651956 
L 325.725994 49.805724 
L 331.432813 49.805724 
L 333.335085 49.932741 
L 339.041903 49.932741 
L 340.944176 50.084173 
L 346.650994 50.084173 
L 348.553267 50.234435 
L 354.260085 50.234435 
L 356.162358 50.382243 
L 361.869176 50.382243 
L 363.771449 51.399092 
L 369.478267 51.399092 
L 371.38054 52.442197 
L 377.087358 52.442197 
L 378.989631 53.489129 
L 384.696449 53.489129 
L 386.598722 54.518826 
L 392.30554 54.518826 
L 394.207813 55.54045 
L 399.914631 55.54045 
L 401.816903 56.57395 
L 407.523722 56.57395 
L 409.425994 57.629751 
L 415.132813 57.629751 
L 417.035085 59.195612 
L 422.741903 59.195612 
L 424.644176 61.111345 
L 430.350994 61.111345 
L 432.253267 63.000583 
L 437.960085 63.000583 
L 439.862358 65.075307 
L 445.569176 65.075307 
L 447.471449 68.433192 
L 453.178267 68.433192 
L 455.08054 71.790048 
L 460.787358 71.790048 
L 462.689631 75.144274 
L 468.396449 75.144274 
L 470.298722 78.523155 
L 476.00554 78.523155 
L 477.907813 81.877734 
L 483.614631 81.877734 
L 485.516903 86.077329 
L 491.223722 86.077329 
L 493.125994 90.251995 
L 498.832813 90.251995 
L 500.735085 94.449106 
L 506.441903 94.449106 
L 508.344176 98.63779 
L 514.050994 98.63779 
L 515.953267 102.799062 
L 521.660085 102.799062 
L 523.562358 107.4096 
L 529.269176 107.4096 
L 531.171449 113.025058 
L 536.878267 113.025058 
L 538.78054 118.579565 
L 544.487358 118.579565 
L 546.389631 124.107972 
L 552.096449 124.107972 
L 553.998722 126.770565 
L 559.70554 126.770565 
L 561.607813 129.41911 
L 567.314631 129.41911 
L 569.216903 132.054669 
L 574.923722 132.054669 
L 576.825994 134.680486 
L 582.532813 134.680486 
L 584.435085 136.073859 
L 590.141903 136.073859 
L 592.044176 136.922727 
L 597.750994 136.922727 
L 597.750994 136.922727 
" style="fill:none;stroke:#4169e1;stroke-linecap:square;stroke-width:1.5;"/>
   </g>
   <g id="line2d_16">
    <path clip-path="url(#p30416bbd5b)" d="M 65.114631 13.725722 
L 72.723722 13.725722 
L 74.625994 14.626824 
L 80.332813 14.626824 
L 82.235085 15.05392 
L 87.941903 15.05392 
L 89.844176 15.211259 
L 95.550994 15.211259 
L 97.453267 15.340716 
L 103.160085 15.340716 
L 105.062358 15.474948 
L 110.769176 15.474948 
L 112.671449 15.607606 
L 118.378267 15.607606 
L 120.28054 15.739254 
L 125.987358 15.739254 
L 127.889631 15.869582 
L 133.596449 15.869582 
L 135.498722 15.99896 
L 141.20554 15.99896 
L 143.107813 16.133707 
L 148.814631 16.133707 
L 150.716903 16.273659 
L 156.423722 16.273659 
L 158.325994 16.510228 
L 164.032813 16.510228 
L 165.935085 16.740198 
L 171.641903 16.740198 
L 173.544176 17.00968 
L 179.250994 17.00968 
L 181.153267 17.396269 
L 186.860085 17.396269 
L 188.762358 17.785471 
L 194.469176 17.785471 
L 196.371449 18.171962 
L 202.078267 18.171962 
L 203.98054 18.562338 
L 209.687358 18.562338 
L 211.589631 18.705405 
L 217.296449 18.705405 
L 219.198722 18.48456 
L 224.90554 18.48456 
L 226.807813 18.261416 
L 232.514631 18.261416 
L 234.416903 18.04202 
L 240.123722 18.04202 
L 242.025994 17.819657 
L 247.732813 17.819657 
L 249.635085 17.600241 
L 255.341903 17.600241 
L 257.244176 17.377116 
L 262.950994 17.377116 
L 264.853267 17.563224 
L 270.560085 17.563224 
L 272.462358 17.780156 
L 278.169176 17.780156 
L 280.071449 18.027901 
L 285.778267 18.027901 
L 287.68054 18.303224 
L 293.387358 18.303224 
L 295.289631 18.500926 
L 300.996449 18.500926 
L 302.898722 18.676489 
L 308.60554 18.676489 
L 310.507813 18.858302 
L 316.214631 18.858302 
L 318.116903 19.087374 
L 323.823722 19.087374 
L 325.725994 19.450013 
L 331.432813 19.450013 
L 333.335085 19.819846 
L 339.041903 19.819846 
L 340.944176 20.186516 
L 346.650994 20.186516 
L 348.553267 20.55694 
L 354.260085 20.55694 
L 356.162358 20.925223 
L 361.869176 20.925223 
L 363.771449 20.784923 
L 369.478267 20.784923 
L 371.38054 20.637871 
L 377.087358 20.637871 
L 378.989631 20.497527 
L 384.696449 20.497527 
L 386.598722 20.356526 
L 392.30554 20.356526 
L 394.207813 20.215739 
L 399.914631 20.215739 
L 401.816903 20.068281 
L 407.523722 20.068281 
L 409.425994 19.927107 
L 430.350994 20.035495 
L 434.15554 20.138365 
L 445.569176 20.241161 
L 447.471449 20.368764 
L 453.178267 20.368764 
L 455.08054 20.501119 
L 460.787358 20.501119 
L 462.689631 20.643845 
L 468.396449 20.643845 
L 470.298722 20.786211 
L 476.00554 20.786211 
L 477.907813 20.93985 
L 483.614631 20.93985 
L 485.516903 21.068976 
L 491.223722 21.068976 
L 493.125994 21.203433 
L 498.832813 21.203433 
L 500.735085 21.344629 
L 506.441903 21.344629 
L 508.344176 21.491802 
L 514.050994 21.491802 
L 515.953267 21.64554 
L 544.487358 21.553312 
L 550.194176 21.500383 
L 567.314631 21.419997 
L 576.825994 21.344811 
L 597.750994 21.377172 
L 597.750994 21.377172 
" style="fill:none;stroke:#00008b;stroke-linecap:square;stroke-width:1.5;"/>
   </g>
   <g id="line2d_17">
    <path clip-path="url(#p30416bbd5b)" d="M 65.114631 13.725722 
L 72.723722 13.725722 
L 74.625994 14.168992 
L 80.332813 14.168992 
L 82.235085 14.578011 
L 87.941903 14.578011 
L 89.844176 14.764772 
L 95.550994 14.764772 
L 97.453267 14.932166 
L 103.160085 14.932166 
L 105.062358 15.097764 
L 110.769176 15.097764 
L 112.671449 15.266254 
L 118.378267 15.266254 
L 120.28054 15.428503 
L 125.987358 15.428503 
L 127.889631 15.594922 
L 133.596449 15.594922 
L 135.498722 15.761116 
L 141.20554 15.761116 
L 143.107813 15.927496 
L 148.814631 15.927496 
L 150.716903 16.09196 
L 156.423722 16.09196 
L 158.325994 16.274967 
L 164.032813 16.274967 
L 165.935085 16.463544 
L 171.641903 16.463544 
L 173.544176 16.686056 
L 179.250994 16.686056 
L 181.153267 17.086719 
L 186.860085 17.086719 
L 188.762358 17.485062 
L 194.469176 17.485062 
L 196.371449 17.88912 
L 202.078267 17.88912 
L 203.98054 18.285122 
L 209.687358 18.285122 
L 211.589631 18.434997 
L 217.296449 18.434997 
L 219.198722 18.218995 
L 224.90554 18.218995 
L 226.807813 18.002282 
L 232.514631 18.002282 
L 234.416903 17.78434 
L 240.123722 17.78434 
L 242.025994 17.565172 
L 247.732813 17.565172 
L 249.635085 17.344167 
L 255.341903 17.344167 
L 257.244176 17.12839 
L 262.950994 17.12839 
L 264.853267 16.868111 
L 270.560085 16.868111 
L 272.462358 16.609872 
L 278.169176 16.609872 
L 280.071449 16.34181 
L 285.778267 16.34181 
L 287.68054 16.070156 
L 293.387358 16.070156 
L 295.289631 16.250364 
L 300.996449 16.250364 
L 302.898722 16.541718 
L 308.60554 16.541718 
L 310.507813 16.837111 
L 316.214631 16.837111 
L 318.116903 17.177905 
L 323.823722 17.177905 
L 325.725994 17.639649 
L 331.432813 17.639649 
L 333.335085 18.102901 
L 339.041903 18.102901 
L 340.944176 18.562636 
L 346.650994 18.562636 
L 348.553267 19.027502 
L 354.260085 19.027502 
L 356.162358 19.486095 
L 369.478267 19.394114 
L 373.282813 19.29743 
L 384.696449 19.201581 
L 388.500994 19.099919 
L 399.914631 19.005156 
L 403.719176 18.903383 
L 415.132813 18.807548 
L 418.937358 18.738099 
L 437.960085 18.636442 
L 441.764631 18.570314 
L 445.569176 18.570314 
L 447.471449 18.364503 
L 453.178267 18.364503 
L 455.08054 18.161261 
L 460.787358 18.161261 
L 462.689631 17.952597 
L 468.396449 17.952597 
L 470.298722 17.744619 
L 476.00554 17.744619 
L 477.907813 17.536974 
L 483.614631 17.536974 
L 485.516903 17.282886 
L 491.223722 17.282886 
L 493.125994 17.034924 
L 498.832813 17.034924 
L 500.735085 16.781611 
L 506.441903 16.781611 
L 508.344176 16.528249 
L 514.050994 16.528249 
L 515.953267 16.271975 
L 521.660085 16.271975 
L 523.562358 15.889812 
L 529.269176 15.889812 
L 531.171449 15.216157 
L 536.878267 15.216157 
L 538.78054 14.540099 
L 544.487358 14.540099 
L 546.389631 13.864068 
L 552.096449 13.864068 
L 553.998722 13.741915 
L 559.70554 13.741915 
L 561.607813 13.621256 
L 567.314631 13.621256 
L 569.216903 13.498713 
L 574.923722 13.498713 
L 576.825994 13.377273 
L 582.532813 13.377273 
L 584.435085 13.556717 
L 590.141903 13.556717 
L 592.044176 13.863318 
L 597.750994 13.863318 
L 597.750994 13.863318 
" style="fill:none;stroke:#3cb371;stroke-linecap:square;stroke-width:1.5;"/>
   </g>
   <g id="line2d_18">
    <path clip-path="url(#p30416bbd5b)" d="M 65.114631 13.725722 
L 72.723722 13.725722 
L 74.625994 15.05246 
L 80.332813 15.05246 
L 82.235085 15.369182 
L 95.550994 15.460926 
L 99.35554 15.538103 
L 110.769176 15.622414 
L 114.573722 15.705693 
L 125.987358 15.780912 
L 129.791903 15.863055 
L 141.20554 15.944324 
L 145.010085 16.025243 
L 156.423722 16.115817 
L 158.325994 16.31646 
L 164.032813 16.31646 
L 165.935085 16.524508 
L 171.641903 16.524508 
L 173.544176 16.746101 
L 179.250994 16.746101 
L 181.153267 17.048148 
L 186.860085 17.048148 
L 188.762358 17.346267 
L 194.469176 17.346267 
L 196.371449 17.641229 
L 202.078267 17.641229 
L 203.98054 17.932127 
L 209.687358 17.932127 
L 211.589631 18.09667 
L 240.123722 17.997589 
L 245.83054 17.955212 
L 262.950994 17.872729 
L 264.853267 18.854171 
L 270.560085 18.854171 
L 272.462358 19.830183 
L 278.169176 19.830183 
L 280.071449 20.795361 
L 285.778267 20.795361 
L 287.68054 21.760428 
L 293.387358 21.760428 
L 295.289631 21.980255 
L 316.214631 22.062631 
L 320.019176 22.158496 
L 323.823722 22.158496 
L 325.725994 22.38843 
L 331.432813 22.38843 
L 333.335085 22.612424 
L 339.041903 22.612424 
L 340.944176 22.83118 
L 346.650994 22.83118 
L 348.553267 23.054088 
L 354.260085 23.054088 
L 356.162358 23.273692 
L 361.869176 23.273692 
L 363.771449 23.092028 
L 369.478267 23.092028 
L 371.38054 22.914346 
L 377.087358 22.914346 
L 378.989631 22.731438 
L 384.696449 22.731438 
L 386.598722 22.543487 
L 392.30554 22.543487 
L 394.207813 22.358362 
L 399.914631 22.358362 
L 401.816903 22.176062 
L 407.523722 22.176062 
L 409.425994 21.987665 
L 430.350994 22.072613 
L 434.15554 22.166225 
L 437.960085 22.166225 
L 439.862358 22.281537 
L 445.569176 22.281537 
L 447.471449 22.574736 
L 453.178267 22.574736 
L 455.08054 22.848986 
L 460.787358 22.848986 
L 462.689631 23.131855 
L 468.396449 23.131855 
L 470.298722 23.406843 
L 476.00554 23.406843 
L 477.907813 23.675337 
L 483.614631 23.675337 
L 485.516903 23.951442 
L 491.223722 23.951442 
L 493.125994 24.22873 
L 498.832813 24.22873 
L 500.735085 24.499144 
L 506.441903 24.499144 
L 508.344176 24.764271 
L 514.050994 24.764271 
L 515.953267 25.024812 
L 521.660085 25.024812 
L 523.562358 25.228827 
L 536.878267 25.293086 
L 542.585085 25.346772 
L 567.314631 25.244474 
L 571.119176 25.171935 
L 597.750994 25.086757 
L 597.750994 25.086757 
" style="fill:none;stroke:#006400;stroke-linecap:square;stroke-width:1.5;"/>
   </g>
   <g id="patch_3">
    <path d="M 38.482813 143.1 
L 38.482813 7.2 
" style="fill:none;stroke:#000000;stroke-linecap:square;stroke-linejoin:miter;stroke-width:0.8;"/>
   </g>
   <g id="patch_4">
    <path d="M 624.382813 143.1 
L 624.382813 7.2 
" style="fill:none;stroke:#000000;stroke-linecap:square;stroke-linejoin:miter;stroke-width:0.8;"/>
   </g>
   <g id="patch_5">
    <path d="M 38.482813 143.1 
L 624.382813 143.1 
" style="fill:none;stroke:#000000;stroke-linecap:square;stroke-linejoin:miter;stroke-width:0.8;"/>
   </g>
   <g id="patch_6">
    <path d="M 38.482813 7.2 
L 624.382813 7.2 
" style="fill:none;stroke:#000000;stroke-linecap:square;stroke-linejoin:miter;stroke-width:0.8;"/>
   </g>
  </g>
  <g id="axes_2">
   <g id="patch_7">
    <path d="M 38.482813 306.18 
L 210.806342 306.18 
L 210.806342 170.28 
L 38.482813 170.28 
z
" style="fill:#ffffff;"/>
   </g>
   <g id="matplotlib.axis_3">
    <g id="xtick_9">
     <g id="line2d_19">
      <g>
       <use style="stroke:#000000;stroke-width:0.8;" x="46.3157" xlink:href="#m43878930f7" y="306.18"/>
      </g>
     </g>
     <g id="text_15">
      <!-- 0 -->
      <g transform="translate(43.13445 320.778438)scale(0.1 -0.1)">
       <use xlink:href="#DejaVuSans-48"/>
      </g>
     </g>
    </g>
    <g id="xtick_10">
     <g id="line2d_20">
      <g>
       <use style="stroke:#000000;stroke-width:0.8;" x="91.075058" xlink:href="#m43878930f7" y="306.18"/>
      </g>
     </g>
     <g id="text_16">
      <!-- 20 -->
      <g transform="translate(84.712558 320.778438)scale(0.1 -0.1)">
       <use xlink:href="#DejaVuSans-50"/>
       <use x="63.623047" xlink:href="#DejaVuSans-48"/>
      </g>
     </g>
    </g>
    <g id="xtick_11">
     <g id="line2d_21">
      <g>
       <use style="stroke:#000000;stroke-width:0.8;" x="135.834417" xlink:href="#m43878930f7" y="306.18"/>
      </g>
     </g>
     <g id="text_17">
      <!-- 40 -->
      <g transform="translate(129.471917 320.778438)scale(0.1 -0.1)">
       <use xlink:href="#DejaVuSans-52"/>
       <use x="63.623047" xlink:href="#DejaVuSans-48"/>
      </g>
     </g>
    </g>
    <g id="xtick_12">
     <g id="line2d_22">
      <g>
       <use style="stroke:#000000;stroke-width:0.8;" x="180.593775" xlink:href="#m43878930f7" y="306.18"/>
      </g>
     </g>
     <g id="text_18">
      <!-- 60 -->
      <g transform="translate(174.231275 320.778438)scale(0.1 -0.1)">
       <use xlink:href="#DejaVuSans-54"/>
       <use x="63.623047" xlink:href="#DejaVuSans-48"/>
      </g>
     </g>
    </g>
   </g>
   <g id="matplotlib.axis_4">
    <g id="ytick_7">
     <g id="line2d_23">
      <g>
       <use style="stroke:#000000;stroke-width:0.8;" x="38.482813" xlink:href="#m01110fda8d" y="293.022385"/>
      </g>
     </g>
     <g id="text_19">
      <!-- 0.85 -->
      <defs>
       <path d="M 31.78125 34.625 
Q 24.75 34.625 20.71875 30.859375 
Q 16.703125 27.09375 16.703125 20.515625 
Q 16.703125 13.921875 20.71875 10.15625 
Q 24.75 6.390625 31.78125 6.390625 
Q 38.8125 6.390625 42.859375 10.171875 
Q 46.921875 13.96875 46.921875 20.515625 
Q 46.921875 27.09375 42.890625 30.859375 
Q 38.875 34.625 31.78125 34.625 
z
M 21.921875 38.8125 
Q 15.578125 40.375 12.03125 44.71875 
Q 8.5 49.078125 8.5 55.328125 
Q 8.5 64.0625 14.71875 69.140625 
Q 20.953125 74.21875 31.78125 74.21875 
Q 42.671875 74.21875 48.875 69.140625 
Q 55.078125 64.0625 55.078125 55.328125 
Q 55.078125 49.078125 51.53125 44.71875 
Q 48 40.375 41.703125 38.8125 
Q 48.828125 37.15625 52.796875 32.3125 
Q 56.78125 27.484375 56.78125 20.515625 
Q 56.78125 9.90625 50.3125 4.234375 
Q 43.84375 -1.421875 31.78125 -1.421875 
Q 19.734375 -1.421875 13.25 4.234375 
Q 6.78125 9.90625 6.78125 20.515625 
Q 6.78125 27.484375 10.78125 32.3125 
Q 14.796875 37.15625 21.921875 38.8125 
z
M 18.3125 54.390625 
Q 18.3125 48.734375 21.84375 45.5625 
Q 25.390625 42.390625 31.78125 42.390625 
Q 38.140625 42.390625 41.71875 45.5625 
Q 45.3125 48.734375 45.3125 54.390625 
Q 45.3125 60.0625 41.71875 63.234375 
Q 38.140625 66.40625 31.78125 66.40625 
Q 25.390625 66.40625 21.84375 63.234375 
Q 18.3125 60.0625 18.3125 54.390625 
z
" id="DejaVuSans-56"/>
      </defs>
      <g transform="translate(9.217188 296.821604)scale(0.1 -0.1)">
       <use xlink:href="#DejaVuSans-48"/>
       <use x="63.623047" xlink:href="#DejaVuSans-46"/>
       <use x="95.410156" xlink:href="#DejaVuSans-56"/>
       <use x="159.033203" xlink:href="#DejaVuSans-53"/>
      </g>
     </g>
    </g>
    <g id="ytick_8">
     <g id="line2d_24">
      <g>
       <use style="stroke:#000000;stroke-width:0.8;" x="38.482813" xlink:href="#m01110fda8d" y="255.885901"/>
      </g>
     </g>
     <g id="text_20">
      <!-- 0.90 -->
      <defs>
       <path d="M 10.984375 1.515625 
L 10.984375 10.5 
Q 14.703125 8.734375 18.5 7.8125 
Q 22.3125 6.890625 25.984375 6.890625 
Q 35.75 6.890625 40.890625 13.453125 
Q 46.046875 20.015625 46.78125 33.40625 
Q 43.953125 29.203125 39.59375 26.953125 
Q 35.25 24.703125 29.984375 24.703125 
Q 19.046875 24.703125 12.671875 31.3125 
Q 6.296875 37.9375 6.296875 49.421875 
Q 6.296875 60.640625 12.9375 67.421875 
Q 19.578125 74.21875 30.609375 74.21875 
Q 43.265625 74.21875 49.921875 64.515625 
Q 56.59375 54.828125 56.59375 36.375 
Q 56.59375 19.140625 48.40625 8.859375 
Q 40.234375 -1.421875 26.421875 -1.421875 
Q 22.703125 -1.421875 18.890625 -0.6875 
Q 15.09375 0.046875 10.984375 1.515625 
z
M 30.609375 32.421875 
Q 37.25 32.421875 41.125 36.953125 
Q 45.015625 41.5 45.015625 49.421875 
Q 45.015625 57.28125 41.125 61.84375 
Q 37.25 66.40625 30.609375 66.40625 
Q 23.96875 66.40625 20.09375 61.84375 
Q 16.21875 57.28125 16.21875 49.421875 
Q 16.21875 41.5 20.09375 36.953125 
Q 23.96875 32.421875 30.609375 32.421875 
z
" id="DejaVuSans-57"/>
      </defs>
      <g transform="translate(9.217188 259.68512)scale(0.1 -0.1)">
       <use xlink:href="#DejaVuSans-48"/>
       <use x="63.623047" xlink:href="#DejaVuSans-46"/>
       <use x="95.410156" xlink:href="#DejaVuSans-57"/>
       <use x="159.033203" xlink:href="#DejaVuSans-48"/>
      </g>
     </g>
    </g>
    <g id="ytick_9">
     <g id="line2d_25">
      <g>
       <use style="stroke:#000000;stroke-width:0.8;" x="38.482813" xlink:href="#m01110fda8d" y="218.749417"/>
      </g>
     </g>
     <g id="text_21">
      <!-- 0.95 -->
      <g transform="translate(9.217188 222.548636)scale(0.1 -0.1)">
       <use xlink:href="#DejaVuSans-48"/>
       <use x="63.623047" xlink:href="#DejaVuSans-46"/>
       <use x="95.410156" xlink:href="#DejaVuSans-57"/>
       <use x="159.033203" xlink:href="#DejaVuSans-53"/>
      </g>
     </g>
    </g>
    <g id="ytick_10">
     <g id="line2d_26">
      <g>
       <use style="stroke:#000000;stroke-width:0.8;" x="38.482813" xlink:href="#m01110fda8d" y="181.612933"/>
      </g>
     </g>
     <g id="text_22">
      <!-- 1.00 -->
      <g transform="translate(9.217188 185.412151)scale(0.1 -0.1)">
       <use xlink:href="#DejaVuSans-49"/>
       <use x="63.623047" xlink:href="#DejaVuSans-46"/>
       <use x="95.410156" xlink:href="#DejaVuSans-48"/>
       <use x="159.033203" xlink:href="#DejaVuSans-48"/>
      </g>
     </g>
    </g>
   </g>
   <g id="line2d_27">
    <path clip-path="url(#pb759f494e7)" d="M 46.3157 181.612933 
L 48.553668 181.612933 
L 49.11316 194.945622 
L 50.791636 194.945622 
L 51.351128 201.264939 
L 53.029604 201.264939 
L 53.589096 203.592925 
L 55.267572 203.592925 
L 55.827064 205.508363 
L 57.50554 205.508363 
L 58.065032 207.494462 
L 59.743508 207.494462 
L 60.303 209.457262 
L 61.981476 209.457262 
L 62.540968 211.405124 
L 64.219444 211.405124 
L 64.778935 213.33346 
L 66.457411 213.33346 
L 67.016903 215.247741 
L 68.695379 215.247741 
L 69.254871 217.241461 
L 70.933347 217.241461 
L 71.492839 219.312188 
L 73.171315 219.312188 
L 73.730807 222.812453 
L 75.409283 222.812453 
L 75.968775 226.215087 
L 77.647251 226.215087 
L 78.206743 230.202337 
L 79.885219 230.202337 
L 80.444711 235.922311 
L 82.123187 235.922311 
L 82.682679 241.680938 
L 84.361155 241.680938 
L 84.920647 247.399453 
L 86.599123 247.399453 
L 87.158615 253.175456 
L 88.837091 253.175456 
L 89.396583 255.292281 
L 91.075058 255.292281 
L 91.63455 252.024658 
L 93.313026 252.024658 
L 93.872518 248.723025 
L 95.550994 248.723025 
L 96.110486 245.476835 
L 97.788962 245.476835 
L 98.348454 242.186757 
L 100.02693 242.186757 
L 100.586422 238.940273 
L 102.264898 238.940273 
L 102.82439 235.638924 
L 104.502866 235.638924 
L 105.062358 238.392572 
L 106.740834 238.392572 
L 107.300326 241.602304 
L 108.978802 241.602304 
L 109.538294 245.267935 
L 111.21677 245.267935 
L 111.776262 249.341608 
L 113.454738 249.341608 
L 114.01423 252.266808 
L 115.692706 252.266808 
L 116.252198 254.864438 
L 117.930673 254.864438 
L 118.490165 257.554541 
L 120.168641 257.554541 
L 120.728133 260.943887 
L 122.406609 260.943887 
L 122.966101 266.30949 
L 124.644577 266.30949 
L 125.204069 271.781538 
L 126.882545 271.781538 
L 127.442037 277.206785 
L 129.120513 277.206785 
L 129.680005 282.687574 
L 131.358481 282.687574 
L 131.917973 288.136686 
L 133.596449 288.136686 
L 134.155941 286.060805 
L 135.834417 286.060805 
L 136.393909 283.885026 
L 138.072385 283.885026 
L 138.631877 281.808495 
L 140.310353 281.808495 
L 140.869845 279.722246 
L 142.548321 279.722246 
L 143.107812 277.639161 
L 144.786288 277.639161 
L 145.34578 275.457377 
L 147.024256 275.457377 
L 147.583748 273.368572 
L 151.500192 273.444289 
L 152.059684 274.972274 
L 153.73816 274.972274 
L 154.297652 276.49435 
L 155.976128 276.49435 
L 156.53562 278.015314 
L 158.214096 278.015314 
L 158.773588 279.903324 
L 160.452064 279.903324 
L 161.011556 281.861647 
L 162.690032 281.861647 
L 163.249524 283.973418 
L 164.928 283.973418 
L 165.487492 286.079863 
L 167.165968 286.079863 
L 167.72546 288.353111 
L 169.403935 288.353111 
L 169.963427 290.263662 
L 171.641903 290.263662 
L 172.201395 292.253083 
L 173.879871 292.253083 
L 174.439363 294.342209 
L 176.117839 294.342209 
L 176.677331 296.519791 
L 178.355807 296.519791 
L 178.915299 298.794492 
L 180.593775 298.794492 
L 181.153267 300.002727 
L 182.831743 300.002727 
L 183.391235 298.564643 
L 185.069711 298.564643 
L 185.629203 297.429882 
L 187.307679 297.429882 
L 187.867171 296.646757 
L 189.545647 296.646757 
L 190.105139 296.062698 
L 191.783615 296.062698 
L 192.343107 295.457361 
L 194.021583 295.457361 
L 194.581075 294.947882 
L 196.25955 294.947882 
L 196.819042 294.344904 
L 200.735486 294.428089 
L 201.294978 294.823728 
L 202.973454 294.823728 
L 202.973454 294.823728 
" style="fill:none;stroke:#00008b;stroke-linecap:square;stroke-width:1.5;"/>
   </g>
   <g id="patch_8">
    <path d="M 38.482813 306.18 
L 38.482813 170.28 
" style="fill:none;stroke:#000000;stroke-linecap:square;stroke-linejoin:miter;stroke-width:0.8;"/>
   </g>
   <g id="patch_9">
    <path d="M 210.806342 306.18 
L 210.806342 170.28 
" style="fill:none;stroke:#000000;stroke-linecap:square;stroke-linejoin:miter;stroke-width:0.8;"/>
   </g>
   <g id="patch_10">
    <path d="M 38.482813 306.18 
L 210.806342 306.18 
" style="fill:none;stroke:#000000;stroke-linecap:square;stroke-linejoin:miter;stroke-width:0.8;"/>
   </g>
   <g id="patch_11">
    <path d="M 38.482813 170.28 
L 210.806342 170.28 
" style="fill:none;stroke:#000000;stroke-linecap:square;stroke-linejoin:miter;stroke-width:0.8;"/>
   </g>
  </g>
  <g id="axes_3">
   <g id="patch_12">
    <path d="M 245.271048 306.18 
L 417.594577 306.18 
L 417.594577 170.28 
L 245.271048 170.28 
z
" style="fill:#ffffff;"/>
   </g>
   <g id="matplotlib.axis_5">
    <g id="xtick_13">
     <g id="line2d_28">
      <g>
       <use style="stroke:#000000;stroke-width:0.8;" x="253.103935" xlink:href="#m43878930f7" y="306.18"/>
      </g>
     </g>
     <g id="text_23">
      <!-- 0 -->
      <g transform="translate(249.922685 320.778438)scale(0.1 -0.1)">
       <use xlink:href="#DejaVuSans-48"/>
      </g>
     </g>
    </g>
    <g id="xtick_14">
     <g id="line2d_29">
      <g>
       <use style="stroke:#000000;stroke-width:0.8;" x="297.863294" xlink:href="#m43878930f7" y="306.18"/>
      </g>
     </g>
     <g id="text_24">
      <!-- 20 -->
      <g transform="translate(291.500794 320.778438)scale(0.1 -0.1)">
       <use xlink:href="#DejaVuSans-50"/>
       <use x="63.623047" xlink:href="#DejaVuSans-48"/>
      </g>
     </g>
    </g>
    <g id="xtick_15">
     <g id="line2d_30">
      <g>
       <use style="stroke:#000000;stroke-width:0.8;" x="342.622652" xlink:href="#m43878930f7" y="306.18"/>
      </g>
     </g>
     <g id="text_25">
      <!-- 40 -->
      <g transform="translate(336.260152 320.778438)scale(0.1 -0.1)">
       <use xlink:href="#DejaVuSans-52"/>
       <use x="63.623047" xlink:href="#DejaVuSans-48"/>
      </g>
     </g>
    </g>
    <g id="xtick_16">
     <g id="line2d_31">
      <g>
       <use style="stroke:#000000;stroke-width:0.8;" x="387.38201" xlink:href="#m43878930f7" y="306.18"/>
      </g>
     </g>
     <g id="text_26">
      <!-- 60 -->
      <g transform="translate(381.01951 320.778438)scale(0.1 -0.1)">
       <use xlink:href="#DejaVuSans-54"/>
       <use x="63.623047" xlink:href="#DejaVuSans-48"/>
      </g>
     </g>
    </g>
   </g>
   <g id="matplotlib.axis_6">
    <g id="ytick_11">
     <g id="line2d_32">
      <g>
       <use style="stroke:#000000;stroke-width:0.8;" x="245.271048" xlink:href="#m01110fda8d" y="293.022385"/>
      </g>
     </g>
     <g id="text_27">
      <!-- 0.85 -->
      <g transform="translate(216.005423 296.821604)scale(0.1 -0.1)">
       <use xlink:href="#DejaVuSans-48"/>
       <use x="63.623047" xlink:href="#DejaVuSans-46"/>
       <use x="95.410156" xlink:href="#DejaVuSans-56"/>
       <use x="159.033203" xlink:href="#DejaVuSans-53"/>
      </g>
     </g>
    </g>
    <g id="ytick_12">
     <g id="line2d_33">
      <g>
       <use style="stroke:#000000;stroke-width:0.8;" x="245.271048" xlink:href="#m01110fda8d" y="255.885901"/>
      </g>
     </g>
     <g id="text_28">
      <!-- 0.90 -->
      <g transform="translate(216.005423 259.68512)scale(0.1 -0.1)">
       <use xlink:href="#DejaVuSans-48"/>
       <use x="63.623047" xlink:href="#DejaVuSans-46"/>
       <use x="95.410156" xlink:href="#DejaVuSans-57"/>
       <use x="159.033203" xlink:href="#DejaVuSans-48"/>
      </g>
     </g>
    </g>
    <g id="ytick_13">
     <g id="line2d_34">
      <g>
       <use style="stroke:#000000;stroke-width:0.8;" x="245.271048" xlink:href="#m01110fda8d" y="218.749417"/>
      </g>
     </g>
     <g id="text_29">
      <!-- 0.95 -->
      <g transform="translate(216.005423 222.548636)scale(0.1 -0.1)">
       <use xlink:href="#DejaVuSans-48"/>
       <use x="63.623047" xlink:href="#DejaVuSans-46"/>
       <use x="95.410156" xlink:href="#DejaVuSans-57"/>
       <use x="159.033203" xlink:href="#DejaVuSans-53"/>
      </g>
     </g>
    </g>
    <g id="ytick_14">
     <g id="line2d_35">
      <g>
       <use style="stroke:#000000;stroke-width:0.8;" x="245.271048" xlink:href="#m01110fda8d" y="181.612933"/>
      </g>
     </g>
     <g id="text_30">
      <!-- 1.00 -->
      <g transform="translate(216.005423 185.412151)scale(0.1 -0.1)">
       <use xlink:href="#DejaVuSans-49"/>
       <use x="63.623047" xlink:href="#DejaVuSans-46"/>
       <use x="95.410156" xlink:href="#DejaVuSans-48"/>
       <use x="159.033203" xlink:href="#DejaVuSans-48"/>
      </g>
     </g>
    </g>
   </g>
   <g id="line2d_36">
    <path clip-path="url(#pc88d40e4ca)" d="M 253.103935 181.612933 
L 255.341903 181.612933 
L 255.901395 188.171548 
L 257.579871 188.171548 
L 258.139363 194.223393 
L 259.817839 194.223393 
L 260.377331 196.986708 
L 262.055807 196.986708 
L 262.615299 199.463468 
L 264.293775 199.463468 
L 264.853267 201.913647 
L 266.531743 201.913647 
L 267.091235 204.40662 
L 268.769711 204.40662 
L 269.329203 206.807258 
L 271.007679 206.807258 
L 271.567171 209.269589 
L 273.245647 209.269589 
L 273.805139 211.7286 
L 275.483615 211.7286 
L 276.043107 214.19036 
L 277.721583 214.19036 
L 278.281075 216.623765 
L 279.95955 216.623765 
L 280.519042 219.331534 
L 282.197518 219.331534 
L 282.75701 222.121725 
L 284.435486 222.121725 
L 284.994978 225.414002 
L 286.673454 225.414002 
L 287.232946 231.342208 
L 288.911422 231.342208 
L 289.470914 237.236089 
L 291.14939 237.236089 
L 291.708882 243.21453 
L 293.387358 243.21453 
L 293.94685 249.073767 
L 295.625326 249.073767 
L 296.184818 251.291318 
L 297.863294 251.291318 
L 298.422786 248.09536 
L 300.101262 248.09536 
L 300.660754 244.88888 
L 302.33923 244.88888 
L 302.898722 241.664211 
L 304.577198 241.664211 
L 305.13669 238.421392 
L 306.815165 238.421392 
L 307.374657 235.151403 
L 309.053133 235.151403 
L 309.612625 231.958782 
L 311.291101 231.958782 
L 311.850593 228.107693 
L 313.529069 228.107693 
L 314.088561 224.286781 
L 315.767037 224.286781 
L 316.326529 220.320547 
L 318.005005 220.320547 
L 318.564497 216.301149 
L 320.242973 216.301149 
L 320.802465 218.967514 
L 322.480941 218.967514 
L 323.040433 223.278386 
L 324.718909 223.278386 
L 325.278401 227.649016 
L 326.956877 227.649016 
L 327.516369 232.691394 
L 329.194845 232.691394 
L 329.754337 239.523354 
L 331.432813 239.523354 
L 331.992304 246.377635 
L 333.67078 246.377635 
L 334.230272 253.179864 
L 335.908748 253.179864 
L 336.46824 260.058029 
L 338.146716 260.058029 
L 338.706208 266.843358 
L 340.384684 266.843358 
L 340.944176 265.482412 
L 342.622652 265.482412 
L 343.182144 264.051874 
L 344.86062 264.051874 
L 345.420112 262.633695 
L 347.098588 262.633695 
L 347.65808 261.129509 
L 349.336556 261.129509 
L 349.896048 259.727391 
L 351.574524 259.727391 
L 352.134016 258.221559 
L 353.812492 258.221559 
L 354.371984 256.803582 
L 356.05046 256.803582 
L 356.609952 255.77601 
L 358.288427 255.77601 
L 358.847919 255.026438 
L 360.526395 255.026438 
L 361.085887 254.2719 
L 362.764363 254.2719 
L 363.323855 253.293466 
L 365.002331 253.293466 
L 365.561823 250.248298 
L 367.240299 250.248298 
L 367.799791 247.24112 
L 369.478267 247.24112 
L 370.037759 244.153731 
L 371.716235 244.153731 
L 372.275727 241.076495 
L 373.954203 241.076495 
L 374.513695 238.004188 
L 376.192171 238.004188 
L 376.751663 234.24469 
L 378.430139 234.24469 
L 378.989631 230.575849 
L 380.668107 230.575849 
L 381.227599 226.82783 
L 382.906075 226.82783 
L 383.465567 223.07909 
L 385.144042 223.07909 
L 385.703534 219.287262 
L 387.38201 219.287262 
L 387.941502 213.632787 
L 389.619978 213.632787 
L 390.17947 203.66539 
L 391.857946 203.66539 
L 392.417438 193.662435 
L 394.095914 193.662435 
L 394.655406 183.659893 
L 396.333882 183.659893 
L 396.893374 181.852512 
L 398.57185 181.852512 
L 399.131342 180.067252 
L 400.809818 180.067252 
L 401.36931 178.254104 
L 403.047786 178.254104 
L 403.607278 176.457273 
L 405.285754 176.457273 
L 405.845246 179.112322 
L 407.523722 179.112322 
L 408.083214 183.648795 
L 409.76169 183.648795 
L 409.76169 183.648795 
" style="fill:none;stroke:#3cb371;stroke-linecap:square;stroke-width:1.5;"/>
   </g>
   <g id="patch_13">
    <path d="M 245.271048 306.18 
L 245.271048 170.28 
" style="fill:none;stroke:#000000;stroke-linecap:square;stroke-linejoin:miter;stroke-width:0.8;"/>
   </g>
   <g id="patch_14">
    <path d="M 417.594577 306.18 
L 417.594577 170.28 
" style="fill:none;stroke:#000000;stroke-linecap:square;stroke-linejoin:miter;stroke-width:0.8;"/>
   </g>
   <g id="patch_15">
    <path d="M 245.271048 306.18 
L 417.594577 306.18 
" style="fill:none;stroke:#000000;stroke-linecap:square;stroke-linejoin:miter;stroke-width:0.8;"/>
   </g>
   <g id="patch_16">
    <path d="M 245.271048 170.28 
L 417.594577 170.28 
" style="fill:none;stroke:#000000;stroke-linecap:square;stroke-linejoin:miter;stroke-width:0.8;"/>
   </g>
  </g>
  <g id="axes_4">
   <g id="patch_17">
    <path d="M 452.059283 306.18 
L 624.382813 306.18 
L 624.382813 170.28 
L 452.059283 170.28 
z
" style="fill:#ffffff;"/>
   </g>
   <g id="matplotlib.axis_7">
    <g id="xtick_17">
     <g id="line2d_37">
      <g>
       <use style="stroke:#000000;stroke-width:0.8;" x="459.892171" xlink:href="#m43878930f7" y="306.18"/>
      </g>
     </g>
     <g id="text_31">
      <!-- 0 -->
      <g transform="translate(456.710921 320.778438)scale(0.1 -0.1)">
       <use xlink:href="#DejaVuSans-48"/>
      </g>
     </g>
    </g>
    <g id="xtick_18">
     <g id="line2d_38">
      <g>
       <use style="stroke:#000000;stroke-width:0.8;" x="504.651529" xlink:href="#m43878930f7" y="306.18"/>
      </g>
     </g>
     <g id="text_32">
      <!-- 20 -->
      <g transform="translate(498.289029 320.778438)scale(0.1 -0.1)">
       <use xlink:href="#DejaVuSans-50"/>
       <use x="63.623047" xlink:href="#DejaVuSans-48"/>
      </g>
     </g>
    </g>
    <g id="xtick_19">
     <g id="line2d_39">
      <g>
       <use style="stroke:#000000;stroke-width:0.8;" x="549.410887" xlink:href="#m43878930f7" y="306.18"/>
      </g>
     </g>
     <g id="text_33">
      <!-- 40 -->
      <g transform="translate(543.048387 320.778438)scale(0.1 -0.1)">
       <use xlink:href="#DejaVuSans-52"/>
       <use x="63.623047" xlink:href="#DejaVuSans-48"/>
      </g>
     </g>
    </g>
    <g id="xtick_20">
     <g id="line2d_40">
      <g>
       <use style="stroke:#000000;stroke-width:0.8;" x="594.170246" xlink:href="#m43878930f7" y="306.18"/>
      </g>
     </g>
     <g id="text_34">
      <!-- 60 -->
      <g transform="translate(587.807746 320.778438)scale(0.1 -0.1)">
       <use xlink:href="#DejaVuSans-54"/>
       <use x="63.623047" xlink:href="#DejaVuSans-48"/>
      </g>
     </g>
    </g>
   </g>
   <g id="matplotlib.axis_8">
    <g id="ytick_15">
     <g id="line2d_41">
      <g>
       <use style="stroke:#000000;stroke-width:0.8;" x="452.059283" xlink:href="#m01110fda8d" y="282.930068"/>
      </g>
     </g>
     <g id="text_35">
      <!-- 0.80 -->
      <g transform="translate(422.793658 286.729287)scale(0.1 -0.1)">
       <use xlink:href="#DejaVuSans-48"/>
       <use x="63.623047" xlink:href="#DejaVuSans-46"/>
       <use x="95.410156" xlink:href="#DejaVuSans-56"/>
       <use x="159.033203" xlink:href="#DejaVuSans-48"/>
      </g>
     </g>
    </g>
    <g id="ytick_16">
     <g id="line2d_42">
      <g>
       <use style="stroke:#000000;stroke-width:0.8;" x="452.059283" xlink:href="#m01110fda8d" y="256.311869"/>
      </g>
     </g>
     <g id="text_36">
      <!-- 0.85 -->
      <g transform="translate(422.793658 260.111088)scale(0.1 -0.1)">
       <use xlink:href="#DejaVuSans-48"/>
       <use x="63.623047" xlink:href="#DejaVuSans-46"/>
       <use x="95.410156" xlink:href="#DejaVuSans-56"/>
       <use x="159.033203" xlink:href="#DejaVuSans-53"/>
      </g>
     </g>
    </g>
    <g id="ytick_17">
     <g id="line2d_43">
      <g>
       <use style="stroke:#000000;stroke-width:0.8;" x="452.059283" xlink:href="#m01110fda8d" y="229.69367"/>
      </g>
     </g>
     <g id="text_37">
      <!-- 0.90 -->
      <g transform="translate(422.793658 233.492889)scale(0.1 -0.1)">
       <use xlink:href="#DejaVuSans-48"/>
       <use x="63.623047" xlink:href="#DejaVuSans-46"/>
       <use x="95.410156" xlink:href="#DejaVuSans-57"/>
       <use x="159.033203" xlink:href="#DejaVuSans-48"/>
      </g>
     </g>
    </g>
    <g id="ytick_18">
     <g id="line2d_44">
      <g>
       <use style="stroke:#000000;stroke-width:0.8;" x="452.059283" xlink:href="#m01110fda8d" y="203.075472"/>
      </g>
     </g>
     <g id="text_38">
      <!-- 0.95 -->
      <g transform="translate(422.793658 206.87469)scale(0.1 -0.1)">
       <use xlink:href="#DejaVuSans-48"/>
       <use x="63.623047" xlink:href="#DejaVuSans-46"/>
       <use x="95.410156" xlink:href="#DejaVuSans-57"/>
       <use x="159.033203" xlink:href="#DejaVuSans-53"/>
      </g>
     </g>
    </g>
    <g id="ytick_19">
     <g id="line2d_45">
      <g>
       <use style="stroke:#000000;stroke-width:0.8;" x="452.059283" xlink:href="#m01110fda8d" y="176.457273"/>
      </g>
     </g>
     <g id="text_39">
      <!-- 1.00 -->
      <g transform="translate(422.793658 180.256491)scale(0.1 -0.1)">
       <use xlink:href="#DejaVuSans-49"/>
       <use x="63.623047" xlink:href="#DejaVuSans-46"/>
       <use x="95.410156" xlink:href="#DejaVuSans-48"/>
       <use x="159.033203" xlink:href="#DejaVuSans-48"/>
      </g>
     </g>
    </g>
   </g>
   <g id="line2d_46">
    <path clip-path="url(#pcd653a8443)" d="M 459.892171 176.457273 
L 462.130139 176.457273 
L 462.689631 190.527695 
L 464.368107 190.527695 
L 464.927599 193.886612 
L 466.606075 193.886612 
L 467.165567 194.85958 
L 468.844042 194.85958 
L 469.403534 195.678066 
L 471.08201 195.678066 
L 471.641502 196.572212 
L 473.319978 196.572212 
L 473.87947 197.455406 
L 475.557946 197.455406 
L 476.117438 198.253122 
L 477.795914 198.253122 
L 478.355406 199.124273 
L 480.033882 199.124273 
L 480.593374 199.986158 
L 482.27185 199.986158 
L 482.831342 200.844321 
L 484.509818 200.844321 
L 485.06931 201.804887 
L 486.747786 201.804887 
L 487.307278 203.932762 
L 488.985754 203.932762 
L 489.545246 206.139162 
L 491.223722 206.139162 
L 491.783214 208.489218 
L 493.46169 208.489218 
L 494.021181 211.692514 
L 495.699657 211.692514 
L 496.259149 214.854146 
L 497.937625 214.854146 
L 498.497117 217.982301 
L 500.175593 217.982301 
L 500.735085 221.067351 
L 502.413561 221.067351 
L 502.973053 222.812378 
L 504.651529 222.812378 
L 505.211021 222.53895 
L 506.889497 222.53895 
L 507.448989 222.112702 
L 509.127465 222.112702 
L 509.686957 221.761598 
L 511.365433 221.761598 
L 511.924925 221.312182 
L 513.603401 221.312182 
L 514.162893 220.901692 
L 515.841369 220.901692 
L 516.400861 220.437417 
L 518.079337 220.437417 
L 518.638829 230.845882 
L 520.317304 230.845882 
L 520.876796 241.19676 
L 522.555272 241.19676 
L 523.114764 251.432743 
L 524.79324 251.432743 
L 525.352732 261.667547 
L 527.031208 261.667547 
L 527.5907 263.998872 
L 529.269176 263.998872 
L 529.828668 264.488092 
L 531.507144 264.488092 
L 532.066636 264.87249 
L 533.745112 264.87249 
L 534.304604 265.88916 
L 535.98308 265.88916 
L 536.542572 268.327683 
L 538.221048 268.327683 
L 538.78054 270.703193 
L 540.459016 270.703193 
L 541.018508 273.023163 
L 542.696984 273.023163 
L 543.256476 275.387166 
L 544.934952 275.387166 
L 545.494444 277.716129 
L 547.172919 277.716129 
L 547.732411 275.78953 
L 549.410887 275.78953 
L 549.970379 273.905167 
L 551.648855 273.905167 
L 552.208347 271.965376 
L 553.886823 271.965376 
L 554.446315 269.972099 
L 556.124791 269.972099 
L 556.684283 268.008801 
L 558.362759 268.008801 
L 558.922251 266.075453 
L 560.600727 266.075453 
L 561.160219 264.077457 
L 562.838695 264.077457 
L 563.398187 263.949681 
L 565.076663 263.949681 
L 565.636155 264.978357 
L 567.314631 264.978357 
L 567.874123 265.971134 
L 569.552599 265.971134 
L 570.112091 267.19405 
L 571.790567 267.19405 
L 572.350058 270.303503 
L 574.028534 270.303503 
L 574.588026 273.212006 
L 576.266502 273.212006 
L 576.825994 276.211908 
L 578.50447 276.211908 
L 579.063962 279.128233 
L 580.742438 279.128233 
L 581.30193 281.975687 
L 582.980406 281.975687 
L 583.539898 284.903853 
L 585.218374 284.903853 
L 585.777866 287.844573 
L 587.456342 287.844573 
L 588.015834 290.712387 
L 589.69431 290.712387 
L 590.253802 293.524133 
L 591.932278 293.524133 
L 592.49177 296.287238 
L 594.170246 296.287238 
L 594.729738 298.450868 
L 596.408214 298.450868 
L 596.967706 299.132353 
L 598.646181 299.132353 
L 599.205673 299.701717 
L 600.884149 299.701717 
L 601.443641 300.002727 
L 603.122117 300.002727 
L 603.681609 299.290126 
L 605.360085 299.290126 
L 605.919577 298.61681 
L 607.598053 298.61681 
L 608.157545 297.847515 
L 609.836021 297.847515 
L 610.395513 297.118182 
L 612.073989 297.118182 
L 612.633481 296.963362 
L 616.549925 296.944179 
L 616.549925 296.944179 
" style="fill:none;stroke:#006400;stroke-linecap:square;stroke-width:1.5;"/>
   </g>
   <g id="patch_18">
    <path d="M 452.059283 306.18 
L 452.059283 170.28 
" style="fill:none;stroke:#000000;stroke-linecap:square;stroke-linejoin:miter;stroke-width:0.8;"/>
   </g>
   <g id="patch_19">
    <path d="M 624.382813 306.18 
L 624.382813 170.28 
" style="fill:none;stroke:#000000;stroke-linecap:square;stroke-linejoin:miter;stroke-width:0.8;"/>
   </g>
   <g id="patch_20">
    <path d="M 452.059283 306.18 
L 624.382813 306.18 
" style="fill:none;stroke:#000000;stroke-linecap:square;stroke-linejoin:miter;stroke-width:0.8;"/>
   </g>
   <g id="patch_21">
    <path d="M 452.059283 170.28 
L 624.382813 170.28 
" style="fill:none;stroke:#000000;stroke-linecap:square;stroke-linejoin:miter;stroke-width:0.8;"/>
   </g>
   <g id="text_40">
    <!-- Africa: 0N, 20W -->
    <defs>
     <path d="M 34.1875 63.1875 
L 20.796875 26.90625 
L 47.609375 26.90625 
z
M 28.609375 72.90625 
L 39.796875 72.90625 
L 67.578125 0 
L 57.328125 0 
L 50.6875 18.703125 
L 17.828125 18.703125 
L 11.1875 0 
L 0.78125 0 
z
" id="DejaVuSans-65"/>
     <path d="M 37.109375 75.984375 
L 37.109375 68.5 
L 28.515625 68.5 
Q 23.6875 68.5 21.796875 66.546875 
Q 19.921875 64.59375 19.921875 59.515625 
L 19.921875 54.6875 
L 34.71875 54.6875 
L 34.71875 47.703125 
L 19.921875 47.703125 
L 19.921875 0 
L 10.890625 0 
L 10.890625 47.703125 
L 2.296875 47.703125 
L 2.296875 54.6875 
L 10.890625 54.6875 
L 10.890625 58.5 
Q 10.890625 67.625 15.140625 71.796875 
Q 19.390625 75.984375 28.609375 75.984375 
z
" id="DejaVuSans-102"/>
     <path d="M 41.109375 46.296875 
Q 39.59375 47.171875 37.8125 47.578125 
Q 36.03125 48 33.890625 48 
Q 26.265625 48 22.1875 43.046875 
Q 18.109375 38.09375 18.109375 28.8125 
L 18.109375 0 
L 9.078125 0 
L 9.078125 54.6875 
L 18.109375 54.6875 
L 18.109375 46.1875 
Q 20.953125 51.171875 25.484375 53.578125 
Q 30.03125 56 36.53125 56 
Q 37.453125 56 38.578125 55.875 
Q 39.703125 55.765625 41.0625 55.515625 
z
" id="DejaVuSans-114"/>
     <path d="M 9.421875 54.6875 
L 18.40625 54.6875 
L 18.40625 0 
L 9.421875 0 
z
M 9.421875 75.984375 
L 18.40625 75.984375 
L 18.40625 64.59375 
L 9.421875 64.59375 
z
" id="DejaVuSans-105"/>
     <path d="M 48.78125 52.59375 
L 48.78125 44.1875 
Q 44.96875 46.296875 41.140625 47.34375 
Q 37.3125 48.390625 33.40625 48.390625 
Q 24.65625 48.390625 19.8125 42.84375 
Q 14.984375 37.3125 14.984375 27.296875 
Q 14.984375 17.28125 19.8125 11.734375 
Q 24.65625 6.203125 33.40625 6.203125 
Q 37.3125 6.203125 41.140625 7.25 
Q 44.96875 8.296875 48.78125 10.40625 
L 48.78125 2.09375 
Q 45.015625 0.34375 40.984375 -0.53125 
Q 36.96875 -1.421875 32.421875 -1.421875 
Q 20.0625 -1.421875 12.78125 6.34375 
Q 5.515625 14.109375 5.515625 27.296875 
Q 5.515625 40.671875 12.859375 48.328125 
Q 20.21875 56 33.015625 56 
Q 37.15625 56 41.109375 55.140625 
Q 45.0625 54.296875 48.78125 52.59375 
z
" id="DejaVuSans-99"/>
     <path d="M 34.28125 27.484375 
Q 23.390625 27.484375 19.1875 25 
Q 14.984375 22.515625 14.984375 16.5 
Q 14.984375 11.71875 18.140625 8.90625 
Q 21.296875 6.109375 26.703125 6.109375 
Q 34.1875 6.109375 38.703125 11.40625 
Q 43.21875 16.703125 43.21875 25.484375 
L 43.21875 27.484375 
z
M 52.203125 31.203125 
L 52.203125 0 
L 43.21875 0 
L 43.21875 8.296875 
Q 40.140625 3.328125 35.546875 0.953125 
Q 30.953125 -1.421875 24.3125 -1.421875 
Q 15.921875 -1.421875 10.953125 3.296875 
Q 6 8.015625 6 15.921875 
Q 6 25.140625 12.171875 29.828125 
Q 18.359375 34.515625 30.609375 34.515625 
L 43.21875 34.515625 
L 43.21875 35.40625 
Q 43.21875 41.609375 39.140625 45 
Q 35.0625 48.390625 27.6875 48.390625 
Q 23 48.390625 18.546875 47.265625 
Q 14.109375 46.140625 10.015625 43.890625 
L 10.015625 52.203125 
Q 14.9375 54.109375 19.578125 55.046875 
Q 24.21875 56 28.609375 56 
Q 40.484375 56 46.34375 49.84375 
Q 52.203125 43.703125 52.203125 31.203125 
z
" id="DejaVuSans-97"/>
     <path d="M 11.71875 12.40625 
L 22.015625 12.40625 
L 22.015625 0 
L 11.71875 0 
z
M 11.71875 51.703125 
L 22.015625 51.703125 
L 22.015625 39.3125 
L 11.71875 39.3125 
z
" id="DejaVuSans-58"/>
     <path id="DejaVuSans-32"/>
     <path d="M 9.8125 72.90625 
L 23.09375 72.90625 
L 55.421875 11.921875 
L 55.421875 72.90625 
L 64.984375 72.90625 
L 64.984375 0 
L 51.703125 0 
L 19.390625 60.984375 
L 19.390625 0 
L 9.8125 0 
z
" id="DejaVuSans-78"/>
     <path d="M 11.71875 12.40625 
L 22.015625 12.40625 
L 22.015625 4 
L 14.015625 -11.625 
L 7.71875 -11.625 
L 11.71875 4 
z
" id="DejaVuSans-44"/>
     <path d="M 3.328125 72.90625 
L 13.28125 72.90625 
L 28.609375 11.28125 
L 43.890625 72.90625 
L 54.984375 72.90625 
L 70.3125 11.28125 
L 85.59375 72.90625 
L 95.609375 72.90625 
L 77.296875 0 
L 64.890625 0 
L 49.515625 63.28125 
L 33.984375 0 
L 21.578125 0 
z
" id="DejaVuSans-87"/>
    </defs>
    <g transform="translate(491.496985 164.28)scale(0.12 -0.12)">
     <use xlink:href="#DejaVuSans-65"/>
     <use x="64.783203" xlink:href="#DejaVuSans-102"/>
     <use x="99.988281" xlink:href="#DejaVuSans-114"/>
     <use x="141.101562" xlink:href="#DejaVuSans-105"/>
     <use x="168.884766" xlink:href="#DejaVuSans-99"/>
     <use x="223.865234" xlink:href="#DejaVuSans-97"/>
     <use x="285.144531" xlink:href="#DejaVuSans-58"/>
     <use x="318.835938" xlink:href="#DejaVuSans-32"/>
     <use x="350.623047" xlink:href="#DejaVuSans-48"/>
     <use x="414.246094" xlink:href="#DejaVuSans-78"/>
     <use x="489.050781" xlink:href="#DejaVuSans-44"/>
     <use x="520.837891" xlink:href="#DejaVuSans-32"/>
     <use x="552.625" xlink:href="#DejaVuSans-50"/>
     <use x="616.248047" xlink:href="#DejaVuSans-48"/>
     <use x="679.871094" xlink:href="#DejaVuSans-87"/>
    </g>
   </g>
  </g>
 </g>
 <defs>
  <clipPath id="p30416bbd5b">
   <rect height="135.9" width="585.9" x="38.482813" y="7.2"/>
  </clipPath>
  <clipPath id="pb759f494e7">
   <rect height="135.9" width="172.323529" x="38.482813" y="170.28"/>
  </clipPath>
  <clipPath id="pc88d40e4ca">
   <rect height="135.9" width="172.323529" x="245.271048" y="170.28"/>
  </clipPath>
  <clipPath id="pcd653a8443">
   <rect height="135.9" width="172.323529" x="452.059283" y="170.28"/>
  </clipPath>
 </defs>
</svg>
